<?xml version="1.0" encoding="UTF-8" standalone="no"?>
<!DOCTYPE svg PUBLIC "-//W3C//DTD SVG 1.1//EN" "http://www.w3.org/Graphics/SVG/1.1/DTD/svg11.dtd">
<svg width="100%" height="100%" viewBox="0 0 459 517" version="1.1" xmlns="http://www.w3.org/2000/svg" xmlns:xlink="http://www.w3.org/1999/xlink" xml:space="preserve" xmlns:serif="http://www.serif.com/" style="fill-rule:evenodd;clip-rule:evenodd;stroke-linejoin:round;stroke-miterlimit:2;">
    <g transform="matrix(1,0,0,1,-14612.941727,-863.952719)">
        <g transform="matrix(0.888592,0,0,0.800591,7456.321388,100.849656)">
            <g transform="matrix(3.516799,0,0,3.903365,5478.484437,-221.225278)">
                <path d="M804.504,466.128C802.995,466.058 782.949,466.444 767.218,455.898C719.409,423.848 731.139,357.994 742.055,338.27C749.971,323.967 754.636,320.839 758.207,317.207C764.672,310.631 780.145,301.226 798.519,300.943C814.716,300.693 828.892,300.482 844.346,310.756C882.452,336.089 881.394,386.437 876.785,405.567C862.467,464.986 817.064,465.895 804.504,466.128Z" style="fill:rgb(246,140,66);"/>
            </g>
            <g transform="matrix(3.516799,0,0,3.903365,5478.484437,-221.225278)">
                <path d="M779.345,372.476C779.959,369.579 784.689,347.267 801.608,342.914C814.066,339.709 823.327,354.868 825.913,360.318C843.544,397.477 812.822,439.687 792.829,419.203C777.017,403.003 777.546,386.462 779.345,372.476Z" style="fill:rgb(49,27,66);"/>
            </g>
            <g transform="matrix(3.516799,0,0,3.903365,5478.484437,-221.225278)">
                <path d="M864.838,357.398C864.951,357.802 870.703,371.901 868.063,394.436C866.949,403.948 862.603,405.715 860.692,401.436C859.76,399.351 869.907,362.95 842.013,329.895C840.629,328.255 840.404,328.547 839.067,326.834C835.946,322.834 839.578,320.1 842.276,321.921C842.644,322.169 856.794,331.254 864.838,357.398Z" style="fill:rgb(249,245,246);"/>
            </g>
            <g transform="matrix(3.516799,0,0,3.903365,5478.484437,-221.225278)">
                <path d="M842.433,437.429C845.919,433.866 845.794,433.801 848.953,429.915C850.865,427.563 853.832,428.18 854.452,430.516C856.053,436.545 829.403,457.792 825.945,451.32C823.303,446.376 830.215,448.808 842.433,437.429Z" style="fill:rgb(249,245,246);"/>
            </g>
            <g transform="matrix(3.516799,0,0,3.903365,5478.484437,-221.225278)">
                <path d="M775.488,317.23C779.649,316.64 779.913,320.83 774.355,324.246C760.046,333.04 759.68,341.461 755.493,340.525C747.497,338.738 765.591,318.634 775.488,317.23Z" style="fill:rgb(249,245,246);"/>
            </g>
        </g>
    </g>
</svg>
