<?xml version="1.0" encoding="UTF-8" standalone="no"?>
<!DOCTYPE svg PUBLIC "-//W3C//DTD SVG 1.1//EN" "http://www.w3.org/Graphics/SVG/1.1/DTD/svg11.dtd">
<svg width="100%" height="100%" viewBox="0 0 277 509" version="1.1" xmlns="http://www.w3.org/2000/svg" xmlns:xlink="http://www.w3.org/1999/xlink" xml:space="preserve" xmlns:serif="http://www.serif.com/" style="fill-rule:evenodd;clip-rule:evenodd;stroke-linejoin:round;stroke-miterlimit:2;">
    <g transform="matrix(1,0,0,1,-12846.729282,-278.706626)">
        <g transform="matrix(0.888592,0,0,0.800591,7456.321388,100.849656)">
            <g>
                <g id="Fondo" transform="matrix(1.85701,0,0,2.061133,5271.148935,-515.783297)">
                    <path d="M446.114,635.463C446.436,633.659 446.29,633.654 446.767,632.603C452.205,620.628 455.847,618.281 464.671,614.954C467.776,613.782 466.789,608.697 466.778,607.503C466.213,546.452 468.575,514.478 467.722,488.492C467.567,483.768 469.271,481.941 464.564,481.089C430.801,474.981 416.585,437.424 438.969,410.906C458.692,387.541 488.71,363.642 510.45,359.27C545.336,352.254 567.753,376.046 570.575,402.494C571.636,412.435 571.015,579.601 571.651,610.49C571.727,614.172 578.555,614.032 582.426,616.627C606.286,632.623 595.03,662.495 571.494,665.437C566.063,666.115 476.087,665.858 472.489,665.748C460.102,665.367 451.466,656.108 449.987,653.217C445.738,644.91 445.86,644.745 446.114,635.463Z" style="fill:rgb(235,75,117);"/>
                    <g transform="matrix(0.680502,0,0,0.680502,150.396001,162.340857)">
                        <path d="M481.973,501.824C485.003,499.797 484.896,498.904 488.489,499.557C496.333,500.982 494.76,514.647 494.89,527.491C495.507,588.309 495.919,588.234 495.814,593.515C495.649,601.871 486.754,601.916 484.74,600.194C479.827,595.994 481.598,594.799 480.374,554.5C480.071,538.842 479.92,538.859 479.964,537.5C480.856,510.16 477.858,507.47 481.973,501.824Z" style="fill:rgb(249,245,246);"/>
                    </g>
                    <g transform="matrix(0.670445,0,0,0.670445,148.331058,125.579742)">
                        <path d="M490.319,386.259C491.009,385.67 495.874,381.371 499.464,381.092C505.323,380.638 506.109,384.928 506.225,385.566C507.65,393.345 496.89,394.785 464.156,429.135C455.443,438.279 449.438,430.543 450.153,425.455C451.007,419.384 479.798,393.489 490.319,386.259Z" style="fill:rgb(249,245,246);"/>
                    </g>
                    <g transform="matrix(0.426667,0,0,0.426667,0,0)">
                        <circle cx="1091.686" cy="1505.857" r="13.13" style="fill:rgb(249,245,246);"/>
                    </g>
                </g>
            </g>
        </g>
    </g>
</svg>
