<?xml version="1.0" encoding="UTF-8" standalone="no"?>
<!DOCTYPE svg PUBLIC "-//W3C//DTD SVG 1.1//EN" "http://www.w3.org/Graphics/SVG/1.1/DTD/svg11.dtd">
<svg width="100%" height="100%" viewBox="0 0 358 515" version="1.1" xmlns="http://www.w3.org/2000/svg" xmlns:xlink="http://www.w3.org/1999/xlink" xml:space="preserve" xmlns:serif="http://www.serif.com/" style="fill-rule:evenodd;clip-rule:evenodd;stroke-linejoin:round;stroke-miterlimit:2;">
    <g transform="matrix(1,0,0,1,-13257.169396,-278.706626)">
        <g transform="matrix(0.888592,0,0,0.800591,7456.321388,100.849656)">
            <g transform="matrix(3.516799,0,0,3.903365,5478.484437,-221.225278)">
                <path d="M319.581,276.119C314.581,274.58 311.164,274.095 306.012,268.991C305.309,268.294 300.794,263.822 299.39,258.53C293.498,236.322 316.283,222.129 354.401,186.396C374.155,167.877 363.237,157.6 356.499,157.925C341.918,158.627 338.028,177.486 323.452,179.08C302.201,181.405 293.408,158.948 302.789,142.655C321.399,110.333 376.287,107.834 394.686,121.224C413.448,134.878 414.669,151.075 411.694,167.538C406.878,194.194 363.286,224.813 364.372,234.514C365.152,241.488 378.143,237.033 394.443,238.903C412.222,240.943 415.481,258.844 410.118,267.261C403.25,278.041 394.352,279.101 374.472,277.819C340.93,275.655 340.791,278.833 319.581,276.119Z" style="fill:rgb(236,77,81);"/>
            </g>
            <g transform="matrix(3.516799,0,0,3.903365,5478.484437,-221.225278)">
                <path d="M400.908,165.554C400.839,166.121 399.876,174.053 395.616,170.348C391.852,167.075 400.461,157.595 388.024,139.87C387.983,139.811 380.581,132.859 385.299,131.063C389.685,129.394 399.263,142.297 400.913,154.447C401.672,160.032 401.679,160.007 400.908,165.554Z" style="fill:rgb(249,245,246);"/>
            </g>
            <g transform="matrix(-3.516799,0,0,3.903365,8477.240061,181.898477)">
                <path d="M536.805,139.326C535.147,136.741 533.194,134.583 534.756,132.724C535.612,131.705 537.587,131.367 539.213,132.827C547.543,140.304 548.293,160.741 541.536,159.345C535.619,158.123 544.068,152.237 536.805,139.326Z" style="fill:rgb(249,245,246);"/>
            </g>
            <g transform="matrix(3.516799,0,0,3.903365,5478.484437,-221.225278)">
                <path d="M321.472,136.464C325.476,133.804 325.334,133.667 328.718,131.91C336.86,127.685 338.418,132.48 338.163,133.451C337.509,135.948 331.5,137.464 331.487,137.469C322.906,140.696 320.065,149.242 316.453,148.761C314.913,148.557 310.389,145.965 321.472,136.464Z" style="fill:rgb(249,245,246);"/>
            </g>
            <g transform="matrix(1.125376,0,0,1.249077,5478.484437,-221.225278)">
                <circle cx="1224.556" cy="804.454" r="9.946" style="fill:rgb(249,245,246);"/>
            </g>
        </g>
    </g>
</svg>
