<?xml version="1.0" encoding="UTF-8" standalone="no"?>
<!DOCTYPE svg PUBLIC "-//W3C//DTD SVG 1.1//EN" "http://www.w3.org/Graphics/SVG/1.1/DTD/svg11.dtd">
<svg width="100%" height="100%" viewBox="0 0 436 519" version="1.1" xmlns="http://www.w3.org/2000/svg" xmlns:xlink="http://www.w3.org/1999/xlink" xml:space="preserve" xmlns:serif="http://www.serif.com/" style="fill-rule:evenodd;clip-rule:evenodd;stroke-linejoin:round;stroke-miterlimit:2;">
    <g transform="matrix(1,0,0,1,-13702.894852,-281.984544)">
        <g transform="matrix(0.888592,0,0,0.800591,7456.321388,100.849656)">
            <g transform="matrix(3.516799,0,0,3.903365,5478.484437,-221.225278)">
                <path d="M580.151,216.531C580.181,217.203 583.894,241.371 564.905,260.889C564.195,261.62 547.316,283.511 497.529,280.045C490.804,279.576 472.823,274.894 464.685,268.25C460.523,264.853 443.674,253.975 448.997,234.651C451.142,226.862 457.632,223.502 458.713,222.943C465.979,219.182 477.794,219.123 485.22,230.686C488.741,236.167 490.465,240.085 502.484,241.659C506.406,242.172 516.91,240.728 520.134,233.35C523.531,225.576 521.539,215.01 505.475,213.919C500.257,213.564 481.656,213.719 477.706,196.457C473.635,178.671 492.954,173.122 504.076,157.234C509.314,149.751 487.136,150.622 478.314,157.243C475.068,159.68 464.899,170.879 451.761,163.066C433.394,152.141 438.427,121.234 469.431,117.111C486.222,114.878 499.818,117.037 515.447,115.043C553.392,110.202 565.682,149.976 547.316,173.373C543.38,178.387 551.443,175.011 565.647,188.344C577.07,199.065 578.453,209.078 580.151,216.531Z" style="fill:rgb(153,86,164);"/>
            </g>
            <g transform="matrix(3.516799,0,0,3.903365,5478.484437,-221.225278)">
                <path d="M566.841,217.414C567.789,221.319 574.275,248.04 546.391,263.298C542.703,265.316 536.633,261.417 544.316,257.164C549.907,254.069 574.514,236.001 552.179,203.707C549.611,199.994 553.314,194.75 558.657,201.379C564.034,208.053 566.428,216.035 566.841,217.414Z" style="fill:rgb(249,245,246);"/>
            </g>
            <g transform="matrix(3.516799,0,0,3.903365,5478.484437,-221.225278)">
                <path d="M536.805,139.326C535.147,136.741 533.194,134.583 534.756,132.724C535.612,131.705 537.587,131.367 539.213,132.827C547.543,140.304 548.293,160.741 541.536,159.345C535.619,158.123 544.068,152.237 536.805,139.326Z" style="fill:rgb(249,245,246);"/>
            </g>
            <g transform="matrix(3.516799,0,0,3.903365,5478.484437,-221.225278)">
                <path d="M455.477,134.475C456.151,133.956 462.444,129.108 465.411,130.706C470.651,133.528 462.895,136.967 462.371,137.2C457.834,139.211 456.526,143.175 454.369,144.029C453.654,144.312 446.853,143.284 455.477,134.475Z" style="fill:rgb(249,245,246);"/>
            </g>
        </g>
    </g>
</svg>
