<?xml version="1.0" encoding="UTF-8" standalone="no"?>
<!DOCTYPE svg PUBLIC "-//W3C//DTD SVG 1.1//EN" "http://www.w3.org/Graphics/SVG/1.1/DTD/svg11.dtd">
<svg width="100%" height="100%" viewBox="0 0 437 510" version="1.1" xmlns="http://www.w3.org/2000/svg" xmlns:xlink="http://www.w3.org/1999/xlink" xml:space="preserve" xmlns:serif="http://www.serif.com/" style="fill-rule:evenodd;clip-rule:evenodd;stroke-linejoin:round;stroke-miterlimit:2;">
    <g transform="matrix(1,0,0,1,-14208.401915,-280.542763)">
        <g transform="matrix(0.888592,0,0,0.800591,7456.321388,100.849656)">
            <g transform="matrix(3.516799,0,0,3.903365,5478.484437,-221.225278)">
                <path d="M742.156,216.565C742.964,224.038 743.037,230.584 734.3,238.274C724.387,247.001 715.86,241.251 714.351,249.465C713.399,254.646 711.89,279.955 687.457,276.818C687.187,276.783 671.03,274.185 672.33,252.49C672.984,241.583 675.653,237.94 668.442,236.89C646.836,233.741 624.584,241.664 613.172,233.995C596.656,222.896 604.784,206.814 605.403,205.455C605.475,205.297 643.27,131.036 646.942,125.825C664.871,100.378 697.6,120.874 682.837,146.685C680.57,150.649 680.606,150.616 674.051,162.248C666.833,175.055 657.095,189.259 663.39,190.855C665.511,191.393 668.119,190.418 678.507,191.385C686.962,192.172 681.662,185.983 695.723,140.572C706.345,106.265 742.577,112.36 738.024,138.424C735.697,151.745 724.825,198.974 725.18,200.581C726.281,205.561 737.143,200.303 742.156,216.565Z" style="fill:rgb(238,119,61);"/>
            </g>
            <g transform="matrix(3.516799,0,0,3.903365,5478.484437,-221.225278)">
                <path d="M724.858,156.523C724.626,158.948 723.43,171.429 719.555,186.513C717.905,192.937 712.466,190.097 713.41,185.482C714.748,178.942 714.968,179.05 716.273,172.457C720.611,150.54 717.573,145.144 722.502,145.478C726.6,145.756 725.035,153.891 724.858,156.523Z" style="fill:rgb(249,245,246);"/>
            </g>
            <g transform="matrix(3.516799,0,0,3.903365,5478.484437,-221.225278)">
                <path d="M640.298,156.408C655.793,127.286 659.07,128.177 661.084,129.962C663.867,132.429 661.242,132.923 652.202,147.318C644.054,160.293 643.173,166.873 639.5,163.501C637.324,161.503 640.208,156.641 640.298,156.408Z" style="fill:rgb(249,245,246);"/>
            </g>
            <g transform="matrix(3.516799,0,0,3.903365,5478.484437,-221.225278)">
                <path d="M673.499,222.098C673.555,222.099 677.565,221.619 678.616,223.414C678.774,223.684 679.905,225.614 678.312,227.314C677.393,228.295 677.01,228.704 661.499,227.509C659.073,227.322 658.626,225.759 658.547,225.484C657.133,220.545 663.155,221.626 673.499,222.098Z" style="fill:rgb(249,245,246);"/>
            </g>
            <g transform="matrix(1.125376,0,0,1.249077,5475.806466,-214.166034)">
                <circle cx="2167.162" cy="805.788" r="10.113" style="fill:rgb(249,245,246);"/>
            </g>
            <g transform="matrix(1.125376,0,0,1.249077,5478.484437,-221.225278)">
                <circle cx="2275.137" cy="687.997" r="9.518" style="fill:rgb(249,245,246);"/>
            </g>
        </g>
    </g>
</svg>
