<?xml version="1.0" encoding="UTF-8" standalone="no"?>
<!DOCTYPE svg PUBLIC "-//W3C//DTD SVG 1.1//EN" "http://www.w3.org/Graphics/SVG/1.1/DTD/svg11.dtd">
<svg width="100%" height="100%" viewBox="0 0 387 507" version="1.1" xmlns="http://www.w3.org/2000/svg" xmlns:xlink="http://www.w3.org/1999/xlink" xml:space="preserve" xmlns:serif="http://www.serif.com/" style="fill-rule:evenodd;clip-rule:evenodd;stroke-linejoin:round;stroke-miterlimit:2;">
    <g transform="matrix(1,0,0,1,-14730.217247,-287.847036)">
        <g transform="matrix(0.888592,0,0,0.800591,7456.321388,100.849656)">
            <g transform="matrix(3.516799,0,0,3.903365,5478.484437,-221.225278)">
                <path d="M859.518,158.13C857.913,158.013 855.123,158.042 847.433,156.851C846.822,156.756 843.929,156.019 843.435,155.968C826.059,154.174 823.963,154.454 822.487,159.496C819.921,168.268 818.825,172.233 820.615,173.31C822.502,174.446 849.262,169.729 868.287,179.884C899.528,196.56 895.731,228.655 888.678,245.576C871.769,286.15 807.443,285.127 784.596,264.394C757.769,240.048 772.308,213.416 790.471,212.208C807.776,211.057 809.889,223.376 813.28,229.608C821.091,243.965 843.659,236.654 842.272,218.513C840.639,197.169 813.611,200.695 808.45,201.144C807.297,201.245 782.837,208.251 775.926,190.329C770.943,177.406 781.155,141.361 783.7,136.605C794.899,115.677 812.093,115.785 828.473,116.908C846.454,118.14 852.672,117.469 864.566,119.129C881.532,121.496 887.527,140.181 878.238,151.282C871.731,159.059 862.422,158.068 859.518,158.13Z" style="fill:rgb(50,188,178);"/>
            </g>
            <g transform="matrix(3.516799,0,0,3.903365,5478.484437,-221.225278)">
                <path d="M882.786,222.501C882.447,233.478 880.863,243.487 867.621,254.649C867.159,255.039 861.588,259.736 860.132,255.664C857.757,249.02 878.041,248.573 876.042,216.524C875.49,207.682 881.274,211.69 882.023,213.706C882.646,215.382 882.772,221.795 882.786,222.501Z" style="fill:rgb(249,245,246);"/>
            </g>
            <g transform="matrix(3.516799,0,0,3.903365,5478.484437,-221.225278)">
                <path d="M794.906,153.584C794.667,154.489 794.012,161.151 789.447,158.571C786.606,156.966 789.14,131.008 814.495,126.451C818.981,125.644 819.961,130.677 816.583,131.703C808.765,134.077 798.636,135.941 794.906,153.584Z" style="fill:rgb(249,245,246);"/>
            </g>
            <g transform="matrix(1.125376,0,0,1.249077,5478.484437,-221.225278)">
                <circle cx="2707.238" cy="431.824" r="9.34" style="fill:rgb(249,245,246);"/>
            </g>
        </g>
    </g>
</svg>
