<?xml version="1.0" encoding="UTF-8" standalone="no"?>
<!DOCTYPE svg PUBLIC "-//W3C//DTD SVG 1.1//EN" "http://www.w3.org/Graphics/SVG/1.1/DTD/svg11.dtd">
<svg width="100%" height="100%" viewBox="0 0 391 517" version="1.1" xmlns="http://www.w3.org/2000/svg" xmlns:xlink="http://www.w3.org/1999/xlink" xml:space="preserve" xmlns:serif="http://www.serif.com/" style="fill-rule:evenodd;clip-rule:evenodd;stroke-linejoin:round;stroke-miterlimit:2;">
    <g transform="matrix(1,0,0,1,-12793.473443,-863.312563)">
        <g transform="matrix(0.888592,0,0,0.800591,7456.321388,100.849656)">
            <g transform="matrix(3.516799,0,0,3.903365,5478.484437,-221.225278)">
                <path d="M150.894,413.472C150.431,405.475 148.441,394.184 153.175,373.408C153.705,371.081 157.017,356.545 163.066,345.269C179.095,315.389 191.745,307.259 195.211,305.031C209.516,295.838 221.797,303.334 225.157,307.751C237.243,323.638 216.657,338.374 209.776,349.68C196.506,371.482 229.55,347.686 259.411,374.59C291.048,403.095 275.685,465.349 208.506,465.829C157.699,466.192 152.416,422.549 150.894,413.472Z" style="fill:rgb(230,145,166);"/>
            </g>
            <g transform="matrix(3.516799,0,0,3.903365,5478.484437,-221.225278)">
                <path d="M225.852,412.493C223.822,433.734 194.999,429.493 196.953,410.54C198.546,395.088 224.06,391.968 225.852,412.493Z" style="fill:rgb(49,27,66);"/>
            </g>
            <g transform="matrix(3.516799,0,0,3.903365,5478.484437,-221.225278)">
                <path d="M255.345,399.562C253.863,396.595 254.222,396.403 250.942,392.109C248.196,388.515 247.986,387.881 248.494,386.497C252.788,374.807 284.557,418.501 245.216,446.096C239.227,450.296 235.177,444.932 239.793,441.93C241.804,440.622 255.143,431.946 257.089,417.442C258.302,408.398 257.927,408.357 255.345,399.562Z" style="fill:rgb(249,245,246);"/>
            </g>
            <g transform="matrix(3.516799,0,0,3.903365,5478.484437,-221.225278)">
                <path d="M174.187,343.318C179.183,334.966 192.986,315.683 198.5,317.501C204.247,319.396 194.091,326.602 188.588,333.569C169.651,357.541 174.589,363.884 169.499,363.841C163.385,363.789 168.797,353.105 174.187,343.318Z" style="fill:rgb(249,245,246);"/>
            </g>
        </g>
    </g>
</svg>
