<?xml version="1.0" encoding="UTF-8" standalone="no"?>
<!DOCTYPE svg PUBLIC "-//W3C//DTD SVG 1.1//EN" "http://www.w3.org/Graphics/SVG/1.1/DTD/svg11.dtd">
<svg width="100%" height="100%" viewBox="0 0 366 509" version="1.1" xmlns="http://www.w3.org/2000/svg" xmlns:xlink="http://www.w3.org/1999/xlink" xml:space="preserve" xmlns:serif="http://www.serif.com/" style="fill-rule:evenodd;clip-rule:evenodd;stroke-linejoin:round;stroke-miterlimit:2;">
    <g transform="matrix(1,0,0,1,-13254.865191,-867.815143)">
        <g transform="matrix(0.888592,0,0,0.800591,7456.321388,100.849656)">
            <g transform="matrix(3.516799,0,0,3.903365,5478.484437,-221.225278)">
                <path d="M331.473,347.175C323.223,347.496 307.556,349.885 299.776,334.372C293.742,322.341 301.171,303.971 320.505,303.647C377.604,302.69 377.536,302.267 382.497,302.192C389.271,302.089 405.139,300.38 412.828,318.364C419.913,334.936 406.63,362.823 382.608,418.547C368.065,452.282 361.241,457.754 358.23,460.167C345.082,470.709 322.964,463.291 324.982,442.528C326.54,426.494 363.448,355.334 359.308,347.594C357.409,344.045 352.628,344.846 331.473,347.175Z" style="fill:rgb(161,206,143);"/>
            </g>
            <g transform="matrix(3.516799,0,0,3.903365,5478.484437,-221.225278)">
                <path d="M399.854,346.567C398.291,353.755 398.189,360.85 387.333,382.42C384.065,388.912 379.311,384.981 381.23,380.394C385.166,370.988 394.242,355.428 393.89,333.497C393.882,333.035 393.812,328.644 394.746,327.788C395.387,327.202 399.253,325.923 400.329,330.536C401.548,335.761 400.053,345.299 399.854,346.567Z" style="fill:rgb(249,245,246);"/>
            </g>
            <g transform="matrix(3.516799,0,0,3.903365,5478.484437,-221.225278)">
                <path d="M318.522,315.573C319.34,315.4 322.485,314.311 324.623,315.296C326.366,316.099 325.863,318.3 325.801,318.572C325.155,321.396 324.194,320.518 321.436,321.254C314.495,323.107 314.369,326.289 311.533,325.402C310.613,325.114 304.975,320.913 318.522,315.573Z" style="fill:rgb(249,245,246);"/>
            </g>
            <g transform="matrix(1.125376,0,0,1.249077,5478.484437,-221.225278)">
                <circle cx="1085.738" cy="1376.317" r="14.873" style="fill:rgb(249,245,246);"/>
            </g>
        </g>
    </g>
</svg>
