<?xml version="1.0" encoding="UTF-8" standalone="no"?>
<!DOCTYPE svg PUBLIC "-//W3C//DTD SVG 1.1//EN" "http://www.w3.org/Graphics/SVG/1.1/DTD/svg11.dtd">
<svg width="100%" height="100%" viewBox="0 0 422 513" version="1.1" xmlns="http://www.w3.org/2000/svg" xmlns:xlink="http://www.w3.org/1999/xlink" xml:space="preserve" xmlns:serif="http://www.serif.com/" style="fill-rule:evenodd;clip-rule:evenodd;stroke-linejoin:round;stroke-miterlimit:2;">
    <g transform="matrix(1,0,0,1,-13722.234688,-863.478552)">
        <g transform="matrix(0.888592,0,0,0.800591,7456.321388,100.849656)">
            <g transform="matrix(3.516799,0,0,3.903365,5478.484437,-221.225278)">
                <path d="M456.618,370.439C442.013,340.594 459.93,320.329 461.431,318.44C470.481,307.051 488.826,301.416 504.507,300.85C536.548,299.692 546.559,306.366 552.257,309.884C554.898,311.514 561.136,318.172 562.037,319.744C568.006,330.16 569.978,344.126 566.281,355.436C562.055,368.362 554.075,369.57 560.28,372.856C572.098,379.115 574.172,384.973 576.259,387.653C583.83,397.373 583.407,421.523 579.525,430.509C576.092,438.455 565.358,462.26 522.506,464.593C436.173,469.292 436.997,404.026 461.841,381.842C465.335,378.722 461.473,378.499 456.618,370.439Z" style="fill:rgb(252,209,74);"/>
            </g>
            <g transform="matrix(3.516799,0,0,3.903365,5478.484437,-221.225278)">
                <path d="M529.555,406.474C537.204,430.399 494.348,435.264 495.534,412.502C496.218,399.382 520.517,390.071 529.555,406.474Z" style="fill:rgb(49,27,66);"/>
            </g>
            <g transform="matrix(3.516799,0,0,3.903365,5478.484437,-221.225278)">
                <path d="M534.44,447.232C539.305,445.641 539.309,445.793 543.345,444.137C552.828,440.244 560.421,430.015 562.07,424.362C568.497,402.319 555.599,391.849 553.89,389.316C552.06,386.605 556.07,382.621 560.271,386.733C579.928,405.978 573.482,445.62 534.51,453.574C531.523,454.184 529.297,451.91 530.137,449.371C530.594,447.991 534.062,447.307 534.44,447.232Z" style="fill:rgb(249,245,246);"/>
            </g>
            <g transform="matrix(3.516799,0,0,3.903365,5478.484437,-221.225278)">
                <path d="M514.483,361.457C493.204,367.05 489.295,341.647 505.551,337.684C522.037,333.665 530.227,353.787 514.483,361.457Z" style="fill:rgb(49,27,66);"/>
            </g>
            <g transform="matrix(3.516799,0,0,3.903365,5478.484437,-221.225278)">
                <path d="M479.432,316.356C486.82,313.395 492.559,310.343 494.281,314.572C496.717,320.555 489.231,316.371 478.627,324.657C462.542,337.225 473.443,356.339 464.348,351.75C460.649,349.884 459.322,327.742 479.432,316.356Z" style="fill:rgb(249,245,246);"/>
            </g>
            <g transform="matrix(3.516799,0,0,3.903365,5478.484437,-221.225278)">
                <path d="M470.487,398.489C461.6,409.217 467.366,420.15 460.507,417.482C451.829,414.107 468.608,382.676 475.909,389.106C478.814,391.665 474.028,393.922 470.487,398.489Z" style="fill:rgb(249,245,246);"/>
            </g>
            <g transform="matrix(3.516799,0,0,3.903365,5478.484437,-221.225278)">
                <path d="M553.921,342.479C553.653,340.646 553.692,334.881 549.366,329.609C549.102,329.287 546.668,326.32 548.476,324.476C555.487,317.324 566.123,348.997 557.525,349.778C553.244,350.167 553.931,343.917 553.921,342.479Z" style="fill:rgb(249,245,246);"/>
            </g>
        </g>
    </g>
</svg>
