<?xml version="1.0" encoding="UTF-8" standalone="no"?>
<!DOCTYPE svg PUBLIC "-//W3C//DTD SVG 1.1//EN" "http://www.w3.org/Graphics/SVG/1.1/DTD/svg11.dtd">
<svg width="100%" height="100%" viewBox="0 0 398 513" version="1.1" xmlns="http://www.w3.org/2000/svg" xmlns:xlink="http://www.w3.org/1999/xlink" xml:space="preserve" xmlns:serif="http://www.serif.com/" style="fill-rule:evenodd;clip-rule:evenodd;stroke-linejoin:round;stroke-miterlimit:2;">
    <g transform="matrix(1,0,0,1,-14163.62181,-863.766464)">
        <g transform="matrix(0.888592,0,0,0.800591,7456.321388,100.849656)">
            <g transform="matrix(3.516799,0,0,3.903365,5478.484437,-221.225278)">
                <path d="M715.161,360.518C715.578,371.023 719.107,410.01 696.232,439.289C668.178,475.198 619.617,467.089 612.428,451.535C603.931,433.151 617.322,422.29 627.518,421.925C640.267,421.469 647.362,427.807 658.578,414.561C658.745,414.364 667.722,402.59 662.501,403.509C648.346,406 621.347,409.909 600.374,385.607C579.474,361.391 585.849,318.326 622.609,304.803C639.208,298.697 687.5,295.159 706.383,328.566C711.08,336.875 713.847,345.014 715.161,360.518Z" style="fill:rgb(94,197,227);"/>
            </g>
            <g transform="matrix(3.516799,0,0,3.903365,5478.484437,-221.225278)">
                <path d="M649.52,369.943C626.376,369.165 630.811,339.284 648.494,339.188C665.362,339.097 669.629,367.331 649.52,369.943Z" style="fill:rgb(49,27,66);"/>
            </g>
            <g transform="matrix(3.516799,0,0,3.903365,5478.484437,-221.225278)">
                <path d="M699.217,372.499C698.578,345.571 688.78,334.424 684.927,329.189C681.062,323.935 686.575,320.291 691.013,325.917C711.877,352.367 705.574,384.038 704.677,389.539C703.861,394.54 697.225,396.332 697.871,388.539C698.542,380.453 698.983,380.553 699.217,372.499Z" style="fill:rgb(249,245,246);"/>
            </g>
            <g transform="matrix(3.516799,0,0,3.903365,5478.484437,-221.225278)">
                <path d="M617.856,324.925C602.713,338.271 607.785,342.129 604.096,345.008C603.534,345.447 595.911,348.04 600.929,336.679C609.761,316.684 629.187,311.595 631.203,312.948C633.422,314.439 633.177,317.494 630.516,318.533C628.05,319.497 624.746,319.984 617.856,324.925Z" style="fill:rgb(249,245,246);"/>
            </g>
            <g transform="matrix(3.516799,0,0,3.903365,5478.484437,-221.225278)">
                <path d="M667.51,444.517C682.246,436.331 680.24,432.038 684.474,432.662C696.438,434.426 661.237,459.435 658.4,451.541C656.833,447.181 663.787,446.375 667.51,444.517Z" style="fill:rgb(249,245,246);"/>
            </g>
        </g>
    </g>
</svg>
