<?xml version="1.0" encoding="UTF-8" standalone="no"?>
<!DOCTYPE svg PUBLIC "-//W3C//DTD SVG 1.1//EN" "http://www.w3.org/Graphics/SVG/1.1/DTD/svg11.dtd">
<svg width="100%" height="100%" viewBox="0 0 299 220" version="1.1" xmlns="http://www.w3.org/2000/svg" xmlns:xlink="http://www.w3.org/1999/xlink" xml:space="preserve" xmlns:serif="http://www.serif.com/" style="fill-rule:evenodd;clip-rule:evenodd;stroke-linejoin:round;stroke-miterlimit:2;">
    <g transform="matrix(1,0,0,1,-3237.806845,-72.881713)">
        <g transform="matrix(0.627301,0,0,1,2425.27341,3.791992)">
            <g id="Hamburguesa" transform="matrix(1.429023,0,0,0.896428,-956.32565,-316.803521)">
                <g id="Hamburguesa1" serif:id="Hamburguesa">
                    <g id="Fondo" transform="matrix(0.732162,0,0,0.732162,1367.286893,263.337818)">
                        <path d="M306.178,402.889C305.886,402.847 305.762,402.521 304.484,402.647C303.296,402.764 297.346,404.028 290.501,400.498C284.376,397.339 279.354,386.415 294.789,376.97C303.138,371.861 308.558,369.32 308.687,367.52C308.844,365.333 302.428,360.861 301.583,348.494C300.82,337.306 304.137,328.66 308.405,318.46C311.421,311.254 321.831,295.571 330.95,286.944C341.589,276.879 346.176,273.932 351.344,270.261C369.212,257.568 385.8,250.561 398.606,245.772C414.956,239.658 446.853,229.709 504.496,228.358C529.989,227.761 590.494,230.422 635.435,250.64C635.858,250.831 653.091,257.593 673.164,271.96C675.175,273.4 679.269,276.699 679.793,277.121C716.025,306.319 728.112,344.594 715.27,363.351C714.256,364.832 713.732,364.893 714.477,366.516C714.979,367.61 723.744,371.924 724.581,372.336C728.152,374.094 741.254,379.996 738.425,389.477C735.369,399.716 716.778,396.77 715.371,397.172C714.794,397.336 712.856,398.995 715.779,401.12C717.565,402.419 721.44,404.515 728.695,413.339C731.9,417.237 736.703,425.459 734.075,429.222C731.326,433.159 726.108,430.169 725.476,430.297C725.393,430.313 724.344,431.407 724.331,431.49C724.166,432.583 728.712,437.937 723.81,447.643C720.74,453.721 722.563,454.148 721.696,459.537C720.608,466.303 716.202,466.731 717.045,469.645C717.253,470.366 723.048,477.426 720.761,493.542C719.675,501.193 715.822,511.217 711.264,517.331C703.118,528.255 697.095,531.352 689.652,535.766C679.721,541.656 651.782,549.818 628.525,553.65C592.734,559.545 572.211,560.675 541.507,561.703C476.119,563.892 434.892,559.519 412.517,556.379C384.251,552.413 381.754,551.229 368.511,548.449C361.212,546.917 341.429,541.122 332.68,536.168C330.169,534.746 307.038,524.282 301.512,495.498C297.768,475.999 305.468,470.239 305.73,468.548C306.002,466.785 304.066,465.89 303.231,460.543C302.427,455.394 298.683,454.827 296.783,447.432C295.385,441.994 296.943,437.265 297.219,436.429C297.221,436.423 298.922,432.667 295.557,433.764C294.854,433.994 288.524,436.057 286.394,432.577C285.619,431.311 283.168,427.307 293.355,415.376C294.057,414.555 298.098,409.821 303.22,406.149C304.497,405.234 306.094,404.379 306.152,404.259C306.201,404.161 306.154,404.159 306.178,402.889Z" style="fill:rgb(129,45,34);"/>
                        <path d="M440.42,240.142C446.424,239.065 446.404,239.085 452.443,238.123C464.186,236.252 488.04,234.655 490.501,234.512C522.055,232.673 554.213,235.916 567.574,238.021C590.274,241.597 597.211,243.782 599.54,244.334C609.248,246.637 626.799,252.898 633.298,255.943C647.319,262.511 666.502,270.938 688.383,292.621C692.888,297.084 698.681,304.352 700.561,307.46C701.121,308.386 704.737,313.681 706.672,317.41C706.688,317.442 710.99,325.298 713.587,335.478C717.073,349.144 712.511,358.325 708.367,362.364C699.125,371.374 670.27,375.85 661.493,377.46C644.824,380.516 615.113,383.532 612.521,383.729C592.17,385.274 557.484,388.122 507.499,387.986C449.235,387.827 418.529,384.701 407.466,383.868C394.567,382.897 366.074,379.163 365.556,379.087C358.189,378.003 341.413,374.634 339.558,374.217C322.913,370.48 309.714,366.988 307.522,350.498C304.493,327.706 324.707,302.729 325.577,301.558C333.492,290.904 354.055,271.703 385.378,257.247C410.916,245.461 437.887,240.661 440.42,240.142Z" style="fill:rgb(242,239,229);"/>
                        <path d="M616.425,496.119C619.586,495.417 620.234,495.465 624.663,493.965C634.564,490.61 635.014,492.18 647.505,491.619C654.392,491.309 665.689,488.736 671.403,486.268C679.425,482.802 682.808,484.812 693.499,480.498C698.34,478.545 707.83,471.276 711.599,472.118C713.055,472.443 715.233,477.092 715.601,482.495C716.014,488.558 715.024,493.219 714.81,494.551C713.748,501.159 709.38,511.289 704.683,516.664C698.477,523.764 695.674,525.025 692.4,527.36C671.172,542.498 615.629,550.689 599.465,552.158C590.026,553.016 575.502,555.192 536.49,556.151C469.894,557.789 449.308,554.531 421.449,551.913C412.254,551.049 387.368,546.803 386.475,546.624C340.612,537.4 327.889,528.027 319.64,519.364C306.819,505.899 304.15,485.71 307.724,476.582C309.807,471.263 311.259,471.73 313.281,472.91C316.025,474.511 316.101,474.343 321.709,477.044C336.507,484.171 337.943,483.172 350.504,484.468C356.214,485.056 356.135,485.457 361.317,487.895C372.313,493.066 378.332,491.972 396.495,492.643C409.775,493.133 413.968,499.211 441.51,500.236C467.533,501.205 467.684,497.059 493.456,500.809C510.836,503.338 510.91,502.755 529.486,501.311C541.768,500.356 541.731,500.124 550.49,499.387C569.801,497.761 570.043,502.357 591.504,498.524C603.841,496.32 604.019,497.978 616.425,496.119Z" style="fill:rgb(242,239,229);"/>
                        <path d="M693.506,424.149C695.113,424.193 705.117,424.466 713.45,426.685C714.22,426.89 715.921,426.929 718.083,430.737C723.395,440.092 718.533,444.981 717.433,447.467C715.049,452.855 716.818,453.154 716.251,458.48C715.513,465.418 707.39,465.833 699.62,470.703C686.031,479.22 681.158,476.71 670.495,480.487C648.789,488.177 644.764,485.192 633.471,486.226C623.823,487.109 620.388,490.909 609.494,491.351C599.882,491.741 599.832,491.274 589.441,493.205C570.461,496.731 570.032,491.175 542.503,494.521C532.707,495.712 511.221,497.558 505.525,497.06C493.227,495.986 483.285,492.6 469.513,493.661C463.037,494.159 453.936,495.297 434.518,494.181C421.048,493.407 409.614,488.966 402.441,487.828C387.218,485.413 377.534,489.521 361.298,481.926C350.549,476.898 342.888,480.725 328.289,473.989C324.408,472.198 318.768,469.922 313.431,466.602C306.636,462.376 311.223,459.09 305.599,452.419C303.841,450.333 298.936,444.838 303.355,434.435C304.619,431.46 304.884,431.192 311.572,429.827C324.437,427.201 350.537,426.876 376.482,430.615C389.271,432.457 389.304,432.202 408.416,435.926C424.678,439.095 424.603,439.362 441.438,443.738C442.824,444.098 455.568,447.868 464.562,451.318C467.532,452.457 467.592,452.243 470.53,453.429C480.572,457.484 493.287,462.344 516.642,477.252C527.085,483.917 531.459,486.894 540.569,479.59C544.172,476.703 544.245,476.828 547.816,473.872C553.453,469.206 565.199,461.153 568.47,459.446C570.287,458.498 577.326,453.725 592.438,447.361C619.939,435.781 664.804,425.23 686.489,424.252C690.007,424.094 689.989,424.157 693.506,424.149Z" style="fill:rgb(242,239,229);"/>
                        <path d="M704.218,372.364C704.433,372.215 704.477,371.887 704.692,371.737C704.836,371.637 704.888,371.758 706.616,370.691C710.351,368.387 710.364,370.965 718.617,375.262C725.356,378.772 735.479,382.814 732.497,388.498C729.134,394.908 708.106,390.138 699.486,391.403C685.627,393.436 684.529,402.967 680.339,408.378C669.462,422.427 649.42,407.232 637.411,403.816C616.962,398 606.809,413.368 599.475,418.469C593.648,422.521 585.102,432.414 563.68,422.107C548.09,414.605 546.048,410.782 535.566,407.292C521.413,402.581 510.902,408.101 502.485,412.474C502.01,412.721 501.978,412.737 496.745,415.914C493.218,418.055 492.823,418.228 485.44,421.361C484.313,421.839 478.84,424.768 468.495,425.41C452.336,426.414 442.274,416.099 432.318,408.758C428.46,405.914 423.986,404.07 422.452,403.73C405.277,399.934 392.093,410.6 376.377,415.039C372.931,416.013 363.986,417.079 357.724,412.211C352.393,408.066 346.866,399.677 343.514,397.481C337.52,393.555 333.298,392.816 317.558,395.806C316.258,396.053 291.403,401.71 290.314,391.518C289.54,384.276 302.223,379.919 311.694,372.765C315.043,370.236 315.446,373.234 324.411,375.753C324.644,375.818 327.237,376.547 327.279,376.71C327.31,376.827 326.676,377.873 326.168,378.15C325.85,378.323 317.205,381.697 316.325,382.006C315.147,382.419 312.715,383.144 312.4,383.237C312.155,383.31 309.713,384.038 309.463,384.473C309.359,384.656 308.723,386.759 311.469,386.207C314.366,385.625 324.88,381.995 328.562,379.634C332.547,377.077 332.899,378.586 337.584,379.206C337.863,379.243 340.896,379.645 341.022,379.962C341.511,381.195 329.562,384.73 328.979,385.811C328.835,386.078 328.171,388.494 332.62,386.88C337.533,385.097 344.292,381.47 345.475,381.309C348.204,380.936 348.058,382.449 379.487,386.592C380.965,386.787 387.988,387.788 390.472,387.787C391.128,387.787 391.787,387.7 392.441,387.76C392.602,387.775 392.699,387.99 392.861,388.005C393.034,388.021 393.197,387.778 393.358,387.844C393.546,387.921 393.777,388.164 393.696,388.349C393.148,389.593 391.651,390.293 391.43,390.396C386.069,392.901 385.816,393.89 373.58,397.747C372.775,398.001 370.804,398.441 370.759,399.522C370.639,402.364 379.26,398.743 384.579,396.678C386.768,395.829 392.068,393.37 396.238,390.06C399.283,387.643 401.099,389.162 408.501,389.495C408.728,389.505 411.228,389.618 411.338,389.752C411.394,389.82 411.205,391.042 411.058,391.273C410.851,391.599 401.198,398.022 394.391,401.274C387.428,404.6 383.136,405.47 382.256,406.335C382.177,406.413 381.531,407.048 382.164,407.729C382.809,408.422 383.289,409.273 395.585,403.68C399.461,401.918 409.873,396.085 414.179,392.095C416.122,390.295 416.358,390.139 424.474,390.878C432.143,391.577 461.362,392.892 469.485,392.956C470.134,392.961 470.793,392.849 471.431,392.965C473.549,393.349 471.963,395.49 471.833,395.666C471.351,396.317 469.046,399.883 464.814,403.843C458.638,409.619 456.39,409.091 456.183,410.428C455.647,413.892 461.302,410.03 461.667,409.781C464.571,407.798 468.17,405.221 473.728,397.669C476.239,394.256 475.798,393.176 478.474,393.087C478.757,393.077 481.386,393.095 481.562,393.106C482.956,393.193 482.863,393.478 483.379,393.626L483.236,394.531C481.722,397.261 481.68,397.217 479.911,399.773C479.777,399.967 478.613,401.648 478.687,402.462C478.706,402.673 479.394,404.397 481.25,402.258C481.625,401.826 482.083,401.297 485.374,396.412C486.494,394.75 486.406,393.411 489.501,393.459C512.502,393.816 512.494,394.059 535.491,393.273C539.941,393.121 539.405,394.629 542.854,398.141C543.22,398.515 550.474,406.346 558.603,410.252C558.831,410.362 562.118,411.941 561.661,409.451C561.458,408.343 555.547,406.645 547.303,398.712C543.33,394.89 543.11,394.534 543.333,393.319C543.428,392.803 543.725,393.045 556.505,392.684C564.316,392.463 564.832,391.659 568.259,394.855C573.805,400.027 585.438,406.291 587.412,405.312C587.774,405.132 588.439,403.929 587.64,403.391C586.105,402.356 581.285,401.227 575.25,396.848C570.112,393.12 569.977,393.212 569.838,392.731C569.779,392.525 570.17,392.459 570.326,392.311C571.057,391.613 571.203,392.085 573.463,392.088C573.889,392.089 602.286,390.329 605.446,390.011C606.73,389.881 606.722,390.016 621.504,388.537C626.974,387.99 626.527,390.484 633.512,394.479C633.942,394.725 641.811,399.624 647.549,401.208C650.118,401.917 649.687,399.88 649.422,399.555C648.483,398.405 645.534,398.466 636.273,392.899C635.113,392.202 630.414,389.754 629.784,388.543C629.12,387.266 630.035,387.401 631.464,387.333C640.925,386.887 642.056,384.693 645.7,387.107C649.517,389.636 649.709,389.26 655.653,392.163C656.81,392.728 669.075,397.664 671.452,397.3C672.349,397.163 673.413,395.423 670.465,394.6C659.98,391.673 654.791,388.547 651.554,387.388C651.272,387.287 647.448,385.918 648.743,384.916C649.079,384.656 649.187,385.118 658.527,383.655C659.902,383.44 679.02,380.02 683.394,379.029C683.639,378.973 683.604,378.901 686.435,378.245C689.608,377.51 689.693,377.82 692.57,379.338C693.62,379.892 697.358,381.865 706.542,384.349C706.606,384.367 715.12,386.451 715.489,384.496C716.062,381.459 712.234,384.321 697.455,378.603C695.504,377.848 695.445,377.971 694.647,377.383C694.538,377.303 693.355,376.432 693.836,375.896C693.984,375.731 698.974,374.337 699.424,374.212C700.441,373.928 700.449,374.062 701.493,373.91C701.987,374.376 702.904,376.227 707.477,377.583C712.006,378.925 710.385,376.049 710.192,375.881C709.936,375.659 707.632,374.814 707.405,374.731C705.947,374.196 705.682,374.585 704.778,373.327C704.561,373.026 704.435,372.665 704.218,372.364Z" style="fill:rgb(242,239,229);"/>
                        <path d="M647.57,424.806C642.905,425.835 612.245,433.503 597.474,439.438C585.192,444.372 585.101,444.163 573.405,450.325C568.272,453.029 563.48,455.416 547.835,466.912C540.35,472.413 534.314,479.237 529.57,478.149C525.557,477.229 526.042,476.17 508.735,466.13C504.065,463.421 504.284,463.044 491.381,456.732C481.686,451.99 481.633,452.125 470.444,447.634C463.071,444.674 453.246,441.871 446.46,439.623C436.201,436.225 394.937,426.375 365.538,424.091C357.982,423.504 328.581,419.668 305.495,425.48C297.26,427.553 297.277,427.579 296.56,427.748C292.777,428.64 292.511,429.306 291.792,428.304C291.279,427.589 292.028,426.482 292.117,426.351C292.227,426.188 296.721,418.262 304.711,411.766C309.375,407.975 310.446,407.448 311.415,407.756C314.315,408.681 313.437,410.923 329.373,414.952C341.223,417.949 366.822,421.252 369.501,421.29C374.018,421.353 374.017,420.967 378.492,421.562C391.884,423.342 443.494,424.761 444.462,424.891C446.682,425.189 447.352,426.223 450.454,427.601C470.167,436.358 484.39,426.38 489.527,425.85C490.196,425.781 530.099,426.458 555.501,425.531C559.725,425.376 559.58,426.169 564.563,428.351C587.417,438.361 597.419,425.826 601.376,424.221C603.313,423.435 603.407,423.984 617.484,423.265C658.412,421.175 658.278,419.698 665.505,418.991C668.156,418.731 668.169,419.029 672.496,418.484C674.574,418.223 674.605,418.441 676.612,417.822C682.372,416.044 701.537,414.211 710.278,406.237C712.537,404.176 713.717,405.786 718.669,410.313C721.175,412.605 723.546,414.722 726.914,420.267C727.112,420.594 729.226,424.074 729.144,424.487C728.866,425.888 726.816,425.136 726.622,425.064C723.763,424.014 720.42,422.567 713.61,421.003C695.142,416.761 681.235,419.475 678.476,420.014C670.193,421.631 670.094,420.851 659.514,422.564C655.823,423.161 655.826,423.098 647.57,424.806Z" style="fill:rgb(242,239,229);"/>
                        <g transform="matrix(1.386218,0,0,1.386218,-196.945459,-129.664509)">
                            <path d="M479.49,324.501C481.314,347.907 457.046,351.152 454.448,330.507C453.053,319.422 460.655,308.027 470.544,311.376C477.69,313.795 479.28,323.248 479.49,324.501Z" style="fill:rgb(129,45,34);"/>
                        </g>
                        <g transform="matrix(1.386218,0,0,1.386218,-196.945459,-129.664509)">
                            <path d="M552.438,343.919C552.108,343.839 551.765,343.825 551.436,343.745C546.937,342.65 542.334,337.121 541.804,330.467C540.831,318.231 548.778,308.823 557.492,311.523C567.498,314.624 570.423,331.525 562.962,339.898C558.335,345.091 553.801,343.966 552.438,343.919Z" style="fill:rgb(129,45,34);"/>
                        </g>
                        <path d="M427.489,504.693C433.727,504.972 436.824,504.813 436.745,506.511C436.674,508.01 435.448,508.091 421.531,507.123C404.491,505.936 389.217,503.381 386.428,502.915C356.474,497.904 337.202,491.675 322.433,485.658C319.558,484.486 317.578,483.692 317.527,482.5C317.438,480.451 320.191,481.622 320.411,481.716C330.572,486.035 337.677,489.195 363.484,495.559C376.78,498.837 392.921,501.13 395.5,501.497C411.453,503.763 420.635,504.293 427.489,504.693Z" style="fill:rgb(129,45,34);"/>
                        <path d="M388.916,415.966C400.476,412.12 414.794,403.049 428.393,412.663C428.811,412.959 428.79,412.962 433.606,416.393C434.74,417.202 434.726,417.216 434.826,417.285C435.102,417.477 435.572,417.547 435.575,418.51C435.58,420.174 434.535,418.941 425.495,418.744C407.069,418.341 400.599,417.193 391.518,417.404C391.365,417.408 390.143,417.436 389.606,417.311C388.458,417.043 388.923,416.127 388.916,415.966Z" style="fill:rgb(242,239,229);"/>
                        <path d="M547.344,420.3C547.161,420.32 546.713,420.592 545.5,420.497C536.415,419.791 536.407,420.449 511.499,420.395C505.989,420.383 506.007,420.542 503.461,420.77C503.298,420.785 501.845,420.915 501.43,420.578C501.168,420.364 501.005,420.006 500.979,419.668C500.969,419.526 501.251,419.555 501.347,419.45C501.797,418.954 501.688,418.819 502.492,418.49C510.266,415.302 518.457,408.398 532.383,411.964C537.076,413.167 541.782,416.186 543.745,417.13C545.989,418.209 546.323,418.353 546.551,418.451C546.77,418.546 547.073,418.56 547.195,418.765C547.258,418.871 547.206,418.878 547.344,420.3Z" style="fill:rgb(242,239,229);"/>
                        <path d="M353.436,367.796C368.625,370.849 378.34,372.047 380.52,372.315C396.59,374.297 402.368,375.229 421.5,376.508C421.521,376.509 425.788,376.393 425.316,378.442C425.099,379.381 423.657,379.376 423.494,379.375C421.291,379.367 376.533,376.24 346.612,369.069C344.889,368.656 333.153,365.843 325.394,362.75C325.349,362.732 323.093,362.099 323.399,360.455C323.817,358.207 327.94,361.53 340.449,364.704C346.711,366.293 346.688,366.321 353.436,367.796Z" style="fill:rgb(129,45,34);"/>
                        <path d="M349.356,413.166C349.201,413.157 348.668,413.322 347.536,413.05C341.571,411.618 322.001,408.887 315.266,403.711C313.471,402.332 315.276,401.394 315.418,401.347C315.429,401.343 325.874,399.766 326.522,399.695C340.773,398.116 341.057,403.175 348.493,410.505C348.829,410.836 349.301,411.072 349.498,411.501C349.554,411.622 349.488,411.619 349.356,413.166Z" style="fill:rgb(242,239,229);"/>
                        <path d="M623.467,504.174C620.347,504.46 616.468,505.156 616.396,503.513C616.289,501.076 618.04,502.753 644.493,498.456C647.245,498.008 662.301,496.138 684.332,489.002C694.961,485.559 704.214,480.335 705.515,480.358C706.706,480.38 706.984,481.737 706.383,482.4C705.52,483.352 690.895,490.051 681.58,492.752C674.727,494.739 659.403,500.16 623.467,504.174Z" style="fill:rgb(129,45,34);"/>
                        <path d="M650.365,414.596C650.297,414.726 650.388,415.108 649.763,415.754C648.952,416.594 648.784,416.107 647.447,416.103C644.809,416.093 642.126,416.084 614.511,417.768C612.326,417.901 610.788,418.539 610.076,417.944C609.459,417.429 609.375,417.35 609.696,416.596C609.771,416.42 611.15,415.391 611.281,415.293C617.021,411.009 625.799,403.522 643.366,411.775C647.148,413.553 648.287,413.414 650.365,414.596Z" style="fill:rgb(242,239,229);"/>
                        <path d="M632.473,375.165C630.068,375.365 625.127,375.882 624.53,375.447C624.319,375.293 622.008,373.372 626.542,372.882C628.301,372.692 637.229,372.496 658.546,368.734C662.612,368.016 684.92,363.355 696.754,356.999C705.235,352.443 704.639,350.825 706.628,351.166C706.946,351.221 707.875,352.111 707.118,353.213C706.863,353.584 703.946,355.692 703.732,355.85C700.975,357.883 692.143,364.398 663.508,370.542C647.733,373.926 634.886,374.902 632.473,375.165Z" style="fill:rgb(129,45,34);"/>
                        <g transform="matrix(1.386218,0,0,1.386218,-196.945459,-129.664509)">
                            <path d="M510.495,344.09C510.85,344.044 514.951,344.1 517.553,341.554C519.764,339.392 519.778,336.842 520.481,335.488C521.427,333.665 525.509,333.818 524.305,338.455C520.932,351.447 502.027,351.918 497.228,340.63C494.572,334.383 498.151,333.629 499.371,334.647C500.386,335.494 500.469,340.332 504.453,342.576C507.517,344.303 509.892,344.065 510.495,344.09Z" style="fill:rgb(129,45,34);"/>
                        </g>
                        <path d="M694.409,408.199C688.56,409.837 687.756,410.329 687.52,410.256C687.374,410.211 686.151,409.832 686.667,408.549C686.823,408.163 687.35,407.77 688.449,405.476C691.669,398.755 695.809,396.3 705.503,396.3C705.757,396.3 708.16,396.3 708.433,397.519C708.566,398.112 708.188,401.303 704.586,403.626C699.974,406.6 695.12,407.961 694.409,408.199Z" style="fill:rgb(242,239,229);"/>
                        <path d="M619.562,281.309C619.32,281.198 616.91,280.679 613.951,277.136C613.682,276.813 611.892,274.669 611.422,272.522C609.74,264.851 623.531,269.863 625.169,276.578C625.661,278.594 624.591,280.622 623.345,281.204C621.57,282.033 621.496,281.613 619.562,281.309Z" style="fill:rgb(129,45,34);"/>
                        <path d="M386.69,270.767C387.057,270.549 389.849,268.892 391.484,268.443C391.789,268.36 393.936,267.77 395.439,268.609C399.915,271.106 394.939,279.239 387.459,280.041C384.371,280.372 377.94,277.279 386.69,270.767Z" style="fill:rgb(129,45,34);"/>
                        <path d="M440.476,263.479C441.664,262.227 441.591,262.168 442.499,261.498C443.875,260.483 448.283,257.114 451.473,258.553C455.679,260.451 452.357,267.972 445.602,269.859C441.182,271.094 436.686,268.846 440.476,263.479Z" style="fill:rgb(129,45,34);"/>
                        <path d="M552.463,263.534C550.834,261.64 550.417,260.891 550.276,260.638C546.456,253.78 552.287,253.319 555.415,254.688C561.201,257.22 564.01,263.502 561.095,266.052C557.938,268.814 552.981,264.033 552.463,263.534Z" style="fill:rgb(129,45,34);"/>
                        <path d="M496.5,255.492C496.406,255.467 495.122,255.428 494.329,254.69C489.917,250.587 501.4,240.015 505.1,243.879C508.223,247.141 503.236,254.767 497.493,255.449C497.164,255.488 496.829,255.453 496.5,255.492Z" style="fill:rgb(129,45,34);"/>
                        <path d="M505.267,289.077C503.483,289.527 503.374,289.991 501.803,289.037C497.609,286.49 501.638,272.234 507.481,275.528C510.054,276.978 510.83,285.008 505.267,289.077Z" style="fill:rgb(129,45,34);"/>
                        <path d="M470.521,440.44C461.702,437.656 461.323,438.17 460.912,437.276C460.854,437.151 460.472,436.322 461.575,435.683C462.497,435.149 470.169,437.43 473.443,438.657C479.431,440.9 483.648,442.336 481.967,443.888C480.883,444.889 480.68,444.052 470.521,440.44Z" style="fill:rgb(54,52,46);"/>
                        <path d="M335.701,471.14C333.827,469.57 333.475,469.782 332.677,467.456C332.614,467.275 331.929,465.28 333.437,465.182C334.869,465.09 335.144,467.517 336.503,468.496C338.931,470.246 340.223,469.561 341.46,469.698C343.086,469.877 342.484,471.408 342.445,471.456C342.339,471.588 341.979,472.036 340.451,472.165C337.711,472.394 335.916,471.231 335.701,471.14Z" style="fill:rgb(61,60,55);"/>
                        <path d="M618.776,273.063C620.6,274.398 620.782,274.21 621.587,275.441C621.725,275.651 623.343,278.127 621.533,278.583C617.689,279.551 609.552,267.604 618.776,273.063Z" style="fill:rgb(242,239,229);"/>
                        <path d="M612.607,400.715C610.121,401.99 610.155,402.017 608.353,403.235C608.353,403.235 607.422,403.957 606.367,403.717C605.288,403.473 606.412,401.654 606.505,401.503C606.843,400.956 609.195,399.058 610.483,398.468C610.798,398.323 613.66,397.011 614.599,397.116C614.777,397.136 616.968,397.382 615.248,399.264C615.048,399.482 612.823,400.606 612.607,400.715Z" style="fill:rgb(129,45,34);"/>
                        <path d="M389.504,272.507C389.734,272.381 391.792,271.252 392.502,271.199C394.796,271.025 394.766,273.775 390.351,276.221C387.022,278.065 385.063,276.898 385.697,275.566C386.17,274.572 389.172,272.713 389.504,272.507Z" style="fill:rgb(242,239,229);"/>
                        <path d="M448.235,265.195C447.873,265.48 444.291,268.299 442.826,267.19C440.81,265.663 447.527,260.751 449.708,261.299C450.173,261.415 450.432,261.78 450.356,262.479C450.282,263.16 450.162,263.108 449.725,263.633C448.822,264.718 448.766,264.639 448.235,265.195Z" style="fill:rgb(242,239,229);"/>
                        <path d="M319.496,447.503C318.789,445.554 318.481,445.592 318.645,443.517C318.665,443.261 318.896,440.33 320.693,441.05C322.709,441.86 319.01,444.285 323.629,448.417C325.333,449.941 323.518,450.654 322.534,450.307C321.12,449.808 319.686,447.773 319.496,447.503Z" style="fill:rgb(52,53,49);"/>
                        <path d="M555.557,262.432C555.262,262.155 552.572,259.634 552.345,258.521C551.754,255.632 556.286,257.934 558.045,259.903C559.659,261.71 559.913,264.26 557.468,263.635C557.468,263.635 555.71,262.528 555.557,262.432Z" style="fill:rgb(242,239,229);"/>
                        <path d="M704.218,372.364C704.435,372.665 704.561,373.026 704.778,373.327C705.682,374.585 705.947,374.196 707.405,374.731C707.632,374.814 709.936,375.659 710.192,375.881C710.385,376.049 712.006,378.925 707.477,377.583C702.904,376.227 701.987,374.376 701.493,373.91C701.958,373.602 702.097,372.931 702.563,372.623C702.675,372.549 702.685,372.604 704.218,372.364Z" style="fill:rgb(56,55,47);"/>
                        <path d="M684.385,463.395C683.992,463.788 681.843,466.124 680.765,465.216C679.897,464.485 680.969,463.343 681.08,463.226C682.896,461.292 683.484,460.751 684.372,458.439C684.447,458.246 685.216,456.245 686.345,456.775C686.613,456.901 687.429,458.115 686.316,460.419C685.536,462.032 685.49,461.986 684.385,463.395Z" style="fill:rgb(68,68,60);"/>
                        <path d="M392.375,469.634C392.924,470.109 392.901,470.107 393.451,470.563C394.463,471.404 394.508,471.347 394.583,471.434C395.728,472.766 395.234,473.732 393.532,473.283C390.413,472.462 386.307,466.595 388.577,465.686C389.791,465.201 390.293,467.119 391.444,468.546C391.896,469.106 391.903,469.082 392.375,469.634Z" style="fill:rgb(73,73,68);"/>
                        <path d="M498.457,248.458C502.37,244.93 502.985,246.273 503.125,246.649C504.051,249.132 496.553,254.697 496.511,251.498C496.5,250.609 498.263,248.672 498.457,248.458Z" style="fill:rgb(242,239,229);"/>
                        <path d="M503.6,280.539C503.741,280.282 503.777,279.977 503.917,279.72C504.002,279.565 504.756,278.181 505.476,278.155C508.595,278.041 505.187,288.423 503.215,285.86C502.437,284.848 503.489,280.951 503.6,280.539Z" style="fill:rgb(242,239,229);"/>
                        <path d="M694.231,437.614C694.594,439.092 694.994,439.076 694.592,440.544C694.349,441.43 693.036,441.8 692.5,440.5C691.835,438.886 692.142,437.762 689.513,436.478C689.35,436.399 687.712,435.599 688.458,434.471C689.018,433.625 692.227,434.17 693.585,436.44C693.64,436.532 693.633,436.527 694.231,437.614Z" style="fill:rgb(70,70,65);"/>
                        <path d="M416.37,450.526C416.356,449.996 416.255,450.023 416.242,449.5C416.239,449.416 416.226,448.921 416.315,448.45C416.617,446.85 418.592,445.667 418.847,448.442C418.878,448.775 418.825,449.113 418.874,449.444C419.128,451.194 419.431,451.074 420.389,452.568C420.477,452.705 421.281,453.961 420.563,454.594C419.874,455.2 418.746,454.38 418.619,454.287C416.775,452.948 417.103,452.675 416.37,450.526Z" style="fill:rgb(64,63,58);"/>
                        <path d="M636.386,440.809C637.389,441.149 639.599,441.801 639.743,442.397C640.28,444.615 637.791,444.066 637.58,444.02C636.237,443.723 632.64,442.434 632.227,441.649C631.489,440.245 632.756,439.729 633.49,439.834C633.732,439.869 633.704,439.906 636.386,440.809Z" style="fill:rgb(53,52,48);"/>
                        <path d="M451.454,473.547C451.954,474.05 451.929,474.055 452.453,474.551C454.062,476.073 456.021,477.04 455.128,478.189C453.767,479.942 447.535,474.476 448.778,472.694C449.298,471.949 450.343,472.503 450.463,472.566C450.561,472.618 450.536,472.638 451.454,473.547Z" style="fill:rgb(66,66,62);"/>
                        <path d="M577.684,478.713C580.526,475.999 580.25,475.753 580.538,475.574C580.643,475.509 581.557,474.941 582.069,475.75C583.375,477.814 576.635,483.785 575.692,481.431C575.348,480.574 576.837,479.392 577.684,478.713Z" style="fill:rgb(75,76,69);"/>
                        <path d="M678.696,455.641C679.449,454.594 679.42,454.578 679.509,454.51C680.774,453.547 681.323,454.423 681.404,454.552C682.343,456.051 677.082,462.69 675.797,460.32C675.365,459.523 676.281,458.538 676.389,458.421C678.219,456.453 678.123,456.38 678.696,455.641Z" style="fill:rgb(63,62,55);"/>
                        <path d="M574.265,476.25C573.992,476.475 571.477,478.551 570.494,478.564C570.272,478.567 567.682,478.246 570.759,475.8C573.692,473.468 574.536,472.235 575.421,472.663C576.244,473.06 575.731,474.43 575.676,474.575C575.615,474.739 575.572,474.698 574.265,476.25Z" style="fill:rgb(86,85,75);"/>
                        <path d="M446.356,480.779C444.674,479.542 444.669,479.583 444.537,479.46C443.291,478.301 442.894,477.575 442.79,477.384C442.153,476.218 442.846,474.007 444.749,476.091C446.273,477.76 446.29,477.737 448.165,478.998C450.089,480.292 448.523,481.474 447.53,481.253C447.118,481.161 446.768,480.871 446.356,480.779Z" style="fill:rgb(77,77,72);"/>
                        <path d="M368.166,442.058C365.94,443.912 365.794,443.925 365.536,443.948C363.372,444.139 363.592,442.807 365.093,441.225C365.386,440.916 368.439,437.697 369.951,439.066C371.041,440.054 370.43,440.329 369.306,441.259C369.22,441.33 369.221,441.318 368.166,442.058Z" style="fill:rgb(55,54,47);"/>
                        <path d="M349.329,435.314C350.708,434.085 350.694,434.087 350.818,433.987C350.968,433.866 352.563,432.578 353.208,433.7C353.724,434.598 351.983,436.45 351.217,437.238C347.827,440.724 347.538,437.804 347.58,437.515C347.64,437.102 349.174,435.477 349.329,435.314Z" style="fill:rgb(76,75,72);"/>
                        <path d="M491.503,449.493C490.073,448.622 490.005,448.7 489.783,448.324C489.658,448.111 488.67,445.404 492.643,447.178C492.647,447.18 496.645,448.748 496.1,450.356C495.609,451.806 492.994,450.258 491.503,449.493Z" style="fill:rgb(66,65,59);"/>
                        <path d="M706.585,443.186C704.635,442.56 704.6,442.648 704.487,442.513C704.427,442.441 704.054,441.997 704.107,441.409C704.158,440.841 705.62,439.954 708.33,440.946C711.585,442.139 710.776,444.532 709.515,444.249C709.515,444.249 706.819,443.271 706.585,443.186Z" style="fill:rgb(56,56,51);"/>
                        <path d="M345.141,434.179C344.962,434.368 343.225,436.203 342.504,436.098C340.7,435.836 342.224,433.574 342.345,433.394C342.881,432.598 344.932,431.007 345.615,430.79C345.857,430.714 346.121,430.849 346.374,430.831C346.609,430.813 346.873,430.548 347.066,430.684C347.801,431.199 347.136,432.141 347.064,432.243C347.022,432.301 345.296,434.025 345.141,434.179Z" style="fill:rgb(82,81,75);"/>
                        <path d="M398.807,468.204C400.622,470.048 400.756,469.973 400.819,470.45C401.187,473.264 398.44,471.103 398.276,470.975C397.948,470.717 394.274,467.828 395.535,466.533C396.368,465.677 397.641,466.992 397.769,467.125C398.045,467.409 398.059,467.366 398.341,467.661C398.604,467.933 398.558,467.945 398.807,468.204Z" style="fill:rgb(69,70,67);"/>
                        <path d="M610.847,480.897C612.395,479.645 612.358,479.606 612.519,479.545C612.641,479.499 613.708,479.093 614.137,479.725C614.729,480.598 613.369,482.096 613.224,482.256C609.572,486.276 608.85,483.864 608.818,483.499C608.753,482.758 610.649,481.072 610.847,480.897Z" style="fill:rgb(73,72,68);"/>
                        <path d="M613.364,457.474C612.659,459.651 612.794,459.711 612.29,460.299C611.11,461.675 610.133,461.346 610.155,459.536C610.164,458.826 610.769,456.813 610.839,456.58C610.894,456.397 611.49,454.413 612.433,454.798C613.92,455.406 613.337,455.871 613.364,457.474Z" style="fill:rgb(79,79,72);"/>
                        <path d="M606.844,457.581C606.626,457.82 606.687,458.237 606.469,458.475C605.363,459.685 604.562,458.65 604.464,458.523C604.005,457.931 604.47,455.663 605.508,455.536C605.63,455.521 606.576,455.405 606.815,456.35C606.916,456.748 606.743,457.183 606.844,457.581Z" style="fill:rgb(81,77,65);"/>
                    </g>
                </g>
                <g transform="matrix(1.258755,0,0,1.258755,-413.954683,-164.606225)">
                    <circle cx="1745.295" cy="523.351" r="3.841" style="fill:rgb(242,239,229);"/>
                </g>
                <g transform="matrix(1.258755,0,0,1.258755,-503.318427,-164.606225)">
                    <circle cx="1745.295" cy="523.351" r="3.841" style="fill:rgb(242,239,229);"/>
                </g>
            </g>
        </g>
    </g>
</svg>
