<?xml version="1.0" encoding="UTF-8" standalone="no"?>
<!DOCTYPE svg PUBLIC "-//W3C//DTD SVG 1.1//EN" "http://www.w3.org/Graphics/SVG/1.1/DTD/svg11.dtd">
<svg width="100%" height="100%" viewBox="0 0 863 559" version="1.1" xmlns="http://www.w3.org/2000/svg" xmlns:xlink="http://www.w3.org/1999/xlink" xml:space="preserve" xmlns:serif="http://www.serif.com/" style="fill-rule:evenodd;clip-rule:evenodd;stroke-linejoin:round;stroke-miterlimit:2;">
    <g transform="matrix(1,0,0,1,-2103.888077,-229.165391)">
        <g transform="matrix(1.027245,0,0,0.976562,920.139766,8.459972)">
            <g id="Fondo" transform="matrix(1.306872,0,0,1.374697,892.346733,-234.305486)">
                <path d="M501.251,367.534C508.421,367.622 527.07,390.633 526.406,415.498C526.13,425.814 524.891,437.241 516,455.8C516,455.8 511.227,459.038 509.312,460.733C507.538,462.302 504.546,465.917 504.509,465.968C501.729,469.768 501.059,472.693 498.006,468.878C488.828,457.409 479.974,458.51 482.914,454.804C500.878,432.158 517.498,403.046 501.251,367.534Z" style="fill:rgb(196,190,171);"/>
                <path d="M599.802,643.453C590.627,644.238 581.039,644.083 572.159,639.45C567.352,636.941 566.831,643.235 554.438,646.183C548.755,647.535 548.054,646.726 547.516,648.506C546.972,650.302 552.624,683.586 516.262,705.085C460.89,737.824 352.318,678.163 350.63,678.821C349.568,679.235 316.126,716.211 268.477,708.686C237.366,703.773 225.371,679.609 225.469,679.563C270.225,704.648 312.471,677.56 328.946,662.989C333.02,659.386 333.439,658.356 338.351,660.792C488.806,735.412 528.49,669.482 530.434,635.496C530.774,629.544 528.549,627.905 532.594,626.819C545.542,623.343 545.928,624.395 560.403,616.33C564.662,613.958 575.478,629.98 609.542,624.799C612.561,624.34 613.089,625.93 605.747,634.715C602.272,638.874 599.802,643.453 599.802,643.453Z" style="fill:rgb(196,190,171);"/>
                <path d="M681.241,386.47C681.241,386.47 683.332,386.342 685.413,387.645C709.322,402.602 699.401,433.113 693.21,442.878C670.548,440.608 668.178,445.43 668.378,443.506C669.52,432.531 686.741,414.237 681.241,386.47Z" style="fill:rgb(196,190,171);"/>
                <path d="M501.251,367.534C510.684,388.153 509.037,406.614 502.481,422.905C497.745,434.672 490.448,445.307 482.914,454.804C479.974,458.51 488.828,457.409 498.006,468.878C501.14,472.795 501.763,469.608 504.736,465.663C510.032,458.635 517.5,454.972 517.5,454.972C517.511,454.977 528.603,449.493 546.522,451.335C566.298,453.369 569.671,467.375 572.79,459.611C604.437,380.839 607.975,377.848 613.836,372.893C627.382,361.442 665.283,350.315 681.241,386.47C686.741,414.237 668.378,443.506 668.378,443.506C668.178,445.43 676.347,438.752 693.323,442.435C701.276,444.16 707.922,448.007 715.701,460.345C720.053,467.246 716.262,451.443 737.418,442.288C747.873,437.763 784.533,429.861 795.424,463.515C800.928,491.33 780.195,503.148 792.497,502.878C801.89,502.671 809.152,507.113 810.441,507.708C818.158,511.673 821.889,521.092 822.451,522.51C824.241,528.013 831.111,549.138 794.075,589.051C775.72,608.831 745.727,621.231 744.662,623.573C742.032,629.359 714.016,745.007 635.601,729.026C624.898,726.845 616.922,721.56 615.466,720.596C576.393,697.281 596.206,651.246 598.636,645.598C599.135,644.439 602.272,638.874 605.747,634.715C613.089,625.93 612.561,624.34 609.542,624.799C575.478,629.98 564.662,613.958 560.403,616.33C545.928,624.395 545.542,623.343 532.594,626.819C528.549,627.905 530.774,629.544 530.434,635.496C528.49,669.482 488.806,735.412 338.351,660.792C333.439,658.356 333.02,659.386 328.946,662.989C312.471,677.56 270.225,704.648 225.469,679.563C189.716,657.343 196.905,616.585 208.028,599.191C237.64,552.887 295.939,567.02 297.528,566.647C299.188,566.257 299.873,566.096 304.536,546.521C306.396,540.499 306.689,540.694 307.9,534.512C308.619,530.843 282.882,532.227 259.479,515.558C203.488,477.522 253.951,418.01 277.507,419.409C303.306,420.942 291.904,440.285 314.518,453.414C320.326,456.099 320.393,455.702 326.547,457.221C329.846,458.035 328.053,455.254 338.27,428.404C379.904,318.994 473.367,315.208 501.251,367.534Z" style="fill:rgb(242,239,229);"/>
                <path d="M578.652,603.146C576.397,601.98 571.368,600.198 565.889,592.207C564.152,589.674 563.501,591.021 561.121,593.077C537.257,613.69 499.765,613.995 493.829,591.398C492.254,585.404 490.291,590.95 483.334,597.312C463.515,615.435 406.624,627.227 416.296,568.469C420.244,544.482 441.786,490.29 443.851,485.664C451.008,469.632 478.521,471.13 484.201,482.646C491.741,497.931 444.937,568.694 460.469,576.551C481.028,586.951 508.677,502.634 516.696,482.584C524.611,462.798 556.623,467.842 559.033,481.574C561.34,494.715 516.221,574.995 538.504,573.93C557.12,573.041 564.955,543.923 565.852,540.592C576.771,500.015 611.438,411.816 622.882,391.716C631.335,376.867 663.795,376.691 664.121,397.492C664.279,407.542 618.649,511.072 606.94,543.652C591.673,586.135 621.384,568.459 623.247,567.134C639.445,555.614 632.438,550.858 660.795,474.609C667.271,457.198 696.107,460.51 701.206,472.599C707.579,487.712 663.385,554.903 680.402,562.696C702.863,572.981 728.581,481.845 736.303,467.384C745.497,450.166 769.512,458.865 771.242,459.945C785.495,468.833 775.593,476.081 748.717,555.575C745.531,565.001 741.182,573.303 746.254,570.025C771.083,553.979 777.473,540.039 783.866,528.7C791.581,515.016 811.118,521.565 804.192,540.39C786.079,589.626 731.593,607.451 730.886,607.939C726.659,610.862 706.797,717.297 644.491,711.602C610.512,708.497 577.531,656.507 668.7,610.892C689.241,600.614 694.139,604.375 697.085,590.561C697.834,587.052 665.88,612.621 642.091,589.924C636.321,584.419 622.757,616.785 578.652,603.146Z" style="fill:rgb(129,45,34);"/>
                <path d="M228.746,658.24C228.171,657.514 227.458,656.905 226.883,656.178C212.536,638.059 217.746,615.09 228.697,602.68C257.493,570.045 308.429,589.207 309.518,589.212C314.511,589.235 334.128,514.535 333.468,513.514C332.063,511.341 305.761,518.509 279.389,505.717C229.366,481.453 265.38,441.425 276.585,437.858C284.637,435.295 281.688,477.246 340.509,476.812C347.063,476.764 346.307,446.863 369.886,405.728C372.803,400.639 392.654,366.008 424.637,356.968C498.197,336.175 521.478,423.33 423.575,480.624C386.591,502.268 380.538,495.483 378.65,504.529C365.16,569.15 349.474,600.785 349.9,602.45C350.911,606.397 404.77,624.769 418.471,627.642C479.36,640.409 501.714,621.4 508.526,620.65C515.784,619.85 518.802,684.254 440.495,675.544C389.138,669.831 330.844,635.841 330.443,635.743C327.261,634.967 313.912,659.601 282.385,668.026C246.376,677.649 230.136,659.366 228.746,658.24Z" style="fill:rgb(129,45,34);"/>
                <path d="M822.451,522.51C824.038,523.422 823.892,523.498 825.56,524.298C864.853,543.137 827.184,618.376 765.383,640.199C762.108,641.356 762.154,643.571 760.784,648.585C726.283,774.795 641.208,760.907 619.871,729.249C615.884,723.334 615.466,720.596 615.466,720.596C616.922,721.56 624.898,726.845 635.601,729.026C714.016,745.007 742.032,629.359 744.662,623.573C745.727,621.231 775.72,608.831 794.075,589.051C831.111,549.138 824.241,528.013 822.451,522.51Z" style="fill:rgb(196,190,171);"/>
                <path d="M434.586,394.859C435.558,394.73 436.504,394.439 437.477,394.311C459.594,391.391 452.453,432.377 395.478,460.444C395.262,460.55 391.839,462.237 392.617,459.513C408.387,404.36 428.789,396.961 434.586,394.859Z" style="fill:rgb(242,239,229);"/>
                <path d="M380.715,571.568C394.276,527.911 392.828,527.519 396.349,516.444C397.44,513.013 413.589,506.527 414.115,506.956C415.181,507.824 399.522,548.842 396.941,568.55C393.7,593.308 399.693,600.367 399.212,601.423C398.381,603.245 375.396,593.719 375.396,593.719C372.946,592.787 373.988,591.637 380.715,571.568Z" style="fill:rgb(196,190,171);"/>
                <path d="M677.243,644.382C656.769,687.595 644.511,673.747 643.727,670.442C639.505,652.642 684.047,626.993 681.393,634.48C681.106,635.29 681.063,635.125 677.243,644.382Z" style="fill:rgb(242,239,229);"/>
                <path d="M795.424,463.515C795.424,463.515 800.263,463.56 804.431,467.57C819.222,481.801 811.189,507.262 810.441,507.708C809.152,507.113 801.89,502.671 792.497,502.878C780.195,503.148 800.928,491.33 795.424,463.515Z" style="fill:rgb(196,190,171);"/>
                <g transform="matrix(0.239971,0.797195,-0.666096,0.200508,650.502751,378.429005)">
                    <path d="M153.958,581.643C153.958,581.643 170.309,613.834 170.309,627.479C170.309,638.28 162.982,647.049 153.958,647.049C144.933,647.049 137.606,638.28 137.606,627.479C137.606,613.834 153.958,581.643 153.958,581.643Z" style="fill:rgb(242,239,229);"/>
                </g>
                <path d="M259.479,515.558C282.882,532.227 308.619,530.843 307.9,534.512C306.689,540.694 306.396,540.499 304.536,546.521C304.536,546.521 299.944,547.152 285.404,539.717C264.026,528.786 259.343,515.907 259.479,515.558Z" style="fill:rgb(196,190,171);"/>
                <path d="M618.767,420.611C626.059,403.093 627.657,398.465 629.795,396.967C630.408,396.537 635.883,395.952 631.017,406.252C608.569,453.761 599.023,481.459 593.174,493.306C593.174,493.306 592.5,494.968 591.183,494.591C590.059,494.27 590.733,492.562 590.733,492.562C599.133,470.973 610.21,440.112 618.767,420.611Z" style="fill:rgb(242,239,229);"/>
                <path d="M386.476,396.481C388.119,394.401 399.793,379.618 410.599,373.761C412.973,372.474 414.171,374.317 412.061,376.108C382.516,401.173 367.59,434.821 360.773,461.517C359.929,464.823 357.248,463.717 357.674,461.576C364.88,425.316 383.084,401.142 386.476,396.481Z" style="fill:rgb(242,239,229);"/>
                <path d="M450.163,494.371C451.107,491.87 452.929,487.89 455.523,488.407C458.576,489.016 456.28,493.869 456.078,494.297C436.692,535.279 440.054,540.527 436.349,539.228C432.581,537.906 446.968,502.841 450.163,494.371Z" style="fill:rgb(242,239,229);"/>
                <path d="M744.388,472.437C744.9,471.258 745.386,470.344 746.716,469.912C747.287,469.727 752.225,468.724 748.055,477.286C739.782,494.271 740.243,494.339 732.966,511.734C711.782,562.375 743.369,474.781 744.388,472.437Z" style="fill:rgb(242,239,229);"/>
                <path d="M523.553,490.516C523.553,490.516 527.215,480.488 529.423,481.289C532.814,482.518 512.272,534.328 509.765,533.396C507.909,532.707 523.553,490.516 523.553,490.516Z" style="fill:rgb(242,239,229);"/>
                <path d="M666.214,487.404C666.576,486.351 668.839,477.365 671.527,476.577C677.179,474.919 672.371,485.59 672.051,486.3C657.983,517.519 660.28,521.019 657.411,520.288C655.095,519.699 656.44,518.444 666.214,487.404Z" style="fill:rgb(242,239,229);"/>
                <g transform="matrix(1,0,0,1,0.183561,-2.624937)">
                    <path d="M582.361,522.127C579.841,522.471 585.796,504.412 587.706,503.396C588.214,503.126 589.434,503.132 587.86,507.63C583.105,521.222 583.59,521.959 582.361,522.127Z" style="fill:rgb(242,239,229);"/>
                </g>
            </g>
        </g>
    </g>
</svg>
