<?xml version="1.0" encoding="UTF-8" standalone="no"?>
<!DOCTYPE svg PUBLIC "-//W3C//DTD SVG 1.1//EN" "http://www.w3.org/Graphics/SVG/1.1/DTD/svg11.dtd">
<svg width="100%" height="100%" viewBox="0 0 343 256" version="1.1" xmlns="http://www.w3.org/2000/svg" xmlns:xlink="http://www.w3.org/1999/xlink" xml:space="preserve" xmlns:serif="http://www.serif.com/" style="fill-rule:evenodd;clip-rule:evenodd;stroke-linejoin:round;stroke-miterlimit:2;">
    <g transform="matrix(1,0,0,1,-3595.622667,-43.055634)">
        <g transform="matrix(0.627301,0,0,1,2425.27341,3.791992)">
            <g id="Alita" transform="matrix(1.594131,0,0,1,-605.407115,-39.010658)">
                <g id="Alita1" serif:id="Alita">
                    <g transform="matrix(1.353833,0,0,1.353833,1461.426453,10.384188)">
                        <path d="M279.948,163.544C277.415,193.487 278.239,203.356 266.906,219.783C266.039,221.04 261.202,228.051 253.272,233.141C248.498,236.206 238.376,240.245 229.506,238.471C222.035,236.976 216.819,233.878 206.82,227.052C205.105,225.881 197.41,219.536 195.833,218.13C186.539,209.848 174.212,196.236 171.896,193.182C168.441,188.624 168.265,188.795 164.599,184.419C159.335,178.139 159.443,177.949 154.762,175.05C152.77,173.816 151.848,172.285 150.491,172.465C150.188,172.505 149.94,172.324 148.821,174.658C147.225,177.986 146.32,180.373 139.569,190.548C138.219,192.582 128.55,205.587 118.83,212.922C115.619,215.346 115.811,215.622 109.354,219.227C108.064,219.947 100.017,223.763 99.309,224.068C91.05,227.632 73.837,231.166 68.601,228.3C61.694,224.519 68.248,217.67 70.274,215.312C74.911,209.913 74.807,209.855 79.152,204.234C80.32,202.724 87.25,193.27 93.327,181.41C94.486,179.15 99.811,168.758 106.199,152.382C106.288,152.154 107.249,149.69 107.213,149.495C107.184,149.334 107,148.328 105.508,148.353C103.496,148.387 103.524,148.644 101.502,148.65C96.872,148.662 93.347,146.588 96.109,141.301C102.067,129.897 113.018,113.18 120.77,106.825C128.132,100.79 132.072,102.573 135.039,99.088C140.127,93.11 140.142,93.107 146.409,88.377C151.428,84.588 162.006,79.586 172.496,79.786C182.18,79.971 192.981,83.085 209.535,95.455C212.989,98.036 224.378,108.048 230.109,113.879C235.241,119.1 235.695,119.99 239.378,118.243C255.447,110.622 267.296,87.584 265.385,79.529C264.84,77.231 257.689,65.371 267.455,55.456C275.14,47.652 289.293,48.552 294.513,57.491C296.997,61.745 296.609,62.789 298.506,62.668C298.63,62.66 305.912,60.353 312.662,66.309C322.054,74.593 318.902,89.248 310.541,94.558C305.807,97.565 305.678,97.287 300.531,99.567C296.71,101.26 293.54,104.6 287.556,122.519C286.169,126.672 282.663,136.659 279.948,163.544Z" style="fill:rgb(129,44,33);"/>
                    </g>
                    <g transform="matrix(1.353833,0,0,1.353833,1461.426453,10.384188)">
                        <path d="M103.53,143.903C101.939,144.023 101.827,144.32 101.276,143.774C100.254,142.76 101.083,142.047 103.331,138.392C111.314,125.417 119.695,110.635 129.375,107.148C134.689,105.233 135.539,106.341 138.935,101.815C145.06,93.652 161.04,83.385 174.502,84.478C183.218,85.186 189.833,89.11 194.539,91.427C199.718,93.977 208.588,100.64 213.205,104.83C230.467,120.496 231.157,121.614 238.119,129.821C251.13,145.159 251.259,152.426 254.309,151.122C255.679,150.536 254.314,146.953 254.185,146.616C252.326,141.737 249.963,137.235 243.778,129.284C242.668,127.857 242.732,127.834 241.563,126.449C238.991,123.404 241.39,123.071 243.254,122.053C248.221,119.341 253.026,114.541 253.783,113.785C265.2,102.381 272.337,86.123 269.532,77.489C269.093,76.138 261.961,62.67 275.301,56.068C282.712,52.4 290.988,56.624 292.215,64.546C292.331,65.299 291.967,70.979 297.322,68.154C303.853,64.709 312.783,69.19 313.483,78.501C314.371,90.327 301.615,93.396 298.294,95.053C295.089,96.652 293.544,97.194 289.637,104.57C274.796,132.597 275.299,169.185 273.405,185.489C272.573,192.65 270.951,211.773 254.775,225.814C249.62,230.288 238.936,236.405 228.581,233.22C219.163,230.323 208.57,222.086 208.254,221.85C206.79,220.758 206.768,220.819 198.249,213.769C195.734,211.687 181.976,197.606 179.948,195.119C161.8,172.859 160.365,172.726 159.171,171.948C156.735,170.361 156.551,170.569 154.707,168.339C154.648,168.267 153.009,165.635 150.526,165.798C146.683,166.051 146.11,171.433 137.584,184.553C133.505,190.831 128.902,196.144 128.078,197.096C126.467,198.955 122.265,203.235 121.75,203.76C118.423,207.149 110.904,213.232 102.412,217.311C96.847,219.983 82.292,224.956 73.491,224.767C73.195,224.761 69.415,224.679 71.619,221.582C74.054,218.157 82.872,209.626 93.365,191.42C96.588,185.827 96.88,185.987 101.26,176.392C106.576,164.745 106.59,164.766 111.424,152.471C114.005,145.909 114.501,142.708 112.536,142.345C111.369,142.129 109.209,143.106 103.53,143.903Z" style="fill:rgb(242,239,229);"/>
                    </g>
                    <g transform="matrix(1.353833,0,0,1.353833,1461.426453,10.384188)">
                        <path d="M184.521,145.52C177.255,152.055 169.215,146.532 169.893,136.532C170.371,129.469 176.591,121.225 184.51,126.487C187.617,128.552 191.67,137.223 184.521,145.52Z" style="fill:rgb(129,44,33);"/>
                    </g>
                    <g transform="matrix(1.353833,0,0,1.353833,1461.426453,10.384188)">
                        <path d="M120.321,158.439C114.671,174.768 111.575,178.863 107.524,185.518C107.412,185.703 106.408,187.352 105.508,187.324C105.213,187.315 103.37,187.18 105.735,183.638C117.553,165.938 120.447,145.643 122.68,144.961C123.684,144.655 124.364,145.653 124.186,146.467C124.058,147.054 123.905,146.997 121.863,153.609C121.351,155.268 121.414,155.276 120.321,158.439Z" style="fill:rgb(129,44,33);"/>
                    </g>
                    <g transform="matrix(1.353833,0,0,1.353833,1461.426453,10.384188)">
                        <path d="M230.497,144.289C231.724,144.377 234.006,144.242 237.581,146.372C237.827,146.519 239.158,147.311 240.369,148.624C244.298,152.884 240.997,154.916 238.47,153.545C237.421,152.976 235.622,148.531 230.503,148.365C225.459,148.202 223.616,151.929 221.538,151.407C220.878,151.241 219.544,149.537 222.811,146.895C225.4,144.801 229.851,144.354 230.497,144.289Z" style="fill:rgb(129,44,33);"/>
                    </g>
                    <g transform="matrix(1.353833,0,0,1.353833,1461.426453,10.384188)">
                        <path d="M199.384,152.595C200.759,153.869 200.668,154.053 202.466,154.604C205.141,155.425 208.239,154.464 209.597,152.578C209.779,152.324 210.911,150.473 211.369,150.246C213.006,149.435 214.117,151.079 213.047,153.302C209.241,161.211 195.415,159.688 194.906,149.496C194.737,146.112 197.17,146.057 197.737,147.336C198.201,148.379 198.062,148.408 198.213,149.537C198.503,151.703 199.21,152.241 199.384,152.595Z" style="fill:rgb(129,44,33);"/>
                    </g>
                    <g transform="matrix(1.353833,0,0,1.353833,1461.426453,10.384188)">
                        <path d="M233.54,223.324C233.75,223.353 237.079,224.232 241.56,222.691C251.932,219.125 254.549,211.428 255.619,210.694C255.816,210.559 258.681,209.756 256.556,213.535C254.674,216.883 251.149,220.596 247.524,222.542C246.686,222.992 241.423,226.235 235.503,226.107C232.495,226.042 229.519,224.901 229.57,223.506C229.623,222.065 232.308,222.985 233.54,223.324Z" style="fill:rgb(129,44,33);"/>
                    </g>
                    <g transform="matrix(1.353833,0,0,1.353833,1461.426453,10.384188)">
                        <path d="M200.2,106.595C200.215,106.797 200.782,108.312 199.789,109.728C196.822,113.962 194.098,109.646 190.532,108.413C190.435,108.379 187.696,107.622 187.544,107.452C187.363,107.25 185.899,104.604 190.447,105.718C193.536,106.475 195.905,108.859 196.494,108.893C196.75,108.907 199.035,109.039 197.041,105.729C196.308,104.511 193.911,102.322 193.209,101.936C192.185,101.373 192.164,101.454 191.159,100.864C190.287,100.352 190.035,100.393 190.122,99.373C190.283,97.492 195.9,99.693 198.497,103.503C199.497,104.971 199.442,104.989 200.2,106.595Z" style="fill:rgb(129,44,33);"/>
                    </g>
                    <g transform="matrix(1.353833,0,0,1.353833,1461.426453,10.384188)">
                        <path d="M121.395,136.194C121.298,136.215 118.274,137.452 115.476,135.527C115.238,135.363 112.258,132.919 113.887,128.628C116.472,121.818 123.784,118.235 123.473,121.496C123.315,123.141 119.962,122.169 116.717,128.606C114.438,133.125 117.469,134.839 120.606,133.812C122.905,133.06 123.037,132.556 123.754,133.258C125.023,134.5 122.798,135.583 122.605,135.676C122.21,135.868 121.789,136.002 121.395,136.194Z" style="fill:rgb(129,44,33);"/>
                    </g>
                    <g transform="matrix(1.353833,0,0,1.353833,1461.426453,10.384188)">
                        <path d="M109.473,206.478C106.12,210.703 103.717,212.689 99.653,214.789C93.976,217.722 93.631,215.988 93.636,215.504C93.654,213.898 97.18,214.438 103.441,209.431C106.975,206.604 107.848,203.127 109.555,203.252C109.733,203.265 111.138,203.367 110.234,205.378C110.19,205.475 110.178,205.459 109.473,206.478Z" style="fill:rgb(129,44,33);"/>
                    </g>
                    <g transform="matrix(1.353833,0,0,1.353833,1461.426453,10.384188)">
                        <path d="M247.564,201.576C248.522,200.787 248.498,200.763 248.598,200.724C249.599,200.332 249.983,200.778 250.06,200.867C250.504,201.383 250.695,205.479 239.45,207.022C235.249,207.598 231.479,205.422 232.97,203.972C233.812,203.154 235.525,204.671 238.501,204.533C242.939,204.328 245.878,202.746 246.458,202.434C247.089,202.094 247.01,202.006 247.564,201.576Z" style="fill:rgb(129,44,33);"/>
                    </g>
                    <g transform="matrix(1.353833,0,0,1.353833,1461.426453,10.384188)">
                        <path d="M200.118,208.716C200.153,208.787 201.749,211.141 200.808,211.857C198.134,213.891 191.898,197.163 195.481,197.141C197.677,197.127 195.396,200.303 200.118,208.716Z" style="fill:rgb(129,44,33);"/>
                    </g>
                    <g transform="matrix(1.353833,0,0,1.353833,1461.426453,10.384188)">
                        <path d="M121.308,199.394C121.123,199.699 119.375,202.581 118.626,202.945C117.211,203.634 116.812,202.942 117.201,201.407C117.263,201.161 117.357,201.211 118.86,198.705C121.442,194.398 121.495,190.167 123.52,190.437C125.868,190.751 121.652,198.741 121.308,199.394Z" style="fill:rgb(129,44,33);"/>
                    </g>
                    <g transform="matrix(1.353833,0,0,1.353833,1461.426453,10.384188)">
                        <path d="M184.508,187.499C184.491,187.264 184.324,184.925 184.594,184.557C185.531,183.282 186.414,184.374 186.511,184.493C186.806,184.858 186.664,184.899 186.863,186.458C187.122,188.498 187.639,190.123 187.738,190.434C188.804,193.782 189.602,195.229 189.677,195.456C190.305,197.338 188.568,198.23 187.527,196.479C185.6,193.236 184.649,188.243 184.508,187.499Z" style="fill:rgb(129,44,33);"/>
                    </g>
                    <g transform="matrix(1.353833,0,0,1.353833,1461.426453,10.384188)">
                        <path d="M94.853,198.646C98.187,191.434 101.197,189.332 102.146,190.727C102.698,191.539 101.779,192.52 101.672,192.634C96.955,197.668 97.14,200.445 96.374,201.418C94.875,203.323 94.397,201.743 94.35,201.587C93.901,200.103 94.375,200.129 94.853,198.646Z" style="fill:rgb(129,44,33);"/>
                    </g>
                    <g transform="matrix(1.353833,0,0,1.353833,1461.426453,10.384188)">
                        <path d="M167.267,173.597C167.066,173.044 165.565,168.929 165.181,166.552C164.461,162.091 166.874,163.569 167.022,163.789C167.148,163.975 167.439,165.369 167.468,165.508C168.895,172.349 170.065,173.393 170.407,174.528C171.016,176.549 169.433,176.542 168.775,176.103C168.271,175.767 168.384,175.686 167.267,173.597Z" style="fill:rgb(129,44,33);"/>
                    </g>
                    <g transform="matrix(1.353833,0,0,1.353833,1461.426453,10.384188)">
                        <path d="M209.164,211.605C211.544,218.446 212.964,217.95 212.859,219.568C212.851,219.696 212.786,220.695 211.517,220.435C209.567,220.036 205.046,209.736 206.456,208.461C207.819,207.229 208.486,209.305 208.543,209.482C208.597,209.651 208.589,209.64 209.164,211.605Z" style="fill:rgb(129,44,33);"/>
                    </g>
                    <g transform="matrix(1.353833,0,0,1.353833,1461.426453,10.384188)">
                        <path d="M166.614,94.69C166.195,94.84 165.883,95.217 165.464,95.367C163.963,95.905 162.712,94.007 165.413,92.369C169.836,89.689 175.74,89.995 175.878,91.411C175.892,91.562 175.997,92.639 174.604,92.824C173.543,92.965 169.998,92.562 166.614,94.69Z" style="fill:rgb(129,44,33);"/>
                    </g>
                    <g transform="matrix(1.353833,0,0,1.353833,1461.426453,10.384188)">
                        <path d="M143.724,144.425C143.62,144.042 142.588,140.223 143.472,139.472C144.534,138.571 145.215,139.51 145.301,139.629C145.469,139.86 145.681,141.319 145.703,141.468C146.472,146.742 149.679,146.721 150.375,147.588C151.104,148.497 150.342,149.063 150.242,149.137C148.786,150.217 146.423,148.184 146.166,147.963C144.506,146.535 144.672,146.39 143.724,144.425Z" style="fill:rgb(129,44,33);"/>
                    </g>
                    <g transform="matrix(1.353833,0,0,1.353833,1461.426453,10.384188)">
                        <path d="M140.956,117.509C141.007,117.357 141.59,115.604 141.59,115.604C142.626,114.607 143.21,115.51 143.284,115.624C143.848,116.496 142.475,119.72 144.424,121.576C146.011,123.088 148.639,121.953 148.675,123.488C148.713,125.086 145.349,125.191 143.664,124.177C140.088,122.024 140.937,117.859 140.956,117.509Z" style="fill:rgb(129,44,33);"/>
                    </g>
                    <g transform="matrix(1.353833,0,0,1.353833,1461.426453,10.384188)">
                        <path d="M135.893,173.578C136.444,170.725 136.441,170.744 136.488,170.497C136.531,170.277 137.077,167.457 138.488,168.522C139.294,169.13 138.808,172.23 138.758,172.549C138.648,173.243 136.897,184.398 134.773,180.38C134.411,179.696 134.894,178.795 135.893,173.578Z" style="fill:rgb(129,44,33);"/>
                    </g>
                    <g transform="matrix(1.353833,0,0,1.353833,1461.426453,10.384188)">
                        <path d="M176.417,183.537C176.207,182.989 174.638,178.888 174.319,176.517C173.726,172.113 176.217,174.415 176.35,174.595C176.451,174.732 176.783,176.273 176.814,176.421C177.898,181.458 178.255,181.331 179.283,183.599C180.227,185.681 179.196,187.017 177.507,185.492C177.408,185.402 177.423,185.389 176.417,183.537Z" style="fill:rgb(129,44,33);"/>
                    </g>
                    <g transform="matrix(1.353833,0,0,1.353833,1461.426453,10.384188)">
                        <path d="M269.33,174.455C268.74,175.737 268.899,175.873 268.314,176.196C268.111,176.308 266.106,177.339 266.958,173.629C267.065,173.165 267.808,169.933 267.039,167.68C266.206,165.238 265.646,165.081 266.393,164.395C267.903,163.01 269.121,166.319 269.22,166.588C270.222,169.312 269.437,173.835 269.33,174.455Z" style="fill:rgb(129,44,33);"/>
                    </g>
                    <g transform="matrix(1.353833,0,0,1.353833,1461.426453,10.384188)">
                        <path d="M145.225,161.454C145.139,161.989 144.133,170.134 142.551,170.099C141.353,170.072 141.613,167.732 141.637,167.514C141.749,166.507 142.865,159.634 142.872,159.616C143.324,158.395 143.305,158.037 144.594,158.196C144.717,158.211 145.308,158.284 145.406,159.514C145.418,159.669 145.393,159.658 145.225,161.454Z" style="fill:rgb(129,44,33);"/>
                    </g>
                    <g transform="matrix(1.353833,0,0,1.353833,1461.426453,10.384188)">
                        <path d="M229.474,192.561C229.135,192.371 226.43,190.855 225.76,189.414C225.697,189.278 224.989,187.753 226.517,187.708C227.526,187.677 228.486,189.275 230.62,190.214C233.095,191.302 235.707,189.343 236.255,190.6C236.513,191.191 236.416,191.242 235.972,191.696C233.611,194.107 230.924,192.947 229.474,192.561Z" style="fill:rgb(129,44,33);"/>
                    </g>
                    <g transform="matrix(1.353833,0,0,1.353833,1461.426453,10.384188)">
                        <path d="M138.525,115.736C138.322,115.592 137.835,115.843 137.159,114.764C135.436,112.011 139.226,105.777 141.493,105.442C142.967,105.223 142.986,106.299 142.989,106.442C143.005,107.345 141.495,108.009 140.562,109.544C138.307,113.252 139.955,113.802 139.085,115.115C138.931,115.347 138.679,115.504 138.525,115.736Z" style="fill:rgb(129,44,33);"/>
                    </g>
                    <g transform="matrix(1.353833,0,0,1.353833,1461.426453,10.384188)">
                        <path d="M127.985,188.68C128.9,186.025 128.992,186.064 129.775,182.573C129.823,182.358 130.291,180.272 131.514,180.443C133.732,180.753 130.552,190.052 129.325,191.301C128.189,192.457 127.374,192.107 127.437,190.5C127.437,190.5 127.941,188.825 127.985,188.68Z" style="fill:rgb(129,44,33);"/>
                    </g>
                    <g transform="matrix(1.353833,0,0,1.353833,1461.426453,10.384188)">
                        <path d="M159.618,161.452C159.949,162.256 161.046,164.499 160.195,165.15C157.999,166.829 155.716,158.114 155.652,156.505C155.566,154.323 156.994,154.114 157.782,155.248C158.137,155.758 158.031,155.785 158.423,157.517C158.947,159.83 159.056,159.878 159.618,161.452Z" style="fill:rgb(129,44,33);"/>
                    </g>
                    <g transform="matrix(1.353833,0,0,1.353833,1461.426453,10.384188)">
                        <path d="M214.797,180.172C215.397,180.703 215.41,180.666 215.984,181.222C217.241,182.442 215.691,183.454 214.613,183.059C210.069,181.397 209.01,172.833 211.413,173.885C212.652,174.427 212.475,176.325 213.522,178.487C213.819,179.098 213.845,179.132 213.882,179.182C214.299,179.734 214.386,179.629 214.797,180.172Z" style="fill:rgb(129,44,33);"/>
                    </g>
                    <g transform="matrix(1.353833,0,0,1.353833,1461.426453,10.384188)">
                        <path d="M280.362,88.419C282.652,84.559 281.133,82.424 282.336,82.197C286.34,81.44 283.048,91.271 280.518,91.621C280.337,91.646 278.242,91.936 279.578,89.54C279.8,89.142 280.14,88.817 280.362,88.419Z" style="fill:rgb(129,44,33);"/>
                    </g>
                    <g transform="matrix(1.353833,0,0,1.353833,1461.426453,10.384188)">
                        <path d="M264.135,178.442C264.083,178.606 263.492,180.493 263.492,180.493C262.351,181.713 261.611,180.618 261.523,180.487C260.978,179.681 262.581,177.275 261.266,173.578C260.795,172.253 260.151,172.08 261.131,171.082C261.576,170.629 264.477,169.692 264.135,178.442Z" style="fill:rgb(129,44,33);"/>
                    </g>
                    <g transform="matrix(1.353833,0,0,1.353833,1461.426453,10.384188)">
                        <path d="M217.911,219.333C217.524,217.634 217.479,217.648 217.493,217.499C217.505,217.381 217.598,216.419 218.49,216.403C219.645,216.383 220.543,219.068 220.706,219.409C222.169,222.457 223.979,224.369 223.207,225.239C222.786,225.713 221.332,226.704 217.911,219.333Z" style="fill:rgb(129,44,33);"/>
                    </g>
                    <g transform="matrix(1.353833,0,0,1.353833,1461.426453,10.384188)">
                        <path d="M270.728,142.484C270.727,142.872 270.716,145.963 270.053,147.288C269.948,147.498 269.019,149.357 267.687,149.035C266.755,148.809 267.553,146.733 267.625,146.547C269.172,142.522 267.024,140.72 268.614,139.727C269.448,139.206 270.241,140.461 270.323,140.59C270.406,140.721 270.353,140.73 270.728,142.484Z" style="fill:rgb(129,44,33);"/>
                    </g>
                    <g transform="matrix(1.353833,0,0,1.353833,1461.426453,10.384188)">
                        <path d="M273.264,95.401C273.186,95.555 272.293,97.325 272.293,97.325C271.11,98.722 270.043,98.306 270.248,96.484C270.272,96.265 273.178,89.238 273.76,88.932C273.994,88.809 275.617,88.456 275.282,90.471C275.198,90.979 274.433,92.746 273.264,95.401Z" style="fill:rgb(129,44,33);"/>
                    </g>
                    <g transform="matrix(1.353833,0,0,1.353833,1461.426453,10.384188)">
                        <path d="M172.435,103.144C171.322,103.549 171.311,103.49 170.267,104.067C168.579,104.999 167.178,103.721 169.027,102.12C169.372,101.822 171.375,100.088 174.497,100.514C175.349,100.63 175.359,100.639 175.999,101.213C177.66,102.703 174.757,102.944 174.578,102.959C174.406,102.973 174.419,102.972 172.435,103.144Z" style="fill:rgb(129,44,33);"/>
                    </g>
                    <g transform="matrix(1.353833,0,0,1.353833,1461.426453,10.384188)">
                        <path d="M256.442,125.508C256.598,126.42 257.574,130.478 256.625,130.683C255.645,130.896 255.546,130.833 255.015,129.976C254.177,128.624 253.325,124.134 254.216,123.163C255.102,122.195 255.995,123.434 256.098,123.687C256.155,123.824 256.124,123.821 256.442,125.508Z" style="fill:rgb(129,44,33);"/>
                    </g>
                    <g transform="matrix(1.353833,0,0,1.353833,1461.426453,10.384188)">
                        <path d="M261.452,120.504C261.469,120.74 261.638,123.136 261.42,123.455C261.333,123.583 260.531,124.76 259.484,123.512C259.275,123.264 258.01,117.224 259.575,116.682C260.301,116.43 260.362,116.539 260.817,117.163C261.378,117.931 261.152,118.013 261.452,120.504Z" style="fill:rgb(129,44,33);"/>
                    </g>
                    <g transform="matrix(1.353833,0,0,1.353833,1461.426453,10.384188)">
                        <path d="M244.635,169.505C244.465,170.468 244.751,170.605 243.974,171.908C243.455,172.78 243.576,173.154 242.569,173.011C242.432,172.992 241.602,172.874 241.724,171.498C241.785,170.818 241.987,170.156 242.06,169.477C242.252,167.695 241.911,167.711 241.946,167.562C241.987,167.389 242.547,165.032 244.057,166.885C244.653,167.617 244.411,167.702 244.635,169.505Z" style="fill:rgb(129,44,33);"/>
                    </g>
                    <g transform="matrix(1.353833,0,0,1.353833,1461.426453,10.384188)">
                        <path d="M263.487,114.501C263.46,114.258 263.203,112.012 263.398,111.439C263.449,111.29 263.995,109.691 265.353,111.589C265.722,112.103 266.326,117.026 265.541,117.55C264.509,118.237 264.019,117.353 263.956,117.241C263.956,117.241 263.525,114.72 263.487,114.501Z" style="fill:rgb(129,44,33);"/>
                    </g>
                    <g transform="matrix(1.353833,0,0,1.353833,1461.426453,10.384188)">
                        <path d="M181.427,94.812C180.336,94.288 179.793,94.664 179.776,93.47C179.751,91.748 182.911,92.475 183.499,93.5C184.204,94.729 182.611,94.988 182.466,95.012C182.118,95.068 181.775,94.756 181.427,94.812Z" style="fill:rgb(129,44,33);"/>
                    </g>
                </g>
                <g transform="matrix(1.055195,0,0,1.055195,-91.521407,-18.823467)">
                    <circle cx="1701.604" cy="197.773" r="4.09" style="fill:rgb(242,239,229);"/>
                </g>
            </g>
        </g>
    </g>
</svg>
