<?xml version="1.0" encoding="UTF-8" standalone="no"?>
<!DOCTYPE svg PUBLIC "-//W3C//DTD SVG 1.1//EN" "http://www.w3.org/Graphics/SVG/1.1/DTD/svg11.dtd">
<svg width="100%" height="100%" viewBox="0 0 267 309" version="1.1" xmlns="http://www.w3.org/2000/svg" xmlns:xlink="http://www.w3.org/1999/xlink" xml:space="preserve" xmlns:serif="http://www.serif.com/" style="fill-rule:evenodd;clip-rule:evenodd;stroke-linejoin:round;stroke-miterlimit:2;">
    <g transform="matrix(1,0,0,1,-4060.664678,-650.611611)">
        <g transform="matrix(0.627301,0,0,1,2425.27341,3.791992)">
            <g id="Banderilla" transform="matrix(1,0,0,1,33.174261,14.08642)">
                <g transform="matrix(1.793397,0,0,1.125,1289.282209,577.66316)">
                    <path d="M948.684,135.901C939.297,139.599 935.872,138.525 934.59,141.54C932.657,146.086 932.509,145.997 930.099,150.313C928.197,153.717 934.274,153.128 933.527,158.504C933.189,160.937 930.97,165.922 928.648,166.828C925.073,168.222 921.717,165.357 919.702,167.663C919.471,167.928 919.561,167.986 917.089,171.191C914.165,174.982 917.356,178.91 910.673,184.711C907.325,187.618 905.167,186.328 905.192,190.506C905.285,206.326 907.057,210.682 898.499,210.603C892.635,210.55 891.789,208.104 890.542,210.525C887.263,216.889 885.139,215.153 882.897,217.808C882.221,218.608 882.184,219.72 879.686,221.742C876.436,224.374 875.03,223.336 874.03,227.386C872.141,235.043 869.883,237.37 863.454,240.408C860.077,242.003 861.679,243.681 862.523,253.498C862.984,258.858 862.885,262.597 853.5,262.513C844.466,262.433 844.457,258.187 844.107,257.746C844,257.613 842.877,257.287 842.456,257.374C842.241,257.419 839.792,259.222 839.614,259.566C838.224,262.258 845.889,267.721 839.53,271.546C826.3,279.503 827.772,269.994 825.51,267.491C824.789,266.693 823.826,266.956 823.68,266.996C823.337,267.09 823.446,267.353 819.495,268.48C816.803,269.247 817.938,271.48 817.715,276.509C817.487,281.657 816.328,284.266 810.525,285.61C809.553,285.835 799.017,288.275 799.643,279.51C799.969,274.947 800.843,272.014 800.504,271.498C799.144,269.428 795.707,273.248 787.315,268.855C784.334,267.295 784.294,267.375 781.652,265.285C779.366,263.476 778.851,265.06 777.164,267.239C776.782,267.733 773.321,272.205 772.368,273.398C769.402,277.115 766.887,280.172 764.863,282.785C757.015,292.918 756.826,292.749 748.794,302.734C735.608,319.127 733.849,321.804 729.525,322.633C720.948,324.277 713.016,314.697 717.643,306.582C719.864,302.687 724.103,298.683 734.927,284.859C735.413,284.238 735.45,284.289 741.169,277.237C759.733,254.348 759.812,254.434 761.35,252.386C763.132,250.011 761.928,249.725 759.71,244.412C758.39,241.251 756.522,243.171 752.451,244.299C750.233,244.913 745.409,245.865 745.461,234.5C745.493,227.44 750.481,228.36 753.427,227.26C755.624,226.44 755.13,225.758 754.435,223.522C751.142,212.927 753.306,211.651 751.575,211.329C749.903,211.017 744.041,214.538 742.084,209.672C741.543,208.325 738.432,197.717 743.405,195.318C747.247,193.466 752.411,194.473 753.596,191.537C753.847,190.915 753.807,190.433 755.238,187.372C757.045,183.504 759.19,182.064 756.448,179.557C753.553,176.909 747.051,173.952 754.117,166.152C760.257,159.374 763.071,164.662 764.493,164.739C766.805,164.864 764.361,162.332 769.018,156.139C774.144,149.324 777.473,152.122 778.367,148.468C778.551,147.717 778.933,143.224 782.784,138.75C785.663,135.405 782.333,134.875 780.318,128.558C780.077,127.805 777.94,124.205 785.674,119.799C789.633,117.544 792.49,119.991 793.549,122.473C793.668,122.752 794.442,125.385 795.741,123.933C797.01,122.515 796.723,122.32 797.928,120.865C800.101,118.237 799.476,117.921 799.17,114.536C797.832,99.75 798.7,98.602 799.521,97.516C799.756,97.205 800.717,95.274 808.497,94.47C814.985,93.799 814.485,97.722 816.485,97.455C818.007,97.253 818.077,93.4 825.437,91.284C828.452,90.417 828.786,90.468 829.88,87.641C833.507,78.27 836.482,77.995 836.847,75.547C837.051,74.172 834.927,68.868 846.48,67.346C848.973,67.017 849.941,67.479 850.422,67.265C850.628,67.174 850.681,66.893 850.845,66.737C850.964,66.624 851.22,66.63 851.259,66.471C851.63,64.978 846.813,56.82 853.566,52.612C854.524,52.015 864.621,47.112 867.528,51.478C870.928,56.584 866.203,62.648 871.483,61.416C875.517,60.474 875.855,60.318 877.267,56.417C879.267,50.894 879.95,47.057 889.365,49.931C898.98,52.865 891.868,59.393 893.487,61.511C893.759,61.868 916.616,66.322 932.808,87.302C935.318,90.554 934.65,92.245 937.532,91.627C942.83,90.492 944.707,91.465 947.333,98.557C951.059,108.619 941.669,108.926 940.319,111.366C939.598,112.669 939.623,114.908 939.568,115.507C939.547,115.745 939.321,118.211 939.516,118.491C940.154,119.41 940.322,119.339 941.403,119.045C944.057,118.323 954.259,113.491 953.185,128.476C952.74,134.684 948.861,135.806 948.684,135.901Z" style="fill:rgb(129,45,34);"/>
                </g>
                <g transform="matrix(1.793397,0,0,1.125,1289.282209,577.66316)">
                    <path d="M799.782,126.749C800.382,125.599 801.137,126.281 801.219,126.722C801.323,127.288 801.497,127.84 801.67,128.389C801.731,128.585 802.063,129.643 803.579,130.121C804.395,130.378 810.058,129.991 811.41,129.292C815.964,126.934 812.774,118.047 815.874,112.698C819.254,106.868 817.782,98.908 828.573,95.726C836.616,93.354 833.169,89.014 838.219,83.191C838.337,83.055 839.44,81.784 840.4,82.613C840.617,82.8 841.677,85.147 841.779,85.372C845.325,93.217 845.582,94.998 850.577,93.824C857.983,92.083 858.647,90.873 857.585,86.479C856.841,83.405 856.648,83.476 855.861,80.41C855.284,78.161 857.1,77.726 857.333,76.466C857.563,75.228 854.644,61.857 854.822,59.496C854.899,58.47 854.47,57.229 860.662,54.924C863.485,53.873 864.218,54.494 864.419,57.505C864.951,65.488 864.658,72.033 866.494,72.517C868.974,73.172 869.059,69.367 869.481,68.489C871.026,65.275 886.469,64.66 897.56,68.521C900.886,69.679 910.311,71.045 928.603,90.256C928.932,90.601 931.315,93.559 930.526,95.515C930.401,95.824 930.2,96.32 927.23,98.078C920.646,101.973 920.597,101.857 914.287,106.187C909.856,109.229 905.35,110.484 907.73,116.409C910.318,122.855 913.371,122.264 913.483,122.259C915.648,122.161 931.468,115.036 932.551,114.825C933.407,114.659 934.103,115.624 934.103,115.625C934.195,115.916 934.124,120.205 933.483,121.489C932.426,123.606 914.704,127.762 911.885,132.704C911.579,133.239 910.558,135.031 912.866,140.35C914.74,144.671 916.064,144.478 926.536,141.721C926.708,141.675 928.559,141.188 928.624,142.487C928.646,142.928 927.682,144.394 927.581,144.549C924.216,149.666 924.05,150.554 923.199,151.054C921.19,152.235 911.612,149.255 909.637,149.985C906.797,151.035 905.43,158.02 905.663,159.471C906.328,163.616 917.467,162.731 913.715,166.668C909.066,171.548 911.166,172.808 910.265,176.435C909.709,178.677 906.046,182.846 904.504,181.497C904.337,181.351 903.737,178.937 903.539,178.482C903.307,177.95 902.207,175.42 896.529,176.631C891.476,177.708 892.127,179.777 891.182,190.467C890.568,197.4 890.731,197.54 888.714,200.633C885.859,205.013 886.138,208.92 884.388,210.366C881.871,212.447 880.082,211.29 878.019,215.276C876.559,218.099 876.367,218.069 873.416,219.29C868.276,221.417 870.114,225.235 867.593,230.545C865.909,234.094 861.731,235.582 860.607,235.195C858.519,234.476 860.757,226.781 852.51,226.885C846.096,226.965 846.006,230.112 845.84,232.522C845.758,233.722 844.912,246.07 844.486,247.496C843.8,249.795 837.739,254.132 836.531,254.01C834.48,253.803 834.415,249.832 828.597,251.781C820.558,254.473 822.458,257.873 822.629,259.485C823.058,263.524 816.726,261.959 814.363,264.371C812.235,266.543 813.335,276.156 812.689,278.553C811.877,281.56 805.65,281.745 804.48,280.517C803.365,279.346 805.099,267.75 805.006,266.552C804.995,266.404 804.915,265.373 804.166,264.899C801.886,263.456 797.618,268.765 789.601,264.309C780.847,259.445 777.384,252.98 768.511,248.479C764.274,246.331 763.714,240.004 762.63,234.472C761.494,228.672 761.149,228.769 760.224,225.618C757.673,216.929 757.582,216.944 757.381,214.509C756.874,208.365 758.979,207.971 761.327,207.063C774.048,202.146 778.6,202.394 777.41,196.519C775.964,189.377 773.142,189.811 771.5,189.998C767.803,190.421 767.803,190.349 767.484,190.4C760.792,191.471 760.566,191.955 759.941,191.164C759.421,190.507 759.634,189.761 762.304,186.347C765.293,182.524 766.303,188.341 771.389,187.26C773.473,186.816 775.708,183.661 776.318,182.411C778.641,177.649 770.092,175.471 770.709,169.533C771.169,165.112 770.576,165.035 771.456,162.484C773.428,156.775 779.101,155.161 779.288,155.073C783.975,152.87 782.065,149.28 785.534,143.527C785.642,143.348 786.726,141.55 788.064,142.896C788.118,142.95 790.672,147.753 791.477,148.52C791.951,148.97 794.389,151.291 799.347,146.341C802.057,143.635 800.411,142.84 798.103,136.64C796.647,132.728 797.298,132.572 798.988,128.749C799.424,127.762 799.381,127.76 799.782,126.749Z" style="fill:rgb(242,239,229);"/>
                </g>
                <g transform="matrix(1.793397,0,0,1.125,1289.282209,577.66316)">
                    <path d="M751.472,272.477C753.957,269.455 753.917,269.442 756.386,266.411C764.655,256.264 764.566,256.199 765.299,255.329C767.496,252.718 768.203,253.93 770.787,256.168C774.645,259.511 776.114,259.843 774.483,262.488C773.854,263.51 773.839,263.478 765.188,274.257C754.574,287.484 754.667,287.544 753.732,288.683C746.254,297.803 746.359,297.871 745.706,298.66C740.863,304.513 733.238,314.265 732.291,315.308C732.286,315.313 728.147,320.713 723.118,315.907C719.29,312.249 721.496,308.954 725.302,304.341C726.026,303.463 731.918,296.322 734.407,293.422C736.95,290.461 745.561,279.65 751.472,272.477Z" style="fill:rgb(242,239,229);"/>
                </g>
                <g transform="matrix(1.793397,0,0,1.125,1289.282209,577.66316)">
                    <path d="M871.086,106.61C870.883,105.802 869.624,100.787 868.806,96.44C866.955,86.616 865.748,83.25 867.361,80.408C867.75,79.724 868.997,77.527 876.543,76.881C883.74,76.264 883.12,80.434 883.509,99.5C883.624,105.126 885.049,108.382 878.569,109.818C871.726,111.334 871.617,108.141 871.086,106.61Z" style="fill:rgb(129,45,34);"/>
                </g>
                <g transform="matrix(1.793397,0,0,1.125,1289.282209,577.66316)">
                    <path d="M878.646,127.846C882.148,126.331 882.173,126.449 885.68,124.91C890.884,122.626 892.946,122.019 893.598,121.827C902.316,119.26 902.044,130.516 901.223,133.426C899.756,138.629 897.475,138.157 885.553,139.884C878.028,140.974 875.827,141.731 874.715,136.456C873.303,129.753 875.854,129.185 878.646,127.846Z" style="fill:rgb(129,45,34);"/>
                </g>
                <g transform="matrix(1.793397,0,0,1.125,1289.282209,577.66316)">
                    <path d="M832.202,145.446C831.788,146.981 832.193,147.192 829.51,151.507C824.184,160.07 809.819,159.147 812.22,145.452C813.929,135.703 826.301,129.943 831.245,138.637C831.927,139.835 832.218,141.3 832.266,141.542C832.653,143.485 832.408,143.482 832.202,145.446Z" style="fill:rgb(129,45,34);"/>
                </g>
                <g transform="matrix(1.793397,0,0,1.125,1289.282209,577.66316)">
                    <path d="M872.482,185.488C862.96,198.561 849.616,189.071 855.243,177.372C855.766,176.286 859.197,170.235 864.524,169.693C871.364,168.998 878.388,175.839 872.482,185.488Z" style="fill:rgb(129,45,34);"/>
                </g>
                <g transform="matrix(1.793397,0,0,1.125,1289.282209,577.66316)">
                    <path d="M824.798,173.43C824.737,173.039 824.293,170.201 824.399,168.494C824.525,166.451 825.286,164.349 825.71,163.616C828.643,158.55 832.066,162.471 832.821,163.149C840.626,170.163 845.346,171.542 847.783,174.259C850.912,177.749 841.394,185.646 831.625,181.211C825.779,178.557 824.907,173.733 824.798,173.43Z" style="fill:rgb(129,45,34);"/>
                </g>
                <g transform="matrix(1.793397,0,0,1.125,1289.282209,577.66316)">
                    <path d="M847.928,128.431C847.324,123.992 847.025,123.278 846.55,118.496C845.91,112.059 850.761,112.352 855.54,111.946C863.645,111.256 862.376,117.641 861.261,128.476C860.844,132.529 861.12,135.572 855.518,135.825C848.709,136.133 848.703,133.168 847.928,128.431Z" style="fill:rgb(129,45,34);"/>
                </g>
                <g transform="matrix(1.793397,0,0,1.125,1289.282209,577.66316)">
                    <path d="M800.302,230.363C791.605,243.636 791.599,243.665 790.521,244.522C789.555,245.291 787.843,247.12 782.852,244.008C782.525,243.804 780.492,242.536 779.593,240.455C778.081,236.956 780.3,235.841 789.183,225.246C792.389,221.423 793.909,218.654 799.674,224.315C802.146,226.742 802.146,227.674 800.302,230.363Z" style="fill:rgb(129,45,34);"/>
                </g>
                <g transform="matrix(1.793397,0,0,1.125,1289.282209,577.66316)">
                    <path d="M800.449,183.461C796.811,187.935 795.662,188.23 791.162,184.968C790.373,184.395 787.22,182.109 781.784,177.184C780.541,176.058 777.223,173.72 782.373,167.404C788.806,159.516 792.22,166.573 792.761,167.324C796.288,172.219 796.272,172.204 800.055,176.879C802.922,180.421 801.727,181.642 800.449,183.461Z" style="fill:rgb(129,45,34);"/>
                </g>
                <g transform="matrix(1.793397,0,0,1.125,1289.282209,577.66316)">
                    <path d="M800.471,248.479C805.828,240.87 807.171,236.388 813.354,240.707C817.498,243.603 817.158,245.058 816.227,247.391C811.006,260.476 809.819,261.213 808.708,261.902C806.948,262.995 801.901,261.268 801.644,261.164C793.255,257.763 798.796,250.863 800.471,248.479Z" style="fill:rgb(129,45,34);"/>
                </g>
                <g transform="matrix(1.793397,0,0,1.125,1289.282209,577.66316)">
                    <path d="M815.908,227.422C815.729,225.615 815.023,224 818.465,222.421C822.992,220.344 825.373,220.61 827.005,223.756C833.843,236.944 833.849,237.178 833.881,238.477C833.899,239.2 833.963,241.759 826.601,243.837C819.561,245.825 819.289,242.654 815.908,227.422Z" style="fill:rgb(129,45,34);"/>
                </g>
                <g transform="matrix(1.793397,0,0,1.125,1289.282209,577.66316)">
                    <path d="M928.62,111.747C919.868,115.912 913.563,118.579 913.512,118.584C911.849,118.741 911.283,116.761 911.225,116.612C909.939,113.26 911.266,112.753 917.229,109.052C932.596,99.516 933.092,99.603 937.694,96.843C940.751,95.008 941.326,96.137 942.613,99.451C944.129,103.352 943.976,104.137 940.272,106.095C939.839,106.323 929.356,111.414 928.62,111.747Z" style="fill:rgb(242,239,229);"/>
                </g>
                <g transform="matrix(1.793397,0,0,1.125,1289.282209,577.66316)">
                    <path d="M932.619,135.86C928.705,137.183 928.688,137.101 920.447,139.301C920.211,139.364 917.96,139.965 917.458,139.91C915.335,139.677 915.007,135.594 915.403,134.459C916.008,132.725 920.37,131.904 928.533,128.585C930.757,127.68 945.056,122.228 946.515,122.376C948.002,122.527 948.225,124.311 948.253,124.531C948.971,130.262 946.995,131.211 946.479,131.459C945.081,132.13 937.545,134.316 932.619,135.86Z" style="fill:rgb(242,239,229);"/>
                </g>
                <g transform="matrix(1.793397,0,0,1.125,1289.282209,577.66316)">
                    <path d="M775.902,223.707C772.775,229.625 771.355,233.846 765.458,229.553C765.075,229.273 763.123,227.853 762.322,224.521C762.05,223.389 761.304,222.502 766.383,216.404C771.129,210.707 772.619,209.363 776.578,212.41C777.549,213.158 779.696,215.501 779.135,217.394C778.958,217.987 778.911,217.96 775.902,223.707Z" style="fill:rgb(129,45,34);"/>
                </g>
                <g transform="matrix(1.793397,0,0,1.125,1289.282209,577.66316)">
                    <path d="M857.098,244.55C858.34,255.051 859.406,257.705 855.512,257.864C849.118,258.125 848.762,257.002 848.592,256.463C848.207,255.246 848.879,245.309 849.136,236.489C849.25,232.57 849.166,230.552 851.457,230.207C855.333,229.624 855.593,232.363 856.08,236.548C856.546,240.557 856.587,240.538 857.098,244.55Z" style="fill:rgb(242,239,229);"/>
                </g>
                <g transform="matrix(1.793397,0,0,1.125,1289.282209,577.66316)">
                    <path d="M807.506,126.665C805.743,126.519 805.595,126.858 804.909,126.112C803.926,125.042 804.343,118.591 803.42,109.51C802.686,102.29 802.725,102.184 802.941,101.587C802.997,101.435 803.32,100.544 804.344,100.137C804.487,100.08 809.086,98.753 810.607,99.308C811.974,99.806 811.486,102.412 811.096,112.475C810.883,117.994 810.887,117.973 810.74,123.501C810.651,126.855 809.26,126.384 807.506,126.665Z" style="fill:rgb(242,239,229);"/>
                </g>
                <g transform="matrix(1.793397,0,0,1.125,1289.282209,577.66316)">
                    <path d="M769.601,199.761C759.004,203.524 758.946,203.291 748.405,207.25C745.698,208.267 745.733,205.684 745.448,202.504C745.107,198.694 746.89,198.841 754.413,197.128C761.407,195.536 761.418,195.653 768.452,194.267C768.757,194.207 771.462,193.673 772.317,193.963C773.322,194.304 774.822,197.287 772.52,198.534C771.972,198.831 771.974,198.795 769.601,199.761Z" style="fill:rgb(242,239,229);"/>
                </g>
                <g transform="matrix(1.793397,0,0,1.125,1289.282209,577.66316)">
                    <path d="M816.243,199.673C818.661,203.167 819.209,204.333 816.367,206.292C810.434,210.381 808.52,211.482 804.779,205.323C802.925,202.269 800.797,198.947 804.392,195.391C806.293,193.512 810.803,191.092 813.55,195.467C814.883,197.589 814.899,197.559 816.243,199.673Z" style="fill:rgb(129,45,34);"/>
                </g>
                <g transform="matrix(1.793397,0,0,1.125,1289.282209,577.66316)">
                    <path d="M872.944,95.396C870.679,85.505 868.908,83.192 872.453,82.317C872.774,82.238 875.58,81.546 876.486,81.4C876.675,81.369 878.27,81.113 878.64,82.454C878.767,82.915 879.682,102.176 879.701,103.503C879.706,103.847 879.747,106.673 876.509,106.385C874.522,106.208 875.144,105.069 872.944,95.396Z" style="fill:rgb(242,239,229);"/>
                </g>
                <g transform="matrix(1.410589,0.694724,-1.107481,0.884864,1794.891857,-26.960255)">
                    <path d="M871.086,106.61C870.883,105.802 869.624,100.787 868.806,96.44C866.955,86.616 865.748,83.25 867.361,80.408C867.75,79.724 868.997,77.527 876.543,76.881C883.74,76.264 883.12,80.434 883.509,99.5C883.624,105.126 885.049,108.382 878.569,109.818C871.726,111.334 871.617,108.141 871.086,106.61Z" style="fill:rgb(129,45,34);"/>
                </g>
                <g transform="matrix(1.410589,0.694724,-1.107481,0.884864,1794.891857,-26.960255)">
                    <path d="M872.944,95.396C870.679,85.505 868.908,83.192 872.453,82.317C872.774,82.238 875.58,81.546 876.486,81.4C876.675,81.369 878.27,81.113 878.64,82.454C878.767,82.915 879.682,102.176 879.701,103.503C879.706,103.847 879.747,106.673 876.509,106.385C874.522,106.208 875.144,105.069 872.944,95.396Z" style="fill:rgb(242,239,229);"/>
                </g>
                <g transform="matrix(1.793397,0,0,1.125,1289.282209,577.66316)">
                    <path d="M895.102,186.472C895.315,182.887 895.015,180.853 897.395,180.132C901.377,178.927 900.84,182.666 900.845,183.499C900.937,197.252 901.277,203.207 900.706,204.607C900.021,206.286 895.453,206.103 894.633,204.436C893.998,203.146 893.946,203.041 895.102,186.472Z" style="fill:rgb(242,239,229);"/>
                </g>
                <g transform="matrix(1.793397,0,0,1.125,1289.282209,577.66316)">
                    <path d="M823.974,110.38C823.778,108.148 823.275,106.581 828.285,104.056C832.111,102.128 834.813,103.238 835.487,104.508C836.711,106.816 838.764,120.032 838.724,120.525C838.567,122.476 836.284,123.758 835.603,120.476C835.152,118.303 833.141,108.918 833.061,108.664C832.266,106.16 828.239,108.588 827.897,109.663C827.388,111.264 829.943,116.356 831.013,121.588C831.065,121.842 831.701,124.949 829.514,124.457C828.577,124.247 827.831,121.415 827.824,121.392C826.031,115.84 825.914,115.901 823.974,110.38Z" style="fill:rgb(129,45,34);"/>
                </g>
                <g transform="matrix(1.793397,0,0,1.125,1289.282209,577.66316)">
                    <path d="M846.378,72.066C846.774,72.017 847.143,71.825 847.539,71.777C850.33,71.436 850.944,76.233 852.708,82.442C854.197,87.688 855.069,89.084 851.413,90.203C848.263,91.168 848.031,90.149 846.438,86.527C843.191,79.141 842.564,77.395 842.273,76.584C841.156,73.475 842.285,73.274 845.439,72.311C845.748,72.216 846.068,72.16 846.378,72.066Z" style="fill:rgb(242,239,229);"/>
                </g>
                <g transform="matrix(1.793397,0,0,1.125,1289.282209,577.66316)">
                    <path d="M896.53,159.478C898.918,162.954 898.876,164.531 897.506,166.506C895.968,168.724 886.926,170.755 885.529,170.416C885.193,170.334 882.195,168.656 887.531,166.589C890.341,165.5 894.739,165.329 892.993,162.279C892.84,162.012 892.716,161.729 892.568,161.46C890.738,158.121 889.782,158.578 886.426,160.359C883.085,162.131 884.477,163.471 884.105,164.417C883.993,164.702 882.613,166.858 881.203,164.691C880.805,164.079 880.157,160.856 880.861,159.761C881.391,158.936 888.248,154.937 890.495,154.994C892.671,155.05 894.875,157.47 895.168,157.792C895.203,157.831 895.202,157.831 896.53,159.478Z" style="fill:rgb(129,45,34);"/>
                </g>
                <g transform="matrix(1.977495,0,0,1.240485,-1430.896498,-198.907352)">
                    <circle cx="2124.036" cy="754.967" r="3.192" style="fill:rgb(242,239,229);"/>
                </g>
                <g transform="matrix(1.977495,0,0,1.240485,-1360.306454,-160.091434)">
                    <circle cx="2124.036" cy="754.967" r="3.192" style="fill:rgb(242,239,229);"/>
                </g>
                <g transform="matrix(1.793397,0,0,1.125,1289.282209,577.66316)">
                    <path d="M840.019,209.641C841.53,215.012 841.488,216.851 844.439,216.247C848.712,215.373 847.029,213.598 845.418,209.535C844.75,207.849 842.958,203.835 844.351,203.3C846.329,202.54 847.036,204.19 849.699,210.417C851.104,213.701 853.9,218.953 845.478,220.378C839.825,221.334 838.923,219.753 836.496,210.501C836.378,210.051 834.886,205.661 836.479,204.468C836.696,204.305 838.166,203.924 838.757,205.362C838.847,205.582 839.92,209.298 840.019,209.641Z" style="fill:rgb(129,45,34);"/>
                </g>
                <g transform="matrix(1.793397,0,0,1.125,1289.282209,577.66316)">
                    <path d="M884.419,136.07C879.791,136.872 878.695,137.469 877.798,135.393C876.699,132.851 879.23,131.71 879.536,131.572C881.616,130.635 894.554,125.543 895.457,125.83C896.556,126.179 896.582,126.286 896.82,127.411C896.918,127.877 896.971,130.254 896.977,130.502C897.065,134.442 895.23,134.031 890.574,134.887C887.474,135.457 887.505,135.496 884.419,136.07Z" style="fill:rgb(242,239,229);"/>
                </g>
                <g transform="matrix(1.793397,0,0,1.125,1289.282209,577.66316)">
                    <path d="M759.275,175.768C758.979,175.51 758.97,175.546 758.677,175.29C758.421,175.066 758.454,175.053 758.208,174.836C755.813,172.728 755.695,172.136 757.516,169.513C759.678,166.397 760.916,167.338 764.249,170.746C765.443,171.967 772.053,179.335 772.283,179.66C773.846,181.863 771.831,183.491 771.561,183.609C770.371,184.133 769.483,184.536 759.275,175.768Z" style="fill:rgb(242,239,229);"/>
                </g>
                <g transform="matrix(1.793397,0,0,1.125,1289.282209,577.66316)">
                    <path d="M792.116,130.65C796.579,142.062 797.24,142.013 796.819,143.612C796.655,144.238 794.498,147.024 792.832,144.29C792.426,143.623 792.457,143.61 786.114,130.692C785.044,128.513 783.821,126.965 786.174,125.066C786.333,124.938 787.665,123.863 788.476,123.954C789.808,124.103 790.183,125.865 792.116,130.65Z" style="fill:rgb(242,239,229);"/>
                </g>
                <g transform="matrix(1.793397,0,0,1.125,1289.282209,577.66316)">
                    <path d="M914.615,160.106C914.125,159.958 910.184,158.879 909.664,158.324C908.839,157.445 909.501,155.743 909.582,155.535C910.585,152.956 911.947,153.801 920.517,155.415C927.222,156.678 930.185,156.798 927.651,161.589C926.61,163.559 925.868,163.331 914.615,160.106Z" style="fill:rgb(242,239,229);"/>
                </g>
                <g transform="matrix(1.793397,0,0,1.125,1289.282209,577.66316)">
                    <path d="M857.431,129.492C857.273,130.173 857.482,132.227 854.508,132.167C851.96,132.116 852.05,131.074 851.256,123.529C850.733,118.562 849.848,116.627 853.466,116.231C856.846,115.86 858.679,115.29 858.383,119.493C858.106,123.419 857.52,128.693 857.431,129.492Z" style="fill:rgb(242,239,229);"/>
                </g>
                <g transform="matrix(1.793397,0,0,1.125,1289.282209,577.66316)">
                    <path d="M832.711,256.381C836.803,264.915 836.92,264.854 837.201,265.627C837.56,266.614 838.099,267.859 833.505,269.514C830.45,270.615 830.32,268.717 828.674,264.437C826.123,257.803 826.086,257.591 826.753,256.713C826.908,256.509 830.602,253.653 832.281,255.671C832.458,255.883 832.534,256.169 832.711,256.381Z" style="fill:rgb(242,239,229);"/>
                </g>
                <g transform="matrix(1.793397,0,0,1.125,1289.282209,577.66316)">
                    <path d="M808.118,256.283C807.469,256.937 807.143,258.853 803.518,257.457C799.583,255.943 802.038,253.675 805.107,248.279C806.831,245.249 808.749,240.903 811.794,243.007C814.316,244.75 812.926,246.286 810.831,250.655C808.516,255.484 808.529,255.482 808.118,256.283Z" style="fill:rgb(242,239,229);"/>
                </g>
                <g transform="matrix(1.793397,0,0,1.125,1289.282209,577.66316)">
                    <path d="M825.541,239.653C824.359,239.647 823.3,240.836 822.188,237.608C821.646,236.036 819.222,227.552 819.383,226.483C819.573,225.226 822.786,222.914 824.346,225.594C824.461,225.791 828.901,234.796 829.296,235.597C829.404,235.817 830.384,237.804 828.539,238.574C828.304,238.672 828.317,238.654 825.541,239.653Z" style="fill:rgb(242,239,229);"/>
                </g>
                <g transform="matrix(1.793397,0,0,1.125,1289.282209,577.66316)">
                    <path d="M785.62,175.367C783.782,173.59 783.418,173.121 785.033,171.133C787.35,168.281 788.266,168.012 789.968,170.095C791.226,171.636 794.009,174.934 794.462,175.531C797.505,179.541 798.801,179.474 797.7,181.627C796.383,184.203 793.609,181.925 793.339,181.704C787.201,176.663 787.185,176.709 785.62,175.367Z" style="fill:rgb(242,239,229);"/>
                </g>
                <g transform="matrix(1.793397,0,0,1.125,1289.282209,577.66316)">
                    <path d="M785.487,240.52C784.442,239.609 784.055,239.813 783.888,238.452C783.77,237.497 785.711,235.106 785.92,234.849C792.872,226.285 792.888,226.273 793.633,225.67C795.281,224.338 798.573,226.213 796.979,228.758C796.423,229.645 794.692,232.41 789.363,239.398C787.291,242.114 786.313,240.754 785.487,240.52Z" style="fill:rgb(242,239,229);"/>
                </g>
                <g transform="matrix(1.793397,0,0,1.125,1289.282209,577.66316)">
                    <path d="M833.423,167.584C839.799,172.967 844.743,174.403 844.407,176.478C844.331,176.942 842.49,179.346 840.471,177.528C839.839,176.958 839.891,175.817 836.641,173.309C831.595,169.415 827.765,172.851 827.816,168.499C827.82,168.16 827.862,164.597 829.505,164.615C829.916,164.62 830.004,164.556 833.423,167.584Z" style="fill:rgb(242,239,229);"/>
                </g>
                <g transform="matrix(1.793397,0,0,1.125,1289.282209,577.66316)">
                    <path d="M767.32,221.354C769.941,218.201 771.706,215.243 772.576,214.601C773.456,213.953 775.032,214.495 775.448,215.526C776.003,216.902 775.28,217.837 774.77,218.666C772.789,221.886 773.052,222.022 771.031,225.209C770.883,225.442 769.527,227.581 767.723,226.186C764.647,223.807 767.157,221.575 767.32,221.354Z" style="fill:rgb(242,239,229);"/>
                </g>
                <g transform="matrix(1.793397,0,0,1.125,1289.282209,577.66316)">
                    <path d="M871.496,200.278C871.83,200.319 873.289,200.21 875.622,201.271C878.459,202.56 877.284,204.102 877.221,204.153C876.633,204.624 874.612,203.892 874.398,203.815C869.53,202.051 866.578,204.337 867.733,206.39C867.955,206.784 868.347,207.074 868.534,207.486C868.59,207.61 869.096,208.726 868.332,209.185C866.913,210.039 861.515,205.752 866.164,202.03C868.25,200.36 870.52,200.399 871.496,200.278Z" style="fill:rgb(129,45,34);"/>
                </g>
                <g transform="matrix(1.793397,0,0,1.125,1289.282209,577.66316)">
                    <path d="M753.669,238.937C753.253,239.042 752.905,239.347 752.489,239.452C750.985,239.83 750.633,238.633 750.584,238.469C750.509,238.214 749.968,234.845 750.485,233.494C750.724,232.867 751.169,232.36 754.485,231.447C757.127,230.719 757.184,231.782 757.503,234.5C757.87,237.632 756.9,237.705 753.669,238.937Z" style="fill:rgb(242,239,229);"/>
                </g>
                <g transform="matrix(1.793397,0,0,1.125,1289.282209,577.66316)">
                    <path d="M889.238,57.416C888.654,58.803 888.985,59.038 887.764,59.931C887.012,60.481 884.665,60.289 883.506,60.291C883.322,60.292 881.512,60.295 881.312,59.607C880.834,57.956 883.258,54.236 883.776,53.885C885.12,52.975 889.429,53.842 889.638,55.477C889.658,55.634 889.608,55.62 889.238,57.416Z" style="fill:rgb(242,239,229);"/>
                </g>
                <g transform="matrix(1.793397,0,0,1.125,1289.282209,577.66316)">
                    <path d="M807.823,203.295C807.253,202.293 804.909,199.323 807.515,197.519C809.943,195.837 810.417,196.698 811.931,199.233C812.689,200.504 815.121,202.931 812.468,204.451C810,205.865 809.505,205.597 807.823,203.295Z" style="fill:rgb(242,239,229);"/>
                </g>
                <g transform="matrix(1.793397,0,0,1.125,1289.282209,577.66316)">
                    <path d="M888.077,71.792C889.732,74.973 889.27,75.131 890.205,78.586C890.989,81.488 887.946,81.255 887.27,78.567C887.093,77.859 886.994,77.134 886.846,76.42C885.482,69.791 880.761,73.015 880.652,70.489C880.56,68.335 885.175,68.764 887.211,70.803C887.52,71.113 887.767,71.482 888.077,71.792Z" style="fill:rgb(129,45,34);"/>
                </g>
                <g transform="matrix(1.793397,0,0,1.125,1289.282209,577.66316)">
                    <path d="M840.585,97.276C840.305,97.162 839.998,97.123 839.718,97.009C837.907,96.276 838.092,93.729 841.482,94.577C847.547,96.092 846.551,103.895 845.27,105.287C845.166,105.399 844.309,106.329 843.401,105.64C842.395,104.877 842.828,104.647 843.112,103.408C844.131,98.969 842.759,98.27 840.585,97.276Z" style="fill:rgb(129,45,34);"/>
                </g>
                <g transform="matrix(1.793397,0,0,1.125,1289.282209,577.66316)">
                    <path d="M840.032,232.805C840.319,233.374 842.734,238.163 841.648,240.613C841.49,240.971 838.8,242.557 838.639,238.5C838.431,233.274 836.538,233.912 835.782,231.451C835.73,231.284 835.205,229.573 837.587,230.226C837.587,230.226 838.954,230.667 840.032,232.805Z" style="fill:rgb(129,45,34);"/>
                </g>
                <g transform="matrix(1.793397,0,0,1.125,1289.282209,577.66316)">
                    <path d="M783.47,207.029C781.732,206.879 781.693,207.086 780.47,206.556C778.642,205.763 779.136,203.635 780.517,203.665C781.179,203.68 781.825,203.888 782.485,203.929C785.01,204.087 786.411,201.602 787.492,201.439C788.746,201.251 789.081,202.383 789.126,202.534C789.404,203.475 787.517,205.12 787.318,205.294C785.522,206.858 783.732,206.958 783.47,207.029Z" style="fill:rgb(129,45,34);"/>
                </g>
                <g transform="matrix(1.793397,0,0,1.125,1289.282209,577.66316)">
                    <path d="M792.257,153.602C792.36,153.987 793.1,156.762 792.711,158.559C792.196,160.94 790.208,160.793 790.043,158.58C789.992,157.899 790.083,157.212 790.037,156.53C789.822,153.361 787.027,153.036 787.167,151.412C787.248,150.47 788.371,150.495 788.5,150.498C789.149,150.512 790.375,151.369 790.522,151.471C791.645,152.255 792.212,153.537 792.257,153.602Z" style="fill:rgb(129,45,34);"/>
                </g>
                <g transform="matrix(1.793397,0,0,1.125,1289.282209,577.66316)">
                    <path d="M831.531,177.45C829.784,176.176 829.565,176.335 829.334,175.567C828.807,173.818 830.371,173.88 830.536,173.887C834.114,174.029 837.476,177.356 837.537,178.503C837.667,180.932 831.955,177.69 831.531,177.45Z" style="fill:rgb(242,239,229);"/>
                </g>
            </g>
        </g>
    </g>
</svg>
