<?xml version="1.0" encoding="UTF-8" standalone="no"?>
<!DOCTYPE svg PUBLIC "-//W3C//DTD SVG 1.1//EN" "http://www.w3.org/Graphics/SVG/1.1/DTD/svg11.dtd">
<svg width="100%" height="100%" viewBox="0 0 306 203" version="1.1" xmlns="http://www.w3.org/2000/svg" xmlns:xlink="http://www.w3.org/1999/xlink" xml:space="preserve" xmlns:serif="http://www.serif.com/" style="fill-rule:evenodd;clip-rule:evenodd;stroke-linejoin:round;stroke-miterlimit:2;">
    <g transform="matrix(1,0,0,1,-3229.760551,-697.954005)">
        <g transform="matrix(0.627301,0,0,1,2425.27341,3.791992)">
            <g id="Bonne" transform="matrix(1.594131,0,0,1,-2386.284686,564.719302)">
                <g transform="matrix(1.397183,0,0,1.397183,2216.037331,-340.15789)">
                    <path d="M279.898,419.507C279.861,419.916 279.942,423.069 277.899,425.792C274.941,429.735 272.822,428.426 272.384,432.491C271.848,437.453 270.875,442.534 263.433,445.318C261.673,445.976 261.665,445.92 261.304,446.182C258.666,448.101 261.65,449.868 257.477,457.486C256.02,460.148 250.597,465.88 242.499,465.534C240.422,465.446 238.472,464.804 237.397,466.423C237.385,466.441 233.561,475.683 220.497,479.489C210.545,482.388 203.366,475.803 201.526,475.905C199.586,476.012 191.743,484.507 179.466,479.585C169.305,475.512 170.523,469.316 165.633,471.781C164.6,472.301 151.318,479.87 143.008,467.824C141.542,465.697 141.369,465.08 139.498,465.066C136.853,465.047 131.723,466.248 127.151,459.726C124.238,455.571 125.279,452.26 121.495,452.392C120.57,452.424 108.459,454.546 101.659,441.417C99.501,437.25 100.019,435.189 95.438,436.242C92.79,436.851 84.217,439.222 79.222,431.667C76.351,427.324 78.202,420.393 76.635,419.357C74.66,418.051 68.405,417.998 64.873,413.224C60.487,407.298 64.325,400.675 63.899,398.402C63.528,396.42 58.067,390.862 63.482,382.487C65.76,378.961 69.139,379.041 69.902,376.633C70.33,375.287 70.137,371.184 74.43,367.418C79.19,363.242 86.546,364.901 87.589,365.136C91.835,366.093 90.812,363.296 95.671,359.731C102.795,354.505 111.723,358.249 112.431,358.081C115.056,357.46 118.012,346.805 129.5,346.509C135.594,346.352 136.98,349.579 139.382,347.378C139.523,347.249 143.541,342.125 150.501,342.12C155.004,342.118 155.757,344.679 158.551,341.544C158.566,341.527 162.8,335.666 170.52,336.254C177.566,336.791 181.523,341.82 183.367,341.126C184.955,340.527 192.593,331.708 208.281,338.939C211.87,340.593 215.341,343.551 215.899,344.026C219.29,346.917 219.962,343.803 225.484,343.932C229.508,344.025 232.997,346.196 234.607,348.417C235.579,349.758 236.202,351.398 238.43,351.082C238.991,351.003 246.805,348.831 252.644,356.395C255.595,360.218 254.715,364.662 257.398,365.764C259.261,366.53 269.472,368.091 268.828,379.523C268.647,382.722 268.383,383.063 270.792,385.164C270.99,385.336 277.397,389.729 276.268,399.47C275.629,404.982 272.58,405.65 275.179,408.76C279.393,413.8 279.672,415.921 279.898,419.507Z" style="fill:rgb(129,45,34);"/>
                </g>
                <g transform="matrix(1.397183,0,0,1.397183,2216.037331,-340.15789)">
                    <path d="M255.116,445.456C254.958,449.369 254.75,452.04 252.595,455.562C248.202,462.741 238.494,459.672 236.41,460.094C233.377,460.709 233.146,465.736 228.139,470.077C225.278,472.557 218.805,476.254 212.577,475.067C208.912,474.368 206.154,472.587 205.652,472.263C202.295,470.095 201.407,469.654 198.578,471.607C198.285,471.809 190.181,478.917 180.481,474.542C172.314,470.859 171.821,462.837 164.652,466.789C164.603,466.816 155.004,472.888 148.389,466.619C145.203,463.6 146.02,459.279 140.506,459.608C136.723,459.834 133.915,460.81 131.253,456.645C128.829,452.852 129.548,446.547 121.472,447.165C117.156,447.496 115.098,447.868 110.46,444.549C104.206,440.074 104.688,428.099 95.55,430.663C94.149,431.056 87.661,434.284 83.737,429.325C80.228,424.891 86.575,416.188 76.49,413.541C72.837,412.581 66.216,411.63 68.175,403.424C69.057,399.729 70.053,398.659 68.35,395.586C67.946,394.856 64.196,389.911 68.063,385.165C70.79,381.817 74.185,382.673 74.818,378.547C74.909,377.953 74.597,370.054 83.506,369.628C87.646,369.43 91.646,372.11 94.037,369.144C95.581,367.229 98.378,360.272 107.528,362.38C113.313,363.713 114.288,364.493 117.789,359.706C129.588,343.572 135.346,356.489 140.352,353.277C144.07,350.891 145.37,344.952 154.613,348.187C158.276,349.47 158.756,349.289 161.204,346.265C162.476,344.693 167.848,336.753 178.306,344.76C182.471,347.949 183.276,347.613 187.408,344.38C195.113,338.35 203.904,342.253 206.486,343.528C213.164,346.828 214.981,351.348 218.517,350.601C221.07,350.062 228.091,346.314 231.556,352.465C233.233,355.441 233.833,357.312 237.514,356.57C237.792,356.514 247.05,352.87 250.501,362.5C251.869,366.315 250.243,369.387 255.471,370.617C259.458,371.555 263.721,372.977 263.983,378.489C264.098,380.924 262.165,384.183 265.849,387.09C267.526,388.413 267.68,388.243 269.002,389.905C273.318,395.333 270.519,401.419 270.103,402.325C267.966,406.971 267.081,407.703 270.615,411.389C272.261,413.107 278.838,419.697 271.671,424.756C270.123,425.849 267.241,426.648 267.08,430.471C266.892,434.963 267.82,438.774 259.432,441.258C255.554,442.407 255.764,443.013 255.116,445.456Z" style="fill:rgb(242,239,229);"/>
                </g>
                <g transform="matrix(1.397183,0,0,1.397183,2216.037331,-340.15789)">
                    <path d="M152.554,400.436C152.574,400.456 156.339,403.274 157.593,409.482C158.671,414.824 157.367,425.874 148.545,426.928C136.635,428.35 131.936,407.294 140.799,399.869C142.597,398.362 147.048,396.596 151.438,399.593C151.823,399.856 152.169,400.174 152.554,400.436Z" style="fill:rgb(129,45,34);"/>
                </g>
                <g transform="matrix(1.397183,0,0,1.397183,2216.037331,-340.15789)">
                    <path d="M207.596,416.365C207.437,416.234 207.294,416.084 207.135,415.953C199.701,409.874 199.765,394.897 207.684,390.849C217.053,386.059 225.338,398.447 223.595,407.516C221.208,419.932 212.467,419.564 207.596,416.365Z" style="fill:rgb(129,45,34);"/>
                </g>
                <g transform="matrix(1.397183,0,0,1.397183,2216.037331,-340.15789)">
                    <path d="M174.495,424.507C172.804,423.244 172.599,423.384 171.061,420.734C168.705,416.674 170.764,415.263 171.488,415.252C173.759,415.219 173.346,421.448 180.464,421.926C188.834,422.487 189.071,414.864 189.227,414.391C189.903,412.331 193.087,412.653 192.787,416.523C192.285,423.008 183.942,429.802 174.495,424.507Z" style="fill:rgb(129,45,34);"/>
                </g>
                <g transform="matrix(1.397183,0,0,1.397183,2216.037331,-340.15789)">
                    <path d="M191.965,359.987C192.561,359.546 193.924,358.165 196.52,357.604C200.829,356.672 201.467,359.028 203.764,356.806C207.531,353.162 214.018,354.339 216.724,359.373C216.889,359.681 219.3,364.166 216.43,363.731C215.045,363.521 215.033,357.617 209.516,357.308C206.332,357.131 205.422,358.905 204.97,359.678C204.401,360.651 204.622,361.007 203.508,361.135C203.215,361.169 199.001,358.877 195.602,360.691C193.13,362.011 192.309,363.613 191.63,365.556C191.563,365.749 190.856,367.769 189.667,367.196C188.676,366.719 189.207,364.656 189.262,364.44C189.926,361.864 190.301,362.048 191.965,359.987Z" style="fill:rgb(129,45,34);"/>
                </g>
                <g transform="matrix(1.397183,0,0,1.397183,2216.037331,-340.15789)">
                    <path d="M88.504,408.493C88.464,408.465 80.186,403.817 82.096,395.419C83.233,390.42 86.361,389.089 86.736,390.31C87.281,392.084 86.569,391.996 85.643,393.585C82.871,398.344 85.677,402.855 87.556,404.442C93.202,409.212 94.777,407.874 98.504,407.569C100.801,407.381 100.42,409.2 99.624,409.636C95.012,412.163 89.283,408.932 88.504,408.493Z" style="fill:rgb(129,45,34);"/>
                </g>
                <g transform="matrix(1.397183,0,0,1.397183,2216.037331,-340.15789)">
                    <path d="M255.261,384.46C254.875,386.101 254.773,388.359 251.851,390.901C251.651,391.075 249.851,392.64 248.745,392.053C248.541,391.945 247.884,390.898 248.923,389.926C249.713,389.187 249.811,389.321 250.554,388.552C254.293,384.681 253.642,375.851 246.634,373.179C245.914,372.904 243.645,372.395 243.547,371.491C243.156,367.913 256.298,371.642 255.369,383.486C255.343,383.812 255.287,384.135 255.261,384.46Z" style="fill:rgb(129,45,34);"/>
                </g>
                <g transform="matrix(1.397183,0,0,1.397183,2216.037331,-340.15789)">
                    <path d="M120.249,385.333C120.514,384.986 122.413,381.781 126.444,380.334C131.069,378.675 134.829,379.914 135.612,380.153C140.638,381.69 138.806,383.323 138.508,383.515C137.584,384.109 134.232,381.502 129.46,382.277C121.006,383.65 120.349,393.356 120.314,393.411C120.229,393.548 119.049,395.44 118.315,393.642C117.074,390.6 119.897,385.918 120.249,385.333Z" style="fill:rgb(129,45,34);"/>
                </g>
                <g transform="matrix(1.397183,0,0,1.397183,2216.037331,-340.15789)">
                    <path d="M123.45,438.872C125.753,438.917 125.801,439.139 128.415,438.231C130.256,437.591 131.24,437.734 130.692,439.595C130.229,441.171 120.824,443.937 114.892,437.183C110.728,432.442 111.674,423.333 114.378,425.633C115.441,426.537 112.995,431.338 117.221,435.775C119.853,438.539 122.858,438.745 123.45,438.872Z" style="fill:rgb(129,45,34);"/>
                </g>
                <g transform="matrix(1.397183,0,0,1.397183,2216.037331,-340.15789)">
                    <path d="M152.574,455.386C151.827,454.811 146.986,451.086 148.214,444.43C148.693,441.834 150.43,442.835 150.651,443.404C150.976,444.243 150.799,444.26 150.729,446.51C150.553,452.21 156.345,456.409 162.509,453.517C162.845,453.359 165.635,451.337 166.352,452.579C167.082,453.844 164.463,456.195 160.571,456.884C155.787,457.732 152.717,455.46 152.574,455.386Z" style="fill:rgb(129,45,34);"/>
                </g>
                <g transform="matrix(1.397183,0,0,1.397183,2216.037331,-340.15789)">
                    <path d="M253.31,430.56C253.619,432.135 255.22,439.001 248.839,443.965C248.348,444.347 245.005,446.947 241.494,446.533C240.178,446.377 240.112,445.739 240.098,445.606C239.977,444.428 240.214,444.351 241.359,444.089C242.613,443.802 249.427,443.922 250.884,435.559C251.725,430.731 249.143,429.063 249.867,427.708C250.075,427.318 251.495,426.711 252.468,428.522C253.052,429.608 253.292,430.518 253.31,430.56Z" style="fill:rgb(129,45,34);"/>
                </g>
                <g transform="matrix(1.397183,0,0,1.397183,2216.037331,-340.15789)">
                    <path d="M132.424,358.887C134.85,359.634 134.975,359.436 136.909,361.069C137.07,361.206 138.496,362.41 138.18,363.391C137.688,364.921 135.767,363.478 135.602,363.355C129.677,358.905 123.298,362.155 121.307,367.413C121.245,367.577 120.602,369.274 120.433,369.427C120.255,369.589 118.743,370.145 118.65,368.475C118.542,366.527 120.25,363.013 122.409,361.386C126.922,357.983 130.663,358.721 132.424,358.887Z" style="fill:rgb(129,45,34);"/>
                </g>
                <g transform="matrix(1.397183,0,0,1.397183,2216.037331,-340.15789)">
                    <path d="M216.171,458.461C216.064,458.845 215.095,465.214 208.497,467.491C202.119,469.692 196.77,465.791 196.708,464.489C196.611,462.432 199.466,464.019 199.675,464.135C204.689,466.923 208.283,465.161 210.544,463.554C212.249,462.343 213.079,459.795 213.201,459.421C213.85,457.429 213.8,457.421 214.036,457.068C215.093,455.489 216.129,456.771 216.206,457.55C216.236,457.852 216.141,458.159 216.171,458.461Z" style="fill:rgb(129,45,34);"/>
                </g>
                <g transform="matrix(1.397183,0,0,1.397183,2216.037331,-340.15789)">
                    <path d="M199.597,438.54C200.333,436.688 200.317,436.685 200.447,436.455C201.044,435.409 202.761,435.625 202.686,437.497C202.653,438.333 201.574,440.614 201.141,441.255C195.318,449.865 182.794,446.217 185.541,443.543C186.455,442.653 188.442,444.694 192.566,443.884C198.248,442.769 199.295,439.07 199.597,438.54Z" style="fill:rgb(129,45,34);"/>
                </g>
                <g transform="matrix(1.397183,0,0,1.397183,2216.037331,-340.15789)">
                    <path d="M230.606,416.558C232.789,413.331 233.512,415.22 233.57,415.466C233.937,417.022 231.2,419.55 232.402,423.533C233.147,426.002 233.564,425.757 235.255,427.704C236.278,428.88 235.723,429.502 235.62,429.619C235.197,430.094 233.093,429.78 231.52,427.484C227.862,422.146 230.052,418.011 230.606,416.558Z" style="fill:rgb(129,45,34);"/>
                </g>
                <g transform="matrix(1.397183,0,0,1.397183,2216.037331,-340.15789)">
                    <path d="M167.363,384.581C167.081,384.149 165.711,382.338 165.771,381.536C165.781,381.4 166.437,380.666 166.545,380.658C168.604,380.493 170.131,384.175 170.297,384.576C171.582,387.675 170.671,392.378 170.196,393.339C169.446,394.852 167.646,394.603 167.891,392.523C168.367,388.488 168.865,388.373 167.363,384.581Z" style="fill:rgb(129,45,34);"/>
                </g>
                <g transform="matrix(1.397183,0,0,1.397183,2216.037331,-340.15789)">
                    <path d="M94.435,375.185C93.866,375.382 93.546,375.248 92.257,376.074C89.276,377.985 89.525,375.494 89.957,374.775C91.528,372.155 100.443,371.509 99.274,374.398C98.964,375.162 97.649,375.121 97.496,375.117C96.839,375.096 96.186,374.984 95.529,374.998C95.159,375.007 94.805,375.177 94.435,375.185Z" style="fill:rgb(129,45,34);"/>
                </g>
                <g transform="matrix(1.387641,0,0,1.387641,-976.147253,-102.645295)">
                    <circle cx="2511.682" cy="230.595" r="4.221" style="fill:rgb(242,239,229);"/>
                </g>
                <g transform="matrix(1.387641,0,0,1.387641,-1068.005054,-89.794385)">
                    <circle cx="2511.682" cy="230.595" r="4.221" style="fill:rgb(242,239,229);"/>
                </g>
            </g>
        </g>
    </g>
</svg>
