<?xml version="1.0" encoding="UTF-8" standalone="no"?>
<!DOCTYPE svg PUBLIC "-//W3C//DTD SVG 1.1//EN" "http://www.w3.org/Graphics/SVG/1.1/DTD/svg11.dtd">
<svg width="100%" height="100%" viewBox="0 0 315 227" version="1.1" xmlns="http://www.w3.org/2000/svg" xmlns:xlink="http://www.w3.org/1999/xlink" xml:space="preserve" xmlns:serif="http://www.serif.com/" style="fill-rule:evenodd;clip-rule:evenodd;stroke-linejoin:round;stroke-miterlimit:2;">
    <g transform="matrix(1,0,0,1,-3640.071907,-365.927767)">
        <g transform="matrix(0.627301,0,0,1,2425.27341,3.791992)">
            <g id="Huevo" transform="matrix(1.594131,0,0,1,-1238.469795,-85.51391)">
                <g transform="matrix(1.296539,0,0,1.296539,1376.572052,-301.27023)">
                    <path d="M589.447,752.045C586.573,752.269 579.745,753.173 567.467,751.76C562.996,751.246 552.274,749.198 545.601,746.265C544.605,745.827 538.943,743.339 534.293,738.712C526.514,730.974 527.909,723.494 511.59,720.066C503.046,718.271 488,716.294 478.665,699.412C474.66,692.171 470.044,672.259 482.697,655.643C488.411,648.14 492.62,646.94 496.565,642.559C502.666,635.784 495.7,625.993 507.31,613.324C510.842,609.47 514.117,607.297 517.359,605.261C521.847,602.442 530.962,599.487 536.541,598.882C549.481,597.48 555.949,600.223 568.35,591.281C587.287,577.626 597.162,577.01 607.45,577.895C624.082,579.325 635.896,592.035 645.442,595.643C659.287,600.875 667.042,597.118 681.564,603.366C686.908,605.666 694.878,611.902 698.224,617.667C708.326,635.073 698.558,648.138 701.886,656.344C704.71,663.305 717.783,671.223 716.838,691.517C715.852,712.694 700.345,724.095 692.768,728.936C685.438,733.619 672.862,738.621 660.535,739.797C637.33,742.011 633.063,736.991 615.469,744.427C603.49,749.49 597.598,751.035 589.447,752.045Z" style="fill:rgb(129,45,34);"/>
                </g>
                <g transform="matrix(1.296539,0,0,1.296539,1376.572052,-301.27023)">
                    <path d="M480.128,671.408C480.537,669.866 480.54,669.887 481.019,668.35C484.863,656.019 492.707,652.859 498.376,647.374C508.758,637.331 498.89,628.349 512.141,615.129C525.56,601.742 542.95,603.206 550.516,602.69C565.596,601.661 571.581,593.699 583.409,587.337C591.173,583.16 596.883,581.793 604.516,582.061C614.454,582.409 624.42,588.118 627.603,590.343C631.824,593.295 631.831,593.262 636.219,595.971C651.926,605.669 659.435,601.783 673.54,605.345C678.812,606.676 686.482,610.397 691.649,616.375C701.689,627.991 698.216,640.557 697.363,645.478C695.046,658.851 700.857,663.058 705.364,668.608C709.636,673.869 712.742,682.377 712.56,689.501C712.275,700.681 707.093,712.68 694.314,722.247C690.966,724.754 683.862,728.704 680.347,730.122C662.836,737.188 648.313,735.78 636.497,735.673C619.61,735.519 616.623,739.899 602.525,744.576C581.609,751.515 553.998,746.321 543.353,739.748C533.657,733.762 533.547,728.288 528.608,723.392C520.087,714.947 509.74,715.659 502.579,713.241C500.123,712.412 488.007,708.4 482.434,696.531C476.299,683.468 479.945,672.241 480.128,671.408Z" style="fill:rgb(242,239,229);"/>
                </g>
                <g transform="matrix(1.296539,0,0,1.296539,1376.572052,-301.27023)">
                    <path d="M543.965,640.627C544.073,640.292 544.774,638.119 545.403,636.461C553.075,616.207 572.889,610.199 578.429,608.297C606.467,598.67 644.083,612.87 651.204,641.576C655.641,659.465 645.459,677.769 628.254,687.038C608.564,697.647 588.208,693.425 584.454,692.733C582.513,692.376 571.782,690.4 561.656,683.276C560.269,682.3 551.946,676.446 547.475,667.513C542.576,657.729 541.601,651.184 543.965,640.627Z" style="fill:rgb(129,45,34);"/>
                </g>
                <g transform="matrix(1.296539,0,0,1.296539,1376.572052,-301.27023)">
                    <path d="M647.796,648.498C647.369,675.819 621.876,688.139 603.509,689.619C590.049,690.705 573.807,687.314 561.595,677.38C561.414,677.233 542.894,664.444 548.397,641.476C548.878,639.47 552.253,626.806 567.638,617.743C587.018,606.327 610.52,608.952 623.719,616.097C624.556,616.55 646.639,626.494 647.796,648.498Z" style="fill:rgb(242,239,229);"/>
                </g>
                <g transform="matrix(1.296539,0,0,1.296539,1376.572052,-301.27023)">
                    <path d="M639.691,649.496C637.906,670.168 616.887,664.857 620.585,647.519C621.787,641.885 624.281,639.898 626.599,638.691C631.842,635.961 638.72,639.603 639.635,648.486C639.669,648.821 639.657,649.161 639.691,649.496Z" style="fill:rgb(129,45,34);"/>
                </g>
                <g transform="matrix(1.296539,0,0,1.296539,1376.572052,-301.27023)">
                    <path d="M577.488,657.487C576.805,658.061 573.729,661.212 568.568,659.332C559.185,655.913 561.035,635.48 572.506,635.372C580.133,635.301 585.295,648.781 577.488,657.487Z" style="fill:rgb(129,45,34);"/>
                </g>
                <g transform="matrix(1.296539,0,0,1.296539,1376.572052,-301.27023)">
                    <path d="M565.483,633.916C565.139,633.83 564.771,633.866 564.426,633.779C561.679,633.091 560.909,629.854 562.799,626.67C565.226,622.582 570.507,619.591 571.297,619.143C581.46,613.387 587.27,617.983 585.403,622.456C584.738,624.05 577.307,632.852 565.483,633.916Z" style="fill:rgb(129,45,34);"/>
                </g>
                <g transform="matrix(1.296539,0,0,1.296539,1376.572052,-301.27023)">
                    <path d="M568.604,630.932C568.302,630.982 565.467,631.447 564.778,631.015C564.511,630.847 562.923,628.208 569.298,623.239C574.244,619.384 581.974,617.242 583.134,620.543C583.395,621.284 581.996,623.703 579.396,625.365C576.933,626.938 575.254,628.979 568.604,630.932Z" style="fill:rgb(242,239,229);"/>
                </g>
                <g transform="matrix(1.296539,0,0,1.296539,1376.572052,-301.27023)">
                    <path d="M627.541,727.773C630.949,727.442 631.702,727.187 637.476,727.718C648.511,728.733 648.518,728.481 649.467,728.639C651.035,728.899 651.6,731.048 648.491,731.092C642.021,731.182 634.455,728.867 626.491,730.448C615.646,732.601 610.14,737.112 608.364,736.742C608.118,736.691 606.564,735.868 609.766,733.928C616.559,729.815 626.061,728.048 627.541,727.773Z" style="fill:rgb(129,45,34);"/>
                </g>
                <g transform="matrix(1.296539,0,0,1.296539,1376.572052,-301.27023)">
                    <path d="M545.388,687.594C550.617,693.309 554.561,694.758 558.366,696.785C562.167,698.81 568.588,700.032 568.7,701.477C568.829,703.149 566.677,702.628 566.484,702.582C563.926,701.963 551.479,697.628 544.556,690.444C539.471,685.167 535.952,675.93 539.396,676.807C540.578,677.107 540.91,681.35 543.68,685.37C544.48,686.53 544.501,686.5 545.388,687.594Z" style="fill:rgb(129,45,34);"/>
                </g>
                <g transform="matrix(1.296539,0,0,1.296539,1376.572052,-301.27023)">
                    <path d="M608.274,664.285C608.177,664.367 606.588,666.252 603.411,667.171C596.335,669.218 589.99,663.234 590.184,658.488C590.259,656.652 592.456,654.516 593.63,658.462C594.5,661.381 595.341,661.994 597.27,662.989C600.523,664.666 604.857,663.673 606.475,660.486C606.729,659.985 607.012,659.389 607.057,659.293C607.138,659.124 607.862,657.597 608.48,657.441C610.099,657.032 611.337,658.686 610.171,661.368C609.468,662.985 609.32,662.883 608.274,664.285Z" style="fill:rgb(129,45,34);"/>
                </g>
                <g transform="matrix(1.296539,0,0,1.296539,1376.572052,-301.27023)">
                    <path d="M543.338,728.693C543.426,728.764 544.44,729.579 544.44,729.579C552.358,736.059 563.705,737.35 565.494,737.553C566.176,737.631 568.453,737.675 569.675,738.349C570.166,738.62 570.4,740.252 568.487,740.343C568.133,740.36 563.025,739.873 559.584,739.107C543.922,735.621 537.41,726.048 536.829,725.272C534.354,721.968 536.259,721.786 536.539,721.781C538.026,721.755 537.497,723.062 542.283,727.728C542.803,728.235 542.808,728.208 543.338,728.693Z" style="fill:rgb(129,45,34);"/>
                </g>
                <g transform="matrix(1.296539,0,0,1.296539,1376.572052,-301.27023)">
                    <path d="M665.444,728.271C664.794,728.366 664.166,728.587 663.516,728.682C661.114,729.03 660.745,727.038 662.479,726.454C662.997,726.28 667.731,725.488 672.549,723.635C674.221,722.992 679.573,721.395 686.355,715.34C690.272,711.843 691.286,708.94 692.47,709.583C693.863,710.34 692.486,712.215 692.353,712.397C692.22,712.578 692.124,712.497 690.583,714.573C689.975,715.392 682.67,723.092 671.53,726.591C671.048,726.742 669.07,727.363 665.444,728.271Z" style="fill:rgb(129,45,34);"/>
                </g>
                <g transform="matrix(1.296539,0,0,1.296539,1376.572052,-301.27023)">
                    <path d="M487.435,693.536C487.369,693.405 483.93,687.466 484.449,678.497C484.689,674.361 486.227,675.394 486.455,675.564C487.391,676.261 486.754,679.091 486.912,681.466C488.046,698.574 499.5,701.722 499.763,703.435C499.8,703.673 500.185,706.183 496.807,704.014C490.594,700.025 488.046,694.571 487.435,693.536Z" style="fill:rgb(129,45,34);"/>
                </g>
                <g transform="matrix(1.296539,0,0,1.296539,1376.572052,-301.27023)">
                    <path d="M512.465,626.487C510.877,631.864 511.344,631.949 510.562,637.51C509.985,641.616 509.052,642.597 508.736,642.928C508.283,643.405 508.229,643.496 507.607,643.246C506.696,642.879 507.299,640.678 507.358,640.463C509.574,632.375 507.26,629.887 512.002,622.164C512.185,621.866 513.688,619.419 514.632,618.669C516.377,617.283 517.017,618.488 517.109,618.663C517.607,619.602 515.113,621.687 514.969,621.866C513.986,623.085 512.637,626.103 512.465,626.487Z" style="fill:rgb(129,45,34);"/>
                </g>
                <g transform="matrix(1.296539,0,0,1.296539,1376.572052,-301.27023)">
                    <path d="M703.829,689.552C705.655,674.335 698.366,673.461 700.552,671.568C701.59,670.671 702.965,672.608 703.096,672.792C709.956,682.452 705.1,699.824 702.656,695.431C702.122,694.472 702.893,694.465 703.829,689.552Z" style="fill:rgb(129,45,34);"/>
                </g>
                <g transform="matrix(1.296539,0,0,1.296539,1376.572052,-301.27023)">
                    <path d="M654.491,713.141C654.341,713.132 652.613,713.025 652.613,713.025C652.449,712.975 651.069,712.559 651.177,711.421C651.341,709.679 655.615,711.684 661.343,709.148C666.284,706.961 667.141,703.338 668.557,702.833C668.837,702.733 669.596,703.13 669.668,703.397C669.754,703.712 670.059,704.841 668.093,707.16C667.522,707.832 664.664,711.202 658.542,712.653C657.191,712.974 657.193,712.885 654.491,713.141Z" style="fill:rgb(129,45,34);"/>
                </g>
                <g transform="matrix(1.296539,0,0,1.296539,1376.572052,-301.27023)">
                    <path d="M517.581,711.198C510.315,709.188 510.179,709.566 508.426,708.578C507.578,708.1 507.392,706.427 509.5,706.527C509.913,706.546 517.394,708.389 518.388,708.792C521.865,710.2 520.017,711.537 519.524,711.597C519.524,711.597 517.737,711.23 517.581,711.198Z" style="fill:rgb(129,45,34);"/>
                </g>
                <g transform="matrix(1.057322,0,0,1.057322,-127.154235,-45.401653)">
                    <circle cx="2191.797" cy="549.492" r="4.342" style="fill:rgb(242,239,229);"/>
                </g>
                <g transform="matrix(1.057322,0,0,1.057322,-202.367049,-47.150421)">
                    <circle cx="2191.797" cy="549.492" r="4.342" style="fill:rgb(242,239,229);"/>
                </g>
            </g>
        </g>
    </g>
</svg>
