<?xml version="1.0" encoding="UTF-8" standalone="no"?>
<!DOCTYPE svg PUBLIC "-//W3C//DTD SVG 1.1//EN" "http://www.w3.org/Graphics/SVG/1.1/DTD/svg11.dtd">
<svg width="100%" height="100%" viewBox="0 0 235 290" version="1.1" xmlns="http://www.w3.org/2000/svg" xmlns:xlink="http://www.w3.org/1999/xlink" xml:space="preserve" xmlns:serif="http://www.serif.com/" style="fill-rule:evenodd;clip-rule:evenodd;stroke-linejoin:round;stroke-miterlimit:2;">
    <g transform="matrix(1,0,0,1,-3682.601505,-638.966808)">
        <g transform="matrix(0.627301,0,0,1,2425.27341,3.791992)">
            <g id="Papa" transform="matrix(1.594131,0,0,1,-2212.269415,575.604815)">
                <g transform="matrix(1.125,0,0,1.125,2206.50758,-251.911463)">
                    <path d="M465.593,343.465C465.89,343.646 467.004,344.424 467.238,344.293C467.816,343.971 466.808,343.101 470.444,331.482C472.022,326.44 473.799,328.259 475.466,327.424C476.349,326.981 476.4,325.667 476.407,325.495C476.563,321.464 476.075,283.543 476.497,281.499C477.064,278.749 477.908,278.582 490.488,277.362C498.526,276.582 499.041,276.553 501.389,278.628C509.35,285.664 509.996,285.938 510.088,289.517C510.241,295.452 509.11,309.477 508.858,313.522C508.639,317.034 506.979,323.527 509.52,322.543C509.725,322.464 509.747,322.166 509.866,321.98C511.477,319.461 509.902,313.478 515.497,313.627C519.636,313.737 525.165,315.484 526.36,314.364C527.623,313.18 527.722,301.755 528.907,299.699C530.574,296.806 532.195,296.985 546.505,297.216C552.01,297.304 552.58,296.634 556.339,300.642C564.162,308.983 565.05,309.077 564.41,313.488C564.391,313.618 563.709,316.246 564.415,317.566C565.194,319.024 575.337,320.8 576.515,323.493C577.716,326.236 575.507,332.598 575.613,333.483C575.776,334.844 577.302,334.369 577.457,334.321C579.558,333.666 579.485,333.495 581.609,332.863C587.46,331.125 588.28,331.079 592.021,335.889C597.535,342.98 597.788,343.817 598.033,344.629C598.612,346.542 595.508,352.134 592.61,358.552C590.768,362.63 590.563,362.51 588.786,366.625C585.672,373.838 585.658,373.823 585.396,374.454C583.673,378.599 583.394,378.476 577.795,392.621C575.279,398.98 573.946,400.875 575.426,401.609C577.579,402.676 582.379,401.924 581.849,408.53C581.203,416.587 566.787,504.227 565.617,509.526C564.225,515.83 562.204,516.185 554.626,520.727C540.898,528.955 507.818,538.404 473.473,532.657C447.299,528.277 434.004,519.787 432.332,515.578C430.148,510.078 428.658,499.031 423.532,478.492C422.865,475.816 415.872,444.52 415.212,441.564C412.874,431.1 410.637,419.937 409.531,415.493C408.238,410.295 407.866,407.426 411.468,406.392C412.311,406.15 412.363,406.278 412.824,405.856C414.001,404.78 412.894,403.229 410.867,399.312C408.997,395.697 408.938,395.742 393.088,367.733C390.571,363.285 388.021,361.447 391.67,356.624C392.352,355.723 398.805,347.194 400.684,345.75C402.876,344.065 412.004,346.773 413.303,345.324C414.144,344.386 413.059,341.204 409.784,327.434C408.204,320.793 408.313,319.797 414.591,315.633C419.944,312.083 420.729,310.494 425.534,312.418C427.831,313.339 428.229,313.689 429.843,311.802C430.577,310.942 430.88,310.588 440.808,302.881C447.126,297.977 448.736,298.037 449.533,298.067C450.241,298.093 462.68,301.06 464.228,301.997C467.399,303.916 466.332,305.314 466.074,326.491C465.913,339.674 465.662,339.729 465.593,343.465Z" style="fill:rgb(129,45,34);"/>
                </g>
                <g transform="matrix(1.125,0,0,1.125,2206.50758,-251.911463)">
                    <path d="M516.428,528.073C489.237,532.412 471.726,527.651 461.569,525.235C457.904,524.363 457.653,524.017 457.015,521.649C455.65,516.583 455.737,516.585 454.57,511.479C454.53,511.304 454.143,509.612 453.497,509.508C452.426,509.335 452.198,510.193 452.166,510.313C451.568,512.557 454.457,521.498 454.094,522.29C453.733,523.078 452.588,522.742 452.459,522.704C451.865,522.53 438.493,516.411 436.765,514.28C435.538,512.766 435.905,511.049 432.412,496.521C428.848,481.697 426.818,470.016 423.416,456.521C422.08,451.225 420.803,444.097 414.778,417.439C414.69,417.05 413.849,413.33 413.9,412.52C413.997,410.959 416.265,410.684 416.521,410.653C420.625,410.156 420.616,410.219 434.465,409.009C436.401,408.839 437.05,408.625 437.243,410.557C438.129,419.434 438.139,424.514 439.562,434.491C439.84,436.437 444.561,476.681 449.963,500.386C450.022,500.645 450.855,504.3 452.512,502.51C453.539,501.401 448.773,485.176 446.131,463.54C445.945,462.024 440.563,424.13 439.774,410.511C439.588,407.3 441.684,408.828 441.867,409.038C443.508,410.915 442.272,413.419 449.143,422.763C450.392,424.462 451.913,427.139 458.257,432.776C465.576,439.279 483.192,448.795 504.552,445.904C519.975,443.817 523.966,440.146 529.522,436.532C531.038,435.545 535.891,431.377 539.403,427.415C545.465,420.577 547.736,414.624 548.209,413.385C549.769,409.295 550.037,406.737 551.508,406.698C552.708,406.667 552.735,408.289 552.738,408.461C552.76,409.83 552.101,428.36 551.044,440.451C550.586,445.678 549.855,450.308 551.501,450.495C552.794,450.643 553.094,448.645 553.125,448.438C553.127,448.426 554.557,431.569 554.84,423.511C555.397,407.65 555.164,407.45 555.783,406.902C556.495,406.272 557.482,406.304 573.497,406.71C576.416,406.784 577.562,406.882 577.012,410.423C576.189,415.72 570.779,449.092 570.234,452.454C568.02,466.115 561.052,509.386 560.602,510.541C559.95,512.215 556.722,514.309 546.44,519.372C545.781,519.697 545.18,520.161 544.478,520.377C544.249,520.448 542.831,520.884 543.601,517.517C543.675,517.191 545.615,507.424 545.627,506.496C545.652,504.521 543.744,503.584 543.055,506.351C542.617,508.109 541.008,516.673 540.839,517.573C540.166,521.156 540.883,522.104 537.404,523.199C533.948,524.286 523.687,526.728 516.428,528.073Z" style="fill:rgb(242,239,229);"/>
                </g>
                <g transform="matrix(1.125,0,0,1.125,2206.50758,-251.911463)">
                    <path d="M527.915,343.555C528.904,335.529 528.958,335.559 529.89,327.542C531.174,316.497 530.988,316.495 532.21,305.429C532.228,305.264 532.426,303.47 533.465,303.764C534.029,303.923 535.022,304.836 535.143,304.948C537.785,307.378 539.97,308.734 541.236,309.815C543.512,311.758 542.669,312.362 541.98,318.553C538.367,351.004 532.488,383.938 532.793,386.44C532.974,387.925 534.43,387.693 534.56,387.61C535.443,387.044 535.842,383.099 536.929,375.556C545.154,318.481 544.461,318.394 545.239,313.442C545.42,312.292 545.505,312.236 546.598,311.803C546.702,311.762 548.758,311.615 551.501,311.619C552.057,311.62 558.08,311.629 558.45,311.677C560.882,311.989 559.798,313.29 557.627,325.523C554.373,343.866 554.069,348.56 552.6,356.518C550.348,368.719 546.783,395.827 545.744,402.538C543.86,414.717 540.723,419.045 530.554,429.562C530.408,429.714 526.819,433.425 528.157,428.462C528.968,425.451 529.04,424.479 529.897,419.57C530.219,417.728 533.734,397.588 533.573,396.482C533.245,394.233 531.695,395.454 531.556,395.564C530.63,396.293 528.941,412.472 525.708,427.546C524.444,433.441 525.028,434.159 521.317,436.147C518.151,437.843 516.116,439.081 516.341,435.501C516.779,428.506 517.027,424.969 518.392,417.482C520.031,408.488 520.131,408.524 521.439,399.492C524.781,376.426 524.786,367.285 527.915,343.555Z" style="fill:rgb(242,239,229);"/>
                </g>
                <g transform="matrix(1.125,0,0,1.125,2206.50758,-251.911463)">
                    <path d="M463.957,389.449C467.565,421.417 469.495,425.709 471.358,433.506C471.435,433.825 471.571,434.182 471.465,434.492C471.343,434.846 471.056,435.262 470.5,435.327C469.552,435.437 463.282,430.687 461.639,429.324C453.742,422.775 454.878,421.678 453.449,411.509C448.491,376.233 450.311,369.59 448.323,368.97C446.491,368.399 446.623,371.253 446.635,371.495C446.798,375.013 448.461,394.012 449.308,400.526C450.753,411.636 450.984,411.582 451.452,414.497C451.475,414.642 451.698,416.029 451.387,416.331C450.697,417.001 450.386,417.048 449.951,416.177C449.528,415.331 445.846,405.608 444.465,404.543C442.86,403.306 439.959,404.535 439.293,401.556C439.093,400.66 434.904,375.692 434.061,341.513C433.569,321.582 433.504,320.343 433.409,318.504C433.198,314.436 435.286,315.954 437.467,316.608C443.107,318.3 444.642,318.127 444.772,320.48C444.928,323.28 444.437,326.042 445.777,354.485C445.872,356.491 445.862,356.471 445.942,358.481C445.952,358.727 446.067,361.606 447.472,361.15C448.56,360.797 448.556,360.653 448.684,359.528C448.847,358.095 448.48,358.11 448.032,341.512C447.789,332.487 447.687,332.511 447.444,323.503C447.333,319.399 447.152,318.842 448.562,317.57C449.109,317.077 449.2,317.211 455.818,311.896C456.183,311.603 460.116,308.444 460.481,308.367C461.558,308.14 461.799,308.301 461.856,309.403C461.904,310.322 460.731,323.276 461.815,359.492C462.302,375.77 462.917,377.98 463.957,389.449Z" style="fill:rgb(242,239,229);"/>
                </g>
                <g transform="matrix(1.125,0,0,1.125,2206.50758,-251.911463)">
                    <path d="M513.062,420.481C512.983,421.761 513.018,421.743 512.236,436.484C512.091,439.21 512.065,440.1 507.573,440.854C506.612,441.015 496.659,442.686 495.42,441.612C494.413,440.738 495.381,440.398 498.072,378.484C498.255,374.294 498.467,353.541 497.917,343.487C497.887,342.957 497.578,340.659 498.366,339.379C499.041,338.283 512.118,335.693 512.479,335.701C513.772,335.73 513.889,337.265 513.903,337.444C514.136,340.488 514.263,356.816 514.276,358.501C514.296,360.98 514.344,367.112 514.048,389.493C513.965,395.769 513.153,418.003 513.062,420.481Z" style="fill:rgb(242,239,229);"/>
                </g>
                <g transform="matrix(1.125,0,0,1.125,2206.50758,-251.911463)">
                    <path d="M552.053,392.371C554.606,383.406 561.682,365.176 562,364.317C565.403,355.132 565.243,355.087 570.062,343.316C571.483,339.847 572.421,340.601 578.484,338.453C580.144,337.865 584.643,335.455 582.607,339.542C578.624,347.538 564.246,381.393 564.235,381.455C563.825,383.722 565.521,383.832 566.256,383.21C567.141,382.46 573.211,367.961 573.774,366.616C574.893,363.944 574.872,363.941 574.973,363.711C585.027,340.703 584.871,340.639 585.76,338.645C586.258,337.53 586.313,337.211 587.486,337.529C588.033,337.678 587.909,337.847 588.824,339.266C589.907,340.945 591.551,342.939 591.805,343.246C594.134,346.068 593.177,346.543 590.726,351.61C583.982,365.552 580.246,374.444 579.399,376.458C570.109,398.567 570.753,398.849 569.667,400.629C569.325,401.189 568.926,401.843 561.505,401.452C560.659,401.407 560.562,401.476 560.116,400.764C559.357,399.553 563.977,391.611 562.55,390.445C561.324,389.443 560.463,391.247 560.381,391.419C558.402,395.567 557.21,400.067 556.67,400.683C555.707,401.782 551.294,401.424 550.804,401.074C549.758,400.326 550.905,396.57 552.053,392.371Z" style="fill:rgb(242,239,229);"/>
                </g>
                <g transform="matrix(1.125,0,0,1.125,2206.50758,-251.911463)">
                    <path d="M488.059,365.509C487.796,359.498 487.936,359.509 487.708,353.495C487.043,336.03 486.777,336.056 486.755,334.538C486.753,334.428 486.738,333.395 487.431,333.341C487.959,333.301 488.062,333.208 491.254,335.794C495.192,338.986 494.906,339.462 495.051,344.526C495.786,370.181 494.441,394.702 493.536,413.501C492.231,440.616 492.433,440.961 491.477,441.448C490.866,441.759 487.723,441.458 487.306,440.667C486.52,439.18 486.982,439.077 487.253,432.491C488.367,405.42 488.1,370.867 488.059,365.509Z" style="fill:rgb(242,239,229);"/>
                </g>
                <g transform="matrix(1.125,0,0,1.125,2206.50758,-251.911463)">
                    <path d="M466.81,360.605C467.994,357.074 473.728,340.155 473.728,340.155C473.728,340.155 473.788,341.54 474.327,349.512C476.726,384.993 476.31,385.003 478.635,420.491C479.667,436.228 479.901,436.199 479.882,437.569C479.864,438.816 479.666,439.045 478.426,438.925C477.468,438.832 476.87,437.516 476.795,437.351C476.201,436.045 469.88,407.323 467.872,382.47C466.381,364.022 465.693,363.937 466.81,360.605Z" style="fill:rgb(242,239,229);"/>
                </g>
                <g transform="matrix(1.125,0,0,1.125,2206.50758,-251.911463)">
                    <path d="M505.156,301.484C504.834,310.975 504.414,315.115 504.217,318.481C504.122,320.12 504.429,320.18 503.731,321.653C503.11,322.965 499.836,322.827 493.444,324.239C490.499,324.889 489.147,325.549 489.113,322.527C489.11,322.251 489.575,293.007 489.899,291.643C490.235,290.23 492.763,289.789 501.488,289.262C504.556,289.076 505.917,288.436 505.824,291.504C505.73,294.599 505.52,294.571 505.156,301.484Z" style="fill:rgb(242,239,229);"/>
                </g>
                <g transform="matrix(1.125,0,0,1.125,2206.50758,-251.911463)">
                    <path d="M415.788,399.349C414.974,397.698 413.455,395.001 412.632,393.431C408.683,385.897 408.477,386.027 404.347,378.585C400.674,371.969 398.707,368.995 397.378,366.569C396.224,364.46 395.168,363.13 396.234,362.211C396.736,361.778 396.803,361.879 404.502,361.597C406.137,361.537 406.292,361.386 407.411,362.582C408.424,363.665 428.334,401.053 428.402,403.481C428.428,404.444 428.146,404.864 421.486,405.252C418.616,405.419 418.638,404.68 415.788,399.349Z" style="fill:rgb(242,239,229);"/>
                </g>
                <g transform="matrix(1.125,0,0,1.125,2206.50758,-251.911463)">
                    <path d="M483.574,435.518C483.562,435.881 482.872,435.871 482.519,435.786C481.361,435.507 481.886,434.927 480.664,413.485C480.459,409.888 478.949,383.385 478.187,368.517C477.683,358.692 476.344,340.899 476.167,339.529C476.106,339.059 475.486,334.268 475.778,333.616C476.164,332.756 477.344,332.753 477.498,332.753C482.156,332.742 482.586,333.993 482.729,334.408C483.051,335.346 484.113,368.682 483.79,398.503C483.526,422.917 483.786,429.304 483.574,435.518Z" style="fill:rgb(242,239,229);"/>
                </g>
                <g transform="matrix(1.125,0,0,1.125,2206.50758,-251.911463)">
                    <path d="M427.288,346.538C430.743,362.427 429.941,366.85 431.755,374.526C432.104,376.006 432.28,376.008 432.075,376.397C431.984,376.57 431.67,376.404 431.497,376.495C431.235,376.635 431.111,377.063 430.815,377.066C430.709,377.067 430.868,376.947 430.256,375.877C430.137,375.668 429.912,375.526 429.812,375.307C429.24,374.051 429.225,372.278 424.845,364.313C419.373,354.363 420.236,354.004 418.473,345.505C414.018,324.028 412.527,323.529 414.552,321.558C414.815,321.302 419.186,318.177 419.275,318.103C421.702,316.091 421.785,319.593 421.938,320.399C422.303,322.328 424.444,333.636 426.769,344.45C426.996,345.505 427.026,345.485 427.288,346.538Z" style="fill:rgb(242,239,229);"/>
                </g>
                <g transform="matrix(1.125,0,0,1.125,2206.50758,-251.911463)">
                    <path d="M471.503,487.877C470.739,487.785 467.256,488.056 464.138,483.745C460.407,478.584 461.656,465.274 470.514,463.568C480.837,461.581 485.315,478.986 476.276,486.214C475.636,486.726 474.566,487.217 474.409,487.288C473.17,487.856 473.13,487.661 471.503,487.877Z" style="fill:rgb(129,45,34);"/>
                </g>
                <g transform="matrix(1.125,0,0,1.125,2206.50758,-251.911463)">
                    <path d="M432.14,389.66C432.508,390.571 434.993,396.726 435.317,401.512C435.544,404.869 432.313,404.242 431.556,403.439C431.181,403.042 425.487,390.006 415.772,372.343C413.289,367.827 412.847,366.923 412.611,366.442C410.211,361.534 408.549,361.46 410.297,358.382C410.376,358.244 412.152,355.48 412.572,354.546C412.655,354.361 413.4,352.702 414.339,352.726C414.559,352.731 415.204,354.459 415.263,354.617C415.626,355.589 415.72,355.839 420.99,366.246C423.526,371.254 423.509,371.246 425.962,376.292C429.181,382.916 428.924,383.02 432.14,389.66Z" style="fill:rgb(242,239,229);"/>
                </g>
                <g transform="matrix(1.125,0,0,1.125,2206.50758,-251.911463)">
                    <path d="M518.612,357.498C518.6,355.735 518.508,342.466 517.931,335.465C517.536,330.663 514.248,329.495 513.694,327.432C513.282,325.9 514.568,319.693 515.005,319.123C515.788,318.102 516.329,318.23 520.434,318.9C524.912,319.631 525.849,319.718 526.05,321.508C526.07,321.688 523.358,345.928 523.158,347.459C520.772,365.777 519.535,388.24 519.146,389.357C519.019,389.722 518.713,390.027 518.384,390.231C516.275,391.538 518.499,381.497 518.612,357.498Z" style="fill:rgb(242,239,229);"/>
                </g>
                <g transform="matrix(1.125,0,0,1.125,2206.50758,-251.911463)">
                    <path d="M559.925,339.582C562.353,326.621 562.194,326.606 562.423,325.484C563.071,322.318 564.38,323.345 569.493,324.529C572.792,325.294 572.56,326.247 571.877,329.573C570.734,335.136 571.734,336.024 568.541,337.581C566.004,338.817 565.964,341.258 560.417,355.466C558.375,360.696 556.575,368.56 556.008,369.057C555.963,369.097 554.928,369.156 554.889,369.123C554.221,368.554 554.857,365.801 554.922,365.521C557.897,352.648 557.694,352.626 559.925,339.582Z" style="fill:rgb(242,239,229);"/>
                </g>
                <g transform="matrix(1.125,0,0,1.125,2206.50758,-251.911463)">
                    <path d="M480.934,301.5C480.872,292.111 480.816,292.133 480.772,287.527C480.77,287.381 480.755,285.766 481.655,285.922C482.26,286.027 483.476,287.234 483.615,287.372C485.716,289.457 487.115,289.777 487.022,292.497C486.493,308.002 486.864,307.992 486.299,323.486C486.204,326.094 485.327,325.696 483.545,327.556C482.142,329.021 481.183,328.605 481.096,326.576C481.025,324.926 480.941,303.506 480.934,301.5Z" style="fill:rgb(242,239,229);"/>
                </g>
                <g transform="matrix(1.125,0,0,1.125,2206.50758,-251.911463)">
                    <path d="M447.614,303.647C448.218,303.318 448.111,303.196 448.706,302.872C448.766,302.839 449.053,302.683 449.523,302.606C450.173,302.5 450.594,302.431 457.564,304.352C459.356,304.846 459.368,305.727 457.875,306.84C454.227,309.559 447.243,315.812 445.456,316.002C444.803,316.071 439.153,314.334 438.611,314.168C437.577,313.85 435.014,313.255 437.374,311.373C438.177,310.733 438.211,310.808 447.614,303.647Z" style="fill:rgb(242,239,229);"/>
                </g>
                <g transform="matrix(1.125,0,0,1.125,2206.50758,-251.911463)">
                    <path d="M497.579,327.903C505.262,326.386 505.843,326.192 507.771,328.257C509.755,330.381 512.462,332.793 509.499,333.497C505.947,334.341 505.942,334.258 502.402,335.11C498.271,336.105 497.894,337.073 494.451,334.567C490.042,331.36 489.921,330.982 489.769,330.51C489.387,329.316 492.393,329.055 497.579,327.903Z" style="fill:rgb(242,239,229);"/>
                </g>
                <g transform="matrix(1.125,0,0,1.125,2206.50758,-251.911463)">
                    <path d="M532.532,471.873C531.857,471.972 527.604,472.377 525.031,474.233C525.031,474.233 524.273,474.762 524.644,475.423C525.244,476.491 531.892,474.777 535.748,479.32C536.939,480.723 536.424,483.768 532.72,481.188C525.354,476.056 519.532,481.005 517.498,480.505C513.939,479.629 519.93,470.677 530.519,468.592C536.287,467.455 536.118,470.507 535.282,471.262C534.355,472.1 534.192,471.682 532.532,471.873Z" style="fill:rgb(129,45,34);"/>
                </g>
                <g transform="matrix(1.125,0,0,1.125,2206.50758,-251.911463)">
                    <path d="M557.242,308.506C556.891,308.635 556.635,308.961 556.284,309.089C556.005,309.191 554.644,309.098 554.501,309.089C546.455,308.54 545.788,309.707 543.302,307.77C542.852,307.42 538.718,304.199 537.776,303.272C536.902,302.41 536.437,302.16 537.379,301.367C537.699,301.097 540.258,301.27 540.508,301.287C548.43,301.823 550.161,300.834 552.639,303.358C556.663,307.457 556.826,307.313 557.062,307.752C557.184,307.98 557.12,308.278 557.242,308.506Z" style="fill:rgb(242,239,229);"/>
                </g>
                <g transform="matrix(1.125,0,0,1.125,2206.50758,-251.911463)">
                    <path d="M551.884,462.541C550.723,472.02 550.828,474.918 547.835,493.553C547.791,493.829 547.327,496.715 546.633,496.838C545.405,497.054 545.214,496.847 545.046,495.62C544.707,493.138 545.841,493.215 548.958,464.548C549.256,461.809 549.496,459.402 550.414,459.24C551.548,459.04 551.723,459.211 551.941,460.34C551.975,460.513 551.937,460.503 551.884,462.541Z" style="fill:rgb(129,45,34);"/>
                </g>
                <g transform="matrix(1.125,0,0,1.125,2206.50758,-251.911463)">
                    <path d="M400.566,352.548C401.013,351.975 401.393,351.351 401.84,350.777C403.153,349.095 405.007,349.423 409.467,349.745C409.625,349.757 411.011,349.857 411.235,350.623C411.38,351.118 411.53,351.631 408.298,356.363C406.306,359.279 405.654,358.474 399.472,359.002C399.212,359.025 395.645,359.33 396.557,357.522C396.882,356.879 397.449,356.391 397.911,355.838C399.267,354.212 399.274,354.244 400.566,352.548Z" style="fill:rgb(242,239,229);"/>
                </g>
                <g transform="matrix(1.125,0,0,1.125,2206.50758,-251.911463)">
                    <path d="M497.563,487.261C497.972,487.318 499.21,487.788 501.45,487.285C506.817,486.081 506.04,481.303 507.625,480.84C508.853,480.482 510.301,481.747 509.243,484.401C505.714,493.25 493.004,493.11 490.03,484.666C489.932,484.389 488.496,480.311 491.577,481.336C492.202,481.544 493.018,483.672 493.495,484.503C494.656,486.524 497.146,487.092 497.563,487.261Z" style="fill:rgb(129,45,34);"/>
                </g>
                <g transform="matrix(1.125,0,0,1.125,2206.50758,-251.911463)">
                    <path d="M495.487,281.153C496.717,281.266 497.365,280.772 499.41,282.597C499.579,282.747 501.358,284.334 501.478,284.515C501.559,284.638 502.295,285.751 501.413,286.355C501.153,286.533 499.853,286.409 496.523,286.708C489.596,287.33 489.192,288.63 486.544,286.444C486.182,286.145 485.852,285.81 485.489,285.512C484.932,285.055 481.025,282.47 485.429,282.142C490.488,281.766 490.446,281.566 495.487,281.153Z" style="fill:rgb(242,239,229);"/>
                </g>
                <g transform="matrix(1.125,0,0,1.125,2206.50758,-251.911463)">
                    <path d="M429.869,340.569C429.869,340.569 429.042,341.146 428.561,341.229C427.961,341.333 426.855,332.078 426.214,328.556C424.302,318.051 424.146,317.942 424.522,317.519C425.614,316.288 428.021,318.557 428.25,318.773C429.507,319.958 428.884,320.267 429.188,329.503C429.194,329.693 429.869,340.569 429.869,340.569Z" style="fill:rgb(242,239,229);"/>
                </g>
                <g transform="matrix(1.164728,0,0,1.164728,-471.570819,-78.319384)">
                    <circle cx="2753.54" cy="306.007" r="3.545" style="fill:rgb(242,239,229);"/>
                </g>
            </g>
        </g>
    </g>
</svg>
