<?xml version="1.0" encoding="UTF-8" standalone="no"?>
<!DOCTYPE svg PUBLIC "-//W3C//DTD SVG 1.1//EN" "http://www.w3.org/Graphics/SVG/1.1/DTD/svg11.dtd">
<svg width="100%" height="100%" viewBox="0 0 329 199" version="1.1" xmlns="http://www.w3.org/2000/svg" xmlns:xlink="http://www.w3.org/1999/xlink" xml:space="preserve" xmlns:serif="http://www.serif.com/" style="fill-rule:evenodd;clip-rule:evenodd;stroke-linejoin:round;stroke-miterlimit:2;">
    <g transform="matrix(1,0,0,1,-4023.872905,-93.583841)">
        <g transform="matrix(0.627301,0,0,1,2425.27341,3.791992)">
            <g id="Pupusa" transform="matrix(1.594131,0,0,1,-521.676454,-37.118632)">
                <g transform="matrix(1.315615,0,0,1.315615,1420.359208,26.163953)">
                    <path d="M472.412,223.963C450.769,219.904 430.489,211.794 423.36,207.756C415.595,203.357 415.31,203.842 407.164,197.986C379.209,177.892 382.529,152.902 387.755,144.654C389.277,142.253 388.541,142.03 389.129,136.452C390.475,123.662 402.971,113.2 403.603,112.613C404.947,111.362 410.307,106.374 422.725,99.919C439.288,91.308 457.065,81.352 487.515,77.63C506.416,75.32 527.784,77.224 538.521,79.389C562.93,84.311 567.437,86.804 580.544,92.404C587.155,95.229 602.757,104.189 610.68,111.292C621.844,121.3 624.119,126.084 626.718,134.432C628.863,141.326 631.485,141.981 633.113,148.598C638.248,169.476 624.941,185.185 619.373,191.389C618.463,192.402 613.247,198.213 606.551,202.578C585.37,216.385 564.599,220.584 551.467,223.347C522.072,229.531 491.508,227.933 472.412,223.963Z" style="fill:rgb(129,44,33);"/>
                </g>
                <g transform="matrix(1.315615,0,0,1.315615,1420.359208,26.163953)">
                    <path d="M623.825,144.505C622.917,156.164 615.962,163.157 611.495,167.495C605.238,173.573 581.22,190.855 545.432,197.113C516.275,202.211 497.609,198.884 476.463,195.746C438.888,190.172 435.023,186.12 425.237,179.9C412.911,172.066 403.597,164.962 397.258,154.644C395.926,152.477 391.632,143.394 394.285,134.44C396.177,128.053 398.412,124.778 403.435,119.439C411.337,111.042 419.962,107.122 427.3,103.12C432.135,100.483 445.736,93.853 449.46,92.404C453.025,91.017 480.191,79.405 514.499,81.515C525.692,82.203 544.544,83.571 569.347,92.902C575.483,95.211 595.06,104.361 605.245,112.818C609.84,116.634 620.124,123.983 622.817,137.43C624.007,143.367 623.776,143.392 623.825,144.505Z" style="fill:rgb(242,239,229);"/>
                </g>
                <g transform="matrix(1.315615,0,0,1.315615,1420.359208,26.163953)">
                    <path d="M389.804,149.926C390.052,150.062 390.322,150.154 390.57,150.29C391.751,150.94 390.99,151.506 393.848,156.322C395.178,158.563 393.556,159.561 393.587,162.499C393.659,169.373 400.86,171.145 401.525,171.452C404.693,172.919 402.252,178.135 407.122,181.962C412.649,186.304 418.396,182.211 419.602,181.875C422.244,181.14 422.644,184.542 437.63,191.215C450.143,196.787 465.426,197.053 476.437,199.776C479.761,200.598 478.907,201.812 480.718,204.349C484.465,209.596 490.372,207.611 491.496,207.465C495.734,206.912 497.174,211.71 502.51,212.42C511.247,213.585 514.022,205.099 515.362,204.312C516.815,203.459 518.976,203.638 519.501,203.628C541.079,203.218 549.032,200.195 556.564,198.853C559.798,198.276 559.831,200.972 563.488,202.528C572.278,206.267 577.126,198.535 577.827,197.779C582.251,193.01 588.78,197.082 593.596,191.584C596.48,188.291 595.204,185.531 596.415,183.436C597.008,182.41 602.287,179.879 608.343,175.285C612.007,172.506 612.37,173.311 614.49,173.596C617.604,174.015 622.54,172.27 623.91,167.616C625.501,162.211 622.375,161.695 624.272,157.387C628.051,148.807 626.336,148.296 626.826,147.658C626.967,147.474 627.304,147.633 627.508,147.524C627.766,147.385 627.87,146.94 628.162,146.94C628.662,146.938 631.27,157.583 628.286,167.434C627.829,168.944 625.544,176.49 618.736,184.691C607.533,198.189 593.074,205.161 582.509,209.523C578.154,211.321 564.614,215.504 558.612,216.954C554.737,217.889 533.486,223.2 505.5,222.904C476.938,222.603 448.743,212.94 446.596,212.225C433.104,207.729 421.19,201.237 419.608,200.315C403.851,191.14 387.839,177.888 388.742,156.51C389.002,150.367 389.689,150.202 389.804,149.926Z" style="fill:rgb(242,239,229);"/>
                </g>
                <g transform="matrix(1.315615,0,0,1.315615,1420.359208,26.163953)">
                    <path d="M487.92,130.378C488.242,131.836 489.742,136.024 486.749,142.619C482.094,152.874 472.387,150.064 469.452,145.535C462.79,135.257 467.701,121.81 476.466,121.114C483.78,120.532 486.702,127.278 487.295,128.589C487.358,128.728 487.342,128.722 487.92,130.378Z" style="fill:rgb(129,44,33);"/>
                </g>
                <g transform="matrix(1.315615,0,0,1.315615,1420.359208,26.163953)">
                    <path d="M545.409,136.878C546.207,137.096 554.159,139.273 554.086,142.492C554.069,143.258 553.168,145.13 551.288,143.931C549.324,142.678 545.801,139.448 538.462,140.14C534.436,140.52 531.935,142.914 530.453,141.549C527.44,138.775 538.435,127.928 549.502,128.063C553.851,128.116 553.485,131.356 550.584,131.953C547.681,132.551 539.742,134.848 539.087,135.471C538.225,136.291 541.081,135.694 545.409,136.878Z" style="fill:rgb(129,44,33);"/>
                </g>
                <g transform="matrix(1.315615,0,0,1.315615,1420.359208,26.163953)">
                    <path d="M486.507,89.499C486.63,90.046 486.014,91.511 489.635,93.194C491.952,94.27 496.556,94.484 496.735,95.383C497.079,97.11 496.272,96.983 494.5,96.874C488.254,96.488 481.647,92.733 484.995,87.996C485.597,87.145 487.261,84.79 497.488,84.304C517.24,83.365 523.861,92.873 515.223,98.009C510.121,101.042 502.397,99.393 502.37,97.497C502.351,96.161 504.315,96.456 504.502,96.484C505.204,96.59 508.728,97.851 512.522,96.558C517.39,94.898 516.288,92.13 516.109,91.68C513.743,85.739 491.288,85.718 487.52,88.539C487.148,88.818 486.88,89.22 486.507,89.499Z" style="fill:rgb(129,44,33);"/>
                </g>
                <g transform="matrix(1.315615,0,0,1.315615,1420.359208,26.163953)">
                    <path d="M600.942,145.712C601.003,145.647 601.697,144.899 601.697,144.899C601.869,144.832 607.084,144.863 608.032,137.443C608.441,134.248 606.612,132.001 606.305,131.624C603.719,128.446 605.077,126.27 602.504,126.32C600.414,126.36 599.52,129.258 599.441,129.478C597.493,134.86 597.597,134.881 596.303,140.451C595.571,143.599 595.827,144.583 597.805,146.286C598.342,146.748 598.418,146.75 598.382,147.468C598.315,148.792 596.693,148.289 596.541,148.242C591.369,146.638 593.847,138.934 595.815,132.536C596.495,130.328 598.098,122.913 603.467,123.727C607.254,124.3 606.381,128.011 608.096,129.942C609.396,131.406 611.161,133.483 610.338,138.472C609.008,146.529 602.814,147.831 601.391,146.592C601.143,146.376 601.191,145.928 600.942,145.712Z" style="fill:rgb(129,44,33);"/>
                </g>
                <g transform="matrix(1.315615,0,0,1.315615,1420.359208,26.163953)">
                    <path d="M409.429,127.431C409.62,127.312 413.231,124.007 416.875,127.035C420.259,129.847 418.219,131.268 421.324,134.659C427.603,141.517 423.99,149.405 419.447,150.245C417.034,150.692 415.633,149.096 415.271,148.769C413.463,147.137 413.171,147.575 411.36,146.804C406.995,144.948 404.891,136.795 407.488,136.81C408.646,136.817 408.754,138.836 408.894,139.387C410.307,144.928 413.111,144.619 414.609,145.136C415.816,145.552 416.733,146.922 416.911,147.07C418.484,148.379 422.041,147.548 422.087,142.498C422.125,138.24 419.084,135.933 418.619,135.391C416.323,132.719 416.944,128.33 413.497,128.378C412.283,128.395 410.874,129.622 410.684,129.787C408.664,131.545 408.242,129.282 408.601,128.536C408.801,128.121 409.23,127.845 409.429,127.431Z" style="fill:rgb(129,44,33);"/>
                </g>
                <g transform="matrix(1.315615,0,0,1.315615,1420.359208,26.163953)">
                    <path d="M517.454,151.441C509.879,156.774 499.814,153.097 498.465,144.506C497.876,140.755 500.69,140.652 501.405,142.544C501.703,143.334 502.419,150.188 510.519,149.937C518.542,149.688 517.021,142.299 519.422,142.037C521.974,141.759 521.337,145.15 521.279,145.456C520.675,148.673 518.049,150.907 517.454,151.441Z" style="fill:rgb(129,44,33);"/>
                </g>
                <g transform="matrix(1.315615,0,0,1.315615,1420.359208,26.163953)">
                    <path d="M608.433,160.435C607.701,161.187 604.832,164.46 596.282,170.165C594.896,171.089 592.75,172.208 592.435,172.372C592.289,172.448 590.934,173.154 590.513,173.096C590.366,173.076 589.143,172.908 589.545,171.518C589.851,170.459 592.982,169.973 600.35,164.306C606.414,159.642 612.191,153.946 614.792,144.581C615.797,140.964 615.293,139.504 616.328,139.055C619.995,137.463 616.699,151.148 610.329,158.359C609.511,159.285 608.587,160.271 608.433,160.435Z" style="fill:rgb(129,44,33);"/>
                </g>
                <g transform="matrix(1.315615,0,0,1.315615,1420.359208,26.163953)">
                    <path d="M522.49,190.211C543.053,190.235 555.677,185.133 557.51,184.536C557.693,184.476 559.831,183.78 559.707,185.511C559.568,187.459 550.55,189.349 548.556,189.813C534.711,193.038 518.188,193.102 517.513,192.483C517.401,192.38 516.419,191.479 517.558,190.585C518.062,190.19 521.936,190.22 522.49,190.211Z" style="fill:rgb(129,44,33);"/>
                </g>
                <g transform="matrix(1.315615,0,0,1.315615,1420.359208,26.163953)">
                    <path d="M566.398,199.888C566.151,199.805 563.704,198.978 563.436,198.548C562.714,197.391 563.509,196.77 563.627,196.678C563.772,196.565 563.781,196.596 565.374,196.133C572.369,194.103 575.596,191.941 581.663,189.907C590.696,186.878 590.643,185.072 591.766,186.114C592.702,186.982 591.939,188.21 591.739,188.604C589.062,193.888 580.784,189.794 575.116,196.167C571.117,200.663 569.946,200.333 566.398,199.888Z" style="fill:rgb(242,239,229);"/>
                </g>
                <g transform="matrix(1.315615,0,0,1.315615,1420.359208,26.163953)">
                    <path d="M501.404,208.71C499.827,207.759 499.809,207.795 498.429,206.579C493.897,202.584 489.56,205.058 486.496,204.524C484.67,204.206 483.063,202.546 482.966,202.283C482.817,201.881 483.3,200.829 483.572,200.736C483.913,200.619 483.916,200.708 485.544,201.02C490.976,202.063 491.077,201.223 496.517,202.292C508.542,204.653 508.975,202.634 510.319,203.743C511.197,204.467 510.126,206.378 508.522,207.527C504.883,210.134 502.827,209.034 501.404,208.71Z" style="fill:rgb(242,239,229);"/>
                </g>
                <g transform="matrix(1.315615,0,0,1.315615,1420.359208,26.163953)">
                    <path d="M432.618,176.291C426.67,172.671 427.031,172.056 427.123,171.336C427.344,169.606 430.155,171.565 430.369,171.715C444.474,181.545 456.244,181.599 461.54,183.407C463.621,184.118 463.767,185.725 461.573,185.908C461.175,185.941 458.777,185.404 458.536,185.35C440.9,181.399 436.898,178.666 432.618,176.291Z" style="fill:rgb(129,44,33);"/>
                </g>
                <g transform="matrix(1.315615,0,0,1.315615,1420.359208,26.163953)">
                    <path d="M530.38,185.168C528.96,185.829 528.854,185.677 527.781,186.835C527.627,187.001 527.556,187.24 527.38,187.382C527.146,187.571 526.818,187.619 526.581,187.805C526.454,187.904 526.457,188.128 526.318,188.21C525.151,188.899 524.204,186.077 527.679,183.777C527.886,183.64 528.544,183.205 530.507,182.524C531.761,182.089 532.065,182.558 534.275,180.282C534.928,179.61 538.01,176.436 545.478,176.861C551.504,177.204 555.693,181.234 553.479,182.451C552.405,183.042 551.222,179.896 545.51,179.383C539.238,178.82 536.586,181.475 536.029,182.032C533.693,184.37 533.541,184.224 530.38,185.168Z" style="fill:rgb(129,44,33);"/>
                </g>
                <g transform="matrix(1.315615,0,0,1.315615,1420.359208,26.163953)">
                    <path d="M398.869,141.419C398.798,140.948 398.182,136.883 398.455,135.486C398.927,133.077 400.293,134.447 400.415,134.57C400.675,134.83 400.796,136.29 400.809,136.442C400.912,137.685 401.555,145.449 405.878,151.185C406.897,152.538 410.535,156.018 412.535,157.46C416.201,160.102 413.854,160.869 413.569,160.884C412.733,160.93 410.46,159.056 410.219,158.857C409.951,158.636 407.503,156.617 406.902,156.055C400.559,150.126 399.345,143.122 398.869,141.419Z" style="fill:rgb(129,44,33);"/>
                </g>
                <g transform="matrix(2.245406,0,0,2.245406,-2561.186374,-278.640916)">
                    <circle cx="2051.798" cy="211.89" r="2.399" style="fill:rgb(242,239,229);"/>
                </g>
                <g transform="matrix(1.315615,0,0,1.315615,1420.359208,26.163953)">
                    <path d="M413.413,176.617C415.929,178.194 416.041,178.401 416.172,178.642C416.36,178.987 415.823,179.917 415.315,180.14C414.855,180.342 412.17,180.782 410.606,180.178C409.062,179.582 407.428,178.561 406.381,174.525C406.324,174.303 405.737,172.041 405.918,171.697C405.971,171.597 407,171.326 407.501,171.498C408.093,171.701 407.687,172.213 413.413,176.617Z" style="fill:rgb(242,239,229);"/>
                </g>
                <g transform="matrix(1.315615,0,0,1.315615,1420.359208,26.163953)">
                    <path d="M551.458,212.422C550.99,212.62 548.838,213.855 545.531,213.917C545.201,213.923 540.683,214.009 541.98,211.795C542.769,210.446 545.126,212.362 549.501,210.503C549.662,210.434 551.419,209.688 551.519,209.667C551.694,209.632 553.746,209.212 552.635,211.595C552.586,211.7 552.549,211.656 551.458,212.422Z" style="fill:rgb(129,44,33);"/>
                </g>
                <g transform="matrix(1.315615,0,0,1.315615,1420.359208,26.163953)">
                    <path d="M456.591,205.366C456.104,204.954 453.904,203.312 455.176,202.115C455.309,201.989 455.922,201.412 457.403,202.618C460.835,205.412 461.519,203.61 463.579,204.388C464.531,204.748 464.422,207.266 460.464,206.812C458.376,206.573 458.456,206.311 456.591,205.366Z" style="fill:rgb(129,44,33);"/>
                </g>
                <g transform="matrix(1.315615,0,0,1.315615,1420.359208,26.163953)">
                    <path d="M617.662,166.644C618.705,165.434 618.779,165.513 619.418,164.42C620.344,162.836 621.461,162.615 621.681,164.441C622.155,168.379 615.232,172.292 615.282,169.502C615.285,169.317 615.29,169.04 616.673,167.651C617.183,167.139 617.166,167.148 617.662,166.644Z" style="fill:rgb(242,239,229);"/>
                </g>
                <g transform="matrix(1.315615,0,0,1.315615,1420.359208,26.163953)">
                    <path d="M398.465,166.543C397.526,165.552 397.398,165.647 396.842,164.389C396.76,164.204 395.791,162.016 397.5,161.939C398.32,161.902 400.134,164.949 402.49,166.508C402.582,166.569 403.43,167.131 403.436,167.519C403.438,167.626 402.627,168.501 402.503,168.52C401.74,168.633 398.768,166.737 398.465,166.543Z" style="fill:rgb(242,239,229);"/>
                </g>
                <g transform="matrix(1.315615,0,0,1.315615,1420.359208,26.163953)">
                    <path d="M476.537,87.726C478.324,87.628 478.314,87.599 478.467,87.62C480.566,87.899 479.491,89.274 479.392,89.401C479.109,89.763 475.081,90.663 474.479,90.571C473.743,90.459 473.291,89.472 473.841,88.782C474.273,88.24 474.387,88.402 476.537,87.726Z" style="fill:rgb(129,44,33);"/>
                </g>
                <g transform="matrix(1.315615,0,0,1.315615,1420.359208,26.163953)">
                    <path d="M470.52,185.366C470.733,185.555 471.089,185.524 471.303,185.714C471.409,185.809 472.228,186.535 471.485,187.489C471.277,187.756 470.919,187.927 470.582,187.953C470.405,187.966 468.751,188.093 468.869,186.541C468.911,185.992 469.453,185.607 469.531,185.551C469.966,185.241 470.088,185.673 470.52,185.366Z" style="fill:rgb(129,44,33);"/>
                </g>
            </g>
        </g>
    </g>
</svg>
