<?xml version="1.0" encoding="UTF-8" standalone="no"?>
<!DOCTYPE svg PUBLIC "-//W3C//DTD SVG 1.1//EN" "http://www.w3.org/Graphics/SVG/1.1/DTD/svg11.dtd">
<svg width="100%" height="100%" viewBox="0 0 265 218" version="1.1" xmlns="http://www.w3.org/2000/svg" xmlns:xlink="http://www.w3.org/1999/xlink" xml:space="preserve" xmlns:serif="http://www.serif.com/" style="fill-rule:evenodd;clip-rule:evenodd;stroke-linejoin:round;stroke-miterlimit:2;">
    <g transform="matrix(1,0,0,1,-4069.088607,-371.277214)">
        <g transform="matrix(0.627301,0,0,1,2425.27341,3.791992)">
            <g id="Queso" transform="matrix(1.594131,0,0,1,-1229.182917,-79.188632)">
                <g transform="matrix(1.125,0,0,1.125,1579.858824,20.703647)">
                    <path d="M975.877,443.482C976.995,472.935 978.231,501.364 976.032,514.424C974.801,521.737 969.1,524.412 964.603,527.646C960.777,530.399 930.977,547.854 927.558,549.606C925.746,550.535 920.639,553.784 917.439,555.389C910.154,559.042 892.889,570.553 882.504,571.541C875.191,572.236 868.256,569.687 846.597,562.222C840.352,560.07 796.565,542.922 783.568,538.325C782.997,538.123 771.619,533.633 767.574,532.284C752.417,527.233 750.273,525.384 747.803,519.377C745.633,514.098 745.576,508.708 744.302,496.519C744.246,495.975 743.397,484.408 743.441,483.498C743.635,479.482 749.068,478.059 748.607,469.494C748.215,462.195 743.991,461.175 743.121,458.637C742.391,456.503 741.043,431.849 744.527,422.51C747.675,414.073 751.391,413.956 760.532,410.592C773.451,405.837 773.41,405.788 786.406,401.234C796.49,397.7 839.958,380.758 848.427,379.164C861.614,376.683 877.413,383.592 894.421,387.779C897.589,388.558 929.411,398.116 935.565,400.315C942.798,402.899 964.917,410.112 969.238,413.817C972.725,416.806 974.831,423.083 975.877,443.482Z" style="fill:rgb(129,45,34);"/>
                </g>
                <g transform="matrix(1.125,0,0,1.125,1579.858824,20.703647)">
                    <path d="M967.499,519.499C961.391,524.319 945.123,533.186 939.648,536.744C938.382,537.567 938.31,537.405 923.32,546.199C921.839,547.068 921.834,547.032 904.656,556.795C903.847,557.255 899.193,559.9 894.376,562.255C893.68,562.595 886.144,566.278 885.516,566.158C885.366,566.13 884.449,565.956 884.579,564.503C884.752,562.582 885.732,562.645 885.434,548.501C885.393,546.53 885.247,531.548 885.444,530.49C885.901,528.039 891.729,525.511 892.283,517.487C892.548,513.651 891.072,509.363 887.405,506.635C885.682,505.354 885.117,505.599 884.93,503.471C884.296,496.243 886.562,471.804 882.51,462.496C878.934,454.28 872.296,455.067 846.503,447.489C846.306,447.431 829.189,442.742 824.364,440.776C820.367,439.146 827.586,436.4 823.905,430.262C818.296,420.911 800.089,419.766 791.234,429.239C788.919,431.714 787.906,430.49 782.564,429.236C780.225,428.687 767.083,425.603 753.606,421.289C752.394,420.901 751.31,419.546 754.425,418.342C765.367,414.114 765.315,414.019 776.391,410.192C777.545,409.793 794.729,403.603 796.324,403.029C798.015,402.42 797.93,402.209 817.347,395.086C828.349,391.051 828.288,390.953 839.331,387.044C853.901,381.886 854.369,382.273 869.385,385.995C872.146,386.68 896.465,393.273 897.379,393.745C899.725,394.956 897.259,397.101 901.446,402.544C904.467,406.47 915.326,410.674 924.367,403.322C926.33,401.726 927.36,402.826 934.603,405.17C942.017,407.569 962.653,415.359 963.36,415.759C965.997,417.252 963.361,418.127 961.333,419.169C953.436,423.226 948.893,425.831 932.677,433.881C905.858,447.195 895.653,452.768 891.548,454.599C888.33,456.034 886.82,456.744 886.684,457.545C886.014,461.478 894.111,456.618 903.685,451.885C904.595,451.435 934.163,436.576 940.546,433.595C942.438,432.711 954.073,426.63 955.245,426.017C955.539,425.864 962.852,421.563 965.462,420.412C968.359,419.135 968.543,420.476 969.18,423.563C971.647,435.512 971.186,451.246 972.085,471.512C972.092,471.663 972.539,490.385 972.353,500.496C972.09,514.828 971.484,515.938 967.499,519.499Z" style="fill:rgb(242,239,229);"/>
                </g>
                <g transform="matrix(1.125,0,0,1.125,1579.858824,20.703647)">
                    <path d="M751.846,516.368C750.444,511.698 750.005,510.906 748.313,487.514C748.061,484.021 750.253,484.623 751.467,484.355C758.004,482.908 762.586,474.437 760.247,467.584C757.326,459.024 751.098,458.02 749.518,457.45C747.116,456.583 747.24,455.505 747.087,447.509C747.053,445.745 746.792,432.052 748.499,425.5C749.417,421.977 751.321,423.699 755.634,425.106C769.865,429.746 786.76,432.819 787.609,434.424C788.356,435.836 788.011,435.908 788.06,437.517C788.494,451.65 805.904,460.184 815.818,450.848C818.481,448.341 818.905,446.355 819.586,444.538C820.329,442.558 821.894,443.215 823.422,443.735C849.59,452.635 868.513,455.737 875.541,459.429C876.759,460.068 881.43,462.522 881.641,475.498C881.861,489.009 881.655,488.989 881.779,502.495C881.806,505.396 881.27,505.311 879.574,506.605C873.067,511.573 874.806,521.129 876.654,524.418C878.291,527.33 880.081,528.299 880.434,528.586C882.357,530.148 882.041,531.249 882.056,533.506C882.18,551.838 882.338,561.731 881.045,565.31C880.252,567.505 877.735,567.044 866.431,563.714C859.806,561.762 837.049,553.429 836.592,553.251C815.424,545.002 815.394,545.084 813.566,544.336C800.572,539.019 800.265,539.207 795.547,537.378C780.644,531.6 780.45,532.18 765.587,526.278C755.781,522.385 754.623,522.454 751.846,516.368Z" style="fill:rgb(242,239,229);"/>
                </g>
                <g transform="matrix(1.125,0,0,1.125,1579.858824,20.703647)">
                    <path d="M792.276,469.798C793.918,471.127 795.54,473.286 796.264,476.545C798.116,484.882 790.935,496.183 782.425,491.63C777.923,489.222 775.642,480.155 780.355,472.402C782.985,468.075 788.87,467.041 792.276,469.798Z" style="fill:rgb(129,45,34);"/>
                </g>
                <g transform="matrix(1.125,0,0,1.125,1640.210749,39.518391)">
                    <path d="M792.276,469.798C793.918,471.127 795.54,473.286 796.264,476.545C798.116,484.882 790.935,496.183 782.425,491.63C777.923,489.222 775.642,480.155 780.355,472.402C782.985,468.075 788.87,467.041 792.276,469.798Z" style="fill:rgb(129,45,34);"/>
                </g>
                <g transform="matrix(1.288244,0,0,1.288244,-708.544007,-171.945632)">
                    <circle cx="2462.502" cy="565.332" r="3.106" style="fill:rgb(242,239,229);"/>
                </g>
                <g transform="matrix(1.288244,0,0,1.288244,-648.262709,-153.323019)">
                    <circle cx="2462.502" cy="565.332" r="3.106" style="fill:rgb(242,239,229);"/>
                </g>
                <g transform="matrix(1.125,0,0,1.125,1579.858824,20.703647)">
                    <path d="M890.615,415.874C894.046,415.136 894.03,414.876 897.533,415.179C900.277,415.417 902.802,416.546 903.331,416.825C913.951,422.428 906.33,433.067 891.44,429.734C883.879,428.041 883.098,422.545 884.906,419.746C886.704,416.962 890.128,416.063 890.615,415.874Z" style="fill:rgb(129,45,34);"/>
                </g>
                <g transform="matrix(1.125,0,0,1.125,1579.858824,20.703647)">
                    <path d="M792.102,441.652C792.098,441.642 791.15,439.444 791.144,437.503C791.143,437.256 791.136,434.973 792.565,434.761C794.773,434.434 807.332,438.819 808.589,439.258C815.863,441.798 816.909,441.933 816.235,444.439C815.213,448.236 811.946,450.033 811.412,450.326C808.96,451.675 797.744,454.782 792.102,441.652Z" style="fill:rgb(242,239,229);"/>
                </g>
                <g transform="matrix(1.125,0,0,1.125,1579.858824,20.703647)">
                    <path d="M847.495,400.237C847.833,400.25 848.172,400.234 848.51,400.247C861.078,400.729 861.956,412.607 850.447,414.166C839.651,415.629 835.148,409.027 837.716,404.61C840.226,400.291 846.807,400.289 847.495,400.237Z" style="fill:rgb(129,45,34);"/>
                </g>
                <g transform="matrix(1.125,0,0,1.125,1579.858824,20.703647)">
                    <path d="M871.548,551.557C871.544,551.56 868.122,554.632 863.502,552.497C858.205,550.048 856.131,541.568 860.289,537.292C865,532.447 875.376,537.697 874.332,546.48C874.302,546.727 874.12,548.258 873.391,549.438C872.645,550.647 872.573,550.574 871.548,551.557Z" style="fill:rgb(129,45,34);"/>
                </g>
                <g transform="matrix(1.125,0,0,1.125,1579.858824,20.703647)">
                    <path d="M935.947,447.679C936.144,447.293 936.321,446.896 936.517,446.509C941.611,436.487 952.901,442.443 950.161,452.412C947.729,461.262 939.33,461.878 936.389,456.569C934.148,452.523 935.314,449.699 935.947,447.679Z" style="fill:rgb(22,21,21);"/>
                </g>
                <g transform="matrix(1.125,0,0,1.125,1579.858824,20.703647)">
                    <path d="M935.947,447.679C936.144,447.293 936.321,446.896 936.517,446.509C941.611,436.487 952.901,442.443 950.161,452.412C947.729,461.262 939.33,461.878 936.389,456.569C934.148,452.523 935.314,449.699 935.947,447.679Z" style="fill:rgb(129,45,34);"/>
                </g>
                <g transform="matrix(1.125,0,0,1.125,1579.858824,20.703647)">
                    <path d="M796.588,432.177C794.941,431.659 794.01,432.153 794.294,430.455C794.373,429.979 795.28,429.423 795.385,429.358C810.114,420.312 827.725,431.243 819.737,437.833C817.058,440.043 811.146,436.221 796.588,432.177Z" style="fill:rgb(242,239,229);"/>
                </g>
                <g transform="matrix(1.125,0,0,1.125,1579.858824,20.703647)">
                    <path d="M767.714,518.41C764.049,506.469 775.498,505.537 779.489,510.51C786.569,519.33 777.617,528.006 771.166,522.988C769.038,521.332 768.927,520.731 767.714,518.41Z" style="fill:rgb(129,45,34);"/>
                </g>
                <g transform="matrix(1.125,0,0,1.125,1579.858824,20.703647)">
                    <path d="M888.921,518.586C888.789,519.073 887.856,522.509 886.255,524.293C880.353,530.868 874.238,515.066 881.233,509.177C885.033,505.977 889.769,511.813 889.115,517.451C889.071,517.832 888.965,518.205 888.921,518.586Z" style="fill:rgb(242,239,229);"/>
                </g>
                <g transform="matrix(1.125,0,0,1.125,1579.858824,20.703647)">
                    <path d="M856.851,471.601C857.046,471.22 857.16,470.8 857.354,470.419C859.215,466.773 865.939,467.133 868.443,472.527C873.049,482.451 858.549,484.955 856.729,475.451C856.321,473.323 856.814,471.843 856.851,471.601Z" style="fill:rgb(129,45,34);"/>
                </g>
                <g transform="matrix(1.125,0,0,1.125,1579.858824,20.703647)">
                    <path d="M888.17,424.822C888.049,424.64 887.845,424.524 887.724,424.342C884.325,419.23 898.174,415.568 903.909,421.065C907.818,424.811 901.018,428.337 893.567,427.068C890.632,426.567 890.558,426.618 888.17,424.822Z" style="fill:rgb(242,239,229);"/>
                </g>
                <g transform="matrix(1.125,0,0,1.125,1579.858824,20.703647)">
                    <path d="M904.652,537.915C905.12,537.851 908.558,536.592 910.327,540.562C911.091,542.275 910.869,545.415 909.319,547.358C905.575,552.049 898.938,548.692 900.751,542.569C901.873,538.783 904.6,537.946 904.652,537.915Z" style="fill:rgb(129,45,34);"/>
                </g>
                <g transform="matrix(1.125,0,0,1.125,1579.858824,20.703647)">
                    <path d="M903.524,395.308C904.997,395.613 920.961,400.6 921.104,400.856C921.161,400.957 916.906,403.809 914.462,404.094C907.56,404.897 902.051,399.847 901.671,396.5C901.487,394.887 903.352,395.273 903.524,395.308Z" style="fill:rgb(242,239,229);"/>
                </g>
                <g transform="matrix(1.125,0,0,1.125,1579.858824,20.703647)">
                    <path d="M854.369,409.358C854.113,409.51 853.276,410.484 850.591,410.994C843.879,412.268 837.38,408.716 841.311,405.269C845.928,401.218 858.439,404.458 854.884,408.78C854.72,408.979 854.533,409.159 854.369,409.358Z" style="fill:rgb(242,239,229);"/>
                </g>
                <g transform="matrix(1.125,0,0,1.125,1579.858824,20.703647)">
                    <path d="M967.029,511.498C966.94,512.164 967.033,515.581 963.674,517.778C959.83,520.293 954.857,516.653 957.522,510.51C959.724,505.434 965.867,505.353 966.883,510.436C966.953,510.786 966.959,511.147 967.029,511.498Z" style="fill:rgb(129,45,34);"/>
                </g>
                <g transform="matrix(1.125,0,0,1.125,1579.858824,20.703647)">
                    <path d="M866.516,550.137C866.145,550.031 865.751,550.02 865.38,549.915C860.26,548.46 859.568,539.295 864.495,538.472C869.515,537.633 873.661,545.167 869.841,548.87C868.392,550.273 866.598,550.121 866.516,550.137Z" style="fill:rgb(242,239,229);"/>
                </g>
                <g transform="matrix(1.125,0,0,1.125,1579.858824,20.703647)">
                    <path d="M944.793,455.818C943.748,456.549 943.833,456.733 942.585,456.959C937.754,457.836 936.661,449.982 940.78,445.764C944.588,441.865 949.892,446.554 946.536,453.518C945.844,454.954 944.815,455.792 944.793,455.818Z" style="fill:rgb(242,239,229);"/>
                </g>
                <g transform="matrix(1.125,0,0,1.125,1552.285879,68.360597)">
                    <path d="M935.947,447.679C936.144,447.293 936.321,446.896 936.517,446.509C941.611,436.487 952.901,442.443 950.161,452.412C947.729,461.262 939.33,461.878 936.389,456.569C934.148,452.523 935.314,449.699 935.947,447.679Z" style="fill:rgb(129,45,34);"/>
                </g>
                <g transform="matrix(1.125,0,0,1.125,1552.285879,68.360597)">
                    <path d="M944.793,455.818C943.748,456.549 943.833,456.733 942.585,456.959C937.754,457.836 936.661,449.982 940.78,445.764C944.588,441.865 949.892,446.554 946.536,453.518C945.844,454.954 944.815,455.792 944.793,455.818Z" style="fill:rgb(242,239,229);"/>
                </g>
                <g transform="matrix(1.125,0,0,1.125,1579.858824,20.703647)">
                    <path d="M814.462,504.118C813.467,504.117 809.512,504.621 806.063,500.899C802.455,497.008 803.541,492.686 803.619,492.57C803.715,492.427 804.676,491.007 805.742,492.235C806.675,493.31 806.188,500.861 813.493,500.924C818.539,500.967 819.349,496.864 820.468,496.432C822.112,495.796 823.406,497.244 822.109,499.273C821.933,499.548 820.992,501.021 819.325,502.259C817.185,503.846 817.056,503.59 814.462,504.118Z" style="fill:rgb(129,45,34);"/>
                </g>
                <g transform="matrix(1.125,0,0,1.125,1579.858824,20.703647)">
                    <path d="M776.351,511.681C777.847,513.405 778.196,513.213 778.816,515.402C780.486,521.296 773.88,524.759 770.701,517.417C769.489,514.617 770.015,509.881 774.437,510.752C775.032,510.869 775.203,510.952 775.265,510.982C775.862,511.272 775.764,511.396 776.351,511.681Z" style="fill:rgb(242,239,229);"/>
                </g>
                <g transform="matrix(1.125,0,0,1.125,1579.858824,20.703647)">
                    <path d="M752.096,476.35C752.799,473.779 752.813,473.799 752.855,473.573C754.028,467.267 751.199,463.101 751.261,462.453C751.292,462.135 752.153,461.584 752.454,461.689C753.316,461.99 754.769,463.895 754.938,464.116C759.6,470.227 757.368,476.594 754.409,479.396C751.423,482.225 750.641,480.791 750.485,480.505C750.301,480.167 751.108,478.546 751.187,478.386C751.187,478.386 752.024,476.513 752.096,476.35Z" style="fill:rgb(242,239,229);"/>
                </g>
                <g transform="matrix(1.125,0,0,1.125,1579.858824,20.703647)">
                    <path d="M863.54,471.416C865.273,472.666 865.473,472.574 866.169,474.605C867.65,478.928 861.572,480.473 859.796,475.412C859.552,474.718 859.444,472.99 860.012,472.193C861.323,470.353 863.302,471.387 863.54,471.416Z" style="fill:rgb(242,239,229);"/>
                </g>
                <g transform="matrix(1.125,0,0,1.125,1579.858824,20.703647)">
                    <path d="M960.344,511.413C961.356,510.125 961.287,510.055 961.697,509.874C962.555,509.495 963.173,509.816 963.285,509.875C965.21,510.876 963.57,515.289 961.509,515.571C958.911,515.926 959.798,512.86 959.874,512.6C959.992,512.191 960.226,511.821 960.344,511.413Z" style="fill:rgb(242,239,229);"/>
                </g>
                <g transform="matrix(1.125,0,0,1.125,1579.858824,20.703647)">
                    <path d="M903.829,542.672C904.581,541.613 904.368,541.305 905.618,540.961C906.187,540.804 907.535,541.251 907.79,542.403C908.507,545.64 904.411,548.15 903.587,545.465C903.163,544.085 903.512,544.08 903.829,542.672Z" style="fill:rgb(242,239,229);"/>
                </g>
            </g>
        </g>
    </g>
</svg>
