<?xml version="1.0" encoding="UTF-8" standalone="no"?>
<!DOCTYPE svg PUBLIC "-//W3C//DTD SVG 1.1//EN" "http://www.w3.org/Graphics/SVG/1.1/DTD/svg11.dtd">
<svg width="100%" height="100%" viewBox="0 0 322 232" version="1.1" xmlns="http://www.w3.org/2000/svg" xmlns:xlink="http://www.w3.org/1999/xlink" xml:space="preserve" xmlns:serif="http://www.serif.com/" style="fill-rule:evenodd;clip-rule:evenodd;stroke-linejoin:round;stroke-miterlimit:2;">
    <g transform="matrix(1,0,0,1,-3229.760551,-362.937093)">
        <g transform="matrix(0.627301,0,0,1,2425.27341,3.791992)">
            <g id="Taco" transform="matrix(1.261302,0,0,0.791216,-474.931707,-51.054876)">
                <g transform="matrix(1.493405,0,0,1.493405,1302.248113,-306.340232)">
                    <path d="M63.933,674.593C67.516,659.584 71.334,647.171 82.77,630.673C84.981,627.483 85.28,627.503 85.372,624.496C85.504,620.218 88.302,614.055 94.556,612.76C98.48,611.947 98.256,610.388 103.829,605.911C109.563,601.304 109.706,601.525 110.198,601.12C113.063,598.757 110.981,597.853 110.706,591.489C110.314,582.435 117.156,575.971 125.441,577.78C131.708,579.149 133.904,581.252 138.463,572.48C143.736,562.335 152.044,567.309 152.511,567.472C154.671,568.221 155.123,566.704 155.905,565.896C161.975,559.621 168.66,564.076 172.514,564.168C180.36,564.356 179.633,554.706 187.538,552.645C194.004,550.959 198.24,555.629 199.854,557.113C206.101,562.856 206.969,561.66 212.513,560.565C216.005,559.875 216.639,561.655 218.566,560.58C218.731,560.488 218.7,560.476 219.931,558.842C222.977,554.804 230.378,551.171 237.367,555.706C243.425,559.637 244.252,562.991 248.31,561.095C253.345,558.743 257.054,559.591 261.766,565.28C267.124,571.749 268.531,571.968 275.292,568.129C282.633,563.96 288.88,566.807 291.131,572.639C292.136,575.246 292.049,582.81 298.508,583.003C299.04,583.019 309.036,581.26 311.651,588.444C313.513,593.561 309.676,599.319 309.109,600.316C309.032,600.451 308.484,601.414 308.943,602.257C309.486,603.255 316.666,609.488 322.941,620.256C330.218,632.742 331.322,639.045 331.86,641.424C332.381,643.727 335.951,659.495 327.726,670.657C325.395,673.82 322.353,678.384 308.598,683.754C289.828,691.081 282.284,692.949 277.539,694.615C266.487,698.496 143.147,737.077 127.456,741.341C116.211,744.397 91.468,753.614 77.712,744.183C69.977,738.88 67.145,732.48 65.494,728.502C57.493,709.216 62.212,683.178 63.933,674.593Z" style="fill:rgb(129,45,34);"/>
                </g>
                <g transform="matrix(1.493405,0,0,1.493405,1302.248113,-306.340232)">
                    <path d="M89.077,638.572C89.382,643.591 88.629,643.811 84.28,646.032C83.077,646.646 79.859,647.911 78.039,653.359C75.073,662.237 82.619,666.232 79.569,668.57C76.804,670.691 70.132,673.38 69.661,682.488C69.278,689.892 74.977,691.193 74.613,694.517C74.465,695.87 70.245,702.92 75.896,709.13C78.16,711.618 76.989,712.064 77.312,715.518C78.166,724.678 85.08,729.053 87.417,729.702C88.456,729.99 91.295,730.53 91.374,730.633C91.447,730.728 91.354,732.074 91.271,732.147C91.101,732.298 85.907,733.15 83.661,732.071C77.989,729.348 75.844,721.171 75.369,720.616C74.232,719.284 73.293,719.75 73.404,721.499C73.485,722.768 75.444,728.248 78.515,731.487C81.626,734.769 89.353,740.326 98.172,733.096C104.922,727.563 108.802,722.239 114.777,703.592C118.562,691.782 127.144,658.356 135.705,644.62C139.558,638.437 141.794,632.02 154.972,618.995C156.752,617.236 165.698,608.394 179.67,599.79C185.635,596.117 200.545,589.584 204.436,588.317C216.767,584.303 247.307,573.774 281.592,589.295C289.985,593.095 297.487,598.85 299.461,600.547C301.552,602.344 309.759,608.594 317.414,620.556C322.927,629.171 324.507,633.637 326.355,639.542C328.789,647.315 329.318,657.873 324.871,665.708C324.011,667.222 323.4,668.755 319.787,671.837C318.547,672.895 318.612,673.81 304.296,680.036C294.628,684.241 260.85,694.759 256.43,696.293C250.145,698.474 240.207,701.138 227.46,705.373C225.322,706.083 225.298,705.998 200.597,713.824C198.89,714.365 185.442,718.326 179.461,720.385C178.882,720.584 136.978,733.514 116.446,739.317C97.149,744.77 85.192,746.358 75.617,735.398C74.025,733.576 64.092,724.278 66.257,691.482C66.559,686.901 67.151,682.242 67.253,681.442C67.684,678.046 68.485,676.675 69.653,671.534C71.61,662.919 72.225,663.12 74.907,654.658C75.582,652.528 75.234,652.356 83.884,637.737C85.768,634.552 86.143,634.479 86.474,634.414C87.708,634.173 87.74,634.486 88.256,635.621C88.636,636.458 88.55,636.465 89.077,638.572Z" style="fill:rgb(242,239,229);"/>
                </g>
                <g transform="matrix(1.493405,0,0,1.493405,1302.248113,-306.340232)">
                    <path d="M100.492,640.484C96.326,642.663 96.137,642.619 93.717,646.67C91.522,650.343 89.979,650.991 88.516,659.502C88.201,661.331 87.985,661.733 86.762,662.842C83.124,666.143 82.235,657.674 82.279,656.494C82.496,650.619 88.075,650.205 90.447,647.418C90.825,646.974 92.959,643.714 93.474,641.496C95.058,634.682 87.658,627.881 91.546,620.527C93.985,615.914 99.854,617.717 102.466,617.911C104.386,618.053 110.634,619.152 115.267,612.345C121.691,602.906 112.208,593.127 116.903,585.741C123.026,576.107 132.895,591.425 141.249,577.346C143.336,573.828 143.148,573.705 144.431,572.431C148.466,568.425 155.849,574.103 156.987,581.428C157.575,585.218 154.299,584.521 151.573,584.973C144.22,586.19 135.834,588.442 127.196,598.246C124.656,601.128 120.222,608.505 118.752,617.546C117.573,624.796 118.232,625.423 116.653,625.919C113.912,626.782 105.058,623.319 102.887,635.575C102.334,638.699 102.425,638.732 102.117,639.25C101.758,639.852 101.65,639.741 100.492,640.484Z" style="fill:rgb(242,239,229);"/>
                </g>
                <g transform="matrix(1.493405,0,0,1.493405,1302.248113,-306.340232)">
                    <path d="M112.054,695.363C109.826,702.209 105.431,718.535 100.744,721.898C98.24,723.695 89.066,720.548 90.914,710.577C91.343,708.263 92.362,706.271 90.771,703.365C90.162,702.254 84.856,694.206 90.447,688.449C93.767,685.031 98.312,685.773 99.637,682.564C100.417,680.675 100.695,677.944 105.305,674.252C111.612,669.2 118.318,669.269 118.968,671.337C119.317,672.448 118.85,672.441 115.081,685.366C114.847,686.169 114.813,686.156 112.054,695.363Z" style="fill:rgb(242,239,229);"/>
                </g>
                <g transform="matrix(1.493405,0,0,1.493405,1302.248113,-306.340232)">
                    <path d="M216.204,678.628C215.939,677.93 213.526,673.161 216.229,670.253C217.614,668.764 219.266,668.509 223.536,667.678C243.152,663.863 247.329,657.837 250.241,664.601C251.018,666.406 251.147,670.8 250.625,673.526C247.894,687.79 234.977,691.361 226.602,688.22C218.435,685.157 216.79,679.807 216.204,678.628Z" style="fill:rgb(129,45,34);"/>
                </g>
                <g transform="matrix(1.493405,0,0,1.493405,1302.248113,-306.340232)">
                    <path d="M199.365,655.685C201.658,657.568 205.796,661.247 206.068,670.503C206.109,671.91 205.135,682.444 196.501,683.505C180.926,685.418 176.621,655.867 191.518,653.624C195.878,652.967 199.025,655.451 199.365,655.685Z" style="fill:rgb(129,45,34);"/>
                </g>
                <g transform="matrix(1.493405,0,0,1.493405,1302.248113,-306.340232)">
                    <path d="M96.04,679.291C93.657,683.574 91.525,681.24 87.687,684.706C84.898,687.223 81.619,694.201 85.16,700.667C85.467,701.229 88.631,707.007 86.555,708.548C85.944,709.001 74.197,708.442 78.216,697.399C79.828,692.971 79.172,692.665 75.836,688.248C69.718,680.148 78.206,674.428 80.457,673.415C83.461,672.064 83.616,672.264 85.919,669.923C90.159,665.615 92.866,665.025 93.584,664.869C97.899,663.929 101.156,669.615 98.078,675.269C96.996,677.256 96.969,677.224 96.04,679.291Z" style="fill:rgb(242,239,229);"/>
                </g>
                <g transform="matrix(1.493405,0,0,1.493405,1302.248113,-306.340232)">
                    <path d="M247.782,567.685C248.095,567.357 248.312,566.946 248.625,566.617C250.319,564.841 252.169,564.749 252.515,564.732C256.141,564.553 257.961,568.018 259.746,570.314C264.85,576.876 270.178,576.298 276.325,573.145C286.893,567.724 286.507,574.712 288.298,580.573C290.948,589.241 300.574,587.644 301.501,587.628C310.917,587.471 306.363,595.491 305.641,596.614C305.545,596.762 304.774,597.961 303.561,597.357C302.309,596.735 302.432,596.581 301.336,595.707C300.383,594.947 295.55,591.096 288.524,587.456C279.419,582.738 272.3,579.109 256.552,577.083C246.751,575.822 246.328,576.956 245.249,575.695C244.211,574.482 247.434,568.364 247.782,567.685Z" style="fill:rgb(242,239,229);"/>
                </g>
                <g transform="matrix(1.493405,0,0,1.493405,1302.248113,-306.340232)">
                    <path d="M112.511,648.106C114.496,648.261 114.491,648.225 116.368,648.847C119.43,649.861 121.182,648.405 124.433,648.991C128.031,649.64 126.938,651.137 125.535,654.515C122.356,662.165 121.789,665.784 120.376,666.105C117.637,666.728 115.91,663.743 106.442,668.38C104.625,669.27 103.959,669.484 103.412,667.532C103.239,666.917 100.681,659.725 102.33,654.444C102.949,652.461 104.702,650.304 106.427,649.372C109.015,647.972 110.73,648.153 112.511,648.106Z" style="fill:rgb(242,239,229);"/>
                </g>
                <g transform="matrix(1.493405,0,0,1.493405,1302.248113,-306.340232)">
                    <path d="M127.962,631.391C129.159,635.461 129.045,635.493 130.958,639.272C131.341,640.028 131.805,640.666 131.338,642.446C131.295,642.61 130.926,644.018 130.378,644.345C130.194,644.455 129.113,645.1 127.969,643.183C115.619,622.472 126.834,603.666 134.826,596.876C138.865,593.444 150.937,586.947 162.535,589.336C169.959,590.865 175.841,594.118 175.899,595.473C175.979,597.376 173.65,596.94 173.426,596.898C172.455,596.716 165.311,591.915 159.42,593.129C155.819,593.871 155.172,592.031 149.568,593.753C142.089,596.051 142.461,597.409 141.411,598.399C140.58,599.184 136.214,599.272 131.933,605.767C130.63,607.744 127.425,613.998 127.172,619.467C126.894,625.473 126.833,625.491 127.962,631.391Z" style="fill:rgb(242,239,229);"/>
                </g>
                <g transform="matrix(1.493405,0,0,1.493405,1302.248113,-306.340232)">
                    <path d="M198.534,567.104C183.708,566.013 175.763,575.781 175.234,576.162C172.979,577.788 169.5,573.929 163.596,575.807C162.047,576.3 160.71,577.663 158.977,573.316C158.845,572.985 157.965,570.777 159.913,568.955C162.9,566.162 167.183,568.012 169.498,568.51C179.443,570.649 184.033,561.756 185.736,559.689C190.646,553.725 195.708,559.769 197.505,561.495C206.053,569.705 212.211,564.565 213.553,565.366C215.147,566.317 214.09,566.737 213.269,568.401C212.957,569.031 212.239,570.946 212.074,571.12C210.335,572.947 209.325,568.967 198.534,567.104Z" style="fill:rgb(242,239,229);"/>
                </g>
                <g transform="matrix(1.493405,0,0,1.493405,1302.248113,-306.340232)">
                    <path d="M201.644,583.863C197.508,585.55 197.514,585.516 193.402,587.268C191.507,588.075 191.488,587.993 189.65,588.947C188.574,589.505 188.543,590.125 187.534,589.442C187.053,589.117 186.468,588.722 189.264,582.394C190.961,578.554 195.352,572.202 201.544,573.251C206.375,574.069 210.675,579.593 218.575,575.631C223.086,573.369 228.438,563.965 236.255,573.679C236.563,574.061 237.728,575.291 237.098,576.153C236.163,577.432 235.158,575.038 212.494,580.476C208.307,581.481 206.377,582.148 201.644,583.863Z" style="fill:rgb(242,239,229);"/>
                </g>
                <g transform="matrix(1.493405,0,0,1.493405,1302.248113,-306.340232)">
                    <path d="M119.098,632.613C122.031,642.31 124.382,643.234 122.499,644.498C121.487,645.178 110.584,643.449 107.451,644.274C98.661,646.589 98.352,656.207 98.31,657.492C98.3,657.826 98.31,658.16 98.305,658.494C98.258,661.209 97.204,660.818 94.489,660.596C91.572,660.359 92.563,657.814 93.351,655.453C97.226,643.842 104.699,643.188 105.668,641.614C107.702,638.309 104.645,630.051 113.505,629.872C114.682,629.849 116.394,629.919 116.458,629.929C118.902,630.31 118.779,631.855 119.098,632.613Z" style="fill:rgb(242,239,229);"/>
                </g>
                <g transform="matrix(1.493405,0,0,1.493405,1302.248113,-306.340232)">
                    <path d="M149.439,617.448C145.518,621.331 144.894,620.916 143.484,620.854C131.14,620.303 130.744,620.554 130.397,619.561C129.679,617.508 132.763,606.509 139.581,602.648C141.076,601.801 142.267,602.022 144.132,604.763C145.899,607.358 148.585,612.245 149.812,614.345C150.748,615.948 150.03,616.58 149.439,617.448Z" style="fill:rgb(242,239,229);"/>
                </g>
                <g transform="matrix(1.493405,0,0,1.493405,1302.248113,-306.340232)">
                    <path d="M134.912,664.684C138.279,657.194 141.252,650.048 147.245,641.329C148.022,640.199 152.811,633.231 157.983,627.966C161.176,624.716 162.707,623.074 163.794,624.235C164.612,625.108 162.962,626.673 162.801,626.826C155.814,633.458 151.455,639.966 150.369,641.409C134.887,661.985 125.247,704.163 122.016,710.219C121.151,711.84 119.782,711.34 119.643,710.457C119.55,709.868 120.301,707.691 120.381,707.457C126.95,688.405 128.797,679.613 134.912,664.684Z" style="fill:rgb(129,45,34);"/>
                </g>
                <g transform="matrix(1.493405,0,0,1.493405,1302.248113,-306.340232)">
                    <path d="M247.036,669.479C246.973,670.173 246.318,677.449 244.652,677.851C242.958,678.259 241.203,675.844 234.455,674.904C230.792,674.394 225.944,675.833 223.354,677.189C220.768,678.544 219.881,678.418 219.162,675.594C218.072,671.306 220.968,672.478 231.524,669.586C240.314,667.178 245.652,664.184 246.658,666.405C246.858,666.847 246.918,667.337 246.928,667.42C247.055,668.456 246.909,668.45 247.036,669.479Z" style="fill:rgb(242,239,229);"/>
                </g>
                <g transform="matrix(1.493405,0,0,1.493405,1302.248113,-306.340232)">
                    <path d="M269.512,639.97C269.592,639.974 274.096,639.873 277.401,641.692C277.839,641.933 282.473,644.482 280.222,647.27C278.496,649.407 274.851,646.913 274.406,646.699C273.978,646.492 271.465,645.279 268.535,645.754C260.738,647.017 258.829,654.117 258.219,655.372C258.107,655.602 257.085,657.704 255.581,657.171C252.55,656.096 254.341,650.871 255.702,648.618C260.875,640.053 268.471,640.114 269.512,639.97Z" style="fill:rgb(129,45,34);"/>
                </g>
                <g transform="matrix(1.493405,0,0,1.493405,1302.248113,-306.340232)">
                    <path d="M224.705,560.748C228.783,557.441 231.987,557.481 236.693,561.253C241.065,564.757 241.99,565.024 242.45,565.548C242.548,565.66 243.645,565.751 242.08,570.33C241.674,571.519 241.682,571.877 240.433,571.691C239.919,571.615 239.21,570.163 238.605,569.416C238.176,568.886 235.278,565.309 231.456,564.788C223.22,563.666 219.692,570.559 218.507,570.584C218.225,570.59 217.481,569.746 217.525,569.501C217.614,569.019 220.791,564.393 224.705,560.748Z" style="fill:rgb(242,239,229);"/>
                </g>
                <g transform="matrix(1.493405,0,0,1.493405,1302.248113,-306.340232)">
                    <path d="M151.36,610.587C150.264,608.847 150.294,608.856 149.05,606.779C147.662,604.464 144.431,600.432 144.507,599.5C144.658,597.642 152.966,595.419 155.487,595.747C157.383,595.994 157.124,596.638 156.911,598.544C156.155,605.281 156.813,609.133 155.328,611.378C153.085,614.768 151.479,610.773 151.36,610.587Z" style="fill:rgb(242,239,229);"/>
                </g>
                <g transform="matrix(1.493405,0,0,1.493405,1302.248113,-306.340232)">
                    <path d="M261.579,592.11C237.05,586.782 228.603,593.582 229.104,589.402C229.236,588.298 233.162,587.898 233.535,587.86C255.777,585.598 270.723,591.971 274.563,593.336C279.341,595.036 277.922,596.408 277.648,596.645C276.851,597.334 274.857,596.319 274.641,596.209C271.105,594.41 262.644,592.367 261.579,592.11Z" style="fill:rgb(129,45,34);"/>
                </g>
                <g transform="matrix(1.493405,0,0,1.493405,1302.248113,-306.340232)">
                    <path d="M189.509,571.862C189.782,571.776 189.958,572.228 190.071,572.656C190.224,573.236 190.112,573.395 189.968,573.599C189.751,573.905 189.772,573.905 188.926,574.728C185.079,578.468 183.025,585.535 182.727,586.561C181.823,589.672 182.18,594.074 179.379,591.694C176.334,589.107 176.144,589.359 175.905,589.108C174.079,587.187 176.445,580.469 182.657,575.707C184.019,574.664 188.299,572.241 189.509,571.862Z" style="fill:rgb(242,239,229);"/>
                </g>
                <g transform="matrix(1.493405,0,0,1.493405,1302.248113,-306.340232)">
                    <path d="M239.441,679.653C239.824,679.834 243.865,680.781 240.375,683.332C233.448,688.394 222.712,683.727 223.753,681.576C224.185,680.685 228.852,677.52 234.519,678.362C237.044,678.737 237.014,678.822 239.441,679.653Z" style="fill:rgb(242,239,229);"/>
                </g>
                <g transform="matrix(1.493405,0,0,1.493405,1302.248113,-306.340232)">
                    <path d="M136.501,624.05C138.073,624.08 141.843,623.954 142.299,624.645C143.105,625.865 141.217,626.227 136.591,633.56C134.892,636.253 134.999,636.416 134.507,636.515C133.303,636.756 133.278,636.467 132.719,635.377C131.877,633.735 129.536,625.927 130.63,624.611C131.282,623.828 135.016,624.053 136.501,624.05Z" style="fill:rgb(242,239,229);"/>
                </g>
                <g transform="matrix(1.493405,0,0,1.493405,1302.248113,-306.340232)">
                    <path d="M87.777,719.371C87.822,719.456 89.705,724.154 94.651,725.294C94.992,725.372 96.278,725.762 96.302,725.78C96.453,725.9 98.083,727.912 94.499,727.381C93.648,727.255 89.763,726.078 89.636,726.03C81.437,722.873 80.86,713.746 82.241,712.265C82.373,712.124 83.069,711.378 84.465,711.337C84.815,711.327 85.156,711.458 85.505,711.486C85.837,711.512 86.258,711.274 86.504,711.498C86.637,711.621 86.481,713.655 86.697,715.477C86.955,717.659 87.687,719.126 87.777,719.371Z" style="fill:rgb(242,239,229);"/>
                </g>
                <g transform="matrix(1.493405,0,0,1.493405,1302.248113,-306.340232)">
                    <path d="M168.326,601.252C168.14,601.385 164.608,603.669 162.144,606.061C161.574,606.614 160.614,607.798 159.783,607.124C159.148,606.609 159.565,606.424 159.845,598.507C159.963,595.163 161.303,595.532 164.526,596.402C164.948,596.515 167.669,597.25 169.617,598.378C170.212,598.722 170.255,598.761 170.243,599.454C170.231,600.155 170.097,600.13 169.49,600.489C168.881,600.851 168.915,600.866 168.326,601.252Z" style="fill:rgb(242,239,229);"/>
                </g>
                <g transform="matrix(1.096812,0,0,1.096812,-164.031873,-86.396939)">
                    <circle cx="1595.971" cy="702.642" r="5.974" style="fill:rgb(242,239,229);"/>
                </g>
                <g transform="matrix(1.493405,0,0,1.493405,1302.248113,-306.340232)">
                    <path d="M163.569,585.168C162.953,584.935 162.93,585.101 162.302,584.863C162.24,584.839 161.764,584.658 161.602,584.422C160.79,583.235 162.868,579.679 167.529,580.046C172.05,580.402 172.197,581.91 171.81,583.565C171.197,586.18 171.119,587.136 168.525,586.405C166.05,585.707 166.07,585.722 163.569,585.168Z" style="fill:rgb(242,239,229);"/>
                </g>
                <g transform="matrix(1.493405,0,0,1.493405,1302.248113,-306.340232)">
                    <path d="M111.576,609.54C111.072,610.216 110.436,611.851 107.639,612.962C107.388,613.062 104.166,614.341 104.286,612.495C104.345,611.594 106.948,609.99 109.502,607.502C109.655,607.352 111.159,605.815 111.542,605.757C112.338,605.637 112.533,606.262 112.578,606.473C112.685,606.969 111.678,609.303 111.576,609.54Z" style="fill:rgb(242,239,229);"/>
                </g>
                <g transform="matrix(1.493405,0,0,1.493405,1302.248113,-306.340232)">
                    <path d="M196.521,630.167C196.346,630.138 194.333,629.8 194.333,629.8C192.924,629.294 193.118,627.659 194.463,627.386C194.897,627.298 194.886,627.349 197.501,627.479C201.31,627.669 202.696,626.074 203.818,627.276C204.246,627.736 205.021,630.35 196.521,630.167Z" style="fill:rgb(129,45,34);"/>
                </g>
                <g transform="matrix(1.493405,0,0,1.493405,1302.248113,-306.340232)">
                    <path d="M219.607,590.878C221.355,590.46 221.34,590.442 221.494,590.427C223.777,590.207 223.681,592.093 222.592,592.626C221.421,593.199 215.943,594.87 215.36,595.048C215.148,595.113 212.229,596.003 212.946,593.69C213.236,592.755 216.989,591.729 219.607,590.878Z" style="fill:rgb(129,45,34);"/>
                </g>
                <g transform="matrix(1.493405,0,0,1.493405,1302.248113,-306.340232)">
                    <path d="M306.623,656.819C307.665,656.359 307.641,656.35 308.653,655.833C308.835,655.741 311.011,654.63 311.11,656.504C311.215,658.486 302.657,662.127 302.436,659.51C302.311,658.023 305.447,657.237 306.623,656.819Z" style="fill:rgb(129,45,34);"/>
                </g>
                <g transform="matrix(1.493405,0,0,1.493405,1302.248113,-306.340232)">
                    <path d="M261.504,616.854C263.535,617.056 263.528,617.022 263.697,617.072C263.768,617.093 264.385,617.273 264.538,617.467C264.768,617.758 266.052,620.2 260.474,619.705C258.078,619.492 258.028,617.993 259.287,617.184C259.878,616.804 259.926,616.968 261.504,616.854Z" style="fill:rgb(129,45,34);"/>
                </g>
                <g transform="matrix(1.493405,0,0,1.493405,1302.248113,-306.340232)">
                    <path d="M140.519,713.631C140.754,713.608 142.92,713.399 143.47,713.562C144.243,713.791 144.284,714.421 144.29,714.522C144.418,716.476 139.983,716.509 139.505,716.468C137.864,716.329 137.59,715.007 138.318,714.346C139.053,713.678 139.155,713.917 140.519,713.631Z" style="fill:rgb(129,45,34);"/>
                </g>
                <g transform="matrix(1.493405,0,0,1.493405,1302.248113,-306.340232)">
                    <path d="M164.503,687.261C164.846,687.308 165.198,687.253 165.54,687.3C167.925,687.624 168.016,689.441 165.667,689.975C160.353,691.182 161.158,688.376 161.809,687.874C162.557,687.296 162.645,687.526 164.503,687.261Z" style="fill:rgb(129,45,34);"/>
                </g>
                <g transform="matrix(1.493405,0,0,1.493405,1302.248113,-306.340232)">
                    <path d="M229.5,601.723C230.887,601.893 231.014,601.608 231.749,602.3C232.434,602.945 231.758,604.016 231.349,604.21C230.942,604.403 228.731,604.412 228.503,604.413C228.273,604.414 225.976,604.424 225.806,603.422C225.468,601.43 229.354,601.729 229.5,601.723Z" style="fill:rgb(129,45,34);"/>
                </g>
                <g transform="matrix(1.493405,0,0,1.493405,1302.248113,-306.340232)">
                    <path d="M278.494,680.485C278.223,680.566 276.14,681.54 275.275,680.747C275.009,680.503 273.472,678.852 278.522,677.622C278.709,677.577 280.687,677.095 280.771,678.46C280.826,679.359 279.482,680.079 279.324,680.164C279.063,680.304 278.755,680.345 278.494,680.485Z" style="fill:rgb(129,45,34);"/>
                </g>
                <g transform="matrix(1.493405,0,0,1.493405,1302.248113,-306.340232)">
                    <path d="M164.474,658.159C164.322,658.161 162.57,658.175 162.57,658.175C159.805,657.317 161.65,656.011 161.806,655.9C162.467,655.433 166.454,654.735 167.21,656.553C167.509,657.271 166.755,657.641 166.665,657.685C166.504,657.764 166.503,657.72 164.474,658.159Z" style="fill:rgb(129,45,34);"/>
                </g>
                <g transform="matrix(1.493405,0,0,1.493405,1302.248113,-306.340232)">
                    <path d="M191.462,705.245C191.144,705.238 190.829,705.314 190.512,705.307C188.157,705.257 187.905,703.04 190.48,702.425C190.756,702.359 193.785,701.636 193.871,703.455C193.92,704.489 193.662,704.428 192.737,704.911C192.644,704.96 192.643,704.936 191.462,705.245Z" style="fill:rgb(129,45,34);"/>
                </g>
                <g transform="matrix(1.493405,0,0,1.493405,1302.248113,-306.340232)">
                    <path d="M298.542,630.741C300.283,630.712 300.368,630.397 301.173,630.957C301.918,631.477 301.54,632.379 301.491,632.495C301.202,633.184 299.676,633.47 299.501,633.503C295.614,634.229 296.212,631.429 297.684,630.923C297.961,630.828 298.266,630.836 298.542,630.741Z" style="fill:rgb(129,45,34);"/>
                </g>
                <g transform="matrix(1.493405,0,0,1.493405,1302.248113,-306.340232)">
                    <path d="M230.369,640.018C230.162,640.039 228.145,640.247 227.765,640.022C227.573,639.908 226.401,637.986 229.478,637.381C232.788,636.731 232.651,638.977 231.534,639.543C231.16,639.733 230.743,639.828 230.369,640.018Z" style="fill:rgb(129,45,34);"/>
                </g>
            </g>
            <g transform="matrix(1.594131,0,0,1,-3874.856393,-15.421307)">
                <circle cx="3261.526" cy="524.896" r="1.591" style="fill:rgb(129,45,34);"/>
            </g>
            <g transform="matrix(1.594131,0,0,1,-3858.698099,-23.304961)">
                <circle cx="3261.526" cy="524.896" r="1.591" style="fill:rgb(129,45,34);"/>
            </g>
            <g transform="matrix(1.594131,0,0,1,-3884.035254,-9.386234)">
                <circle cx="3261.526" cy="524.896" r="1.591" style="fill:rgb(129,45,34);"/>
            </g>
            <g transform="matrix(1.594131,0,0,1,-3826.479286,-13.410334)">
                <circle cx="3261.526" cy="524.896" r="1.591" style="fill:rgb(129,45,34);"/>
            </g>
            <g transform="matrix(1.594131,0,0,1,-3821.850442,-35.735258)">
                <circle cx="3261.526" cy="524.896" r="1.591" style="fill:rgb(129,45,34);"/>
            </g>
            <g transform="matrix(1.594131,0,0,1,-3826.9241,-44.982681)">
                <circle cx="3261.526" cy="524.896" r="1.591" style="fill:rgb(129,45,34);"/>
            </g>
            <g transform="matrix(1.594131,0,0,1,-3811.78673,-61.605075)">
                <circle cx="3261.526" cy="524.896" r="1.591" style="fill:rgb(129,45,34);"/>
            </g>
            <g transform="matrix(1.594131,0,0,1,-3820.432477,-67.75336)">
                <circle cx="3261.526" cy="524.896" r="1.591" style="fill:rgb(129,45,34);"/>
            </g>
            <g transform="matrix(1.594131,0,0,1,-3807.605956,-43.391326)">
                <circle cx="3261.526" cy="524.896" r="1.591" style="fill:rgb(129,45,34);"/>
            </g>
            <g transform="matrix(1.594131,0,0,1,-3854.780102,5.888028)">
                <circle cx="3261.526" cy="524.896" r="1.591" style="fill:rgb(129,45,34);"/>
            </g>
            <g transform="matrix(1.594131,0,0,1,-3843.863552,-5.1639)">
                <circle cx="3261.526" cy="524.896" r="1.591" style="fill:rgb(129,45,34);"/>
            </g>
            <g transform="matrix(1.594131,0,0,1,-3832.083961,1.764175)">
                <circle cx="3261.526" cy="524.896" r="1.591" style="fill:rgb(129,45,34);"/>
            </g>
            <g transform="matrix(1.594131,0,0,1,-3839.309051,11.708186)">
                <circle cx="3261.526" cy="524.896" r="1.591" style="fill:rgb(129,45,34);"/>
            </g>
            <g transform="matrix(1.594131,0,0,1,-3846.586226,25.701711)">
                <circle cx="3261.526" cy="524.896" r="1.591" style="fill:rgb(129,45,34);"/>
            </g>
            <g transform="matrix(1.594131,0,0,1,-3877.71196,12.413745)">
                <circle cx="3261.526" cy="524.896" r="1.591" style="fill:rgb(129,45,34);"/>
            </g>
        </g>
    </g>
</svg>
