<?xml version="1.0" encoding="UTF-8" standalone="no"?>
<!DOCTYPE svg PUBLIC "-//W3C//DTD SVG 1.1//EN" "http://www.w3.org/Graphics/SVG/1.1/DTD/svg11.dtd">
<svg width="100%" height="100%" viewBox="0 0 495 434" version="1.1" xmlns="http://www.w3.org/2000/svg" xmlns:xlink="http://www.w3.org/1999/xlink" xml:space="preserve" xmlns:serif="http://www.serif.com/" style="fill-rule:evenodd;clip-rule:evenodd;stroke-linejoin:round;stroke-miterlimit:2;">
    <g transform="matrix(1,0,0,1,-8400.001841,-201.073798)">
        <g transform="matrix(2.211214,0,0,1.482332,-200.62803,92.293922)">
            <g id="Fondo" transform="matrix(0.391103,0,0,0.583413,3801.006328,-77.423977)">
                <path d="M342.876,517.438C339.006,487.905 336.206,445.84 368.907,394.758C390.496,361.036 428.453,333.239 467.491,323.464C482.126,319.799 490.421,320.438 487.693,317.376C480.564,309.371 484.362,300.72 491.632,275.538C498.316,252.386 523.158,254.912 530.222,270.623C531.408,273.262 538.405,297.773 539.07,300.595C542.67,315.877 530.834,318.807 536.445,319.666C537.81,319.875 539.19,319.97 540.554,320.183C621.849,332.822 681.091,405.745 682.853,482.489C683.631,516.37 677.189,521.305 681.762,524.047C691.303,529.769 689.278,535.668 690.04,538.605C690.879,541.836 710.527,545.662 735.412,559.658C775.545,582.23 772.327,589.196 783.478,590.651C792.023,591.765 800.582,600.318 796.779,609.611C792.42,620.262 779.461,620.443 777.588,620.835C774.643,621.453 770.072,630.584 764.136,637.183C733.436,671.309 699.88,680.31 681.42,686.314C678.82,687.16 680.106,688.667 695.873,717.288C714.044,750.27 679.547,768.407 657.736,755.084C650.654,750.759 625.356,722.513 611.075,705.929C606.884,701.062 607.589,723.087 594.415,730.347C587.638,734.082 587.119,732.975 472.5,733.149C431.967,733.21 425.776,735.858 417.863,714.366C415.481,707.897 416.086,701.379 411.907,706.852C407.873,712.135 375.418,747.219 371.235,751.216C359.362,762.559 340.382,762.086 330.767,752.228C309.944,730.877 336.311,706.547 343.349,688.446C345.887,681.918 290.784,682.661 250.126,624.765C246.521,619.632 245.61,620.867 239.465,619.658C222.061,616.233 221.991,593.705 239.559,590.884C251.241,589.008 248.603,583.958 274.217,568.023C302.143,550.649 319.076,545.473 331.583,540.708C336.971,538.655 329.288,532.242 341.834,523.99C344.326,522.351 343.593,521.45 342.876,517.438Z" style="fill:rgb(52,65,69);"/>
                <path d="M589.449,576.071C598,574.943 635.011,571.67 666.382,560.195C681.896,554.52 680.865,549.041 688.462,551.615C737.339,568.172 766.947,595.032 772.712,600.262C775.657,602.934 787,600.434 785.422,605.47C784.442,608.599 733.77,620.759 695.493,626.458C441.715,664.244 242.664,610.759 238.948,606.119C234.769,600.902 248.22,602.937 251.18,600.15C256.052,595.563 282.2,570.947 322.452,556.375C334.57,551.988 338.309,549.228 342.074,551.993C377.351,577.903 502.342,585.316 589.449,576.071Z" style="fill:rgb(240,238,220);"/>
                <path d="M364.082,527.467C363.739,527.66 364.183,528.43 363.839,528.624C363.836,528.626 362.512,528.037 359.464,529.283C358.352,529.738 358.393,529.462 357.27,529.65C331.39,430.27 403.057,357.198 453.614,339.898C458.543,338.211 453.248,346.15 458.506,351.494C466.994,360.12 529.058,359.432 555.521,355.635C571.303,353.37 566.785,342.803 567.472,340.489C568.53,336.926 603.612,353.866 625.389,376.607C684.737,438.581 672.145,504.334 666.524,529.512C662.839,528.944 662.892,529.026 659.494,527.501C659.461,526.986 665.7,509.67 615.426,498.836C605.006,496.59 596.604,496.414 598.294,494.43C601.736,490.389 618.876,470.266 611.742,429.454C611.52,428.187 608.836,412.835 598.798,419.902C594.563,422.884 589.192,432.579 587.637,430.381C585.306,427.086 586.059,426.691 580.93,420.151C548.358,378.625 473.537,372.042 437.027,428.198C434.039,432.796 433.165,429.006 430.207,425.768C428.514,423.916 423.151,416.447 417.566,418.652C409.923,421.669 402.997,470.033 424.354,493.615C427.899,497.528 421.18,494.851 396.612,501.909C369.29,509.758 364.546,516.756 364.082,527.467Z" style="fill:rgb(240,237,220);"/>
                <path d="M583.021,498.5C583.319,497.776 592.721,479.018 592.278,464.506C592.264,464.05 592.109,458.951 588.409,460.306C584.432,461.764 588.407,500.028 547.219,525.044C509.532,547.934 446.464,528.517 437.41,466.511C435.899,456.16 431.594,461.934 431.469,462.494C430.825,465.363 432.345,485.379 440.027,496.734C441.19,498.452 440.37,500.097 438.481,498.536C415.503,479.54 416.513,455.27 419.587,431.51C420.714,422.805 425.03,432.136 429.923,438.152C434.277,443.506 437.266,447.384 438.182,445.298C439.14,443.118 444.07,423.679 467.2,409.031C512.013,380.649 568.559,401.637 584.29,442.576C586.496,448.315 588.302,444.138 590.954,440.865C600.72,428.815 603.08,424.551 603.796,429.428C610.105,472.406 597.28,488.413 584.518,498.574L583.021,498.5Z" style="fill:rgb(171,199,102);"/>
                <path d="M654.573,680.854C555.532,698.694 368.872,698.398 303.239,657.923C284.71,646.496 280.557,643.485 266.189,627.633C262.833,623.931 268.397,626.84 298.464,632.675C394.267,651.268 567.093,663.053 727.443,632.21C742.101,629.391 742.05,629.428 756.517,625.792C759.889,624.945 755.786,629.338 755.573,629.565C736.852,649.611 715.4,668.558 654.573,680.854Z" style="fill:rgb(221,220,201);"/>
                <path d="M580.5,721.885C536.833,721.889 493.166,721.892 449.498,721.896C432.656,721.845 431.283,719.665 426.385,703.533C425.895,701.917 424.596,699.656 428.53,700.187C440.698,701.83 518.908,706.139 588.517,700.761C595.007,700.259 599.199,698.259 597.275,704.432C593.036,718.033 591.557,721.112 580.5,721.885Z" style="fill:rgb(146,165,165);"/>
                <path d="M372.571,693.081C399.544,697.639 407.219,695.538 402.045,701.073C367.08,738.482 359.947,752.213 344.605,747.199C340.625,745.898 329.486,738.78 336.816,724.667C354.566,690.494 355.35,689.6 358.555,690.195C360.786,690.609 360.746,690.623 372.571,693.081Z" style="fill:rgb(220,220,201);"/>
                <path d="M651.574,692.938C664.52,690.321 666.992,689.382 668.217,690.738C668.714,691.288 686.107,723.034 687.037,724.752C696.051,741.404 677.38,755.871 660.877,743.027C657.957,740.754 627.591,707.581 627.025,706.927C624.397,703.888 617.3,697.95 621.486,697.434C636.613,695.567 636.535,695.525 651.574,692.938Z" style="fill:rgb(220,219,201);"/>
                <path d="M465.504,448.079C473.784,449.166 480.389,449.253 490.692,463.37C496.294,471.047 512.902,509.384 477.599,502.081C444.528,495.241 433.118,450.379 465.504,448.079Z" style="fill:rgb(51,64,68);"/>
                <path d="M575.867,461.396C584.009,497.245 526.234,515.621 524.146,493.552C521.322,463.712 552.189,437.366 570.27,451.806C574.438,455.135 575.545,460.499 575.867,461.396Z" style="fill:rgb(51,64,68);"/>
                <path d="M470.542,366.959C479.829,368.1 475.939,375.517 475.253,376.293C471.788,380.211 416.558,386.758 385.06,452.281C381.326,460.049 374.931,456.087 373.926,452.39C372.462,446.999 403.517,383.115 470.542,366.959Z" style="fill:rgb(53,64,69);"/>
                <path d="M555.789,529.719C561.934,525.436 561.935,525.553 567.581,520.59C570.688,517.859 606.921,522.792 629.459,530.626C634.377,532.336 641.536,534.05 636.377,536.236C621.737,542.437 585.07,548.881 582.99,546.133C577.734,539.186 571.349,534.36 556.573,531.31C556.312,530.78 556.05,530.249 555.789,529.719Z" style="fill:rgb(144,163,164);"/>
                <path d="M403.572,541.218C402.122,540.821 386.753,536.616 385.721,535.33C381.941,530.613 450.965,515.894 456.261,520.757C465.942,529.647 466.933,528.521 467.453,529.533C470.425,535.32 457.197,525.849 440.252,546.267C437.751,549.28 406.455,541.898 403.572,541.218Z" style="fill:rgb(144,163,164);"/>
                <path d="M490.443,331.059C504.951,329.587 504.882,329.519 519.488,329.907C531.122,330.216 551.956,333.877 554.705,335.096C557.256,336.228 556.189,342.961 555.599,343.591C553.614,345.708 512.342,349.02 475.548,345.111C469.252,344.442 467.257,344.902 467.295,338.495C467.321,334.147 471.491,333.952 490.443,331.059Z" style="fill:rgb(238,236,220);"/>
                <path d="M708.556,599.844C671.901,601.601 664.384,555.516 695.508,562.465C711.684,566.076 734.048,591.507 708.556,599.844Z" style="fill:rgb(53,64,69);"/>
                <path d="M523.764,288.413C526.297,296.968 535.798,316.81 513.496,318.432C502.549,319.228 493.222,313.084 495.849,302.579C503.179,273.261 505.338,272.173 507.752,270.957C517.568,266.011 520.886,278.342 521.219,279.577C522.43,284.077 522.48,283.955 523.764,288.413Z" style="fill:rgb(239,237,220);"/>
                <path d="M659.494,527.501C662.892,529.026 662.839,528.944 666.524,529.512C666.465,530.163 664.438,538.084 669.51,539.46C675.337,541.04 677.102,531.622 678.392,536.549C678.782,538.037 681.705,543.54 652.386,553.15C632.061,559.813 588.151,564.953 582.512,565.613C580.832,565.81 570.283,567.755 576.124,564.145C581.436,560.861 580.284,558.547 586.534,557.988C592.507,557.455 647.917,552.505 657.355,533.428C658.194,531.731 658.059,531.768 659.494,527.501Z" style="fill:rgb(145,163,165);"/>
                <path d="M364.082,527.467C366.794,537.245 372.519,549.146 427.436,556.929C438.226,558.458 439.076,556.599 443.804,561.209C446.146,563.493 447.94,565.759 447.479,566.333C437.377,564.928 408.939,562.75 384.47,556.623C381.045,555.765 343.025,546.926 345.408,536.463C346.408,532.074 348.267,540.262 353.514,539.657C359.493,538.968 357.427,531.167 357.27,529.65C358.393,529.462 358.352,529.738 359.464,529.283C362.512,528.037 363.836,528.626 363.839,528.624C364.183,528.43 363.739,527.66 364.082,527.467Z" style="fill:rgb(144,163,165);"/>
                <path d="M302.569,586.423C289.66,571.336 314.973,559.227 325.404,564.687C345.722,575.321 320.449,600.06 302.569,586.423Z" style="fill:rgb(54,65,69);"/>
                <path d="M541.717,551.5C541.819,550.628 541.448,542.333 548.682,538.977C556.459,535.37 583.035,544.95 575.039,557.185C570.471,564.174 570.854,553.428 570.462,552.52C567.502,545.663 566.528,562.089 561.51,562.615C554.893,563.309 558.88,548.414 556.409,546.655C554.179,545.068 550.307,559.233 549.69,560.586C549.289,561.466 543.618,566.135 541.717,551.5Z" style="fill:rgb(167,195,105);"/>
                <path d="M481.619,549.492C481.636,563.458 474.254,564.284 472.731,559.439C472.189,557.715 468.291,543.24 466.438,547.455C464.94,550.863 466.778,564.661 460.538,562.401C457.518,561.307 455.068,545.209 452.619,552.55C451.155,556.94 453.043,561.432 449.54,558.449C442.637,552.571 449.885,546.375 450.662,545.711C457.941,539.488 477.723,531.618 481.314,547.541C481.459,548.183 481.474,548.85 481.619,549.492Z" style="fill:rgb(168,195,103);"/>
                <path d="M521.46,541.161C528.018,540.041 527.973,540.026 528.543,539.952C530.858,539.651 531.837,544.233 533.042,547.662C533.14,547.938 534.238,551.061 532.437,551.271C531.389,551.393 497.218,551.367 491.512,551.319C488.431,551.293 489.299,549.419 491.641,542.544C493.994,535.636 497.358,543.615 521.46,541.161Z" style="fill:rgb(169,196,106);"/>
                <path d="M543.282,568.246C540.602,568.699 480.04,568.692 479.732,568.238C479.668,568.144 479.073,567.268 479.741,566.81C481.392,565.677 486.288,561.618 490.495,561.715C520.005,562.399 535.73,560.817 537.484,562.516C537.676,562.702 543.227,566.798 543.282,568.246Z" style="fill:rgb(142,161,164);"/>
                <path d="M600.424,511.921C590.984,510.359 591.103,510.223 581.523,509.39C579.042,509.175 580.281,507.011 580.661,506.638C583.856,503.51 622.313,509.481 641.534,519.437C650.073,523.86 647.272,526.621 646.569,526.308C639.379,523.111 639.638,519.648 600.424,511.921Z" style="fill:rgb(141,157,164);"/>
                <path d="M382.398,523.288C378.943,525.243 375.826,527.285 375.654,525.47C374.744,515.865 439.043,502.093 443.112,506.803C447.917,512.367 422.686,507.127 382.398,523.288Z" style="fill:rgb(142,159,163);"/>
                <path d="M708.892,585.475C706.195,600.336 674.977,572.859 690.484,572.135C691.256,572.099 694.117,571.965 699.618,575.294C708.325,580.564 708.276,583.554 708.892,585.475Z" style="fill:rgb(236,236,221);"/>
                <path d="M466.593,424.703C457.803,428.212 461.257,421.91 461.552,421.536C467.777,413.63 487.482,402.625 488.757,406.218C491.211,413.134 487.386,412.448 471.705,421.838C469.168,423.357 469.275,423.337 466.593,424.703Z" style="fill:rgb(209,228,157);"/>
                <path d="M506.552,516.422C513.85,519.119 513.827,516.612 518.331,515.032C523.825,513.105 519.851,525.245 507.524,521.436C505.013,520.66 502.942,518.812 502.586,517.473C502.502,517.155 501.496,513.366 506.552,516.422Z" style="fill:rgb(55,72,55);"/>
                <path d="M311.414,575.369C312.172,575.037 319.483,571.843 321.709,574.325C326.278,579.417 302.567,583.623 311.414,575.369Z" style="fill:rgb(228,232,223);"/>
                <path d="M542.38,472.098C532.793,472.593 536.98,460.428 543.591,464.374C544.402,464.859 545.408,466.679 545.236,468.468C544.991,471.01 544.505,470.809 542.38,472.098Z" style="fill:rgb(232,231,221);"/>
                <path d="M455.281,465.487C455.394,465.105 456.254,462.204 458.559,461.727C460.852,461.253 462.107,462.458 462.331,462.674C467.292,467.437 457.381,475.377 455.281,465.487Z" style="fill:rgb(234,235,224);"/>
                <path d="M562.405,436.613C558.114,433.574 557.789,434.621 553.596,434.142C548.967,433.613 557.36,426.782 563.97,434.06C565.878,436.162 564.822,438.224 562.405,436.613Z" style="fill:rgb(52,69,38);"/>
                <path d="M468.437,430.929C476.984,434.126 464.82,433.94 461.83,435.947C461.613,436.092 456.532,439.503 458.595,435.539C460.694,431.507 467.57,430.993 468.437,430.929Z" style="fill:rgb(54,72,35);"/>
                <path d="M555.789,529.719C556.05,530.249 556.312,530.78 556.573,531.31C556.466,531.246 555.238,530.5 555.238,530.5C555.25,530.182 555.777,530.037 555.789,529.719Z" style="fill:rgb(108,126,128);"/>
            </g>
        </g>
    </g>
</svg>
