<?xml version="1.0" encoding="UTF-8" standalone="no"?><!DOCTYPE svg PUBLIC "-//W3C//DTD SVG 1.1//EN" "http://www.w3.org/Graphics/SVG/1.1/DTD/svg11.dtd"><svg width="100%" height="100%" viewBox="0 0 339 535" version="1.1" xmlns="http://www.w3.org/2000/svg" xmlns:xlink="http://www.w3.org/1999/xlink" xml:space="preserve" xmlns:serif="http://www.serif.com/" style="fill-rule:evenodd;clip-rule:evenodd;stroke-linejoin:round;stroke-miterlimit:2;"><g id="Fondo"><path d="M227.821,414.535c-0.299,0.189 -0.964,-0.295 -1.039,1.534c-1.138,27.508 -13.992,31.487 -14.079,38.019c-0.067,5.066 -0.763,11.643 1.528,11.948c19.753,2.629 7.161,15.487 12.788,18.073c1.407,0.646 1.577,0.044 18.495,5.696c7.615,2.544 30.367,-6.634 43.426,17.005c1.672,3.027 3.998,13.311 1.875,18.198c-2.884,6.639 -4.47,5.998 -27.872,8.842c-18.041,2.192 -17.949,-0.217 -41.944,-7.407c-25.085,-7.517 -29.359,-8.765 -31.916,-9.512c-10.522,-3.073 -8.864,-6.399 -8.892,-30.724c-0.017,-14.273 1.012,-17.549 -2.945,-16.928c-14.748,2.314 -19.405,-2.643 -19.324,2.332c0.6,36.734 0.751,36.83 -0.472,39.768c-2.452,5.889 -20.006,8.395 -62.787,21.905c-8.484,2.679 -11.256,1.244 -35.141,-1.434c-2.21,-0.248 -15.723,1.008 -12.301,-18.31c1.667,-9.411 11.004,-22.33 26.898,-23.318c9.205,-0.572 15.135,0.901 19.335,-0.52c17.75,-6.003 18.855,-5.204 18.943,-7.339c0.143,-3.463 -0.132,-3.366 0.038,-6.842c0.498,-10.151 12.116,-8.949 12.733,-10.493c0.116,-0.289 0.901,-11.537 -0.353,-13.917c-0.236,-0.449 -9.028,-9.223 -12.773,-27.195c-0.635,-3.047 -0.397,-16.695 -3.177,-6.969c-1.566,5.476 -3.955,5.226 -2.265,10.743c0.346,1.129 14.476,37.695 -7.158,41.18c-7.002,1.128 -8.881,-5.205 -12.906,-2.443c-11.83,8.117 -17.823,-4.976 -18.474,-6.398c-0.919,-2.007 -18.644,0.034 -19.37,-16.649c-0.416,-9.567 5.953,-7.619 27.948,-40.164c19.276,-28.521 39.268,-56.545 42.745,-61.419c3.498,-4.904 2.894,-5.468 8.053,-8.697c6.886,-4.309 -13.217,1.287 -56.902,-28.425c-39.485,-26.855 -91.347,-98.253 -61.841,-189.402c32.392,-100.067 165.298,-158.398 268.507,-76.381c55.621,44.201 88.717,141.416 31.043,225.08c-11.107,16.112 -43.212,53.64 -96.768,66.892c-5.425,1.342 1.431,2.101 5.249,7.701c49.486,72.576 56.758,81.103 62.342,87.65c2.563,3.005 17.936,15.15 5.94,27.542c-7.474,7.721 -12.189,1.188 -15.511,7.996c-2.793,5.724 -10.288,10.745 -18.538,4.45c-3.348,-2.554 -12.285,8.929 -20.949,-2.496c-8.909,-11.749 4.278,-36.125 1.625,-41.67c-1.593,-3.329 -1.691,-3.218 -2.92,-6.771c-0.298,-0.243 -0.596,-0.486 -0.894,-0.729Z" style="fill:#403d40;"/><path d="M77.991,40.372c0.707,-0.465 7.214,-4.954 8.035,-5.426c100.3,-57.716 183.044,2.763 209.564,38.881c76.046,103.568 7.746,243.169 -118.278,251.069c-41.154,2.58 -78.746,-14.447 -94.129,-25.076c-25.883,-17.885 -31.565,-26.093 -43.617,-41.999c-25.873,-34.144 -33.717,-86.222 -25.449,-120.977c14.184,-59.62 46.579,-83.057 63.874,-96.472Z" style="fill:#85b96f;"/><path d="M22.655,138.814c1.839,-1.868 3.985,-5.838 14.446,-7.135c34.028,-4.219 67.813,23.018 72.637,26.907c12.577,10.139 38.696,39.808 39.824,77.481c1.004,33.536 -47.432,23.675 -76.208,9.277c-23.94,-11.978 -42.902,-41.561 -46.964,-53.096c-6.484,-18.415 -12.834,-38.615 -3.734,-53.434Z" style="fill:#3d3b3f;"/><path d="M281.432,234.084c-4.86,3.756 -36.582,28.277 -72.954,23.924c-5.873,-0.703 -25.515,-2.374 -18.149,-35.506c19.484,-87.63 128.002,-112.261 129.681,-73.079c2.113,49.325 -32.959,79.781 -38.579,84.662Z" style="fill:#3d3b3f;"/><path d="M130.215,369.286c0.657,-1.901 7.618,-22.039 8.745,-23.567c2.91,-3.945 12.168,16.204 42.172,8.874c9.108,-2.225 8.715,-3.155 15.873,-9.156c2.033,-1.705 3.824,1.237 11.505,25.883c4.755,15.257 10.322,44.792 5.71,45.488c-2.679,0.404 -50.094,0.165 -54.45,0.143c-35.435,-0.179 -37.707,1.008 -37.669,-2.796c0.054,-5.375 0.083,-18.331 8.114,-44.87Z" style="fill:#f84c4a;"/><path d="M138.3,448.308c-1.211,-1.049 -8.81,-7.629 -12.386,-15.731c-2.61,-5.914 2.196,-4.187 5.626,-4.228c14.027,-0.167 80.713,-0.111 80.948,-0.053c4.893,1.208 -10.782,25.151 -30.411,29.346c-27.998,5.983 -43.111,-8.806 -43.777,-9.333Z" style="fill:#83b56e;"/><path d="M196.761,478.116c13.915,0.012 18.087,-0.784 18.202,2.261c0.461,12.136 -10.85,8.919 -8.51,16.549c2.756,8.99 10.929,-3.229 15.659,-2.178c15.925,3.537 16.18,3.683 16.662,4.989c1.91,5.176 3.468,4.205 8.673,2.286c0.272,-0.1 19.282,-2.53 26.134,2.778c4.545,3.521 10.668,14.855 4.021,15.796c-2.252,0.319 -24.435,3.462 -28.302,2.714c-2.518,-0.487 -45.607,-13.686 -49.566,-14.899c-0.691,-0.212 -8.588,-1.337 -8.599,-4.692c-0.078,-23.656 -0.806,-24.01 0.751,-25.306c0,-0 4.483,-0.274 4.873,-0.298Z" style="fill:#f4a63b;"/><path d="M139.321,478.108c6.343,0.236 6.339,0.051 6.848,0.255c1.683,0.675 1.18,26.749 0.091,27.434c-3.801,2.389 -4.14,1.565 -53.634,16.5c-4.978,1.502 -5.085,0.969 -22.437,-0.809c-10.299,-1.056 -13.116,-0.506 -12.246,-5.031c3.688,-19.166 27.862,-16.459 36.638,-12.816c4.29,1.781 4.675,-2.975 5.053,-3.7c0.632,-1.213 0.958,-1.839 16.293,-5.177c4.893,-1.065 11.233,9.797 15.161,3.748c5.199,-8.006 -7.749,-5.878 -7.786,-18.173c-0.009,-2.928 4.934,-2.227 16.018,-2.23Z" style="fill:#f3a638;"/><path d="M72.143,444.066c-5.445,1.012 -7.785,7.046 -11.6,2.181c-4.16,-5.306 5.778,-8.867 17.985,-26.553c1.868,-2.706 2.074,-3.911 5.63,-2.112c7.309,3.698 9.541,2.259 11.21,10.257c0.727,3.484 10.945,31.932 1.145,30.064c-4.623,-0.881 0.26,-12.777 -8.724,-10.424c-6.06,1.587 -1.418,14.682 -8.911,9.655c-4.552,-3.054 2.548,-12.268 -6.735,-13.068Z" style="fill:#83b46f;"/><path d="M243.019,426.785c1.314,-5.925 2.501,-5.398 12.091,-9.811c3.149,-1.449 2.988,0.159 5.043,2.949c15.2,20.637 19.359,19.212 17.852,24.562c-1.939,6.884 -8.362,0.219 -10.157,-0.258c-10.823,-2.879 -2.644,10.754 -9.843,13.495c-6.257,2.383 -0.385,-8.844 -7.738,-10.3c-8.462,-1.676 -4.718,9.964 -8.731,10.56c-8.359,1.241 -1.001,-19.028 1.484,-31.196Z" style="fill:#81b46c;"/><path d="M183.219,284.973c6.38,-2.937 6.345,-2.856 12.648,-5.911c6.651,-3.223 12.184,6.594 -1.24,13.036c-28.097,13.485 -47.992,1.309 -50.295,0.13c-14.847,-7.601 -6.977,-16.542 -1.188,-13.223c16.683,9.563 22.555,10.158 40.074,5.968Z" style="fill:#3d3f3e;"/><path d="M230.959,391.729c-0.875,-2.014 -8.098,-18.652 -11.29,-25.022c-15.175,-30.284 6.818,5.23 13.584,15.046c15.228,22.093 15.814,21.662 16.896,23.725c0.421,0.803 1.5,2.86 -9.559,6.097c-1.684,0.493 -1.306,-0.717 -9.631,-19.846Z" style="fill:#e15050;"/><path d="M110.63,372.939c7.426,-9.992 13.262,-21.509 12.755,-16.176c-0.068,0.715 -4.789,9.99 -12.34,27.213c-10.942,24.957 -10.279,25.333 -11.873,27.082c-1.658,1.818 -11.984,-3.141 -11.015,-5.524c0.875,-2.15 1.354,-1.85 16.664,-23.75c1.182,-0.203 0.247,1.563 1.41,1.363c0.281,-0.048 1.373,-0.236 2.879,-2.101c0.093,-0.115 -0.893,-0.501 1.423,-2.889l0.205,-0.973l0.27,-0.973l0.776,-0.973l0.58,-0.973l-1.735,-1.326Z" style="fill:#e25150;"/><path d="M149.08,334.811c31.285,4.268 36.149,-0.944 40.009,0.207c0.856,0.255 3.131,3.202 -8.039,7.74c-18.943,7.697 -33.852,-5.897 -33.521,-6.699c0.125,-0.302 0.683,-0.253 0.808,-0.556l0.742,-0.692Z" style="fill:#80af72;"/><g><circle cx="126.34" cy="238.794" r="9.258" style="fill:#ebebeb;"/><circle cx="212.071" cy="238.794" r="9.258" style="fill:#ebebeb;"/></g><path d="M142.144,464.014c8.988,3.403 -5.839,4.687 -6.111,0.814c-0.021,-0.293 -0.24,-3.415 1.343,-3.414c0.434,0 0.328,0.223 4.767,2.6Z" style="fill:#87af80;"/><path d="M198.705,466.736c-3.954,0.009 -5.268,1.18 -5.069,-1.009c0.07,-0.772 2.064,-1.545 2.273,-1.626c4.802,-1.862 6.374,-2.963 6.219,-0.262c-0.216,3.752 -2.37,2.748 -3.423,2.897Z" style="fill:#8dac80;"/><path d="M110.63,372.939l1.735,1.326l-0.58,0.973l-0.776,0.973l-0.27,0.973l-0.205,0.973c-2.316,2.388 -1.33,2.773 -1.423,2.889c-1.505,1.865 -2.598,2.053 -2.879,2.101c-1.163,0.2 -0.229,-1.567 -1.41,-1.363c0.475,-0.701 3.964,-5.855 5.808,-8.845Z" style="fill:#e2595d;"/></g></svg>