<?xml version="1.0" encoding="UTF-8" standalone="no"?>
<!DOCTYPE svg PUBLIC "-//W3C//DTD SVG 1.1//EN" "http://www.w3.org/Graphics/SVG/1.1/DTD/svg11.dtd">
<svg width="100%" height="100%" viewBox="0 0 516 486" version="1.1" xmlns="http://www.w3.org/2000/svg" xmlns:xlink="http://www.w3.org/1999/xlink" xml:space="preserve" xmlns:serif="http://www.serif.com/" style="fill-rule:evenodd;clip-rule:evenodd;stroke-linejoin:round;stroke-miterlimit:2;">
    <g transform="matrix(1,0,0,1,-10888.2625,-1511.097304)">
        <g transform="matrix(2.211214,0,0,1.482332,-200.62803,92.293922)">
            <g transform="matrix(0.295625,0,0,0.440987,4956.755277,846.342395)">
                <g id="Fondo" transform="matrix(1.171875,0,0,1.171875,0,0)">
                    <path d="M804.5,262.489C838.25,263.054 840.226,285.103 840.276,286.446C842.701,351.992 794.259,436.281 789.777,444.657C708.605,596.353 583.357,668.878 577.693,674.671C576.547,675.843 579.379,689.48 578.06,701.46C570.893,766.533 526.987,796.852 519.313,802.151C504.349,812.485 503.898,811.762 502.631,812.704C496.14,817.533 469.209,827.623 462.418,829.122C451.295,831.577 423.37,839.148 424.689,824.515C425.432,816.278 481.176,788.25 469.398,740.527C467.536,732.983 465.009,734.518 457.486,736.43C438.068,741.366 426.403,733.095 424.473,732.736C422.814,732.427 407.928,745.359 407.204,746.076C391.129,761.986 377.602,732.529 372.904,737.923C370.297,740.916 372.067,741.903 372.693,743.41C379.786,760.502 361.898,777.812 349.732,789.771C303.116,835.596 179.849,849.909 176.523,848.404C175.625,848.123 172.241,847.937 168.681,841.405C166.01,836.506 169.433,829.592 169.887,828.676C171.012,826.402 177.249,813.804 184.922,800.749C188.147,795.262 200.712,771.808 202.066,769.281C245.777,687.689 266.493,682.328 273.673,677.667C286.157,672.564 286.192,672.656 286.523,672.562C306.418,666.919 307.858,675.898 311.337,672.318C311.709,671.934 315.456,668.079 316.021,667.555C316.021,667.555 307.319,651.582 307.41,649.497C307.67,643.462 319.741,625.516 320.017,625.151C324.553,619.157 316.323,618.068 315.956,597.479C315.926,595.811 315.871,592.705 295.499,593.434C263.63,594.574 226.968,616.663 220.543,623.01C206.442,619.684 211.329,606.823 214.568,598.528C233.129,551.007 255.022,527.823 265.243,518.218C270.159,513.599 298.184,487.264 343.501,486.836C361.292,486.667 367.245,488.949 363.341,484.626C320.119,436.761 306.259,355.488 362.056,284.142C396.592,239.981 446.856,223.228 465.428,219.202C590.671,192.055 653.63,288.937 655.478,289.556C658.704,290.637 732.493,261.285 804.5,262.489" style="fill:rgb(33,35,44);"/>
                    <path d="M753.671,395.277C753.671,395.277 742.878,406.404 731.19,424.299C717.03,445.978 661.975,512.9 632.691,536.728C615.046,551.086 615.672,551.72 597.906,565.988C577.955,582.012 563.968,590.28 552.21,599.002C550.457,600.303 550.289,600.004 528.714,612.876C477.773,643.27 432.059,657.278 429.672,658.898C428.549,659.661 427.539,660.577 426.449,661.386C424.808,662.603 424.746,661.564 423.254,660.171C443.228,645.206 508.174,586.355 505.221,563.545C502.633,543.553 466.884,569.027 465.241,570.124C408.484,608.022 376.388,650.312 364.289,662.252C362.455,664.063 359.344,660.01 352.133,649.757C322.611,607.779 327.813,596.391 328.068,589.487C328.491,578.035 367.44,512.094 377.846,499.851C379.087,498.391 379.364,499.687 390.794,507.059C488.328,569.971 621.529,526.171 665.22,450.333C710.478,371.775 662.195,305.242 663.259,301.37C663.468,300.609 685.806,293.213 687.314,293.983C689.09,294.891 706.299,362.054 753.671,395.277Z" style="fill:rgb(252,248,230);"/>
                    <path d="M753.671,395.277C764.096,402.683 768.728,405.976 780.291,411.891C786.924,415.284 791.002,414.463 788.096,421.322C778.473,444.032 752.535,483.088 749.107,488.25C682.929,587.899 584.64,662.485 507.649,701.78C453.325,729.507 443.803,730.31 424.741,719.083C410.7,710.812 388.734,690.854 387.979,690.071C385.414,687.405 389.149,687.724 423.254,660.171C423.254,660.171 477.773,643.27 528.714,612.876C550.289,600.004 550.457,600.303 552.21,599.002C563.968,590.28 577.955,582.012 597.906,565.988C615.672,551.72 615.046,551.086 632.691,536.728C661.975,512.9 717.03,445.978 731.19,424.299C749.217,396.699 753.671,395.277 753.671,395.277Z" style="fill:rgb(232,223,195);"/>
                    <path d="M631.875,296.163C631.875,296.163 627.352,298.241 597.552,312.625C590.534,316.012 597.467,308.305 594.619,294.48C588.813,266.307 564.969,264.791 551.295,295.412C548.001,302.788 544.456,296.972 525.474,298.012C503.663,299.207 500.197,301.851 489.428,305.176C486.942,305.944 482.74,297.347 477.227,292.821C443.81,265.385 432.291,304.452 445.858,332.326C448.041,336.81 447.819,337.092 445.769,341.62C437.725,359.389 439.642,365.488 436.458,361.547C432.203,356.282 416.653,343.622 400.505,343.345C356.41,342.587 340.555,401.969 371.371,410.848C375.768,412.115 365.544,418.743 367.876,448.456C369.273,466.259 382.858,478.828 374.498,478.742C373.888,478.735 363.885,469.507 358.561,458.371C365.592,452.341 361.767,450.608 358.685,444.406C295.393,317.013 454.392,183.924 582.264,252.976C584.776,254.332 597.529,261.219 611.298,273.717C624.089,285.326 626.961,290.073 631.875,296.163Z" style="fill:rgb(64,103,119);"/>
                    <path d="M488.434,442.732C439.586,428.802 455.253,393.43 455.253,393.43C455.762,392.472 459.4,385.629 464.511,383.523C468.866,381.728 472.76,382.436 473.033,379.457C473.248,377.102 472.023,359.222 485.645,347.671C493.243,341.228 513.931,335.156 534.089,364.759C541.637,375.843 545.267,386.058 547.761,389.5C547.774,390.328 545.747,396.982 552.636,401.247C553.63,401.862 561.039,402.302 558.653,409.555C556.911,414.849 545.846,418.616 536.301,412.824C529.372,408.619 530.429,415.729 532.514,417.484C534.485,419.143 536.205,419.927 541.432,421.638L541.798,422.189C541.798,422.189 542.022,423.223 542.133,423.74C543.655,427.284 545.257,427.981 549.49,427.577C555.832,425.701 553.096,422.618 555.727,420.771C558.955,418.506 559.043,418.756 561.789,415.778C564.132,413.236 569.737,422.534 580.637,416.743C584.319,414.787 584.004,408.958 579.351,411.174C567.033,417.042 564.813,404.95 567.721,402.805C571.787,399.807 581.57,395.493 573.792,384.295C577.144,377.971 575.085,340.406 592.432,335.282C594.562,334.653 594.523,334.771 596.593,334.181C601.816,336.304 602.926,337.775 621.896,374.291C637.287,403.916 619.772,434.481 565.535,445.669C529.15,453.174 509.909,447.528 488.434,442.732" style="fill:rgb(251,230,201);"/>
                    <g transform="matrix(0.873645,0,0,0.90648,-14.118717,-22.612149)">
                        <ellipse cx="695.113" cy="430.466" rx="13.615" ry="21.019" style="fill:rgb(33,35,44);"/>
                    </g>
                    <path d="M616.595,265.43C637.352,282.845 650.593,305.153 650.593,305.153C650.593,305.153 694.054,368.867 659.108,437.296C655.585,444.195 637.366,479.87 588.568,503.635C522.748,535.689 473.207,524.608 454.429,520.811C424.799,514.819 381.607,491.011 385.811,486.79C396.056,476.505 410.709,498.653 464.519,506.366C503.705,511.982 505.964,505.521 514.608,511.335C518.676,514.071 538.906,511.294 540.46,506.485C541.987,501.757 543.674,503.327 562.427,497.289C574.85,493.289 573.9,490.114 582.547,490.006C592.803,489.879 600.879,488.79 602.316,479.469C602.42,478.796 601.969,478.286 614.849,467.929C633.926,452.588 666.93,410.977 656.765,379.415C649.072,355.527 625.631,358.559 623.868,355.327C618.008,344.583 619.851,343.237 603.648,326.379C600.992,323.614 603.835,323.728 607.334,322.153C634.801,309.793 635.016,310.367 637.392,309.273C641.314,307.467 638.386,305.136 631.875,296.163C626.961,290.073 624.089,285.326 611.298,273.717C597.529,261.219 584.776,254.332 582.264,252.976C454.392,183.924 295.393,317.013 358.685,444.406C361.767,450.608 365.592,452.341 358.561,458.371C357.128,456.668 357.195,456.722 356.063,454.736C307.346,369.31 361.197,289.874 404.224,260.094C505.018,190.334 594.05,246.514 616.595,265.43Z" style="fill:rgb(232,231,210);"/>
                    <path d="M224.933,752.63C254.005,705.091 274.5,693.891 274.5,693.891C275.682,693.57 281.485,690.306 289.359,694.755C296.861,698.993 291.545,720.083 291.295,724.482C289.564,754.929 289.251,758.555 295.505,758.284C316.988,757.355 348.13,751.226 350.585,758.47C352.79,764.976 346.25,775.751 346.694,776.725C332.227,790.46 323.344,796.223 301.488,806.358C301.488,806.358 300.479,806.852 300.016,806.301C299.539,805.735 300.582,804.533 300.582,804.533C311.902,788.25 304.314,778.383 299.786,784.69C298.596,786.347 297.997,797.875 288.093,810.124C282.784,816.691 184.443,837.238 181.839,834.186C180.727,832.881 187.169,823.47 206.181,786.345C211.448,776.061 211.82,776.248 220.813,768.924C245.293,748.987 260.093,753.426 259.381,745.513C259.055,741.882 251.83,740.328 233.255,750.004C227.01,753.532 223.343,755.23 224.933,752.63Z" style="fill:rgb(248,122,65);"/>
                    <path d="M381.15,360.043C405.777,343.802 425.492,364.116 428.138,366.842C438.097,377.104 435.849,378.518 435.769,386.505C435.386,424.64 453.28,432.118 454.142,436.601C456.125,446.91 454.897,451.404 468.039,473.778C470.735,478.368 471.463,478.582 469.437,483.473C466.201,491.284 469.157,495.799 462.496,494.527C414.764,485.415 412.247,475.103 394.51,472.44C392.205,472.094 390.112,474.259 384.962,466.209C367.877,439.499 389.202,403.088 389.843,398.56C391.653,385.775 383.166,384.203 381.62,389.546C379.193,397.935 373.636,401.699 369.523,400.451C363.61,398.657 360.451,374.056 381.15,360.043Z" style="fill:rgb(185,98,64);"/>
                    <path d="M826.97,279.205C826.97,279.205 768.116,371.594 758.213,382.967C755.621,380.983 755.645,381.054 753.12,378.97C713.813,346.537 700.1,291.442 700.568,290.544C701.105,289.513 755.156,274.613 806.502,275.182C823.985,275.376 824.178,276.243 826.97,279.205Z" style="fill:rgb(247,122,66);"/>
                    <path d="M453.423,349.47C454.546,346.526 455.307,344.718 456.04,343.143C458.635,337.566 458.906,337.305 458.014,335.742C456.553,333.177 446.775,316.025 451.332,299.454C454.352,288.471 472.168,295.33 483.026,313.783C483.755,315.022 483.939,318.54 488.377,317.12C498.528,313.872 539.179,296.284 582.238,321.964C594.416,329.228 595.986,332.801 596.593,334.181C594.523,334.771 594.562,334.653 592.432,335.282C575.085,340.406 577.144,377.971 573.792,384.295C559.984,377.471 549.275,388.01 547.761,389.5C545.267,386.058 541.637,375.843 534.089,364.759C513.931,335.156 493.243,341.228 485.645,347.671C472.023,359.222 473.248,377.102 473.033,379.457C472.76,382.436 469.065,382.186 464.893,384.372C441.564,396.597 460.614,426.994 460.614,426.994C448.637,420.307 446.7,397.288 446.479,394.501C445.728,385.034 448.002,370.542 449.209,365.458C449.487,364.283 450.337,359.843 451.382,355.914C452.287,352.508 453.423,349.47 453.423,349.47" style="fill:rgb(199,107,67);"/>
                    <path d="M354.631,512.584C326.923,556.975 328.013,559.27 317.02,583.164C315.389,586.71 292.775,575.42 245.743,596.975C234.195,602.268 222.653,611.429 224.784,605.569C231.511,587.063 255.732,538.548 283.842,518.94C287.097,516.67 310.799,496.836 359.526,499.256C365.106,499.533 359.87,504.334 358.069,507.249C357.802,507.681 357.834,507.583 354.631,512.584Z" style="fill:rgb(247,122,65);"/>
                    <path d="M540.582,764.568C537.592,768.406 516.058,798.965 462.403,816.155C459.416,817.112 442.869,820.908 442.455,820.576C439.537,818.242 464.939,805.427 478.608,771.544C488.327,747.45 476.241,731.794 478.47,729.471C478.914,729.008 514.155,714.097 540.687,697.78C564.183,683.33 565.066,681.608 566.07,683.702C567.384,686.444 565.727,726.206 546.993,754.803C543.786,759.699 544.053,759.763 540.582,764.568Z" style="fill:rgb(244,120,66);"/>
                    <path d="M826.97,279.205C836.122,291.29 806.079,389.711 796.274,404.308C793.856,407.909 762.622,387.307 758.213,382.967C768.116,371.594 825.183,281.029 826.97,279.205Z" style="fill:rgb(216,99,64);"/>
                    <path d="M313.44,737.718C337.611,743.782 370.928,739.221 361.493,758.497C358.102,765.424 348.029,775.403 346.694,776.725C346.25,775.751 352.79,764.976 350.585,758.47C348.13,751.226 316.988,757.355 295.505,758.284C289.251,758.555 289.564,754.929 291.295,724.482C291.545,720.083 294.827,700.606 289.295,695.566C283.767,690.529 273.239,695.642 270.168,696.964C268.81,697.548 299.273,674.956 306.066,685.796C313.258,697.27 302.15,734.885 313.44,737.718" style="fill:rgb(249,207,123);"/>
                    <path d="M526.508,459.537C526.356,460.322 526.115,461.571 520.422,467.467C517.759,463.955 518.122,463.396 516.502,463.307C515.043,463.226 513.198,466.884 513.007,467.26C502.658,487.768 521.57,486.946 529.122,491.977C533.405,494.831 532.402,503.217 531.044,503.37C527.675,503.749 528.032,492.706 525.568,495.595C524.414,496.949 525.202,502.795 523.231,502.977C519.748,503.3 521.753,496.933 519.426,495.69C518.968,495.445 517.413,494.709 516.847,501.591C516.609,504.495 514.536,502.338 513.217,499.781C512.027,497.473 487.66,497.733 479.468,496.709C470.407,495.577 492.653,457.463 497.339,456.041C498.374,455.727 524.179,459.222 526.508,459.537Z" style="fill:rgb(196,107,69);"/>
                    <path d="M426.26,615.966C445.805,597.86 487.443,569.36 490.447,568.328C495.718,566.517 488.162,576.476 487.931,576.828C463.032,617.145 401.164,662.607 363.683,692.722C339.822,710.532 315.345,735.096 333.056,714.125C356.978,685.801 400.028,640.265 426.26,615.966Z" style="fill:rgb(202,97,65);"/>
                    <path d="M379.459,698.549C387.158,704.967 386.309,705.949 409.592,723.377C414.247,726.862 410.363,727.946 405.763,731.816C399.424,737.147 398.579,739.829 391.854,735.02C387.426,731.853 361.502,711.989 361.409,710.507C361.343,709.447 376.446,696.694 378.374,697.723C378.775,697.937 379.058,698.335 379.459,698.549Z" style="fill:rgb(211,100,67);"/>
                    <path d="M573.792,384.295C581.57,395.493 571.787,399.807 567.721,402.805C564.813,404.95 567.033,417.042 579.351,411.174C584.004,408.958 584.319,414.787 580.637,416.743C569.737,422.534 564.132,413.236 561.789,415.778C559.043,418.756 558.955,418.506 555.727,420.771C553.096,422.618 555.832,425.701 549.49,427.577C549.526,427.329 554.448,421.13 547.497,421.437C541.91,421.685 541.917,421.616 541.432,421.638C536.205,419.927 534.485,419.143 532.514,417.484C530.429,415.729 529.372,408.619 536.301,412.824C545.846,418.616 556.911,414.849 558.653,409.555C561.039,402.302 553.63,401.862 552.636,401.247C545.747,396.982 547.774,390.328 547.761,389.5C549.275,388.01 559.984,377.471 573.792,384.295Z" style="fill:rgb(38,34,41);"/>
                    <path d="M320.082,652.669C319.139,648.688 320.21,648.813 322.11,645.276C326.392,637.305 326.26,637.275 326.64,636.59C328.226,633.724 329.181,635.486 330.871,638.263C345.917,662.989 351.697,668.526 353.308,671.587C354.707,674.245 341.686,685.689 341.611,685.718C336.797,687.572 321.445,655.514 320.082,652.669Z" style="fill:rgb(242,124,69);"/>
                    <path d="M730.494,293.596C735.196,292.272 794.458,282.005 795.423,284.349C796.92,287.987 737.868,304.218 734.894,304.779C736.696,297.623 731.301,294.12 730.494,293.596Z" style="fill:rgb(252,182,128);"/>
                    <path d="M570.43,305.701C561.431,302.394 561.362,302.627 560.604,302.284C558.293,301.24 562.531,292.441 570.581,285.606C585.625,272.832 589.787,314.971 581.398,310.707C576.004,307.965 576.093,307.898 570.43,305.701Z" style="fill:rgb(187,106,73);"/>
                    <path d="M519.493,479.52C519.26,479.375 514.124,479.083 520.422,467.467C526.115,461.571 526.356,460.322 526.508,459.537C528.505,459.364 532.097,459.053 551.515,457.91C555.202,457.693 555.805,462.914 558.794,472.39" style="fill:rgb(242,206,169);"/>
                    <path d="M575.906,474.203C572.888,470.719 572.39,478.435 569.741,478.081C568.452,477.909 570.059,476.705 562.448,460.525C559.888,455.083 563.522,455.701 569.515,455.323C571.578,455.194 573.182,461.721 579.417,463.71C588.508,466.61 595.33,466.032 595.213,477.475C595.179,480.798 594.443,481.662 593.643,481.62C591.815,481.523 591.103,474.77 591.07,474.543C590.611,471.335 588.225,472.059 588.249,474.451C588.27,476.589 588.239,480.557 586.95,480.658C583.9,480.898 585.719,470.036 582.324,472.399C580.77,473.48 582.316,480.592 579.502,480.51C576.929,480.435 578.72,478.269 575.906,474.203Z" style="fill:rgb(187,107,74);"/>
                    <path d="M558.079,320.957C563.161,325.628 550.47,339.671 550.47,339.671C546.442,344.92 543.267,340.764 536.246,336.915C535.482,336.496 523.633,330.001 529.463,328.401C531.597,327.815 540.197,334.506 535.079,327.726C529.946,320.928 540.125,318.828 544.232,327.734C548.782,337.602 543.795,319.218 547.774,315.848C552.123,312.165 552.753,324.109 552.787,324.136C554.358,325.401 554.614,317.772 558.079,320.957Z" style="fill:rgb(39,33,39);"/>
                    <path d="M472.382,315.581C472.382,315.581 472.541,315.817 472.495,315.996C472.43,316.253 472.21,316.377 472.21,316.377C468.842,318.167 468.294,313.813 465.65,316.64C464.322,318.06 461.732,324.101 461.537,324.541C461.303,325.067 460.803,325.909 459.795,325.204C451.907,319.683 460.251,298.985 472.382,315.581Z" style="fill:rgb(242,200,166);"/>
                    <path d="M472.382,315.581C460.22,299.651 453.376,318.028 459.795,325.204C459.67,326.233 460.467,327.258 459.508,327.573C456.881,328.435 454.31,319.521 454.682,314.488C456.071,295.728 481.038,315.702 473.356,315.978C472.914,315.994 472.382,315.581 472.382,315.581Z" style="fill:rgb(84,46,27);"/>
                    <g transform="matrix(0.9221,0,0,1.002101,-42.24979,-76.964283)">
                        <ellipse cx="656.511" cy="467.731" rx="7.259" ry="3.827" style="fill:rgb(237,125,107);"/>
                    </g>
                    <path d="M571.375,300.451C571.244,300.687 568.176,306.197 568.19,301.576C568.209,295.574 585.676,285.856 583.077,302.488C583.077,302.488 582.93,303.192 582.636,303.643C582.279,304.19 581.703,304.559 581.703,304.559C581.237,295.638 576.607,293.137 571.375,300.451Z" style="fill:rgb(90,52,26);"/>
                    <path d="M571.375,300.451C576.607,293.137 581.237,295.638 581.703,304.559C581.703,304.559 581.64,305.629 580.513,305.017C578.158,303.738 577.202,299.071 573.471,300.939C571.936,301.707 571.375,300.451 571.375,300.451Z" style="fill:rgb(245,210,187);"/>
                    <path d="M541.432,421.638C541.917,421.616 541.91,421.685 547.497,421.437C554.448,421.13 549.49,427.577 549.49,427.577C545.257,427.981 543.655,427.284 542.133,423.74C541.749,422.845 541.432,421.638 541.432,421.638Z" style="fill:rgb(212,128,103);"/>
                    <g transform="matrix(0.944956,0,0,0.834098,-71.789519,6.791409)">
                        <ellipse cx="700.548" cy="428.908" rx="2.593" ry="3.662" style="fill:rgb(245,245,244);"/>
                    </g>
                    <g transform="matrix(0.873645,0,0,0.90648,-96.685823,-13.753927)">
                        <ellipse cx="695.113" cy="430.466" rx="13.615" ry="21.019" style="fill:rgb(33,35,44);"/>
                    </g>
                    <g transform="matrix(0.944956,0,0,0.834098,-154.356625,15.649632)">
                        <ellipse cx="700.548" cy="428.908" rx="2.593" ry="3.662" style="fill:rgb(245,245,244);"/>
                    </g>
                    <g transform="matrix(0.952545,-0.220119,0.220119,0.952545,-162.364462,148.450635)">
                        <ellipse cx="848.808" cy="356.968" rx="12.825" ry="8.698" style="fill:rgb(249,240,211);"/>
                    </g>
                    <g transform="matrix(1,0,0,1,0.004615,-0.024801)">
                        <path d="M519.488,479.545C519.488,479.545 528.455,470.466 536.619,468.986C546.185,467.252 558.789,472.414 558.789,472.414C559.291,474.215 563.432,484.679 560.591,485.686C540.257,492.887 539.137,491.525 537.966,490.1C531.728,482.508 526.131,481.464 519.488,479.545Z" style="fill:rgb(250,244,224);"/>
                    </g>
                </g>
                <g transform="matrix(1,0,0,1.17863,-1.840085,-79.423634)">
                    <ellipse cx="575.508" cy="464.04" rx="14.084" ry="8.934" style="fill:rgb(244,165,133);"/>
                </g>
                <g transform="matrix(0.680429,0,0,0.801974,328.274258,76.175348)">
                    <ellipse cx="575.508" cy="464.04" rx="14.084" ry="8.934" style="fill:rgb(244,165,133);"/>
                </g>
                <g transform="matrix(0.900626,0,0,0.900626,43.665492,31.919495)">
                    <circle cx="465.72" cy="364.825" r="14.347" style="fill:rgb(126,156,164);"/>
                </g>
                <g transform="matrix(0.820673,0,0,0.820673,117.268623,25.489484)">
                    <circle cx="465.72" cy="364.825" r="14.347" style="fill:rgb(201,221,219);"/>
                </g>
            </g>
        </g>
    </g>
</svg>
