<?xml version="1.0" encoding="UTF-8" standalone="no"?>
<!DOCTYPE svg PUBLIC "-//W3C//DTD SVG 1.1//EN" "http://www.w3.org/Graphics/SVG/1.1/DTD/svg11.dtd">
<svg width="100%" height="100%" viewBox="0 0 310 425" version="1.1" xmlns="http://www.w3.org/2000/svg" xmlns:xlink="http://www.w3.org/1999/xlink" xml:space="preserve" xmlns:serif="http://www.serif.com/" style="fill-rule:evenodd;clip-rule:evenodd;stroke-linejoin:round;stroke-miterlimit:2;">
    <g transform="matrix(1,0,0,1,-7892.902461,-1516.330518)">
        <g transform="matrix(2.211214,0,0,1.482332,-200.62803,92.293922)">
            <g transform="matrix(0.11973,0,0,0.178603,3730.312187,1103.92724)">
                <g transform="matrix(1,0,0,1,-585.416667,-802.083333)">
                    <clipPath id="_clip1">
                        <rect x="0" y="0" width="1170.833" height="1604.167"/>
                    </clipPath>
                    <g clip-path="url(#_clip1)">
                        <g transform="matrix(4.166667,0,0,4.166667,0,0)">
                            <g id="Fondo">
                                <path d="M266.084,25.804C282.233,47.098 280.221,55.889 280.251,111.551C280.26,128.592 280.363,321.914 280.163,324.564C278.335,348.744 261.998,364.089 259.257,366.663C237.562,387.041 218.754,384.092 184.296,384.148C63.621,384.342 63.524,385.222 53.247,383.149C38.837,380.243 32.213,375.423 26.567,371.269C24.11,369.325 9.012,357.383 3.384,339.702C-0.413,327.774 0.014,327.55 0.014,258.208C0.014,59.869 -0.218,59.807 1.635,51.382C5.384,34.335 23.861,0.263 66.078,0.155C78.345,0.124 211.4,-0.216 219.421,0.221C239.215,1.3 257.739,14.112 266.084,25.804Z" style="fill:rgb(252,252,251);"/>
                                <path d="M58.239,10.378C64.505,9.853 64.507,9.935 134.11,9.927C160.876,9.924 187.643,9.921 214.409,9.919C243.888,10.028 265.284,32.175 269.926,57.5C271.114,63.981 270.078,292.588 270.512,322.335C270.68,333.826 261.412,360.601 233.831,371.157C222.473,375.504 222.05,374.163 67.752,374.353C22.721,374.409 10.44,337.113 9.64,321.781C9.496,319.017 9.629,171.463 9.64,158.392C9.73,58.604 8.835,58.212 13.15,46.884C24.854,16.156 53.665,11.169 58.239,10.378Z" style="fill:rgb(8,4,5);"/>
                                <path d="M223.404,14.259C226.493,14.957 240.131,16.805 253.349,31.336C262.539,41.439 264.999,51.641 265.475,53.614C267.182,60.692 266.875,60.773 266.889,230.326C266.897,327.738 267.328,327.988 264.009,336.266C247.883,376.488 207.252,370.735 206.043,370.734C66.591,370.623 65.69,372.014 57.144,369.978C40.305,366.719 28.623,353.875 27.836,352.864C15.023,336.417 16.531,318.391 16.54,311.742C16.732,173.482 15.923,67.357 17.267,60.287C23.046,29.867 49.649,19.527 53.823,17.905C62.785,14.422 63.08,15.294 172.029,15.21C221.092,15.172 221.246,15.43 223.405,14.261L223.404,14.259Z" style="fill:rgb(234,86,88);"/>
                                <path d="M36.31,98.758C35.477,87.415 36.086,65.903 36.167,63.047C36.378,55.583 42.426,41.612 58.302,39.866C67.567,38.847 67.565,39.567 174.817,39.675C227.605,39.728 229.309,38.284 238.231,47.582C244.552,54.169 245.016,55.459 244.672,96.501C244.61,103.917 238.105,118.155 221.659,119.38C220.365,119.476 92.376,119.415 81.134,119.409C63.346,119.4 41.442,123.12 36.309,98.758L36.31,98.758Z" style="fill:rgb(9,5,6);"/>
                                <path d="M134.724,43.32C225.106,43.934 227.945,40.514 236.438,50.993C240.954,56.565 241.178,57.107 240.961,92.59C240.798,119.248 219.412,115.808 199.91,115.832C188.625,115.846 61.578,116.006 58.842,115.753C56.833,115.568 56.902,115.51 54.883,115.087C55.957,112.56 53.311,113.868 48.966,109.716C44.429,105.381 43.341,98.665 43.169,97.605C47.542,96.123 119.357,47.609 122.38,45.085C127.141,44.973 127.087,45.022 131.875,44.977C134.749,44.95 134.398,43.753 134.725,43.319L134.724,43.32Z" style="fill:rgb(128,206,238);"/>
                                <path d="M206.472,341.841C203.347,338.433 203.057,338.649 201.17,334.388C199.228,330.001 199.181,329.81 199.347,274.331C199.43,246.447 244.48,240.203 245.065,277.016C245.128,280.964 245.493,303.933 245.038,326.376C244.753,340.423 226.451,357.884 206.473,341.84L206.472,341.841Z"/>
                                <g>
                                    <clipPath id="_clip2">
                                        <path d="M206.472,341.841C203.347,338.433 203.057,338.649 201.17,334.388C199.228,330.001 199.181,329.81 199.347,274.331C199.43,246.447 244.48,240.203 245.065,277.016C245.128,280.964 245.493,303.933 245.038,326.376C244.753,340.423 226.451,357.884 206.473,341.84L206.472,341.841Z"/>
                                    </clipPath>
                                    <g clip-path="url(#_clip2)">
                                        <path d="M208.465,338.951C205.715,335.778 205.46,335.979 203.799,332.011C202.09,327.926 202.049,327.748 202.195,276.085C202.268,250.119 241.912,244.304 242.426,278.585C242.481,282.262 242.802,303.651 242.402,324.55C242.151,337.631 226.046,353.891 208.465,338.951Z" style="fill:rgb(205,148,178);"/>
                                    </g>
                                </g>
                                <path d="M122.38,45.086C119.357,47.609 47.542,96.124 43.169,97.606C42.733,93.725 43.032,68.886 43.069,67.488C43.268,60.077 52.38,47.387 63.901,45.403C71.522,44.09 117.703,44.994 122.38,45.086Z" style="fill:rgb(164,220,243);"/>
                                <path d="M224.356,14.735C222.197,15.904 222.044,15.646 172.98,15.684C64.031,15.768 63.736,14.896 54.774,18.379C50.601,20.001 23.998,30.341 18.218,60.761C16.875,67.831 17.683,173.956 17.491,312.216C17.482,318.865 15.975,336.892 28.787,353.338C29.574,354.349 32.52,357.185 32.439,357.354C32.309,357.628 18.641,346.018 15.362,330.02C14.161,324.158 14.368,324.123 14.374,111.468C14.376,61.121 12.693,52.592 23.771,36.914C41.983,11.14 68.681,14.108 74.277,14.108C218.957,14.102 218.94,14.022 224.354,14.734L224.356,14.735Z" style="fill:rgb(246,233,229);"/>
                                <path d="M134.724,43.32C134.397,43.754 134.748,44.951 131.874,44.978C127.087,45.022 127.14,44.974 122.379,45.086C117.702,44.994 71.521,44.09 63.9,45.403C52.379,47.387 43.267,60.077 43.068,67.488C43.031,68.886 42.732,93.725 43.168,97.606C43.34,98.666 44.428,105.382 48.965,109.717C53.31,113.869 55.956,112.561 54.882,115.088C37.19,108.578 39.822,98.531 39.752,67.499C39.688,39.522 64.151,43.272 77.231,43.271C132.12,43.266 132.8,43.138 134.724,43.321L134.724,43.32Z" style="fill:rgb(242,248,249);"/>
                                <path d="M217.194,184.457C216.578,184.467 217.029,185.147 216.406,185.158C216.346,185.159 215.294,185.177 216.082,184.476C216.359,184.23 216.917,184.704 217.194,184.457Z" style="fill:rgb(179,118,151);"/>
                            </g>
                            <path d="M225.321,306.246C225.321,306.281 225.69,309.306 222.509,310.445C221.058,310.965 217.33,310.398 217.244,306.607C217.178,303.713 217.357,303.501 216.984,303.473C215.146,303.339 211.594,304.278 210.247,300.96C209.702,299.618 209.889,295.521 214.098,295.5C216.771,295.486 217.236,295.624 217.237,295.189C217.247,291.738 217.006,290.061 218.592,288.746C221.303,286.498 225.301,288.269 225.326,291.582C225.353,295.247 225.201,295.401 225.5,295.467C227.017,295.798 229.94,294.608 231.866,297.128C233.315,299.025 232.759,303.44 228.403,303.455C226.665,303.461 225.594,303.413 225.431,303.528C225.304,303.617 225.326,303.988 225.324,306.245L225.321,306.246Z"/>
                            <circle cx="61.212" cy="325.604" r="24.03" style="fill:rgb(9,0,0);"/>
                            <g>
                                <clipPath id="_clip3">
                                    <circle cx="61.212" cy="325.604" r="24.03"/>
                                </clipPath>
                                <g clip-path="url(#_clip3)">
                                    <circle cx="61.212" cy="325.604" r="20.699" style="fill:rgb(244,176,84);"/>
                                </g>
                            </g>
                            <circle cx="113.079" cy="167.147" r="24.03" style="fill:rgb(9,0,0);"/>
                            <g>
                                <clipPath id="_clip4">
                                    <circle cx="113.079" cy="167.147" r="24.03"/>
                                </clipPath>
                                <g clip-path="url(#_clip4)">
                                    <circle cx="113.079" cy="167.147" r="20.699" style="fill:rgb(244,176,84);"/>
                                </g>
                            </g>
                            <circle cx="112.604" cy="218.062" r="24.03" style="fill:rgb(9,0,0);"/>
                            <g>
                                <clipPath id="_clip5">
                                    <circle cx="112.604" cy="218.062" r="24.03"/>
                                </clipPath>
                                <g clip-path="url(#_clip5)">
                                    <circle cx="112.604" cy="218.062" r="20.699" style="fill:rgb(244,176,84);"/>
                                </g>
                            </g>
                            <circle cx="114.031" cy="272.309" r="24.03" style="fill:rgb(9,0,0);"/>
                            <g>
                                <clipPath id="_clip6">
                                    <circle cx="114.031" cy="272.309" r="24.03"/>
                                </clipPath>
                                <g clip-path="url(#_clip6)">
                                    <circle cx="114.031" cy="272.309" r="20.699" style="fill:rgb(244,176,84);"/>
                                    <circle cx="114.031" cy="272.309" r="20.699" style="fill:rgb(244,176,84);"/>
                                </g>
                            </g>
                            <circle cx="114.507" cy="325.604" r="24.03" style="fill:rgb(9,0,0);"/>
                            <g>
                                <clipPath id="_clip7">
                                    <circle cx="114.507" cy="325.604" r="24.03"/>
                                </clipPath>
                                <g clip-path="url(#_clip7)">
                                    <circle cx="114.507" cy="325.604" r="20.699" style="fill:rgb(244,176,84);"/>
                                    <circle cx="114.507" cy="325.604" r="20.699" style="fill:rgb(244,176,84);"/>
                                </g>
                            </g>
                            <circle cx="166.85" cy="326.079" r="24.03" style="fill:rgb(9,0,0);"/>
                            <g>
                                <clipPath id="_clip8">
                                    <circle cx="166.85" cy="326.079" r="24.03"/>
                                </clipPath>
                                <g clip-path="url(#_clip8)">
                                    <circle cx="166.85" cy="326.079" r="20.699" style="fill:rgb(244,176,84);"/>
                                    <circle cx="166.85" cy="326.079" r="20.699" style="fill:rgb(244,176,84);"/>
                                </g>
                            </g>
                            <circle cx="166.374" cy="167.147" r="24.03" style="fill:rgb(9,0,0);"/>
                            <g>
                                <clipPath id="_clip9">
                                    <circle cx="166.374" cy="167.147" r="24.03"/>
                                </clipPath>
                                <g clip-path="url(#_clip9)">
                                    <circle cx="166.374" cy="167.147" r="20.699" style="fill:rgb(244,176,84);"/>
                                </g>
                            </g>
                            <circle cx="221.096" cy="167.623" r="24.03" style="fill:rgb(9,0,0);"/>
                            <g>
                                <clipPath id="_clip10">
                                    <circle cx="221.096" cy="167.623" r="24.03"/>
                                </clipPath>
                                <g clip-path="url(#_clip10)">
                                    <circle cx="221.096" cy="167.623" r="20.699" style="fill:rgb(205,148,178);"/>
                                </g>
                            </g>
                            <path d="M230.023,174.349C229.67,177.137 226.216,179.141 224.16,176.796C223.577,176.131 222.575,175.26 221.594,174.156C220.835,173.303 220.63,173.45 220.55,173.507C220.091,173.836 217.045,177.449 216.088,177.699C212.956,178.516 210.731,174.937 211.643,173.048C211.947,172.417 215.959,168.551 215.989,168.391C216.048,168.078 213.631,165.88 212.754,164.902C212.284,164.378 210.388,163.116 212.401,160.258C212.963,159.46 215.458,158.027 216.937,159.419C217.639,160.079 220.564,163.19 220.746,163.202C221.158,163.229 224.236,159.295 225.405,158.942C227.994,158.161 231.864,161.846 229.046,164.546C227.301,166.217 227.375,166.277 225.66,167.986C225.21,168.435 225.763,168.655 226.542,169.535C226.992,170.043 229.555,172.392 229.821,173.063C230.072,173.696 230.017,174.123 230.023,174.347L230.023,174.349Z"/>
                            <circle cx="220.62" cy="220.442" r="24.03" style="fill:rgb(9,0,0);"/>
                            <g>
                                <clipPath id="_clip11">
                                    <circle cx="220.62" cy="220.442" r="24.03"/>
                                </clipPath>
                                <g clip-path="url(#_clip11)">
                                    <circle cx="220.62" cy="220.442" r="20.699" style="fill:rgb(205,148,178);"/>
                                </g>
                            </g>
                            <circle cx="166.85" cy="219.014" r="24.03" style="fill:rgb(9,0,0);"/>
                            <g>
                                <clipPath id="_clip12">
                                    <circle cx="166.85" cy="219.014" r="24.03"/>
                                </clipPath>
                                <g clip-path="url(#_clip12)">
                                    <circle cx="166.85" cy="219.014" r="20.699" style="fill:rgb(244,176,84);"/>
                                </g>
                            </g>
                            <circle cx="167.326" cy="271.833" r="24.03" style="fill:rgb(9,0,0);"/>
                            <g>
                                <clipPath id="_clip13">
                                    <circle cx="167.326" cy="271.833" r="24.03"/>
                                </clipPath>
                                <g clip-path="url(#_clip13)">
                                    <circle cx="167.326" cy="271.833" r="20.699" style="fill:rgb(244,176,84);"/>
                                </g>
                            </g>
                            <circle cx="59.785" cy="166.671" r="24.03" style="fill:rgb(9,0,0);"/>
                            <g>
                                <clipPath id="_clip14">
                                    <circle cx="59.785" cy="166.671" r="24.03"/>
                                </clipPath>
                                <g clip-path="url(#_clip14)">
                                    <circle cx="59.785" cy="166.671" r="20.699" style="fill:rgb(244,176,84);"/>
                                </g>
                            </g>
                            <path d="M213.064,224.766C209.892,224.135 209.911,221.07 210.515,220.018C211.634,218.069 213.111,218.169 214.067,218.167C228.338,218.138 228.344,218.2 228.637,218.298C231.605,219.295 231.832,223.879 228.185,224.72C227.621,224.85 214.309,224.793 213.064,224.765L213.064,224.766Z"/>
                            <circle cx="59.785" cy="219.014" r="24.03" style="fill:rgb(9,0,0);"/>
                            <g>
                                <clipPath id="_clip15">
                                    <circle cx="59.785" cy="219.014" r="24.03"/>
                                </clipPath>
                                <g clip-path="url(#_clip15)">
                                    <circle cx="59.785" cy="219.014" r="20.699" style="fill:rgb(244,176,84);"/>
                                </g>
                            </g>
                            <path d="M105.506,165.699C103.667,161.903 105.923,159.326 106.112,159.085C107.252,157.636 109.562,156.92 111.537,156.848C115.572,156.701 116.833,157.55 117.55,157.997C117.883,158.204 118.668,159.051 118.782,159.251C119.534,160.576 119.782,162.352 119.316,163.791C118.784,165.435 117.779,165.589 118.56,166.007C120.048,166.803 120.309,167.548 120.572,167.889C121.525,169.125 121.472,172.197 120.983,173.34C120.551,174.351 119.199,177.378 113.802,177.675C102.93,178.273 103.033,169.972 106.162,167.15C106.602,166.753 106.116,166.725 105.504,165.7L105.506,165.699Z"/>
                            <path d="M114.609,162.503C114.256,166.201 109.238,165.462 109.578,162.163C109.855,159.473 114.297,158.93 114.609,162.503Z" style="fill:rgb(244,176,84);"/>
                            <path d="M115.085,172.02C114.732,175.718 109.714,174.979 110.054,171.68C110.331,168.99 114.773,168.447 115.085,172.02Z" style="fill:rgb(244,176,84);"/>
                            <path d="M174.069,165.12C174.123,166.47 174.576,171.483 171.635,175.247C168.028,179.864 161.785,178.821 160.861,176.821C159.769,174.457 161.49,173.061 162.801,173.014C164.44,172.955 165.352,173.77 166.794,172.067C166.815,172.042 167.97,170.528 167.298,170.646C165.478,170.966 162.007,171.469 159.311,168.344C156.624,165.231 157.444,159.694 162.17,157.955C164.304,157.17 170.513,156.715 172.94,161.01C173.544,162.078 173.9,163.125 174.069,165.118L174.069,165.12Z"/>
                            <path d="M158.39,222.945C158.33,221.905 158.071,220.436 158.687,217.734C158.756,217.431 159.187,215.541 159.974,214.074C162.059,210.187 163.704,209.13 164.155,208.84C166.016,207.644 167.613,208.619 168.05,209.194C169.622,211.26 166.944,213.177 166.049,214.648C164.323,217.484 168.621,214.389 172.505,217.888C176.62,221.596 174.622,229.693 165.884,229.755C159.275,229.802 158.588,224.126 158.39,222.945Z"/>
                            <circle cx="60.261" cy="272.309" r="24.03" style="fill:rgb(9,0,0);"/>
                            <g>
                                <clipPath id="_clip16">
                                    <circle cx="60.261" cy="272.309" r="24.03"/>
                                </clipPath>
                                <g clip-path="url(#_clip16)">
                                    <circle cx="60.261" cy="272.309" r="20.699" style="fill:rgb(244,176,84);"/>
                                </g>
                            </g>
                            <path d="M168.856,222.935C168.503,226.633 163.485,225.894 163.825,222.595C164.102,219.905 168.544,219.362 168.856,222.935Z" style="fill:rgb(244,176,84);"/>
                            <path d="M168.38,163.93C168.027,167.628 163.009,166.889 163.349,163.59C163.626,160.9 168.068,160.357 168.38,163.93Z" style="fill:rgb(244,176,84);"/>
                            <path d="M117.464,326.192C116.977,331.284 110.067,330.267 110.536,325.724C110.918,322.02 117.035,321.272 117.464,326.192Z"/>
                            <path d="M55.77,163.787C54.737,163.827 52.776,164.126 51.802,162.184C51.047,160.678 51.977,158.378 54.397,158.338C61.545,158.218 61.536,158.165 62.157,158.156C63.005,158.143 64.991,157.929 65.954,160.181C66.841,162.255 65.178,165.746 62.171,172.722C60.351,176.945 59.496,177.63 59.119,177.932C57.473,179.252 54.704,178.323 54.957,175.724C55.152,173.717 59.772,164.809 59.254,163.84C59.016,163.396 58.418,163.496 55.77,163.788L55.77,163.787Z"/>
                            <path d="M67.405,222.186C67.509,223.148 67.518,223.991 66.393,224.982C65.116,226.106 64.018,225.365 63.824,226.423C63.701,227.09 63.507,230.35 60.361,229.946C60.326,229.942 58.246,229.607 58.413,226.813C58.497,225.408 58.841,224.939 57.912,224.804C55.13,224.399 52.264,225.419 50.794,224.431C48.667,223.002 49.714,220.931 49.793,220.756C49.802,220.736 54.67,211.172 55.142,210.501C57.451,207.224 61.666,209.863 59.765,213.187C59.473,213.697 59.478,213.693 58.633,215.191C57.703,216.84 56.449,218.67 57.26,218.875C57.533,218.944 57.869,218.819 59.207,218.943C60.296,219.044 59.613,218.247 61.424,212.399C62.792,207.981 67.458,208.766 66.872,212.122C66.572,213.838 65.172,219.92 65.218,220.127C65.36,220.768 66.759,220.091 67.404,222.185L67.405,222.186Z"/>
                            <path d="M174.779,273.195C174.782,273.268 175.188,275.908 173.114,278.04C173.036,278.12 171.193,280.511 165.754,280.132C165.019,280.081 163.055,279.569 162.166,278.844C161.711,278.473 159.871,277.285 160.452,275.174C160.686,274.323 161.395,273.956 161.513,273.895C162.307,273.484 163.597,273.478 164.408,274.741C164.793,275.34 164.981,275.768 166.294,275.94C166.722,275.996 167.87,275.838 168.222,275.032C168.593,274.183 168.375,273.029 166.621,272.909C166.051,272.87 164.019,272.887 163.588,271.002C163.143,269.059 165.254,268.453 166.469,266.718C167.041,265.901 164.619,265.996 163.655,266.719C163.3,266.985 162.19,268.208 160.755,267.355C158.749,266.162 159.298,262.786 162.685,262.335C164.519,262.091 166.004,262.327 167.712,262.109C171.857,261.58 173.199,265.925 171.193,268.481C170.763,269.029 171.644,268.66 173.195,270.116C174.443,271.287 174.594,272.381 174.779,273.195Z"/>
                            <g id="Fondo1" serif:id="Fondo">
                                <path d="M55.83,279.902C55.851,279.774 55.841,279.773 55.872,279.699C56.218,278.847 56.451,278.68 57.013,278.444C57.211,278.361 57.148,277.999 57.147,277.914C57.111,273.572 57.261,271.298 57.207,269.45C57.197,269.114 57.306,268.984 57.006,268.924C54.855,268.49 53.949,265.819 55.375,263.933C56.632,262.271 58.544,260.572 59.929,260.261C62.152,259.762 63.58,261.454 63.76,263.335C63.828,264.042 63.788,275.93 63.829,278.127C63.834,278.389 64.269,278.379 64.515,278.563C66.035,279.701 65.318,281.825 63.819,282.034C63.473,282.082 57.741,282.064 57.511,282.056C56.722,282.029 56.172,281.37 56.077,281.165C55.806,280.574 55.814,280.562 55.83,279.902Z"/>
                                <path d="M57.886,270.541C58.017,270.443 58.013,270.4 58.169,270.431C58.509,270.5 58.441,271.161 58.447,271.783C58.474,274.726 58.492,274.723 58.487,274.978C58.48,275.382 58.094,275.385 58.007,275.301C57.794,275.098 57.871,275.04 57.818,273.09C57.805,272.332 57.798,272.333 57.8,272.267C57.839,270.944 57.709,270.814 57.887,270.541L57.886,270.541Z"/>
                                <path d="M57.802,262.058C57.831,262.03 58.039,261.825 58.193,261.812C58.443,261.79 58.477,261.995 58.482,262.025C58.543,262.396 58.083,262.465 56.685,264.102C56.313,264.538 56.056,264.169 56.087,263.927C56.123,263.638 57.353,262.403 57.803,262.058L57.802,262.058Z"/>
                                <ellipse cx="57.084" cy="280.403" rx="0.357" ry="0.398"/>
                            </g>
                            <path d="M108.678,282.38C107.991,282.168 107.521,282.102 106.813,281.4C106.716,281.304 106.096,280.69 105.903,279.962C105.093,276.91 108.225,274.959 113.464,270.048C116.179,267.503 114.678,266.09 113.752,266.135C111.748,266.232 111.213,268.823 109.21,269.043C106.289,269.362 105.081,266.276 106.37,264.037C108.928,259.595 116.471,259.251 119,261.092C121.579,262.969 121.746,265.195 121.338,267.457C120.676,271.12 114.685,275.329 114.834,276.662C114.941,277.621 116.727,277.008 118.967,277.265C121.41,277.545 121.858,280.006 121.121,281.162C120.177,282.644 118.954,282.789 116.222,282.613C111.612,282.316 111.593,282.752 108.678,282.379L108.678,282.38Z"/>
                            <path d="M116.911,213.553C116.708,213.538 116.354,213.542 115.38,213.391C115.303,213.379 114.936,213.286 114.874,213.279C112.673,213.052 112.408,213.087 112.221,213.726C111.896,214.837 111.757,215.339 111.984,215.475C112.223,215.619 115.612,215.021 118.021,216.308C121.978,218.42 121.497,222.485 120.604,224.628C118.462,229.766 110.316,229.637 107.422,227.011C104.024,223.928 105.866,220.555 108.166,220.402C110.358,220.256 110.625,221.816 111.055,222.606C112.044,224.424 114.902,223.498 114.727,221.201C114.52,218.498 111.097,218.944 110.444,219.001C110.298,219.014 107.2,219.901 106.325,217.631C105.694,215.994 106.987,211.429 107.31,210.827C108.728,208.177 110.906,208.19 112.98,208.332C115.257,208.488 116.045,208.403 117.551,208.613C119.7,208.913 120.459,211.279 119.283,212.685C118.459,213.67 117.28,213.544 116.912,213.552L116.911,213.553Z"/>
                            <path d="M170.198,324.411C169.269,324.402 163.847,324.351 158.589,324.183C155.397,324.081 154.417,319.409 157.822,318.148C158.873,317.759 168.312,318.228 173.983,318.284C177.824,318.322 177.886,321.437 177.201,322.766C176.067,324.968 173.777,324.453 170.197,324.411L170.198,324.411Z"/>
                            <path d="M170.198,333.452C169.269,333.443 163.847,333.392 158.589,333.224C155.397,333.122 154.417,328.45 157.822,327.189C158.873,326.8 168.312,327.269 173.983,327.325C177.824,327.363 177.886,330.478 177.201,331.807C176.067,334.009 173.777,333.494 170.197,333.452L170.198,333.452Z"/>
                        </g>
                    </g>
                </g>
            </g>
        </g>
    </g>
</svg>
