<?xml version="1.0" encoding="UTF-8" standalone="no"?><!DOCTYPE svg PUBLIC "-//W3C//DTD SVG 1.1//EN" "http://www.w3.org/Graphics/SVG/1.1/DTD/svg11.dtd"><svg width="468px" height="468px" version="1.1" xmlns="http://www.w3.org/2000/svg" xmlns:xlink="http://www.w3.org/1999/xlink" xml:space="preserve" xmlns:serif="http://www.serif.com/" style="fill-rule:evenodd;clip-rule:evenodd;stroke-linejoin:round;stroke-miterlimit:2;"><g transform="matrix(1,0,0,1,-8385.224449,-5312.169072)"><g transform="matrix(1,0,0,1,-0.228456,-0.941977)"><g transform="matrix(1.685531,0,0,1.685531,-5315.669702,-3763.297146)"><circle cx="8267" cy="5524" r="139" style="fill:white;"/></g><g transform="matrix(1.729176,0,0,1.729176,-5163.797286,-4132.620646)"><circle cx="7971" cy="5598" r="122" style="fill:rgb(43,167,89);"/></g><g transform="matrix(0.923396,0,0,0.923396,985.159412,446.405328)"><circle cx="8267" cy="5524" r="139" style="fill:white;"/></g><g transform="matrix(0.273473,0,0,0.273473,8478.175015,5412.105077)"><path d="M314,471C314,472 314,472 320,478C322,479 322,479 323,481C326,483 341,498 341,499C344,502 344,502 347,505C350,507 350,507 352,510C356,513 356,513 361,519C362,519 362,519 368,525C369,526 373,530 376,533C378,535 378,536 381,538C382,539 381,539 389,546C392,549 392,549 395,552C396,554 396,554 398,555C402,559 408,566 416,573C418,576 419,577 422,579C424,581 424,583 427,580C443,564 443,564 459,549C463,545 463,545 472,536C473,534 485,522 487,520C488,519 488,519 496,512C560,447 594,413 599,409C602,406 602,406 605,403C607,400 607,400 635,372C637,371 649,359 650,358C651,356 704,303 706,302C706,301 706,301 713,294C714,293 724,283 725,282C729,278 733,274 737,270C739,268 750,257 751,256C753,254 754,256 757,258C760,261 769,270 772,273C775,276 786,287 787,288C793,295 818,320 819,321C822,324 826,327 826,329C826,330 823,332 819,337C818,338 794,362 791,364C790,366 779,377 771,384C766,389 761,395 754,401C753,403 753,403 734,421C733,422 726,430 724,432C722,434 696,459 676,480C672,483 672,483 669,487C665,491 662,494 655,501C654,501 654,501 648,508C634,522 632,523 631,525C630,525 630,525 623,532C611,545 609,547 608,548C604,551 604,551 601,555C600,555 600,555 596,560C595,561 580,575 579,577C576,579 576,579 574,582C571,585 571,584 567,589C565,591 563,592 553,602C552,604 551,604 546,610C544,611 544,611 530,626C521,635 508,647 506,649C503,653 498,658 497,659C497,659 492,664 491,664C489,667 487,669 486,669C484,672 484,672 481,674C480,675 480,675 466,689C464,691 459,697 458,697C456,700 449,706 444,712C442,713 438,718 433,723C432,723 426,730 425,730C423,731 422,729 421,729C420,727 420,727 418,726C418,725 413,720 412,720C407,714 405,712 402,710C400,708 397,704 396,704C395,703 396,702 394,702C393,701 391,698 390,698C389,696 389,696 386,694C386,693 386,693 378,685C377,684 373,680 365,673C363,670 356,664 355,662C353,660 353,660 351,658C348,655 348,655 345,652C345,652 336,643 334,642C332,640 330,638 325,633C323,630 323,630 320,628C318,626 311,618 306,614C303,610 303,610 293,600C290,598 282,589 279,587C277,584 272,579 265,573C264,572 255,562 252,560C251,559 239,546 238,546C236,544 232,539 229,536C225,532 225,532 225,532C225,532 219,526 218,526C217,524 212,519 211,517C208,515 208,515 206,513C206,513 204,511 206,510C207,508 207,509 221,494C223,492 230,485 232,483C233,482 272,444 274,442C274,441 274,441 277,438C277,438 278,436 279,437C280,437 283,440 285,442C287,444 287,444 291,448C296,453 298,455 299,456C300,456 301,458 303,461C304,461 307,464 307,464C307,465 307,465 313,470C313,471 313,471 314,471Z" style="fill:rgb(33,140,73);"/></g></g></g></svg>