<?xml version="1.0" encoding="UTF-8" standalone="no"?><!DOCTYPE svg PUBLIC "-//W3C//DTD SVG 1.1//EN" "http://www.w3.org/Graphics/SVG/1.1/DTD/svg11.dtd"><svg width="468px" height="468px" version="1.1" xmlns="http://www.w3.org/2000/svg" xmlns:xlink="http://www.w3.org/1999/xlink" xml:space="preserve" xmlns:serif="http://www.serif.com/" style="fill-rule:evenodd;clip-rule:evenodd;stroke-linecap:round;stroke-linejoin:round;stroke-miterlimit:5;"><g transform="matrix(1,0,0,1,-7780.150248,-5315.565435)"><g transform="matrix(1,0,0,1,-0.228456,-0.941977)"><g transform="matrix(1,0,0,1,-72.016726,-69.57384)"><g transform="matrix(1.685531,0,0,1.685531,-5848.727177,-3690.326943)"><circle cx="8267" cy="5524" r="139" style="fill:rgb(187,136,226);"/></g><g transform="matrix(1.729176,0,0,1.729176,-5696.854761,-4059.650443)"><circle cx="7971" cy="5598" r="122" style="fill:rgb(49,27,66);"/></g><g transform="matrix(1.871484,0,0,1.871484,-6913.44663,-4719.554751)"><path d="M8015,5458L8036,5502L8084,5509L8050,5543L8058,5591L8015,5568L7972,5591L7980,5543L7945,5509L7993,5502L8015,5458Z" style="fill:rgb(187,136,226);stroke:rgb(187,136,226);stroke-width:5px;"/></g></g></g></g></svg>