<?xml version="1.0" encoding="UTF-8" standalone="no"?><!DOCTYPE svg PUBLIC "-//W3C//DTD SVG 1.1//EN" "http://www.w3.org/Graphics/SVG/1.1/DTD/svg11.dtd"><svg width="468px" height="468px" version="1.1" xmlns="http://www.w3.org/2000/svg" xmlns:xlink="http://www.w3.org/1999/xlink" xml:space="preserve" xmlns:serif="http://www.serif.com/" style="fill-rule:evenodd;clip-rule:evenodd;stroke-linejoin:round;stroke-miterlimit:2;"><g transform="matrix(1,0,0,1,-8972.249697,-5315.565435)"><g transform="matrix(1,0,0,1,-0.228456,-0.941977)"><g transform="matrix(1,0,0,1,20.060275,-25.075248)"><g transform="matrix(1.685531,0,0,1.685531,-4748.704729,-3734.825534)"><circle cx="8267" cy="5524" r="139" style="fill:white;"/></g><g transform="matrix(1.729176,0,0,1.729176,-4596.832314,-4104.149035)"><circle cx="7971" cy="5598" r="122" style="fill:rgb(229,231,235);"/></g><g transform="matrix(1,0,0,1,-206.631686,-218.818815)"><g transform="matrix(0.742284,0,0,0.742284,9012.809741,5414.461752)"><path d="M599,406C603,422 602,425 602,452C602,455 604,455 606,455C614,455 618,454 624,458C625,458 629,462 629,462C636,470 636,476 636,481C636,496 636,661 635,663C634,674 625,684 612,684C608,684 537,684 482,684C477,684 416,684 413,684C404,684 400,681 396,678C394,677 389,670 388,663C388,661 388,542 388,484C388,474 388,472 393,463C394,462 398,458 403,457C411,453 419,456 421,455C421,454 421,454 421,452C422,439 420,421 425,405C426,401 428,393 436,380C437,377 440,374 440,374C440,374 444,370 444,370C446,366 467,341 506,339C548,336 579,361 592,388C594,391 596,394 599,406ZM570,419C566,392 544,379 543,379C543,378 540,376 533,373C512,365 484,370 467,391C462,396 459,403 457,406C452,420 453,430 453,436C453,453 453,453 453,454C454,455 454,455 467,455C568,455 568,455 569,455C571,455 571,453 571,448C571,423 570,423 570,419Z" style="fill:rgb(156,163,175);"/></g><g transform="matrix(0.596185,0,0,0.596185,9016.66767,5441.051379)"><circle cx="631" cy="663" r="45" style="fill:rgb(235,235,235);"/></g></g></g></g></g></svg>