<?xml version="1.0" encoding="UTF-8" standalone="no"?>
<!DOCTYPE svg PUBLIC "-//W3C//DTD SVG 1.1//EN" "http://www.w3.org/Graphics/SVG/1.1/DTD/svg11.dtd">
<svg width="100%" height="100%" viewBox="0 0 281 481" version="1.1" xmlns="http://www.w3.org/2000/svg" xmlns:xlink="http://www.w3.org/1999/xlink" xml:space="preserve" xmlns:serif="http://www.serif.com/" style="fill-rule:evenodd;clip-rule:evenodd;stroke-linejoin:round;stroke-miterlimit:2;">
    <g transform="matrix(1,0,0,1,-9160.950595,-200.858123)">
        <g transform="matrix(2.211214,0,0,1.482332,-200.62803,92.293922)">
            <g id="Fondo" transform="matrix(0.413958,0,0,0.617506,4085.125967,-88.255416)">
                <path d="M418.917,492.48C417.282,454.489 413.819,363.629 504.512,268.511C510.568,262.159 511.662,259.94 514.32,262.68C621.009,372.648 606.343,468.081 603.482,514.501C603.332,516.919 604.288,516.642 624.066,539.884C627.189,543.554 662.548,585.105 663.039,585.82C664.847,588.449 664.726,705.081 665.27,719.502C665.568,727.412 661.539,719.77 660.062,717.851C592.98,630.683 591.227,632.055 585.891,624.12C583.321,620.298 582.172,627.733 580.976,631.638C579.56,636.265 577.956,634.638 570.224,635.06C566.377,635.27 582.933,647.688 581.294,672.466C581.135,674.866 573.596,673.995 562.479,674.071C555.9,674.116 567.771,692.336 547.087,727.25C515.527,780.522 516.158,780.812 513.198,785.302C511.835,787.369 511.282,785.929 510.105,783.714C501.162,766.884 473.773,722.489 470.901,715.336C461.576,692.113 464.454,679.954 464.145,675.546C463.968,673.019 450.749,674.358 444.412,673.971C440.691,673.744 443.415,654.808 447.942,646.741C453.45,636.926 454.196,637.424 454.67,636.572C456.101,633.996 453.544,635.211 445.452,634.871C442.13,634.731 441.705,622.479 439.529,622.649C438.853,622.702 391.327,682.814 382.018,695.13C380.308,697.393 363.63,719.458 360.17,723.047C358.25,725.037 358.935,721.818 359.246,688.498C359.307,681.993 359.32,676.545 359.321,676.499C359.672,635.985 359.821,636.083 360.166,595.497C360.237,587.186 360.204,586.854 365.675,580.656C372.634,572.771 414.228,523.33 419.383,517.4C421.586,514.866 420.374,514.465 418.917,492.48Z" style="fill:rgb(55,61,64);"/>
                <path d="M435.952,511.45C434.922,499.001 428.935,446.976 445.347,394.452C453.15,369.479 454.328,369.285 456.528,368.922C456.991,368.846 541.522,368.859 559.499,368.876C567.33,368.883 569.218,367.396 572.01,374.697C585.992,411.251 590.516,438.184 589.934,480.508C589.069,543.325 568.491,618.718 568.096,619.277C567.362,620.316 561.112,620.337 560.499,620.339C528.063,620.445 527.93,620.133 527.421,619.558C526.642,618.678 527.247,534.002 527.083,520.503C527.048,517.637 526.352,517.577 523.5,517.543C499.649,517.256 499.485,516.74 497.827,517.952C496.333,519.045 497.512,599.381 497.08,617.496C496.991,621.219 494.408,620.352 475.5,620.346C458.94,620.342 456.718,621.541 455.314,616.553C443.702,575.31 436.982,519.937 435.952,511.45Z" style="fill:rgb(253,253,253);"/>
                <g transform="matrix(1,0,0,1,-1.010058,-0.258221)">
                    <path d="M382.235,669.216C379.77,672.405 375.47,679.522 375.165,675.663C374.667,669.349 375.219,669.375 375.395,596.5C375.411,589.87 412.662,549.23 413.598,547.571C414.158,546.578 418.567,542.438 421.115,539.029C421.245,538.856 423.542,535.783 423.794,539.374C424.639,551.447 435.821,601.498 435.011,603.336C434.572,604.332 383.662,667.892 382.235,669.216Z" style="fill:rgb(222,55,52);"/>
                </g>
                <g transform="matrix(-1,0,0,1,1025.657768,-0.213278)">
                    <path d="M382.235,669.216C379.77,672.405 375.47,679.522 375.165,675.663C374.667,669.349 375.219,669.375 375.395,596.5C375.411,589.87 412.662,549.23 413.598,547.571C414.158,546.578 418.567,542.438 421.115,539.029C421.245,538.856 423.542,535.783 423.794,539.374C424.639,551.447 435.821,601.498 435.011,603.336C434.572,604.332 383.662,667.892 382.235,669.216Z" style="fill:rgb(222,55,52);"/>
                </g>
                <path d="M479.794,676.545L544.584,676.523C546.188,701.125 540.861,707.633 516.765,747.664C513.951,752.339 513.029,756.366 510.159,751.706C482.585,706.941 478.558,702.709 479.794,676.545Z" style="fill:rgb(251,186,29);"/>
                <path d="M511.14,285.495C517.734,293.501 540.434,326.479 552.587,352.387C552.587,352.387 464.995,354.31 463.994,352.347C461.958,348.351 497.29,295.487 511.14,285.495Z" style="fill:rgb(221,55,52);"/>
                <path d="M464.502,658.121C463.547,657.946 462.545,658.277 461.59,658.102C458.145,657.469 466.804,645.122 468.743,643.973C470.956,642.661 545.8,643.53 552.5,643.608C559.5,643.689 563.817,657.164 563.543,657.53C563.072,658.158 562.857,658.141 464.502,658.121Z" style="fill:rgb(215,216,218);"/>
                <path d="M511.14,285.495C511.14,285.495 543.345,319.262 560.582,352.422L552.587,352.387C540.434,326.479 517.734,293.501 511.14,285.495Z" style="fill:rgb(249,247,245);"/>
                <g transform="matrix(0.907232,0,0,0.907232,4.643206,-75.313672)">
                    <circle cx="559.25" cy="561.065" r="34.743" style="fill:rgb(55,61,64);"/>
                </g>
                <g transform="matrix(0.765613,0,0,0.765613,82.927938,0.592131)">
                    <circle cx="560.446" cy="565.704" r="30.104" style="fill:rgb(124,218,243);"/>
                </g>
                <g transform="matrix(0.835548,0.768483,-0.768483,0.835548,495.85721,-451.659272)">
                    <path d="M556.255,554.671L520.613,554.671C524.174,548.154 531.008,544.101 538.434,544.101C545.86,544.101 552.694,548.154 556.255,554.671Z" style="fill:rgb(249,247,245);fill-opacity:0.8;"/>
                </g>
            </g>
        </g>
    </g>
</svg>
