<?xml version="1.0" encoding="UTF-8" standalone="no"?>
<!DOCTYPE svg PUBLIC "-//W3C//DTD SVG 1.1//EN" "http://www.w3.org/Graphics/SVG/1.1/DTD/svg11.dtd">
<svg width="100%" height="100%" viewBox="0 0 438 442" version="1.1" xmlns="http://www.w3.org/2000/svg" xmlns:xlink="http://www.w3.org/1999/xlink" xml:space="preserve" xmlns:serif="http://www.serif.com/" style="fill-rule:evenodd;clip-rule:evenodd;stroke-linejoin:round;stroke-miterlimit:2;">
    <g transform="matrix(1,0,0,1,-10909.879672,-899.591202)">
        <g transform="matrix(2.211214,0,0,1.482332,-200.62803,92.293922)">
            <g transform="matrix(0.45224,0,0,1.123682,2879.463577,-1066.213344)">
                <g id="Fondo" transform="matrix(0.988134,0,0,0.593235,4463.349329,1259.637046)">
                    <path d="M410.528,464.893C413.567,464.64 435.431,462.824 448.461,461.097C455.122,460.214 504.209,382.952 592.739,329.923C648.62,296.451 720.696,289.625 725.444,294.552C726.773,295.931 726.424,302.775 726.387,303.494C721.283,403.594 662.74,478.968 588.527,548.529C565.695,569.929 564.371,569.465 563.396,575.484C558.194,607.614 560.633,647.299 561.016,653.534C561.097,654.86 561.213,656.741 550.075,666.021C510.288,699.177 494.063,711.555 448.408,736.325C424.785,749.142 448.549,721.725 462.037,698.234C479.024,668.646 488.064,654.611 476.2,643.856C472.674,640.66 456.281,657.322 433.909,637.036C433.615,636.769 385.599,588.843 384.996,588.092C370.641,570.221 382.019,553.081 380.339,550.604C368.844,533.665 337.232,556.793 318.214,569.044C287.04,589.125 285.257,593.096 283.474,588.512C282.105,584.993 303.386,545.582 326.018,514.156C328.687,510.451 347.264,484.656 361.196,469.215C367.141,462.626 368.932,467.348 410.528,464.893Z" style="fill:rgb(20,87,129);"/>
                    <path d="M488.789,542.569C488.956,541.789 490.194,535.992 487.261,532.71C484.943,530.117 481.636,529.76 479.468,530.392C472.752,532.352 426.562,586 423.464,585.743C422.802,585.688 394.688,558.379 394.483,556.502C394.08,552.808 494.919,408.37 589.215,348.032C598.747,341.932 599.873,341.267 601.917,344.211C637.369,395.273 673.978,415.659 677.306,419.662C680.067,422.983 645.602,467.924 642.053,472.138C569.571,558.192 472.403,631.042 468.516,630.419C467.377,630.237 444.074,607.541 441.532,604.484C442.559,603.617 492.368,552.535 494.125,549.295C494.553,548.506 494.656,544.397 488.789,542.569Z" style="fill:rgb(246,247,249);"/>
                    <path d="M374.384,616.901C377.304,618.238 379.42,619.207 404.094,643.907C431.161,671.004 345.07,718.654 298.443,729.254C283.779,732.588 292.6,716.825 299.842,700.658C309.213,679.74 346.051,612.006 374.384,616.901Z" style="fill:rgb(19,87,127);"/>
                    <g transform="matrix(0.690564,0,0,0.690564,111.869528,205.318468)">
                        <path d="M374.384,616.901C377.304,618.238 379.42,619.207 404.094,643.907C431.161,671.004 345.07,718.654 298.443,729.254C283.779,732.588 292.6,716.825 299.842,700.658C309.213,679.74 346.051,612.006 374.384,616.901Z" style="fill:white;"/>
                    </g>
                    <path d="M710.146,329.435C702.595,377.815 684.889,406.601 684.576,406.668C680.166,407.609 631.513,366.106 613.948,338.302C611.423,334.306 614.013,334.103 620.622,330.769C652.503,314.685 711.444,303.463 712.464,308.507C713.197,312.139 710.438,327.776 710.146,329.435Z" style="fill:rgb(30,162,223);"/>
                    <path d="M547.045,606.483C546.093,634.621 547.269,634.574 547.015,649.48C546.966,652.357 521.05,672.099 514.553,677.564C502.814,687.44 482.652,700.159 479.778,701.973C476.154,704.259 472.376,707.253 474.616,703.535C476.371,700.623 489.755,678.41 493.683,665.558C500.155,644.378 485.937,636.349 488.957,633.924C495.363,628.78 495.503,629.106 501.884,623.956C547.001,587.554 549.154,582.454 549.09,586.581C549.065,588.181 548.413,588.111 547.045,606.483Z" style="fill:rgb(209,211,217);"/>
                    <path d="M336.454,541.422C323.092,548.899 313.129,556.459 318.017,550.353C322.169,545.166 337.087,519.504 362.389,489.406C366.366,484.674 368.594,479.904 373.518,479.844C403.619,479.477 403.566,479.687 433.499,476.43C437.472,475.998 433.977,478.467 427.099,488.208C426.996,488.353 414.068,503.452 400.112,523.229C390.429,536.95 390.133,539.267 386.844,537.031C369.465,525.215 355.931,530.713 336.454,541.422Z" style="fill:rgb(213,217,223);"/>
                    <path d="M418.336,628.686C419.707,630.11 424.928,633.968 422.397,639.448C418.129,648.692 410.354,641.092 409.621,640.376C380.369,611.781 380.218,610.987 380.875,607.559C382.038,601.486 388.946,599.356 393.373,603.644C400.087,610.148 399.352,610.843 418.336,628.686Z" style="fill:rgb(18,88,126);"/>
                    <path d="M488.789,542.569C494.656,544.397 494.553,548.506 494.125,549.295C492.368,552.535 442.559,603.617 441.532,604.484C436.184,599.561 435.712,599.742 435.718,598.519C435.729,596.219 482.863,552.601 488.789,542.569Z" style="fill:rgb(167,174,182);"/>
                    <path d="M446.814,614.149L455.846,623.178C462.761,630.047 462.747,629.974 463.314,630.596C465.215,632.683 459.706,634.064 451.569,632.225C448.981,631.64 445.273,630.802 426.557,610.448C424.142,607.822 427.82,605.024 431.715,601.794C433.849,600.024 438.008,605.367 446.814,614.149Z" style="fill:rgb(156,163,169);"/>
                    <path d="M409.553,593.446C408.655,592.63 399.488,583.691 394.788,578.281C389.902,572.658 390.393,560.317 393.564,561.348C394.969,561.805 418.299,585.44 420.408,587.577C422.446,589.642 419.729,591.189 416.747,594.694C412.846,599.277 411.724,595.383 409.553,593.446Z" style="fill:rgb(211,217,225);"/>
                </g>
                <g transform="matrix(0.437885,0,0,0.262888,4430.266326,1248.70113)">
                    <circle cx="1374.751" cy="1042.302" r="89.722" style="fill:rgb(19,88,130);"/>
                </g>
                <g transform="matrix(0.421604,0,0,0.253114,4460.269116,1259.119173)">
                    <circle cx="1356.678" cy="1041.394" r="59.869" style="fill:rgb(171,217,241);"/>
                </g>
            </g>
        </g>
    </g>
</svg>
