<?xml version="1.0" encoding="UTF-8" standalone="no"?>
<!DOCTYPE svg PUBLIC "-//W3C//DTD SVG 1.1//EN" "http://www.w3.org/Graphics/SVG/1.1/DTD/svg11.dtd">
<svg width="100%" height="100%" viewBox="0 0 445 445" version="1.1" xmlns="http://www.w3.org/2000/svg" xmlns:xlink="http://www.w3.org/1999/xlink" xml:space="preserve" xmlns:serif="http://www.serif.com/" style="fill-rule:evenodd;clip-rule:evenodd;stroke-linejoin:round;stroke-miterlimit:2;">
    <g transform="matrix(1,0,0,1,-9959.14592,-2960.683264)">
        <g transform="matrix(2.211214,0,0,1.482332,-200.62803,92.293922)">
            <g transform="matrix(0.074502,0,0,0.111135,4695.080703,2084.852152)">
                <g transform="matrix(1,0,0,1,-1347.916667,-1347.916667)">
                    <g transform="matrix(4.166667,0,0,4.166667,0,0)">
                        <path d="M646.87,258.748C646.87,401.555 501.944,517.496 323.435,517.496C295.138,517.496 266.963,514.525 239.632,508.66L97.031,646.87L137.843,470.658C51.447,422.232 0.001,343.141 0.001,258.748C0.001,115.941 144.927,0 323.436,0C501.945,0 646.871,115.941 646.871,258.748L646.87,258.748Z" style="fill:white;"/>
                    </g>
                </g>
            </g>
        </g>
    </g>
</svg>
