<?xml version="1.0" encoding="UTF-8" standalone="no"?>
<!DOCTYPE svg PUBLIC "-//W3C//DTD SVG 1.1//EN" "http://www.w3.org/Graphics/SVG/1.1/DTD/svg11.dtd">
<svg width="100%" height="100%" viewBox="0 0 445 445" version="1.1" xmlns="http://www.w3.org/2000/svg" xmlns:xlink="http://www.w3.org/1999/xlink" xml:space="preserve" xmlns:serif="http://www.serif.com/" style="fill-rule:evenodd;clip-rule:evenodd;stroke-linejoin:round;stroke-miterlimit:2;">
    <g transform="matrix(1,0,0,1,-9352.072017,-2960.683264)">
        <g transform="matrix(2.211214,0,0,1.482332,-200.62803,92.293922)">
            <g transform="matrix(0.07216,0,0,0.107641,4420.53745,2084.852152)">
                <g transform="matrix(1,0,0,1,-1391.666667,-1391.666667)">
                    <g transform="matrix(4.166667,0,0,4.166667,0,0)">
                        <path d="M667.504,116.813L667.504,350.439C667.504,414.91 615.162,467.252 550.691,467.252L317.065,467.252L133.502,667.503L216.94,467.252L116.814,467.252C52.343,467.252 0.001,414.91 0.001,350.439L0.001,116.813C0.001,52.342 52.343,0 116.814,0L550.691,0C615.162,0 667.504,52.342 667.504,116.813Z" style="fill:white;"/>
                    </g>
                </g>
            </g>
        </g>
    </g>
</svg>
