<?xml version="1.0" encoding="UTF-8" standalone="no"?>
<!DOCTYPE svg PUBLIC "-//W3C//DTD SVG 1.1//EN" "http://www.w3.org/Graphics/SVG/1.1/DTD/svg11.dtd">
<svg width="100%" height="100%" viewBox="0 0 402 390" version="1.1" xmlns="http://www.w3.org/2000/svg" xmlns:xlink="http://www.w3.org/1999/xlink" xml:space="preserve" xmlns:serif="http://www.serif.com/" style="fill-rule:evenodd;clip-rule:evenodd;stroke-linejoin:round;stroke-miterlimit:2;">
    <g transform="matrix(1,0,0,1,-10308.286463,-928.795156)">
        <g transform="matrix(2.211214,0,0,1.482332,-200.62803,92.293922)">
            <g id="Fondo" transform="matrix(0.242039,0,0,0.361052,4718.439017,516.987023)">
                <path d="M859.179,369.765C864.228,375.901 898.061,417.017 872.077,468.258C857.88,496.254 796.039,540.889 748.544,582.549C734.036,595.274 745.609,612.411 760.2,686.56C769.369,733.156 793.767,796.071 734.223,838.102C699.837,862.375 658.795,847.318 652.646,845.062C609.697,823.952 524.077,763.887 513.44,761.887C504.468,760.201 502.693,765.203 397.661,829.755C386.818,836.419 354.332,859.822 313.468,849.618C281.016,841.514 241.258,806.035 250.338,744.475C255.081,712.323 282.239,603.13 281.18,594.551C279.657,582.215 250.483,564.949 204.437,523.573C176.433,498.409 130.971,469.925 142.903,409.596C145.205,397.956 159.829,350.609 217.545,340.729C235.63,337.633 339.824,325.743 351.519,324.696C376.352,322.472 373.707,315.286 390.896,275.661C428.548,188.863 436.333,152.172 486.362,135.072C523.445,122.398 567.986,140.523 590.048,180.745C610.18,217.448 643.602,311.69 651.653,318.314C660.542,325.628 667.092,323.828 693.455,326.884C814.533,340.918 829.91,339.018 859.179,369.765Z" style="fill:rgb(252,252,252);"/>
                <path d="M375.547,360.973C385.238,359.909 389.457,360.428 398.438,352.435C407.659,344.229 435.246,262.363 463.788,204.649C486.365,158.998 534.602,159.332 556.519,200.489C561.807,210.42 573.676,232.709 612.36,329.559C623.708,357.971 626.959,358.895 657.459,361.908C668.44,362.993 761.877,372.224 794.519,377.364C844.485,385.233 849.375,429.887 838.064,449.262C832.303,459.129 828.163,466.222 732.282,545.229C704.297,568.29 695.37,573.139 699.687,591.459C712.323,645.085 729.458,724.879 733.051,743.583C744.534,803.348 700.482,819.9 670.595,810.201C660.396,806.892 660.007,806.765 555.809,741.006C520.983,719.027 517.889,716.017 505.482,718.412C495.792,720.283 415.289,773.838 390.192,789.003C373.417,799.14 336.247,827.865 305.809,803.109C274.773,777.867 288.156,749.48 311.485,640.497C321.271,594.78 326.97,585.593 321.343,573.577C317.066,564.443 217.82,488.206 192.885,461.149C189.781,457.781 167.902,434.041 185.341,404.405C202.559,375.142 216.206,378.322 375.547,360.973Z" style="fill:rgb(25,57,80);"/>
                <path d="M497.487,208.485C524.919,186.158 537.525,228.226 543.958,243.329C570.982,306.777 595.961,375.26 601.934,381.066C609.165,388.094 610.307,387.252 734.518,400.323C793.729,406.554 796.551,408.202 801.217,410.926C802.504,411.678 802.343,411.732 804.972,414.121C822.94,435.289 799.844,448.455 773.742,470.787C673.061,556.929 666.65,553.979 665.505,570.5C664.483,585.26 668.499,584.775 703.427,747.516C704.739,753.627 709.047,767.162 697.371,777.341C683.487,789.444 670.754,777.021 620.693,746.185C596.216,731.108 549.434,700.854 543.267,696.866C514.259,678.106 509.848,676.714 485.268,693.126C466.689,705.531 373.497,763.779 363.746,769.874C353.382,776.352 333.945,792.141 319.925,771.235C313.522,761.687 318.486,748.311 335.186,673.421C356.489,577.895 363.567,568.94 350.448,555.546C344.134,549.1 220.222,450.927 213.834,438.346C212.588,435.892 212.123,433.606 212.114,433.581C209.416,404.865 229.576,407.365 283.437,401.031C404.482,386.797 417,393.812 426.55,371.521C427.059,370.334 446.585,321.753 448.324,317.425C450.291,312.532 464.749,276.561 473.362,256.442C488.793,220.394 487.731,219.746 497.487,208.485Z" style="fill:rgb(247,176,9);"/>
                <path d="M859.179,369.765C859.179,369.765 862.594,369.789 865.26,372.739C917.518,430.555 878.543,486.379 853.099,507.04C845.916,512.872 847.1,514.238 765.117,582.103C749.148,595.321 747.956,597.15 752.222,614.559C752.258,614.707 776.223,720.974 780.491,747.502C793.455,828.073 722.793,879.292 659.538,850.419C651.769,846.873 652.646,845.062 652.646,845.062C658.795,847.318 699.837,862.375 734.223,838.102C793.767,796.071 769.369,733.156 760.2,686.56C745.609,612.411 734.036,595.274 748.544,582.549C796.039,540.889 857.88,496.254 872.077,468.258C898.061,417.017 864.228,375.901 859.179,369.765Z" style="fill:rgb(216,122,126);"/>
                <path d="M285.525,407.772C295.059,406.845 298.359,406.421 299.472,406.278C318.595,403.825 384.164,399.023 412.486,396.317C425.131,395.108 425.638,409.847 416.601,412.827C413.395,413.884 332.775,419.748 325.481,420.279C268.246,424.442 254.247,431.205 251.247,421.575C247.148,408.418 266.175,409.561 285.525,407.772Z" style="fill:rgb(252,252,243);"/>
                <path d="M616.481,396.767C626.247,397.576 732.355,406.371 738.481,407.633C743.851,408.74 767.467,406.563 764.216,419.437C761.222,431.296 755.29,423.143 643.51,415.33C618.38,413.573 600.383,414.895 603.951,402.642C604.772,399.822 607.192,397.928 607.582,397.623C610.397,395.421 614.699,396.6 616.481,396.767Z" style="fill:rgb(252,252,243);"/>
                <path d="M439.544,395.962C424.289,394.94 429.541,386.939 437.047,368.276C440.051,360.805 471.414,282.82 473.972,274.634C474.409,273.233 474.933,273.58 480.996,257.683C485.471,245.95 501.893,250.87 496.021,264.303C478.838,303.618 446.769,391.298 442.388,395.306C442.388,395.306 439.772,395.909 439.544,395.962Z" style="fill:rgb(251,251,242);"/>
                <path d="M365.681,586.692C366.81,586.361 377.847,583.125 378.715,593.489C378.755,593.963 364.933,651.371 358.721,679.54C348.227,727.13 347.269,727.67 343.616,729.729C340.252,731.624 330.449,730.06 332.94,718.603C339.862,686.762 359.575,603.585 361.942,593.595C363.289,587.915 365.608,586.769 365.681,586.692Z" style="fill:rgb(251,252,242);"/>
                <g transform="matrix(0.853333,0,0,0.853333,-3.186987,-5.776422)">
                    <circle cx="589.365" cy="280.545" r="10.635" style="fill:rgb(235,235,235);"/>
                </g>
                <g transform="matrix(0.956144,0,0,0.956144,-28.540282,-51.984695)">
                    <circle cx="274.499" cy="494.783" r="7.75" style="fill:rgb(235,235,235);"/>
                </g>
            </g>
        </g>
    </g>
</svg>
