<?xml version="1.0" encoding="UTF-8" standalone="no"?>
<!DOCTYPE svg PUBLIC "-//W3C//DTD SVG 1.1//EN" "http://www.w3.org/Graphics/SVG/1.1/DTD/svg11.dtd">
<svg width="100%" height="100%" viewBox="0 0 350 326" version="1.1" xmlns="http://www.w3.org/2000/svg" xmlns:xlink="http://www.w3.org/1999/xlink" xml:space="preserve" xmlns:serif="http://www.serif.com/" style="fill-rule:evenodd;clip-rule:evenodd;stroke-linejoin:round;stroke-miterlimit:2;">
    <g transform="matrix(1,0,0,1,-9738.723423,-959.252272)">
        <g transform="matrix(2.211214,0,0,1.482332,-200.62803,92.293922)">
            <g id="Fondo" transform="matrix(1.025621,0,0,1.529932,3928.216827,57.425106)">
                <path d="M553.08,423.306C557.715,415.204 567.032,413.465 581.288,405.017C600.125,393.854 595.231,389.711 598.768,369.538C599.363,366.144 601.447,336.025 615.68,347.23C627.712,356.702 627.191,357.124 638.533,367.47C654.02,381.596 698.474,348.398 706.227,373.595C707.507,377.753 708.473,380.893 680.539,421.518C678.031,425.166 695.814,458.052 696.136,462.545C698.036,489.081 648.239,466.399 646.905,466.916C633.536,472.092 606.873,503.623 600.422,479.508C596.594,466.695 598.663,466.417 595.82,453.444C593.065,440.869 576.652,438.987 576.32,438.669C550.451,435.022 552.01,425.176 553.08,423.306Z" style="fill:rgb(242,166,78);"/>
                <path d="M573.192,414.079C573.926,413.612 590.887,403.626 591.41,403.324C606.393,394.664 603.729,361.908 607.982,353.711C609.147,351.465 612.372,348.204 635.144,369.917C644.763,379.088 646.606,377.094 688.481,370.372C710.63,366.817 691.274,391.828 676.305,418.385C672.458,425.208 673.347,426.216 687.489,454.505C687.489,454.505 693.486,466.286 689.299,467.306C683.973,468.603 660.311,463.35 655.531,462.289C641.932,459.273 641.495,460.212 630.397,467.344C629.743,467.711 615.534,480.023 613.42,480.315C603.184,481.733 607.15,462.605 600.183,442.911C598.517,438.203 560.215,430.198 559.929,423.731C562.417,419.275 571.98,414.777 573.192,414.079Z" style="fill:rgb(249,218,116);"/>
                <path d="M578.713,420.666C578.201,415.59 590.27,412.55 595.517,410.538C610.641,404.736 607.945,400.993 611.876,376.587C614.391,360.98 620.17,375.426 635.732,389.19C639.183,392.242 665.185,387.048 675.471,383.338C687.864,378.866 660.21,421.846 662.156,428.259L665.486,434.536C645.071,432.699 585.409,419.778 578.713,420.666Z" style="fill:rgb(252,229,146);"/>
                <path d="M578.713,420.666C585.409,419.778 665.486,434.536 665.486,434.536C665.486,434.536 679.019,457.169 676.587,456.828C658.046,454.229 642.102,440.972 628.727,455.707C613.584,472.389 611.904,473.257 611.655,471.418C610.643,463.928 610.559,464.144 609.643,456.492C608.078,443.415 611.528,440.75 600.243,433.998C588.694,427.088 578.341,424.039 578.713,420.666Z" style="fill:rgb(252,241,184);"/>
            </g>
        </g>
    </g>
</svg>
