<?xml version="1.0" encoding="UTF-8" standalone="no"?>
<!DOCTYPE svg PUBLIC "-//W3C//DTD SVG 1.1//EN" "http://www.w3.org/Graphics/SVG/1.1/DTD/svg11.dtd">
<svg width="100%" height="100%" viewBox="0 0 380 361" version="1.1" xmlns="http://www.w3.org/2000/svg" xmlns:xlink="http://www.w3.org/1999/xlink" xml:space="preserve" xmlns:serif="http://www.serif.com/" style="fill-rule:evenodd;clip-rule:evenodd;stroke-linejoin:round;stroke-miterlimit:2;">
    <g transform="matrix(1,0,0,1,-9183.930675,-924.68342)">
        <g transform="matrix(2.211214,0,0,1.482332,-200.62803,92.293922)">
            <g id="Fondo" transform="matrix(0.246853,0,0,0.368234,4203.213847,500.200613)">
                <path d="M704.671,587.46C711.061,614.525 742.962,737.108 747.165,754.593C748.262,759.157 760.65,790.064 732.08,815.028C718.535,826.863 692.061,833.015 670.189,818.978C658.143,811.247 523.283,724.699 519.584,722.384C515.631,719.909 514.238,717.156 510.594,719.645C504.98,723.477 353.516,820.913 351.246,822.018C313.779,840.269 262.015,807.585 278.525,755.508C278.803,754.632 321.988,587.733 321.578,585.485C321.191,583.363 272.145,543.503 251.766,526.205C194.264,477.397 174.415,466.792 168.15,446.627C157.57,412.572 180.146,377.873 215.485,376.291C215.838,376.275 393.665,362.748 395.257,361.237C397.428,359.175 425.201,292.604 427.708,286.594C445.488,243.975 445.986,244.293 463.831,201.636C483.247,155.227 543.852,154.32 562.898,202.347C566.136,210.512 621.729,340.36 626.864,352.353C630.774,361.487 631.526,361.692 632.379,361.924C634.86,362.601 679.207,365.711 692.536,367.132C702.299,368.173 778.979,373.964 786.498,374.532C813.899,376.601 837.457,374.256 855.111,405.688C863.337,420.335 865.456,452.306 840.088,472.02C831.605,478.613 831.985,478.94 736.862,557.928C729.288,564.218 722.386,570.029 721.131,571.086C706.418,583.474 704.164,582.661 704.671,587.46Z" style="fill:rgb(253,253,253);"/>
                <path d="M297.113,774.491C297.856,764.903 337.084,617.134 346.061,579.392C347.071,575.143 341.204,572.351 325.68,559.272C315.914,551.045 211.999,463.504 203.17,456.953C170.876,432.989 192.481,399.929 214.492,398.403C269.68,394.575 325.447,389.195 375.518,385.733C409.85,383.359 410.57,383.285 411.721,380.596C461.642,264.001 479.24,221.589 484.997,207.715C495.573,182.226 531.337,182.549 542.16,208.642C549.542,226.441 549.007,226.56 583.073,305.683C588.151,317.479 587.872,317.519 592.948,329.302C613.664,377.391 613.26,377.54 615.374,381.57C616.482,383.682 617.36,383.115 812.497,398.54C826.577,399.653 848.764,418.618 835.243,444.353C833.958,446.799 832.518,449.54 810.151,468.069C800.874,475.754 712.182,549.227 694.462,564.457C680.464,576.487 679.319,576.219 679.77,578.451C680.73,583.202 695.967,642.926 697.396,648.527C720.518,739.161 725.628,758.08 728.194,767.577C732.838,784.769 720.122,797.183 717.187,799.064C697.122,811.92 686.06,803.314 665.804,790.003C622.9,761.807 549.924,715.434 539.811,709.007C513.675,692.398 513.742,691.916 512.412,692.23C512.088,692.307 432.591,743.684 430.76,744.892C425.35,748.459 382.561,776.677 362.62,788.69C347.71,797.671 332.559,812.446 312.675,801.195C296.129,791.833 297.148,774.812 297.113,774.491Z" style="fill:rgb(17,16,16);"/>
                <path d="M415.521,406.778C420.619,406.368 420.522,406.508 425.572,405.813C427.422,405.558 426.997,404.754 466.012,315.275C477.004,290.065 507.069,216.182 510.382,214.311C518.189,209.901 521.997,224.784 522.332,225.572C592.411,390.185 592.647,390.068 598.633,404.426C599.891,407.445 601.343,405.999 808.51,422.419C813.039,422.778 816.07,427.714 814.282,431.398C811.329,437.485 653.068,565.825 652.501,568.5C651.931,571.192 671.943,646.665 673.738,653.435C676.279,663.02 700.812,755.54 704.467,773.507C705.434,778.257 700.571,781.283 698.499,781.091C693.597,780.637 664.545,760.134 637.636,743.269C617.583,730.701 514.2,663.486 513.556,663.326C511.394,662.791 511.577,663.741 506.275,667.123C498.24,672.248 358.528,762.692 356.247,764.068C335.064,776.838 329.539,783.645 324.616,780.316C318.609,776.255 322.955,768.946 333.343,727.461C353.034,648.832 354.211,649.197 373.624,570.528C373.937,569.261 374.489,568.647 368.475,563.529C356.273,553.147 289.128,496.016 214.907,435.003C208.132,429.433 212.876,424.025 215.671,422.949C216.726,422.543 378.578,409.923 415.521,406.778Z" style="fill:rgb(253,200,23);"/>
                <g transform="matrix(0.744312,0,0,0.744312,127.01278,74.850835)">
                    <path d="M504.964,325.657C503.048,332.235 489.827,360.477 488.427,363.467C486.582,367.408 481.056,381.214 478.661,385.57C477.988,386.795 478.636,387.066 471.965,401.704C463.461,420.366 463.066,431.347 450.512,431.199C444.256,431.125 436.729,423.787 439.757,415.602C441.047,412.114 465.022,356.455 466.26,354.389C468.435,350.758 467.575,350.399 486.983,305.709C494.39,288.653 497.622,276.467 509.607,280.135C517.023,282.404 520.062,291.081 518.182,295.398C517.767,296.354 513.459,306.248 513.04,307.364C512.765,308.097 512.61,307.927 509.133,316.328C508.255,318.45 505.991,322.414 504.964,325.657Z" style="fill:rgb(253,253,246);"/>
                </g>
                <g transform="matrix(0.893735,0,0,0.893735,29.812986,44.80289)">
                    <path d="M422.768,423.064C434.802,432.331 426.63,444.58 416.49,445.376C291.12,455.213 289.424,458.115 283.853,452.174C276.193,444.006 283.479,432.883 289.452,432.226C296.922,431.404 358.714,426.854 370.491,425.382C375.057,424.811 395.307,423.274 397.467,423.111C417.728,421.574 417.728,421.361 419.418,421.849C421.74,422.52 422.343,422.909 422.768,423.064Z" style="fill:rgb(253,253,247);"/>
                </g>
                <g transform="matrix(0.806398,0,0,0.806398,70.488616,133.674932)">
                    <path d="M400.007,629.414C398.147,638.622 397.138,638.296 395.614,647.529C395.58,647.739 393.428,655.182 386.015,685.369C384.529,691.423 382.03,697.518 369.573,696.205C364.918,695.714 360.097,688.101 361.279,683.458C369.85,649.773 387.739,575.396 388.989,573.815C398.145,562.231 415.537,568.863 410.617,585.531C409.594,588.995 410.178,589.07 400.007,629.414Z" style="fill:rgb(253,253,247);"/>
                </g>
            </g>
        </g>
    </g>
</svg>
