<?xml version="1.0" encoding="UTF-8" standalone="no"?>
<!DOCTYPE svg PUBLIC "-//W3C//DTD SVG 1.1//EN" "http://www.w3.org/Graphics/SVG/1.1/DTD/svg11.dtd">
<svg width="100%" height="100%" viewBox="0 0 540 519" version="1.1" xmlns="http://www.w3.org/2000/svg" xmlns:xlink="http://www.w3.org/1999/xlink" xml:space="preserve" xmlns:serif="http://www.serif.com/" style="fill-rule:evenodd;clip-rule:evenodd;stroke-linejoin:round;stroke-miterlimit:2;">
    <g transform="matrix(1,0,0,1,-11493.736579,-1471.837776)">
        <g transform="matrix(2.211214,0,0,1.482332,-200.62803,92.293922)">
            <g id="Fondo" transform="matrix(0.398942,0,0,0.595107,5206.479116,800.655973)">
                <path d="M790.607,312.102C805.777,317.572 809.504,317.709 815.606,326.446C815.606,326.446 810.089,339.78 802.651,348.147C800.669,350.376 776.378,373.827 775.673,374.555C772.386,377.949 754.938,386.644 751.179,394.574C747.419,402.504 749.34,415.802 750.017,422.754C750.804,430.824 752.054,464.102 752.046,466.341C752.03,470.743 754.03,483.765 740.689,484.31C738.736,484.39 736.371,484.444 718.084,472.837C716.429,471.786 716.193,471.78 697.429,459.195C690.683,454.671 672.673,437.24 663.682,441.196C651.799,446.425 617.237,459.526 607.381,461.607C572.855,468.896 587.884,435.407 592.999,415.311C600.221,386.942 604.048,383.997 583.574,364.349C580.84,361.725 572.424,353.042 551.432,329.862C547.046,325.018 540.526,327.274 540.374,327.553C539.46,325.472 539.049,324.224 539.068,320.518C539.233,288.019 621.777,296.978 631.4,288.388C639.328,281.312 658.793,232.348 676.709,220.846C701.109,205.181 719.788,270.702 728.688,291.417C732.803,300.992 747.038,297.842 790.607,312.102Z" style="fill:rgb(246,201,69);"/>
                <path d="M525.366,337.211C525.633,337.028 528.708,334.923 528.708,334.923C530.598,333.789 530.981,335.178 534.421,339.563C574.971,391.267 581.351,388.141 579.95,393.619C574.324,415.619 574.163,415.466 568.95,437.563C568.95,437.563 565.143,439.232 562.674,440.861C526.298,464.862 442.805,533.221 431.769,545.282C430.354,546.828 407.759,566.5 394.422,580.16C384.041,590.793 383.967,590.331 373.937,601.342C313.146,668.079 297.08,689.384 269.555,724.127C266.07,728.526 226.22,781.351 216.287,796.413C213.846,800.115 214.618,801.167 214.816,801.243C216.722,801.97 250.306,763.107 250.306,763.107C250.306,763.107 268.64,743.861 274.637,737.674C306.093,705.224 315.896,692.715 326.867,681.93C385.308,624.477 387.501,626.691 412.823,601.816C413.451,601.199 477.176,546.391 499.065,529.695C510.047,521.318 509.407,520.797 520.465,512.428C532.55,503.282 532.641,503.397 544.967,494.652C546.22,493.764 545.998,493.468 560.245,482.986C570.34,475.558 570.372,475.839 571.661,474.676C572.201,474.189 572.422,474.191 572.5,474.191C573.136,474.197 574.564,473.446 574.564,473.446C577.119,476.117 588.353,487.86 620.57,477.744C663.106,464.389 664.538,460.835 668.229,465.669C670.41,468.526 667.389,468.661 601.881,518.978C589.673,528.355 453.859,632.675 449.222,636.115C417.218,659.857 252.495,787.476 233.91,801.135C233.172,801.678 232.552,802.028 232.293,802.197C227.779,805.146 207.342,812.454 206.112,792.569C206.695,791.735 254.193,710.551 259.722,702.662C278.732,675.539 278.204,675.187 279.952,672.899C281.588,670.757 289.139,660.873 299.973,645.803C330.967,602.689 397.833,530.507 438.403,497.378C459.247,480.357 481.099,459.335 545.142,415.012C547.315,413.508 571.148,397.014 572.439,396.413C574.48,395.462 573.422,394.759 571.761,393.227C555.375,378.119 553.103,376.331 528.938,342.202C525.669,337.586 525.642,337.617 525.366,337.211Z" style="fill:rgb(235,147,60);"/>
                <path d="M525.366,337.211C525.642,337.617 525.669,337.586 528.938,342.202C553.103,376.331 555.375,378.119 571.761,393.227C573.422,394.759 574.48,395.462 572.439,396.413C571.148,397.014 547.315,413.508 545.142,415.012C481.099,459.335 459.247,480.357 438.403,497.378C397.833,530.507 330.967,602.689 299.973,645.803C289.139,660.873 281.588,670.757 279.952,672.899C278.204,675.187 278.732,675.539 259.722,702.662C254.193,710.551 206.695,791.735 206.112,792.569C204.395,765.202 221.135,600.154 389.742,441.77C390.446,441.113 394.921,436.938 398.637,433.668C438.016,401.213 435.483,397.937 525.366,337.211Z" style="fill:rgb(247,198,68);"/>
                <path d="M568.95,437.563C565.932,453.001 564.767,461.565 574.564,473.446C574.564,473.446 570.543,476.005 560.448,483.433C546.201,493.915 546.382,494.116 545.13,495.004C532.803,503.749 532.875,503.729 520.79,512.875C509.732,521.244 510.169,521.684 499.187,530.06C477.297,546.757 413.472,601.303 412.844,601.92C387.522,626.795 385.943,625.049 327.501,682.501C316.531,693.287 306.093,705.224 274.637,737.674C256.949,755.922 217.384,802.51 214.5,801.409C214.301,801.333 213.679,799.981 216.121,796.28C226.054,781.218 263.648,728.526 267.133,724.127C294.658,689.384 310.47,664.773 372.774,600.761C383.163,590.088 383.36,590.405 393.741,579.772C407.077,566.112 428.926,546.907 430.34,545.361C441.376,533.3 526.201,464.602 562.576,440.601C565.803,438.473 568.95,437.563 568.95,437.563Z" style="fill:rgb(247,176,70);"/>
                <path d="M815.606,326.446C820.716,337.27 817.724,347.001 788.24,374.196C786.142,376.089 783.106,378.653 779.753,381.446C770.343,389.284 758.442,398.929 757.819,400.617C755.577,406.688 765.223,467.576 756.012,483.237C744.549,502.726 731.877,499.667 672.778,455.143C666.518,450.428 665.764,451.793 658.58,454.722C591.69,481.983 586.125,472.37 580.731,464.346C570.67,449.376 592.243,398.582 592.092,389.476C591.996,383.714 557.46,358.12 540.374,327.553C540.526,327.274 547.254,324.519 551.64,329.362C572.632,352.543 581.538,361.09 584.273,363.714C604.747,383.363 600.729,387.132 593.507,415.501C588.392,435.598 572.982,467.817 607.508,460.527C617.364,458.446 651.481,445.393 663.365,440.164C672.356,436.208 690.921,453.718 697.667,458.242C716.431,470.827 716.27,470.992 717.926,472.043C736.212,483.651 737.546,483.596 739.499,483.516C752.839,482.971 751.474,470.901 751.49,466.5C751.498,464.261 750.169,430.586 749.382,422.516C747.846,406.75 747.226,402.931 749.815,396.015C754.182,384.349 765.366,379.784 772.206,374.822C787.733,363.558 798.269,350.517 800.251,348.288C807.689,339.921 815.606,326.446 815.606,326.446Z" style="fill:rgb(232,167,65);"/>
                <path d="M317.054,536.181C333.075,513.363 349.721,495.527 350.082,495.112C368.229,474.267 368.496,474.576 388.459,455.459C409.708,435.109 418.484,447.18 414.158,455.31C412.744,457.968 406.541,465.264 406.397,465.396C404.749,466.902 391.237,482.371 389.935,483.862C373.628,502.53 329.182,551.006 325.411,555.419C312.455,570.578 304.575,566.65 304.518,560.499C304.427,550.779 316.783,536.567 317.054,536.181Z" style="fill:rgb(250,240,191);"/>
                <path d="M657.272,390.608C656.908,389.517 653.249,378.56 659.455,376.385C670.324,372.577 663.027,390.564 679.491,393.554C693.971,396.184 695.411,378.539 698.503,376.507C698.818,376.3 699.12,376.161 699.427,376.064C712.101,372.059 709.168,404.384 682.505,405.607C663.54,406.476 657.64,391.247 657.272,390.608Z" style="fill:rgb(57,51,56);"/>
                <path d="M657.204,264.359C662.566,253.394 663.97,252.509 666.252,248.37C676.012,230.669 683.378,241.192 682.214,246.511C681.611,249.267 665.907,291.472 654.501,288.497C645.07,286.038 656.155,266.684 657.204,264.359Z" style="fill:rgb(251,240,186);"/>
                <g transform="matrix(0.408891,0,0,0.408891,7.845387,21.670415)">
                    <circle cx="1577.447" cy="817.823" r="33.395" style="fill:rgb(55,51,56);"/>
                </g>
                <g transform="matrix(0.408891,0,0,0.408891,65.99941,21.670415)">
                    <circle cx="1577.447" cy="817.823" r="33.395" style="fill:rgb(55,51,56);"/>
                </g>
                <path d="M578.397,308.016C578.397,308.016 602.81,302.628 604.603,308.328C606.725,315.075 598.551,318.479 578.357,320.094C571.938,320.607 563.695,312.184 578.397,308.016Z" style="fill:rgb(250,239,187);"/>
                <path d="M287.541,579.553C287.541,579.553 290.027,576.555 293.488,576.384C293.721,576.372 295.075,576.205 296.363,576.864C306.474,582.036 292.741,598.687 285.488,599.352C283.902,599.497 271.659,597.99 287.541,579.553Z" style="fill:rgb(250,239,186);"/>
                <path d="M636.536,314.825C617.683,316.025 640.161,284.981 644.386,300.551C645.089,303.143 644.797,313.191 636.536,314.825Z" style="fill:rgb(251,238,186);"/>
                <g transform="matrix(0.47299,0,0,0.47299,-71.055806,-33.857706)">
                    <circle cx="1317.363" cy="738.336" r="8.138" style="fill:rgb(250,235,176);"/>
                </g>
                <g transform="matrix(0.426667,0,0,0.426667,-2.250053,-15.319615)">
                    <circle cx="1483.272" cy="931.054" r="26.376" style="fill:rgb(237,137,56);"/>
                </g>
                <g transform="matrix(0.426667,0,0,0.426667,96.023512,-15.319615)">
                    <circle cx="1483.272" cy="931.054" r="26.376" style="fill:rgb(237,137,56);"/>
                </g>
            </g>
        </g>
    </g>
</svg>
