<?xml version="1.0" encoding="UTF-8" standalone="no"?>
<!DOCTYPE svg PUBLIC "-//W3C//DTD SVG 1.1//EN" "http://www.w3.org/Graphics/SVG/1.1/DTD/svg11.dtd">
<svg width="100%" height="100%" viewBox="0 0 538 565" version="1.1" xmlns="http://www.w3.org/2000/svg" xmlns:xlink="http://www.w3.org/1999/xlink" xml:space="preserve" xmlns:serif="http://www.serif.com/" style="fill-rule:evenodd;clip-rule:evenodd;stroke-linejoin:round;stroke-miterlimit:2;">
    <g transform="matrix(1,0,0,1,-10218.628632,-1471.837776)">
        <g transform="matrix(2.211214,0,0,1.482332,-200.62803,92.293922)">
            <g transform="matrix(0.587327,0,0,1.121115,2016.906275,-871.989124)">
                <g transform="matrix(0.49632,0,0,0.387862,4488.411721,1545.158376)">
                    <g transform="matrix(1.171875,0,0,1.171875,0,0)">
                        <path d="M463.573,243.912C535.884,233.574 564.949,247.213 569.584,244.613C569.807,244.488 605.017,200.978 608.092,197.178C612.954,191.17 616.351,191.208 612.846,184.331C600.505,160.115 620.762,136.466 642.532,138.131C674.011,140.538 680.567,181.286 658.167,195.003C638.2,207.231 629.154,194.924 625.966,198.911C599.387,232.151 599.122,231.869 596.915,234.834C586.827,248.389 585.524,247.944 585.966,249.329C586.128,249.836 608.142,257.294 610.347,256.187C663.192,229.657 719.292,217.071 742.428,222.815C819.696,241.999 760.158,405.541 761.005,411.578C762.66,423.37 780.646,457.26 767.149,523.433C765.809,530 781.873,521.946 784.451,530.515C788.272,543.215 763.888,536.446 762.372,540.438C755.932,557.402 755.423,557.131 754.89,558.61C753.924,561.289 763.358,560.271 774.503,560.439C781.946,560.551 784.183,572.667 772.507,572.782C749.91,573.004 748.594,571.204 745.129,576.252C704.63,635.267 642.941,649.273 639.608,652.606C638.414,653.801 639.286,654.028 641.06,659.631C644.688,671.088 645.659,686.373 647.903,690.238C661.522,713.698 678.745,731.812 679.804,785.479C679.87,788.811 687.497,784.657 690.692,782.819C730.545,759.894 720.535,717.143 720.928,687.503C721.449,648.184 749.298,624.567 767.467,619.395C813.698,606.236 832.66,650.41 814.368,666.357C793.567,684.491 794.123,696.08 792.678,724.51C789.993,777.36 755.564,816.67 725.265,834.082C685.867,856.722 654.212,851.063 651.724,852.819C641.805,859.818 632.442,871.814 594.48,870.96C589.159,870.84 591.792,875.273 583.427,880.373C575.637,885.123 534.116,890.63 521.087,872.78C518.852,869.718 505.301,870.337 503.677,872.619C502.3,874.554 495.805,883.681 476.501,884.58C436.139,886.461 435.746,875.679 433.043,871.861C430.987,868.957 369.666,881.783 352.392,813.528C334.65,743.423 379.143,692.106 379.497,688.5C381.757,665.479 384.221,666.005 386.117,654.446C387.034,648.851 368.802,652.839 322.161,619.994C289.432,596.946 279.715,573.206 275.474,572.814C264.369,571.787 244.775,576.259 243.762,567.463C242.623,557.571 258.201,560.851 268.491,560.459C268.95,560.441 270.528,560.234 268.02,554.731C264.843,547.762 265.146,547.738 262.481,540.508C260.8,535.947 241.821,543.268 240.264,533.541C238.584,523.045 255.954,527.504 257.456,525.476C258.338,524.284 257.639,524.159 256.359,517.528C245.25,459.936 263.173,413.902 263.552,411.506C264.169,407.61 220.177,278.361 259.787,235.753C260.938,234.515 282.72,196.214 405.35,251.845C413.322,255.462 414.722,257.323 417.423,256.29C429.612,251.627 436.487,251.035 437.923,249.957C439.254,248.957 438.81,248.115 426.092,232.833C398.245,199.374 398.651,197.368 395.459,198.381C365.713,207.829 352.551,181.573 352.953,169.497C354.071,135.991 397.147,126.94 412.066,154.726C421.638,172.551 410.688,185.924 409.988,187.671C409.087,189.921 436.82,221.351 452.084,240.817C457.559,247.8 459.524,244.6 463.573,243.912Z" style="fill:rgb(50,55,101);"/>
                    </g>
                    <g transform="matrix(1.171875,0,0,1.171875,0,0)">
                        <path d="M487.479,262.237L486.5,263.684C483.241,269.879 488.787,379.081 517.27,363.138C534.027,353.759 540.02,292.022 538.517,264.503C538.461,263.465 538.507,263.52 538.495,262.425C544.592,263.256 545.878,263.327 546.524,263.363C544.796,266.016 545.256,266.21 546.307,277.521C546.686,281.602 547.228,281.492 551.819,328.462C553.076,341.325 555.943,359.509 571.383,347.342C589.377,333.162 592.767,303.668 589.511,272.426C742.098,325.307 763.94,455.675 745.354,524.451C743.829,530.093 709.661,519.864 714.336,534.554C717.313,543.91 742.79,534.454 739.737,541.582C732.705,558.001 731.424,560.415 726.499,560.448C724.212,560.463 708.457,558.193 710.45,567.51C712.286,576.089 722.871,570.981 721.03,574.31C718.404,579.059 655.154,662.653 477.495,649.586C449.696,647.542 360.994,639.096 307.748,579.283C302.857,573.789 304.038,572.945 304.598,572.809C310.13,571.469 312.174,573.094 313.085,567.44C314.952,555.854 295.964,563.604 292.982,558.244C283.133,540.543 283.929,539.053 285.578,538.867C290.541,538.305 310.093,541.978 307.839,531.429C305.628,521.08 280.789,529.708 279.317,524.576C264.847,474.104 281.133,423.904 283.826,415.604C305.648,348.34 360.91,310.474 370.219,304.096C398.562,284.674 421.649,277.149 433.425,273.101C433.696,273.636 434.351,273.91 434.622,274.445C435.056,275.303 428.327,319.979 446.889,341.111C479.732,378.503 471.319,302.876 480.41,263.241C480.977,263.172 480.956,263.125 487.479,262.237Z" style="fill:rgb(251,251,251);"/>
                    </g>
                    <g transform="matrix(1.171875,0,0,1.171875,0,0)">
                        <path d="M622.881,672.4C634.309,726.193 616.861,744.633 634.472,749.616C638.447,750.741 645.552,747.93 646.143,738.459C646.523,732.363 645.828,730.805 647.401,731.736C647.481,731.783 671.567,775.952 650.166,820.352C636.548,848.605 612.213,850.612 597.516,850.235C594.17,850.149 595.085,843.877 595.899,838.564C599.077,817.818 634.956,756.276 610.482,753.657C597.978,752.319 600.536,767.792 589.087,796.345C576.108,828.711 575.413,829.545 574.78,852.507C574.443,864.75 569.505,863.683 550.501,863.434C535.566,863.239 535.99,857.718 536.098,827.496C536.286,774.788 557.747,764.008 543.33,754.791C527.997,744.988 514.78,788.485 515.076,833.502C515.141,843.504 516.253,850.024 513.469,850.16C507.993,850.428 509.319,847.964 509.35,842.505C509.392,835.252 510.697,804.42 502.213,777.589C497.789,763.599 491.938,747.858 480.387,755.34C468.643,762.947 484.963,772.828 488.101,817.531C488.347,821.044 489.908,853.917 486.246,859.336C481.173,866.842 454.304,862.809 453.617,862.328C446.184,857.126 453.669,843.739 444.093,818.649C435.115,795.127 430.657,788.741 425.6,764.48C422.149,747.924 401.355,749.014 405.99,772.396C410.498,795.137 433.461,839.773 429.183,849.352C428.311,851.303 394.815,852.973 380.792,828.328C356.155,785.026 377.393,732.662 379.29,733.898C380.352,734.59 378.366,748.523 388.472,749.737C400.054,751.128 399.757,736.01 399.728,734.495C399.384,716.991 394.776,699.86 405.727,661.571C407.099,656.772 412.296,662.537 448.48,667.64C550.74,682.063 616.268,657.252 618.945,660.008C619.682,660.767 620.319,663.407 622.881,672.4Z" style="fill:rgb(242,243,246);"/>
                    </g>
                    <g transform="matrix(1.171875,0,0,1.171875,0,0)">
                        <path d="M773.942,698.577C770.278,735.192 772.492,767.282 731.443,804.434C710.314,823.557 669.107,834.645 669.054,829.509C669.039,828.054 670.177,828.403 675.422,812.473C676.633,808.792 687.255,809.724 705.202,798.07C741.509,774.494 742.201,737.594 742.315,731.498C742.96,697.13 734.755,664.33 763.777,643.891C784.914,629.004 809.02,644.554 798.393,653.373C780.348,668.347 777.126,683.687 773.942,698.577Z" style="fill:rgb(246,174,106);"/>
                    </g>
                    <g transform="matrix(1.171875,0,0,1.171875,0,0)">
                        <path d="M754.574,256.476C754.659,256.651 767.795,276.431 757.682,336.532C755.567,349.098 749.113,375.85 748.457,376.464C746.338,378.446 746.573,376.188 745.236,373.648C741.951,367.41 723.649,332.655 689.912,305.051C686.704,302.427 692.487,298.624 708.651,284.68C721.346,273.73 729.751,271.44 733.3,265.452C750.048,257.541 752.776,256.899 754.574,256.476Z" style="fill:rgb(242,158,167);"/>
                    </g>
                    <g transform="matrix(1.171875,0,0,1.171875,0,0)">
                        <path d="M269.875,257.638C274.634,256.938 277.645,258.21 284.119,261.827C289.607,264.892 289.564,264.881 289.913,265.082C289.913,265.082 291.429,266.148 292.927,267.245C299.976,274.032 309.102,276.867 335.324,301.659C339.505,305.612 314.712,315.062 283.945,365.757C278.233,375.169 277.213,379.509 276.303,375.6C266.118,331.892 256.694,294.416 269.875,257.638Z" style="fill:rgb(242,159,167);"/>
                    </g>
                    <g transform="matrix(1.171875,0,0,1.171875,0,0)">
                        <path d="M487.479,262.237C513.731,260.39 518.518,260.715 538.495,262.425C538.507,263.52 538.461,263.465 538.517,264.503C540.02,292.022 534.027,353.759 517.27,363.138C488.787,379.081 483.241,269.879 486.5,263.684L487.479,262.237Z" style="fill:rgb(248,174,105);"/>
                    </g>
                    <g transform="matrix(1.171875,0,0,1.171875,0,0)">
                        <path d="M256.571,715.343C238.03,707.349 237.992,707.418 236.62,706.33C229.506,700.691 242.761,697.111 262.339,688.136C267.268,685.876 273.447,659.285 277.718,656.948C283.049,654.031 286.744,669.547 293.822,685.343C295.604,689.319 321.034,697.447 323.14,700.752C327.144,707.033 311.445,710.877 296.712,717.915C292.631,719.864 285.769,743.835 282.212,748.237C277.402,754.19 274.499,744.32 265.915,723.324C263.458,717.313 262.486,717.981 256.571,715.343Z" style="fill:rgb(251,251,251);"/>
                    </g>
                    <g transform="matrix(0.541385,0,0,0.541385,176.047904,443.405444)">
                        <path d="M256.571,715.343C238.03,707.349 237.992,707.418 236.62,706.33C229.506,700.691 242.761,697.111 262.339,688.136C267.268,685.876 273.447,659.285 277.718,656.948C283.049,654.031 286.744,669.547 293.822,685.343C295.604,689.319 321.034,697.447 323.14,700.752C327.144,707.033 311.445,710.877 296.712,717.915C292.631,719.864 285.769,743.835 282.212,748.237C277.402,754.19 274.499,744.32 265.915,723.324C263.458,717.313 262.486,717.981 256.571,715.343Z" style="fill:rgb(49,27,66);"/>
                    </g>
                    <g transform="matrix(1.171875,0,0,1.171875,0,0)">
                        <path d="M480.41,263.241C471.319,302.876 479.732,378.503 446.889,341.111C428.327,319.979 435.056,275.303 434.622,274.445C434.351,273.91 433.696,273.636 433.425,273.101C437.092,271.959 460.995,264.512 480.41,263.241Z" style="fill:rgb(248,175,106);"/>
                    </g>
                    <g transform="matrix(1.171875,0,0,1.171875,0,0)">
                        <path d="M546.524,263.363C547.756,263.531 561.809,264.384 589.511,272.426C592.767,303.668 589.377,333.162 571.383,347.342C555.943,359.509 553.076,341.325 551.819,328.462C547.228,281.492 546.686,281.602 546.307,277.521C545.256,266.21 544.796,266.016 546.524,263.363Z" style="fill:rgb(247,175,105);"/>
                    </g>
                    <g transform="matrix(1.171875,0,0,1.171875,0,0)">
                        <path d="M522.41,511.909C522.85,512.06 533.658,513.742 534.802,522.457C536.307,533.91 519.856,538.94 519.5,542.5C518.075,556.729 520.738,559.247 521.777,560.229C530.149,568.142 542.014,564.242 546.142,556.318C546.683,555.279 548.575,548.19 554.474,548.76C571.776,550.432 547.35,591.507 517.683,574.189C513.531,571.766 513.468,569.388 509.839,571.95C476.375,595.566 452.083,547.326 471.476,548.763C478.984,549.319 478.491,567.661 496.388,564.044C497.75,563.768 504.888,561.296 505.084,554.492C505.439,542.165 504.878,540.622 502.593,539.344C500.98,538.443 485.13,529.581 490.649,519.572C496.92,508.199 517.4,511.191 522.41,511.909Z" style="fill:rgb(50,56,101);"/>
                    </g>
                    <g transform="matrix(1.171875,0,0,1.171875,0,0)">
                        <path d="M754.574,256.476C752.776,256.899 750.048,257.541 733.3,265.452C733.457,264.813 734.61,260.117 730.367,257.768C722.827,253.593 686.479,280.857 676.64,289.655C671.967,293.834 671.519,290.347 666.253,286.879C643.387,271.821 635.831,269.717 635.756,268.457C635.619,266.184 653.766,259.816 655.404,259.241C732.713,232.113 745.307,241.516 754.574,256.476Z" style="fill:rgb(251,251,251);"/>
                    </g>
                    <g transform="matrix(1.171875,0,0,1.171875,0,0)">
                        <path d="M269.875,257.638C276.126,245.768 283.159,232.592 351.362,252.944C358.231,254.993 389.231,266.358 389.068,268.425C388.914,270.357 386.958,268.326 359.744,285.877C351.549,291.162 351.454,292.663 349.679,291.223C346.303,288.485 336.253,277.339 307.241,260.973C290.098,251.303 289.798,264.195 292.927,267.245L283.691,262.148C283.691,262.148 274.634,256.938 269.875,257.638Z" style="fill:rgb(251,251,251);"/>
                    </g>
                    <g transform="matrix(1.171875,0,0,1.171875,0,0)">
                        <path d="M843.722,418.401C843.273,417.303 839.018,406.898 838.052,404.699C835.095,397.97 832.075,399.596 816.665,392.166C805.381,386.727 822.608,381.305 834.631,375.767C838.276,374.088 839.799,366.038 844.638,355.563C850.314,343.274 855.737,363.051 859.826,372.358C862.517,378.481 880.069,381.958 883.171,385.739C887.549,391.075 872.236,395.622 862.687,399.914C859.312,401.431 856.45,412.902 852.202,421.347C849.168,427.379 846.491,424.476 843.722,418.401Z" style="fill:rgb(251,251,251);"/>
                    </g>
                    <g transform="matrix(0.541877,0,0,0.541877,534.53297,244.541201)">
                        <path d="M843.722,418.401C843.273,417.303 839.018,406.898 838.052,404.699C835.095,397.97 832.075,399.596 816.665,392.166C805.381,386.727 822.608,381.305 834.631,375.767C838.276,374.088 839.799,366.038 844.638,355.563C850.314,343.274 855.737,363.051 859.826,372.358C862.517,378.481 880.069,381.958 883.171,385.739C887.549,391.075 872.236,395.622 862.687,399.914C859.312,401.431 856.45,412.902 852.202,421.347C849.168,427.379 846.491,424.476 843.722,418.401Z" style="fill:rgb(49,27,66);"/>
                    </g>
                    <g transform="matrix(1.171875,0,0,1.171875,0,0)">
                        <path d="M396.091,557.672C406.037,591.375 340.744,591.786 339.716,564.495C338.889,542.548 384.523,535.52 396.091,557.672Z" style="fill:rgb(242,160,168);"/>
                    </g>
                    <g transform="matrix(1.171875,0,0,1.171875,0,0)">
                        <path d="M668.65,546.109C704.057,560.64 674.072,593.221 642.657,582.132C611.809,571.243 630.156,538.028 664.412,544.999C665.843,545.29 667.219,545.818 668.65,546.109Z" style="fill:rgb(243,160,168);"/>
                    </g>
                    <g transform="matrix(1.171875,0,0,1.171875,0,0)">
                        <path d="M384.649,395.949C390.964,393.695 390.932,393.637 391.485,393.456C419.876,384.202 418.304,400.658 412.479,406.478C407.304,411.649 373.258,427.514 369.395,414.539C365.78,402.395 382.746,396.854 384.649,395.949Z" style="fill:rgb(246,176,106);"/>
                    </g>
                    <g transform="matrix(1.171875,0,0,1.171875,0,0)">
                        <path d="M655.293,411.5C653.21,425.116 640.485,419.798 625.401,413.79C624.575,413.461 610.501,409.423 608.773,400.464C607.051,391.53 617.814,388.86 626.512,391.449C656.194,400.282 654.62,406.581 655.293,411.5Z" style="fill:rgb(246,175,106);"/>
                    </g>
                    <g transform="matrix(1.171875,0,0,1.171875,32.292921,9.497914)">
                        <path d="M144.963,352.503C146.299,346.272 149.524,347.36 154.495,347.339C157.373,347.327 156.429,343.171 156.608,340.509C157.049,333.961 162.83,334.771 164.296,335.827C167.39,338.056 166.495,345.025 166.519,345.497C166.703,349.205 176.632,344.482 178.057,351.572C179.544,358.971 167.9,357.713 167.622,357.813C165.494,358.573 166.658,359.327 166.55,365.503C166.466,370.268 161.304,371.589 158.544,369.445C155.038,366.723 156.858,365.868 156.548,359.493C156.314,354.671 147.167,362.274 144.963,352.503Z" style="fill:rgb(251,251,251);"/>
                    </g>
                    <g transform="matrix(1.171875,0,0,1.171875,773.067652,269.550799)">
                        <path d="M144.963,352.503C146.299,346.272 149.524,347.36 154.495,347.339C157.373,347.327 156.429,343.171 156.608,340.509C157.049,333.961 162.83,334.771 164.296,335.827C167.39,338.056 166.495,345.025 166.519,345.497C166.703,349.205 176.632,344.482 178.057,351.572C179.544,358.971 167.9,357.713 167.622,357.813C165.494,358.573 166.658,359.327 166.55,365.503C166.466,370.268 161.304,371.589 158.544,369.445C155.038,366.723 156.858,365.868 156.548,359.493C156.314,354.671 147.167,362.274 144.963,352.503Z" style="fill:rgb(251,251,251);"/>
                    </g>
                    <g transform="matrix(1.171875,0,0,1.171875,0,0)">
                        <path d="M507.326,528.703C504.306,525.545 501.101,523.356 505.478,523.235C520.179,522.831 520.436,522.755 521.169,523.775C522.134,525.117 516.838,529.445 516.137,530.094C511.182,534.67 509.632,530.597 507.326,528.703Z" style="fill:rgb(229,164,176);"/>
                    </g>
                    <g transform="matrix(1,0,0,1,4.326281,-5.698762)">
                        <g>
                            <g transform="matrix(0.982311,0,0,0.982311,-2.183145,16.72615)">
                                <circle cx="481.93" cy="565.499" r="61.319" style="fill:rgb(49,55,101);"/>
                            </g>
                            <g transform="matrix(1.027951,0,0,1.027951,-12.580389,-17.338899)">
                                <circle cx="441.139" cy="548.48" r="8.941" style="fill:rgb(248,249,251);"/>
                            </g>
                            <g transform="matrix(0.934805,0,0,0.934805,28.098028,31.958819)">
                                <circle cx="500.099" cy="545.477" r="15.327" style="fill:rgb(248,249,251);"/>
                            </g>
                        </g>
                        <g transform="matrix(1,0,0,1,0,2.549835)">
                            <g transform="matrix(0.982311,0,0,0.982311,251.411402,14.176315)">
                                <circle cx="481.93" cy="565.499" r="61.319" style="fill:rgb(49,55,101);"/>
                            </g>
                            <g transform="matrix(1.027951,0,0,1.027951,241.014157,-19.888734)">
                                <circle cx="441.139" cy="548.48" r="8.941" style="fill:rgb(248,249,251);"/>
                            </g>
                            <g transform="matrix(0.934805,0,0,0.934805,281.692574,29.408985)">
                                <circle cx="500.099" cy="545.477" r="15.327" style="fill:rgb(248,249,251);"/>
                            </g>
                        </g>
                    </g>
                    <g transform="matrix(1.167442,0,0,1.167442,-48.733971,-155.031253)">
                        <circle cx="230.409" cy="730.053" r="8.03" style="fill:rgb(53,58,100);"/>
                    </g>
                    <g transform="matrix(1.167442,0,0,1.167442,-48.733971,-155.031253)">
                        <circle cx="230.409" cy="730.053" r="8.03" style="fill:rgb(251,251,251);"/>
                    </g>
                    <g transform="matrix(1.407267,0,0,1.407267,646.334504,-458.952707)">
                        <circle cx="230.409" cy="730.053" r="8.03" style="fill:rgb(251,251,251);"/>
                    </g>
                    <g transform="matrix(1,0,0,1,41.93451,-7.980485)">
                        <circle cx="408.514" cy="205.82" r="17.01" style="fill:rgb(243,174,108);"/>
                    </g>
                    <g transform="matrix(1,0,0,1,342.18087,-7.917781)">
                        <circle cx="408.514" cy="205.82" r="17.01" style="fill:rgb(243,174,108);"/>
                    </g>
                </g>
            </g>
        </g>
    </g>
</svg>
