<?xml version="1.0" encoding="UTF-8" standalone="no"?>
<!DOCTYPE svg PUBLIC "-//W3C//DTD SVG 1.1//EN" "http://www.w3.org/Graphics/SVG/1.1/DTD/svg11.dtd">
<svg width="100%" height="100%" viewBox="0 0 445 506" version="1.1" xmlns="http://www.w3.org/2000/svg" xmlns:xlink="http://www.w3.org/1999/xlink" xml:space="preserve" xmlns:serif="http://www.serif.com/" style="fill-rule:evenodd;clip-rule:evenodd;stroke-linejoin:round;stroke-miterlimit:2;">
    <g transform="matrix(1,0,0,1,-10232.905366,-2256.481019)">
        <g transform="matrix(2.211214,0,0,1.482332,-200.62803,92.293922)">
            <g transform="matrix(0.081756,0.084419,-0.056592,0.121957,4818.986395,1630.34965)">
                <g transform="matrix(1,0,0,1,-504.166667,-1047.916667)">
                    <g id="Fondo" transform="matrix(4.166667,0,0,4.166667,0,0)">
                        <path d="M2.238,145.87C-15.583,40.656 77.038,-8.668 137.9,1.247C252.729,19.953 285.774,176.374 168.05,231.569C162.379,234.228 165.195,236.417 164.91,309.402C164.847,325.401 150.407,317.143 146.973,324.779C143.696,332.066 183.483,349.968 155.612,369.244C149.793,373.268 161.771,375.585 163.339,378.348C166.912,384.642 164.84,449.729 164.642,455.933C163.954,477.551 148.127,499.363 124.346,502.27C90.393,506.421 61.066,451.344 86.086,434.589C106.304,421.05 80.164,419.492 77.343,403.711C74.14,385.79 84.831,379.944 90.478,374.795C94.412,371.208 88.162,367.314 87.435,366.614C60.884,341.031 91.03,329.695 92.204,326.152C95.299,316.821 77.498,323.672 77.384,304.348C76.985,236.908 80.279,234.478 73.987,231.76C17.714,207.456 7.709,164.425 2.239,145.869L2.238,145.87Z" style="fill:rgb(9,6,6);"/>
                        <path d="M229.478,134.311C217.97,210.114 155.917,219.201 154.204,226.743C152.375,234.798 156.632,308.143 151.569,309.793C149.405,310.498 126.807,317.864 136.927,334.192C141.33,341.296 158.232,346.832 152.569,358.025C150.201,362.705 129.183,367.515 146.665,379.678C155.768,386.012 153.748,387.667 153.755,398.67C153.799,466.615 157.019,471.627 134.324,487.591C133.857,487.92 127.38,492.476 127.297,486.3C126.952,460.414 127.994,250.062 126.756,248.393C125.097,246.157 117.634,244.449 117.303,250.414C117.205,252.182 117.254,467.383 117.259,486.25C117.262,500.935 82.938,472.767 88.637,447.379C89.865,441.911 116.912,433.68 101.837,416.111C98.131,411.791 84.97,403.255 88.735,391.822C90.67,385.947 114.771,377.699 98.7,362.107C90.368,354.024 80.696,349.17 95.382,337.459C110.78,325.181 106.257,319.26 89.728,308.623C86.308,306.422 91.107,227.151 86.887,224.185C86.491,223.907 38.268,211.973 18.225,159.533C-18.792,62.686 90.23,-29.172 181.375,30.341C202.318,44.016 212.523,61.439 214.452,64.732C233.086,96.544 230.442,120.661 229.477,134.312L229.478,134.311Z" style="fill:rgb(248,192,18);"/>
                        <circle cx="120.497" cy="84.964" r="44.354" style="fill:rgb(8,6,6);"/>
                        <path d="M26.748,105.596C25.767,111.38 25.055,113.137 19.682,111.004C13.56,108.574 37.254,46.026 47.371,56.419C50.616,59.752 45.936,59.574 37.824,74.952C30.172,89.458 31.024,89.691 26.748,105.595L26.748,105.596Z" style="fill:rgb(250,236,182);"/>
                        <path d="M34.891,162.081C37.244,166.344 37.69,167.852 33.099,169.245C27.868,170.831 10.919,117.973 22.86,119.491C26.69,119.978 23.559,122.281 26.242,136.46C28.773,149.834 29.446,149.545 34.892,162.081L34.891,162.081Z" style="fill:rgb(250,236,182);"/>
                        <circle cx="120.497" cy="84.964" r="33.626" style="fill:white;"/>
                    </g>
                </g>
            </g>
        </g>
    </g>
</svg>
