<?xml version="1.0" encoding="UTF-8" standalone="no"?><!DOCTYPE svg PUBLIC "-//W3C//DTD SVG 1.1//EN" "http://www.w3.org/Graphics/SVG/1.1/DTD/svg11.dtd"><svg width="100%" height="100%" viewBox="0 0 405 368" version="1.1" xmlns="http://www.w3.org/2000/svg" xmlns:xlink="http://www.w3.org/1999/xlink" xml:space="preserve" xmlns:serif="http://www.serif.com/" style="fill-rule:evenodd;clip-rule:evenodd;stroke-linejoin:round;stroke-miterlimit:2;"><g><path d="M366.341,21.005c-2.403,4.339 -3.713,2.893 -7.469,6.255c-1.085,0.971 -2.895,1.625 -3.166,1.723c-4.326,1.563 -3.37,2.636 -5.865,6.42c3.871,2.295 4.04,4.788 26.949,68.319c6.854,19.007 7.265,19.958 -2.965,49.509c-33.206,95.923 -31.546,97.118 -37.732,102.93c-13.399,12.586 -29.096,16.432 -94.093,47.459c-43.628,20.827 -59.123,40.048 -79.2,40.439c-28.54,0.556 -27.679,-4.315 -54.54,-14.206c-42.57,-15.676 -45.259,-18.327 -48.265,-21.289c-8.591,-8.469 -8.722,-12.535 -18.785,-23.738c-3.454,-3.846 -11.142,-15.333 -12.058,-16.702c-4.08,-6.097 -3.387,-8.255 -7.04,-7.106c-19.329,6.083 -18.892,7.137 -19.074,7.238c-2.807,-9.179 -5.594,-18.288 1.123,-119.976c2.31,-34.97 38.621,-50.008 51.401,-57.913c41.309,-25.55 44.352,-22.2 63.148,-45.725c34.516,-43.198 37.595,-48.224 92.669,-42.922c53.275,5.13 71.991,5.254 78.267,5.295c51.684,0.342 57.845,-2.326 76.697,13.99Z" style="fill:#6e6f72;"/><path d="M218.25,26.799c0.542,-0.215 0.516,-1.178 1.057,-1.393c0.966,-0.383 30.103,2.319 32.718,2.562c61.214,5.677 83.799,-4.046 97.816,7.435c-1.719,2.697 -1.642,2.693 -3.95,4.835c-3.914,-3.017 -11.509,-7.27 -14.722,-6.186c-1.985,0.67 -3.942,1.421 -5.914,2.127c-5.599,2.004 -5.641,1.674 -6.107,1.885c-0.808,0.365 -1.238,1.335 -2.046,1.7c-9.303,0.913 -26.381,4.484 -28.424,6.506c-0.528,0.523 -3.665,5.871 7.902,4.891c20.204,-1.711 25.457,0.024 23.813,-9.917c9.644,-0.938 16.461,3.326 22.865,3.13c-0.025,0.989 -0.299,0.918 -0.047,1.898c0.643,2.503 1.414,25.513 1.488,27.734c0.725,21.648 2.458,21.366 4.014,30.743c0.279,1.681 -1.629,2.984 -12.59,11.724c-18.451,14.714 -17.366,15.758 -33.808,32.6c-5.7,5.839 -3.399,10.203 -6.474,27.007c-0.532,2.908 -23.259,15.568 -42.695,23.165c-8.067,3.153 -10.355,10.116 -38.89,45.066c-6.968,8.534 -8.68,5.686 -19.635,7.406c-9.129,1.433 -14.673,8.524 -16.918,8.362c-11.845,-0.853 -13.941,-2.88 -94.054,9.454c-9.845,1.516 -8.968,-2.394 -18.155,-6.106c-9.286,-16.825 15.587,-26.065 26.546,-38.299c15.01,-16.755 0.723,-26.684 8.273,-34.304c1.162,0.421 0.969,0.845 2.22,0.805c6.678,-0.215 26.621,4.149 33.237,-2.071c0.845,-0.794 1.638,-1.641 2.474,-2.444c3.586,-3.448 3.879,-3.052 4.134,-3.396c0.257,-0.347 -0.601,-0.903 -0.344,-1.25c9.765,-2.092 8.158,-12.323 4.095,-14.577c-11.659,-6.467 -34.901,1.561 -41.672,3.444c-27.196,7.562 -22.686,22.875 -21.301,32.494c1.365,9.483 -7.527,14.247 -12.15,18.15c-22.221,18.759 -25.599,20.209 -21.168,48.156c-11.419,0.043 -26.147,-7.635 -27.321,-19.848c-1.826,-18.99 3.523,-94.047 4.405,-98.053c0.09,-0.41 0.544,-5.528 0.731,-5.925c0.218,-0.462 0.94,-0.542 1.158,-1.005c0.146,1.368 1.056,9.906 3.023,16.927c1.406,5.017 4.974,2.446 6.289,1.972c1.874,6.622 -4.902,29.483 -0.034,32.518c10.89,6.788 12.297,-30.398 12.879,-36.537c0.779,-8.212 6.939,-10.321 7.533,-15.902c0.716,-6.736 -2.733,-6.897 -5.652,-7.931c0.622,-1.081 3.24,-6.249 22.867,-15.68c25.628,-12.315 27.925,-9.124 47.964,-29.415c4.106,-4.157 29.113,-29.477 56.207,-46.646c16.184,-10.256 78.895,-7.845 83.999,-8.278c15.478,-1.313 -6.951,-0.445 -45.635,-9.533Z" style="fill:#a4a5a8;"/><path d="M366.341,21.005c12.207,13.916 9.023,15.786 27.18,63.939c13.73,36.412 14.712,38.218 -1.196,83.035c-27.459,77.362 -26.119,96.038 -51.878,113.472c-14.347,9.71 -81.496,35.631 -117.893,58.484c-37.144,23.322 -51.364,29.788 -76.584,26.498c-14.587,-1.903 -28.434,-9.315 -84.987,-31.362c-15.269,-5.952 -17.908,-11.951 -42.217,-43.784c-13.307,-17.425 -13.226,-17.499 -15.729,-23.031c0.183,-0.101 -0.255,-1.154 19.074,-7.238c3.653,-1.15 2.96,1.009 7.04,7.106c0.917,1.37 8.604,12.857 12.058,16.702c10.063,11.203 10.194,15.269 18.785,23.738c3.005,2.963 5.695,5.614 48.265,21.289c26.862,9.891 26,14.763 54.54,14.206c20.076,-0.391 35.571,-19.612 79.2,-40.439c64.997,-31.027 80.695,-34.873 94.093,-47.459c6.187,-5.812 4.526,-7.006 37.732,-102.93c10.23,-29.551 9.819,-30.502 2.965,-49.509c-22.909,-63.531 -23.078,-66.024 -26.949,-68.319c2.495,-3.784 1.539,-4.857 5.865,-6.42c0.271,-0.098 2.081,-0.752 3.166,-1.723c3.755,-3.362 5.066,-1.916 7.469,-6.255Z" style="fill:#515253;"/><path d="M313.183,207.629c11.256,-25.672 11.537,-25.534 14.319,-33.505c4.923,-14.109 9.994,-21.805 11.141,-23.545c11.337,-17.205 31.919,-20.501 27.594,5.704c-1.716,10.4 -18.665,58.044 -25.255,75.157c-4.903,12.73 -6.593,23.122 -30.398,34.058c-60.066,27.593 -96.486,48.996 -101.271,47.491c-7.6,-2.39 8.067,-11.727 18.594,-19.475c35.046,-25.796 42.385,-38.431 63.846,-47.856c16.144,-7.09 11.164,-11.877 21.431,-38.028Z" style="fill:#424345;"/><path d="M218.25,26.799c38.684,9.088 61.114,8.22 45.635,9.533c-5.104,0.433 -67.815,-1.978 -83.999,8.278c-27.094,17.169 -52.1,42.489 -56.207,46.646c-20.04,20.29 -22.336,17.099 -47.964,29.415c-19.627,9.431 -22.245,14.599 -22.867,15.68c-14.921,8.222 -10.419,17.795 -14.727,27.853c-1.315,0.473 -4.883,3.045 -6.289,-1.972c-1.967,-7.021 -2.877,-15.56 -3.023,-16.927c1.941,-19.418 27.697,-26.924 83.787,-61.946c17.673,-11.035 43.433,-53.527 55.119,-58.081c9.201,-3.586 18.87,-5.013 50.535,1.523Z" style="fill:#fbfcfc;"/><path d="M142.033,182.468c-9.959,0.602 -10.108,-1.688 -19.701,0.959c-21.51,5.934 -21.193,6.778 -22.018,7.397c-7.55,7.62 6.737,17.549 -8.273,34.304c-10.96,12.234 -35.832,21.473 -26.546,38.299c-0.591,11.153 7.825,29.576 -5.658,28.331c-6.934,-0.64 -9.475,-19.906 -9.999,-21.623c-4.431,-27.947 -1.053,-29.397 21.168,-48.156c4.624,-3.903 13.516,-8.667 12.15,-18.15c-1.385,-9.619 -5.894,-24.932 21.301,-32.494c6.771,-1.883 30.013,-9.912 41.672,-3.444c4.063,2.254 5.67,12.485 -4.095,14.577Z" style="fill:#434446;"/><path d="M301.776,194.986c-11.066,19.696 -4.56,25.113 -18.74,34.022c-28.574,17.952 -31.588,21.074 -33.878,23.445c-3.704,3.837 -42.981,47.361 -46.06,31.647c-1.757,-8.967 50.506,-65.472 72.742,-81.234c3.508,-2.486 13.368,-9.555 14.529,-10.387c0.759,-0.544 23.078,-16.544 11.407,2.507Z" style="fill:#424345;"/><path d="M229.192,120.109c-11.672,1.124 -23.34,4.857 -25.69,-3.535c-3.797,-13.56 38.698,-9.576 41.353,-12.083c2.328,-2.199 0.346,-3.825 26.171,-30.298c4.873,-4.996 10.697,-2.024 6.314,4.451c-6.502,9.606 -13.006,16.184 -20.865,33.746c-4.361,9.747 -14.983,7.602 -27.283,7.719Z" style="fill:#434446;"/><path d="M52.849,136.351c2.918,1.035 6.368,1.196 5.652,7.931c-0.594,5.581 -6.754,7.69 -7.533,15.902c-0.582,6.139 -1.99,43.324 -12.879,36.537c-4.868,-3.035 1.908,-25.895 0.034,-32.518c4.308,-10.057 -0.193,-19.63 14.727,-27.853Z" style="fill:#444548;"/><path d="M186.489,72.905c-19.706,19.396 -35.552,-3.104 -22.588,-5.546c11.579,-2.181 20.515,0.134 20.58,0.158c3.434,1.225 3.448,2.089 2.008,5.389Z" style="fill:#434446;"/><path d="M142.033,182.468c-0.257,0.347 0.601,0.903 0.344,1.25c-0.255,0.344 -0.548,-0.052 -4.134,3.396c-0.836,0.803 -1.629,1.65 -2.474,2.444c-6.615,6.22 -26.559,1.856 -33.237,2.071c-1.25,0.04 -1.058,-0.383 -2.22,-0.805c0.825,-0.618 0.509,-1.462 22.018,-7.397c9.594,-2.647 9.742,-0.358 19.701,-0.959Z" style="fill:#f8f9fb;"/><path d="M317.101,39.764c1.744,0.623 3.038,1.341 3.29,1.481c1.644,9.941 -3.608,8.206 -23.813,9.917c-11.567,0.98 -8.43,-4.368 -7.902,-4.891c2.044,-2.022 19.122,-5.593 28.424,-6.506Z" style="fill:#444547;"/><path d="M243.355,165.176c1.085,-4.278 1.513,-8.802 5.858,-13.753c0.545,-0.621 5.036,-5.738 7.888,-6.661c0.227,-0.073 9.002,0.091 -1.004,11.568c-8.379,9.611 -13.34,15.045 -12.743,8.845Z" style="fill:#434446;"/><path d="M345.989,132.33c-15.207,11.093 -16.943,5.476 -16.982,4.08c-0.248,-8.851 28.567,-20.097 16.982,-4.08Z" style="fill:#434447;"/><path d="M317.101,39.764c0.808,-0.365 1.238,-1.335 2.046,-1.7c0.466,-0.21 0.509,0.12 6.107,-1.885c1.972,-0.706 3.929,-1.458 5.914,-2.127c3.213,-1.084 10.808,3.169 14.722,6.186c-0.878,1.379 -1.756,2.758 -2.634,4.137c-6.405,0.196 -13.222,-4.068 -22.865,-3.13c-0.252,-0.14 -1.546,-0.858 -3.29,-1.481Z" style="fill:#f9fbfb;"/><path d="M257.204,159.524c0.504,-0.246 6.242,-3.05 6.495,2.643c0.184,4.147 -7.54,9.704 -8.405,10.326c-7.123,5.125 -6.25,-4.33 1.91,-12.969Z" style="fill:#f9fafb;"/><path d="M167.668,183.546c-11.262,2.076 -8.843,-6.605 -3.858,-7.597c7.956,-1.582 11.326,4.564 3.858,7.597Z" style="fill:#434446;"/><path d="M195.53,194.866c-7.562,-1.659 -3.834,-6.705 -2.676,-7.534c6.212,-4.444 13.485,6.659 2.676,7.534Z" style="fill:#424346;"/><path d="M180.588,205.085c-5.226,-4.615 1.263,-5.906 2.748,-4.074c2.554,3.154 -2.36,4.006 -2.748,4.074Z" style="fill:#434448;"/></g></svg>