<?xml version="1.0" encoding="UTF-8" standalone="no"?>
<!DOCTYPE svg PUBLIC "-//W3C//DTD SVG 1.1//EN" "http://www.w3.org/Graphics/SVG/1.1/DTD/svg11.dtd">
<svg width="100%" height="100%" viewBox="0 0 449 427" version="1.1" xmlns="http://www.w3.org/2000/svg" xmlns:xlink="http://www.w3.org/1999/xlink" xml:space="preserve" xmlns:serif="http://www.serif.com/" style="fill-rule:evenodd;clip-rule:evenodd;stroke-linejoin:round;stroke-miterlimit:2;">
    <g transform="matrix(1,0,0,1,-8458.459349,-891.784493)">
        <g transform="matrix(2.211214,0,0,1.482332,-200.62803,92.293922)">
            <g id="Fondo" transform="matrix(0.441633,0,0,0.65879,3789.025786,345.651209)">
                <path d="M727.91,566.544C726.813,575.208 726.966,606.05 701.159,641.259C676.211,675.296 670.348,668.593 616.412,700.349C613.762,701.91 553.162,729.903 520.501,730.555C496.363,731.038 496.454,728.051 472.46,730.088C401.46,736.116 328.355,658.442 304.073,580.629C291.885,541.575 279.652,537.831 293.884,503.662C322.296,435.449 304.113,426.977 334.964,391.923C350.628,374.126 358.354,378.255 390.76,355.865C418.984,336.363 424.539,347.176 452.203,327.107C503.326,290.019 507.713,286.199 555.586,305.281C593.271,320.302 689.074,319.118 712.178,420.576C719.734,453.755 723.101,452.39 740.474,481.515C757.144,509.463 735.666,510.3 727.91,566.544Z" style="fill:rgb(25,24,36);"/>
                <path d="M642.767,353.342C639.549,372.568 646.949,372.578 646.512,383.687C615.028,379.604 609.316,424.067 621.598,432.355C639.009,444.105 656.24,455.199 665.227,440.315C669.958,432.481 666.274,417.982 664.948,408.574C665.841,408.275 667.853,407.602 671.022,418.649C682.227,457.725 689.037,455.112 694.2,476.575C703.278,514.31 693.758,548.404 691.122,563.422C684.269,602.465 656.749,616.649 641.812,632.745C618.181,658.21 561.106,676.277 551.474,671.493C553.191,668.05 566.826,654.212 543.09,614.728C530.695,594.109 502.443,606.159 476.494,605.762C462.011,605.54 446.961,617.107 444.973,621.731C437.827,638.343 435.503,650.767 435.014,653.376L434.661,653.607C368.899,627.891 371.103,621.379 362.002,600.681C360.182,596.542 347.927,568.672 318.732,564.328C312.893,550.466 312.959,550.703 312.469,549.513C299.532,518.085 311.056,517.74 321.673,485.556C333.625,449.327 346.693,411.633 346.693,411.633C345.187,415.043 322.583,466.222 339.618,457.694C344.532,455.233 348.295,413.298 367.723,403.942C393.175,391.686 425.424,379.437 413.546,374.426C413.316,374.329 412.77,371.935 390.701,381.831C391.704,380.106 408.64,363.736 427.58,358.836C447.208,353.757 447.589,354.067 475.128,334.001C517.326,303.253 522.593,312.434 548.682,323.082C582.09,336.716 628.524,339.355 642.767,353.342Z" style="fill:rgb(105,126,139);"/>
                <path d="M642.767,353.342C644.94,353.993 646.064,354.645 646.33,354.799C682.842,375.964 693.545,423.531 695.128,430.565C707.223,484.317 732.682,487.908 726.73,502.604C710.17,543.495 712.127,544.089 708.191,575.461C700.591,636.028 648.04,666.303 643.538,662.458C616.303,639.195 567.008,687.108 561.601,696.553C551.542,714.125 513.836,711.414 509.521,711.104C484.47,709.303 484.578,712.064 459.499,711.592C409.363,710.649 355.212,645.545 357.981,640.762C369.702,620.518 353.78,579.241 322.466,572.637C319.248,571.958 319.502,565.541 318.732,564.328C347.927,568.672 360.182,596.542 362.002,600.681C371.103,621.379 368.899,627.891 434.661,653.607C434.877,654.237 435.093,654.867 435.309,655.498C453.663,711.045 490.793,684.672 507.475,688.623C517.216,690.93 534.105,701.051 551.474,671.493C561.106,676.277 618.181,658.21 641.812,632.745C656.749,616.649 684.269,602.465 691.122,563.422C693.758,548.404 703.278,514.31 694.2,476.575C689.037,455.112 682.227,457.725 671.022,418.649C667.853,407.602 665.841,408.275 664.948,408.574C664.51,387.333 650.083,385.097 646.512,383.687C646.949,372.578 639.549,372.568 642.767,353.342Z" style="fill:rgb(53,67,88);"/>
                <path d="M435.014,653.376C435.503,650.767 437.827,638.343 444.973,621.731C446.961,617.107 462.011,605.54 476.494,605.762C502.443,606.159 530.695,594.109 543.09,614.728C566.826,654.212 553.191,668.05 551.474,671.493C534.105,701.051 517.216,690.93 507.475,688.623C490.793,684.672 453.663,711.045 435.309,655.498L435.014,653.376Z" style="fill:rgb(23,23,36);"/>
                <path d="M488.042,395.387C491.765,373.249 492.336,371.871 497.734,368.944C526.273,353.471 530.274,354.426 548.122,370.882C568.309,389.494 550.093,426.178 540.267,432.147C514.708,447.672 503.506,440.756 500.777,439.071C472.037,421.329 486.449,399.776 488.042,395.387Z" style="fill:rgb(23,23,36);"/>
                <path d="M459.418,629.449C469.649,619.093 470.846,620.401 485.499,620.411C502.065,620.423 505.535,614.025 518.517,616.395C535.223,619.444 550.66,652.254 537.347,668.384C525.561,682.664 518.234,677.023 512.326,674.948C492.792,668.088 477.721,685.089 461.782,673.104C440.229,656.899 454.415,637.392 459.418,629.449Z" style="fill:rgb(77,89,108);"/>
                <path d="M373.205,455.499C376.787,431.411 402.591,418.331 417.327,427.79C443.002,444.272 447.763,439.033 451.145,448.646C469.447,500.662 402.855,497.647 393.777,489.169C374.374,471.046 373.442,458.647 373.205,455.499Z" style="fill:rgb(23,23,36);"/>
                <path d="M512.228,524.383C518.507,509.324 518,508.726 530.867,498.978C546.313,487.275 562.858,495.379 567.17,503.691C579.265,527.011 564.346,543.247 544.233,561.205C530.119,573.807 498.325,562.395 512.228,524.383Z" style="fill:rgb(23,23,36);"/>
                <path d="M338.06,527.461C344.146,499.889 363.481,515.745 379.58,519.006C425.554,528.319 406.698,601.645 371.949,564.08C352.962,543.554 338.236,551.239 338.06,527.461Z" style="fill:rgb(52,68,88);"/>
                <path d="M646.512,383.687C650.083,385.097 664.51,387.333 664.948,408.574C666.274,417.982 669.958,432.481 665.227,440.315C656.24,455.199 639.009,444.105 621.598,432.355C609.316,424.067 615.028,379.604 646.512,383.687Z" style="fill:rgb(23,23,36);"/>
                <path d="M414.625,443.228C437.474,453.772 438.144,456.231 438.743,458.432C445.207,482.165 416.059,481.382 404.141,476.975C403.242,475.804 396.633,467.189 395.861,460.487C394.491,448.597 412.057,445.087 414.625,443.228Z" style="fill:rgb(84,95,114);"/>
                <path d="M390.701,381.831C412.77,371.935 413.316,374.329 413.546,374.426C425.424,379.437 393.175,391.686 367.723,403.942C348.295,413.298 344.532,455.233 339.618,457.694C322.583,466.222 345.187,415.043 346.693,411.633C356.094,399.112 356.22,398.744 390.701,381.831Z" style="fill:rgb(248,250,251);"/>
                <path d="M585.497,558.877C587.537,559.143 607.94,561.81 601.056,579.365C593.963,597.455 550.71,602.894 567.351,567.424C572.903,555.59 583.093,558.856 585.497,558.877Z" style="fill:rgb(23,24,36);"/>
                <path d="M537.657,548.633C519.317,564.366 514.29,527.161 540.709,508.796C552.996,500.256 573.708,520.519 537.657,548.633Z" style="fill:rgb(79,90,108);"/>
                <path d="M513.71,378.858L512.5,377.262C516.225,375.455 522.181,369.692 533.301,376.765C545.827,384.731 542.981,395.748 542.527,397.506C536.169,422.114 531.404,421.932 520.404,425.185C501.92,430.653 495,416.662 497.264,409.446C505.617,416.018 507.541,414.527 526.27,401.184C530.609,398.092 534.947,393.146 534.109,382.559C533.955,380.625 526.826,378.81 526.138,378.635C522.407,372.298 516.867,377.192 513.71,378.858Z" style="fill:rgb(54,68,87);"/>
                <path d="M513.71,378.858C499.97,389.376 515.241,389.038 515.284,389.015C525.642,383.642 526.019,379.83 526.138,378.635C526.826,378.81 533.955,380.625 534.109,382.559C534.947,393.146 530.609,398.092 526.27,401.184C507.541,414.527 505.617,416.018 497.264,409.446C500.365,403.06 500.377,403.116 500.613,402.55C506.264,388.989 499.173,384.94 509.5,378.801L510.5,378.237L511.5,377.914L512.5,377.262L513.71,378.858Z" style="fill:rgb(85,96,114);"/>
                <path d="M648.425,431.649C636.704,424.643 636.775,424.695 635.767,424.083C618.596,413.657 636.912,390.27 648.127,397.938C650.173,399.337 652.588,417.719 652.818,419.466C653.264,422.862 658.58,436.279 648.425,431.649Z" style="fill:rgb(77,87,106);"/>
                <path d="M657.468,552.722C651.759,550.396 648.591,551.39 650.435,545.483C656.403,526.368 683.644,547.057 671.258,567.355C659.662,586.36 641.911,558.404 653.563,561.168C665.917,564.099 662.711,553.212 657.468,552.722Z" style="fill:rgb(22,23,36);"/>
                <path d="M515.518,315.8C533.43,317.419 520.155,325.484 519.507,325.558C504.798,327.241 503.866,331.371 479.303,347.187C472.999,351.246 466.236,343.505 474.841,337.973C505.048,318.551 504.875,317.781 515.518,315.8Z" style="fill:rgb(247,250,250);"/>
                <path d="M610.946,385.345C615.941,401.858 605.189,395.068 604.557,394.443C603.155,393.058 597.802,377.258 599.648,370.538C604.819,351.711 637.558,358.021 627.34,367.323C624.464,369.942 616.35,366.269 611.589,369.642C607.26,372.709 610.594,384.138 610.946,385.345Z" style="fill:rgb(247,250,250);"/>
                <path d="M628.179,502.555C628.176,501.069 628.147,486.617 635.499,485.487C642.463,484.417 644.232,498.192 644.401,499.51C645.935,511.459 634.094,521.66 628.179,502.555Z" style="fill:rgb(52,68,86);"/>
                <path d="M372.067,529.4C360.65,550.76 343.436,525.202 358.661,517.834C363.622,515.433 367.659,518.386 368.284,518.843C372.451,521.89 372.113,528.504 372.067,529.4Z" style="fill:rgb(22,24,37);"/>
                <path d="M414.625,443.228C412.057,445.087 394.491,448.597 395.861,460.487C396.633,467.189 403.242,475.804 404.141,476.975C396.402,474.76 382.85,457.586 389.614,450.6C404.537,435.19 408.757,439.16 414.625,443.228Z" style="fill:rgb(55,68,88);"/>
                <path d="M409.456,611.069C389.932,608.089 401.284,580.965 413.026,594.897C422.905,606.618 410.714,610.653 409.456,611.069Z" style="fill:rgb(22,23,36);"/>
                <path d="M425.62,470.77C424.585,471.166 413.628,475.361 411.955,473.093C404.518,463.013 438.566,454.42 431.098,467.216C430.291,468.599 430.131,468.249 425.62,470.77Z" style="fill:rgb(248,250,250);"/>
                <path d="M616.868,457.5C614.099,475.219 594.776,458.957 604.837,451.945C613.962,445.586 616.616,456.47 616.868,457.5Z" style="fill:rgb(50,67,85);"/>
                <path d="M535.844,644.388C535.98,645.178 537.784,655.659 529.627,652.248C523.626,649.739 522.718,627.54 531.31,634.723C531.853,635.177 532.347,634.879 535.844,644.388Z" style="fill:rgb(248,250,251);"/>
                <path d="M513.71,378.858C516.867,377.192 522.407,372.298 526.138,378.635C526.019,379.83 525.642,383.642 515.284,389.015C515.241,389.038 499.97,389.376 513.71,378.858Z" style="fill:rgb(246,247,249);"/>
                <path d="M424.322,593.035C409.498,595.472 417.051,573.253 426.422,581.583C432.886,587.328 425.097,592.518 424.322,593.035Z" style="fill:rgb(48,66,84);"/>
                <path d="M594.123,513.481C594.342,512.544 596.803,502.045 605.208,508.796C612.676,514.795 596.988,528.307 594.123,513.481Z" style="fill:rgb(21,22,37);"/>
                <path d="M430.076,517.477C425.169,532.787 411.314,515.375 420.556,511.604C428.53,508.351 429.926,516.594 430.076,517.477Z" style="fill:rgb(19,24,36);"/>
                <path d="M645.246,413.326C634.923,420.755 633.587,399.462 642.255,403.968C648.037,406.973 645.562,412.606 645.246,413.326Z" style="fill:rgb(247,247,248);"/>
                <path d="M583.507,571.267C595.507,573.804 578.996,586.068 577.366,577.512C576.439,572.643 582.82,571.401 583.507,571.267Z" style="fill:rgb(79,90,108);"/>
                <path d="M465.822,635.52C466.05,634.886 468.188,628.947 473.346,631.747C479.266,634.961 469.836,647.875 465.822,635.52Z" style="fill:rgb(54,67,86);"/>
                <path d="M549.185,520.232C537.742,525.614 540.171,513.708 545.545,512.853C554.956,511.355 549.544,519.68 549.185,520.232Z" style="fill:rgb(243,246,246);"/>
                <path d="M564.938,463.527C565.206,462.921 568.12,456.326 572.313,459.748C578.363,464.684 567.639,474.598 564.938,463.527Z" style="fill:rgb(20,25,38);"/>
                <path d="M601.594,623.26C609.214,628.012 595.921,635.471 595.731,627.49C595.623,622.907 597.116,623.172 601.594,623.26Z" style="fill:rgb(52,71,86);"/>
                <path d="M662.464,461.157C663.056,461.25 668.926,462.172 666.473,467.486C663.487,473.95 652.886,464.478 662.464,461.157Z" style="fill:rgb(18,23,36);"/>
                <path d="M556.453,351.413C556.964,351.275 561.845,349.956 562.285,354.522C562.884,360.73 550.592,358.585 556.453,351.413Z" style="fill:rgb(50,70,84);"/>
                <path d="M434.661,653.607L435.014,653.376L435.309,655.498C435.093,654.867 434.877,654.237 434.661,653.607Z" style="fill:rgb(47,56,73);"/>
            </g>
        </g>
    </g>
</svg>
