<?xml version="1.0" encoding="UTF-8" standalone="no"?>
<!DOCTYPE svg PUBLIC "-//W3C//DTD SVG 1.1//EN" "http://www.w3.org/Graphics/SVG/1.1/DTD/svg11.dtd">
<svg width="100%" height="100%" viewBox="0 0 359 479" version="1.1" xmlns="http://www.w3.org/2000/svg" xmlns:xlink="http://www.w3.org/1999/xlink" xml:space="preserve" xmlns:serif="http://www.serif.com/" style="fill-rule:evenodd;clip-rule:evenodd;stroke-linejoin:round;stroke-miterlimit:2;">
    <g transform="matrix(1,0,0,1,-9099.543256,-1491.705051)">
        <g transform="matrix(2.211214,0,0,1.482332,-200.62803,92.293922)">
            <g transform="matrix(0.45224,0,0,1.123682,2265.064479,-1101.278014)">
                <g transform="matrix(1,0,0,1,-53.680245,-5.895256)">
                    <g>
                        <g id="Fondo" transform="matrix(0.622067,0,0,0.373464,4206.342089,1775.290566)">
                            <path d="M637.77,645.666C637.793,652.852 656.786,716.622 614.33,821.431C608.943,834.729 607.301,836.247 609.542,836.063C610.837,835.957 613.78,833.804 628.51,834.23C656.143,835.03 679.744,864.938 663.764,902.617C662.462,905.687 661.335,904.957 620.499,905.13C545.713,905.447 545.589,905.722 539.494,903.515C520.619,896.679 520.363,866.123 520.332,862.501C520.029,826.396 521.194,785.066 519.464,783.553C519.205,783.326 504.315,781.571 503.698,784.545C502.984,787.981 504.714,866.739 502.686,876.537C495.828,909.668 477.808,905.1 448.5,905.128C362.547,905.208 362.38,905.046 361.618,904.361C357.603,900.748 341.475,853.532 383.552,836.65C390.822,833.733 404.905,833.703 411.528,835.374C414.338,836.083 416.055,837.429 415.609,834.485C414.892,829.755 410.941,831.148 394.792,778.418C377.06,720.517 381.713,664.158 386.164,647.462C386.523,646.116 385.531,643.92 383.77,646.727C380.002,652.735 365.101,674.252 355.773,696.604C353.632,701.735 369.215,711.735 364.056,734.397C360.221,751.239 345.566,751.895 335.687,742.3C327.897,734.733 334.971,754.983 315.427,760.222C288.777,767.367 254.698,721.523 307.128,634.281C329.222,597.519 366.317,570.812 372.432,566.409C380.644,560.498 380.782,560.303 380.638,559.455C380.315,557.557 338.462,535.446 310.183,484.688C300.065,466.526 302.243,463.699 295.504,462.478C247.246,453.732 210.201,398.099 227.884,354.66C234.919,337.379 259.14,331.875 284.898,355.019C288.609,358.354 288.758,350.94 288.843,350.576C295.961,320.161 306.342,296.228 328.933,266.859C336.905,256.495 350.905,243.85 352.957,241.997C357.248,238.122 361.428,236.965 359.706,231.445C353.85,212.679 342.715,196.675 339.555,196.199C298.78,190.057 306.396,132.263 348.463,136.729C354.967,137.42 366.515,143.936 370.168,153.642C373.814,163.328 370.963,164.472 377.019,172.854C379.194,175.865 402.841,208.592 406.486,208.725C409.222,208.824 483.597,167.457 582.471,195.589C605.83,202.236 616.631,209.739 618.462,208.445C622.578,205.537 646.384,173.751 648.706,170.652C653.95,163.649 650.192,149.434 666.751,139.904C696.572,122.741 732.244,167.251 696.393,192.336C688.622,197.774 684.477,192.082 678.777,201.666C677.245,204.241 660.473,232.439 663.999,236.08C665.088,237.205 692.97,258.349 713.253,293.649C732.384,326.944 734.94,355.494 736.633,356.235C739.027,357.283 760.568,331.742 784.315,341.902C811.17,353.392 807.182,426.783 750.624,454.761C734.724,462.627 725.17,460.828 722.882,465.661C719.618,472.556 713.599,489.763 688.356,520.381C677.943,533.012 655.027,551.948 645.072,558.003C640.738,560.639 645.462,561.153 657.131,569.966C747.271,638.042 763.927,741.968 722.405,759.261C711.017,764.004 698.313,757.397 694.883,749.329C691.797,742.07 692.249,737.797 689.284,741.258C676.206,756.527 653.676,747.129 659.96,716.603C662.362,704.933 670.194,701.337 668.156,696.636C657.367,671.755 646.339,656.552 639.614,646.346C638.981,645.386 638.856,645.712 637.77,645.666Z" style="fill:rgb(229,61,138);"/>
                            <path d="M651.325,255.148C654.546,252.909 654.963,253.451 657.238,250.296C659.317,247.413 660.094,248.843 662.737,251.216C755.837,334.798 737.588,453.863 672.224,520.238C632.365,560.713 602.7,561.831 604.667,567.445C613.228,591.877 614.391,591.467 622.269,626.559C646.014,732.332 607.164,810.571 586.835,851.672C584.015,857.372 583.166,856.977 583.348,857.489C584.136,859.706 586.248,856.594 601.626,850.88C659.024,829.551 661.25,885.752 654.11,892.081C651.994,893.958 556.017,892.886 547.488,892.79C529.533,892.59 532.448,856.065 532.455,845.5C532.5,775.72 532.493,775.197 534.565,773.566C534.776,773.4 538.81,770.226 535.524,770.353C516.07,771.106 497.672,770.323 488.491,770.465C485.844,770.506 489.166,773.469 489.363,773.645C491.623,775.66 491.606,776.151 491.448,818.5C491.262,868.838 494.227,892.53 475.505,892.802C475.503,892.802 371.633,892.815 371.451,892.786C366.089,891.944 362.754,864.543 378.742,852.826C404.153,834.202 439.361,861.422 440.205,857.488C440.28,857.142 422.492,825.925 411.625,792.458C393.22,735.781 393.845,705.848 394.091,685.495C394.39,660.771 403.626,615.708 405.412,609.476C417.462,567.419 421.66,566.478 418.363,564.745C410.04,560.37 409.803,561.079 401.381,556.705C397.406,554.64 373.874,542.418 355.748,524.258C260.443,428.779 296.48,309.179 355.749,255.773C363.66,248.645 364.446,248.04 366.118,249.831C383.173,268.101 405.795,250.467 410.034,244.166C422.839,225.134 411.427,220.25 416.576,217.64C450.111,200.64 524.335,187.661 586.529,209.429C609.001,217.294 608.893,218.773 608.586,220.512C604.143,245.694 631.088,264.592 651.325,255.148Z" style="fill:rgb(250,177,207);"/>
                            <path d="M454.126,431.496C453.907,447.586 454.061,450.657 438.536,454.636C376.778,470.467 354.098,449.487 341.939,429.223C321.326,394.87 348.967,341.512 397.529,347.247C408.84,348.583 434.272,356.868 445.851,387.369C449.685,397.468 453.272,407.076 454.126,431.496Z" style="fill:rgb(37,53,64);"/>
                            <path d="M569.94,432.501C572.173,344.439 631.278,344.056 646.56,348.287C693.26,361.218 697.945,413.329 676.303,437.332C654.701,461.293 633.618,464.342 592.555,456.261C566.836,451.2 570.344,443.969 569.94,432.501Z" style="fill:rgb(38,53,63);"/>
                            <path d="M721.763,670.376C748.296,737.841 715.616,760.958 705.746,743.365C699.798,732.762 700.611,718.728 691.469,722.438C686.252,724.555 671.909,749.812 670.953,725.497C670.388,711.127 683.464,703.357 681.853,698.394C681.434,697.102 666.424,658.276 637.166,624.794C629.842,616.413 632.665,615.075 627.053,595.635C621.352,575.886 618.313,572.589 621.663,570.818C632.806,564.925 633.39,568.35 638.798,572.051C642.581,574.641 684.638,599.956 712.812,651.337C717.585,660.041 717.093,660.157 721.763,670.376Z" style="fill:rgb(251,175,207);"/>
                            <path d="M324.883,725.681C321.048,735.876 316.926,756.426 302.628,746.303C278.615,729.3 291.283,632.57 388.684,569.784C395.076,565.664 395.913,566.574 402.189,570.933C405.177,573.009 402.83,573.902 396.166,598.415C393.444,608.428 393.855,608.459 391.426,618.482C390.369,622.844 364.158,646.129 344.441,692.475C341.541,699.293 340.393,700.075 345.05,705.874C359.076,723.339 352.499,740.615 344.635,734.309C336.1,727.466 331.965,715.486 324.883,725.681Z" style="fill:rgb(251,176,207);"/>
                            <path d="M733.762,431.561C740.821,400.637 737.544,377.844 738.045,373.453C738.375,370.559 750.927,360.752 756.44,357.396C791.292,336.18 789.552,378.204 787.109,390.434C778.256,434.768 734.752,449.757 729.734,449.011C728.316,448.801 729.261,447.966 733.762,431.561Z" style="fill:rgb(250,175,207);"/>
                            <path d="M271.571,360.402C285.842,371.086 285.856,371.922 285.882,373.472C286.018,381.549 284.902,381.497 285.921,402.473C287.034,425.376 294.998,448.407 294.202,449.222C292.644,450.816 261.826,439.786 246.832,415.283C229.525,387.001 234.342,354.383 247.554,351.788C257.537,349.827 267.021,357.296 271.571,360.402Z" style="fill:rgb(251,176,207);"/>
                            <path d="M372.206,231.587C369.126,220.381 365.426,210.275 349.985,187.155C344.786,179.371 337.112,188.499 328.874,178.15C315.447,161.286 336.243,142.661 350.354,149.83C362.373,155.936 360.517,166.088 360.74,169.481C360.775,170.021 373.119,192.529 402.192,222.768C408.686,229.522 397.713,243.518 388.423,245.18C374.586,247.654 374.29,240.3 372.206,231.587Z" style="fill:rgb(250,175,207);"/>
                            <path d="M640.489,245.696C640.039,245.648 625.643,246.069 619.862,229.356C617.512,222.565 624.866,225.285 660.991,173.83C666.868,165.459 659.972,160.965 667.852,153.896C684.884,138.619 704.585,158.324 698.089,172.328C691.225,187.125 682.093,183.025 677.548,183.809C674.808,184.281 675.384,185.225 664.087,203.238C645.573,232.758 655.367,244.755 640.489,245.696Z" style="fill:rgb(251,175,207);"/>
                            <path d="M501.607,512.008C501.12,511.844 498.321,511.18 493.571,509.31C482.638,505.005 472.238,491.953 471.367,485.521C470.941,482.38 476.593,471.633 484.07,484.741C485.543,487.323 495.583,504.926 517.438,501.093C538.709,497.362 539.792,478.771 546.505,478.661C558.995,478.455 549.692,497.941 536.237,506.105C520.663,515.555 510.369,513.45 501.607,512.008Z" style="fill:rgb(231,59,136);"/>
                            <g transform="matrix(0.426667,0,0,0.426667,-35.830391,-2.117766)">
                                <circle cx="947.991" cy="892.351" r="29.528" style="fill:rgb(251,252,251);"/>
                            </g>
                            <g transform="matrix(0.426667,0,0,0.426667,206.539544,-2.117766)">
                                <circle cx="947.991" cy="892.351" r="29.528" style="fill:rgb(251,252,251);"/>
                            </g>
                        </g>
                    </g>
                    <g>
                        <g transform="matrix(0.265415,0,0,0.159345,4204.181818,1773.265235)">
                            <circle cx="1055.063" cy="590.85" r="48.552" style="fill:rgb(251,252,251);"/>
                        </g>
                        <g transform="matrix(0.265415,0,0,0.159345,4203.328652,1773.757775)">
                            <circle cx="1138.908" cy="550.702" r="25.957" style="fill:rgb(251,252,251);"/>
                        </g>
                        <g transform="matrix(0.23669,0,0,0.142099,4239.232164,1782.930046)">
                            <circle cx="1180.419" cy="533.221" r="12.94" style="fill:rgb(251,252,251);"/>
                        </g>
                    </g>
                </g>
            </g>
        </g>
    </g>
</svg>
