<?xml version="1.0" encoding="UTF-8" standalone="no"?>
<!DOCTYPE svg PUBLIC "-//W3C//DTD SVG 1.1//EN" "http://www.w3.org/Graphics/SVG/1.1/DTD/svg11.dtd">
<svg width="100%" height="100%" viewBox="0 0 365 473" version="1.1" xmlns="http://www.w3.org/2000/svg" xmlns:xlink="http://www.w3.org/1999/xlink" xml:space="preserve" xmlns:serif="http://www.serif.com/" style="fill-rule:evenodd;clip-rule:evenodd;stroke-linejoin:round;stroke-miterlimit:2;">
    <g transform="matrix(1,0,0,1,-9712.077202,-1497.965074)">
        <g transform="matrix(2.211214,0,0,1.482332,-200.62803,92.293922)">
            <g transform="matrix(0.45224,0,0,1.123682,2332.727498,-1107.951207)">
                <g id="Fondo" transform="matrix(0.599207,0,0,0.35974,4630.573104,1787.800442)">
                    <path d="M644.509,641.481C644.129,641.533 643.88,640.873 643.5,640.925C643.5,640.925 643.25,642.259 643.229,642.375C660.07,727.044 620.879,821.11 614.455,831.485C611.663,835.995 616.275,833.338 621.515,832.611C629.486,831.504 655.279,828.632 671.129,853.711C683.132,872.705 674.036,898.121 672.142,902.362C670.071,906.998 668.138,904.538 566.501,904.852C552.737,904.894 526.836,910.011 519.997,875.395C517.397,862.233 519.598,785.307 518.774,782.397C518.44,781.216 518.094,780.47 503.474,781.361C501.123,781.504 501.98,782.953 501.915,827.5C501.877,853.532 506.379,895.437 479.483,903.444C471.202,905.909 471.014,905.174 371.5,904.921C351.687,904.871 350.521,905.403 348.737,901.383C335.084,870.621 350.176,831.622 389.495,831.866C404.786,831.961 409.323,835.828 407.045,831.664C403.86,825.841 395.083,801.31 394.127,798.639C391.349,790.875 375.2,745.738 374.189,697.505C373.543,666.664 376.557,656.372 378.361,643.507C378.679,641.238 377.108,640.788 375.889,642.799C358.822,670.972 353.36,678.593 346.815,694.61C345.615,697.548 347.223,697.27 349.298,700.629C361.713,720.731 356.243,738.949 349.128,744.028C335.757,753.572 325.342,738.097 322.431,739.425C321.419,739.887 315.835,764.717 292.544,759.332C258.056,751.359 259.587,692.312 284.83,645.667C320.167,580.374 369.177,556.519 369.902,554.548C370.84,552.002 332.046,532.417 302.856,486.254C289.07,464.452 291.035,459.463 284.604,458.048C262.894,453.273 245.582,441.622 236.347,432.655C184.344,382.156 205.715,295.416 265.227,337.902C272.378,343.006 274.874,347.453 276.16,341.408C277.268,336.196 283.932,304.862 300.06,279.233C327.748,235.235 346.905,227.15 348.133,222.446C348.712,220.23 340.423,202.861 334.155,192.718C329.584,185.321 331.036,182.792 322.482,181.607C317.548,180.923 309.796,176.127 307.718,174.259C280.497,149.795 307.442,110.032 337.515,118.444C362.551,125.447 361.945,150.025 362.838,151.282C371.888,164.019 372.374,163.634 373.129,164.761C378.89,173.36 393.761,191.413 394.729,192.232C402.749,199.026 422.713,171.837 503.487,169.152C581.472,166.56 621.671,195.862 625.718,194C628.486,192.726 651.833,162.373 656.09,156.225C663.859,145.004 659.293,135.507 672.591,124.618C701.754,100.738 739.589,138.594 721.977,165.822C709.921,184.459 699.903,180.096 695.613,182.702C691.342,185.297 675.873,216.57 675.835,216.659C671.695,226.199 676.916,225.903 682.626,231.362C736.206,282.59 743.744,333.017 745.517,341.495C747.574,351.323 757.141,330.315 780.497,326.481C824.988,319.177 825.114,398.829 784.931,432.959C747.549,464.711 735.023,453.611 731.989,459.78C726.179,471.595 726.595,471.743 720.111,483.272C708.564,503.803 680.773,535.763 652.788,552.907C650.731,554.167 650.557,555.102 652.684,556.2C663.903,561.994 672.641,569.487 674.222,570.844C677.586,573.728 729.38,613.33 749.12,676.617C765.69,729.74 746.258,759.301 724.479,760.183C700.369,761.16 701.476,735.653 697.384,739.26C694.954,741.401 695.074,741.447 692.374,743.307C671.035,758.007 652.51,727.887 672.762,699.681C676.435,694.566 674.292,694.001 669.17,682.681C669.293,682.417 670.629,682.563 670.117,680.641C669.818,679.519 669.744,679.651 669.28,678.614C668.346,676.524 667.892,678.303 667.152,678.65C660.864,666.798 647.906,646.128 644.509,641.481Z" style="fill:rgb(10,175,240);"/>
                    <path d="M589.481,857.448C594.808,854.554 609.911,849.206 611.517,848.539C615.989,846.683 637.525,841.087 651.285,851.792C670.14,866.461 663.473,891.06 659.51,891.576C658.934,891.651 658.944,891.295 593.5,891.436C544.212,891.542 543.54,891.403 539.603,887.406C530.465,878.129 532.855,863.746 532.582,787.499C532.535,774.337 532.107,773.82 535.493,770.495C535.66,770.331 538.029,768.004 535.486,767.572C531.859,766.955 531.861,768.401 489.499,767.595C489.366,767.593 481.481,766.495 483.903,769.223C489.892,775.97 487.735,777.087 488.087,809.501C488.705,866.288 487.91,869.484 486.653,874.534C481.633,894.71 474.191,891.314 448.499,891.407C442.596,891.428 361.137,891.519 360.566,891.266C358.32,890.27 355.454,875.957 358.921,866.653C374.992,823.537 432.298,859.187 434.202,858.026C435.278,857.371 427.319,845.524 416.311,819.586C372.678,716.784 391.972,640.726 392.553,637.511C406.115,562.532 416.897,561.983 412.351,559.704C405.31,556.176 334.9,533.686 298.894,449.331C284.218,414.949 285.598,377.819 285.833,371.51C288.465,300.709 335.86,253.518 343.711,245.701C351.65,237.797 352.639,236.33 355.657,239.329C365.387,248.998 385.951,246.392 396.216,237.128C416.3,219.003 403.551,205.734 407.728,203.935C470.674,176.813 522.389,181.969 532.457,182.972C538.857,183.61 581.171,187.829 610.367,202.79C612.145,203.701 615.877,203.719 615.362,206.485C609.423,238.437 648.178,256.624 667.741,238.818C669.799,236.944 670.435,238.397 673.209,240.851C703.248,267.435 718.842,303.333 721.517,309.492C757.349,391.981 724.793,499.588 629.497,551.494C618.199,557.648 607.359,559.123 609.493,563.503C614.027,572.806 641.974,651.722 631.681,725.526C620.242,807.545 586.38,852.074 587.661,859.259L588.59,860.065C588.887,859.193 589.184,858.32 589.481,857.448Z" style="fill:rgb(161,224,253);"/>
                    <path d="M447.948,409.458C449.957,436.888 449.842,443.713 439.595,446.792C387.268,462.518 363.206,449.778 357.394,446.701C313.633,423.531 313.741,362.164 360.407,341.29C389.024,328.49 412.122,344.554 415.779,347.097C441.712,365.132 445.65,392.78 447.948,409.458Z" style="fill:rgb(9,35,52);"/>
                    <path d="M610.446,452.899C576.613,448.011 575.731,443.72 574.702,442.364C571.392,438.001 566.682,383.075 597.796,353.815C647.292,307.269 721.391,364.822 689.15,421.289C665.091,463.427 619.062,453.752 610.446,452.899Z" style="fill:rgb(9,36,53);"/>
                    <path d="M686.336,599.668C698.658,612.944 743.698,660.329 741.622,720.509C740.913,741.09 721.528,757.675 712.765,738.367C706.846,725.326 707.236,711.274 694.593,723.596C689.297,728.757 677.064,744.223 678.317,721.489C679.213,705.223 693.123,702.671 689.278,693.6C683.128,679.094 665.399,646.51 654.046,632.858C641.453,617.716 639.251,618.799 637.207,608.56C631.244,578.687 624.653,569.04 627.787,566.961C636.523,561.164 638.521,562.27 639.384,562.748C657.694,572.886 682.846,596.405 686.336,599.668Z" style="fill:rgb(160,226,252);"/>
                    <path d="M364.508,574.511C365.618,573.699 374.749,567.019 378.566,564.616C384.569,560.838 385.086,562.666 391.315,565.892C396.06,568.349 395.323,569.515 393.564,574.524C384.325,600.832 385.106,609.847 383.055,614.314C380.019,620.925 375.943,618.012 353.173,653.303C351.157,656.427 337.469,677.642 331.908,694.63C329.247,702.759 343.55,708.723 343.227,723.492C342.744,745.607 329.153,725.33 326.322,722.693C307.429,705.103 314.275,752.502 295.409,745.786C278.019,739.595 279.778,715.169 279.759,713.499C279.162,662.059 324.239,610.932 327.064,608.046C342.067,592.719 341.359,592.003 364.508,574.511Z" style="fill:rgb(159,226,253);"/>
                    <path d="M800.562,358.491C806.908,423.533 740.602,443.65 739.601,443.142C737.2,441.924 751.039,412.766 748.645,369.493C748.106,359.748 750.496,360.307 757.755,353.815C768.962,343.79 790.231,331.864 797.103,346.696C800.687,354.43 800.355,357.18 800.562,358.491Z" style="fill:rgb(159,225,252);"/>
                    <path d="M282.027,442.307C281.329,442.278 281.045,443.519 271.492,439.516C270.932,439.281 267.713,437.932 264.646,436.233C248.898,427.508 239.714,416.271 237.959,414.124C219.717,391.804 218.814,365.963 222.291,353.443C230.628,323.427 258.943,350.344 266.114,355.959C274.916,362.852 272.266,365.326 272.15,369.488C270.992,411.058 279.233,427.608 282.027,442.307Z" style="fill:rgb(159,227,253);"/>
                    <path d="M677.421,139.455C693.887,117.9 718.445,139.223 711.373,156.45C705.824,169.967 696.331,168.177 690.523,168.667C687.857,168.893 686.937,168.97 670.927,195.769C661.54,211.482 659.751,224.48 657.174,229.322C652.488,238.127 628.205,229.582 628.234,213.495C628.24,210.397 640.06,199.699 646.018,192.102C672.197,158.726 674.196,154.582 674.522,152.504C675.573,145.808 674.335,145.516 677.421,139.455Z" style="fill:rgb(159,226,251);"/>
                    <path d="M394.233,214.492C393.599,216.784 388.716,234.442 370.51,232.401C359.574,231.175 366.775,218.608 345.947,186.203C340.825,178.234 341.179,178.109 335.896,170.199C332.664,165.361 327.087,169.876 320.595,166.318C295.94,152.804 319.61,119.719 340.134,133.978C347.355,138.995 347.739,145.307 347.81,146.478C348.483,157.53 350.323,157.114 365.026,176.829C378.887,195.413 389.045,205.365 391.362,207.633C394.135,210.351 393.596,210.683 394.233,214.492Z" style="fill:rgb(158,226,252);"/>
                    <path d="M514.482,507.215C502.073,507.024 488.577,507.84 472.427,487.562C461.967,474.428 475.797,466.855 480.087,474.756C497.052,505.998 530.061,493.408 538.136,480.286C539.72,477.713 542.713,469.155 550.509,472.48C557.942,475.65 547.262,504.178 514.482,507.215Z" style="fill:rgb(10,175,240);"/>
                    <g transform="matrix(0.5,0,0,0.5,-36.218131,1.378348)">
                        <circle cx="790.167" cy="737.909" r="27.388" style="fill:rgb(250,251,250);"/>
                    </g>
                    <g transform="matrix(0.5,0,0,0.5,220.435473,1.378348)">
                        <circle cx="790.167" cy="737.909" r="27.388" style="fill:rgb(250,251,250);"/>
                    </g>
                </g>
                <g transform="matrix(0.317947,0,0,0.190882,4614.064999,1782.504274)">
                    <circle cx="960.994" cy="440.789" r="21.863" style="fill:rgb(229,248,254);"/>
                </g>
                <g transform="matrix(0.309665,0,0,0.18591,4621.912665,1784.421556)">
                    <circle cx="1003.948" cy="424.621" r="9.49" style="fill:rgb(229,248,254);"/>
                </g>
                <g transform="matrix(0.330047,0,0,0.198147,4593.671286,1761.78398)">
                    <circle cx="918.352" cy="559.281" r="40.666" style="fill:rgb(229,248,254);"/>
                </g>
            </g>
        </g>
    </g>
</svg>
