<?xml version="1.0" encoding="UTF-8" standalone="no"?>
<!DOCTYPE svg PUBLIC "-//W3C//DTD SVG 1.1//EN" "http://www.w3.org/Graphics/SVG/1.1/DTD/svg11.dtd">
<svg width="100%" height="100%" viewBox="0 0 310 419" version="1.1" xmlns="http://www.w3.org/2000/svg" xmlns:xlink="http://www.w3.org/1999/xlink" xml:space="preserve" xmlns:serif="http://www.serif.com/" style="fill-rule:evenodd;clip-rule:evenodd;stroke-linejoin:round;stroke-miterlimit:2;">
    <g transform="matrix(1,0,0,1,-8521.887915,-1516.330518)">
        <g transform="matrix(2.211214,0,0,1.482332,-200.62803,92.293922)">
            <g transform="matrix(0.109405,0,0,0.1632,4014.646219,1101.773287)">
                <g transform="matrix(1,0,0,1,-639.583333,-864.583333)">
                    <clipPath id="_clip1">
                        <rect x="0" y="0" width="1279.167" height="1729.167"/>
                    </clipPath>
                    <g clip-path="url(#_clip1)">
                        <g transform="matrix(4.166667,0,0,4.166667,0,0)">
                            <g>
                                <path d="M5.515,234.133C9.473,237.635 23.414,273.025 54.122,245.69C55.947,244.066 65.748,239.739 68.353,272.712C69.201,283.444 69.847,304.348 88.219,313.82C100.584,320.195 125.809,316.363 129.616,282.492C129.758,281.225 131.852,262.601 134.145,267.211C135.678,270.292 146.044,300.238 170.733,299.471C194.557,298.731 202.565,259.825 205.492,265.114C223.238,297.184 253.088,287.559 261.465,275.304C264.928,270.238 263.854,265.727 265.97,266.948C276.348,272.934 286.497,275.754 298.814,265.672C299.386,273.904 295.997,333.862 288.398,368.582C275.057,429.537 160.267,413.779 110.568,410.406C-7.983,402.358 -0.382,357.235 0.345,312.561C1.438,245.414 -2.501,243.801 5.515,234.135L5.515,234.133Z" style="fill:rgb(236,221,182);"/>
                                <path d="M29.18,294.808C26.872,292.197 18.115,283.964 19.372,279.913C20.015,277.841 22.692,274.512 26.171,275.149C28.604,275.595 33.329,285.337 34.061,286.172C44.221,297.76 35.255,300.477 29.181,294.808L29.18,294.808Z" style="fill:rgb(234,174,176);"/>
                                <path d="M6.172,158.577C6.824,159.7 6.906,159.445 7.404,160.698C26.951,209.87 154.326,235.242 240.163,207.631C297.465,189.199 299.175,173.204 305.683,164.901C304.26,241.005 300.13,263.59 298.813,270.571C286.496,280.653 276.347,272.935 265.969,266.949C263.853,265.728 264.927,270.24 261.464,275.305C253.087,287.559 223.237,297.185 205.491,265.115C202.564,259.825 194.556,298.732 170.732,299.472C146.043,300.239 135.677,270.293 134.144,267.212C131.851,262.602 129.758,281.226 129.615,282.493C125.808,316.364 103.383,330.693 91.017,324.318C72.645,314.846 69.2,283.445 68.352,272.713C65.747,239.74 55.246,248.266 53.421,249.89C22.712,277.225 5.272,245.334 1.315,241.832C0.767,231.408 -0.559,217.099 6.171,158.578L6.172,158.577Z" style="fill:rgb(231,132,137);"/>
                                <path d="M39.318,341.936C36.477,343.955 27.364,351.793 23.47,350.115C21.478,349.257 18.45,346.243 19.452,342.851C20.153,340.479 30.34,336.81 31.247,336.171C43.844,327.293 45.598,336.497 39.318,341.937L39.318,341.936Z" style="fill:rgb(234,174,176);"/>
                                <path d="M95.663,378.787C93.355,376.176 84.598,367.943 85.855,363.892C86.498,361.82 89.175,358.491 92.654,359.128C95.087,359.574 99.812,369.316 100.544,370.151C110.704,381.739 101.738,384.456 95.664,378.787L95.663,378.787Z" style="fill:rgb(234,174,176);"/>
                                <path d="M130.212,329.756C131.679,326.595 135.711,315.271 139.926,314.799C142.082,314.557 146.205,315.675 147.016,319.118C147.583,321.525 140.552,329.76 140.081,330.765C133.538,344.718 127.454,337.593 130.213,329.756L130.212,329.756Z" style="fill:rgb(234,174,176);"/>
                                <path d="M206.235,317.202C203.927,314.591 195.17,306.358 196.427,302.307C197.07,300.235 199.747,296.906 203.226,297.543C205.659,297.989 210.384,307.731 211.116,308.566C221.276,320.154 212.31,322.871 206.236,317.202L206.235,317.202Z" style="fill:rgb(234,174,176);"/>
                                <path d="M194.637,358.743C197.603,360.572 208.374,365.908 208.347,370.149C208.333,372.318 206.738,376.282 203.224,376.681C200.767,376.961 193.417,369.01 192.474,368.424C179.388,360.285 187.179,355.082 194.637,358.743Z" style="fill:rgb(234,174,176);"/>
                                <path d="M261.625,314.67C264.458,312.64 273.54,304.767 277.441,306.43C279.437,307.281 282.476,310.283 281.487,313.678C280.796,316.053 270.623,319.761 269.718,320.404C257.156,329.33 255.366,320.134 261.624,314.67L261.625,314.67Z" style="fill:rgb(234,174,176);"/>
                                <path d="M126.607,91.839C158.844,88.333 210.622,92.943 238.62,101.184C315.613,123.848 306.158,158.713 305.683,164.9C299.174,173.203 298.524,191.668 241.221,210.101C155.384,237.712 13.89,212.34 7.403,160.698C7.235,159.36 6.824,159.701 6.171,158.577C8.706,144.747 14.229,104.061 126.606,91.839L126.607,91.839Z" style="fill:rgb(233,174,176);"/>
                                <g>
                                    <path d="M152.35,0.301C152.597,-1.612 165.798,5.902 171.89,13.862C173.889,16.474 186.377,28.519 177.643,44.675C167.142,64.1 125.353,56.609 138.551,24.49C143.947,11.357 150.517,14.488 152.35,0.3L152.35,0.301Z" style="fill:rgb(255,214,102);"/>
                                    <path d="M138.713,59.835C140.562,63.125 178.866,89.014 182.852,91.686C184.254,92.626 183.646,93.022 182.283,112.781C181.949,117.62 151.994,106.944 134.008,90.862C126.892,84.499 127.003,61.663 138.714,59.835L138.713,59.835Z" style="fill:rgb(245,234,207);"/>
                                    <path d="M129.633,102.942C155.234,122.252 167.896,123.76 181.394,126.237C181.16,137.38 181.185,137.311 181.07,140.04C180.801,145.572 181.362,145.664 180.022,147.977C177.629,147.639 151.867,145.513 129.684,125.987C127.838,122.208 129.462,104.777 129.633,102.941L129.633,102.942Z" style="fill:rgb(245,234,207);"/>
                                    <path d="M131.783,88.197C153.966,107.723 179.728,113.348 182.121,113.686C182.554,118.962 182.62,124.94 180.896,126.493C154.78,124.212 131.293,105.052 131.04,104.32C128.984,103.165 129.217,102.391 129.365,98.088C129.548,92.767 129.258,92.476 131.783,88.197Z" style="fill:rgb(231,132,137);"/>
                                    <path d="M129.684,125.988C151.867,145.514 177.629,147.64 180.022,147.978C182.308,153.832 177.99,158.352 174.598,159.385C148.391,155.415 131.262,142.263 131.04,142.111C128.939,139.422 129.633,139.192 129.365,135.879L129.683,125.988L129.684,125.988Z" style="fill:rgb(231,132,137);"/>
                                    <path d="M129.512,139.157C129.733,139.309 148.391,155.416 174.598,159.385C173.029,162.022 133.778,169.782 130.32,152.74C130.169,151.997 129.384,139.374 129.512,139.157Z" style="fill:rgb(245,234,207);"/>
                                    <path d="M138.713,59.835C138.713,59.835 146.547,71.513 153.79,75.971C153.79,75.971 159.534,81.497 167.064,85.116C167.064,85.116 179.386,91.858 183.16,92.114C183.16,92.114 184.189,76.969 183.16,75.318C183.16,75.318 182.61,70.499 180.361,66.92C180.361,66.92 178.785,63.2 174.762,61.321C174.762,61.321 166.758,57.78 153.767,58.522C153.767,58.522 143.222,58.962 143.27,59.222L138.713,59.834L138.713,59.835Z" style="fill:rgb(231,132,137);"/>
                                </g>
                            </g>
                        </g>
                    </g>
                </g>
            </g>
        </g>
    </g>
</svg>
