<?xml version="1.0" encoding="UTF-8" standalone="no"?>
<!DOCTYPE svg PUBLIC "-//W3C//DTD SVG 1.1//EN" "http://www.w3.org/Graphics/SVG/1.1/DTD/svg11.dtd">
<svg width="100%" height="100%" viewBox="0 0 268 397" version="1.1" xmlns="http://www.w3.org/2000/svg" xmlns:xlink="http://www.w3.org/1999/xlink" xml:space="preserve" xmlns:serif="http://www.serif.com/" style="fill-rule:evenodd;clip-rule:evenodd;stroke-linecap:round;stroke-linejoin:round;stroke-miterlimit:5;">
    <g transform="matrix(1,0,0,1,-7889.152357,-231.865235)">
        <g transform="matrix(2.211214,0,0,1.482332,-200.62803,92.293922)">
            <g id="PERRO-ESPACIAL" serif:id="PERRO ESPACIAL" transform="matrix(0.267552,0,0,0.399111,2481.114439,8.134754)">
                <g>
                    <g transform="matrix(1.25,0,0,1.25,3986.657045,-89.198119)">
                        <path d="M536.529,543.902C505.465,548.736 428.094,547.685 381.964,481.194C376.844,473.813 376.941,472.929 379.092,471.054C406.637,447.046 410.123,374.448 423.839,353.73C466.535,289.239 595.25,303.143 609.577,376.484C627.635,468.919 643.788,465.539 646.79,472.35C647.825,474.697 630.147,501.538 604.231,519.099C602.307,520.402 590.755,528.23 578.628,532.822C555.971,541.401 548.861,541.763 536.529,543.902Z" style="fill:rgb(249,236,224);"/>
                    </g>
                    <g transform="matrix(1.25,0,0,1.25,3986.657045,-89.198119)">
                        <path d="M494.396,763.967C492.451,763.754 490.662,761.5 490.536,759.548C489.274,740.018 490.844,652.261 486.826,646.786C486.202,645.935 485.037,645.557 484.498,645.529C476.069,645.089 477.45,649.619 477.4,689.499C477.308,761.991 479.888,775.403 465.469,779.354C455.407,782.112 467.251,760.188 457.394,763.199C451.937,764.866 455.35,778.866 450.502,778.553C445.814,778.25 444.132,778.259 444.96,773.573C445.099,772.781 446.537,764.636 445.468,763.532C444.23,762.252 440.189,761.258 439.218,765.422C437.394,773.251 439.362,779.765 432.723,775.179C424.683,769.624 438.168,764.054 433.059,740.589C427.101,713.224 405.792,633.47 419.899,583.612C420.037,583.125 420.739,576.363 424.356,577.873C521.901,618.601 597.966,577.287 601.504,577.357C604.889,577.424 617.762,616.034 599.306,704.457C589.3,752.392 588.785,752.715 590.828,758.415C591.364,759.909 598.658,774.084 588.482,776.346C584.987,777.123 586.809,758.728 579.694,762.886C573.547,766.478 585.536,777.125 574.522,778.765C567.984,779.739 573.255,760.04 564.455,763.394C558.24,765.762 569.063,782.792 558.514,779.454C544.435,775 547.067,761.572 546.912,674.5C546.878,655.443 548.547,643.329 539.511,645.602C539.356,645.641 539.216,645.704 539.07,645.782C531.964,649.584 536.179,738.947 534.77,758.642C534.609,760.883 532.84,763.654 530.612,763.948C523.883,764.836 501.075,764.7 494.396,763.967Z" style="fill:rgb(248,227,208);"/>
                    </g>
                    <g transform="matrix(1.25,0,0,1.25,3986.781974,-88.834033)">
                        <path d="M477.44,711.301C477.67,764.821 478.306,775.837 465.469,779.354C455.407,782.112 467.251,760.188 457.394,763.199C451.937,764.866 455.35,778.866 450.502,778.553C445.814,778.25 444.132,778.259 444.96,773.573C445.099,772.781 446.537,764.636 445.468,763.532C444.23,762.252 440.189,761.258 439.218,765.422C437.394,773.251 439.362,779.765 432.723,775.179C424.683,769.624 438.168,764.054 433.059,740.589C431.58,733.794 429.154,723.771 426.559,711.777" style="fill:rgb(255,253,250);"/>
                    </g>
                    <g transform="matrix(1.25,0,0,1.25,3986.694381,-89.198119)">
                        <path d="M597.813,711.593C589.253,752.441 588.892,753.013 590.828,758.415C591.364,759.909 598.658,774.084 588.482,776.346C584.987,777.123 586.809,758.728 579.694,762.886C573.547,766.478 585.536,777.125 574.522,778.765C567.984,779.739 573.255,760.04 564.455,763.394C558.24,765.762 569.063,782.792 558.514,779.454C546.738,775.729 546.653,765.724 546.85,711.593" style="fill:rgb(255,253,250);"/>
                    </g>
                    <g transform="matrix(1.25,0,0,1.25,3986.657045,-89.198119)">
                        <path d="M522.514,244.062C541.873,244.779 602.879,253.98 643.052,312.808C655.702,331.332 659.546,341.994 659.277,342.317C656.588,345.547 632.558,321.379 602.503,321.675C594.288,321.756 593.569,324.715 586.841,320.036C558.108,300.053 490.758,283.221 434.227,322.041C427.997,326.319 422.666,310.831 375.381,337.289C365.646,342.736 365.257,343.207 364.909,342.344C364.522,341.383 383.27,296.889 424.75,269.887C467.701,241.928 506.616,243.353 522.514,244.062Z" style="fill:rgb(251,250,251);"/>
                    </g>
                    <g transform="matrix(1.25,0,0,1.25,3986.657045,-89.198119)">
                        <path d="M400.357,340.155C401.811,339.622 424.247,331.413 419.534,337.523C415.725,342.462 414.458,341.59 408.216,354.36C396.491,378.348 388.454,469.938 358.465,461.61C346.373,458.252 337.119,432.382 334.862,423.401C323.74,379.136 341.555,371.837 341.684,371.726C344.588,369.224 388.472,345.442 400.357,340.155Z" style="fill:rgb(247,222,198);"/>
                    </g>
                    <g transform="matrix(1.25,0,0,1.25,3986.657045,-89.198119)">
                        <path d="M692.079,410.435C681.015,465.854 659.277,474.137 645.105,447.716C623.872,408.13 627.365,360.352 606.234,338.737C597.959,330.272 624.22,339.395 636.23,345.994C686.45,373.59 695.935,372.787 692.865,405.542C692.793,406.303 692.147,410.044 692.079,410.435Z" style="fill:rgb(247,222,198);"/>
                    </g>
                    <g transform="matrix(1.25,0,0,1.25,3986.657045,-89.198119)">
                        <path d="M652.888,690.562C651.131,697.197 650.072,706.639 636.546,725.538C633.464,729.844 617.127,728.849 620.171,737.648C622.241,743.633 647.681,739.096 648.892,757.443C649.282,763.345 642.995,768.777 641.302,761.561C641.284,761.486 639.886,749.417 634.519,752.528C630.08,755.101 637.111,766.616 633.662,767.831C622.145,771.887 629.804,757.555 622.43,754.71C621.724,754.438 616.35,752.49 619.165,763.586C620.531,768.972 620.03,771.351 614.619,770.02C606.563,768.038 602.843,752.254 604.256,745.455C611.308,711.524 613.554,712 620.175,659.457C621.735,647.082 621.747,646.556 623.423,646.199C637.39,643.221 657.872,656.668 652.888,690.562Z" style="fill:rgb(245,221,197);"/>
                    </g>
                    <g transform="matrix(1.25,0,0,1.25,3986.657045,-89.198119)">
                        <path d="M403.959,657.464C409.293,702.159 410.283,701.924 418.72,739.448C418.815,739.871 422.399,749.108 418.021,760.31C413.266,772.478 402.835,771.537 404.386,765.472C404.419,765.34 407.817,756.878 404.333,754.804C397.109,750.503 399.079,769.849 393.469,768.661C385.082,766.883 391.935,759.44 391.302,754.53C391.203,753.763 386.692,747.758 384.018,757.387C383.841,758.026 381.983,764.713 380.56,764.917C375.014,765.71 367.967,746.081 394.55,741.824C395.569,741.661 408.841,739.536 403.489,732.51C399.228,726.918 391.978,734.334 382.817,718.312C382.333,717.466 358.532,682.534 378.638,655.6C386.897,644.536 402.677,643.154 403.072,648.527C403.124,649.243 403.428,653.37 403.959,657.464Z" style="fill:rgb(246,221,198);"/>
                    </g>
                    <g transform="matrix(1.25,0,0,1.25,3986.657045,-89.198119)">
                        <path d="M521.448,447.913C524.039,448.551 537.613,448.824 535.801,461.543C534.176,472.952 518.508,475.515 518.468,479.497C518.463,479.975 515.24,497.583 532.455,498.907C552.747,500.468 549.424,479.33 560.478,481.606C575.269,484.653 547.445,526.242 516.766,506.122C513.32,503.862 513.143,501.202 510.057,504.011C487.336,524.703 455,497.153 460.288,484.402C461.81,480.734 468.687,479.94 471.241,484.645C471.309,484.771 476.169,499.658 491.49,499.018C495.042,498.87 505.412,496.14 505.702,487.507C505.941,480.402 507.767,478.741 501.435,475.631C483.316,466.729 486.306,452.379 495.582,449.758C504.435,447.256 510.708,446.077 521.448,447.913Z" style="fill:rgb(46,50,59);"/>
                    </g>
                    <g transform="matrix(1.25,0,0,1.25,3986.657045,-89.198119)">
                        <path d="M397.515,533.503C402.466,536.673 415.546,549.032 448.465,559.608C501.627,576.687 563.48,568.127 598.366,551.221C604.952,548.03 609.993,545.954 626.729,534.46C625.879,541.891 625.945,546.457 613.829,554.945C568.995,586.352 470.967,592.519 413.791,557.047C395.484,545.688 397.761,538.609 397.515,533.503Z" style="fill:white;"/>
                    </g>
                    <g transform="matrix(1.25,0,0,1.25,3986.657045,-89.198119)">
                        <path d="M397.515,533.503C397.69,527.949 397.697,527.985 397.705,527.505C397.889,516.475 402.18,532.447 441.384,546.823C448.873,549.569 490.604,564.871 540.511,557.569C595.101,549.58 621.628,526.141 624.472,524.442C627.367,522.712 626.614,529.637 626.729,534.46C609.993,545.954 604.952,548.03 598.366,551.221C563.48,568.127 501.627,576.687 448.465,559.608C415.546,549.032 402.466,536.673 397.515,533.503Z" style="fill:rgb(124,218,243);"/>
                    </g>
                    <g transform="matrix(1.25,0,0,1.25,3986.657045,-89.198119)">
                        <path d="M617.538,310.746C607.791,310.897 612.489,298.669 577.307,279.911C577.228,279.869 567.772,277.678 566.876,272.471C566.701,271.454 568.411,262.954 577.358,267.757C581.211,269.825 607.57,283.975 620.151,301.764C621.038,303.018 624.804,308.673 617.538,310.746Z" style="fill:rgb(124,218,243);"/>
                    </g>
                    <g transform="matrix(0,-0.929335,1.253466,0,3953.042113,4724.760203)">
                        <path d="M4483.467,526.524C4481.617,529.131 4480.115,533.241 4480.115,537.698C4480.115,542.156 4481.617,546.265 4483.467,548.872C4477.3,548.872 4472.293,543.865 4472.293,537.698C4472.293,531.531 4477.3,526.524 4483.467,526.524Z" style="fill:rgb(247,222,198);"/>
                    </g>
                    <g transform="matrix(1.25,0,0,1.25,4674.510878,-105.127143)">
                        <g transform="matrix(0.8,0,0,0.8,-3567.527759,100.936054)">
                            <circle cx="4479.371" cy="434.126" r="20.026" style="fill:rgb(47,51,58);stroke:black;stroke-width:0.24px;"/>
                        </g>
                        <g transform="matrix(0.8,0,0,0.8,-3675.437477,100.936054)">
                            <circle cx="4479.371" cy="434.126" r="20.026" style="fill:rgb(47,51,58);stroke:black;stroke-width:0.24px;"/>
                        </g>
                    </g>
                </g>
                <g transform="matrix(1.25,0,0,1.25,3986.657045,-89.198119)">
                    <path d="M684.817,678.362C695.953,714.77 654.851,729.33 653.523,729.027C651.466,728.557 656.052,722.841 657.171,720.346C662.821,707.75 663.388,707.958 666.103,694.439C666.421,692.858 680.321,673.691 683.542,676.448C683.681,676.568 683.636,676.59 684.817,678.362Z" style="fill:rgb(231,207,182);"/>
                </g>
            </g>
        </g>
    </g>
</svg>
