<?xml version="1.0" encoding="UTF-8" standalone="no"?>
<!DOCTYPE svg PUBLIC "-//W3C//DTD SVG 1.1//EN" "http://www.w3.org/Graphics/SVG/1.1/DTD/svg11.dtd">
<svg width="100%" height="100%" viewBox="0 0 478 479" version="1.1" xmlns="http://www.w3.org/2000/svg" xmlns:xlink="http://www.w3.org/1999/xlink" xml:space="preserve" xmlns:serif="http://www.serif.com/" style="fill-rule:evenodd;clip-rule:evenodd;stroke-linejoin:round;stroke-miterlimit:2;">
    <g transform="matrix(1,0,0,1,-8440.421354,-2240.407154)">
        <g transform="matrix(2.211214,0,0,1.482332,-200.62803,92.293922)">
            <g transform="matrix(0.107587,0,0,0.160489,4015.865508,1610.635898)">
                <g transform="matrix(1,0,0,1,-1004.166667,-1006.25)">
                    <clipPath id="_clip1">
                        <rect x="0" y="0" width="2008.333" height="2012.5"/>
                    </clipPath>
                    <g clip-path="url(#_clip1)">
                        <g transform="matrix(4.166667,0,0,4.166667,0,0)">
                            <ellipse cx="240.674" cy="241.355" rx="240.674" ry="241.355" style="fill:rgb(166,216,240);"/>
                            <g id="Fondo">
                                <path d="M458.198,137.788C468.968,164.219 469.654,163.924 476.627,193.079C472.061,191.284 412.908,191.9 263.404,233.592C104.063,278.027 45.563,265.002 0.776,262.793C0.504,258.293 -1.624,223.082 2.598,206.469C164.24,231.153 308.463,150.866 455.894,138.256C457.157,138.148 456.917,138.049 458.198,137.789L458.198,137.788Z" style="fill:rgb(123,196,232);"/>
                                <path d="M481.347,249.054C480.429,265.292 481.072,265.196 476.365,291.36C413.289,297.274 412.538,293.251 291.935,323.422C245.281,335.094 134.521,370.416 46.402,363.939C35.963,363.172 33.632,364.391 33.632,364.391C31.7,360.924 14.887,330.754 13.355,319.11C116.035,329.04 178.898,313.602 310.005,277.059C387.632,255.422 469.418,244.924 481.347,249.054Z" style="fill:rgb(87,165,205);"/>
                                <path d="M434.754,98.756C447.678,117.554 447.759,117.291 458.198,137.788C456.917,138.048 457.157,138.147 455.894,138.255C308.464,150.865 164.241,231.151 2.598,206.468C4.997,190.304 5.722,183.121 14.371,159.045C205.078,184.144 337.83,110.376 431.464,99.452C433.191,99.251 432.987,99.13 434.753,98.756L434.754,98.756Z" style="fill:rgb(93,171,210);"/>
                                <path d="M367.898,36.555C388.831,51.01 388.881,50.634 407.445,67.753L406.159,68.591C299.437,92.466 128.786,151.725 26.918,131.197C35.099,114.301 41.04,106.165 53.458,90.126C67.852,96.1 137.646,97.467 228.286,76.135C268.386,66.697 367.249,36.944 367.898,36.555Z" style="fill:rgb(91,169,209);"/>
                                <path d="M407.445,67.753C422.015,82.546 421.802,82.582 434.754,98.755C432.988,99.129 433.192,99.25 431.465,99.451C337.831,110.375 205.079,184.143 14.372,159.044C20.088,144.659 19.966,144.84 26.918,131.197C128.787,151.725 299.437,92.465 406.159,68.591L407.445,67.753Z" style="fill:rgb(124,196,233);"/>
                                <path d="M460.052,341.075C447.615,365.296 447.982,365.294 435.075,382.788C398.882,370.157 197.81,428.037 110.941,433.635C104.901,434.024 99.261,435.33 99.261,435.33C85.905,428.083 72.855,413.972 64.967,405.895C65.632,405.822 65.752,404.581 66.416,404.508C69.592,404.158 72.805,404.664 76,404.678C180.677,405.132 316.507,343.533 459.069,340.619L460.052,341.073L460.052,341.075Z" style="fill:rgb(112,188,226);"/>
                                <path d="M471.197,310.741C466.071,326.111 466.189,326.062 460.096,340.968C460.082,341.003 460.067,341.039 460.052,341.075L458.995,341.066C316.433,343.979 180.677,405.133 76,404.68C72.805,404.666 65.632,405.824 64.967,405.897C54.438,393.521 54.062,394.085 45.076,380.58C65.588,373.908 76.881,396.963 261.257,348.853C404.87,311.38 454.128,310.906 471.197,310.741Z" style="fill:rgb(83,163,202);"/>
                                <path d="M410.5,412.071C294.438,519.485 182.326,476.652 141.376,460.971C177.483,446.302 344.645,406.716 410.5,412.071Z" style="fill:rgb(106,184,223);"/>
                                <path d="M435.075,382.788C428.622,394.179 411.531,410.983 410.5,412.071C344.645,406.715 177.483,446.302 141.376,460.971C137.833,459.238 107.465,444.388 99.261,435.331C99.261,435.331 104.9,434.025 110.941,433.636C197.81,428.037 398.882,370.158 435.075,382.789L435.075,382.788Z" style="fill:rgb(77,158,198);"/>
                                <path d="M476.365,291.36C472.538,306.493 472.788,306.389 471.196,310.742C454.127,310.906 404.869,311.381 261.256,348.854C76.879,396.963 65.586,373.908 45.075,380.581C39.754,375.021 40.425,374.735 33.632,364.392C33.632,364.392 35.963,363.172 46.402,363.94C134.521,370.418 245.281,335.095 291.935,323.423C412.538,293.251 413.289,297.275 476.365,291.361L476.365,291.36Z" style="fill:rgb(116,191,228);"/>
                                <path d="M342.631,22.644C355.508,29.658 355.398,29.348 367.898,36.555C367.249,36.944 268.386,66.698 228.286,76.135C137.645,97.468 67.852,96.1 53.458,90.126C63.477,78.724 63.344,78.826 73.728,67.935C73.728,67.935 76.785,71.4 122.563,70.696C210.502,69.345 338.902,26.056 342.631,22.643L342.631,22.644Z" style="fill:rgb(120,193,230);"/>
                            </g>
                        </g>
                    </g>
                </g>
            </g>
        </g>
    </g>
</svg>
