<?xml version="1.0" encoding="UTF-8" standalone="no"?>
<!DOCTYPE svg PUBLIC "-//W3C//DTD SVG 1.1//EN" "http://www.w3.org/Graphics/SVG/1.1/DTD/svg11.dtd">
<svg width="100%" height="100%" viewBox="0 0 481 479" version="1.1" xmlns="http://www.w3.org/2000/svg" xmlns:xlink="http://www.w3.org/1999/xlink" xml:space="preserve" xmlns:serif="http://www.serif.com/" style="fill-rule:evenodd;clip-rule:evenodd;stroke-linejoin:round;stroke-miterlimit:2;">
    <g transform="matrix(1,0,0,1,-7828.45927,-2240.407154)">
        <g transform="matrix(2.211214,0,0,1.482332,-200.62803,92.293922)">
            <g transform="matrix(0.10605,0,0,0.158196,3739.777637,1610.635898)">
                <g transform="matrix(1,0,0,1,-1025,-1020.833333)">
                    <g transform="matrix(4.166667,0,0,4.166667,0,0)">
                        <g>
                            <g id="Fondo">
                                <ellipse cx="245.604" cy="244.623" rx="245.604" ry="244.623" style="fill:rgb(70,186,70);"/>
                                <path d="M491.179,242.897C491.179,242.897 491.398,251.676 490.615,261.658C490.213,266.781 489.161,276.321 487.8,284.287C485.124,284.091 485.175,284.456 482.571,283.999C446.605,280.084 421.778,286.647 387.234,290.343C385.007,290.581 385.06,290.765 359.546,294.469C346.394,296.378 314.562,302.556 301.542,311.548C274.302,330.362 288.266,364.481 363.876,355.962C387.963,353.248 439.857,348.735 444.655,349.929C452.969,351.997 459.841,353.303 463.613,357.049C462.317,359.369 457.578,368.629 450.032,379.729C449.219,379.486 446.827,379.268 445.396,378.978C434.88,376.846 394.358,377.926 389.412,378.283C382.785,378.761 349.677,383.291 348.662,383.467C316.362,389.056 295.65,393.316 248.244,405.985C208.697,416.554 164.043,433.598 155.988,436.135C155.257,434.94 155.25,434.954 155.199,434.844C154.353,433.055 148.264,420.181 143.271,413.165C132.007,397.337 120.099,379.235 98.328,372.195C74.355,364.444 43.628,377.21 39.759,377.595C28.553,360.878 20.687,342.514 20.632,342.392C22.442,340.717 22.577,340.995 22.591,340.992L223.476,279.241C289.425,256.094 350.614,233.467 417.766,233.267C425.019,233.245 425.318,237.423 426.783,239.72C430.065,244.865 458.762,246.252 478.192,242.907C479.079,242.754 491.181,242.896 491.181,242.896L491.179,242.897Z" style="fill:rgb(99,209,81);"/>
                                <path d="M39.759,377.596C43.627,377.212 74.355,364.445 98.328,372.196C120.099,379.235 132.007,397.338 143.271,413.166C148.264,420.182 154.353,433.055 155.199,434.845C155.251,434.954 155.257,434.941 155.988,436.136C164.043,433.599 208.697,416.555 248.244,405.986C295.65,393.316 316.362,389.056 348.662,383.468C349.678,383.292 382.785,378.762 389.412,378.284C394.358,377.927 434.881,376.847 445.396,378.979C446.826,379.269 449.219,379.487 450.032,379.73C438.037,396.897 432.714,404.663 410.551,425.525C372.39,461.446 324.164,478.135 300.652,483.207C187.177,507.69 89.815,454.784 39.758,377.596L39.759,377.596Z" style="fill:rgb(37,155,58);"/>
                                <path d="M487.918,204.172C491.849,229.552 491.179,242.897 491.179,242.897C491.179,242.897 479.077,242.755 478.19,242.908C458.76,246.253 430.063,244.866 426.781,239.721C425.316,237.424 425.017,233.247 417.764,233.268C350.612,233.468 289.423,256.094 223.474,279.242C129.419,312.254 22.44,340.718 20.63,342.393C15.334,329.503 15.366,329.56 10.793,316.349C10.944,315.98 20.836,309.435 21.778,308.856C30.264,303.644 30.497,304.176 31.206,303.69C36.017,300.393 39.85,301.109 42.902,300.083C49.116,297.993 49.181,298.394 61.195,296.032C91.29,290.113 100.402,281.991 103.09,279.596C107.76,275.433 112.291,268.461 113.029,265.395C113.228,264.57 113.892,258.097 113.882,258.077C113.102,256.514 89.871,266.2 53.88,269.64C27.508,272.16 16.809,275.887 14.612,276.347C5.67,278.217 5.888,279.022 5.099,279.08C4.774,279.104 4.645,279.114 2.148,276.279C-0.946,252.216 0.316,232.874 0.412,230.407C0.52,230.805 50.735,231.53 57.531,231.374C95.137,230.507 106.219,243.171 109.112,246.52C114.189,252.397 112.745,256.665 114.197,256.899C115.064,257.039 130.822,251.628 140.572,248.117C150.665,244.483 181.901,233.561 185.497,232.303C187.824,231.489 213.925,222.363 214.57,222.099C225.552,217.62 261.036,207.663 262.913,206.447L263.509,206.407C264.59,207.378 273.871,216.186 292.579,218.123C308.558,219.777 363.161,208.757 383.567,206.554C406.984,204.026 406.965,204.129 408.994,203.876C433.074,200.872 485.443,201.888 485.443,201.888L487.915,204.175L487.918,204.172Z" style="fill:rgb(48,170,62);"/>
                                <path d="M482.57,284L487.799,284.288C486.821,290.344 481.337,324.28 463.613,357.05C459.841,353.304 387.964,353.249 363.876,355.963C288.266,364.482 274.302,330.363 301.542,311.549C314.562,302.557 346.393,296.379 359.546,294.47C385.059,290.767 385.007,290.583 387.234,290.344C421.778,286.648 446.605,280.085 482.571,284L482.57,284Z" style="fill:rgb(45,162,60);"/>
                                <path d="M423.718,76.734C455.737,108.35 472.86,151.946 475.711,159.206C421.542,160.629 374.718,177.988 313.036,192.795C291.409,197.987 264.151,206.093 263.511,206.405L262.915,206.445C254.555,198 255.138,191.794 255.271,190.377C256.721,174.932 275.708,167.523 281.104,165.278C298.783,157.924 357.642,152.721 379.203,146.78C381.642,146.108 401.641,140.597 402.027,124.897C402.225,116.842 402.539,116.862 402.472,116.166C402.295,114.327 401.195,102.911 408.65,93.908C416.237,84.745 423.404,77.057 423.717,76.736L423.718,76.734Z" style="fill:rgb(47,169,61);"/>
                                <path d="M475.711,159.206C483.591,181.226 483.124,181.334 487.917,204.173C487.917,204.173 433.076,200.87 408.997,203.874C406.967,204.127 406.987,204.024 383.57,206.552C363.164,208.755 308.561,219.775 292.582,218.121C273.874,216.184 264.592,207.376 263.512,206.405C264.152,206.093 291.409,197.986 313.037,192.795C374.719,177.988 421.543,160.629 475.712,159.206L475.711,159.206Z" style="fill:rgb(22,143,53);"/>
                                <path d="M2.149,276.276C4.646,279.111 5.671,278.214 14.613,276.345C16.81,275.886 27.509,272.159 53.881,269.638C89.872,266.198 113.103,256.513 113.883,258.075C113.893,258.095 113.228,264.567 113.03,265.393C112.293,268.459 107.762,275.432 103.091,279.594C100.403,281.99 91.291,290.112 61.196,296.03C49.182,298.393 49.116,297.992 42.903,300.081C39.852,301.107 30.265,303.642 21.779,308.854C20.837,309.433 10.944,315.978 10.794,316.347C10.73,316.102 10.667,315.86 10.605,315.622C6.399,299.521 5.636,299.353 2.149,276.274L2.149,276.276Z" style="fill:rgb(23,143,54);"/>
                                <path d="M184.267,383.244C184.268,370.51 227.702,362.183 240.143,359.745C244.849,358.823 250.404,362.583 250.757,367.278C252.035,384.309 234.879,377.045 200.828,391.038C184.885,397.589 184.266,383.661 184.266,383.244L184.267,383.244Z" style="fill:rgb(132,223,104);"/>
                                <path d="M382.512,41.753C278.837,-29.387 169.468,12.04 169.468,12.04C39.873,54.691 10.818,173.192 10.818,173.192C10.818,173.192 271.467,151.702 382.512,41.753Z" style="fill:rgb(22,143,53);"/>
                                <path d="M56.69,167.799C44.614,192.172 48.225,196.114 37.888,199.169C30.011,201.497 20.171,193.61 23.294,183.836C42.746,122.952 88.848,85.829 97.516,84.664C109.971,82.991 118.551,97.146 104.569,107.839C96.752,113.817 83.136,127.061 73.938,139.937C67.559,148.867 66.85,148.416 56.69,167.799Z" style="fill:rgb(208,244,182);"/>
                                <path d="M191.117,180.823C186.312,187.098 112.682,210.752 92.461,208.23C89.443,207.854 85.285,200.565 93.199,194.779C98.93,190.589 187.418,164.176 191.693,175.775C192.426,177.764 192.241,179.355 191.117,180.822L191.117,180.823Z" style="fill:rgb(129,225,102);"/>
                            </g>
                        </g>
                    </g>
                </g>
            </g>
        </g>
    </g>
</svg>
