<?xml version="1.0" encoding="UTF-8" standalone="no"?>
<!DOCTYPE svg PUBLIC "-//W3C//DTD SVG 1.1//EN" "http://www.w3.org/Graphics/SVG/1.1/DTD/svg11.dtd">
<svg width="100%" height="100%" viewBox="0 0 497 506" version="1.1" xmlns="http://www.w3.org/2000/svg" xmlns:xlink="http://www.w3.org/1999/xlink" xml:space="preserve" xmlns:serif="http://www.serif.com/" style="fill-rule:evenodd;clip-rule:evenodd;stroke-linejoin:round;stroke-miterlimit:2;">
    <g transform="matrix(1,0,0,1,-9045.412505,-2226.905362)">
        <g transform="matrix(2.211214,0,0,1.482332,-200.62803,92.293922)">
            <g transform="matrix(0.098555,0,0,0.147016,4293.743811,1610.635898)">
                <g transform="matrix(1,0,0,1,-1139.583333,-1160.416667)">
                    <clipPath id="_clip1">
                        <rect x="0" y="0" width="2279.167" height="2320.833"/>
                    </clipPath>
                    <g clip-path="url(#_clip1)">
                        <g id="Fondo" transform="matrix(4.166667,0,0,4.166667,0,0)">
                            <path d="M228.565,3.943C231.302,3.488 304.377,-12.697 385.374,23.991C537.501,92.895 584.553,273.949 516.515,401.522C412.883,595.834 186.22,598.429 70.92,461.128C-81.739,279.338 31.122,36.516 228.565,3.943Z" style="fill:rgb(21,16,66);"/>
                            <path d="M313.591,90.807C312.078,92.378 312.962,94.741 307.695,93.656C302.481,92.582 291.354,93.936 284.751,91.422C272.777,86.864 272.72,85.797 260.021,87.702C247.887,89.523 248.863,92.642 234.214,96.334C214.891,101.203 201.446,99.695 149.736,131.717C127.617,145.415 130.863,150.211 117.917,155.36C105.151,160.438 98.328,160.138 50.929,192.196C20.045,213.084 18.995,217.722 18.826,214.595C18.683,211.968 33.432,161.08 55.994,129.074C157.666,-15.152 321.593,-6.97 415.082,54.376C541.357,137.236 554.085,284.573 517.25,369.86C514.23,376.852 497.158,375.549 463.323,412.464C456.824,419.554 438.249,443.839 436.128,446.613C431.053,453.248 435.474,453.455 435.927,453.187C442.16,449.497 464.67,411.022 489.041,394.474C509.275,380.735 516.541,373.262 512.856,381.076C496.109,416.587 449.654,501.565 326.775,529.217C295.714,536.207 239.672,534.195 239.225,531.262C238.408,525.898 265.595,507.2 236.974,499.282C230.809,497.577 194.298,492.433 191.785,514.677C191.254,519.375 192.031,522.205 187.664,520.391C157.996,508.066 46.188,467.101 16.707,323.835C15.735,319.112 21.383,320.429 44.582,306.076C117.975,260.666 159.939,192.949 276.384,145.043C291.123,138.979 339.67,125.711 355.289,131.963C376.489,140.448 376.978,168.398 410.575,142.965C437.59,122.516 458.235,140.626 474.719,154.084C515.479,190.345 508.897,196.065 516.737,203.335C518.026,204.53 521.632,203.728 519.241,199.594C493.111,154.418 453.353,131.198 442.748,130.393C404.434,127.485 409.305,150.363 386.928,148.612C367.999,147.131 375.252,122.352 333.791,126.601C227.044,137.54 126.729,236.945 91.762,265.882C48.583,301.615 17.297,318.482 15.525,314.437C11.245,304.67 10.086,229.331 19.024,221.896C92.022,161.171 114.603,167.03 132.708,149.966C137.929,145.045 178.339,112.7 221.751,103.715C255.217,96.788 255.22,85.447 283.373,95.516C296.829,100.329 304.292,93.018 310.687,101.272C310.819,101.442 326.034,116.136 330.995,113.861C347.783,106.161 349.318,103.115 350.138,101.486C353.706,94.401 355.951,95.979 374.578,96.281C380.9,96.383 380.591,98.261 386.876,98.364C407.454,98.699 410.273,95.355 423.147,111.465C423.745,112.213 434.456,125.617 433.31,117.794C433.198,117.028 418.534,97.427 412.884,95.657C403.878,92.835 383.683,96.936 379.22,91.39C378.679,90.717 378.87,90.677 372.651,82.827C369.345,78.653 367.721,78.872 341.857,79.194C321.191,79.451 321.141,81.683 313.587,90.809L313.591,90.807Z" style="fill:rgb(170,89,228);"/>
                            <path d="M424.928,243.223C419.711,254.544 419.585,254.785 409.127,261.668C398.581,268.61 399.99,288.83 385.522,288.18C381.104,286.771 381.156,286.927 377.111,284.575C363.893,276.888 362.146,286.539 347.05,294.571C341.244,297.66 339.435,297.288 338.452,308.852C336.868,322.691 336.888,322.603 336.742,323.798C335.37,334.983 317.618,330.487 293.927,338.134C261.311,348.662 263.492,332.344 262.319,331.03C259.633,328.021 231.36,330.482 228.679,330.715C225.052,331.031 224.61,331.393 199.679,365.78C187.261,382.908 184.085,360.524 179.906,349.434C176.548,340.522 154.591,379.699 143.483,356.781C141.146,351.96 135.72,360.411 110.298,373.42C99.253,379.072 98.398,374.352 95.87,366.292C94.069,360.548 85.807,376.822 82.662,372.898C80.328,369.986 123.812,322.981 140.338,309.215C143.796,306.335 146.129,310.27 143.634,312.357C127.778,325.616 103.71,352.364 101.037,355.547C97.965,359.205 98.331,359.746 100.903,368.601C102.652,374.621 109.054,369.204 111.593,367.775C125.522,359.935 125.101,359.425 138.934,351.466C146.326,347.213 146.301,352.358 148.103,356.524C152.187,365.966 169.886,348.286 175.797,343.251C184.514,335.826 187.243,366.138 191.939,366.909C194.571,367.341 218.705,332.363 221.851,329.206C227.139,323.898 264.53,324.802 265.73,327.695C268.674,334.79 268.173,339.686 283.283,336.312C303.007,331.908 302.771,331.167 322.827,328.148C335.692,326.212 332.729,320.532 334.496,304.585C335.88,292.093 341.359,294.502 356.404,283.529C369.336,274.098 370.87,277.373 382.708,282.974C391.582,287.173 398.319,268.135 398.938,266.385C402.735,255.654 412.314,261.986 420.521,243.107C427.646,226.718 429.982,228.34 442.315,215.54C454.427,202.969 435.03,211.561 432.498,208.622C428.853,204.39 444.642,203.788 449.306,205.749C461.362,210.819 436.095,219.884 424.928,243.224L424.928,243.223Z" style="fill:rgb(39,11,87);"/>
                            <path d="M314.422,242.625C261.653,259.311 256.169,268.793 236.599,246.238C230.026,238.662 228.06,241.457 212.157,245.532C158.102,259.384 91.691,329.889 69.939,360.191C69.454,360.866 61.612,371.791 61.31,365.983C61.027,360.54 143.738,255.661 217.815,239.474C230.269,236.753 232.386,234.047 240.223,244.091C259.795,269.174 267.125,247.182 346.001,229.9C350.941,228.818 352.619,229.247 352.287,224.215C351.179,207.384 414.711,199.725 401.81,217.316C397.929,222.608 375.382,231.656 363.684,231.563C359.645,231.531 350.227,231.456 314.419,242.626L314.422,242.625Z" style="fill:rgb(39,11,88);"/>
                            <path d="M115.228,133.934C79.371,165.24 69.439,161.686 51.392,171.045C37.67,178.162 58.754,141.622 59.162,151.919C59.285,155.019 48.36,167.688 56.831,164.219C70.09,158.789 70.884,158.023 69.852,156.302C67.67,152.663 50.881,124.669 95.002,109.606C115.904,102.47 122.745,122.377 116.373,132.443C116.038,132.972 115.563,133.405 115.228,133.934Z" style="fill:rgb(37,12,86);"/>
                            <path d="M405.009,320.837C396.41,292.733 428.344,277.433 438.238,294.043C452.695,318.314 419.732,347.096 405.009,320.837Z" style="fill:rgb(36,11,84);"/>
                            <path d="M101.868,439.277C90.945,438.024 78.94,438.194 72.542,429.25C52.509,401.249 49.388,402.962 49.604,399.996C49.989,394.708 61.522,408.011 62.035,408.546C77.316,424.473 73.206,432.012 94.991,434.364C106.82,435.641 108.542,436.338 110.467,430.264C114.93,416.187 129.569,418.585 134.158,422.44C151.672,437.151 126.205,460.488 112.961,443.602C109.016,438.572 108.166,439.882 101.869,439.278L101.868,439.277Z" style="fill:rgb(41,11,90);"/>
                            <path d="M217.642,528.901C217.128,528.783 212.228,527.664 211.506,526.483C211.448,526.387 210.291,521.49 209.724,521.261C205.709,519.641 208.378,526.516 204.095,525.906C194.906,524.597 195.882,521.17 195.938,517.414C196.293,493.251 247.425,500.877 246.016,511.876C245.817,513.431 234.689,529.575 234.155,529.791C230.039,531.457 230.888,515.12 228.672,513.314C223.471,509.075 228.168,528.146 227.036,529.335C226.23,530.182 218.386,529.012 217.642,528.9L217.642,528.901Z" style="fill:rgb(130,70,193);"/>
                            <path d="M334.986,106.789C329.394,109.772 328.722,109.992 323.63,106.161C317.084,101.236 311.403,100.435 317.845,92.272C325.542,82.518 327.877,83.536 359.597,83.301C367.335,83.244 367.496,83.809 372.75,89.537C375.319,92.337 372.234,92.319 372.003,92.318C356.679,92.229 352.119,88.813 346.775,98.416C345.398,100.891 335.993,106.218 334.986,106.788L334.986,106.789Z" style="fill:rgb(148,81,209);"/>
                            <path d="M426.479,291.721C447.464,295.088 435.68,334.928 414.182,325.046C403.556,320.162 404.275,293.338 426.479,291.721Z" style="fill:rgb(133,72,195);"/>
                            <path d="M193.006,60.421C199.334,50.469 204.672,47.611 217.732,48.597C234.489,49.862 231.953,59.932 231.831,60.627C230.215,69.872 188.634,79.485 193.006,60.421Z" style="fill:rgb(43,13,86);"/>
                            <path d="M303.892,36.364C305.809,35.337 317.629,29.006 329.546,27.395C349.263,24.73 341.878,42.641 340.693,44.305C337.453,48.855 281.376,51.08 303.892,36.364Z" style="fill:rgb(41,10,90);"/>
                            <path d="M350.157,480.362C360.797,483.355 361.259,480.919 364.105,475.39C368.534,466.784 370.027,483.687 360.822,485.525C360.82,485.525 328.206,488.216 345.231,466.088C345.65,465.543 353.766,454.995 346.006,457.527C325.461,464.229 334.347,478.259 313.309,483.669C303.679,486.146 303.216,485.558 296.437,492.39C293.586,495.263 290.89,490.59 296.087,486.675C309.58,476.512 317.306,482.115 324.843,470.669C331.107,461.155 330.528,460.261 340.722,455.127C341.692,454.638 353.714,448.584 353.8,458.765C353.845,464.088 347.138,470.017 345.095,474.028C343.107,477.931 349.436,479.972 350.156,480.363L350.157,480.362Z" style="fill:rgb(42,11,93);"/>
                            <path d="M235.653,432.096C241.611,430.428 241.483,430.033 247.735,429.669C262.05,428.836 261.85,442.652 245.172,449.535C232.093,454.933 210.154,442.771 235.653,432.095L235.653,432.096Z" style="fill:rgb(40,12,90);"/>
                            <path d="M385.523,288.181L385.769,289.648C384.804,290.798 385.305,291.131 383.882,291.897C376.239,296.01 376.573,297.056 355.467,300.39C349.471,301.337 348.615,304.052 344.418,305.582C339.963,307.206 338.8,308.585 338.453,308.852C339.436,297.287 341.245,297.66 347.051,294.571C362.147,286.539 363.894,276.888 377.112,284.575C381.157,286.927 381.105,286.771 385.523,288.18L385.523,288.181Z" style="fill:rgb(148,77,207);"/>
                            <path d="M113.517,120.478C109.56,122.036 98.769,116.453 85.771,129.036C73.761,140.663 76.71,149.741 77.207,153.254C78.831,164.74 54.617,136.061 84.265,119.45C108.371,105.944 110.216,114.567 113.516,120.478L113.517,120.478Z" style="fill:rgb(129,74,191);"/>
                            <path d="M111.242,125.2C117.761,128.204 111.854,131.974 87.771,149.931C72.132,161.592 81.518,125.492 104.575,124.996C109.131,124.898 108.975,125.13 111.241,125.2L111.242,125.2Z" style="fill:rgb(130,72,192);"/>
                            <path d="M471.331,259.479C449.519,268.816 449.927,232.844 470.108,239.077C470.932,239.332 475.641,240.786 477.041,247.338C478.343,253.427 472.143,258.778 471.33,259.479L471.331,259.479Z" style="fill:rgb(36,12,85);"/>
                            <path d="M118.051,425.867C126.708,420.469 135.881,425.204 135.619,435.565C135.173,453.19 101.891,442.565 118.051,425.867Z" style="fill:rgb(129,71,193);"/>
                            <path d="M389.587,220.014L384.575,222C379.571,223.903 379.695,223.821 374.59,225.515C359.059,230.667 353.665,224.179 358.646,220.567C375.764,208.153 414.392,208.333 389.587,220.014Z" style="fill:rgb(143,75,200);"/>
                            <path d="M208.095,53.21C209.636,53.055 223.397,51.67 227.173,56.516C228.472,58.183 230.82,65.771 202.734,66.552C193.116,66.819 195.817,56.839 208.095,53.21Z" style="fill:rgb(137,75,198);"/>
                            <path d="M219.838,458.216C221.583,456.23 221.113,455.447 223.255,455.416C228.483,455.339 220.832,463.527 220.334,464.061C214.774,470.011 212.786,466.991 206.714,472.257C203.966,474.641 192.174,475.785 188.612,469.99C183.653,461.922 197.274,456.73 205.214,463.174C210.397,467.38 212.974,466.025 219.837,458.217L219.838,458.216Z" style="fill:rgb(40,11,88);"/>
                            <path d="M314.647,36.13C314.85,36.068 320.025,33.984 326.956,32.352C336.299,30.153 340.621,30.883 338.093,40.193C336.83,44.845 304.245,42.757 304.017,42.495C302.117,40.31 314.365,36.251 314.647,36.129L314.647,36.13Z" style="fill:rgb(132,77,191);"/>
                            <path d="M340.499,425.639C339.797,425.658 328.838,425.955 332.477,422.082C334.311,420.13 353.906,424.769 373.296,408.374C373.755,407.986 380.813,402.018 380.67,406.93C380.602,409.271 370.828,415.453 368.233,417.125C356.073,424.962 343.995,425.335 340.499,425.639Z" style="fill:rgb(46,7,89);"/>
                            <path d="M402.237,449.256C396.137,467.411 377.356,451.83 388.454,442.685C389.679,441.675 393.975,440.363 397.93,442.114C401.413,443.656 402.14,448.596 402.237,449.256Z" style="fill:rgb(43,12,90);"/>
                            <path d="M238.223,446.755C222.016,445.825 232.172,437.878 235.41,436.739C251.757,430.987 255.819,435.028 252.543,439.287C248.057,445.119 239.497,446.543 238.223,446.755Z" style="fill:rgb(127,70,189);"/>
                            <path d="M434.633,369.937C433.687,369.738 429.371,369.352 428.321,367.227C425.667,361.853 440.192,368.722 449.21,364.038C458.283,359.325 457.458,358.146 460.392,348.232C460.984,346.233 464.554,345.458 464.283,349.643C462.861,371.599 437.502,370.107 434.632,369.938L434.633,369.937Z" style="fill:rgb(39,11,89);"/>
                            <path d="M313.269,510.081C339.402,511.328 339.058,505.428 347.248,506.767C353.73,507.827 341.181,517.22 309.253,514.092C308.865,514.054 304.748,513.651 305.603,510.866C306.047,509.42 312.655,510.025 313.269,510.081Z" style="fill:rgb(47,6,94);"/>
                            <path d="M20.862,270.575C20.774,254.889 20.566,254.945 21.017,252.676C21.27,251.401 24.936,249.164 24.923,255.58C24.859,289.468 28.013,289.701 26.486,292.205C22.015,299.536 20.993,272.073 20.861,270.575L20.862,270.575Z" style="fill:rgb(46,13,93);"/>
                            <path d="M148.291,72.791C145.724,88.2 125.13,81.582 135.023,71.898C146,61.153 148.086,71.747 148.291,72.791Z" style="fill:rgb(40,11,90);"/>
                            <path d="M509.515,297.325C499.092,299.972 489.583,304.864 491.71,299.087C492.54,296.832 529.462,287 530.2,289.553C531.33,293.461 525.163,293.681 509.514,297.324L509.515,297.325Z" style="fill:rgb(43,10,94);"/>
                            <path d="M395.186,321.127C382.148,334.802 378.257,321.495 381.887,317.291C386.699,311.716 400.582,310.972 395.186,321.127Z" style="fill:rgb(38,10,85);"/>
                            <path d="M458.164,320.257C451.54,324.375 453.569,318.662 453.813,318.372C459.317,311.838 495.681,295.747 486.359,305.956C485.454,306.948 473.537,309.899 458.164,320.257Z" style="fill:rgb(42,9,96);"/>
                            <path d="M338.632,169.661C338.749,168.654 339.929,158.528 348.572,161.793C361.49,166.672 342.445,185.35 338.632,169.661Z" style="fill:rgb(37,9,88);"/>
                            <path d="M279.087,19.889C279.554,19.985 290.066,22.141 282.951,24.42C280.478,25.212 280.421,22.547 250.493,24.891C247.55,25.122 246.559,21.297 250.347,20.529C257.739,19.03 276.789,19.797 279.087,19.889Z" style="fill:rgb(37,11,87);"/>
                            <path d="M467.256,256.506C450.745,257.563 462.531,235.377 471.322,244.751C477.842,251.703 468.162,256.095 467.256,256.506Z" style="fill:rgb(124,71,188);"/>
                            <path d="M336.433,245.947C351.056,256.016 319.845,257.429 322.588,248.66C324.322,243.119 335.334,245.691 336.433,245.947Z" style="fill:rgb(38,13,90);"/>
                            <path d="M234.451,143.726C234.733,142.778 236.99,135.185 243.67,135.49C255.339,136.023 238.623,157.828 234.451,143.726Z" style="fill:rgb(34,12,84);"/>
                            <path d="M186.504,450.415C186.894,450.814 190.904,454.921 187.674,457.294C185.086,459.195 183.975,453.234 180.951,451.905C180.419,451.671 169.276,446.775 176.713,445.998C178.424,445.819 178.319,446.24 186.504,450.415Z" style="fill:rgb(40,6,88);"/>
                            <path d="M429.881,299.294C430.008,310.276 419.855,305.43 421.868,299.065C423.923,292.565 429.456,298.814 429.881,299.294Z" style="fill:rgb(203,128,246);"/>
                            <path d="M437.574,417.709C437.431,417.098 435.987,410.922 441.429,410.884C447.995,410.838 446.706,425.054 437.574,417.709Z" style="fill:rgb(29,10,82);"/>
                            <path d="M275.508,494.334C270.585,503.813 263.013,491.132 269.626,488.918C275.033,487.108 275.466,493.696 275.508,494.334Z" style="fill:rgb(34,10,79);"/>
                            <path d="M365.038,443.748C368.016,441.409 368.783,441.293 369.165,441.235C376.566,440.114 365.784,448.519 365.334,449.387C363.47,452.988 361.451,454.176 360.276,450.277C359.731,448.469 364.554,444.177 365.037,443.748L365.038,443.748Z" style="fill:rgb(52,5,101);"/>
                            <path d="M401.91,487.427C394.869,494.154 390.55,482.529 397.702,481.371C402.753,480.553 401.982,486.842 401.91,487.427Z" style="fill:rgb(31,8,78);"/>
                            <path d="M149.084,465.747C149.186,461.165 149.12,459.577 153.628,460.263C161.172,461.411 153.499,473.885 149.084,465.747Z" style="fill:rgb(33,8,78);"/>
                            <path d="M389.533,447.826C395.392,440.816 400.53,448.614 395.274,452.391C388.933,456.948 389.494,448.412 389.533,447.826Z" style="fill:rgb(117,68,185);"/>
                            <path d="M420.005,402.817C420.157,402.244 421.767,396.194 426.313,398.93C431.116,401.821 424.313,411.998 420.005,402.817Z" style="fill:rgb(35,5,80);"/>
                            <path d="M405.45,77.019C405.835,72.472 406.044,70.695 410.311,72.134C416.585,74.25 410.101,85.179 405.45,77.019Z" style="fill:rgb(32,11,78);"/>
                            <path d="M200.087,465.408C206.943,468.246 200.332,469.663 200.023,469.674C189.353,470.067 192.83,464.978 193.479,464.761C194.671,464.362 194.643,464.622 200.087,465.408Z" style="fill:rgb(124,77,191);"/>
                            <path d="M452.75,100.015C453.81,96.252 453.981,95.044 457.664,96.279C462.417,97.873 457.335,108.188 452.75,100.015Z" style="fill:rgb(34,12,80);"/>
                            <path d="M37.226,261.108C37.807,257.297 38.043,256.078 41.728,257.139C46.674,258.563 41.314,269.303 37.226,261.108Z" style="fill:rgb(32,12,80);"/>
                            <path d="M163.017,97.332C162.784,97.798 159.299,104.75 156.631,98.594C155.741,96.54 159.429,88.031 163.017,97.332Z" style="fill:rgb(39,4,88);"/>
                            <path d="M258.11,203.574C257.777,203.953 253.211,209.158 251.802,203.741C251.227,201.531 256.144,194.219 258.11,203.574Z" style="fill:rgb(43,9,89);"/>
                            <path d="M346.032,171.573C342.037,170.402 340.943,168.801 344.259,166.314C346.243,164.826 352.863,168.149 346.032,171.573Z" style="fill:rgb(112,87,168);"/>
                            <path d="M141.45,77.051C135.28,78.746 137.632,74.919 137.889,74.693C144.065,69.281 143.89,74.742 143.527,75.293C143.407,75.475 143.373,75.423 141.451,77.051L141.45,77.051Z" style="fill:rgb(110,88,165);"/>
                            <path d="M388.063,322.005C379.23,324.404 387.212,316.275 390.631,317.55C391.016,317.694 392.647,318.615 388.063,322.005Z" style="fill:rgb(108,97,166);"/>
                            <path d="M263.094,62.108C257.312,65.882 258.309,57.378 261.36,58.181C263.741,58.807 262.943,59.556 263.094,62.108Z" style="fill:rgb(47,5,98);"/>
                            <path d="M98.96,98.422C92.806,98.574 96.362,93.261 99.225,94.398C101.924,95.469 99.188,98.195 98.96,98.422Z" style="fill:rgb(50,7,107);"/>
                            <path d="M513.061,349.549C507.501,354.795 508.616,348.792 508.708,348.445C509.636,344.92 511.656,346.102 513.061,349.549Z" style="fill:rgb(58,8,109);"/>
                            <path d="M331.066,250.965C322.352,248.33 333.425,248.17 334.516,249.086C336.812,251.015 333.959,250.351 331.066,250.965Z" style="fill:rgb(81,73,133);"/>
                            <path d="M240.509,140.434C244.05,138.508 243.655,140.733 243.61,140.981C243.191,143.343 237.084,144.821 240.509,140.434Z" style="fill:rgb(99,96,143);"/>
                        </g>
                    </g>
                </g>
            </g>
        </g>
    </g>
</svg>
