<?xml version="1.0" encoding="UTF-8" standalone="no"?>
<!DOCTYPE svg PUBLIC "-//W3C//DTD SVG 1.1//EN" "http://www.w3.org/Graphics/SVG/1.1/DTD/svg11.dtd">
<svg width="100%" height="100%" viewBox="0 0 593 379" version="1.1" xmlns="http://www.w3.org/2000/svg" xmlns:xlink="http://www.w3.org/1999/xlink" xml:space="preserve" xmlns:serif="http://www.serif.com/" style="fill-rule:evenodd;clip-rule:evenodd;stroke-linejoin:round;stroke-miterlimit:2;">
    <g transform="matrix(1,0,0,1,-7732.234802,-891.784493)">
        <g transform="matrix(2.211214,0,0,1.482332,-200.62803,92.293922)">
            <g id="Fondo" transform="matrix(0.38637,0,0,0.576354,3520.915859,369.148267)">
                <path d="M852.262,372.588C852.727,373.7 859.896,387.398 854.062,406.375C851.089,416.043 849.614,417.69 846.561,423.534C845.19,426.161 837.746,437.069 830.162,445.187C820.832,455.173 810.641,465.5 785.246,484.143C783.69,485.285 772.419,493.123 769.303,495.211C754.229,505.309 754.067,505.024 752.764,505.911C751.72,506.622 749.86,507.888 739.319,514.193C726.36,521.945 725.029,521.18 724.655,524.518C723.853,531.69 724.163,531.716 722.528,542.504C721.347,550.301 718.449,563.45 715.233,573.415C712.074,583.208 697.516,630.953 649.659,672.684C642.401,679.013 642.318,678.897 634.594,684.634C598.661,711.326 562.818,719.63 543.576,722.933C499.64,730.477 463.856,720.812 456.569,719.218C448.875,717.536 444.5,715.932 443.48,715.558C438.396,713.695 430.216,711.768 410.373,701.749C409.22,701.167 402.22,697.633 396.342,693.763C384.843,686.194 379.445,682.849 367.582,672.408C363.785,669.065 363.314,668.402 360.417,669.222C358.457,669.777 355.244,670.686 335.585,674.881C325.448,677.044 319.166,677.863 303.513,680.582C296.078,681.874 279.628,683.702 277.546,683.934C254.132,686.537 226.908,685.939 210.439,680.693C201.159,677.738 196.093,675.315 191.613,672.302C189.493,670.896 175.179,662.483 172.849,643.462C170.396,623.439 181.192,605.461 182.348,603.414C185.504,597.825 191.355,589.522 194.66,585.631C199.477,579.958 202.804,575.77 215.147,564.133C226.913,553.04 244.952,539.703 247.646,537.711C258.947,529.356 265.041,525.888 270.375,522.3C271.83,521.321 283.757,514.428 287.75,511.898C288.177,511.628 289.503,510.884 289.657,510.798C291.554,509.734 292.471,509.974 292.693,505.507C293.695,485.415 295.359,477.808 297.133,469.423C297.98,465.422 301.197,452.499 302.957,447.669C304.849,442.473 308.05,432.091 314.905,418.708C320.296,408.181 320.206,408.137 321.737,405.638C325.64,399.269 347.951,357.666 395.732,327.882C399.449,325.565 405.416,321.871 415.62,316.735C420.333,314.363 436.522,307.444 444.443,305.306C446.987,304.62 464.683,298.779 485.532,296.777C487.278,296.609 500.338,294.286 526.48,295.827C531.263,296.109 536.568,296.816 537.441,296.933C545.235,297.972 556.731,299.152 572.373,303.95C583.105,307.242 583.099,307.242 593.495,311.513C615.069,320.376 632.118,332.929 634.551,334.423C636.122,335.388 639.903,338.337 640.358,338.692C644.526,341.942 645.258,341.819 655.299,350.727C658.751,353.789 658.764,353.754 662.172,356.877C664.979,359.45 665.497,357.741 676.43,355.208C676.433,355.208 685.595,352.766 688.438,352.212C692.793,351.364 700.569,349.109 709.484,347.42C732.708,343.02 751.195,340.61 756.488,340.311C766.742,339.731 788.213,337.628 809.444,341.78C812.43,342.364 824.212,345.611 829.793,349.003C830.219,349.262 836.118,352.347 841.56,357.436C848.745,364.156 851.341,370.673 852.262,372.588Z" style="fill:rgb(250,250,250);"/>
                <path d="M266.518,662.879C251.94,663.882 238.132,663.096 235.475,662.679C228.134,661.527 214.193,660.718 203.791,650.201C202.826,649.224 197.636,643.976 196.902,634.479C196.496,629.227 198.486,616.977 210.757,601.696C213.168,598.694 212.998,598.583 215.653,595.638C219.665,591.189 226.706,583.019 240.092,572.033C240.397,571.782 242.498,569.623 246.556,566.571C249.685,564.217 249.564,564.092 252.699,561.772C259.382,556.826 259.309,556.754 266.155,552.008C268.29,550.527 283.689,539.85 293.298,534.159C300.234,530.051 300.734,529.708 301.356,529.283C305.795,526.246 313.883,523.405 314.426,520.486C314.476,520.221 313.666,495.22 319.349,471.463C325.114,447.364 334.555,428.915 336.344,425.42C341.237,415.858 341.494,416.016 346.991,406.801C347.142,406.548 353.522,397.473 356.977,392.863C358.161,391.283 363.226,385.375 363.778,384.731C369.287,378.306 375.443,372.388 375.911,371.917C382.815,364.967 394.779,355.381 400.563,351.596C402.868,350.088 412.079,343.105 429.329,335.111C430.139,334.735 430.148,334.774 439.593,330.724C441.678,329.83 453.879,325.845 454.536,325.608C461.671,323.038 482.107,318.964 491.478,318.251C503.898,317.306 523.3,315.433 553.448,321.745C556.387,322.361 572.041,325.232 595.553,336.393C595.974,336.593 595.959,336.615 600.697,339.118C607.842,342.894 607.613,343.259 614.586,347.354C618.406,349.597 623.607,353.395 628.268,356.832C633.248,360.505 644.981,370.729 652.408,378.587C656.311,382.716 656.388,383.684 659.558,382.689C668.93,379.747 668.994,380.016 678.415,377.207C682.775,375.907 690.523,374.4 701.495,371.481C702.615,371.183 730.772,365.099 740.457,364.127C741.662,364.006 741.61,363.739 755.477,362.29C756.197,362.215 756.193,362.266 764.497,361.465C768.938,361.037 786.682,360.664 793.502,361.479C800.043,362.261 800.066,362.038 806.516,363.423C813.428,364.907 820.475,368.618 824.152,371.876C828.786,375.984 841.558,387.848 827.943,411.745C826.67,413.98 820.713,424.437 807.808,436.813C792.442,451.548 783.715,457.717 768.658,468.724C758.305,476.292 744.282,485.271 741.27,487.12C734.926,491.015 726.4,496.427 723.303,498.154C718.834,500.645 716.833,502.205 712.473,504.452C711.684,504.858 707.353,507.497 705.496,508.493C702.173,510.276 703.701,511.344 702.893,521.531C701.645,537.252 698.716,565.32 679.845,600.682C659.424,638.947 626.898,662.909 624.676,664.726C622.918,666.164 604.981,679.482 584.374,688.205C565.757,696.085 547.096,701.553 518.501,703.517C501.202,704.705 475.35,701.881 460.498,697.506C455.59,696.06 450.222,695.126 434.456,688.602C431.129,687.225 421.609,682.632 417.574,680.371C409.712,675.964 400.784,670.622 388.361,660.681C375.67,650.526 372.487,644.978 369.516,644.929C369.161,644.923 353.5,648.981 345.519,650.592C342.583,651.184 336.832,652.8 321.509,655.545C300.327,659.34 299.691,659.529 283.472,661.266C280.753,661.557 271.504,662.596 266.518,662.879Z" style="fill:rgb(26,38,49);"/>
                <path d="M359.369,588.003C358.046,588.307 350.917,589.178 350.829,589.108C350.283,588.678 347.698,583.428 347.324,582.578C343.273,573.355 341.797,568.763 341.402,567.532C339.936,562.968 327.79,530.155 334.89,486.558C338.006,467.42 345.536,447.583 348.073,442.311C348.26,441.922 350.365,437.546 350.407,437.455C353.252,431.289 359.441,420.489 360.248,419.335C361.914,416.952 363.503,414.378 364.244,413.332C374.966,398.18 381.139,391.446 393.298,380.281C395.654,378.118 408.096,366.694 425.741,356.939C427.495,355.969 438.749,349.748 448.416,346.278C474.994,336.736 492.46,335.59 504.516,334.866C521.537,333.845 527.64,335.658 530.551,336.043C533.517,336.437 533.514,336.261 536.473,336.691C545.943,338.066 548.654,338.972 550.534,339.347C557.984,340.834 566.507,343.384 570.637,345.234C571.822,345.765 571.624,346.018 571.912,346.247C571.081,348.127 571.092,348.147 569.632,349.651C567.506,351.841 567.46,352.79 566.3,358.458C564.993,364.85 565.628,368.818 569.398,374.567C569.989,375.467 572.093,378.676 579.608,383.329C580.548,383.912 589.075,388.332 596.51,387.599C600.247,387.231 601.56,386.911 606.557,384.603C608.743,383.593 614.011,378.674 618.55,372.088C620.626,373.136 620.603,373.164 622.365,374.669C624.164,376.205 625.265,377.257 625.509,377.491C629.561,381.361 629.93,381.318 631.39,382.618C631.486,382.703 637.049,388.058 637.47,388.53C639.46,390.757 640.89,391.704 649.316,401.653C650.722,403.313 650.534,403.437 651.913,405.12C653.965,407.624 653.906,407.651 655.875,410.23C657.411,412.241 657.214,412.347 658.659,414.4C663.675,421.53 670.203,435.036 670.768,436.39C673.103,441.994 679.106,455.214 678.205,457.405C677.601,458.872 677.212,458.556 671.787,461.973C669.16,463.628 651.672,473.431 650.751,473.96C640.063,480.105 639.844,479.679 635.387,482.306C632.049,484.273 620.696,489.706 614.336,493.128C610.073,495.422 604.125,498.053 602.671,498.832C600.728,499.875 591.715,504.002 591.345,504.19C590.101,504.823 588.969,505.398 575.526,511.552C562.778,517.388 562.737,517.253 561.649,517.8C557.943,519.664 549.039,523.125 547.627,523.767C546.423,524.315 543.278,525.745 532.392,530.21C523.583,533.823 521.162,534.652 520.655,534.861C519.83,535.202 510.625,539.006 510.348,539.141C508.112,540.228 504.752,541.565 473.359,553.108C464.345,556.423 464.305,556.279 463.525,556.575C452.615,560.715 451.635,560.791 449.495,561.484C448.942,561.664 443.602,563.395 442.596,563.762C438.125,565.392 438.092,565.247 433.608,566.828C429.13,568.408 406.49,575.521 396.434,578.28C386.299,581.062 386.301,581.018 385.425,581.273C378.441,583.304 378.461,583.287 371.384,585.047C370.423,585.285 360.948,587.641 359.369,588.003Z" style="fill:rgb(91,105,110);"/>
                <path d="M433.434,668.667C434.052,668.404 424.652,664.491 422.258,662.857C421.026,662.016 412.091,656.75 411.763,656.253C411.617,656.031 411.624,654.933 411.764,654.731C412.076,654.284 415.16,653.463 415.465,653.382C420.188,652.125 420.71,651.465 423.56,650.689C425.09,650.272 447.389,642.767 450.501,641.504C454.321,639.953 454.848,640.06 456.482,639.45C457.122,639.211 463.396,636.867 464.503,636.509C470.697,634.506 470.526,634.086 472.5,633.501C476.878,632.204 480.515,630.598 484.397,629.215C487.187,628.22 488.826,627.161 490.561,626.722C495.409,625.496 499.98,623.05 505.391,621.173C511.97,618.89 517.801,616.219 518.649,615.911C522.68,614.45 522.591,614.267 526.592,612.771C533.169,610.312 533.112,610.181 533.685,609.971C536.666,608.878 536.588,608.738 539.546,607.634C542.457,606.548 551.649,602.842 555.681,600.938C559.049,599.347 562.194,598.369 564.442,597.361C572.729,593.646 572.768,593.794 573.487,593.471C579.426,590.797 579.472,590.957 585.351,588.166C591.605,585.197 596.477,583.658 601.711,580.959C605.668,578.919 606.184,579.082 609.512,577.525C610.939,576.857 625.969,569.826 627.342,569.154C628.626,568.525 640.07,562.922 643.443,561.392C646.084,560.194 657.08,554.607 657.474,554.442C658.935,553.83 660.384,553.076 670.768,547.997C672.784,547.011 672.725,546.934 674.738,545.942C679.158,543.764 679.125,543.709 679.51,543.521C681.481,542.559 682.12,543.387 681.666,545.537C678.128,562.323 673.719,571.817 673.474,572.49C666.041,592.944 651.761,612.398 651.126,613.235C646.576,619.236 642.983,623.993 637.573,629.574C626.289,641.213 624.788,642.189 623.846,642.887C621.341,644.744 617.918,648.884 600.266,660.086C591.337,665.752 589.853,665.848 585.413,668.35C581.454,670.581 569.094,675.666 566.496,676.487C542.47,684.082 535.652,684.507 521.532,685.827C511.778,686.739 493.089,685.659 488.421,684.958C488.276,684.936 475.909,683.215 473.489,682.547C471.484,681.993 471.504,681.998 469.466,681.658C468.442,681.487 467.621,681.164 465.466,680.635C452.758,677.513 440.702,672.591 433.434,668.667Z" style="fill:rgb(62,81,90);"/>
                <path d="M344.434,606.163C351.337,604.8 352.933,604.218 355.548,603.76C364.437,602.203 387.183,595.975 387.593,595.872C407.338,590.898 437.434,580.759 445.424,578.271C451.912,576.25 454.374,574.985 457.648,573.986C465.177,571.688 470.116,569.467 474.646,567.917C483.179,564.998 483.097,564.832 491.59,561.769C499.997,558.736 501.462,557.986 505.479,556.441C511.549,554.107 511.547,554.162 517.6,551.755C526.157,548.353 526.102,548.271 534.616,544.796C548.403,539.168 548.33,539.053 549.539,538.597C554.702,536.649 558.915,534.547 562.69,532.96C569.118,530.258 569.032,530.098 575.402,527.281C581.968,524.377 581.91,524.303 588.426,521.335C599.669,516.213 599.608,516.132 600.594,515.708C608.925,512.122 625.055,503.765 634.307,499.099C642.008,495.216 645.052,493.214 646.515,492.529C649.387,491.184 653.286,488.857 656.321,487.179C665.015,482.373 664.965,482.299 665.726,481.891C670.275,479.457 670.214,479.386 674.703,476.844C680.754,473.417 680.626,473.24 686.578,469.633C695.764,464.064 695.635,463.876 696.446,463.416C700.409,461.165 721.087,447.145 732.217,436.212C739.118,429.433 742.54,424.315 744.056,419.367C745.458,414.789 744.07,408.955 737.392,405.74C726.392,400.444 700.389,405.032 695.41,406.07C678.543,409.585 678.4,410.843 676.389,409.636C676.043,409.429 675.975,409.388 673.519,405.487C672.815,404.369 672.273,404.219 673.163,403.252C673.642,402.731 674.478,402.597 676.632,401.946C686.473,398.972 712.059,393.577 724.556,391.948C725.589,391.814 736.952,390.333 737.476,390.283C754.924,388.616 760.181,388.752 763.501,388.744C774.801,388.715 785.466,390.814 789.317,392.854C792.589,394.588 794.43,395.788 793.791,400.554C793.057,406.037 784.954,415.01 783.507,416.507C779.57,420.58 779.749,420.737 775.582,424.587C775.003,425.123 771.103,428.727 768.173,431.096C767.551,431.599 763.016,435.266 760.437,437.424C755.026,441.953 748.962,445.929 747.32,447.263C743.93,450.019 743.663,449.617 738.406,453.361C733.992,456.506 732.128,457.369 729.393,459.344C725.416,462.214 721.642,464.081 720.694,464.778C716.16,468.108 715.854,467.789 712.727,469.851C704.579,475.225 704.292,474.717 700.363,477.263C696.25,479.928 693.427,481.161 690.664,482.784C682.525,487.563 682.505,487.483 681.332,488.219C679.437,489.408 670.928,493.82 663.635,497.768C658.98,500.287 635.846,512.18 626.562,516.621C625.69,517.038 615.81,521.763 615.667,521.842C609.579,525.168 604.537,526.945 600.312,529.147C595.737,531.532 595.352,531.382 589.345,534.17C580.369,538.336 580.203,537.933 574.609,540.715C567.768,544.118 567.6,543.704 560.609,546.75C556.091,548.718 556.09,548.66 551.543,550.602C541.201,555.019 519.362,563.62 518.305,564.065C515.436,565.276 506.778,568.34 503.601,569.728C498.999,571.738 496.678,572.3 490.535,574.596C474.57,580.564 456.207,586.707 453.59,587.735C448.728,589.646 409.718,602.093 409.411,602.18C395.656,606.095 395.736,606.308 394.534,606.623C382.68,609.734 375.459,612.165 367.395,614.025C356.869,616.454 356.962,616.744 346.424,619.157C331.211,622.641 320.665,624.605 318.414,625.025C305.061,627.513 298.018,628.482 296.545,628.744C283.239,631.108 250.989,633.422 240.598,628.299C230.044,623.095 239.245,612.582 242.43,607.452C243.376,605.929 247.69,600.932 250.185,598.202C263.712,583.4 282.149,569.945 282.569,569.585C285.535,567.043 285.723,567.313 288.756,564.846C291.441,562.663 305.2,553.442 308.409,551.369C308.984,550.997 315.581,546.736 315.593,546.73C316.976,546.147 317.349,547.4 317.394,547.551C318.794,552.256 318.447,552.913 318.229,553.326C317.691,554.347 301.021,565.538 289.154,578.184C283.516,584.193 273.154,595.794 281.661,604.341C292.899,615.63 333.333,608.309 344.434,606.163Z" style="fill:rgb(228,197,162);"/>
                <path d="M852.262,372.588C853.053,372.472 852.72,371.845 853.5,371.731C853.59,371.717 853.525,371.838 854.5,372.26C854.805,372.392 855.169,372.392 855.447,372.574C855.599,372.673 855.604,372.903 855.709,373.05C857.052,374.937 859.735,378.211 863.281,385.594C865.635,390.496 866.594,400.988 866.318,404.485C865.844,410.483 865.472,411.836 865.302,412.456C863.921,417.49 864.456,417.643 862.358,422.436C861.275,424.911 861.478,424.976 860.463,427.483C857.72,434.258 852.716,441.287 852.101,442.226C841.782,457.988 821.922,475.254 816.579,479.598C807.332,487.117 805.856,488.198 804.892,488.905C802.893,490.371 803.066,490.551 801.109,492.062C799.931,492.971 799.351,492.853 795.281,496.204C791.921,498.972 784.782,503.892 783.553,504.583C781.112,505.957 779.45,507.968 776.438,509.392C774.338,510.386 769.217,514.171 768.519,514.534C768.136,514.734 768.12,514.686 764.303,517.211C761.079,519.344 757.508,521.207 754.391,523.338C752.252,524.799 747.26,527.547 746.728,527.864C746.139,528.216 740.773,531.422 739.313,532.184C736.007,533.909 734.751,533.871 734.349,541.488C734.11,546.024 733.782,545.965 733.187,550.461C732.518,555.528 732.145,555.451 731.642,560.525C731.38,563.17 729.866,566.916 729.274,570.446C728.748,573.574 728.316,573.452 727.717,576.555C726.863,580.978 726.546,580.873 725.274,584.422C724.497,586.591 725.109,586.759 723.926,589.645C721.893,594.605 722.401,594.802 721.084,597.293C719.728,599.856 720.032,599.971 718.974,602.674C717.122,607.408 714.345,612.842 713.903,613.707C707.34,626.551 707.422,626.594 706.732,627.64C705.598,629.357 703.615,632.963 703.356,633.433C702.426,635.123 701.557,635.714 700.891,636.767C698.291,640.874 698.271,640.851 698.051,641.21C697.77,641.668 693.687,647.507 693.613,647.595C692.381,649.049 686.719,656.448 686.126,657.223C682.424,662.061 678.08,666.642 677.41,667.416C674.393,670.904 674.207,670.705 671.083,674.098C666.566,679.005 662.115,682.413 658.213,686.167C655.387,688.885 655.298,688.755 652.345,691.311C648.158,694.936 646.949,695.09 645.439,696.428C640.512,700.797 636.944,701.992 634.728,703.814C632.079,705.991 626.773,708.932 626.746,708.946C622.326,711.187 620.517,712.738 618.583,713.661C614.841,715.448 614.921,715.564 614.587,715.696C609.989,717.509 610.206,717.973 605.609,719.774C602.554,720.971 596.153,724.51 588.495,726.483C586.508,726.995 586.672,727.474 580.41,729.17C575.947,730.379 576.047,730.725 571.508,731.54C570.229,731.77 566.44,732.97 563.518,733.574C547.459,736.892 547.385,736.336 537.51,737.601C531.023,738.432 531.005,737.961 524.504,738.567C521.599,738.837 504.187,738.463 497.483,737.723C480.074,735.802 477.201,734.736 476.485,734.594C470.407,733.388 470.479,733.183 464.446,731.699C453.15,728.921 453.441,727.937 448.408,726.815C446.979,726.496 446.952,726.23 445.439,725.646C436.139,722.053 436.048,722.286 435.305,721.841C434.418,721.308 434.243,721.204 423.659,716.206C421.146,715.02 421.229,714.868 420.505,714.493C413.351,710.788 412.947,710.046 411.558,709.399C409.357,708.374 408.264,707.454 403.266,703.795C399.764,701.231 399.348,701.834 396.127,698.902C394.732,697.632 391.393,695.608 389.762,694.195C387.245,692.013 386.96,692.411 385.16,690.885C380.092,686.586 379.654,686.155 379.205,685.711C377.989,684.513 376.925,683.982 376.425,683.596C375.465,682.856 375.589,682.738 374.631,682.026C372.827,680.686 372.627,680.798 370.52,681.559C365.508,683.371 350.273,686.147 348.554,686.711C343.164,688.479 324.318,691.295 320.45,692.271C317.876,692.92 314.055,693.384 313.495,693.452C308.976,694 309.03,694.205 304.539,694.787C289.454,696.744 283.339,697.206 281.489,697.346C280.053,697.455 269.957,698.217 263.5,698.232C246.314,698.27 244.242,697.564 243.498,697.519C233.877,696.943 233.321,696.184 225.465,694.662C222.481,694.084 222.547,693.905 219.632,693.064C215.878,691.981 206.251,687.226 204.693,686.177C203.23,685.193 199.409,683.514 193.459,677.534C191.726,675.792 190.937,675.486 190.721,675.3C190.471,675.085 190.333,674.761 190.089,674.541C189.997,674.459 189.742,674.54 189.741,674.418C189.74,674.091 190.086,673.827 190.084,673.5L191.613,672.302C196.093,675.315 201.159,677.738 210.439,680.693C226.908,685.939 254.132,686.537 277.546,683.934C279.628,683.702 296.078,681.874 303.513,680.582C319.166,677.863 325.448,677.044 335.585,674.881C355.244,670.686 358.457,669.777 360.417,669.222C363.314,668.402 363.785,669.065 367.582,672.408C379.445,682.849 384.843,686.194 396.342,693.763C402.22,697.633 409.22,701.167 410.373,701.749C430.216,711.768 438.396,713.695 443.48,715.558C444.5,715.932 448.875,717.536 456.569,719.218C463.856,720.812 499.64,730.477 543.576,722.933C562.818,719.63 598.661,711.326 634.594,684.634C642.318,678.897 642.401,679.013 649.659,672.684C697.516,630.953 712.074,583.208 715.233,573.415C718.449,563.45 721.347,550.301 722.528,542.504C724.163,531.716 723.853,531.69 724.655,524.518C725.029,521.18 726.36,521.945 739.319,514.193C749.86,507.888 751.72,506.622 752.764,505.911C754.067,505.024 754.229,505.309 769.303,495.211C772.419,493.123 783.69,485.285 785.246,484.143C810.641,465.5 820.832,455.173 830.162,445.187C837.746,437.069 845.19,426.161 846.561,423.534C849.614,417.69 851.089,416.043 854.062,406.375C859.896,387.398 852.727,373.7 852.262,372.588Z" style="fill:rgb(103,108,111);"/>
                <path d="M285.45,646.067C278.781,646.721 268.578,648.452 246.49,647.763C234.132,647.378 227,644.361 225.419,643.692C223.838,643.024 210.345,637.316 215.683,624.572C219.295,615.95 220.23,615.354 224.41,609.434C225.248,608.246 232.864,598.947 238.154,594.129C238.823,593.519 238.719,593.428 246.403,586.39C250.022,583.076 266.23,569.75 279.207,561.067C281.127,559.783 283.981,557.651 284.39,557.345C289.759,553.334 306.356,543.368 311.451,540.419C313.029,539.506 314.287,538.489 315.255,538.941C315.993,539.286 316.458,541.272 315.406,542.411C314.948,542.908 302.23,550.237 295.669,554.754C294.487,555.568 283.378,562.603 279.655,565.687C279.607,565.727 268.885,573.683 265.554,576.564C262.937,578.829 254.013,585.496 243.242,597.258C242.819,597.72 242.843,597.735 238.168,603.217C233.937,608.179 227.321,618.622 228.903,625.41C229.219,626.769 229.87,630.463 235.754,634.098C246.952,641.016 282.404,639.49 318.461,632.306C327.78,630.449 327.832,630.746 340.564,627.794C348.649,625.92 351.301,625.757 363.481,622.433C372.772,619.898 376.281,619.598 386.439,616.302C389.439,615.328 389.514,615.643 394.387,614.124C396.239,613.547 396.272,613.74 408.338,610.002C415.45,607.798 415.503,608.022 422.537,605.612C425.074,604.743 425.11,604.93 454.399,595.201C472.996,589.024 472.815,588.559 483.339,585.022C490.173,582.725 490.883,582.046 498.469,579.413C501.671,578.302 528.783,568.037 562.613,553.765C572.39,549.64 584.553,544.068 586.443,543.362C589.547,542.202 589.371,541.808 601.545,536.604C601.886,536.458 611.682,531.678 616.476,529.453C619.948,527.841 628.387,523.924 659.312,508.131C661.351,507.09 665.002,504.757 669.56,502.619C670.692,502.088 670.641,502.009 683.256,495.088C683.822,494.778 683.773,494.697 690.269,491.097C692.329,489.956 694.868,488.162 699.619,485.727C702.859,484.066 713.901,477.061 717.74,474.916C723.431,471.736 735.943,463.032 738.552,461.584C739.276,461.182 758.889,447.62 765.302,442.257C765.737,441.893 770.666,438.065 772.465,436.46C779.643,430.058 786.679,424.459 794.784,413.71C807.149,397.31 802.47,384.941 774.527,383.023C748.986,381.269 709.908,389.399 707.606,389.945C694.024,393.169 693.912,392.679 680.534,396.618C678.474,397.225 672.217,398.793 671.539,398.851C668.215,399.138 667.495,396.153 669.462,395.426C669.666,395.351 704.992,384.656 738.532,379.708C739.092,379.625 742.961,379.054 745.523,378.636C752.624,377.477 802.071,371.408 813.672,386.368C815.997,389.368 818.779,394.546 811.899,406.712C805.181,418.59 795.71,427.211 786.208,436.175C785.588,436.76 778.795,442.357 778.555,442.565C773.833,446.654 755.574,460.271 751.201,463.03C747.197,465.555 747.298,465.665 743.384,468.325C741.959,469.293 728.267,478.152 727.546,478.574C724.23,480.516 720.824,483.091 715.307,486.147C710.791,488.649 710.928,488.858 706.423,491.361C705.356,491.954 705.472,492.125 693.259,499.073C683.688,504.517 679.853,506.541 673.288,510.1C665.009,514.587 665.071,514.655 656.708,518.94C626.841,534.243 615.807,539.346 601.312,546.06C587.754,552.339 563.144,562.761 557.426,565.342C557.048,565.512 517.249,581.589 509.48,584.441C509.005,584.616 509.012,584.616 503.554,586.634C501.701,587.32 501.729,587.378 480.425,595.291C475.72,597.039 457.602,603.169 455.614,603.842C455.105,604.014 442.221,608.7 413.473,617.412C393.615,623.43 393.56,623.188 373.56,628.7C373.052,628.84 349.923,634.573 344.549,635.731C338.476,637.039 329.475,638.655 321.494,640.472C318.998,641.04 307.081,643.236 285.45,646.067Z" style="fill:rgb(227,203,172);"/>
                <path d="M371.394,488.466C372.101,486.671 372.701,484.567 374.046,482.244C375.514,479.711 376.406,477.935 376.597,477.553C377.083,476.585 381.229,471.038 382.107,470.084C383.919,468.116 388.496,463.587 390.452,462.428C394.591,459.974 396.012,459.094 399.637,457.875C400.537,457.572 404.92,456.098 411.467,456.926C414.667,457.331 418.145,458.876 418.678,459.196C421.843,461.093 423.723,462.387 425.749,464.222C433.903,471.605 435.073,479.605 435.576,481.479C435.847,482.487 437.514,488.7 436.496,494.5C435.086,502.537 432.359,507.086 430.618,510.567C424.932,521.933 410.416,531.347 400.472,529.689C395.88,528.924 395.799,529.273 391.468,527.571C388.513,526.41 382.381,521.414 379.122,517.872C376.238,514.739 376.069,514.89 373.759,511.331C368.014,502.478 369.841,493.887 371.394,488.466Z" style="fill:rgb(41,61,75);"/>
                <path d="M503.518,384.84C512.825,384.835 523,386.698 527.718,389.028C534.716,392.484 536.56,394.393 539.173,397.75C540.472,399.419 542.935,404.111 543.4,405.537C546.209,414.146 545.351,420.266 540.596,428.561C538.987,431.368 534.558,435.525 532.607,436.667C526.194,440.419 516.12,438.176 511.469,437.948C505.745,437.667 498.824,434.185 498.313,433.913C494.488,431.876 494.337,435.181 493.786,436.618C491.95,441.409 488.917,443.575 488.637,443.723C478.796,448.927 472.291,438.968 471.76,438.31C467.918,433.543 468.369,425.17 474.263,421.115C476.92,419.287 477.791,419.779 477.968,417.484C478.322,412.889 476.976,412.599 480.574,403.528C480.582,403.508 483.625,395.119 488.172,391.124C494.486,385.577 500.858,385.258 503.518,384.84Z" style="fill:rgb(41,62,75);"/>
                <path d="M406.361,646.048C404.379,646.617 404.404,646.631 402.421,647.246C399.367,648.192 398.961,646.181 396.533,644.46C394.552,643.056 391.83,640.344 391.825,640.331C391.384,639.048 392.444,638.702 392.583,638.657C393.719,638.286 401.623,636.332 410.503,633.509C418.944,630.824 419.006,631.074 427.404,628.213C431.679,626.757 433.666,626.491 447.562,621.692C449.286,621.096 456.067,619.179 462.567,616.675C463.862,616.176 470.489,614.147 482.553,609.646C486.91,608.02 487.031,608.382 496.543,604.607C503.455,601.863 503.595,602.294 510.489,599.473C511.988,598.86 512.045,599.037 529.348,592.118C538.822,588.329 553.613,582.492 568.652,575.859C575.347,572.905 575.56,573.417 584.715,568.96C588.118,567.304 588.287,567.702 596.608,563.723C599.754,562.218 605.549,559.948 609.631,557.772C610.706,557.199 610.741,557.301 623.394,551.274C625.751,550.151 641.249,542.767 652.682,536.872C665.4,530.315 665.429,530.383 667.34,529.219C668.223,528.682 680.398,522.506 682.393,521.257C683.327,520.672 683.366,520.309 684.343,520.821C684.949,521.139 684.895,522.331 684.889,522.47C684.864,523.023 684.665,527.443 684.07,529.338C683.525,531.077 680.435,531.917 673.636,535.76C672.236,536.552 665.317,539.635 661.652,541.785C660.86,542.25 644.787,550.002 638.388,553.285C636.077,554.471 619.011,562.314 613.717,564.958C609.991,566.82 605.708,568.564 600.689,570.926C595.636,573.304 595.603,573.173 590.521,575.545C572.678,583.873 569.172,584.579 563.423,587.336C561.209,588.398 539.66,597.599 530.687,600.989C527.183,602.313 516.59,606.853 511.546,608.624C509.514,609.338 509.62,609.581 486.407,618.259C474.094,622.862 461.333,627.388 458.505,628.513C457.453,628.931 442.879,634.069 441.518,634.549C432.983,637.558 407.635,645.609 406.361,646.048Z" style="fill:rgb(225,192,158);"/>
                <path d="M571.912,346.247C572.113,346.276 573.459,346.379 574.503,346.491C574.932,346.538 575.316,346.579 579.601,348.241C581.033,348.797 593.064,354.721 593.704,355.129C600.353,359.374 601.885,359.514 610.415,365.62C614.157,368.299 614.147,368.307 614.477,368.533C616.717,370.069 616.678,370.106 618.55,372.088C614.011,378.674 608.743,383.593 606.557,384.603C601.56,386.911 600.247,387.231 596.51,387.599C589.075,388.332 580.548,383.912 579.608,383.329C572.093,378.676 569.989,375.467 569.398,374.567C565.628,368.818 564.993,364.85 566.3,358.458C567.46,352.79 567.506,351.841 569.632,349.651C571.092,348.147 571.081,348.127 571.912,346.247Z" style="fill:rgb(42,62,75);"/>
                <g transform="matrix(1,0,0,1,1.610353,-6.245759)">
                    <path d="M583.452,646.384C592.544,642.823 592.685,642.778 593.508,642.52C596.534,641.57 596.424,641.314 599.384,640.196C603.632,638.591 608.775,636.545 612.555,635.888C613.834,635.666 617.528,635.767 615.424,639.452C614.329,641.371 612.371,642.997 611.194,644.196C608.962,646.467 608.732,646.17 606.278,648.231C602.285,651.584 602.108,651.319 599.328,653.259C594.94,656.321 581.048,663.586 572.518,666.557C564.982,669.181 565.135,669.581 561.516,670.553C560.879,670.724 560.903,670.778 553.574,672.757C544.288,675.265 544.225,674.975 543.424,675.211C539.566,676.345 539.523,676.073 535.552,676.792C525.899,678.541 515.205,678.623 512.383,677.924C509.582,677.23 510.417,675.03 510.708,674.643C511.088,674.135 511.829,673.147 517.583,670.697C519.589,669.843 534.363,664.392 537.449,663.354C542.465,661.669 567.186,652.576 568.323,652.099C574.526,649.502 578.272,648.549 583.452,646.384Z" style="fill:rgb(24,41,53);"/>
                </g>
                <path d="M716.488,419.208C717.132,419.195 722.026,419.097 724.55,419.204C724.776,419.214 728.254,419.362 725.834,421.723C725.071,422.468 717.981,431.177 697.232,446.117C694.257,448.258 693.746,445.175 693.492,444.503C693.161,443.628 690.556,436.742 689.205,433.627C685.88,425.959 684.764,425.201 686.096,424.048C687.294,423.012 705.314,419.958 716.488,419.208Z" style="fill:rgb(248,249,249);"/>
                <path d="M325.434,594.062C318.088,594.875 303.18,596.882 297.568,594.391C297.425,594.328 296.301,593.829 296.788,592.599C297.576,590.611 304.121,584.488 304.816,583.839C312.069,577.055 318.532,572.569 320.782,570.942C323.16,569.221 323.396,570.771 324.371,573.543C324.85,574.903 328.758,586.004 330.67,590.433C331.197,591.653 331.715,591.788 330.851,592.777C330.408,593.284 330.352,593.291 325.434,594.062Z" style="fill:rgb(248,249,250);"/>
                <path d="M489.496,496.461C489.651,496.457 491.779,496.219 493.45,496.723C497.076,497.816 498.182,499.171 498.472,499.527C506.411,509.254 495.507,520.921 487.523,520.079C483.748,519.681 482.84,518.957 480.776,517.153C474.441,511.619 479.545,501.64 482.513,499.516C485.676,497.253 485.658,497.052 489.496,496.461Z" style="fill:rgb(43,63,75);"/>
                <path d="M614.502,449.586C615.19,449.61 616.434,449.354 618.575,450.307C619.502,450.719 621.869,452.547 622.284,452.966C622.553,453.237 622.367,453.332 622.887,454.273C625.656,459.29 622.322,466.032 616.548,466.826C606.893,468.152 603.761,458.228 608.047,453.153C611.003,449.652 613.487,449.761 614.502,449.586Z" style="fill:rgb(43,63,75);"/>
                <path d="M415.6,399.959C415.912,399.94 416.22,399.88 416.532,399.861C423.457,399.445 424.741,408.94 419.516,411.536C413.38,414.584 408.254,407.284 411.729,402.663C413.373,400.475 415.169,400.145 415.6,399.959Z" style="fill:rgb(45,64,75);"/>
                <path d="M443.504,380.321C444.032,380.458 445.401,380.287 446.96,382.214C448.859,384.559 446.336,388.697 443.59,389.758C439.626,391.291 435.811,385.986 439.213,382.251C439.735,381.679 439.704,381.664 440.376,381.289C442.199,380.273 443.208,380.379 443.504,380.321Z" style="fill:rgb(46,64,75);"/>
            </g>
        </g>
    </g>
</svg>
