<?xml version="1.0" encoding="UTF-8" standalone="no"?>
<!DOCTYPE svg PUBLIC "-//W3C//DTD SVG 1.1//EN" "http://www.w3.org/Graphics/SVG/1.1/DTD/svg11.dtd">
<svg width="100%" height="100%" viewBox="0 0 643 445" version="1.1" xmlns="http://www.w3.org/2000/svg" xmlns:xlink="http://www.w3.org/1999/xlink" xml:space="preserve" xmlns:serif="http://www.serif.com/" style="fill-rule:evenodd;clip-rule:evenodd;stroke-linejoin:round;stroke-miterlimit:2;">
    <g transform="matrix(1,0,0,1,-8582.558957,-2960.683264)">
        <g transform="matrix(2.211214,0,0,1.482332,-200.62803,92.293922)">
            <g transform="matrix(0.137722,0,0,0.205441,4117.292198,2084.852152)">
                <g transform="matrix(1,0,0,1,-1054.166667,-729.166667)">
                    <g transform="matrix(4.166667,0,0,4.166667,0,0)">
                        <g id="Fondo">
                            <path d="M0.099,257.737C0.132,257.069 -2.181,247.459 13.859,232.507C46.605,201.981 75.774,190.578 77.588,187.407C78.736,185.4 68.587,124.192 116.254,65.033C182.273,-16.902 298.571,-17.533 365.843,41.425C394.321,66.383 397.629,79.05 400.456,80.257C401.998,80.915 479.959,61.742 498.192,77.227C526.991,101.684 458.527,143.382 429.969,160.245C425.944,162.622 427.565,164.768 427.758,170.92C430.406,255.401 365.443,332.836 283.77,346.436C169.562,365.454 112.578,278.878 109.576,274.889C107.228,271.768 103.29,274.516 80.108,276.628C6.459,283.339 2.148,268.751 0.1,257.739L0.099,257.737Z" style="fill:rgb(31,45,61);"/>
                            <circle cx="225.517" cy="68.195" r="11.531" style="fill:rgb(47,79,109);"/>
                            <path d="M96.4,167.734C103.857,61.278 194.336,9.934 271.84,19.697C365.295,31.469 398.967,114.656 397.851,117.891C397.469,119 358.245,139.921 307.237,161.043C220.932,196.782 138.577,213.679 123.533,216.766C104.162,220.741 103.417,220.687 102.843,219.123C95.841,200.032 96.328,171.877 96.4,167.735L96.4,167.734Z" style="fill:rgb(117,166,215);"/>
                            <path d="M260.05,330.534C229.731,330.938 193.066,328.524 148.308,290.494C147.382,289.707 128.709,271.682 130.161,269.848C132.141,267.346 254.852,252.503 401.421,175.871C407.099,172.902 408.86,171.217 408.889,174.075C409.637,247.114 353.896,323.316 262.415,330.378C261.628,330.439 260.838,330.473 260.051,330.533L260.05,330.534Z" style="fill:rgb(123,170,212);"/>
                            <g>
                                <circle cx="269.488" cy="288.133" r="11.531" style="fill:rgb(47,79,109);"/>
                                <circle cx="354.959" cy="105.36" r="11.531" style="fill:rgb(47,79,109);"/>
                                <circle cx="173.145" cy="162.926" r="11.531" style="fill:rgb(47,79,109);"/>
                                <circle cx="225.517" cy="68.195" r="11.531" style="fill:rgb(47,79,109);"/>
                                <circle cx="354.959" cy="240.055" r="11.531" style="fill:rgb(47,79,109);"/>
                            </g>
                            <path d="M441.023,112.866C441.859,112.232 448.517,108.228 447.15,103.801C444.449,95.055 415.514,105.975 413.916,104.634C413.374,104.179 408.894,97.226 412.301,96.526C444.574,89.892 489.861,84.569 486.204,94.253C479.006,113.316 397.815,162.997 327.89,191.371C323.786,193.036 292.454,207.261 234.806,225.414C111.295,264.309 20.161,265.831 19.299,255.351C18.555,246.314 61.601,218.237 65.696,215.566C79.074,206.84 80.013,206.923 80.522,208.148C80.774,208.755 83.344,214.938 81.358,216.323C77.907,218.73 47.024,235.148 55.891,241.573C62.762,246.552 134.138,234.268 171.57,224.203C197.911,217.121 247.43,205.518 326.95,172.102C388.352,146.3 428.54,121.061 436.909,115.805C439.847,113.734 439.813,113.79 441.023,112.865L441.023,112.866Z" style="fill:rgb(246,173,105);"/>
                            <path d="M430.39,88.072C430.687,88.368 430.985,88.663 431.282,88.959C431.191,89.107 429.533,91.791 429.333,89.926C429.155,88.27 430.297,88.236 430.39,88.072Z" style="fill:rgb(28,44,61);"/>
                        </g>
                    </g>
                </g>
            </g>
        </g>
    </g>
</svg>
