<?xml version="1.0" encoding="UTF-8" standalone="no"?>
<!DOCTYPE svg PUBLIC "-//W3C//DTD SVG 1.1//EN" "http://www.w3.org/Graphics/SVG/1.1/DTD/svg11.dtd">
<svg width="100%" height="100%" viewBox="0 0 480 477" version="1.1" xmlns="http://www.w3.org/2000/svg" xmlns:xlink="http://www.w3.org/1999/xlink" xml:space="preserve" xmlns:serif="http://www.serif.com/" style="fill-rule:evenodd;clip-rule:evenodd;stroke-linejoin:round;stroke-miterlimit:2;">
    <g transform="matrix(1,0,0,1,-9659.738445,-2256.481019)">
        <g transform="matrix(2.211214,0,0,1.482332,-200.62803,92.293922)">
            <g transform="matrix(0.095185,0,0,0.141988,4567.72552,1620.611953)">
                <g transform="matrix(1,0,0,1,-1139.583333,-1131.25)">
                    <clipPath id="_clip1">
                        <rect x="0" y="0" width="2279.167" height="2262.5"/>
                    </clipPath>
                    <g clip-path="url(#_clip1)">
                        <g transform="matrix(4.166667,0,0,4.166667,0,0)">
                            <g id="Fondo">
                                <path d="M1.584,301.858C0.775,292.884 -5.209,244.092 12.974,189.196C17.965,174.127 47.434,85.159 138.563,35.577C334.84,-71.215 543.806,79.431 546.421,261.827C549.886,503.543 284.95,618.336 109.961,489.282C8.098,414.158 1.623,302.122 1.584,301.858Z" style="fill:rgb(22,11,63);"/>
                                <circle cx="273.227" cy="271.839" r="264.7" style="fill:rgb(152,119,203);"/>
                                <path d="M455.689,80.157C518.631,136.605 532.38,211.86 534.907,229.386C562.621,421.531 400.103,549.701 255.797,535.908C258.618,533.706 431.144,514.288 485.64,331.317C526.257,194.948 455.688,80.157 455.688,80.157L455.689,80.157Z" style="fill:rgb(90,79,175);"/>
                                <path d="M101.408,129.272C75.114,162.06 61.605,212.415 59.531,220.146C56.254,232.36 36.169,229.184 40.151,212.581C66.992,100.672 148.608,55.823 169.498,43.499C188.215,32.457 193.879,53.43 184.095,59.008C176.246,63.483 152.082,73.364 117.161,109.551C109.757,117.224 102.558,127.612 101.408,129.272Z" style="fill:rgb(240,226,243);"/>
                                <path d="M325.552,172.349C321.071,224.688 269.549,216.386 276.256,169.354C280.837,137.23 322.743,123.466 325.552,172.349Z" style="fill:rgb(17,8,64);"/>
                                <path d="M152.103,182.246C119.418,178.003 141.174,124.45 166.141,120.594C202.415,114.992 191.189,180.406 152.103,182.246Z" style="fill:rgb(17,8,64);"/>
                                <path d="M92.297,197.477C100.241,191.662 111.671,195.81 112.287,196.31C114.92,198.448 119.969,198.063 120.763,199.183C127.313,208.427 126.846,208.823 127.549,220.16C127.874,225.396 116.481,234.975 112.082,235.783C74.012,242.776 77.778,202.786 92.298,197.478L92.297,197.477Z" style="fill:rgb(224,104,161);"/>
                                <path d="M329.581,232.736C339.229,232.556 339.553,230.923 348.31,234.991C366.904,243.629 359.543,260.654 358.345,261.537C356.054,263.225 357.162,263.698 356.89,264.517C356.281,266.346 355.879,265.949 346.278,271.921C343.245,273.807 325.999,272.212 324.919,271.07C316.24,261.884 314.414,262.141 314.611,249.563C314.787,238.335 322.289,242.604 323.81,237.36C325.216,232.514 326.552,233.638 329.582,232.738L329.581,232.736Z" style="fill:rgb(223,104,162);"/>
                                <path d="M192.379,223.228C199.147,260.907 238.158,260.151 250.672,223.183C254.361,212.285 265.585,219.905 262.443,227.62C239.556,283.822 181.254,268.525 180.035,217.067C179.743,204.753 191.372,207.689 191.952,214.024C192.232,217.082 192.099,220.169 192.379,223.227L192.379,223.228Z" style="fill:rgb(19,8,65);"/>
                                <path d="M89.103,217.08C90.074,213.678 89.169,210.713 92.016,212.858C94.273,214.559 92.916,224.643 89.103,217.08Z" style="fill:rgb(212,107,175);"/>
                            </g>
                        </g>
                    </g>
                </g>
            </g>
        </g>
    </g>
</svg>
