<?xml version="1.0" encoding="UTF-8" standalone="no"?><!DOCTYPE svg PUBLIC "-//W3C//DTD SVG 1.1//EN" "http://www.w3.org/Graphics/SVG/1.1/DTD/svg11.dtd"><svg width="100%" height="100%" viewBox="0 0 622 1105" version="1.1" xmlns="http://www.w3.org/2000/svg" xmlns:xlink="http://www.w3.org/1999/xlink" xml:space="preserve" xmlns:serif="http://www.serif.com/" style="fill-rule:evenodd;clip-rule:evenodd;stroke-linecap:round;stroke-linejoin:round;stroke-miterlimit:1.5;"><g><g><path d="M585.348,822.808l10.726,79.933l-65.624,8.806l-10.726,-79.933l65.624,-8.806Z" style="stroke:#000;stroke-width:2.5px;"/><path d="M483.559,831.863c0,0 -30.551,-93.361 -27.032,-138.102c99.054,8.328 125.562,-43.492 125.562,-43.492c0,0 51.08,76.122 34.493,189c0,0 -1.192,9.216 -12.685,14.988c0,0 -73.996,32.019 -111.392,-5.227c0,0 -5.194,-5.357 -8.947,-17.168" style="fill:#7cdaf3;stroke:#000;stroke-width:2.5px;"/><path d="M483.418,512.281c0,0 61.631,-8.111 90.508,91.57c0,0 3.508,13.741 -3.527,21.415c0,0 -36.622,42.884 -115.927,37.175c-11.132,-1.363 -15.112,-15.579 -15.112,-15.579c-33.137,-98.347 22.112,-126.838 22.112,-126.838c0,0 8.953,-5.834 21.945,-7.744" style="fill:#7cdaf3;stroke:#000;stroke-width:2.5px;"/><g><g><path d="M582.093,650.479c4.519,-16.939 -10.903,-25.942 -10.903,-25.942c-0.246,0.322 -0.509,0.635 -0.787,0.939c0,0 -36.622,42.884 -115.927,37.175c-1.784,-0.218 -3.329,-0.737 -4.759,-1.505c0,0 -12.853,19.48 6.813,32.823c99.054,8.328 125.562,-43.492 125.562,-43.492" style="stroke:#000;stroke-width:2.5px;"/></g></g><path d="M524.44,903.094c0,0 -27.932,21.166 -31.232,58.807c0,0 -0.076,5.45 3.816,8.034c0,0 5.893,4.581 12.249,4.801c0,0 7.564,-0.04 10.024,-4.277c0,0 6.078,-12.071 14.076,-15.011c0,0 4.957,-1.523 9.465,-0.636c0,0 6.023,0.912 9.921,5.768c0,0 3.724,4.247 4.41,9.054c0,0 0.529,3.895 -0.655,7.144c0,0 -4.52,16.599 -16.621,20.902c0,0 -4.611,1.851 -5.763,5.196c0,0 -2.288,4.796 -1.167,12.006c0,0 1.629,8.07 11.18,11.68c0,0 8.546,2.496 19.537,-0.449c0,0 17.133,-4.332 27.471,-16.226c0,0 31.322,-30.915 27.089,-119.511c0,0 -4.215,-14.715 -30.769,-10.43c0,0 -51.499,14.202 -63.03,23.148" style="fill:#7cdaf3;stroke:#000;stroke-width:2.5px;"/></g><g><path d="M35.798,838.08l-10.726,79.933l65.624,8.806l10.726,-79.933l-65.624,-8.806Z" style="stroke:#000;stroke-width:2.5px;"/><path d="M137.588,847.135c0,0 30.551,-93.361 27.032,-138.102c-99.054,8.328 -125.562,-43.492 -125.562,-43.492c0,0 -51.08,76.122 -34.493,189c0,0 1.192,9.216 12.685,14.988c0,0 73.996,32.019 111.392,-5.227c0,0 5.194,-5.357 8.947,-17.168" style="fill:#7cdaf3;stroke:#000;stroke-width:2.5px;"/><path d="M137.729,527.554c0,0 -61.631,-8.111 -90.508,91.57c0,0 -3.508,13.741 3.527,21.415c0,0 36.622,42.884 115.927,37.175c11.132,-1.363 15.112,-15.579 15.112,-15.579c33.137,-98.347 -22.112,-126.838 -22.112,-126.838c0,0 -8.953,-5.834 -21.945,-7.744" style="fill:#7cdaf3;stroke:#000;stroke-width:2.5px;"/><g><g><path d="M39.053,665.751c-4.519,-16.939 10.903,-25.942 10.903,-25.942c0.246,0.322 0.509,0.635 0.787,0.939c0,0 36.622,42.884 115.927,37.175c1.784,-0.218 3.329,-0.737 4.759,-1.505c0,0 12.853,19.48 -6.813,32.823c-99.054,8.328 -125.562,-43.492 -125.562,-43.492" style="stroke:#000;stroke-width:2.5px;"/></g></g><path d="M96.706,918.367c0,0 27.932,21.166 31.232,58.807c0,0 0.076,5.45 -3.816,8.034c0,0 -5.893,4.581 -12.249,4.801c0,0 -7.564,-0.04 -10.024,-4.277c0,0 -6.078,-12.071 -14.076,-15.011c0,0 -4.957,-1.523 -9.465,-0.636c0,0 -6.023,0.912 -9.921,5.768c0,0 -3.724,4.247 -4.41,9.054c0,0 -0.529,3.895 0.655,7.144c0,0 4.52,16.599 16.621,20.902c0,0 4.611,1.851 5.763,5.196c0,0 2.288,4.796 1.167,12.006c0,0 -1.629,8.07 -11.18,11.68c0,0 -8.546,2.496 -19.537,-0.449c0,0 -17.133,-4.332 -27.471,-16.226c0,0 -31.322,-30.915 -27.089,-119.511c0,0 4.215,-14.715 30.769,-10.43c0,0 51.499,14.202 63.03,23.148" style="fill:#7cdaf3;stroke:#000;stroke-width:2.5px;"/></g><rect x="253.833" y="1020.085" width="115.576" height="39.944" style="stroke:#000;stroke-width:2.5px;"/><g><path d="M236.331,1059.805c0,0 59.204,38.262 145.093,1.962c0,0 1.364,22.476 -17.238,31.506c-49.489,21.432 -108.025,2.732 -108.025,2.732c-22.816,-7.419 -19.83,-36.2 -19.83,-36.2c3.068,-12.629 16.934,-14.737 16.934,-14.737c0,0 50.917,25.853 116.291,-0.483c0,0 10.507,3.378 11.868,17.182" style="fill:#7cdaf3;stroke:#000;stroke-width:2.5px;"/><path d="M381.371,1061.789c-1.361,-13.804 -11.868,-17.182 -11.868,-17.182c-65.374,26.336 -116.291,0.483 -116.291,0.483c0,0 -13.865,2.108 -16.934,14.737c0,0 59.204,38.262 145.093,1.962" style="fill:#4ebed4;stroke:#000;stroke-width:2.5px;"/></g><g><path d="M215.515,963.112c0,0 -5.887,47.498 24.697,57.69c0,0 80.745,23.618 145.978,-3.753c27.585,-9.993 21.399,-53.997 21.399,-53.997" style="fill:#7cdaf3;stroke:#000;stroke-width:2.5px;"/><ellipse cx="311.56" cy="963.558" rx="96.434" ry="20.454" style="fill:#4ebed4;stroke:#000;stroke-width:2.5px;"/></g><path d="M375.608,934.528c0,15.201 -12.341,27.543 -27.543,27.543l-72.889,0c-15.201,0 -27.543,-12.341 -27.543,-27.543c0,-15.201 12.341,-27.543 27.543,-27.543l72.889,0c15.201,0 27.543,12.341 27.543,27.543Z" style="stroke:#000;stroke-width:2.5px;"/><path d="M476.428,486.048c14.905,14.967 17.008,27.259 17.008,27.259c0,0 54.975,224.664 -42.677,364.98c-20.114,27.518 -61.892,41.048 -61.892,41.048c-88.638,24.576 -168.434,-0.952 -168.434,-0.952c-26.501,-9.272 -43.8,-23.394 -54.787,-36.045c0,0 -81.09,-91.016 -67.246,-323.249c0,0 1.106,-22.041 12.164,-35.016" style="fill:#7cdaf3;stroke:#000;stroke-width:2.5px;"/><circle cx="454.097" cy="610.655" r="23.539" style="fill:#df0;stroke:#000;stroke-width:2.5px;"/><path d="M288.786,460.837c104.957,-10.966 193.022,7.437 196.536,41.07c3.514,33.633 -78.845,69.842 -183.803,80.808c-104.957,10.966 -193.022,-7.437 -196.536,-41.07c-3.514,-33.633 78.845,-69.842 183.803,-80.808Z" style="fill:#4ebed4;stroke:#000;stroke-width:2.5px;"/><path d="M292.824,480.942c62.996,-6.423 115.644,3.094 117.494,21.24c1.85,18.146 -47.793,38.093 -110.789,44.516c-62.996,6.423 -115.644,-3.094 -117.494,-21.24c-1.85,-18.146 47.793,-38.093 110.789,-44.516Z" style="stroke:#000;stroke-width:2.5px;"/><g><circle cx="281.816" cy="455.686" r="65.127" style="stroke:#000;stroke-width:2.5px;"/><g><path d="M220.512,60.776l6.703,62.093l-8.12,0.877l-6.703,-62.093l8.12,-0.877Z" style="stroke:#000;stroke-width:2.5px;"/><circle cx="213.435" cy="35.013" r="33.763" style="fill:#7cdaf3;stroke:#000;stroke-width:2.5px;"/><ellipse cx="231.955" cy="168.279" rx="55.677" ry="54.256" style="stroke:#000;stroke-width:2.5px;"/><ellipse cx="396.475" cy="279.224" rx="69.955" ry="68.168" style="stroke:#000;stroke-width:2.5px;"/><ellipse cx="107.041" cy="316.965" rx="69.955" ry="68.168" style="stroke:#000;stroke-width:2.5px;"/><path d="M345.972,147.086c0,0 32.334,5.052 52.731,32.658c7.823,11.967 24.091,50.928 32.587,173.115c0,0 4.517,41.988 -29.182,58.688c-127.3,61.002 -252.653,40.699 -252.653,40.699c-41.611,-7.165 -51.246,-32.378 -51.246,-32.378c-18.464,-31.511 -30.288,-171.362 -30.288,-171.362c-4.645,-35.604 31.486,-59.065 31.486,-59.065c0,0 100.859,-64.78 246.566,-42.355" style="fill:#7cdaf3;stroke:#000;stroke-width:2.5px;"/><path d="M376.492,385.645c33.427,-20.126 31.206,-38.925 31.206,-38.925c-7.382,-115.911 -20.586,-134.467 -20.586,-134.467c0,0 -15.281,-33.147 -61.544,-34.851c-122.271,-4.052 -185.47,35.438 -185.47,35.438c-36.571,18.718 -31.44,49.89 -31.44,49.89c0,0 9.504,98.841 22.176,130.204c0,0 10.315,21.838 37.409,25.338c0,0 117.761,17.197 208.249,-32.627" style="fill:#fff;stroke:#000;stroke-width:2.5px;"/><path d="M182.565,272.268c9.162,-1.216 18.078,8.935 19.899,22.654c1.821,13.719 -4.139,25.845 -13.301,27.061c-9.162,1.216 -18.078,-8.935 -19.899,-22.654c-1.821,-13.719 4.139,-25.845 13.301,-27.061Z" style="stroke:#000;stroke-width:2.5px;"/><path d="M333.026,252.593c9.162,-1.216 18.078,8.935 19.899,22.654c1.821,13.719 -4.139,25.845 -13.301,27.061c-9.162,1.216 -18.078,-8.935 -19.899,-22.654c-1.821,-13.719 4.139,-25.845 13.301,-27.061Z" style="stroke:#000;stroke-width:2.5px;"/><path d="M173.74,355.064c13.546,-2.592 25.849,2.126 27.457,10.53c1.608,8.404 -8.083,17.331 -21.629,19.924c-13.546,2.592 -25.849,-2.126 -27.457,-10.53c-1.608,-8.404 8.083,-17.331 21.629,-19.924Z" style="fill:#cc5a80;"/><path d="M361.085,331.015c13.788,-0.294 25.131,6.412 25.313,14.966c0.183,8.554 -10.863,15.739 -24.652,16.033c-13.788,0.294 -25.131,-6.412 -25.313,-14.966c-0.183,-8.554 10.863,-15.739 24.652,-16.033Z" style="fill:#cc5a80;"/><path d="M225.319,354.592c-1.813,-1.782 -1.169,-3.721 -0.431,-4.611c0.537,-0.648 1.124,-1.062 2.126,-1.15c1.216,-0.107 2.679,0.936 2.679,0.936c0,0 45.69,37.161 79.258,-11.139c0,0 0.708,-1.055 1.879,-1.307c0.794,-0.171 1.928,-0.071 2.711,0.302c1.356,0.645 2.083,2.488 1.011,4.288c-36.003,54.297 -89.233,12.681 -89.233,12.681" style="stroke:#000;stroke-width:2.5px;"/></g><path d="M69.156,228.535c7.115,-1.133 19.75,41.022 28.197,94.077c8.447,53.055 9.529,97.049 2.414,98.182c-7.115,1.133 -19.75,-41.022 -28.197,-94.077c-8.447,-53.055 -9.529,-97.049 -2.414,-98.182Z" style="stroke:#000;stroke-width:2.5px;"/><circle cx="201.306" cy="35.796" r="16.869" style="fill:#c9f3ff;"/></g></g></svg>