<?xml version="1.0" encoding="UTF-8" standalone="no"?>
<!DOCTYPE svg PUBLIC "-//W3C//DTD SVG 1.1//EN" "http://www.w3.org/Graphics/SVG/1.1/DTD/svg11.dtd">
<svg width="100%" height="100%" viewBox="0 0 754 445" version="1.1" xmlns="http://www.w3.org/2000/svg" xmlns:xlink="http://www.w3.org/1999/xlink" xml:space="preserve" xmlns:serif="http://www.serif.com/" style="fill-rule:evenodd;clip-rule:evenodd;stroke-linejoin:round;stroke-miterlimit:2;">
    <g transform="matrix(1,0,0,1,-7756.242789,-2960.683264)">
        <g transform="matrix(2.211214,0,0,1.482332,-200.62803,92.293922)">
            <g transform="matrix(0.101908,0,0,0.152018,3768.901112,2084.852152)">
                <g transform="matrix(1,0,0,1,-1672.916667,-985.416667)">
                    <clipPath id="_clip1">
                        <rect x="0" y="0" width="3345.833" height="1970.833"/>
                    </clipPath>
                    <g clip-path="url(#_clip1)">
                        <g transform="matrix(4.166667,0,0,4.166667,0,0)">
                            <g id="Fondo">
                                <path d="M417.823,0.222C453.878,4.354 486.77,8.854 536.262,42.852C568.864,65.247 586.757,92.87 589.772,94.009C590.103,94.134 796.582,38.102 801.98,89.034C807.171,138.023 633.83,220.773 632.357,221.434C620.552,226.725 620.973,227.467 584.369,243.756C525.636,269.891 500.294,277.898 489.014,283.762L487.886,284.082C487.257,284.235 486.628,284.387 485.999,284.54C398.935,316.532 399.158,316.446 310.419,342.704C309.515,343.199 300.969,346.642 220.543,367.011C220.543,367.011 219.856,367.19 218.855,367.462C216.1,368.211 210.687,369.714 208.172,371.108C201.307,369.445 67.651,402.81 19.379,385.158C-64.959,354.318 152.521,242.054 165.896,240.817C165.896,240.817 167.426,254.659 166.934,262.097C147.512,270.899 99.292,298.755 84.264,319.064C51.351,363.543 187.793,334.843 187.793,334.843C188.069,334.825 198.318,335.216 216.386,329.658C226.442,327.605 263.992,320.347 296.972,310.464C349.39,300.196 471.532,253.697 486.448,248.019C492.53,245.704 492.34,245.714 498.37,243.706C514.936,236.355 582.333,208.076 609.351,193.456L611.034,192.393C627.82,183.651 629.656,184.7 630.082,180.235C631.323,180.311 632.21,182.344 654.391,168.884C656.733,167.463 675.702,155.952 683.223,150.402C794.517,68.271 600.155,109.211 602.813,114.619C613.601,136.571 614.331,135.985 623.397,158.773C623.339,160.282 622.471,160.772 621.728,161.694L622.36,164.548C624.492,171.242 594.866,181.797 588.281,187.445C575.691,189.353 575.818,189.197 564.374,194.368C563.405,194.222 563.706,192.073 562.738,191.927C559.195,191.393 555.587,194.304 552.004,194.335C516.201,194.642 521.342,178.789 511.477,178.396C503.669,178.085 467.961,217.558 441.77,180.426C390.994,108.438 426.18,101.618 443.832,72.393C449.803,62.507 386.928,42.72 412.995,4.035L417.827,0.222L417.823,0.222Z" style="fill:rgb(129,186,228);"/>
                                <path d="M168.041,360.985C149.436,364.246 18.214,389.163 31.928,346.96C34.361,339.473 62.638,307.134 49.95,335.969C31.65,377.557 178.896,357.596 323.968,313.637C657.162,212.676 758.148,120.42 747.936,97.122C737.303,72.866 779.406,86.022 767.759,107.698C734.921,168.81 455.33,303.333 168.041,360.985Z" style="fill:rgb(43,109,172);"/>
                                <path d="M208.127,371.098C211.556,369.197 220.541,366.931 220.541,366.931C237.856,396.404 240.404,397.23 236.123,403.52C221.099,388.213 221.494,388.06 208.127,371.098Z" style="fill:rgb(90,161,211);"/>
                                <path d="M299.557,22.801C298.885,27.156 299.377,27.078 298.24,31.328C278.199,106.267 302.877,276.981 166.099,246.498L165.893,240.817C167.149,98.763 262.831,42.394 299.557,22.801Z" style="fill:rgb(37,101,167);"/>
                                <path d="M635.993,219.679C636.293,237.71 639.499,279.374 614.735,334.508C605.81,354.38 589.949,378.584 577.579,391.145C560.734,385.755 494.09,416.067 485.399,376.177C478.056,342.477 528.037,342.768 532.627,327.771C540.211,302.996 505.224,322.175 489.013,283.762C500.293,277.898 525.636,269.891 584.368,243.756C620.972,227.468 620.551,226.725 632.356,221.434L635.992,219.679L635.993,219.679Z" style="fill:rgb(37,102,167);"/>
                                <path d="M310.094,342.813C321.991,409.923 310.449,413.754 282.208,439.449C281.418,438.975 260.06,427.824 236.123,403.52C240.404,397.23 237.857,396.404 220.541,366.931C300.968,346.562 302.9,343.252 310.093,342.813L310.094,342.813Z" style="fill:rgb(38,102,168);"/>
                                <path d="M296.969,310.464C263.988,320.347 226.438,327.605 216.383,329.658C214.017,311.632 227.192,291.465 237.904,287.593C270.075,275.965 293.013,297.188 296.969,310.464Z" style="fill:rgb(37,102,168);"/>
                                <path d="M588.278,187.444C590.027,187.567 605.317,188.641 609.348,193.456C582.33,208.076 514.932,236.355 498.367,243.706C497.397,240.981 531.345,221.712 534.503,220.474C552.043,213.596 547.189,207.343 564.371,194.367C575.815,189.196 575.688,189.352 588.278,187.444Z" style="fill:rgb(38,104,167);"/>
                                <path d="M487.885,284.082L489.013,283.762C505.224,322.175 540.211,302.997 532.627,327.771C528.036,342.768 478.056,342.477 485.399,376.177C494.09,416.067 560.734,385.756 577.579,391.145C559.127,411.401 539.194,433.324 489.22,454.76C389.945,494.231 315.226,458.228 282.208,439.448C310.448,413.753 309.094,343.311 309.998,342.816C398.736,316.558 398.933,316.532 485.998,284.539C486.627,284.386 487.256,284.234 487.885,284.081L487.885,284.082Z" style="fill:rgb(88,161,217);"/>
                                <path d="M417.823,0.222L416.447,2.002C390.38,40.687 454.271,62.913 448.3,72.799C430.649,102.024 393.836,107.014 444.612,179.002C470.803,216.134 503.869,173.612 511.676,173.923C521.541,174.315 516.196,192.809 552,192.502C555.583,192.471 559.191,191.392 562.734,191.926C563.703,192.072 563.402,194.221 564.37,194.367C547.188,207.343 552.042,213.596 534.502,220.474C531.344,221.712 497.396,240.981 498.366,243.706C492.335,245.714 492.526,245.703 486.444,248.019C471.528,253.697 349.386,300.196 296.968,310.464C293.012,297.188 270.073,275.965 237.903,287.593C227.191,291.465 214.016,311.632 216.382,329.658C198.314,335.216 188.065,334.826 187.789,334.843L187.024,333.304C177.517,311.547 174.816,304.253 166.931,262.097C166.931,262.097 166.405,260.255 166.136,254.021C166.057,252.191 166.1,246.498 166.1,246.498C302.878,276.981 278.2,106.267 298.241,31.328C299.377,27.078 298.885,27.156 299.558,22.801C345.147,2.544 371.064,-1.029 417.824,0.222L417.823,0.222Z" style="fill:rgb(87,160,217);"/>
                                <path d="M623.394,158.772C626.858,169.583 626.759,169.431 630.079,180.235C629.653,184.7 627.817,183.652 611.031,192.393C610.47,192.747 609.909,193.102 609.348,193.456C605.317,188.641 590.026,187.567 588.278,187.444C594.446,179.548 622.99,169.576 620.858,162.881C620.858,162.881 620.039,160.448 623.394,158.771L623.394,158.772Z" style="fill:rgb(91,162,214);"/>
                                <path d="M326.987,53.315C344.835,29.714 374.463,28.521 384.421,48.408C408.268,96.033 351.47,116.342 333.155,92.046C315.911,69.172 325.918,56.655 326.987,53.315Z" style="fill:rgb(37,102,168);"/>
                            </g>
                        </g>
                    </g>
                </g>
            </g>
        </g>
    </g>
</svg>
