<?xml version="1.0" encoding="UTF-8" standalone="no"?>
<!DOCTYPE svg PUBLIC "-//W3C//DTD SVG 1.1//EN" "http://www.w3.org/Graphics/SVG/1.1/DTD/svg11.dtd">
<svg width="100%" height="100%" viewBox="0 0 449 440" version="1.1" xmlns="http://www.w3.org/2000/svg" xmlns:xlink="http://www.w3.org/1999/xlink" xml:space="preserve" xmlns:serif="http://www.serif.com/" style="fill-rule:evenodd;clip-rule:evenodd;stroke-linejoin:round;stroke-miterlimit:2;">
    <g transform="matrix(1,0,0,1,-10261.372778,-192.165405)">
        <g transform="matrix(2.211214,0,0,1.482332,-200.62803,92.293922)">
            <g id="Fondo" transform="matrix(0.346038,0,0,0.51619,4656.239588,-48.641288)">
                <path d="M803.044,377.468C800.478,392.439 796.755,390.727 777.701,400.89C748.783,416.314 739.078,422.703 731.595,413.426C730.494,412.061 728.942,406.273 725.663,407.882C709.139,415.988 709.513,416.537 547.667,499.808C536.628,505.488 536.262,505.47 536.332,506.522C536.407,507.638 562.624,517.502 569.602,549.479C574.581,572.296 562.86,588.36 564.199,591.632C566.197,596.511 655.725,758.559 656.828,764.442C661.065,787.059 629.833,797.299 619.948,781.203C618.036,778.09 569.396,688.231 543.022,638.763C534.975,623.669 534.578,622.506 533.654,623.593C532.727,624.684 533.856,624.915 533.893,641.494C533.961,671.507 533.93,778.633 533.86,779.518C531.749,806.236 490.791,806.473 490.323,777.503C490.257,773.411 490.207,630.958 490.345,628.501C490.403,627.476 490.671,626.472 490.752,625.448C491.304,618.458 485.805,631.596 469.329,661.41C450.54,695.411 424.616,744.399 420.781,751.644C404.386,782.627 403.615,783.185 401.105,785.001C384.683,796.886 357.035,781.145 371.732,755.632C373.421,752.701 459.92,592.179 460.173,591.394C461.573,587.048 449.234,576.886 454.388,550.493C455.08,546.952 451.977,549.254 413.426,569.358C364.311,594.971 363.73,596.034 355.42,593.797C339.406,589.486 339.484,585.137 335.196,588.047C326.766,593.77 323.994,583.148 321.418,584.262C320.409,584.699 294.777,598.182 293.679,598.818C288.62,601.746 290.503,604.944 283.594,608.669C273.36,614.187 271.58,614.099 271.08,617.463C270.324,622.557 250.465,631.522 237.934,609.255C217.992,573.821 217.677,571.237 217.226,567.539C215.184,550.771 229.051,540.399 234.777,544.086C238.653,546.583 244.185,539.196 251.493,538.438C258.886,537.672 258.651,536.827 280.753,524.964C281.882,524.358 288.071,521.937 287.436,519.513C285.616,512.56 285.441,511.141 292.58,507.628C294.513,506.677 294.886,482.146 305.656,475.746C327.549,462.736 570.701,321.328 593.759,307.918C633.379,284.877 655.507,272.705 655.902,270.592C656.037,269.869 651.491,256.678 660.606,251.697C683.98,238.924 684.484,240.059 707.768,226.998C712.776,224.189 728.905,215.142 763.061,272.754C801.764,338.035 802.753,368.506 803.044,377.468Z" style="fill:rgb(36,70,88);"/>
                <g transform="matrix(0.498291,-0.253892,0.340766,0.668792,246.776053,237.541351)">
                    <ellipse cx="753.437" cy="390.383" rx="11.905" ry="82.221" style="fill:rgb(106,200,221);"/>
                </g>
                <path d="M668.906,299.326C688.88,340.357 687.174,341.207 710.972,380.228C717.741,391.326 719.771,391.982 717.372,393.318C704.008,400.755 641.349,432.528 634.714,435.892C618.726,444 618.865,444.238 435.703,538.895C427.811,542.974 380.21,567.779 375.386,570.293C362.027,577.255 361.019,579.996 347.754,573.01C342.118,570.043 330.329,564.138 315.548,528.482C311.443,518.582 309.303,510.793 311.913,497.593C313.886,487.612 317.101,489.046 338.255,476.069C347.846,470.185 586.2,331.512 607.772,318.962C612.139,316.421 661.426,287.746 662.42,287.295C664.21,286.484 664.383,287.579 668.906,299.326Z" style="fill:rgb(107,207,229);"/>
                <path d="M546.075,584.266C545.454,585.449 542.741,590.623 534.207,596.028C494.985,620.868 454.234,572.613 478.787,537.692C480.08,535.852 481.611,533.675 502.74,522.981C516.456,516.039 536.234,526.789 542.025,533.899C559.935,555.888 551.355,575.07 546.075,584.266Z" style="fill:rgb(251,184,55);"/>
                <path d="M735.991,307.335C765.717,363.363 768.13,361.81 780.347,378.602C782.026,380.909 779.535,380.705 749.585,396.66C749.122,396.906 744.281,399.485 743.563,399.229C740.541,398.15 714.724,357.772 700.133,327.76C707.323,322.128 707.797,322.971 728.687,311.895C732.536,309.854 732.388,309.713 735.991,307.335Z" style="fill:rgb(160,166,176);"/>
                <path d="M735.991,307.335C732.388,309.713 732.536,309.854 728.687,311.895L700.133,327.76C697.632,322.813 669.573,267.324 673.675,263.721C673.847,263.57 707.638,246.016 707.727,245.975C712.847,243.638 710.47,248.486 718.275,268.588C724.991,285.885 734.327,303.882 735.991,307.335Z" style="fill:rgb(192,195,200);"/>
                <path d="M372.678,477.825C363.84,481.84 335.805,501.108 331.365,499.858C328.426,499.031 327.398,494.734 331.43,492.386C350.197,481.456 562.824,357.616 566.541,356.654C571.355,355.409 573.003,361.625 569.12,364.032C561.392,368.822 560.831,367.758 470.734,420.927C462.923,425.536 415.269,453.658 372.678,477.825Z" style="fill:rgb(244,253,252);"/>
                <path d="M517.655,624.504C517.719,636.899 518.443,776.236 517.355,779.452C515.491,784.964 506.703,783.484 506.556,777.496C506.485,774.567 506.126,622.531 506.744,621.617C507.499,620.502 514.792,620.729 515.495,620.751C518.106,620.832 517.366,621.866 517.655,624.504Z" style="fill:rgb(104,115,130);"/>
                <path d="M420.184,699.335C451.638,641.79 466.757,613.164 470.735,605.632C472.28,602.706 473.209,604.504 477.139,607.906C480.3,610.642 476.43,614.826 468.94,628.758C464.212,637.551 410.63,737.21 409.784,738.646C395.233,763.325 393.431,775.098 386.446,771.594C380.028,768.374 385.342,765.903 420.184,699.335Z" style="fill:rgb(104,115,129);"/>
                <path d="M622.776,733.351C639.765,764.69 640.656,764.405 640.862,767.488C641.077,770.699 635.207,776.349 630.932,768.258C594.004,698.352 554.075,625.92 547.284,613.601C544.613,608.755 546.794,608.606 550.893,604.956C553.326,602.789 552.833,606.113 572.119,639.725C575.784,646.113 618.738,725.853 622.776,733.351Z" style="fill:rgb(104,115,129);"/>
                <path d="M364.503,564.792C364.078,564.66 359.255,563.158 361.96,559.846C362.968,558.612 456.59,510.921 486.725,494.921C494.593,490.743 494.943,491.441 585.674,443.839C587.371,442.949 597.62,435.886 598.331,441.526C598.827,445.459 588.277,448.648 554.553,466.6C545.424,471.46 545.135,470.883 439.724,525.976C370.678,562.063 370.826,562.369 364.503,564.792Z" style="fill:rgb(29,75,96);"/>
                <path d="M302.908,558.362C309.67,570.287 309.957,571.084 308.235,572.054C289.638,582.538 289.001,582.539 287.718,581.278C287.262,580.83 270.813,551.461 270.754,550.458C270.637,548.442 273.09,548.334 287.49,540.482C289.427,539.426 291.278,536.729 294.071,541.743C294.804,543.059 294.637,543.118 302.908,558.362Z" style="fill:rgb(128,138,151);"/>
                <path d="M274.129,586.749C274.5,587.449 279.3,593.598 271.602,596.786C266.269,598.994 264.714,593.324 257.597,580.444C248.553,564.076 243.308,557.721 251.455,555.359C258.129,553.424 257.025,557.444 274.129,586.749Z" style="fill:rgb(105,117,131);"/>
                <path d="M256.525,605.211C251.642,603.443 251.28,600.195 249.33,596.599C237.768,575.276 230.877,567.831 235.673,563.702C239.835,560.12 241.628,564.901 247.869,576.285C258.195,595.122 266.285,604.497 256.525,605.211Z" style="fill:rgb(103,116,131);"/>
                <path d="M750.165,360.72C737.128,338.263 736.68,338.513 735.901,336.396C735.67,335.768 737.738,326.423 744.167,337.689C761.685,368.383 763.047,368.818 761.292,371.341C757.791,376.377 752.7,364.878 750.165,360.72Z" style="fill:rgb(39,68,85);"/>
                <path d="M612.61,436.705C602.928,441.294 605.635,434.279 605.969,433.805C607.048,432.274 607.197,432.365 626.581,422.681C629.9,421.023 634.939,425.251 627.302,429.124C616.453,434.626 616.489,434.486 612.61,436.705Z" style="fill:rgb(28,75,97);"/>
                <path d="M640.094,417.534C640.811,414.801 641.056,414.63 654.673,407.88C658.007,406.228 662.497,411.039 654.286,415.044C643.769,420.175 641.976,422.195 640.094,417.534Z" style="fill:rgb(26,75,98);"/>
                <path d="M470.286,578.458C470.373,577.805 470.459,577.153 470.546,576.5L471.5,577.015L470.286,578.458Z" style="fill:rgb(35,69,93);"/>
            </g>
        </g>
    </g>
</svg>
