<?xml version="1.0" encoding="UTF-8" standalone="no"?>
<!DOCTYPE svg PUBLIC "-//W3C//DTD SVG 1.1//EN" "http://www.w3.org/Graphics/SVG/1.1/DTD/svg11.dtd">
<svg width="100%" height="100%" viewBox="0 0 446 437" version="1.1" xmlns="http://www.w3.org/2000/svg" xmlns:xlink="http://www.w3.org/1999/xlink" xml:space="preserve" xmlns:serif="http://www.serif.com/" style="fill-rule:evenodd;clip-rule:evenodd;stroke-linejoin:round;stroke-miterlimit:2;">
    <g transform="matrix(1,0,0,1,-10894.995848,-213.899956)">
        <g transform="matrix(2.211214,0,0,1.482332,-200.62803,92.293922)">
            <g id="Fondo" transform="matrix(0.457969,0,0,0.683158,4884.333977,-120.663477)">
                <path d="M575.049,699.774C571.345,693.712 543.139,647.556 529.151,623.753C526.778,619.714 527.01,626.201 527.02,626.478C527.07,627.891 527.093,716.83 527.036,717.477C525.893,730.317 504.934,729.851 499.694,723.35C497.211,720.269 497.437,719.83 497.441,652.5C497.442,623.679 498.852,621.881 496.438,622.15C495.84,622.217 445.839,705.336 439.008,717.213C431.732,729.862 429.072,727.369 414.499,727.379C413.176,727.38 401.356,727.389 402.94,715.549C403.634,710.365 460.63,608.36 473.994,582.75C478.779,573.581 480.526,573.24 477.96,569.208C467.725,553.121 475.069,535.347 474.413,534.566C473.47,533.446 444.397,548.309 431.515,553.541C416.984,559.443 398.708,546.977 397.455,547.289C395.307,547.824 370.023,563.322 367.668,564.766C362.624,567.857 361.052,567.552 361.562,573.496C363.795,599.491 323.217,624.84 299.084,573.704C297.315,569.954 281.652,536.765 301.822,521.942C319.532,508.926 331.182,520.113 334.474,520.186C335.564,520.211 365.511,501.701 367.403,500.367C371.278,497.635 365.34,487.664 373.936,472.751C375.501,470.037 378.271,465.23 405.71,449.865C414.695,444.834 653.457,299.727 655.588,298.684C688.018,282.816 737.837,366.76 730.743,403.542C727.559,420.048 720.568,421.091 687.734,435.996C675.187,441.691 569.073,489.861 531.316,508.119C529.731,508.886 524.263,509.945 528.658,512.213C531.615,513.738 551.169,523.825 552.151,546.527C552.979,565.665 543.044,569.116 545.916,574.272C549.07,579.933 565.636,609.674 584.614,645.438C589.146,653.98 616.976,705.094 617.734,706.366C632.198,730.625 603.586,727.428 597.509,727.279C589.431,727.081 588.271,721.188 575.049,699.774Z" style="fill:rgb(48,63,83);"/>
                <path d="M659.743,372.378C659.743,372.378 395.269,506.044 387.061,512.811C381.491,502.388 379.336,481.95 388.821,475.978C435.696,446.469 436.508,447.931 483.662,418.755C508.13,403.615 617.14,337.929 628.762,330.926C644.83,321.244 645.888,320.144 646.005,321.704C646.005,321.704 645.708,335.471 649.816,348.403C654.016,361.622 658.767,370.545 659.743,372.378Z" style="fill:rgb(102,196,249);"/>
                <path d="M658.864,370.71C673.925,400.206 690.605,411.581 694.283,413.841C700.848,417.874 692.161,418.399 616.272,454.009C610.879,456.539 488.898,512.447 486.556,513.614C483.16,515.306 482.88,514.492 443.37,533.205C427.055,540.933 420.641,547.478 400.908,532.023C393.177,525.968 387.859,514.529 387.061,512.811C395.269,506.044 593.253,405.204 654.297,373.066C655.376,372.498 658.864,370.71 658.864,370.71Z" style="fill:rgb(54,169,252);"/>
                <path d="M535.529,536.483C550.882,567.015 505.999,591.527 488.657,560.416C474.524,535.063 513.725,502.994 535.529,536.483Z" style="fill:rgb(231,232,238);"/>
                <g transform="matrix(0.365693,-0.18633,0.492499,0.966583,103.264126,109.960528)">
                    <circle cx="990.504" cy="448.511" r="47.687" style="fill:rgb(251,173,12);"/>
                </g>
                <path d="M463.959,627.772C464.972,625.579 486.854,586.031 487.216,585.349C490.975,578.282 501.005,590.564 497.912,595.744C495.065,600.511 468.919,644.294 462.006,655.139C456.783,663.332 432.357,704.45 428.134,711.264C425.524,715.475 418.244,713.509 418.136,712.629C417.965,711.235 448.676,656.267 463.959,627.772Z" style="fill:rgb(59,123,197);"/>
                <g transform="matrix(-1,0,0,1,1024.870556,-0)">
                    <path d="M463.959,627.772C464.972,625.579 486.854,586.031 487.216,585.349C490.975,578.282 501.005,590.564 497.912,595.744C495.065,600.511 468.919,644.294 462.006,655.139C456.783,663.332 432.357,704.45 428.134,711.264C425.524,715.475 418.244,713.509 418.136,712.629C417.965,711.235 448.676,656.267 463.959,627.772Z" style="fill:rgb(237,62,70);"/>
                </g>
                <path d="M313.89,573.237C292.076,535.998 313.237,527.766 320.469,529.636C332.551,532.76 321.514,542.739 345.312,568.666C351.313,575.204 346.366,582.955 344.129,585.136C329.188,599.703 317.098,577.613 313.89,573.237Z" style="fill:rgb(249,174,15);"/>
                <path d="M435.488,470.623C428.148,468.637 429.377,462.158 435.595,458.677C447.86,451.811 447.678,451.519 448.763,450.959C457.347,446.531 509.197,414.942 511.651,413.9C517.031,411.617 519.83,416.223 519.633,419.51C519.45,422.549 519.185,423.244 488.238,441.011C451.187,462.283 442.344,469.557 435.488,470.623Z" style="fill:rgb(233,243,247);"/>
                <path d="M592.201,375.503C592.481,380.045 565.433,394.619 552.6,402.656C534.775,413.819 533.325,412.982 531.739,412.066C528.046,409.933 527.331,403.936 532.72,400.819C585.056,370.551 585.082,368.619 588.625,370.191C590.722,371.121 592.106,373.966 592.201,375.503Z" style="fill:rgb(234,243,248);"/>
                <path d="M366.382,531.291C346.843,542.655 345.41,545.621 342.804,541.339C339.77,536.356 336.817,535.027 341.754,531.922C344.029,530.491 363.774,518.072 370.573,514.639C373.448,513.187 372.799,515.392 374.886,519.297C376.053,521.48 380.212,523.193 373.356,527.232C372.8,527.559 369.487,529.511 366.382,531.291Z" style="fill:rgb(85,100,120);"/>
                <path d="M403.311,478.153C412.323,472.699 417.229,469.277 420.393,473.57C425.154,480.033 413.128,485.033 409.322,487.206C399.487,492.82 394.913,483.815 403.311,478.153Z" style="fill:rgb(231,243,247);"/>
                <g transform="matrix(0.987491,0,0,0.987491,-3882.184133,-493.388666)">
                    <circle cx="4544.565" cy="868.782" r="4.862" style="fill:rgb(234,243,248);"/>
                </g>
                <g transform="matrix(0.987491,0,0,0.987491,-3866.167469,-502.990279)">
                    <circle cx="4544.565" cy="868.782" r="4.862" style="fill:rgb(234,243,248);"/>
                </g>
            </g>
        </g>
    </g>
</svg>
