<?xml version="1.0" encoding="UTF-8" standalone="no"?>
<!DOCTYPE svg PUBLIC "-//W3C//DTD SVG 1.1//EN" "http://www.w3.org/Graphics/SVG/1.1/DTD/svg11.dtd">
<svg width="100%" height="100%" viewBox="0 0 475 479" version="1.1" xmlns="http://www.w3.org/2000/svg" xmlns:xlink="http://www.w3.org/1999/xlink" xml:space="preserve" xmlns:serif="http://www.serif.com/" style="fill-rule:evenodd;clip-rule:evenodd;stroke-linejoin:round;stroke-miterlimit:2;">
    <g transform="matrix(1,0,0,1,-10840.965429,-2255.194983)">
        <g transform="matrix(2.211214,0,0,1.482332,-200.62803,92.293922)">
            <g transform="matrix(0.110798,0,0,0.165279,5100.788975,1620.611953)">
                <g transform="matrix(1,0,0,1,-968.75,-977.083333)">
                    <clipPath id="_clip1">
                        <rect x="0" y="0" width="1937.5" height="1954.167"/>
                    </clipPath>
                    <g clip-path="url(#_clip1)">
                        <g transform="matrix(4.166667,0,0,4.166667,0,0)">
                            <ellipse cx="232.296" cy="234.417" rx="232.296" ry="234.417" style="fill:rgb(136,194,218);"/>
                            <g>
                                <path d="M193.716,3.56C193.716,3.56 209.351,4.642 197.777,20.193C197.777,20.193 182.865,32.264 181.374,41.85C181.374,41.85 180.806,46.821 186.487,48.454C186.487,48.454 196.57,49.519 205.943,44.62C205.943,44.62 220.784,37.803 223.056,37.661C223.056,37.661 242.37,35.247 249.471,30.347C249.471,30.347 263.673,22.384 265.377,16.283C265.377,16.283 267.649,10.217 263.46,6.311C263.46,6.311 258.23,2.963 251.489,1.451C232.667,-2.77 193.717,3.56 193.717,3.56L193.716,3.56Z" style="fill:white;"/>
                                <g>
                                    <path d="M423.295,188.526C428.083,189.726 428.084,196.78 433.45,200.796C435.925,202.649 441.385,204.18 453.104,221.503C457.966,228.691 462.907,227.041 464.565,227.311C467.449,433.989 237.448,539.609 85.333,415.981C95.42,404.243 99.132,406.757 103.066,394.141C103.066,394.141 107.861,393.089 108.87,393.63C109.957,394.212 117.173,398.079 122.701,400.435C168.244,419.845 208.579,419.544 216.214,419.487C266.565,419.111 285.336,401.18 300.456,396.885C306.465,406.345 305.958,409.883 316.45,405.724C319.541,404.499 339.476,395.183 345.208,375.961C345.251,375.817 345.144,375.907 345.611,366.342C345.84,361.642 346.571,362.136 348.732,357.165C354.892,352.714 354.798,351.548 362.443,347.209C368.148,344.877 369.051,341.499 370.203,339.674C373.096,301.38 396.746,289.544 396.648,289.351C400.829,281.233 402.395,279.62 403.087,278.954C407.169,275.126 408.688,276.999 409.706,271.565C410.571,266.945 408.612,267.141 406.466,266.383C406.895,266.028 408.616,266.583 409.45,261.966C410.825,254.359 412.296,251.455 412.514,251.038C414.941,251.49 427.426,254.404 440.223,239.229C440.513,238.885 447.498,228.608 444.177,223.958C437.163,214.137 426.771,216.592 423.014,196.823C422.575,192.572 422.669,192.741 423.294,188.525L423.295,188.526Z" style="fill:rgb(103,168,188);"/>
                                    <path d="M405.271,265.619L406.465,266.384C408.611,267.141 411,266.71 410.134,271.329C409.116,276.764 407.986,276.151 403.904,279.978C400.163,284.599 397.613,290.136 397.613,290.136L388.949,298.213L371.228,333.555C370.653,339.92 370.759,340.071 370.747,340.546C369.595,342.371 368.145,345.326 362.44,347.658C351.194,352.322 349.17,357.165 349.17,357.165C347.009,362.135 346.238,361.883 346.009,366.582C345.542,376.147 345.559,376.015 345.526,376.161C340.916,396.425 319.738,404.819 316.648,406.044C306.156,410.203 305.139,407.105 300.453,396.884L299.983,395.54C298.46,392.487 298.6,392.531 296.656,389.651C290.348,380.305 281.694,380.324 291.875,345.845C299.531,319.916 287.284,293.866 278.024,289.874C245.106,275.683 226.021,297.515 199.793,275.393C168.342,248.865 185.417,241.35 183.213,223.143C181.169,206.262 189.033,206.421 204.593,184.166C216.188,167.582 219.218,171.064 236.713,160.813C243.929,156.585 247.51,152.866 247.806,152.683C279.888,132.946 286.318,158.505 297.857,165.995C315.482,177.435 316.223,180.728 328.074,175.277C342.078,168.836 343.718,167.717 355.991,177.069C366.544,185.111 355.999,191.238 360.991,199.716C374.048,221.894 374.613,221.536 375.661,223.512C391.417,253.23 395.489,250.404 405.27,265.618" style="fill:rgb(111,168,95);"/>
                                    <path d="M362.443,347.659C354.349,350.49 353.249,349.604 349.173,357.166" style="fill:rgb(111,168,95);"/>
                                    <path d="M423.731,196.92C427.488,216.688 437.76,213.542 444.775,223.363C448.096,228.013 441.111,239.244 440.821,239.588C428.024,254.764 414.942,252.327 412.515,251.874C412.002,250.533 411.488,249.192 410.975,247.852C409.555,246.001 409.294,245.488 409.18,245.263C402.71,232.56 397.486,226.374 395.179,219.111C394.583,217.236 390.264,203.64 381.467,198.696C373.973,194.484 377.313,190.357 379.017,179.042C380.509,169.138 383.782,169.903 383.768,159.79C383.758,152.796 374.073,156.137 334.678,149.231C315.954,145.949 302.157,117.442 296.157,118.286C291.013,119.01 305.936,128.849 307.765,136.191C311.691,151.947 290.379,150.229 296.596,143.525C302.6,137.05 293.102,139.17 288.143,132.001C276.993,115.886 272.431,127.711 264.425,130.632C255.769,133.789 257.136,135.561 251.87,143.022C248.759,147.429 245.834,142.882 238.434,140C229.027,136.337 238.07,127.405 239.336,125.084C246.522,111.907 255.015,120.576 257.699,114.271C261.261,105.905 264.475,109.015 270.781,102.589C278.568,94.653 273.543,89.631 287.939,82.552C293.832,79.654 285.247,61.716 285.532,59.104C285.86,56.095 299.387,52.421 304.925,38.569C308.506,29.612 305.852,28.278 315.494,16.284C335.678,24.247 425.491,59.6 457.026,175.048C462.997,196.908 463.423,209.132 464.566,227.313C463.504,227.52 457.192,228.752 452.33,221.564C440.611,204.241 435.628,203.783 433.153,201.931C427.787,197.915 428.025,190.443 423.297,188.527C422.672,192.743 423.294,192.67 423.733,196.921" style="fill:rgb(106,165,92);"/>
                                    <path d="M2.199,202.112C27.545,207.23 4.015,235.466 15.028,233.336C19.613,232.449 24.519,213.789 38.107,220.808C50.569,227.246 48.634,229.392 50.251,234.309C54.955,248.607 55.027,248.519 57.1,260.49C60.422,279.672 113.92,277.111 127.69,305.994C131.092,313.129 129.846,316.976 117.76,337.226C103.362,361.348 102.557,361.863 103.452,389.946C103.323,391.345 103.194,392.744 103.065,394.142C99.131,406.758 95.419,404.244 85.332,415.982C43.702,384.102 7.687,319.601 4.665,279.641C15.635,263.268 14.521,262.279 12.816,242.609C12.289,236.525 9.609,237.43 7.481,228.821C5.731,221.74 5.499,221.735 0.705,216.271C1.223,210.414 1.161,209.624 2.198,202.112L2.199,202.112Z" style="fill:rgb(108,164,93);"/>
                                    <path d="M176.204,6.937C176.361,7.389 185.666,20.183 162.25,40.933C151.423,50.527 148.59,47.703 141.178,60.11C137.665,65.99 137.535,65.799 133.948,71.715C129.349,79.3 137.199,99.087 111.322,112.631C99.526,118.805 81.809,106.124 51.573,137.111C36.38,152.681 42.948,157.334 37.846,164.875C32.275,173.11 30.638,171.407 30.295,170.724C29.575,169.294 36.763,156.019 16.304,156.316C16.189,156.318 16.304,156.316 14.874,156.182L13.443,155.653C17.462,145.02 21.207,134.871 25.863,125.824C52.159,74.729 88.316,47.38 122.762,27.496C130.867,22.817 163.556,8.428 176.204,6.938L176.204,6.937Z" style="fill:rgb(111,168,97);"/>
                                    <path d="M0.75,216.324C5.543,221.788 5.732,221.739 7.482,228.82C9.61,237.43 12.29,236.525 12.817,242.608C14.522,262.278 15.636,263.267 4.666,279.64C0.228,270.384 -0.965,228.947 0.75,216.324Z" style="fill:rgb(135,195,209);"/>
                                    <path d="M50.745,199.844C62.623,200.24 58.527,208.299 56.269,207.701C46.7,205.17 39.41,211.02 36.224,203.589C34.567,199.724 36.078,199.002 30.987,193.226C25.086,186.531 19.803,193.755 17.807,187.25C16.303,182.35 18.658,182.905 23.388,181.004C25.519,180.148 29.874,176.412 33.923,180.649C45.719,192.995 39.978,202.809 50.746,199.843L50.745,199.844Z" style="fill:rgb(110,168,106);"/>
                                    <path d="M378.554,355.461C378.815,354.752 378.985,350.37 383.016,349.683C386.147,349.15 386.066,349.277 388.915,347.933C410.95,337.532 398.083,362.73 387.171,367.903C377.442,372.514 377.594,366.222 378.555,355.461L378.554,355.461Z" style="fill:rgb(86,138,79);"/>
                                    <path d="M270.987,89.401C270.066,98.652 258.261,102.37 257.6,96.289C257.07,91.411 245.362,90.145 250.743,85.328C261.045,76.106 262.907,76.855 266.291,80.686C269.67,84.511 270.376,84.258 270.987,89.401Z" style="fill:rgb(106,167,98);"/>
                                    <path d="M213.571,195.675C203.451,208.8 198.889,206.217 198.259,214.884C197.617,223.709 188.879,219.337 191.112,212.051C193.278,204.984 196.985,207.683 205.897,195.102C215.848,181.054 219.193,187.494 219.273,188.679C219.321,189.399 219.399,190.558 213.571,195.675Z" style="fill:rgb(144,196,137);"/>
                                    <path d="M319.732,73.119C316.796,74.046 312.529,76.777 314.279,70.134C315.759,64.514 314.481,46.361 322.227,49.826C326.983,51.954 318.988,57.419 322.524,64.51C325,69.477 324.561,70.506 319.733,73.119L319.732,73.119Z" style="fill:rgb(136,190,196);"/>
                                    <path d="M383.251,128.947C395.597,136.201 389.498,139.554 388.562,139.45C387.205,139.3 388.07,137.913 375.107,128.95C370.311,125.634 375.64,122.615 374.602,118.408C372.753,110.913 377.941,115.697 378.222,116.793C379.727,122.664 375.827,125.097 383.252,128.947L383.251,128.947Z" style="fill:rgb(143,196,140);"/>
                                    <path d="M110.131,103.334C96.771,110.028 100.362,94.99 107.626,92.838C112.743,91.322 119.573,94.766 110.131,103.334Z" style="fill:rgb(135,189,203);"/>
                                    <path d="M326.556,244.754C324.617,243.81 324.26,244.334 323.494,242.565C321.569,238.117 319.283,243.032 318.096,243.166C312.434,243.809 324.347,232.33 326.057,235.791C327.157,238.017 325.493,243.736 331.92,239.489C338.223,235.324 339.327,238.48 338.434,239.38C334.258,243.586 327.588,244.597 326.556,244.753L326.556,244.754Z" style="fill:rgb(139,196,131);"/>
                                    <path d="M68.816,102.253C67.995,102.472 53.991,106.21 58.264,100.988C58.819,100.31 59.544,101.644 67.797,95.586C74.113,90.95 74.347,96.506 73.725,97.462C71.818,100.395 71.722,100.238 68.816,102.252L68.816,102.253Z" style="fill:rgb(144,191,135);"/>
                                    <path d="M97.926,354.461C89.974,360.171 93.19,351.622 93.255,345.872C93.324,339.778 96.894,342.108 97.251,342.341C103.243,346.252 98.454,353.645 97.926,354.46L97.926,354.461Z" style="fill:rgb(148,196,136);"/>
                                    <path d="M154.295,34.499C143.175,38.547 153.975,24.797 157.431,28.111C159.639,30.228 154.74,34.144 154.295,34.499Z" style="fill:rgb(139,189,138);"/>
                                    <path d="M361.859,291.997C357.41,303.942 355.818,287.301 357.997,286.193C362.376,283.966 361.65,287.172 361.859,291.997Z" style="fill:rgb(145,195,133);"/>
                                    <path d="M233.521,176.224C233.361,176.768 231.105,184.423 227.586,180.104C225.281,177.276 231.39,167.263 233.521,176.224Z" style="fill:rgb(140,193,132);"/>
                                    <path d="M207.828,235.548C202.929,244.603 201.245,229.814 205.175,230.025C207.752,230.163 207.821,235.058 207.828,235.548Z" style="fill:rgb(138,194,127);"/>
                                    <path d="M122.77,49.785C122.449,49.967 117.333,52.877 118.473,48.106C119.497,43.821 128.272,44.74 125.217,48.048C124.538,48.783 123.448,49.05 122.77,49.785Z" style="fill:rgb(145,189,131);"/>
                                    <path d="M211.197,246.606C207.837,254.744 203.963,244.676 206.746,243.047C209.271,241.569 211.034,246.18 211.197,246.606Z" style="fill:rgb(140,190,128);"/>
                                    <path d="M86.44,89.225C78.347,93.379 81.902,86.617 82.248,86.408C82.552,86.224 84.722,84.916 86.557,85.333C89.216,85.937 87.801,86.953 86.44,89.225Z" style="fill:rgb(144,195,135);"/>
                                    <path d="M96.527,332.202C91.938,337.182 90.762,330.468 93.753,328.616C96.52,326.903 96.447,328.894 96.527,332.202Z" style="fill:rgb(136,191,125);"/>
                                    <path d="M433.144,178.87C432.35,173.141 435.125,174.743 435.397,174.977C436.169,175.641 437.655,180.752 436.66,181.622C434.941,183.125 435.053,181.402 433.144,178.869L433.144,178.87Z" style="fill:rgb(123,175,123);"/>
                                    <path d="M370.764,305.93C366.469,312.129 366.178,306.175 366.289,305.835C366.613,304.836 368.379,302.648 369.24,302.594C371.572,302.447 370.731,303.547 370.764,305.931L370.764,305.93Z" style="fill:rgb(141,194,127);"/>
                                </g>
                            </g>
                        </g>
                    </g>
                </g>
            </g>
        </g>
    </g>
</svg>
