<?xml version="1.0" encoding="UTF-8" standalone="no"?>
<!DOCTYPE svg PUBLIC "-//W3C//DTD SVG 1.1//EN" "http://www.w3.org/Graphics/SVG/1.1/DTD/svg11.dtd">
<svg width="100%" height="100%" viewBox="0 0 476 479" version="1.1" xmlns="http://www.w3.org/2000/svg" xmlns:xlink="http://www.w3.org/1999/xlink" xml:space="preserve" xmlns:serif="http://www.serif.com/" style="fill-rule:evenodd;clip-rule:evenodd;stroke-linejoin:round;stroke-miterlimit:2;">
    <g transform="matrix(1,0,0,1,-11515.740747,-2240.407154)">
        <g transform="matrix(2.211214,0,0,1.482332,-200.62803,92.293922)">
            <g transform="matrix(0.114208,0,0,0.170365,5406.159055,1610.635898)">
                <g transform="matrix(1,0,0,1,-941.666667,-947.916667)">
                    <g id="Fondo" transform="matrix(4.166667,0,0,4.166667,0,0)">
                        <path d="M451.613,213.087C452.903,252.174 449.843,283.428 428.243,329.175C411.76,364.084 362.508,430.266 275.519,449.067C258.844,452.671 190.101,468.725 112.003,423.894C19.293,370.676 -35.468,243.074 26.185,120.812C56.903,59.898 143.679,-18.377 268.87,3.871C348.192,17.968 443.463,90.027 451.612,213.087L451.613,213.087Z" style="fill:rgb(141,192,202);"/>
                        <path d="M222.276,450.914C167.259,449.409 134.486,432.974 106.271,415.701C68.917,392.833 45.887,358.459 41.867,352.46C-15.038,267.528 -6.252,155.593 58.644,80.562C140.091,-13.603 275.831,-15.327 357.824,47.337C430.082,102.562 441.004,167.179 446.126,196.792C452.27,232.315 445.709,289.782 422.991,331.056C395.067,381.788 362.019,410.703 313.754,432.844C273.959,451.1 229.736,450.941 222.276,450.914Z" style="fill:rgb(53,79,84);"/>
                        <path d="M313.281,169.335C313.281,169.335 322.465,164.269 313.003,161.037C297.846,155.86 281.458,168.426 273.234,154.861C270.844,150.919 270.407,138.057 289.334,131.125C326.291,117.591 355.709,122.849 364.861,118.49C364.993,118.427 364.983,118.431 366.514,117.7C371.974,114.446 374.469,106.208 363.868,105.609C355.74,105.15 345.128,105.749 340.358,96.767C337.532,91.446 348.32,76.758 366.33,78.73C385.457,80.824 385.359,82.29 388.848,86.561C393.98,92.843 398.586,98.053 404.099,106.608C408.783,113.771 443.963,163.958 439.869,239.271C439.821,240.156 438.896,241.985 429.217,236.221C427.701,235.318 403.259,216.752 396.244,207.629C389.28,198.571 372.138,178.748 366.168,175.756C354.108,169.712 338.014,179.06 325.232,174.187L313.281,169.336" style="fill:rgb(133,187,122);"/>
                        <path d="M326.801,174.709C319.922,175.018 321.394,171.475 304.907,175.332C269.521,183.611 258.515,196.053 251.985,203.463C242.739,213.953 238.346,248.563 265.071,265.901C288.963,281.401 292.41,274.608 309.565,286.326C325.042,296.898 336.519,299.842 335.388,318.683C335.013,324.931 324.211,337.47 332.34,356.959C332.622,357.634 332.722,357.573 336.068,365.306C338.854,371.742 336.983,372.679 346.785,386.526C347.176,387.078 349.899,391.718 353.139,397.732C342.812,404.421 294.299,448.21 207.39,440.426C176.122,437.625 161.308,428.936 159.971,427.101C157.056,416.93 150.338,414.785 153.012,405.507C155.659,396.323 164.086,384.335 171.684,381.227C178.256,378.538 185.76,378.321 197.282,363.182C207.688,349.51 222.556,344.694 224.545,343C231.182,337.347 236.686,330.808 235.355,312.944C234.192,297.337 221.702,289.755 219.72,288.552C203.341,278.61 192.404,285.458 187.313,274.369C181.99,262.774 179.389,264.639 172.001,254.266C158.298,235.028 151.047,234.65 148.601,234.522C117.324,232.89 114.692,236.097 102.775,238.425C98.549,239.25 81.194,237.493 74.506,228.373C64.154,214.257 66.841,210.551 52.593,199.533C48.657,196.489 43.163,194.841 52.541,181.776C61.593,169.164 73.177,170.743 80.701,171.047C99.385,171.802 98.42,198.661 109.265,193.313C117.914,189.047 108.152,171.881 121.624,166.481C122.545,166.112 141.427,162.788 136.917,139.486C133.314,120.871 140.997,122.681 152.228,106.934C163.939,90.515 174.706,97.658 184.245,84.33C188.733,78.06 186.985,70.832 196.463,55.363C197.389,53.852 203.216,50.408 192.433,39.15C188.192,34.722 187.969,35.059 183.085,31.252C184.404,29.871 188.512,29.775 191.24,29.768C192.733,43.238 219.761,18.383 223.547,31.503C224.816,35.901 203.624,45.578 208.196,56.034C211.152,62.793 215.879,57.77 236.977,62.641C255.185,66.845 288.59,50.945 286.612,34.73C285.911,28.98 285.117,28.641 288.31,23.82C290.816,20.101 291.739,21.588 295.957,23.151C342.098,40.25 360.043,59.668 374.718,71.418C384.776,79.472 364.372,62.165 341.21,79.217C325.981,90.428 333.683,110.715 352.359,111.845C352.601,111.86 360.723,112.351 354.761,113.686C350.533,114.633 339.732,110.161 297.641,120.899C246.135,134.04 264.58,171.43 288.573,169.03C301.749,167.712 302.117,164.655 313.282,169.337" style="fill:rgb(2,210,240);"/>
                        <path d="M312.97,169.926L324.516,175.058" style="fill:none;"/>
                        <path d="M408.613,228.999C410.093,230.1 410.043,230.105 415.35,234.445C416.642,235.479 416.637,235.468 416.746,235.562C426.057,243.619 426.631,242.662 437.556,248.215C438.667,248.78 439.686,249.298 437.257,263.787C429.69,308.91 411.702,335.342 407.321,342.454C388.857,372.433 366.468,389.891 366.37,389.952C358.038,395.065 353.954,384.477 351.914,381.451C344.517,370.483 345.901,369.838 340.461,357.796C330.542,335.839 342.501,327.733 342.676,317.858C342.999,299.633 332.862,293.76 330.585,292.086C300.295,269.813 294.494,271.564 293.457,271.268C276.97,266.576 262.197,256.589 259.007,250.8C251.562,237.289 252.202,232.493 252.211,223.732C252.248,188.909 318.943,179.623 320.564,180.074C325.163,181.353 325.003,184.101 350.788,181.422C363.5,180.101 363.88,181.676 373.9,192.427C391.162,210.949 388.765,213.301 408.613,229L408.613,228.999Z" style="fill:rgb(133,187,122);"/>
                        <path d="M379.314,205C393.029,225.794 408.045,234.397 412.257,239.185C417.759,245.437 429.905,251.101 431.582,251.882C435.206,253.572 433.047,257.953 432.453,263.004C430.611,278.673 425.578,286.753 423.497,296.543C423.437,296.825 420.997,302.493 420.775,303.008C413.527,319.843 405.867,331.325 404.324,333.639C401.695,337.58 402.625,338.302 399.996,340.844C399.295,341.522 391.489,351.967 390.76,352.943C389.974,353.994 381.601,363.099 380.134,364.393C363.942,378.673 357.631,364.613 355.973,362.65C354.957,361.446 350.58,351.479 350.146,350.491C344.345,337.279 350.456,324.885 346.68,311.303C345.558,307.268 346.307,307.17 344.967,303.142C342.082,294.464 341.8,291.431 333.708,286.546C333.098,286.178 324.121,280.073 321.296,280.161C320.364,280.19 320.323,280.121 319.912,279.282C318.535,276.473 317.748,277.371 309.969,272.57C301.912,267.597 301.446,268.727 300.89,268.474C300.09,268.109 300.547,267.335 290.173,262.256C276.154,255.392 262.224,237.911 269.073,218.882C275.164,201.961 277.891,203.682 288.545,193.433C296.699,185.589 318.661,187.924 350.779,186.411C357.129,186.112 361.544,184.298 379.315,205.001L379.314,205Z" style="fill:rgb(149,203,127);"/>
                        <path d="M127.023,404.751C126.036,402.573 125.97,402.68 125.066,400.433C110.148,363.324 104.339,359.309 104.17,345.683C103.936,326.864 108.821,324.752 92.571,302.596C71.894,274.405 81.019,269.698 100.523,250.122C107.901,242.716 108.913,244.346 119.19,242.722C132.641,240.596 132.619,240.999 146.178,241.43C148.507,241.504 154.243,241.686 167.904,260.829C173.031,268.013 175.858,267.821 179.529,274.571C186.208,286.851 187.511,286.676 204.2,290.326C206.819,290.899 227.809,295.49 228.167,313.757C228.381,324.685 228.791,333.488 215.879,339.482C194.591,349.365 192.933,360.304 182.791,368.343C176.887,373.024 163.187,372.729 152.976,389.226C137.286,414.577 149.788,416.351 152.794,422.56C155.704,428.569 146.818,424.146 146.347,423.911C129.633,415.592 130.425,412.294 127.023,404.751Z" style="fill:rgb(132,186,122);"/>
                        <path d="M76.428,239.565C86.638,245.251 88.779,244.195 92.982,244.962C95.357,245.396 91.086,250.602 89.019,249.605C75.659,243.161 75.492,243.572 74.353,242.973C59.161,234.982 61.86,224.993 51.07,214.888C40.353,204.851 34.331,211.882 17.388,188.765C16.102,187.01 14.217,186.341 24.474,154.264C34.296,123.545 63.12,79.776 96.487,55.472C100.654,52.437 103.12,56.213 111.749,54.895C140.018,50.577 147.97,34.884 160.871,34.351C167.425,34.08 180.699,33.15 190.786,48.802C192.51,51.477 184.294,59.103 181.72,70.774C178.807,83.98 175.44,84.271 162.609,89.698C147.108,96.255 150.369,100.365 136.994,113.903C122.833,128.236 131.066,134.512 130.311,150.067C129.658,163.528 106.789,152.476 106.443,182.1C106.404,185.429 104.867,183.559 104.796,183.406C98.779,170.411 94.405,162.494 70.846,163.729C68.29,163.863 53.408,164.643 44.117,181.324C35.422,196.936 41.736,200.758 50.128,206.916C62.874,216.268 62.326,230.266 76.428,239.565Z" style="fill:rgb(144,198,128);"/>
                        <path d="M121.469,380.932C118.884,376.509 119.514,376.243 117.08,371.72C107.101,353.18 113.128,349.477 114.717,332.564C115.841,320.605 113.29,320.526 111.129,316.128C100.206,293.897 82.883,285.357 94.954,271.486C113.046,250.698 112.655,249.745 115.026,249.646C130.372,249.005 144.906,247.877 147.791,248.398C150.149,248.823 158.608,260.937 160.261,261.959C165.817,265.397 178.009,280.143 179.404,282.123C181.434,285.005 181.407,284.924 183.665,287.659C189.045,294.177 196.968,293.732 198.664,294.59C199.402,294.963 226.755,300.406 222.249,321.939C220.486,330.364 214.084,333.046 207.615,336C192.722,342.799 188.967,352.901 178.499,362.534C170.428,369.962 167.518,367.23 157.453,374.068C156.678,374.595 150.237,378.971 148.489,381.611C141.987,391.43 140.517,404.499 136.354,404.784C131.205,405.136 129.325,397.583 121.472,380.932L121.469,380.932Z" style="fill:rgb(149,203,128);"/>
                        <path d="M12.414,225.371C12.428,223.666 12.533,211.014 13.436,204.079C13.512,203.492 13.678,194.945 16.336,198.896C16.917,199.76 24.535,210.117 37.378,215.383C47.799,219.656 48.115,220.136 57.179,236.706C66.725,254.156 88.259,252.05 83.638,257.002C68.136,273.614 71.134,284.603 86.897,306.626C99.265,323.906 97.168,325.204 97.1,346.496C97.055,360.695 108.37,378.618 110.634,384.273C123.401,416.174 126.741,418.602 124.078,417.531C122.499,416.896 121.208,415.701 119.755,414.817C114.115,411.386 81.061,391.276 57.555,360.585C22.55,314.881 12.681,274.139 12.416,225.371L12.414,225.371Z" style="fill:rgb(2,210,240);"/>
                        <path d="M230.03,28.785C221.898,12.558 207.194,24.897 194.437,26.414C191.227,26.796 191.325,29.343 191.239,29.766C188.511,29.773 184.403,29.87 183.084,31.25C172.616,26.646 172.401,27.364 160.909,26.87C146.123,26.235 142.803,41.373 112.66,47.33C111.297,47.599 109.975,48.284 108.588,48.216C106.12,48.095 111.236,45.115 111.541,44.938C143.577,26.277 185.934,4.867 259.162,14.662C281.602,17.663 282.374,19.209 281.594,20.901C278.237,28.184 278.674,28.408 279.742,36.302C280.637,42.919 255.84,59.699 236.969,55.294C220.843,51.53 211.393,55.607 217.45,48.674C225.004,40.027 233.507,38.97 230.031,28.784L230.03,28.785Z" style="fill:rgb(133,186,128);"/>
                        <path d="M153.45,61.404C156.704,60.588 160.293,60.325 164.662,54.868C168.293,50.334 171.985,45.715 168.227,46.595C142.187,52.694 141.683,62.6 129.273,71.896C119.051,79.553 124.503,84.514 119.231,86.449C111.546,89.27 114.117,74.519 122.689,67.753C133.109,59.529 140.039,49.661 148.508,45.904C157.513,41.91 172.457,35.333 176.562,42.796C180.241,49.484 170.252,59.3 167.789,62.002C157.08,73.752 148.579,63.013 139.887,79.033C135.507,87.106 130.188,81.951 132.634,76.624C139.249,62.218 151.997,61.747 153.448,61.405L153.45,61.404Z" style="fill:rgb(54,79,82);"/>
                    </g>
                </g>
            </g>
        </g>
    </g>
</svg>
