<?xml version="1.0" encoding="UTF-8" standalone="no"?>
<!DOCTYPE svg PUBLIC "-//W3C//DTD SVG 1.1//EN" "http://www.w3.org/Graphics/SVG/1.1/DTD/svg11.dtd">
<svg width="100%" height="100%" viewBox="0 0 371 457" version="1.1" xmlns="http://www.w3.org/2000/svg" xmlns:xlink="http://www.w3.org/1999/xlink" xml:space="preserve" xmlns:serif="http://www.serif.com/" style="fill-rule:evenodd;clip-rule:evenodd;stroke-linejoin:round;stroke-miterlimit:2;">
    <g transform="matrix(1,0,0,1,-15742.939238,-214.475356)">
        <g transform="matrix(0.888592,0,0,0.800591,10390.820761,0)">
            <g transform="matrix(0.251691,0,0,0.279357,6231.837171,553.072822)">
                <g transform="matrix(1,0,0,1,-829.166667,-1020.833333)">
                    <clipPath id="_clip1">
                        <rect x="0" y="0" width="1658.333" height="2041.667"/>
                    </clipPath>
                    <g clip-path="url(#_clip1)">
                        <g transform="matrix(4.166667,0,0,4.166667,0,0)">
                            <path d="M290.473,465.882C187.433,524.283 -3.262,481.287 0.043,238.964C2.251,77.114 125.092,-42.233 265.187,14.194C414.616,74.38 455.882,366.977 290.473,465.882Z" style="fill:rgb(238,246,250);"/>
                        </g>
                        <g transform="matrix(4.166667,0,0,4.166667,0,0)">
                            <ellipse cx="198.599" cy="244.578" rx="49.843" ry="92.174" style="fill:rgb(49,27,66);"/>
                        </g>
                    </g>
                </g>
            </g>
        </g>
    </g>
</svg>
