<?xml version="1.0" encoding="UTF-8" standalone="no"?>
<!DOCTYPE svg PUBLIC "-//W3C//DTD SVG 1.1//EN" "http://www.w3.org/Graphics/SVG/1.1/DTD/svg11.dtd">
<svg width="100%" height="100%" viewBox="0 0 269 457" version="1.1" xmlns="http://www.w3.org/2000/svg" xmlns:xlink="http://www.w3.org/1999/xlink" xml:space="preserve" xmlns:serif="http://www.serif.com/" style="fill-rule:evenodd;clip-rule:evenodd;stroke-linejoin:round;stroke-miterlimit:2;">
    <g transform="matrix(1,0,0,1,-16306.453331,-211.919282)">
        <g transform="matrix(0.888592,0,0,0.800591,10390.820761,0)">
            <g transform="matrix(0.251691,0,0,0.279357,6808.323039,549.880089)">
                <g transform="matrix(1,0,0,1,-600,-1020.833333)">
                    <g transform="matrix(4.166667,0,0,4.166667,0,0)">
                        <path d="M245.476,350.284C246.712,351.046 296.147,370.871 286.298,432.28C282.768,454.288 257.63,486.479 219.627,487.659C70.714,492.284 59.837,485.385 48.241,478.029C-2.798,445.655 -6.049,375.317 58.741,347.4C81.532,337.58 80.365,332.1 80.675,257.573C80.896,204.634 80.707,195.59 67.649,194.723C8.592,190.804 -31.559,129.137 33.066,67.338C72.06,30.049 134.665,-34.596 198.6,22.784C228.038,49.203 220.091,85.395 221.463,185.178C221.49,187.172 221.854,261.775 220.977,303.244C220.302,335.134 220.8,338.657 245.477,350.284L245.476,350.284Z" style="fill:rgb(236,245,249);"/>
                    </g>
                </g>
            </g>
        </g>
    </g>
</svg>
