<?xml version="1.0" encoding="UTF-8" standalone="no"?>
<!DOCTYPE svg PUBLIC "-//W3C//DTD SVG 1.1//EN" "http://www.w3.org/Graphics/SVG/1.1/DTD/svg11.dtd">
<svg width="100%" height="100%" viewBox="0 0 393 457" version="1.1" xmlns="http://www.w3.org/2000/svg" xmlns:xlink="http://www.w3.org/1999/xlink" xml:space="preserve" xmlns:serif="http://www.serif.com/" style="fill-rule:evenodd;clip-rule:evenodd;stroke-linejoin:round;stroke-miterlimit:2;">
    <g transform="matrix(1,0,0,1,-17637.126093,-211.919282)">
        <g transform="matrix(0.888592,0,0,0.800591,10390.820761,0)">
            <g transform="matrix(0.258009,0,0,0.28637,8375.735765,549.880089)">
                <g transform="matrix(1,0,0,1,-856.25,-995.833333)">
                    <g transform="matrix(4.166667,0,0,4.166667,0,0)">
                        <path d="M159.03,217.41C201.831,217.346 217.285,225.776 221.372,183.211C231.264,80.195 232.207,78.317 236.301,70.165C244.358,54.12 248.866,30.208 296.109,27.165C307.976,26.401 330.757,34.004 343.38,54.327C360.666,82.158 357.501,83.678 357.676,142.573C357.879,210.723 353.755,213.144 361.351,218.263C388.773,236.742 394.561,232.531 406.361,263.37C417.74,293.108 405.301,337.961 373.187,345.662C360.573,348.687 354.67,343.471 353.683,356.586C352.818,368.07 370.63,496.111 255.371,475.664C202.338,466.256 202.488,411.999 202.507,404.935C202.605,369.586 206.95,343.526 195.445,343.104C112.712,340.066 22.405,361.535 1.785,283.757C-12.134,231.257 58.948,127.785 91.279,54.263C136.511,-48.598 231.918,14.232 209.107,82.773C188.419,144.934 140.315,209.474 154.372,216.041C155.838,216.726 157.565,216.724 159.031,217.41L159.03,217.41Z" style="fill:rgb(239,246,250);"/>
                    </g>
                </g>
            </g>
        </g>
    </g>
</svg>
