<?xml version="1.0" encoding="UTF-8" standalone="no"?>
<!DOCTYPE svg PUBLIC "-//W3C//DTD SVG 1.1//EN" "http://www.w3.org/Graphics/SVG/1.1/DTD/svg11.dtd">
<svg width="100%" height="100%" viewBox="0 0 345 457" version="1.1" xmlns="http://www.w3.org/2000/svg" xmlns:xlink="http://www.w3.org/1999/xlink" xml:space="preserve" xmlns:serif="http://www.serif.com/" style="fill-rule:evenodd;clip-rule:evenodd;stroke-linejoin:round;stroke-miterlimit:2;">
    <g transform="matrix(1,0,0,1,-15746.864626,-780.948864)">
        <g transform="matrix(0.888592,0,0,0.800591,10390.820761,0)">
            <g transform="matrix(0.254286,0,0,0.282237,6221.453818,1260.641817)">
                <g transform="matrix(1,0,0,1,-762.5,-1010.416667)">
                    <g transform="matrix(4.166667,0,0,4.166667,0,0)">
                        <path d="M191.558,337.717C237.571,313.788 215.88,277.39 172.279,278.701C142.666,279.591 27.964,334.512 32.14,207.993C36.881,64.332 21.934,32.628 80.79,6.016C88.216,2.658 88.472,0.81 281.869,0.002C339.63,-0.239 373.387,60.682 352.187,105.248C316.759,179.721 189.2,125.672 173.286,151.761C161.43,171.197 220.798,158.666 248.169,165.352C426.911,209.016 399.308,475.1 183.664,484.337C-1.727,492.278 -43.913,349.256 44.21,310.787C105.553,284.009 109.344,353.327 191.559,337.718L191.558,337.717Z" style="fill:rgb(239,246,250);"/>
                    </g>
                </g>
            </g>
        </g>
    </g>
</svg>
