<?xml version="1.0" encoding="UTF-8" standalone="no"?>
<!DOCTYPE svg PUBLIC "-//W3C//DTD SVG 1.1//EN" "http://www.w3.org/Graphics/SVG/1.1/DTD/svg11.dtd">
<svg width="100%" height="100%" viewBox="0 0 348 457" version="1.1" xmlns="http://www.w3.org/2000/svg" xmlns:xlink="http://www.w3.org/1999/xlink" xml:space="preserve" xmlns:serif="http://www.serif.com/" style="fill-rule:evenodd;clip-rule:evenodd;stroke-linejoin:round;stroke-miterlimit:2;">
    <g transform="matrix(1,0,0,1,-16266.827465,-780.948864)">
        <g transform="matrix(0.888592,0,0,0.800591,10390.820761,0)">
            <g transform="matrix(0.253762,0,0,0.281656,6808.323039,1260.641817)">
                <g transform="matrix(1,0,0,1,-770.833333,-1012.5)">
                    <clipPath id="_clip1">
                        <rect x="0" y="0" width="1541.667" height="2025"/>
                    </clipPath>
                    <g clip-path="url(#_clip1)">
                        <g transform="matrix(4.166667,0,0,4.166667,0,0)">
                            <path d="M208.8,178.803C387.852,182.348 398.823,356.525 329.896,428.981C225.723,538.486 37.289,478.551 6.342,348.433C-18.538,243.822 36.674,167.566 53.445,141.027C63.567,125.01 173.537,-49.003 253.012,13.489C321.173,67.084 240.413,136.03 214.367,163.845C203.04,175.941 208.831,177.792 208.8,178.802L208.8,178.803Z" style="fill:rgb(236,245,249);"/>
                        </g>
                        <g transform="matrix(4.166667,0,0,4.166667,0,0)">
                            <circle cx="184.579" cy="316.167" r="38.182" style="fill:rgb(49,27,66);"/>
                        </g>
                    </g>
                </g>
            </g>
        </g>
    </g>
</svg>
