<?xml version="1.0" encoding="UTF-8" standalone="no"?>
<!DOCTYPE svg PUBLIC "-//W3C//DTD SVG 1.1//EN" "http://www.w3.org/Graphics/SVG/1.1/DTD/svg11.dtd">
<svg width="100%" height="100%" viewBox="0 0 375 457" version="1.1" xmlns="http://www.w3.org/2000/svg" xmlns:xlink="http://www.w3.org/1999/xlink" xml:space="preserve" xmlns:serif="http://www.serif.com/" style="fill-rule:evenodd;clip-rule:evenodd;stroke-linejoin:round;stroke-miterlimit:2;">
    <g transform="matrix(1,0,0,1,-16742.022885,-780.948864)">
        <g transform="matrix(0.888592,0,0,0.800591,10390.820761,0)">
            <g transform="matrix(0.255868,0,0,0.283993,7358.046148,1260.641817)">
                <g transform="matrix(1,0,0,1,-822.916667,-1004.166667)">
                    <g transform="matrix(4.166667,0,0,4.166667,0,0)">
                        <path d="M190.353,149.251C181.56,153.351 170.385,158.561 69.167,153.808C45.813,152.711 -16.3,117.832 4.023,52.068C20.006,0.345 92.543,0.333 101.361,0.332C317.288,0.297 317.509,-1.266 335.843,2.709C397.987,16.181 408.116,92.448 379.665,128.756C297.423,233.708 242.884,251.776 219.827,399.668C205.559,491.185 118.842,487.923 93.596,474.858C-33.063,409.312 126.38,200.928 190.353,149.252L190.353,149.251Z" style="fill:rgb(235,244,249);"/>
                    </g>
                </g>
            </g>
        </g>
    </g>
</svg>
