<?xml version="1.0" encoding="UTF-8" standalone="no"?>
<!DOCTYPE svg PUBLIC "-//W3C//DTD SVG 1.1//EN" "http://www.w3.org/Graphics/SVG/1.1/DTD/svg11.dtd">
<svg width="100%" height="100%" viewBox="0 0 332 457" version="1.1" xmlns="http://www.w3.org/2000/svg" xmlns:xlink="http://www.w3.org/1999/xlink" xml:space="preserve" xmlns:serif="http://www.serif.com/" style="fill-rule:evenodd;clip-rule:evenodd;stroke-linejoin:round;stroke-miterlimit:2;">
    <g transform="matrix(1,0,0,1,-17218.654368,-780.948864)">
        <g transform="matrix(0.888592,0,0,0.800591,10390.820761,0)">
            <g transform="matrix(0.253762,0,0,0.281656,7870.498396,1260.641817)">
                <g transform="matrix(1,0,0,1,-735.416667,-1012.5)">
                    <g transform="matrix(4.166667,0,0,4.166667,0,0)">
                        <g>
                            <path d="M318.769,238.098C407.359,348.276 314.119,518.652 127.618,479.913C28.264,459.276 -48.918,327.061 37.289,233.922C54.759,215.047 -9.543,202.682 25.588,97.528C66.619,-25.286 290.11,-47.983 335.898,122.294C339.901,137.181 341.213,166.825 335.432,186.083C324.098,223.836 312.607,222.156 318.77,238.099L318.769,238.098Z" style="fill:rgb(234,244,249);"/>
                            <circle cx="176.275" cy="329.094" r="35.644" style="fill:rgb(49,27,66);"/>
                            <circle cx="176.275" cy="142.521" r="35.644" style="fill:rgb(49,27,66);"/>
                        </g>
                    </g>
                </g>
            </g>
        </g>
    </g>
</svg>
