<?xml version="1.0" encoding="UTF-8" standalone="no"?>
<!DOCTYPE svg PUBLIC "-//W3C//DTD SVG 1.1//EN" "http://www.w3.org/Graphics/SVG/1.1/DTD/svg11.dtd">
<svg width="100%" height="100%" viewBox="0 0 992 992" version="1.1" xmlns="http://www.w3.org/2000/svg" xmlns:xlink="http://www.w3.org/1999/xlink" xml:space="preserve" xmlns:serif="http://www.serif.com/" style="fill-rule:evenodd;clip-rule:evenodd;stroke-linecap:round;stroke-linejoin:round;stroke-miterlimit:1.5;">
    <g transform="matrix(1,0,0,1,-156.731298,-141.409307)">
        <g transform="matrix(1,0,0,1,-1305.012779,0)">
            <g transform="matrix(1,0,0,1,1357.255983,36.921214)">
                <g transform="matrix(1.125692,0,0,1.125692,-112.528894,-129.708903)">
                    <circle cx="632.97" cy="648.231" r="436.009" style="fill:rgb(253,254,254);stroke:rgb(12,78,134);stroke-width:8.35px;"/>
                </g>
                <g id="Fondo" transform="matrix(1.171875,0,0,1.171875,-0.138728,-6.091461)">
                    <path d="M238.184,372.604C238.076,372.204 237.933,371.814 237.826,371.414C235.726,363.609 234.445,347.788 241.381,335.429C245.127,328.755 251.604,324.275 257.456,323.264C268.238,321.401 274.054,325.381 277.559,328.43C291.891,340.901 290.215,368.233 283.144,380.297C272.766,398.001 255.677,392.574 251.57,390.371C241.44,384.937 238.65,373.92 238.184,372.604Z" style="fill:rgb(16,75,99);"/>
                    <path d="M216.055,667.511C216.057,667.412 215.682,663.463 218.313,658.4C219.847,655.448 225.424,650.25 233.502,649.521C242.841,648.679 248.238,653.317 248.507,653.49C255.293,657.824 257.699,668.538 252.975,675.8C249.995,680.381 247.856,679.538 248.61,681.441C248.751,681.798 251.32,683.122 252.256,683.83C258.608,688.641 259.093,695.373 259.176,696.527C260.271,711.737 247.89,719.097 237.521,719.818C227.655,720.504 221.829,716.047 220.722,715.2C220.423,714.971 213.773,710.419 212.533,702.495C210.912,692.143 216.425,686.428 216.9,685.836C219.825,682.189 224.488,682.07 221.536,679.466C215.887,674.485 216.122,668.811 216.055,667.511Z" style="fill:rgb(16,75,99);"/>
                    <path d="M215.091,514.416C214.618,516.274 213.976,520.5 210.14,527.286C210.106,527.346 205.5,534.487 205.036,535.168C204.722,535.63 204.608,535.54 200.764,540.692C197.759,544.719 197.459,544.464 194.54,548.532C193.938,549.372 191.654,551.885 191.261,552.126C189.948,552.929 187.051,552.51 185.499,552.523C185.283,552.525 183.144,552.543 182.819,552.167C182.198,551.446 183.051,550.439 183.147,550.325C186.441,546.436 194.001,536.144 196.459,533.473C198.084,531.708 198.202,531.756 198.219,531.431C198.318,529.524 195.811,530.79 195.622,530.886C194.612,531.396 193.222,532.504 188.507,532.334C187.461,532.296 180.004,532.508 173.172,525.839C168.262,521.047 164.49,512.293 167.223,502.432C169.384,494.635 176.188,488.247 182.428,486.289C199.748,480.855 210.738,492.178 213.579,499.466C216.41,506.732 215.615,510.347 215.091,514.416Z" style="fill:rgb(16,75,99);"/>
                    <path d="M536.233,856.374C527.065,873.623 507.216,873.741 497.071,863.953C493.957,860.949 490.213,857.092 489.445,847.504C488.466,835.29 497.9,822.86 507.307,811.345C508.551,809.823 508.523,809.456 512.674,804.644C514.887,802.078 515.323,799.637 518.33,800.907C518.591,801.017 518.563,801.074 521.536,802.438C524.421,803.761 521.489,806.076 520.916,806.84C518.601,809.931 508.279,822.976 508.229,823.485C508.215,823.62 508.094,824.841 509.495,824.614C509.513,824.611 521.246,819.274 531.907,830.11C538.407,836.717 538.308,845.093 538.291,846.5C538.24,850.836 537.946,852.353 536.233,856.374Z" style="fill:rgb(16,75,99);"/>
                    <path d="M803.073,688.494C802.968,692.001 802.6,693.744 805.484,693.83C805.725,693.837 805.723,693.801 808.491,693.858C809.141,693.872 809.801,693.791 810.441,693.906C811.603,694.117 811.698,694.2 811.997,695.35C812.191,696.097 812.13,700.152 812.037,700.393C810.8,703.566 803.738,699.971 803.069,703.392C802.839,704.568 803.416,716.604 802.54,717.532C802.208,717.884 801.694,718.428 796.527,718.168C794.012,718.042 794.501,715.529 794.521,709.5C794.536,705.048 794.83,702.301 793.381,701.875C792.616,701.649 764.704,702.041 763.439,701.684C762.192,701.332 762.142,699.732 762.135,699.531C761.966,694.131 762.805,694.232 765.949,689.853C766.78,688.695 766.94,688.831 776.774,675.702C778.04,674.012 789.036,659.33 792.789,654.724C795.563,651.318 795.412,650.616 798.5,650.593C801.805,650.568 802.979,650.194 803.081,653.506C803.132,655.152 803.078,685.695 803.073,688.494Z" style="fill:rgb(16,75,99);"/>
                    <path d="M278.959,360.525C277.833,383.014 263.679,389.929 254.097,381.975C251.98,380.218 248.955,377.315 247.057,369.616C243.52,355.261 246.526,333.711 259.57,330.835C264.821,329.678 271.931,332.152 275.648,340.428C279.558,349.136 279.045,358.898 278.959,360.525Z" style="fill:rgb(250,253,253);"/>
                    <path d="M656.928,770.551C657.018,769.814 658.011,761.628 658.101,761.341C658.639,759.618 660.187,759.984 668.504,760.011C690.775,760.081 690.928,759.8 691.574,760.406C691.872,760.687 692.51,761.285 692.213,765.486C692.168,766.117 692.055,767.61 690.574,767.88C690.003,767.984 668.852,767.731 667.391,768.037C664.929,768.553 665.964,769.669 664.247,781.481C663.998,783.188 663.773,783.922 665.507,783.838C665.98,783.814 669.159,781.79 674.508,782.065C680.532,782.375 685.772,783.489 691.695,790.334C699.541,799.401 697.789,812.867 691.221,820.267C680.7,832.121 666.023,829.337 660.282,825.888C656.07,823.358 653.97,821.405 651.131,816.714C650.756,816.093 648.639,813.336 651.356,812.195C656.253,810.14 657.087,809.876 658.467,812.519C663.108,821.414 674.458,823.811 681.71,817.756C691.4,809.664 688.984,796.213 679.49,791.518C669.505,786.58 661.993,793.842 661.364,794.326C661.002,794.604 658.861,796.251 655.656,794.244C653.945,793.173 654.892,792.57 656.928,770.551Z" style="fill:rgb(16,75,99);"/>
                    <path d="M552.501,220.626C553.44,220.644 556.107,220.475 556.8,221.162C557.663,222.018 557.434,224.529 557.421,225.496C557.376,228.638 556.268,228.56 553.5,228.537C537.929,228.41 521.131,228.645 516.502,228.455C513.243,228.321 512.827,227.77 512.853,224.502C512.897,218.882 514.415,219.388 518.504,215.505C535.327,199.528 543.288,192.606 545.687,187.605C549.103,180.483 547.654,177.681 546.359,174.567C543.296,167.205 532.663,165.122 526.208,171.179C520.991,176.074 522.77,179.754 518.5,178.5C515.516,177.624 514.836,177.638 514.117,176.726C513.286,175.674 514.715,171.301 517.195,168.252C519.158,165.838 520.268,164.688 523.584,162.639C524.816,161.878 530.939,158.096 541.536,160.361C543.332,160.745 556.348,164.965 556.795,178.491C557.179,190.13 550.643,195.828 543.803,202.795C536.967,209.758 536.65,209.4 529.459,216.46C528.329,217.569 526.516,218.603 526.389,219.488C526.164,221.045 526.912,220.795 528.477,220.706C530.396,220.597 530.587,220.587 552.501,220.626Z" style="fill:rgb(237,65,59);"/>
                    <path d="M810.497,383.948C810.73,383.947 813.296,383.935 813.418,383.975C814.983,384.487 814.81,384.839 814.863,386.482C814.955,389.392 815.328,391.638 812.515,391.744C812.008,391.763 773.346,391.814 772.472,391.634C770.463,391.221 770.817,388.665 770.817,388.496C770.828,383.904 771.349,383.861 774.742,380.758C778.393,377.419 778.245,377.286 781.864,373.896C782.526,373.277 787.977,368.171 790.021,366.036C792.411,363.54 803.223,353.873 804.763,347.577C808.625,331.777 790.897,326.076 782.588,335.576C779.212,339.435 779.912,342.733 776.427,341.756C776.088,341.66 772.691,340.538 772.549,340.424C771.788,339.814 770.406,338.524 774.942,331.822C776.517,329.495 782.009,323.917 789.456,323.109C798.157,322.165 802.496,324.492 805.58,326.374C812.66,330.694 818.066,342.366 811.846,353.679C807.931,360.799 799.9,367.773 789.6,377.603C788.055,379.079 788.1,379.095 786.552,380.552C784.581,382.407 783.922,382.422 783.902,382.71C783.876,383.07 784.451,384.072 784.621,384.127C785.221,384.322 785.233,383.93 792.498,383.952C807.895,384 809.057,383.977 810.497,383.948Z" style="fill:rgb(16,75,99);"/>
                    <path d="M837.447,546.971C837.749,546.995 845.511,548.561 850.934,540.786C854.042,536.33 855.454,524.27 842.463,520.654C839.053,519.704 836.475,521.436 836.421,517.503C836.392,515.403 836.166,513.947 837.209,513.095C837.89,512.539 842.15,512.754 845.761,509.833C852.646,504.262 849.267,491.53 836.452,493.191C833.732,493.544 830.576,495.236 828.867,496.893C827.822,497.906 828.009,498.464 826.55,498.29C825.869,498.209 825.485,497.604 823.195,495.909C821.11,494.365 821.107,493.413 824.349,490.337C831.828,483.243 846.96,482.582 854.658,491.36C860.625,498.163 859.654,509.534 852.401,514.402C851.805,514.803 851.707,514.794 851.666,515.514C851.599,516.685 852.186,516.392 855.791,519.116C864.829,525.947 865.434,543.485 852.417,551.36C838.476,559.793 822.917,552.353 818.413,543.549C817.275,541.326 815.805,539.318 818.532,538.595C818.949,538.484 819.661,538.401 821.581,537.732C825.406,536.399 824.653,538.941 828.39,542.612C828.627,542.844 829.983,544.177 831.729,545.077C835.549,547.046 837.396,546.963 837.447,546.971Z" style="fill:rgb(16,75,99);"/>
                    <path d="M343.501,767.921C336.855,767.899 334.903,768.252 334.518,766.496C334.439,766.133 334.396,761.999 334.51,761.503C334.937,759.642 335.76,759.97 354.5,759.97C378.67,759.97 378.719,759.999 379.558,760.418C380.476,760.877 380.861,764.31 379.292,767.396C378.952,768.066 378.915,768.031 374.968,775.736C373.52,778.562 366.287,793.644 358.823,807.662C358.319,808.609 358.551,808.714 352.782,819.642C350.023,824.869 349.947,827.492 346.5,827.507C341.569,827.528 340.477,827.493 340.325,826.561C340.215,825.88 340.182,825.682 343.928,818.73C346.966,813.094 350.056,806.304 353.229,800.366C354.056,798.82 353.847,798.725 362.977,780.735C366.684,773.43 367.609,771.506 367.998,770.697C368.523,769.605 368.821,769.638 368.555,768.472C368.33,767.486 367.569,767.911 358.496,767.916C353.498,767.918 348.499,767.92 343.501,767.921Z" style="fill:rgb(16,75,99);"/>
                    <path d="M188.549,524.08C188.174,523.999 187.792,523.951 187.417,523.87C183.138,522.948 178.536,519.315 176.954,515.31C171.343,501.101 184.894,489.671 196.553,494.38C207.584,498.834 208.975,512.68 201.696,519.702C196.114,525.088 190.372,524.17 188.549,524.08Z" style="fill:rgb(249,252,252);"/>
                    <path d="M528.946,845.475C529.033,848.494 529.208,851.369 525.541,856.532C522.571,860.715 511.994,866.346 503.233,857.769C493.548,848.288 499.555,832.016 513.492,831.301C513.808,831.284 527.33,830.983 528.946,845.475Z" style="fill:rgb(248,252,252);"/>
                    <path d="M494.598,219.501C494.597,225.408 494.694,227.152 493.918,227.923C492.902,228.932 486.93,228.782 486.353,227.599C485.981,226.836 485.908,226.783 485.925,180.5C485.928,173.818 486.535,173.522 485.417,172.609C484.451,171.821 484.338,172.541 478.289,176.065C478.093,176.179 476.134,177.32 475.517,175.493C475.429,175.232 474.686,171.027 474.708,170.508C474.79,168.586 476.613,168.325 480.704,165.832C483.567,164.088 483.788,164.447 486.889,161.988C487.632,161.399 489.319,159.929 492.527,160.297C495.063,160.588 494.632,161.739 494.66,171.499C494.671,175.339 494.761,206.761 494.598,219.501Z" style="fill:rgb(237,65,59);"/>
                    <path d="M221.689,364.5C221.659,389.969 221.675,389.988 221.494,390.498C221.036,391.789 218.927,391.632 215.498,391.572C213.26,391.533 212.868,390.779 212.874,388.497C212.954,352.326 212.809,341.941 213.032,338.499C213.11,337.292 213.663,337.165 212.885,336.24C211.546,334.647 211.297,336.253 205.428,339.359C202.421,340.949 202.603,338.925 202.061,335.567C201.558,332.448 202.581,332.363 205.589,330.653C209.261,328.564 210.838,327.911 214.353,325.295C214.75,324.999 217.286,323.111 220.381,323.907C221.683,324.241 221.719,326.26 221.723,326.494C221.778,329.534 221.69,329.532 221.689,364.5Z" style="fill:rgb(16,75,99);"/>
                    <path d="M343.789,242.5C343.696,275.563 343.935,275.65 343.449,276.474C342.951,277.318 341.667,277.363 341.495,277.369C335.958,277.564 335.674,276.96 335.467,276.519C335.155,275.853 335.163,275.817 335.163,237.5C335.163,226.949 335.222,224.638 335.251,223.519C335.271,222.73 335.377,222.662 334.825,222.121C333.726,221.046 332.148,222.964 330.234,224.038C326.482,226.144 325.203,226.933 324.5,225.5C324.46,225.418 323.106,221.548 323.262,220.465C323.485,218.916 325.7,218.588 332.321,214.209C338.055,210.418 338.046,209.969 341.515,210.112C344.341,210.228 343.791,211.713 343.805,218.496C343.829,230.504 343.756,230.489 343.789,242.5Z" style="fill:rgb(16,75,99);"/>
                    <path d="M378.05,273.498C378.027,272.858 377.895,269.3 377.965,265.498C378.115,257.359 377.792,226.863 378.125,223.502C378.144,223.304 378.383,220.892 376.53,221.592C376.108,221.752 375.797,222.117 375.426,222.373C372.767,224.213 371.005,224.932 369.679,225.826C367.661,227.188 367.179,226.365 366.79,224.423C366.548,223.214 365.76,221.436 366.04,220.378C366.4,219.016 366.851,219.354 370.77,216.934C372.318,215.978 372.268,215.932 373.8,214.965C380.111,210.98 379.895,210.349 382.475,210.16C385.805,209.916 386.427,210.652 386.496,212.5C386.528,213.35 386.507,274.114 386.497,274.5C386.407,277.937 384.744,277.428 380.502,277.366C377.468,277.322 377.986,275.453 378.05,273.498Z" style="fill:rgb(16,75,99);"/>
                    <path d="M673.307,247.501C673.45,234.145 673.234,229.506 673.454,224.505C673.46,224.361 673.516,223.083 673.177,222.729C672.38,221.898 670.88,222.829 670.712,222.933C669.186,223.881 669.213,223.892 667.656,224.795C666.373,225.539 664.513,226.766 663.544,226.407C663.152,226.262 662.529,226.031 661.862,221.451C661.549,219.305 663.272,218.711 664.727,217.87C671.653,213.866 674.682,211.292 675.642,210.76C677.421,209.773 680.52,210.27 680.586,210.292C682.046,210.779 681.884,211.315 681.836,223.499C681.653,270.462 682.157,270.459 681.983,274.539C681.866,277.29 681.237,277.435 678.498,277.445C677.137,277.45 673.743,277.98 673.333,275.533C673.307,275.376 673.411,256.202 673.307,247.501Z" style="fill:rgb(16,75,99);"/>
                    <path d="M249.92,698.498C249.845,699.484 250.114,704.367 244.917,708.966C237.616,715.425 222.264,711.701 221.479,699.501C220.656,686.725 237.047,680.468 246.374,689.622C247.619,690.844 248.299,692.283 248.42,692.541C250.073,696.042 249.817,696.923 249.92,698.498Z" style="fill:rgb(249,252,253);"/>
                    <path d="M235.493,657.27C236.9,657.395 239.669,657.292 242.905,660.02C242.943,660.053 245.672,662.014 246.225,665.548C247.901,676.254 236.412,680.745 230.361,676.732C221.442,670.819 224.944,662.173 229.4,659.353C232.587,657.335 234.664,657.392 235.493,657.27Z" style="fill:rgb(246,251,251);"/>
                    <path d="M777.495,693.86C774.597,693.941 774.559,693.93 774.316,693.856C773.361,693.569 773.508,692.63 773.527,692.507C773.638,691.796 773.848,691.929 774.324,691.389C776.116,689.353 777.121,687.761 778.257,686.319C781.2,682.58 790.326,670.752 791.373,669.396C792.229,668.286 792.929,666.55 793.479,666.44C795.026,666.132 794.876,666.874 794.796,668.446C793.971,684.593 795.237,691.574 794.066,693.151C793.474,693.948 793.05,693.917 777.495,693.86Z" style="fill:rgb(246,252,252);"/>
                    <path d="M136.498,518.363C137.908,518.394 138.9,518.08 139.847,519.287C140.434,520.036 140.242,525.82 139.874,526.715C139.304,528.104 137.038,527.654 125.5,527.655C113.891,527.655 112.709,527.903 112.214,526.642C111.947,525.963 111.666,519.599 112.717,518.799C113.425,518.26 113.536,518.403 136.498,518.363Z" style="fill:rgb(34,138,101);"/>
                    <path d="M517.501,910.5C517.504,914.156 518.045,916.957 515.465,917.197C515.339,917.209 510.505,917.315 509.619,917.1C508.296,916.778 508.248,914.745 508.242,914.511C508.234,914.147 508.264,894.786 508.297,893.496C508.334,892.071 507.851,889.395 510.474,889.178C510.493,889.177 515.399,889.205 515.531,889.221C517.575,889.476 517.571,890.85 517.574,892.498C517.574,893.115 517.507,909.06 517.501,910.5Z" style="fill:rgb(34,138,101);"/>
                    <path d="M517.538,133.5C517.648,143.431 517.741,144.259 516.62,144.715C516.241,144.868 516.12,144.917 511.517,145.037C508.074,145.127 508.274,143.934 508.276,140.504C508.283,118.732 508.159,118.582 508.832,117.841C509.571,117.026 512.184,117.159 514.503,117.188C517.273,117.223 517.636,117.725 517.583,120.501C517.519,123.939 517.496,123.932 517.538,133.5Z" style="fill:rgb(34,138,101);"/>
                    <path d="M326.104,190.746C326.212,190.952 327.287,193.006 327.189,193.455C327.145,193.653 327.002,194.306 325.328,195.184C320.742,197.592 319.627,198.445 318.516,196.489C316.724,193.337 316.946,193.227 314.873,190.25C314.301,189.428 307.535,178.304 306.902,177.263C305.119,174.332 306.416,174.02 309.326,172.208C309.567,172.057 311.61,170.785 312.514,170.638C314.267,170.352 313.797,171.437 321.169,182.726C322.806,185.231 323.569,186.892 326.104,190.746Z" style="fill:rgb(34,138,101);"/>
                    <path d="M906.5,518.373C909.788,518.372 911.001,518.114 911.887,519.243C912.196,519.636 912.351,519.833 912.226,525.476C912.221,525.695 912.185,527.357 910.525,527.626C910.047,527.704 886.68,527.659 886.481,527.643C885.252,527.543 884.782,526.586 884.706,526.432C884.348,525.703 884.578,520.981 884.602,520.508C884.61,520.338 884.673,519.046 885.551,518.611C885.902,518.437 885.923,518.303 906.5,518.373Z" style="fill:rgb(34,138,101);"/>
                    <path d="M326.309,846.381C322.886,852.071 318.178,860.065 318.071,860.253C315.173,865.338 315.001,865.388 314.512,865.528C313.028,865.955 311.28,864.336 309.559,863.409C307.185,862.13 306.775,861.613 308.132,859.299C312.975,851.036 313.035,851.081 314.442,848.466C314.781,847.837 314.905,847.919 318.854,840.707C319.867,838.858 320.361,838.726 320.567,838.671C321.901,838.313 322.718,839.13 325.513,840.475C328.643,841.98 328.453,843.161 326.309,846.381Z" style="fill:rgb(34,138,101);"/>
                    <path d="M180.69,337.206C176.266,334.541 176.087,334.883 171.743,332.102C163.2,326.633 159.862,326.963 161.681,323.588C162.736,321.631 162.799,321.685 163.837,319.704C164.752,317.955 166.287,318.394 166.514,318.459C167.318,318.689 181.817,327.283 182.441,327.607C188.118,330.559 188.172,330.996 188.241,331.553C188.305,332.07 188.392,332.775 185.257,337.338C183.649,339.678 181.91,337.962 180.69,337.206Z" style="fill:rgb(34,138,101);"/>
                    <path d="M709.449,193.469C709.07,194.058 709.099,194.057 708.7,194.633C708.045,195.577 707.045,197.443 706.611,197.665C704.935,198.52 704.917,197.758 703.335,196.752C699.624,194.392 699.235,194.629 699.114,193.576C698.947,192.124 701.755,189.107 707.87,178.722C708.769,177.194 710.983,173.772 711.26,173.346C712.672,171.164 713.096,170.487 715.741,172.031C719.473,174.21 721.261,174.259 719.499,177.5C718.332,179.648 713.627,186.658 709.449,193.469Z" style="fill:rgb(34,138,101);"/>
                    <path d="M860.529,327.55C847.101,335.424 846.641,335.672 845.409,336.335C842.581,337.857 840.431,340.173 838.865,337.282C836.036,332.057 835.992,331.349 837.473,330.463C840.542,328.627 841.176,328.75 848.278,324.136C848.703,323.859 848.737,323.963 853.778,320.969C858.739,318.022 859.591,317.319 861.1,319.748C861.287,320.048 862.678,322.287 863.263,323.597C864.317,325.956 862.27,326.514 860.529,327.55Z" style="fill:rgb(34,138,101);"/>
                    <path d="M191.327,710.609C193.058,713.18 193.195,713.948 190.542,715.562C187.822,717.217 187.971,717.427 185.223,719.047C172.184,726.737 171.536,728.986 169.643,726.393C169.504,726.203 166.74,721.421 166.73,721.398C166.155,720.093 166.265,719.609 170.752,716.942C174.065,714.973 180.586,710.931 181.438,710.403C185.299,708.011 188.038,704.939 189.562,707.452C189.969,708.123 191.188,710.355 191.327,710.609Z" style="fill:rgb(34,138,101);"/>
                    <path d="M833.123,710.275C834.535,707.811 834.502,707.795 834.638,707.589C835.472,706.327 836.33,706.377 836.508,706.387C837.18,706.426 839.495,707.978 839.74,708.142C843.226,710.479 849.668,714.303 852.614,716.321C856.048,718.672 859.172,718.896 856.786,722.665C854.331,726.543 854.041,728.447 850.677,726.211C849.602,725.497 848.843,725.044 844.572,722.381C843.688,721.83 836.285,717.216 833.64,715.299C831.195,713.529 831.562,712.877 833.123,710.275Z" style="fill:rgb(34,138,101);"/>
                    <path d="M710.113,846.742C717.811,859.822 719.04,860.766 717.346,862.325C717.209,862.451 713.308,864.71 712.628,864.921C710.214,865.67 709.951,863.759 707.287,859.631C705.041,856.15 700.409,848.315 699.823,847.323C697.497,843.389 697.667,842.973 697.822,842.592C698.294,841.434 700.247,840.673 701.66,839.782C705.114,837.603 705.772,838.773 707.623,842.429C708.076,843.323 709.909,846.4 710.113,846.742Z" style="fill:rgb(34,138,101);"/>
                    <path d="M751.07,205.167C749.36,207.353 749.216,207.215 747.652,209.594C747.291,210.143 747.279,210.129 743.821,214.727C740.909,218.6 740.001,219.634 738.548,219.364C738.108,219.282 736.844,218.449 737.724,216.602C738.363,215.262 738.522,215.365 748.895,201.795C751.168,198.822 752.119,197.848 753.401,198.654C754.98,199.647 753.327,202.038 753.161,202.276C752.146,203.744 752.1,203.681 751.07,205.167Z" style="fill:rgb(34,138,101);"/>
                    <path d="M768.217,239.237C771.517,235.769 771.951,234.848 774.368,232.376C779.112,227.525 781.02,224.485 782.62,223.894C783.13,223.706 786.929,224.313 783.281,228.295C779.937,231.946 779.845,231.831 776.518,235.517C776.379,235.671 770.7,242.357 769.349,243.202C767.984,244.057 766.921,242.836 766.829,242.392C766.448,240.572 767.037,240.667 768.217,239.237Z" style="fill:rgb(34,138,101);"/>
                    <path d="M125.554,604.745C129.149,603.932 141.258,600.874 143.5,600.499C146.811,599.945 146.372,602.629 146.023,603.136C145.615,603.729 143.653,604.195 143.434,604.248C141.874,604.618 135.087,606.436 132.39,607.037C126.901,608.262 123.472,609.445 122.519,608.48C121.223,607.169 122.578,605.914 122.738,605.766C123.478,605.081 123.585,605.295 125.554,604.745Z" style="fill:rgb(34,138,101);"/>
                    <path d="M165.447,674.392C168.315,672.976 168.353,672.963 168.618,672.87C170.888,672.07 173.045,674.67 169.469,676.446C168.03,677.161 155.384,683.442 151.361,685.125C148.291,686.408 148.158,684.073 148.31,683.437C148.758,681.563 161.922,676.244 165.447,674.392Z" style="fill:rgb(34,138,101);"/>
                    <path d="M130.448,565.147C120.788,566.443 115.837,568.028 115.425,565.518C115.396,565.339 115.185,564.054 116.513,563.527C118.016,562.93 118.069,563.145 136.502,560.514C136.778,560.474 139.408,560.099 139.906,561.272C140.716,563.182 138.83,563.76 138.611,563.827C137.979,564.021 137.686,564.11 130.448,565.147Z" style="fill:rgb(34,138,101);"/>
                    <path d="M887.429,402.284C871.593,407.141 871.328,407.268 870.492,406.51C868.246,404.473 872.064,403.221 872.358,403.124C892.252,396.598 892.393,397.09 892.59,397.121C894.202,397.375 894.473,399.858 892.536,400.575C892.132,400.725 892.113,400.653 887.429,402.284Z" style="fill:rgb(34,138,101);"/>
                    <path d="M279.248,210.703C277.493,208.494 277.59,208.435 275.768,206.278C273.36,203.43 273.577,203.288 272.354,201.594C272.192,201.37 270.187,198.593 272.367,198.132C274.339,197.715 275.58,200.054 276.577,201.444C278.58,204.233 279.907,205.572 280.095,205.827C286.365,214.371 288.35,215.767 288.313,217.478C288.279,219.041 286.656,218.894 286.472,218.877C284.808,218.727 283.295,215.68 279.248,210.703Z" style="fill:rgb(34,138,101);"/>
                    <path d="M898.461,565.842C892.393,565.121 885.397,563.762 885.381,563.757C885.186,563.689 883.684,563.163 884.311,561.404C884.914,559.712 889.962,560.969 893.507,561.449C900.039,562.333 900.032,562.25 906.561,563.122C906.839,563.159 909.707,563.542 908.963,565.669C908.362,567.386 906.493,566.967 898.461,565.842Z" style="fill:rgb(34,138,101);"/>
                    <path d="M251.557,232.445C255.813,237.407 259.868,240.273 258.178,242.237C256.235,244.497 253.008,239.209 250.367,236.639C249.799,236.086 249.676,235.966 243.688,229.326C241.884,227.325 239.879,224.734 241.503,223.505C243.264,222.174 245.78,226.413 251.557,232.445Z" style="fill:rgb(34,138,101);"/>
                    <path d="M136.619,402.132C133.392,401.022 131.879,400.532 131.558,400.386C129.247,399.337 130.284,397.256 131.56,396.995C132.388,396.826 143.607,400.373 145.638,401.119C150.572,402.929 150.646,402.677 152.575,403.315C155.017,404.123 154.631,406.289 153.644,406.729C152.13,407.404 152.072,407.035 150.491,406.528C149.382,406.174 138.644,402.736 136.619,402.132Z" style="fill:rgb(34,138,101);"/>
                    <path d="M138.572,646.707C135.87,647.681 133.508,648.76 132.859,646.446C132.482,645.098 134.166,644.32 134.36,644.23C135.536,643.686 135.676,644.069 149.579,638.696C153.741,637.087 155.389,636.65 156.146,637.746C157.583,639.83 154.596,640.928 154.314,641.032C153.462,641.346 153.439,641.23 143.615,644.825C141.401,645.636 138.975,646.555 138.572,646.707Z" style="fill:rgb(34,138,101);"/>
                    <path d="M798.254,268.229C796.695,269.535 795.713,270.278 794.334,269.723C793.746,269.487 792.952,267.749 794.931,265.981C796.78,264.328 796.852,264.446 798.693,262.693C802.293,259.266 802.557,259.575 806.103,256.087C807.804,254.413 810.71,251.076 812.36,252.643C814.56,254.732 809.687,257.477 806.034,261.019C805.424,261.61 805.398,261.561 798.254,268.229Z" style="fill:rgb(34,138,101);"/>
                    <path d="M279.458,828.468C282.625,824.108 282.678,824.174 285.886,819.831C288.097,816.838 289.68,818.679 289.822,819.397C290.173,821.177 287.692,823.404 285.969,825.842C282.438,830.838 282.323,830.724 278.652,835.613C277.351,837.345 276.277,839.306 274.445,838.583C271.962,837.603 276.455,832.332 279.458,828.468Z" style="fill:rgb(34,138,101);"/>
                    <path d="M227.345,780.323C220.199,787.025 220.251,787.09 219.534,787.55C216.493,789.5 216.318,786.308 216.686,785.584C217.871,783.252 218.696,783.968 228.772,773.768C232.387,770.109 233.045,770.114 233.524,770.118C233.701,770.12 234.765,770.129 235.203,771.562C235.68,773.127 232.389,775.431 231.496,776.496C231.205,776.842 231.202,776.835 227.345,780.323Z" style="fill:rgb(34,138,101);"/>
                    <path d="M220.534,262.463C214.259,256.758 214.158,256.88 213.628,256.367C213.4,256.147 211.11,253.929 212.553,252.552C214.177,251.001 217.521,254.828 217.849,255.154C219.985,257.278 221.917,258.7 223.68,260.304C229.621,265.712 232.536,267.125 231.04,269.183C229.866,270.798 227.625,268.804 227.405,268.608C223.954,265.537 224.015,265.49 220.534,262.463Z" style="fill:rgb(34,138,101);"/>
                    <path d="M633.693,146.569C635.844,140.262 635.769,140.242 635.966,139.697C636.836,137.294 639.926,137.781 639.363,140.477C639.131,141.582 636.044,151.171 632.657,160.563C631.509,163.746 629.061,162.647 629.091,160.505C629.097,160.096 632.613,149.614 633.693,146.569Z" style="fill:rgb(34,138,101);"/>
                    <path d="M866.582,682.315C855.477,676.916 855.458,676.985 854.506,676.49C851.943,675.153 853.498,673.131 853.792,672.973C855.226,672.206 858.059,674.096 858.566,674.377C862.454,676.535 864.495,677.136 866.262,677.998C866.901,678.309 873.825,681.684 874.225,681.942C874.465,682.096 877.205,683.86 875.353,685.323C874.121,686.296 873.018,685.104 866.582,682.315Z" style="fill:rgb(34,138,101);"/>
                    <path d="M430.85,149.399C430.421,147.907 428.884,142.563 426.263,130.548C426.205,130.283 425.614,127.57 427.482,127.389C429.688,127.176 429.974,131.404 431.32,136.55C433.428,144.604 433.462,144.584 434.155,147.574C434.239,147.936 435.429,153.065 432.376,151.868C431.08,151.36 431.506,150.951 430.85,149.399Z" style="fill:rgb(34,138,101);"/>
                    <path d="M135.574,443.163C134.533,442.934 125.405,440.931 122.567,440.263C119.663,439.58 120.074,437.798 121.215,437.041C121.721,436.705 122.478,436.823 125.532,437.318C125.747,437.353 143.011,440.899 143.655,441.127C143.873,441.204 145.713,441.855 144.909,443.731C144.25,445.269 141.838,444.494 135.574,443.163Z" style="fill:rgb(34,138,101);"/>
                    <path d="M431.235,897.438C430.538,899.945 429.723,903.039 429.595,903.527C429.536,903.749 429.022,905.701 428.277,906.083C427.295,906.585 425.566,906.119 425.969,903.538C425.991,903.393 427.386,898.128 428.779,891.56C430.538,883.271 430.88,882.946 431.431,882.42C431.555,882.302 432.501,881.401 433.57,882.415C435.118,883.884 433.18,888.448 432.203,893.435C431.804,895.475 431.755,895.439 431.235,897.438Z" style="fill:rgb(34,138,101);"/>
                    <path d="M872.519,361.544C877.698,359.185 878.017,359.205 878.531,359.237C878.75,359.25 880.858,359.381 879.838,361.651C879.291,362.869 875.205,364.234 873.704,364.944C866.707,368.25 860.885,370.685 860.643,370.805C856.718,372.749 856.737,369.36 857.563,368.559C858.472,367.677 871.308,362.073 872.519,361.544Z" style="fill:rgb(34,138,101);"/>
                    <path d="M899.438,437.18C901.377,436.816 901.362,436.8 901.532,436.786C904.328,436.555 904.031,438.718 903.396,439.407C902.963,439.877 900.723,440.369 900.482,440.422C895.786,441.453 887.058,443.694 882.512,444.57C878.691,445.306 879.424,442.251 879.818,441.756C880.079,441.427 880.019,440.989 899.438,437.18Z" style="fill:rgb(34,138,101);"/>
                    <path d="M668.935,169.711C674.869,157.747 675.55,154.208 677.502,154.169C680.213,154.114 678.873,157.334 678.761,157.605C678.076,159.251 673.34,168.719 672.859,169.681C670.628,174.144 669.758,177.968 667.274,176.889C665.284,176.025 667.638,172.525 668.935,169.711Z" style="fill:rgb(34,138,101);"/>
                    <path d="M157.606,368.231C150.363,364.81 146.067,363.018 145.408,362.625C143.732,361.626 144.326,359.136 146.509,359.407C147.494,359.529 165.976,367.981 166.603,368.366C168.557,369.566 167.415,372.544 164.571,371.319C161.057,369.805 161.151,369.647 157.606,368.231Z" style="fill:rgb(34,138,101);"/>
                    <path d="M900.607,605.2C900.844,605.391 901.198,605.395 901.435,605.585C901.613,605.728 903.26,607.053 901.453,608.431C900.302,609.31 891.186,606.8 882.506,604.477C880.946,604.06 877.68,603.729 878.291,601.414C878.806,599.465 881.418,600.535 900.607,605.2Z" style="fill:rgb(34,138,101);"/>
                    <path d="M774.545,803.46C774.928,803.875 774.942,803.849 779.365,808.626C779.679,808.966 782.831,812.045 781.435,813.431C779.645,815.208 776.949,811.293 769.163,802.817C765.432,798.756 763.599,797.321 764.305,795.382C765.105,793.185 767.699,795.878 767.903,796.089C771.345,799.663 771.241,799.738 774.545,803.46Z" style="fill:rgb(34,138,101);"/>
                    <path d="M801.643,779.354C804.795,782.415 809.471,785.949 807.841,787.784C806.453,789.346 805.216,787.597 801.134,783.9C800.845,783.638 790.296,773.702 789.89,773.21C788.46,771.476 789.933,768.633 792.775,771.117C795.551,773.544 795.767,774.213 798.532,776.466C798.931,776.79 801.396,779.121 801.643,779.354Z" style="fill:rgb(34,138,101);"/>
                    <path d="M250.342,803.364C250.863,802.761 255.669,797.184 256.932,795.897C259.253,793.53 261.656,795.405 259.962,797.777C259.232,798.8 258.622,799.655 249.585,809.58C249.232,809.968 245.252,815.127 243.464,813.55C241.878,812.152 244.566,809.731 245.583,808.573C247.912,805.921 247.977,806 250.342,803.364Z" style="fill:rgb(34,138,101);"/>
                    <path d="M871.526,641.433C869.633,640.591 869.644,640.607 869.484,640.527C867.091,639.326 868.368,637.336 869.383,637.124C870.044,636.986 870.768,636.835 877.413,639.706C884.239,642.654 886.962,642.918 889.296,643.942C892.405,645.306 890.998,647.793 889.572,647.922C888.949,647.978 886.583,647.04 886.331,646.941C878.973,644.025 878.961,644.104 871.526,641.433Z" style="fill:rgb(34,138,101);"/>
                    <path d="M824.612,296.646C821.846,298.715 818.88,300.973 817.603,299.421C816.251,297.776 818.662,296.561 828.311,289.216C828.424,289.129 834.994,284.263 835.375,284.117C837.417,283.337 838.941,285.721 836.517,287.518C834.429,289.067 825.562,295.912 824.612,296.646Z" style="fill:rgb(34,138,101);"/>
                    <path d="M191.311,285.737C191.864,286.15 191.953,285.985 198.355,290.718C201.777,293.249 206.413,295.951 206.891,297.385C207.402,298.921 205.931,300.683 203.708,299.176C203.339,298.926 203.461,298.776 199.25,295.832C198.308,295.173 188.634,288.409 187.634,287.381C186.288,285.997 186.68,283.26 189.503,284.494C189.69,284.575 189.897,284.638 191.311,285.737Z" style="fill:rgb(34,138,101);"/>
                    <path d="M599.151,138.414C597.061,146.997 596.663,151.919 594.524,151.995C594.288,152.003 592.449,152.068 592.876,149.546C593.027,148.65 593.343,148.734 595.524,138.505C597.559,128.959 597.662,128.85 598.246,128.231C599.321,127.092 601.66,127.489 601.126,130.428C600.555,133.57 599.334,137.782 599.151,138.414Z" style="fill:rgb(34,138,101);"/>
                    <path d="M355.692,173.411C354.098,169.948 354.013,170.01 352.399,166.546C352.023,165.739 348.151,157.432 347.806,156.411C347.735,156.201 347.07,154.235 348.604,153.76C350.713,153.106 350.95,155.168 355.052,163.726C360.246,174.564 360.248,174.683 359.986,175.684C359.66,176.933 358.163,177.028 357.508,176.488C357.025,176.09 355.82,173.667 355.692,173.411Z" style="fill:rgb(34,138,101);"/>
                    <path d="M818.862,751.003C816.371,749.003 816.424,748.956 813.888,747.012C810.872,744.7 812.351,742.68 813.515,742.608C813.749,742.593 814.48,742.548 816.125,743.938C820.88,747.955 827.986,753.07 830.141,754.92C833.165,757.517 831.032,758.955 829.471,758.654C827.181,758.213 827.773,757.159 818.862,751.003Z" style="fill:rgb(34,138,101);"/>
                    <path d="M197.755,756.815C196.5,757.845 195.126,759.387 193.406,758.625C191.668,757.854 193.427,755.76 193.584,755.572C195.06,753.814 196.873,753.451 206.889,744.931C207.149,744.71 209.471,742.734 210.504,742.667C211.543,742.601 214.866,744.317 209.204,748.04C205.075,750.754 202.289,753.401 200.118,755.018C198.505,756.218 198.501,756.19 197.755,756.815Z" style="fill:rgb(34,138,101);"/>
                    <path d="M355.09,873.275C353.737,875.818 353.711,875.786 352.496,878.498C352.354,878.816 350.445,883.08 348.599,880.44C347.733,879.202 349.305,877.259 356.271,862.392C356.544,861.81 357.735,858.552 359.487,858.623C361.564,858.706 360.666,861.293 360.584,861.528C360.318,862.295 356.946,869.576 355.09,873.275Z" style="fill:rgb(34,138,101);"/>
                    <path d="M558.122,134.451C556.941,144.196 556.883,145.619 555.614,145.875C552.865,146.427 553.594,142.852 553.968,139.548C555.951,122.032 555.955,121.474 557.423,121.196C559.514,120.801 559.512,123.251 559.511,123.5C559.51,125.226 559.397,125.197 558.122,134.451Z" style="fill:rgb(34,138,101);"/>
                    <path d="M120.455,477.9C134.816,479.599 139.571,478.413 139.309,481.482C139.095,483.982 134.665,482.625 128.528,482.176C127.571,482.106 118.706,481.457 116.59,481.04C113.697,480.47 113.88,477.765 116.51,477.615C116.95,477.59 120.14,477.872 120.455,477.9Z" style="fill:rgb(34,138,101);"/>
                    <path d="M669.17,861.654C670.699,865.157 670.806,865.089 672.309,868.587C674.265,873.137 678.147,879.156 676.94,880.805C675.143,883.258 673.602,879.779 673.482,879.509C667.045,864.98 662.948,858.704 666.507,858.583C667.911,858.535 668.635,860.412 669.17,861.654Z" style="fill:rgb(34,138,101);"/>
                    <path d="M903.537,477.912C906.289,477.64 906.271,477.64 906.509,477.619C911.109,477.206 909.707,480.381 908.668,480.801C907.684,481.199 907.674,481.12 895.474,482.241C889.611,482.78 885.263,483.934 885.098,481.535C884.94,479.247 888.781,479.296 889.477,479.236C897.038,478.591 897.013,478.567 903.537,477.912Z" style="fill:rgb(34,138,101);"/>
                    <path d="M465.921,129.445C465.693,127.456 465.666,127.483 465.311,125.528C465.246,125.17 464.398,120.493 467.483,121.541C468.456,121.871 468.764,124.203 468.797,124.457C471.111,142.002 471.174,141.986 471.312,143.518C471.611,146.846 468.8,147.248 467.92,144.401C467.716,143.743 466.071,130.642 465.921,129.445Z" style="fill:rgb(34,138,101);"/>
                    <path d="M396.048,151.664C398.752,159.895 399.201,160.172 398.173,161.165C396.395,162.882 395.186,159.946 395.082,159.692C393.055,154.771 392.778,152.669 389.028,141.632C388.761,140.844 387.897,139.22 389.195,138.054C390.866,136.552 391.974,139.429 392.069,139.675C393.29,142.845 392.817,142.997 396.048,151.664Z" style="fill:rgb(34,138,101);"/>
                    <path d="M739.679,820.357C742.541,824.013 745.578,828.543 748.692,832.35C748.753,832.425 751.684,835.473 751.318,837.444C751.163,838.281 749.608,839.619 747.844,837.228C743.814,831.768 743.664,831.895 739.735,826.347C737.119,822.654 734.676,820.363 735.852,818.797C737.006,817.261 739.027,819.549 739.213,819.758C739.38,819.948 739.512,820.168 739.679,820.357Z" style="fill:rgb(34,138,101);"/>
                    <path d="M396.121,882.363C391.841,893.665 392.116,896.551 389.409,895.696C387.429,895.071 389.412,890.805 390.219,888.397C394.844,874.592 394.842,874.579 395.497,873.498C396.32,872.14 399.268,871.899 398.336,875.457C397.969,876.859 397.245,878.644 396.121,882.363Z" style="fill:rgb(34,138,101);"/>
                    <path d="M598.927,899.413C599.716,902.306 600.829,905.316 599.279,906.111C599.234,906.135 597.143,907.027 596.577,904.478C592.498,886.105 592.313,886.139 592.215,884.507C592.06,881.932 594.832,880.679 595.76,884.426C596.091,885.767 598.678,898.213 598.927,899.413Z" style="fill:rgb(34,138,101);"/>
                    <path d="M628.206,875.564C628.187,875.209 628.066,874.864 628.047,874.509C627.882,871.382 630.068,872.388 630.386,872.646C631.041,873.176 632.056,876.273 632.164,876.603C635.149,885.704 637.122,889.936 637.815,892.413C637.89,892.683 638.716,895.637 636.504,895.658C634.97,895.674 634.085,892.666 633.961,892.328C629.499,880.148 628.591,876.929 628.206,875.564Z" style="fill:rgb(34,138,101);"/>
                    <path d="M465.855,906.551C468.22,889.106 467.809,888.346 469.429,888.117C471.946,887.761 471.397,891.172 471.348,891.477C471.117,892.912 471.137,892.908 469.121,908.448C468.969,909.621 468.942,912.868 466.515,912.444C464.656,912.12 465.509,908.758 465.855,906.551Z" style="fill:rgb(34,138,101);"/>
                    <path d="M557.918,899.46C559.095,907.845 560.514,912.45 557.506,912.296C555.612,912.2 555.565,909.185 555.498,908.5C553.872,891.899 552.595,888.95 554.431,888.345C556.506,887.66 556.797,890.06 557.103,892.552C557.17,893.104 557.65,897.016 557.918,899.46Z" style="fill:rgb(34,138,101);"/>
                </g>
                <g transform="matrix(0.912601,0.569173,-0.530003,0.849797,368.114268,-267.981892)">
                    <path d="M613.499,345.784C620.953,345.784 626.996,352.273 626.996,360.278C626.996,414.183 626.996,600 626.996,600L600,600L600,360.278C600,352.273 606.043,345.784 613.496,345.784C613.497,345.784 613.498,345.784 613.499,345.784Z" style="fill:rgb(237,65,59);"/>
                </g>
                <g transform="matrix(0.492755,0.293198,-0.660629,1.11027,700.724433,-242.599418)">
                    <path d="M613.501,345.784C620.954,345.784 626.996,348.466 626.996,351.773C626.996,390.155 626.996,600 626.996,600L600,600L600,351.773C600,348.466 606.042,345.784 613.495,345.784C613.497,345.784 613.499,345.784 613.501,345.784Z" style="fill:rgb(16,75,99);"/>
                </g>
                <g transform="matrix(1.311494,0,0,1.311494,-198.575683,-189.035721)">
                    <circle cx="608.906" cy="601.631" r="26.544" style="fill:rgb(16,75,99);"/>
                </g>
            </g>
        </g>
    </g>
</svg>
