<?xml version="1.0" encoding="UTF-8" standalone="no"?>
<!DOCTYPE svg PUBLIC "-//W3C//DTD SVG 1.1//EN" "http://www.w3.org/Graphics/SVG/1.1/DTD/svg11.dtd">
<svg width="100%" height="100%" viewBox="0 0 693 565" version="1.1" xmlns="http://www.w3.org/2000/svg" xmlns:xlink="http://www.w3.org/1999/xlink" xml:space="preserve" xmlns:serif="http://www.serif.com/" style="fill-rule:evenodd;clip-rule:evenodd;stroke-linecap:round;stroke-linejoin:round;stroke-miterlimit:1.5;">
    <g transform="matrix(1,0,0,1,-8057.164754,-11126.603222)">
        <g transform="matrix(1.95055,0,0,3.948123,-7265.768949,-11556.637138)">
            <g transform="matrix(0.512676,0,0,0.253285,7713.359488,5644.181767)">
                <g id="Fondo" transform="matrix(1.171875,0,0,1.171875,0,0)">
                    <path d="M527.831,789.628C527.109,791.419 526.793,792.342 526.712,792.581C525.111,797.264 524.904,797.165 522.875,801.664C520.719,806.447 516.897,818.147 501.51,821.548C494.121,823.182 473.892,823.013 464.226,816.944C456.759,812.256 456.764,808.891 453.804,803.35C452.648,801.186 452.211,799.84 448.915,791.343C448.272,789.723 448.28,789.732 448.22,789.594C444.592,781.142 444.898,781.033 441.429,772.527C437.741,763.482 437.92,761.901 435.553,761.312C434.138,760.959 422.398,759.202 421.551,759.107C418.38,758.751 418.484,759.905 416.526,764.511C410.105,779.62 410.179,779.648 404.148,791.352C399.306,799.472 397.366,800.376 395.662,801.719C381.716,812.71 356.346,807.978 354.478,807.635C342.805,805.494 339.312,801.903 338.616,801.369C333.295,797.483 330.883,793.504 325.54,781.482C324.073,778.183 322.727,774.627 322.289,773.586C317.619,762.488 317.367,760.519 315.298,754.567C311.573,743.852 310.526,738.755 309.592,735.475C304.113,716.249 304.972,714.39 303.312,706.541C302.85,704.356 302.196,704.646 296.376,698.621C280.346,682.026 272.023,665.055 267.176,658.741C255.274,643.235 253.524,639.629 250.925,635.25C245.075,625.395 241.877,614.502 241.384,612.531C238.83,602.33 238.051,601.7 237.09,589.521C236.46,581.54 237.717,565.698 238.263,562.46C241.944,540.639 244.019,537.307 247.085,529.342C249.027,524.299 249.11,524.354 251.369,519.437C254.745,512.087 257.81,507.404 258.354,506.42C265.091,494.243 266.821,493.01 270.687,485.604C274.053,479.156 280.182,468.682 281.034,467.226C286.861,457.268 287.096,457.425 287.575,456.545C290.821,450.575 293.986,448.919 291.901,446.221C291.332,445.484 290.122,443.92 285.356,436.597C271.353,415.087 268.037,396.993 267.906,396.409C267.849,396.153 261.388,375.951 274.834,358.743C283.555,347.583 296.849,344.134 297.626,343.867C311.658,339.054 334.621,340.571 345.54,343.354C356.51,346.15 359.499,346.994 366.286,350.868C377.599,357.325 386.269,369.634 386.845,370.055C387.923,370.843 388.504,371.026 397.436,367.348C408.154,362.933 421.903,358.861 422.554,358.698C434.899,355.609 436.534,353.833 459.467,350.313C479.948,347.169 501.473,346.33 520.683,347.165C550.278,348.451 574.162,353.052 578.573,354.203C593.831,358.184 600.609,359.231 622.344,367.92C633.608,372.422 634.355,373.144 635.446,373.621C644.359,377.519 658.885,385.966 663.706,389.18C667.545,391.739 667.476,391.807 667.811,392.025C674.019,396.067 673.911,396.22 674.453,396.567C676.014,397.564 686.739,405.705 688.616,407.368C690.432,408.978 695.085,412.536 704.331,421.671C707.852,425.15 707.757,425.223 711.24,428.754C715.87,433.45 724.968,444.325 729.585,451.443C734.573,459.135 734.665,459.064 735.059,459.756C741.726,471.439 744.694,476.369 748.763,486.394C751.04,492.005 751.279,492.139 752.197,494.612C760.038,515.739 762.099,530.138 762.191,530.627C762.509,532.318 762.762,533.198 764.124,532.14C764.517,531.835 764.633,528.759 769.568,525.609C778.136,520.142 787.4,525.667 792.779,530.816C796.833,534.698 800.791,542.808 801.589,547.211C803.844,559.64 796.914,569.274 795.946,570.794C793.897,574.011 791.811,575.509 795.505,576.485C796.488,576.744 813.792,581.798 819.708,568.598C821.607,564.362 820.941,559.491 825.433,560.705C830.342,562.032 826.394,571.067 825.053,573.234C821.289,579.314 817.418,580.957 815.713,581.904C814.293,582.693 807.881,586.255 795.478,583.605C788.361,582.085 787.919,580.412 784.845,582.928C781.479,585.684 781.382,585.52 777.688,587.8C771.038,591.905 767.323,592.504 766.418,593.417C765.002,594.847 764.6,605.276 762.747,613.551C760.25,624.699 756.726,644.88 740.32,675.405C735.403,684.553 722.269,705.139 721.86,705.732C714.793,715.967 714.276,719.933 707.137,741.381C702.476,755.386 702.002,760.707 682.187,796.366C679.71,800.283 677.956,804.636 673.177,809.161C666.537,815.446 648.55,819.963 626.494,812.52C615.591,808.841 613.365,801.6 610.074,792.648C609.765,791.842 602.435,771.723 602.194,770.604C602.156,770.43 601.771,768.641 601.519,768.478C600.454,767.787 599.931,768.658 599.861,768.773C599.359,769.611 594.057,784.67 589.258,790.307C586.359,793.478 583.259,795.41 572.501,796.518C567.828,796.999 556.085,796.299 549.715,793.086C546.917,791.675 547.047,791.485 544.854,789.271C543.044,786.498 543.092,786.482 542.27,784.6C536.847,772.192 537.701,771.83 537.017,770.874C536.894,770.701 536.592,770.914 536.38,770.897C536.148,770.879 535.908,770.675 535.695,770.767C535.428,770.883 531.323,781.444 527.831,789.628ZM785.75,535.263C783.902,533.472 783.923,533.459 781.689,532.152C781.379,531.971 779.792,531.043 777.484,530.58C770.465,529.171 768.044,539.8 767.536,542.506C767.373,543.371 766.603,547.466 768.672,553.444C769.278,555.192 771.273,563.02 781.237,569.877C781.89,570.327 784.614,572.648 786.301,572.082C787.256,571.762 791.929,565.318 793.452,560.484C793.838,559.26 798.555,549.172 785.75,535.263ZM777.402,575.654C776.536,575.074 774.641,574.054 772.275,571.729C767.638,567.173 767.642,565.755 767.354,565.755C766.949,565.755 766.605,566.067 766.252,566.265C765.614,566.621 765.864,566.785 765.998,567.508C767.254,574.261 765.619,583.062 766.716,584.315C766.968,584.602 767.568,585.288 771.368,583.24C771.932,582.936 775.835,580.833 778.25,579.163C778.417,579.047 779.959,577.981 779.167,576.79L777.402,575.654Z" style="fill:rgb(40,23,48);"/>
                    <path d="M502.813,353.452C537.302,352.805 553.308,356.814 563.519,358.372C578.888,360.717 598.427,366.863 601.407,367.8C612.438,371.269 624.849,376.497 627.411,377.696C632.069,379.874 632.123,379.729 636.725,382.017C652.584,389.904 665.902,398.787 671.286,402.812C672.008,403.352 689.124,415.017 706.807,434.222C708.051,435.573 713.072,440.525 721.771,452.303C723.852,455.12 732.941,469.348 736.432,476.537C736.436,476.546 740.192,483.518 743.676,492.424C745.56,497.238 751.366,509.507 755.678,533.468C764.255,581.123 755.642,612.878 754.269,619.451C753.058,625.247 752.64,627.044 748.055,641.359C745.63,648.932 736.904,667.582 732.234,675.351C731.32,676.871 729.288,680.742 727.068,684.22C725.488,686.696 725.66,686.78 724.145,689.28C723.684,690.041 711.689,707.814 709.365,713.443C706.296,720.877 706.668,720.995 703.644,729.55C702.234,733.54 695.879,754.911 692.8,760.651C692.462,761.282 692.598,761.343 688.938,768.712C687.435,771.738 687.455,771.724 685.833,774.68C685.317,775.621 685.552,775.741 679.636,786.577C678.359,788.918 676.236,793.115 674.196,796.322C669.785,803.256 669.56,807.212 655.562,808.987C644.009,810.451 627.83,807.581 623.024,802.992C621.867,801.887 620.694,801.992 614.751,785.41C612.65,779.549 612.888,779.478 610.536,773.486C608.893,769.302 605.309,756.876 603.384,755.677C601.623,754.581 600.918,755.955 584.459,758.212C559.991,761.567 536.282,758.512 533.533,759.575C532.634,759.923 532.39,760.017 528.223,770.39C515.591,801.833 514.469,808.17 505.683,812.862C503.617,813.965 499.159,816.466 482.541,815.121C481.291,815.02 471.4,813.721 467.283,810.828C462.929,807.769 462.403,806.372 457.719,795.407C457.013,793.755 457.149,793.727 449.597,774.464C442.377,756.05 442.317,755.979 441.521,755.474C438.868,753.788 438.473,755.149 420.453,751.738C399.135,747.703 378.331,740.78 370.476,737.561C360.935,733.651 360.91,733.735 351.588,729.309C349.917,728.516 341.268,724.068 334.749,720.082C314.502,707.701 302.664,695.298 300.233,692.75C291.741,683.852 287.668,677.37 287.188,676.728C280.381,667.643 279.745,664.378 271.275,652.655C268.17,648.359 267.995,648.508 264.845,644.244C259.386,636.852 259.662,636.689 255.143,628.7C254.614,627.765 252.802,624.562 249.749,616.403C246.946,608.911 246.546,602.967 244.309,594.499C243.927,593.051 243.414,592.969 244.056,592.137C244.723,591.274 245.291,591.581 245.391,591.636C245.911,591.917 247.264,597.315 250.884,602.224C253.618,605.934 253.427,606.077 256.561,609.444C259.456,612.554 259.403,612.586 262.564,615.426C267.277,619.662 268.075,620.178 273.355,623.735C274.817,624.72 284.962,630.351 293.462,632.639C315.343,638.532 329.202,635.362 340.604,631.82C343.651,630.873 343.614,630.83 346.567,629.677C350.617,628.097 349.436,631.562 356.401,637.612C372.61,651.693 392.535,647.696 404.195,636.187C406.831,633.585 409.304,630.194 409.707,629.641C411.04,627.813 413.332,624.075 413.634,623.582C415.219,620.996 415.607,621.319 418.542,620.718C424.207,619.557 423.93,612.466 418.476,613.352C415.315,613.866 415.148,614.336 412.345,612.8C406.215,609.441 404.991,614.465 406.924,617.205C408.192,619.002 408.556,619.324 406.882,621.754C403.853,626.153 403.915,627.649 396.787,633.837C393.422,636.758 379.412,644.921 363.835,635.015C362.256,634.01 354.375,627.039 355.954,624.792C357.268,622.922 365.235,620.232 374.745,606.664C379.022,600.564 380.842,595.446 381.213,594.401C381.794,592.77 391.372,571.492 379.809,542.384C377.719,537.122 373.647,529.986 369.257,524.705C363.769,518.101 357.912,513.903 356.806,513.11C356.612,512.972 355.589,511.694 346.379,506.722C339.591,503.057 328.009,500.043 320.941,499.203C317.903,498.842 300.501,496.917 279.459,505.404C277.392,506.238 268.464,510.816 264.548,514.56C261.506,517.468 261.523,517.459 261.491,517.471C261.212,517.574 260.854,517.48 260.613,517.306C259.621,516.593 260.92,514.992 263.33,511.394C264.877,509.083 273.882,494.169 274.789,492.665C276.108,490.481 288.431,466.872 297.791,453.702C306.877,440.917 306.889,440.941 316.944,428.882C317.894,427.742 327.825,417.026 335.582,410.598C350.603,398.15 359.798,393.336 368.361,388.247C370.038,387.25 373.238,385.78 376.309,384.142C381.457,381.396 384.958,380.047 389.302,378.049C395.019,375.42 395.173,375.836 405.551,371.629C409.047,370.212 418.714,367.378 422.359,366.101C425.2,365.107 442.127,360.325 454.441,358.173C464.991,356.33 490.642,353.681 502.813,353.452Z" style="fill:rgb(251,232,218);"/>
                    <path d="M285.58,622.341C284.163,621.646 284.164,621.673 282.719,621.009C275.68,617.774 268.445,611.587 267.867,611.08C243.023,589.276 242.608,560.005 251.308,541.411C256.258,530.832 261.619,525.859 262.73,524.721C265.779,521.596 267.595,520.435 269.669,518.711C273.793,515.283 283.668,510.652 286.574,509.721C293.744,507.424 309.631,501.729 333.446,508.691C334.294,508.939 366.597,517.288 376.145,552.603C376.605,554.305 379.253,564.098 378.64,574.507C376.611,608.983 348.868,623.208 335.451,626.309C324.462,628.849 305.924,631.673 285.58,622.341Z" style="fill:rgb(236,142,155);"/>
                    <path d="M312.45,712.727C320.182,719.24 326.719,723.05 334.734,728.124C336.016,728.935 352.292,738.159 366.542,743.395C370.318,744.783 370.151,745.234 382.604,749.151C390.16,751.529 390.065,751.817 402.418,754.836C410.206,756.739 410.235,756.767 410.739,757.243C412.006,758.441 411.054,759.365 408.655,765.561C407.394,768.82 397.601,790.545 394.196,794.232C388.991,799.867 379.855,801.214 378.488,801.415C370.088,802.654 352.103,802.139 344.24,796.893C338.158,792.835 335.57,789.302 324.55,760.482C323.963,758.947 319.099,744.431 318.804,743.414C317.527,738.997 315.434,730.691 315.154,729.582C313.64,723.575 313.614,723.597 312.257,717.556C311.439,713.915 311.279,713.892 311.492,713.496C311.686,713.136 312.256,713.088 312.45,712.727Z" style="fill:rgb(238,193,187);"/>
                    <path d="M467.532,594.109C466.556,593.994 460.772,593.312 455.571,591.306C444.943,587.205 440.478,582.202 437.6,577.445C432.195,568.512 433.532,556.71 444.574,547.592C450.468,542.724 461.592,539.521 465.469,539.211C476.461,538.331 482.268,538.56 493.296,542.978C495.725,543.951 501.238,547.576 504.293,550.692C506.389,552.83 508.855,557.131 509.09,557.694C515.955,574.14 503.009,589.748 482.469,593.354C476.209,594.453 474.234,594.409 467.532,594.109Z" style="fill:rgb(236,142,155);"/>
                    <path d="M337.443,348.859C356.128,352.199 363.402,355.634 372.659,364.331C373.047,364.697 373.371,364.751 378.756,371.29C379.189,371.815 380.786,373.465 379.665,374.643C378.516,375.849 372.124,377.696 359.447,385.413C356.394,387.272 355.005,387.684 341.769,396.886C340.946,397.458 341.031,397.538 340.224,398.099C337.738,399.824 336.755,396.704 335.343,394.604C327.712,383.263 315.307,370.9 299.534,368.289C290.244,366.751 283.855,369.229 282.586,369.721C276.709,372 276.643,373.481 275.578,373.293C273.879,372.994 277.685,365.861 280.618,362.603C285.353,357.343 290.694,353.221 299.512,350.537C307.579,348.083 318.458,346.33 337.443,348.859Z" style="fill:rgb(251,232,218);"/>
                    <path d="M303.856,433.749C302.912,434.847 300.177,438.381 299.862,438.788C298.481,440.574 298.385,441.78 296.566,440.419C296.308,440.226 293.175,435.809 292.456,434.527C291.412,432.664 285.047,423.138 282.653,417.433C281.871,415.568 279.777,411.117 278.696,408.422C276.807,403.715 274.428,394.721 273.534,387.496C273.007,383.239 277.343,380.251 277.343,380.251C277.343,380.251 279.87,378.322 282.659,376.806C290.994,372.275 302.386,375.295 307.342,377.823C318.445,383.485 322.369,389.335 322.997,390.079C326.275,393.967 326.473,393.815 328.95,398.243C329.958,400.044 332.068,402.662 331.467,404.484C331.166,405.395 324.509,410.617 316.375,419.383C307.521,428.923 305.615,431.771 303.856,433.749" style="fill:rgb(238,193,187);"/>
                    <path d="M547.518,779.492C545.96,776.316 544.496,772.228 544.265,771.584C543.174,768.539 542.694,768.539 543.146,767.309C543.536,766.246 545.584,766.649 546.497,766.673C575.416,767.439 586.978,764.788 592.559,764.045C592.956,763.992 593.065,763.718 593.67,764.33C593.782,764.442 594.006,764.475 594.036,764.63C594.136,765.143 593.554,766.354 593.486,766.494C592.059,769.463 587.108,781.744 584.621,785.582C581.246,790.79 564.878,789.582 563.509,789.418C550.167,787.818 550.57,785.735 547.518,779.492Z" style="fill:rgb(238,193,187);"/>
                    <path d="M297.18,554.567C298.593,562.558 298.44,569.4 294.733,577.61C291.013,585.852 283.645,586.971 278.965,579.214C273.909,570.834 274.17,549.379 282.731,542.824C284.8,541.24 288.454,540.687 291.257,542.842C295.213,545.885 296.458,551.904 297.18,554.567Z" style="fill:rgb(40,23,48);"/>
                    <path d="M336.857,556.436C339.618,574.64 331.835,582.674 330.514,583.519C317.884,591.592 310.543,564.792 318.358,548.431C322.644,539.457 330.95,540.322 334.445,548.525C336.046,552.284 336.273,553.496 336.857,556.436Z" style="fill:rgb(40,23,48);"/>
                    <g transform="matrix(0.907093,0,0,0.907093,-56.066314,-30.864982)">
                        <circle cx="521.97" cy="598.024" r="14.89" style="fill:rgb(40,23,48);"/>
                    </g>
                    <g transform="matrix(0.907093,0,0,0.907093,-142.286219,-57.8789)">
                        <circle cx="521.97" cy="598.024" r="14.89" style="fill:rgb(40,23,48);"/>
                    </g>
                </g>
                <g id="Fondo1" serif:id="Fondo" transform="matrix(0.246234,0,0,0.246234,549.907724,453.789771)">
                    <path d="M665.034,564.505C664.948,569.556 665.57,583.037 663.79,596.545C662.682,604.961 661.402,610.232 661.117,611.405C658.768,621.082 658.622,621.037 655.036,630.325C653.22,635.028 641.808,655.178 636.269,661.294C625.773,672.887 624.267,673.572 615.712,680.761C611.798,684.049 599.894,691.879 590.636,695.82C583.179,698.995 583.221,699.062 575.519,701.554C567.958,703.999 553.909,706.729 546.522,706.964C538.999,707.204 539.021,707.672 531.507,707.337C523.986,707.001 523.967,707.391 516.528,706.3C515.734,706.184 515.722,706.391 506.572,705.056C505.996,704.972 490.665,701.653 490.473,701.602C489.432,701.327 474.231,696.771 472.612,696.187C466.017,693.808 459.769,690.678 458.683,690.134C451.736,686.654 446.721,683.291 444.284,681.86C436.137,677.077 436.294,676.866 428.438,671.589C421.026,666.612 417.839,663.708 411.341,657.674C400.546,647.649 394.807,640.648 385.251,628.69C383.174,626.091 376.012,615.813 375.224,614.682C374.143,613.13 374.177,613.114 366.276,600.631C365.807,599.89 358.838,587.774 356.972,584.256C347.122,565.69 341.557,551.907 334.704,535.415C334.294,534.43 327.028,514.623 325.421,509.526C306.903,450.782 306.02,444.426 303.411,434.524C300.781,424.54 301.113,424.476 298.466,414.509C294.215,398.501 282.804,342.948 281.068,333.582C280.008,327.869 278.603,321.569 278.371,320.529C278.016,318.94 272.063,287.535 264.842,260.407C256.893,230.539 248.621,215.66 246.356,210.57C244.458,206.306 236.093,188.929 227.375,178.603C225.948,176.913 224.836,174.889 216.706,167.278C215.189,165.857 208.643,160.971 206.371,159.745C200.265,156.451 197.372,155.596 196.546,155.352C195.764,155.121 191.165,153.454 183.473,152.913C179.312,152.62 175.171,153.107 174.454,153.191C168.952,153.838 163.539,155.569 162.614,155.865C160.068,156.68 152.363,158.983 142.474,169.476C141.592,170.412 141.633,170.416 132.35,181.377C131.637,182.219 122.359,194.919 118.958,200.771C103.699,227.023 104.285,227.346 100.207,234.34C99.557,235.455 99.577,235.456 92.247,248.369C91.631,249.454 84.812,263.3 84.68,263.584C75.862,282.597 74.065,299.312 63.297,306.176C61.962,307.026 55.326,310.852 47.575,304.408C37.978,296.428 41.55,286.62 43.103,278.421C43.681,275.369 47.918,260.638 54.061,247.307C55.18,244.879 62.514,226.661 73.274,208.373C76.201,203.398 75.982,203.292 86.327,185.398C92.678,174.411 93.299,173.987 97.919,166.777C98.417,166.001 106.95,153.784 115.825,143.785C123.105,135.582 123.327,135.808 130.69,127.686C149.799,106.605 181.722,82.61 182.342,82.226C187.06,79.309 224.464,50.374 280.392,32.077C291.203,28.54 337.025,16.868 398.823,17.978C462.665,19.124 532.8,36.519 553.544,44.381C559.811,46.757 559.869,46.571 569.693,51.059C573.838,52.952 578.73,54.43 591.23,61.939C593.952,63.574 600.788,67.861 601.652,76.487C602.377,83.727 596.961,89.308 596.14,90.154C589.794,96.693 574.465,99.236 571.839,100.992C565.35,105.329 572.801,116.738 575.569,124.474C580.851,139.235 581.205,139.105 586.928,158.375C588.653,164.18 593.241,182.548 595.144,196.55C595.644,200.228 600.122,233.164 601.204,242.541C601.278,243.182 601.322,243.169 602.233,250.538C602.636,253.806 606.761,279.076 607.166,281.556C613.013,317.376 617.92,334.355 620.898,347.408C625.095,365.802 642.935,437.513 649.358,465.534C656.888,498.389 663.644,531.271 665.034,564.505Z" style="fill:rgb(40,23,48);"/>
                    <path d="M629.962,572.513C629.823,580.553 629.747,580.533 628.908,588.546C627.813,599.013 624.772,609.79 622.076,616.328C618.821,624.219 618.465,624.069 615.522,629.513C614.898,630.666 612.714,633.581 610.608,636.578C609.277,638.472 603.03,645.222 602.076,646.021C599.322,648.327 599.383,648.371 596.649,650.682C595.384,651.752 588.75,656.363 587.327,657.205C578.237,662.576 572.131,665.046 564.426,667.243C557.607,669.187 550.667,670.053 549.455,670.204C546.436,670.581 546.47,670.881 539.481,671.156C533.989,671.372 534.01,671.547 528.51,671.291C521.99,670.989 521.97,671.324 516.514,670.41C512.383,669.717 511.6,670.432 494.396,665.876C494.114,665.801 482.256,661.796 478.329,659.849C471.965,656.695 466.512,654.334 460.626,650.304C456.59,647.541 437.402,637.12 415.162,608.759C401.381,591.185 394.971,578.507 390.803,571.333C389.393,568.908 376.006,542.067 372.341,532.566C369.252,524.556 368.448,524.872 358.068,493.642C348.303,464.26 335.822,422.093 334.183,414.581C333.274,410.415 331.457,404.477 329.066,392.588C327.773,386.161 324.122,369.467 323.682,367.459C321.658,358.205 311.19,301.066 306.424,282.519C303.769,272.186 304.069,270.212 297.807,248.411C283.092,197.18 264.535,170.791 260.618,164.426C260.029,163.47 248.693,145.581 235.44,134.574C227.689,128.137 223.706,126.707 220.663,125.174C210.491,120.052 198.118,120.993 197.882,113.509C197.782,110.357 201.469,107.486 207.851,102.996C227.898,88.892 233.268,85.96 235.602,84.685C251.308,76.108 251.419,75.75 268.578,68.686C280.863,63.628 308.328,54.952 336.564,50.917C338.792,50.598 354.449,48.361 364.51,47.66C376.485,46.826 376.482,47.057 388.501,47.067C390.416,47.068 390.41,47.113 408.529,48.129C409.474,48.182 423.998,50.066 427.482,50.621C428.926,50.85 446.993,53.219 466.403,60.749C466.492,60.783 476.93,64.285 490.437,72.603C491.8,73.442 499.047,78.636 500.302,79.731C503.347,82.39 506.085,84.951 506.579,85.414C508.882,87.569 512.453,92.375 516.659,97.37C520.455,101.879 531.223,116.469 535.354,124.574C542.881,139.343 544.702,144.552 548.999,157.337C551.633,165.175 553.084,170.312 557.352,189.533C558.275,193.69 559.965,205.185 560.166,206.55C563.104,226.541 567.497,258.561 568.666,265.473C569.207,268.669 572.763,300.892 583.341,343.541C586.874,357.787 618.311,489.744 618.92,492.404C621.028,501.62 622.921,508.606 624.964,520.42C625.166,521.59 625.568,523.228 626.132,526.567C628.959,543.297 630.474,562.13 629.962,572.513Z" style="fill:rgb(251,232,218);"/>
                </g>
                <path d="M609.164,433.496C609.164,433.496 622.724,433.957 622.716,440.352C622.711,444.602 616.862,445.144 610.453,445.541C565.685,446.524 517.923,462.079 517.923,462.079C514.546,463.125 507.752,464.052 506.228,459.465C503.932,452.549 512.846,450.04 512.846,450.04C512.846,450.04 564.744,431.23 609.164,433.496" style="fill:rgb(40,23,48);stroke:black;stroke-width:1px;"/>
            </g>
        </g>
    </g>
</svg>
