<?xml version="1.0" encoding="UTF-8" standalone="no"?>
<!DOCTYPE svg PUBLIC "-//W3C//DTD SVG 1.1//EN" "http://www.w3.org/Graphics/SVG/1.1/DTD/svg11.dtd">
<svg width="100%" height="100%" viewBox="0 0 465 465" version="1.1" xmlns="http://www.w3.org/2000/svg" xmlns:xlink="http://www.w3.org/1999/xlink" xml:space="preserve" xmlns:serif="http://www.serif.com/" style="fill-rule:evenodd;clip-rule:evenodd;stroke-linecap:round;stroke-linejoin:round;stroke-miterlimit:1.5;">
    <g transform="matrix(1,0,0,1,-11099.62917,-6450.371698)">
        <g transform="matrix(1.276754,0,0,1.897866,-2116.350918,-3543.870901)">
            <g transform="matrix(0.783236,0,0,0.526907,10221.740289,4917.345192)">
                <g transform="matrix(1,0,0,1,26.58939,221.449156)">
                    <path d="M357.147,901.169C292.429,897.293 234.919,866.485 195.684,819.812C195.552,796.232 199.316,762.683 221.316,742.499C230.241,734.311 240.581,729.966 251.599,728.387C264.339,790.122 296.594,850.839 357.147,901.169Z" style="fill:rgb(233,117,45);stroke:black;stroke-width:6.6px;"/>
                </g>
                <g transform="matrix(1,0,0,1,26.58939,221.449156)">
                    <path d="M540.876,826.102C498.962,872.447 438.368,901.584 371.023,901.584C366.364,901.584 361.737,901.444 357.147,901.169C296.594,850.839 264.339,790.122 251.599,728.387C301.023,721.303 364.1,769.867 374.402,776.727C444.842,823.632 493.473,826.549 540.876,826.102Z" style="fill:rgb(233,117,45);stroke:black;stroke-width:6.6px;"/>
                </g>
                <g transform="matrix(1,0,0,1,26.58939,221.449156)">
                    <path d="M598.419,645.579C599.463,654.444 600,663.463 600,672.606C600,731.637 577.614,785.48 540.876,826.102C493.473,826.549 444.842,823.632 374.402,776.727C364.1,769.867 301.023,721.303 251.599,728.387C246.781,705.042 244.753,681.552 245.041,658.422C282.934,655.28 332.353,651.972 396.902,648.705C413.761,647.852 498.88,643.544 598.419,645.579Z" style="fill:rgb(233,117,45);stroke:black;stroke-width:6.6px;"/>
                </g>
                <g transform="matrix(1,0,0,1,26.58939,221.449156)">
                    <path d="M142.056,670.38C142.593,614.099 163.478,562.647 197.703,523.032C189.478,550.444 188.504,597.787 250.248,602.006C247.105,620.373 245.28,639.274 245.041,658.422C190.228,662.967 159.535,667.164 142.056,670.38Z" style="fill:rgb(233,117,45);stroke:black;stroke-width:6.6px;"/>
                </g>
                <g transform="matrix(1,0,0,1,26.58939,221.449156)">
                    <path d="M195.684,819.812C162.215,779.998 142.045,728.639 142.045,672.606C142.045,671.864 142.049,671.122 142.056,670.38C159.535,667.164 190.228,662.967 245.041,658.422C244.753,681.552 246.781,705.042 251.599,728.387C240.581,729.966 230.241,734.311 221.316,742.499C199.316,762.683 195.552,796.232 195.684,819.812Z" style="fill:rgb(233,117,45);stroke:black;stroke-width:6.6px;"/>
                </g>
                <g transform="matrix(1,0,0,1,26.58939,221.449156)">
                    <path d="M197.703,523.032C227.382,488.679 267.092,463.228 312.263,451.252C283.965,489.679 260.329,543.092 250.248,602.006C188.504,597.787 189.478,550.444 197.703,523.032Z" style="fill:rgb(233,117,45);stroke:black;stroke-width:6.6px;"/>
                </g>
                <g transform="matrix(1,0,0,1,26.58939,221.449156)">
                    <path d="M312.263,451.252C331.017,446.279 350.713,443.629 371.023,443.629C426.302,443.629 477.032,463.26 516.616,495.925C401.747,532.777 350.087,601.928 260.067,602.307C256.63,602.322 253.359,602.219 250.248,602.006C260.329,543.092 283.965,489.679 312.263,451.252Z" style="fill:rgb(233,117,45);stroke:black;stroke-width:6.6px;"/>
                </g>
                <g transform="matrix(1,0,0,1,26.58939,221.449156)">
                    <path d="M516.616,495.925C560.979,532.534 591.343,585.515 598.419,645.579C498.88,643.544 413.761,647.852 396.902,648.705C332.353,651.972 282.934,655.28 245.041,658.422C245.28,639.274 247.105,620.373 250.248,602.006C253.359,602.219 256.63,602.322 260.067,602.307C350.087,601.928 401.747,532.777 516.616,495.925Z" style="fill:rgb(233,117,45);stroke:black;stroke-width:6.6px;"/>
                </g>
            </g>
        </g>
    </g>
</svg>
