<?xml version="1.0" encoding="UTF-8" standalone="no"?>
<!DOCTYPE svg PUBLIC "-//W3C//DTD SVG 1.1//EN" "http://www.w3.org/Graphics/SVG/1.1/DTD/svg11.dtd">
<svg width="100%" height="100%" viewBox="0 0 682 740" version="1.1" xmlns="http://www.w3.org/2000/svg" xmlns:xlink="http://www.w3.org/1999/xlink" xml:space="preserve" xmlns:serif="http://www.serif.com/" style="fill-rule:evenodd;clip-rule:evenodd;stroke-linejoin:round;stroke-miterlimit:2;">
    <g transform="matrix(1,0,0,1,-14689.892502,-6782.001718)">
        <g transform="matrix(1.95055,0,0,2.756375,-7265.768949,-6854.068498)">
            <g id="Fondo" transform="matrix(0.600792,0,0,0.425151,11122.956506,4863.51171)">
                <path d="M686.957,294.459C686.546,289.669 685.21,282.866 684.763,280.448C679.724,253.213 665.242,246.222 667.661,226.519C670.382,204.36 697.209,186.79 720.262,202.825C723.491,205.07 728.276,210.338 730.097,213.73C739.574,231.378 731.832,235.622 734.333,271.512C737.11,311.364 755.102,331.555 757.927,335.164C763.632,342.454 771.571,349.085 779.862,360.228C788.057,371.242 791.507,379.978 793.185,383.637C794.283,386.032 797.737,396.425 798.053,397.623C806.695,430.331 801.408,467.377 801.223,469.474C800.836,473.862 798.958,487.503 797.723,493.545C795.262,505.58 795.168,505.546 794.96,506.593C792.441,519.253 786.023,539.797 785.743,540.589C780.878,554.308 780.984,554.332 780.51,555.504C775.254,568.499 775.371,568.539 774.894,569.661C771.28,578.158 767.167,586.383 766.211,588.361C762.097,596.879 761.888,596.75 760.882,598.71C756.647,606.962 756.535,606.887 749.138,619.284C745.941,624.641 743.47,627.983 742.953,628.798C742.359,629.734 738.44,635.912 735.203,640.29C734.899,640.701 732.137,644.436 731.424,645.444C726.481,652.427 725.72,652.809 724.941,653.852C723.512,655.766 717.474,663.851 705.718,676.7C697.796,685.359 697.61,685.159 696.933,685.92C693.87,689.366 693.787,689.262 690.548,692.548C685.517,697.653 685.336,697.462 684.914,697.919C682.748,700.263 682.737,700.235 680.43,702.427C673.217,709.279 662.505,718.758 657.657,722.699C640.689,736.493 636.965,738.97 631.703,742.787C614.122,755.54 613.915,755.232 612.397,756.354C610.206,757.972 607.121,759.722 606.341,760.251C599.867,764.641 584.775,773.064 584.386,773.318C581.612,775.134 577.995,776.891 577.368,777.238C571.63,780.412 567.171,782.565 566.271,783C543.877,793.815 537.575,796.012 533.57,797.672C527.979,799.989 527.875,799.667 522.607,801.776C515.558,804.596 515.487,804.346 508.572,806.717C494.006,811.711 487.899,812.768 482.466,814.394C474.266,816.848 451.249,821.335 445.457,822.239C390.588,830.798 364.48,826.499 351.452,824.833C326.839,821.685 307.25,812.49 306.616,812.221C289.798,805.1 274.157,791.011 268.263,787.92C252.613,779.712 248.974,783.712 236.469,775.542C236.067,775.278 231.362,771.477 229.419,768.557C225.741,763.03 218.733,751.638 223.019,732.384C223.372,730.8 225.613,720.73 232.425,714.416C238.574,708.717 247.993,707.424 249.458,707.223C260.443,705.715 261.466,704.749 264.547,703.618C273.56,700.307 275.793,697.116 286.154,690.007C286.484,689.781 286.477,689.779 290.257,687.153C295.336,683.626 295.48,683.893 300.643,680.752C304.199,678.588 308.219,677.054 308.273,677.029C313.857,674.373 313.88,674.444 314.356,674.196C320.2,671.154 342.412,664.029 352.462,661.357C372.744,655.966 372.703,655.835 374.472,655.392C385.543,652.619 385.45,652.36 396.421,649.222C413.314,644.391 437.192,635.099 447.395,630.281C454.839,626.767 454.798,626.689 455.451,626.397C462.841,623.093 466.08,620.713 470.539,618.575C470.906,618.399 480.567,612.761 480.633,612.719C481.311,612.284 490.198,606.748 491.627,605.681C495.084,603.103 495.229,603.333 498.721,600.819C500.162,599.781 510.071,592.646 516.377,587.351C520.783,583.651 520.895,583.807 528.761,576.8C533.16,572.882 533.226,572.978 540.702,565.713C554.522,552.284 562.931,542.129 564.928,539.872C570.095,534.032 569.957,533.924 570.41,533.42C574.163,529.235 586.404,512.923 588.638,509.592C596.958,497.193 599.15,494.33 602.846,487.696C603.004,487.412 613.605,471.002 625.822,445.656C630.7,435.535 633.528,429.046 633.744,428.621C637.17,421.852 636.872,421.23 639.132,416.335C642.797,408.397 642.277,408.185 646.115,400.318C647.754,396.957 647.333,396.766 652.914,385.709C660.841,370.003 668.766,360.292 671.662,355.604C676.782,347.314 681.356,340.937 683.251,334.419C686.982,321.578 688.591,316.22 686.957,294.459Z" style="fill:rgb(24,33,50);"/>
                <path d="M371.394,669.081C384.874,665.146 399.646,661.844 422.552,653.642C429.101,651.298 432.427,649.773 434.662,648.954C443.447,645.734 443.869,645.003 451.67,641.917C457.309,639.686 457.008,639.083 462.559,636.627C465.239,635.441 472.074,631.543 474.451,630.409C478.455,628.498 498.855,615.682 502.746,612.842C509.46,607.941 509.494,608.014 516.117,603.014C527.807,594.187 540.614,582.595 545.193,578.182C565.227,558.875 572.11,549.819 577.195,544.229C580.046,541.095 579.733,540.861 581.658,538.63C586.288,533.268 585.921,532.984 588.253,530.291C590.34,527.882 591.364,526.215 592.614,524.588C597.124,518.721 598.322,516.474 599.201,515.29C602.806,510.43 612.572,495.134 613.069,494.252C616.379,488.372 619.748,483.223 623.905,475.726C635.36,455.065 644.648,433.997 644.828,433.658C647.1,429.387 649.571,422.691 651.216,419.372C652.622,416.534 655.761,408.215 656.2,407.362C657.16,405.493 661.694,395.331 661.987,394.74C662.432,393.843 665.843,386.968 667.715,383.612C672.385,375.238 685.759,357.124 687.663,353.591C691.66,346.176 695.295,339.126 698.007,326.4C701.211,311.365 699.368,292.774 697.712,283.464C694.639,266.2 693.001,264.497 691.613,260.457C690.382,256.874 687.6,253.005 687.735,251.529C687.946,249.228 698.114,243.881 698.576,243.658C709,238.604 720.657,239.667 721.5,240.5C722.283,241.275 722.227,241.424 721.705,249.513C721,260.444 722.277,284.126 726.69,299.447C730.087,311.238 733.772,322.124 743.593,336.434C744.461,337.699 749.187,344.585 755.727,351.279C756.648,352.221 773.48,368.031 781.596,387.461C786.843,400.021 788.571,411.311 788.898,413.446C789.371,416.537 791.844,432.696 790.507,452.5C788.629,480.317 785.366,493.544 783.737,501.549C781.679,511.668 781.424,511.588 778.764,521.573C774.322,538.251 773.113,540.046 771.616,544.539C769.265,551.599 766.54,557.47 764.68,562.567C763.594,565.54 761.171,570.605 760.754,571.604C756.877,580.874 748,597.457 746.745,599.633C743.946,604.491 743.798,604.381 741.098,609.273C739.397,612.353 738.276,613.803 737.335,615.402C734.119,620.871 730.272,625.989 729.817,626.695C725.527,633.349 715.915,645.544 714.447,647.458C707.615,656.365 707.384,656.146 699.035,666.081C697.452,667.965 682.778,683.318 682.523,683.524C679.951,685.6 672.719,693.531 658.226,706.181C648.081,715.036 647.859,714.756 642.366,719.337C637.421,723.461 635.437,724.76 632.316,727.275C626.786,731.732 609.746,743.6 606.564,745.6C601.043,749.069 601.157,749.204 595.577,752.621C594.594,753.223 584.804,759.218 583.255,760.087C565.321,770.139 556.013,774.369 552.708,775.959C538.711,782.695 532.449,784.695 529.706,785.964C523.794,788.698 523.579,788.113 517.539,790.592C513.434,792.278 513.444,792.297 499.585,796.752C489.535,799.983 458.737,808.608 430.552,811.913C409.623,814.368 401.41,814.238 396.498,814.439C376.084,815.276 363.571,813.46 360.519,813.259C349.592,812.541 334.721,809.232 329.52,807.436C323.684,805.422 321.874,805.359 317.485,803.537C295.608,794.453 284.716,784.31 280.562,781.414C270.555,774.435 264.372,772.283 259.588,771.142C248.949,768.605 248.829,768.475 248.186,767.774C246.146,765.548 244.971,750.95 244.945,748.49C244.834,737.965 245.756,732.27 247.03,727.372C248.863,720.321 249.093,719.37 253.554,718.89C261.011,718.089 265.669,716.362 266.678,715.988C280.797,710.752 287.447,703.314 297.229,697.073C307.876,690.279 322.384,681.604 371.394,669.081Z" style="fill:rgb(250,199,16);"/>
                <path d="M426.423,762.112C446.865,757.64 450.87,755.871 453.414,755.166C466.038,751.67 470.428,749.682 472.651,748.898C481.15,745.9 480.986,745.523 489.405,742.263C494.382,740.336 498.511,738.083 499.568,737.651C504.783,735.519 516.917,729.204 517.646,728.784C520.946,726.883 520.912,726.855 524.306,725.121C529.279,722.58 529.142,722.368 534.401,719.336C542.226,714.825 542.157,714.739 546.728,711.845C555.138,706.52 555.032,706.371 555.764,705.911C560.128,703.167 559.906,702.866 564.243,700.098C565.004,699.612 578.28,689.836 579.667,688.713C581.876,686.924 587.182,682.91 588.636,681.657C592.562,678.273 592.654,678.413 594.653,676.682C595.638,675.829 602.15,670.191 606.87,665.913C619.966,654.043 624.432,648.915 629.221,644.209C635.888,637.656 648.763,622.874 649.264,622.292C652.53,618.5 652.395,618.411 655.64,614.619C659.555,610.042 659.342,609.887 663.142,605.203C669.501,597.365 672.168,592.942 674.232,590.307C676.175,587.826 677.68,585.402 680.408,581.433C682.453,578.459 682.35,578.41 684.308,575.383C686.614,571.815 688.625,568.394 688.987,567.778C692.294,562.15 692.573,562.332 695.767,556.637C696.135,555.981 699.588,549.825 700.343,548.417C708.357,533.486 710.328,528.455 710.763,527.626C712.898,523.566 712.541,523.423 714.759,518.621C716.828,514.145 716.702,514.106 718.538,509.515C724.453,494.726 723.868,494.522 726.772,486.599C731.181,474.573 732.443,467.358 733.191,465.374C734.463,462.003 738.988,460.545 741.887,463.005C743.156,464.082 744.864,465.861 743.55,470.513C741.602,477.409 740.611,481.486 738.785,486.605C736.871,491.972 737.004,492.003 735.264,497.423C731.52,509.09 722.372,529.686 721.084,532.305C714.094,546.524 698.898,580.573 661.384,625.403C660.51,626.447 652.494,636.026 650.332,638.346C640.331,649.073 640.439,649.164 633.26,656.252C627.466,661.971 627.589,662.071 621.641,667.653C614.993,673.891 614.905,673.775 614.337,674.327C611.828,676.765 600.868,686.583 590.597,694.628C579.721,703.147 579.589,702.95 578.646,703.693C572.428,708.592 551.954,722.273 551.513,722.521C544.474,726.48 544.767,726.951 537.671,730.809C532.971,733.365 533.109,733.721 526.353,737.204C524.907,737.949 494.517,755.25 457.416,766.21C443.547,770.307 439.107,771.125 437.486,771.424C432.229,772.392 424.031,774.703 411.49,776.424C397.571,778.335 397.556,778.05 383.52,778.927C355.611,780.672 324.518,776.999 315.454,774.67C306.372,772.336 306.332,772.554 305.56,772.294C298.562,769.939 301.666,763.868 301.797,763.669C305.055,758.73 308.742,762.012 319.429,763.9C344.092,768.258 368.249,767.955 372.507,767.902C376.844,767.847 401.618,767.536 426.423,762.112Z" style="fill:rgb(24,33,50);"/>
                <path d="M313.623,709.747C322.369,705.404 329.23,704.686 332.551,703.669C342.331,700.674 342.66,702.055 348.419,700.206C352.519,698.89 353.594,699.154 364.431,697.1C372.243,695.618 372.081,694.968 379.489,693.445C382.27,692.873 386.857,691.074 392.511,689.545C396.768,688.394 402.405,686.442 402.47,686.418C406.047,685.09 406.177,685.511 409.693,683.99C413.389,682.391 413.649,683.112 417.415,681.305C420.007,680.06 421.389,680.018 423.242,679.009C425.424,677.821 436.47,673.481 437.27,673.026C439.235,671.908 439.3,672.077 441.415,671.297C443.905,670.378 444.101,669.825 446.348,669.17C448.519,668.537 448.61,668.753 450.479,667.463C451.771,666.571 451.822,666.701 454.478,665.458C454.866,665.277 458.254,663.691 459.288,663.121C464.497,660.248 464.666,660.606 467.347,659.198C476.847,654.211 476.914,654.325 477.647,653.748C478.879,652.78 484.947,649.659 487.248,648.168C491.896,645.155 493.194,644.702 494.637,643.707C497.053,642.04 497.351,642.52 499.618,640.659C501.979,638.722 503.616,638.472 505.198,637.099C506.062,636.349 507.162,635.826 511.174,633.062C516.479,629.405 516.228,629.102 516.689,628.787C517.781,628.043 518.654,628.357 520.608,626.641C522.104,625.327 522.596,625.262 525.721,622.805C532.955,617.116 533.041,617.23 533.652,616.713C536.651,614.177 536.798,614.393 537.245,614.125C538.604,613.308 545.812,606.894 545.829,606.877C546.916,605.788 549.378,604.193 551.401,602.384C552.996,600.958 553.261,601.299 554.74,599.749C558.05,596.281 558.533,596.788 559.485,595.486C559.631,595.286 559.741,595.062 559.895,594.868C560.815,593.717 565.647,589.565 566.497,588.498C567.832,586.823 568.218,587.236 569.651,585.635C571.415,583.664 572.21,583.342 573.143,582.209C574.481,580.585 574.435,580.55 577.065,578.076C579.394,575.884 579.082,575.598 581.433,573.433C581.803,573.092 581.777,573.086 583.797,570.744C585.382,568.908 585.737,569.246 586.765,567.706C588.337,565.351 588.536,565.527 590.267,563.3C591.737,561.408 591.595,561.128 592.929,559.883C594.547,558.373 595.78,556.603 598.319,553.376C600.304,550.852 600.209,550.806 602.134,548.251C607.706,540.857 611.961,533.882 612.927,532.884C614.411,531.352 614.016,531.093 615.184,529.305C615.594,528.677 618.701,523.917 620,521.249C621.178,518.828 621.399,518.972 622.822,516.674C625.008,513.145 624.874,513.077 625.749,511.633C626.468,510.447 626.632,510.587 627.358,509.414C628.207,508.04 627.823,507.363 629.3,505.396C630.04,504.411 633.125,497.967 634.143,496.271C636.508,492.332 635.788,491.966 641.325,482.393C641.762,481.638 642.669,479.166 642.915,478.711C643.985,476.731 643.89,476.7 644.894,474.681C653.699,456.986 653.487,456.896 654.361,455.418C655.498,453.495 655.271,453.396 656.29,451.413C657.529,449.002 657.288,448.916 658.466,446.482C662.775,437.582 662.541,437.488 662.968,436.744C663.807,435.286 664.349,433.578 665.735,430.615C669.657,422.228 675.212,425.443 676.459,427.531C677.935,430.001 677.789,430.933 676.107,434.275C674.239,437.988 672.834,442.627 670,447.23C668.378,449.866 669.172,450.968 667.881,452.68C666.908,453.97 665.749,457.09 665.115,458.303C662.038,464.192 662.045,464.18 662.037,464.192C660.596,466.251 660.958,466.431 659.825,468.677C659.344,469.629 657.247,474.005 657.082,474.29C655.056,477.803 655.682,478.098 653.614,481.568C651.833,484.557 650.775,487.903 648.578,491.542C647.45,493.409 644.713,499.298 643.876,500.708C641.739,504.305 642.271,504.566 640.862,506.694C638.693,509.969 635.222,517.785 634.019,519.166C632.063,521.411 632.424,522.657 629.476,526.484C627.278,529.337 628.16,529.869 626.674,531.594C624.846,533.716 617.742,545.468 615.016,549.124C613.744,550.831 613.957,550.97 612.533,552.528C610.718,554.515 607.915,559.051 607.51,559.508C605.383,561.916 605.382,561.902 603.511,564.509C602.46,565.974 602.208,565.732 601.085,567.147C600.703,567.628 600.659,567.582 595.974,572.88C594.297,574.775 594.573,574.98 592.863,576.851C588.014,582.156 587.764,581.907 587.412,582.421C584.497,586.683 583.902,586.17 582.254,588.254C581.797,588.832 580.209,590.84 575.778,594.81C572.079,598.124 572.511,598.591 568.513,601.515C567.6,602.183 567.539,602.594 567.1,603.055C566.52,603.663 562.348,607.178 561.193,608.008C559.696,609.084 559.969,609.384 558.426,610.412C557.316,611.15 554.505,613.791 553.183,615.135C549.22,619.167 548.076,618.849 546.444,620.432C543.528,623.263 540.635,624.992 538.76,626.811C537.206,628.317 536.738,627.677 535.213,629.209C532.838,631.597 531.325,632.094 528.394,634.382C527.894,634.772 520.572,639.405 518.903,641C517.323,642.51 516.93,642.059 515.821,642.948C514.762,643.795 514.875,643.909 513.637,644.708C513.209,644.984 510.422,646.784 508.225,648.053C503.361,650.863 503.658,651.329 498.648,653.827C494.788,655.751 492.948,657.399 492.581,657.63C490.458,658.964 488.99,659.642 488.698,659.813C479.42,665.253 479.337,665.071 478.555,665.581C478.173,665.831 477.836,666.148 477.443,666.379C477.084,666.591 475.154,667.154 473.798,667.994C471.676,669.308 471.456,668.862 469.361,670.249C468.971,670.507 465.781,671.858 459.294,675.115C454.431,677.556 452.249,678.356 451.569,678.658C437.652,684.854 437.688,684.916 436.454,685.397C428.019,688.688 428.07,688.79 427.333,689.064C413.847,694.074 412.29,695.056 411.45,695.347C408.988,696.201 406.762,696.57 406.538,696.648C403.79,697.609 403.85,697.753 400.551,698.661C394.934,700.208 394.982,700.347 394.491,700.466C393.725,700.652 388.55,702.354 385.42,703.11C382.921,703.714 383.017,703.98 380.512,704.558C373.1,706.269 373.191,706.576 372.547,706.72C367.265,707.899 365.111,708.203 364.458,708.295C360.218,708.894 360.304,709.312 357.517,709.638C355.375,709.888 355.425,710.07 353.474,710.361C349.395,710.969 349.52,711.538 345.434,712.13C341.523,712.698 341.222,713.089 339.494,713.468C324.059,716.854 322.558,718.437 316.451,720.335C315.971,720.484 313.19,721.349 310.669,722.804C308.566,724.018 307.715,723.977 306.567,724.626C304.601,725.738 304.693,725.87 302.613,726.803C300.187,727.892 300.419,728.282 298.385,729.245C292.339,732.105 284.813,723.013 296.467,717.436C301.943,714.815 301.711,714.352 307.41,712.227C310.002,711.261 309.841,710.904 313.623,709.747Z" style="fill:rgb(252,251,238);"/>
                <path d="M679.887,234.435C679.771,233.571 678.956,227.473 680.631,223.559C681.949,220.481 682.722,218.176 686.617,214.632C687.278,214.031 690.451,211.143 696.462,209.359C698.884,208.64 704.103,208.744 706.488,209.545C715.223,212.48 718.883,216.677 721.32,223.578C721.621,224.432 722.941,227.298 722.1,228.196C721.625,228.703 719.709,228.53 719.5,228.511C718.838,228.451 718.177,228.377 717.515,228.318C709.362,227.59 701.786,229.711 699.523,230.569C695.311,232.164 695.145,231.822 691.358,234.281C690.872,234.597 685.814,237.882 685.331,238.293C684.347,239.129 684.374,239.143 684.288,239.214C684.119,239.353 682.598,240.604 681.561,239.452C680.811,238.619 681.077,238.497 680.755,237.407C680.315,235.917 680.323,235.929 679.887,234.435Z" style="fill:rgb(168,61,68);"/>
            </g>
        </g>
    </g>
</svg>
