<?xml version="1.0" encoding="UTF-8" standalone="no"?>
<!DOCTYPE svg PUBLIC "-//W3C//DTD SVG 1.1//EN" "http://www.w3.org/Graphics/SVG/1.1/DTD/svg11.dtd">
<svg width="100%" height="100%" viewBox="0 0 1327 614" version="1.1" xmlns="http://www.w3.org/2000/svg" xmlns:xlink="http://www.w3.org/1999/xlink" xml:space="preserve" xmlns:serif="http://www.serif.com/" style="fill-rule:evenodd;clip-rule:evenodd;stroke-linejoin:round;stroke-miterlimit:2;">
    <g transform="matrix(1,0,0,1,-11308.14906,-10290.216693)">
        <g transform="matrix(1.95055,0,0,3.948123,-7265.768949,-11556.637138)">
            <g id="Fondo" transform="matrix(1.066519,0,0,0.526909,9315.063788,5321.72908)">
                <path d="M200.694,572.529C200.802,570.85 200.921,569.007 200.926,551.499C200.928,546.878 196.736,543.651 194.916,531.438C192.978,518.427 197.105,507.571 197.843,505.629C200.232,499.343 203.283,494.581 204.689,492.629C206.492,490.127 207.023,488.85 210.671,484.645C213.689,481.165 213.72,481.217 216.972,477.973C220.814,474.14 228.792,467.95 228.815,467.935C232.348,465.483 232.209,465.31 235.822,462.991C242.6,458.642 242.555,458.59 249.561,454.607C255.789,451.066 255.901,451.315 262.29,448.073C268.692,444.824 268.893,445.293 275.335,442.157C276.795,441.446 290.169,435.92 302.378,432.126C303.339,431.827 310.749,429.19 317.436,427.284C331.344,423.32 331.327,423.328 345.392,420.025C354.777,417.821 354.738,417.691 377.45,413.26C393.059,410.215 429.934,405.23 457.507,403.658C485.762,402.046 535.492,399.694 597.535,406.09C607.281,407.095 636.315,410.746 650.453,413.716C654.776,414.624 666.848,416.599 673.554,418.275C683.188,420.684 690.78,421.976 700.358,424.95C709.044,427.647 710.202,427.456 721.555,431.337C726.943,433.179 726.97,433.053 732.361,434.903C734.582,435.665 739.018,437.597 744.466,439.588C747.531,440.709 761.92,446.827 765.362,448.766C770.446,451.63 770.728,451.075 775.713,454.137C776.311,454.505 782.942,458.003 785.365,459.703C787.126,460.938 789.098,461.741 797.247,467.844C800.308,470.137 807.255,474.886 816.919,486.145C822.134,492.22 827.085,500.807 829.185,507.601C833.886,522.807 831.952,534.003 827.438,545.474C826.286,548.402 825.237,549.568 825.189,551.491C825.155,552.851 825.278,552.849 825.216,568.498C825.207,570.825 825.449,572.35 825.462,572.506C825.397,585.126 825.035,588.253 822.438,595.476C821.585,597.849 817.365,606.078 812.23,612.28C801.294,625.486 793.867,629.992 787.681,634.747C786.675,635.52 779.952,639.956 774.339,643.194C767.675,647.039 759.64,651.203 753.656,653.846C736.804,661.29 727.88,664.92 703.464,672.372C690.894,676.209 666.257,681.862 661.534,682.692C649.153,684.867 638.634,687.544 615.478,690.347C614.601,690.453 605.016,691.613 604.524,691.678C598.402,692.486 572.554,695.899 527.506,696.797C504.596,697.253 457.132,696.479 426.538,692.235C425.744,692.125 412.719,690.911 392.457,687.827C391.777,687.724 364.858,683.14 352.618,680.058C342.872,677.603 324.923,673.717 300.631,665.124C273.127,655.396 257.042,646.167 255.635,645.27C253.248,643.747 250.092,642.468 245.616,639.324C241.689,636.566 239.402,636.06 228.726,627.212C226.527,625.389 225.929,625.186 221.838,621.152C220.344,619.679 210.434,609.907 205.938,600.291C199.869,587.31 201.403,586.82 200.694,572.529Z" style="fill:rgb(37,33,32);"/>
                <path d="M588.479,412.742C591.312,412.959 623.873,416.182 640.489,419.556C650.701,421.63 650.843,420.853 668.407,424.89C681.555,427.912 681.676,427.361 694.605,431.15C701.639,433.211 701.833,432.73 713.418,436.741C714.192,437.008 721.78,438.965 736.499,444.503C746.052,448.098 745.944,448.35 747.671,449.125C752.166,451.143 752.26,450.898 756.722,453.015C758.226,453.729 769.304,458.554 784.214,467.931C786.261,469.219 797.118,476.988 802.207,481.804C806.856,486.203 829.358,506.564 823.108,533.406C816.608,561.322 784.274,580.106 781.742,581.871C775.617,586.137 762.758,592.811 759.443,594.389C756.628,595.729 741.435,602.959 723.409,609.241C696.011,618.791 666.208,625.362 658.527,626.656C650.843,627.949 644.538,630.115 602.519,635.651C591.914,637.048 575.809,638.09 573.482,638.241C546.399,639.994 506.829,643.701 430.528,636.233C413.86,634.601 379.009,629.27 363.44,625.772C360.918,625.206 356.787,624.71 348.516,622.442C337.972,619.55 337.842,620.103 327.388,616.858C319.127,614.293 319.002,614.763 305.651,610.057C300.882,608.376 218.757,582.778 204.459,537.514C202.015,529.777 199.593,520.041 207.312,503.413C210.395,496.77 220.658,483.056 232.564,474.587C235.839,472.258 237.58,470.714 239.55,469.578C240.023,469.305 248.141,463.75 254.55,460.593C255.448,460.151 255.329,459.943 265.657,454.831C272.34,451.523 272.417,451.72 278.352,449.154C284.348,446.562 284.235,446.324 290.425,444.299C291.388,443.985 291.302,443.8 302.354,440.062C305.373,439.04 323.411,432.938 340.546,428.693C342.053,428.32 342.046,428.36 359.448,424.293C361.377,423.843 389.086,418.464 400.434,417.006C409.084,415.895 416.227,414.67 443.465,412.023C443.942,411.977 466.43,410.198 484.502,409.586C536.481,407.825 566.221,411.093 579.475,411.847C583.997,412.104 583.96,412.348 588.479,412.742Z" style="fill:rgb(184,195,197);"/>
                <path d="M490.519,634.039C486.502,633.765 486.512,633.826 482.494,633.64C458.272,632.519 442.203,630.966 441.461,630.913C423.553,629.623 385.012,623.864 379.504,622.482C375.026,621.358 369.673,620.706 360.449,618.734C351.886,616.904 345.33,614.996 342.529,614.373C331.221,611.855 329.156,610.549 322.433,608.715C315.444,606.809 315.312,606.386 303.482,602.553C299.578,601.288 284.409,595.169 279.712,593.018C254.976,581.689 242.533,571.667 239.633,569.331C230.249,561.773 224.977,555.045 224.09,553.797C219.625,547.518 219.485,547.594 216.3,540.583C212.297,531.771 212.257,521.099 214.723,513.57C218.114,503.211 223.195,496.873 224.303,495.365C227.902,490.465 233.196,485.735 234.497,484.496C238.127,481.04 238.254,481.207 242.183,478.096C246.344,474.802 246.393,474.893 250.778,471.913C257.358,467.442 268.834,461.677 269.443,461.387C271.399,460.457 274.562,458.688 277.475,457.439C287.692,453.057 287.652,452.985 288.556,452.645C302.476,447.421 302.419,447.322 303.641,446.905C310.081,444.706 310.102,444.812 316.55,442.637C332.449,437.275 357.23,431.998 359.492,431.462C374.872,427.818 387.774,426.052 389.539,425.738C413.847,421.406 413.942,422.202 438.5,419.502C465.373,416.549 499.116,416.198 505.496,416.169C555.429,415.941 573.985,418.573 581.534,419.133C593.545,420.024 621.418,423.167 627.539,424.297C642.673,427.09 645.208,426.698 666.523,431.395C670.557,432.284 670.525,432.362 674.558,433.264C686.167,435.859 686.086,436.135 697.608,439.115C705.631,441.19 710.801,443.332 714.544,444.355C719.342,445.667 736.215,451.991 740.323,453.879C746.839,456.875 746.977,456.535 751.381,458.745C763.261,464.706 768.648,467.309 779.363,474.699C782.898,477.137 782.811,477.228 786.236,479.845C788.173,481.325 787.992,481.519 789.9,483.046C791.99,484.717 792.13,484.544 797.182,489.799C804.276,497.179 807.681,504.084 807.823,504.322C812.599,512.33 814.267,523.342 812.672,531.531C811.237,538.891 809.494,541.743 808.612,543.558C804.62,551.774 796.347,561.135 789.701,566.738C778.051,576.557 771.214,580.007 769.345,581.244C765.656,583.686 761.593,585.542 760.374,586.263C757.573,587.921 749.234,591.929 742.612,594.776C717.691,605.49 705.163,608.256 698.47,610.413C689.18,613.406 680.635,615.073 675.498,616.492C666.619,618.944 640.683,623.952 626.437,626.006C603.912,629.253 596.12,629.986 593.473,630.235C539.955,635.27 510.957,634.462 490.519,634.039Z" style="fill:rgb(37,33,32);"/>
                <path d="M796.368,547.448C793.211,552.382 792.282,553.108 786.751,558.759C784.71,560.845 784.562,560.651 779.689,564.727C777.75,566.348 768.794,572.817 765.532,574.555C764.471,575.119 761.007,577.248 759.315,578.154C739.775,588.609 733.633,590.145 724.682,593.926C715.084,597.98 685.931,606.588 676.526,608.612C673.52,609.259 661.913,612.406 648.527,614.658C644.077,615.406 629.737,618.195 621.459,619.199C606.647,620.998 591.069,624.081 548.522,625.958C505.656,627.85 474.219,626.168 443.483,623.705C441.481,623.544 432.473,622.468 431.516,622.354C425.509,621.636 401.068,619.252 379.439,614.821C373.249,613.553 373.217,613.792 366.522,612.393C360.413,611.116 340.194,606.188 339.63,606.027C332.507,603.995 322.067,600.824 320.543,600.361C316.737,599.206 298.729,593.05 290.515,589.463C281.603,585.571 273.801,581.484 272.374,580.736C266.434,577.624 266.355,577.796 260.672,574.212C254.321,570.207 254.226,570.369 248.236,565.863C246.587,564.624 233.796,555.004 230.019,547.621C228.779,545.337 227.68,544.767 231.194,540.277C236.318,533.729 239.582,530.805 242.264,528.239C245.063,525.561 251.925,520.254 253.804,518.979C263.452,512.431 263.604,512.694 273.77,506.985C276.946,505.202 282.675,502.757 283.464,502.421C289.035,500.044 288.823,499.585 294.502,497.506C296.197,496.886 310.331,491.176 326.459,486.358C327.68,485.994 342.49,481.966 343.542,481.66C346.402,480.829 359.27,478.189 365.528,476.618C368.446,475.885 376.492,474.406 377.449,474.23C405.934,468.994 412.801,468.391 437.542,465.891C451.509,464.48 451.48,464.353 465.508,463.668C465.526,463.668 484.806,462.168 516.5,462.305C552.524,462.459 571.991,464.474 579.469,464.915C580.581,464.981 591.541,466.263 597.467,466.793C600.685,467.081 624.812,469.758 632.527,471.362C643.732,473.691 643.964,472.504 671.586,479.138C671.718,479.169 676.34,479.841 696.533,485.385C703.5,487.297 703.415,487.518 716.411,491.781C723.474,494.098 723.268,494.6 730.338,496.971C734.074,498.225 749.346,505.128 754.657,508.206C755.609,508.758 761.488,511.783 766.696,515.182C767.663,515.813 774.951,520.571 778.445,523.566C778.873,523.934 778.937,523.839 783.9,528.04C792.215,535.077 794.418,539.33 796.172,541.747C798.514,544.977 797.138,545.888 796.368,547.448Z" style="fill:rgb(184,195,197);"/>
                <path d="M808.798,571.836C814.203,566.786 816.869,563.785 817.008,563.873C817.476,564.169 817.493,580.465 815.239,587.423C812.609,595.546 810.463,598.656 807.149,603.26C800.032,613.148 789.854,621.001 788.32,622.273C780,629.176 764.498,638.077 756.645,641.814C741.057,649.233 736.646,650.538 735.701,650.951C732.989,652.137 733.049,652.242 726.511,654.53C699.105,664.123 692.973,665.304 671.513,670.557C667.414,671.561 659.543,672.964 658.439,673.203C636.19,678.02 628.724,678.53 618.44,680.111C601.858,682.66 580.116,684.281 577.501,684.508C561.956,685.859 537.459,687.076 522.5,687.093C488.477,687.134 486.378,686.969 453.47,684.864C428.611,683.274 409.9,680.424 393.435,677.939C377.345,675.51 374.863,674.562 366.419,672.904C353.062,670.28 353.133,670.01 340.401,666.887C331.318,664.66 331.379,664.481 322.393,661.863C310.12,658.287 310.295,657.814 301.374,654.853C292.636,651.954 292.821,651.518 288.355,649.855C279.307,646.485 279.482,646.104 270.668,642.153C269.79,641.76 259.065,636.125 257.625,635.289C235.155,622.257 226.049,611.811 223.805,609.237C213.073,596.926 211.337,588.999 210.445,584.51C210.149,583.016 209.664,580.577 209.47,565.494C209.445,563.576 210.688,563.603 211.766,565.191C213.517,567.772 216.02,569.967 217.042,570.978C225.115,578.955 228.997,581.324 233.413,584.614C241.626,590.731 256.813,599.333 266.384,603.749C267.815,604.41 279.606,609.85 284.402,611.739C301.742,618.567 311.62,621.199 313.39,621.815C314.585,622.23 321.67,624.693 328.532,626.38C335.164,628.011 339.259,629.615 347.537,631.336C354.156,632.712 364.31,635.12 367.463,635.7C376.712,637.4 376.693,637.376 377.495,637.526C404.132,642.52 423.504,644.194 424.523,644.329C454.373,648.296 528.069,653.185 601.499,644.489C618.951,642.422 618.928,642.292 620.447,642.134C630.245,641.112 658.245,635.806 658.548,635.737C661.609,635.035 678.515,631.646 695.368,627.013C713.511,622.024 713.374,621.599 714.422,621.264C721.966,618.855 722.017,619.075 729.433,616.325C737.02,613.512 737.093,613.733 744.547,610.608C746.066,609.971 758.36,604.817 763.346,602.206C771.697,597.831 779.936,593.433 786.768,588.898C799.759,580.276 803.885,576.426 808.798,571.836Z" style="fill:rgb(160,170,172);"/>
                <path d="M353.596,441.923C387.301,434.537 405.231,432.336 428.509,429.591C436.106,428.694 477.123,424.785 528.493,425.759C584.758,426.826 612.958,431.779 620.48,432.666C629.586,433.739 666.297,439.32 696.592,448.19C707.075,451.26 707.064,451.247 717.416,454.75C730.294,459.107 730.095,459.596 736.65,462.142C743.763,464.904 743.557,465.348 750.574,468.347C752.76,469.282 762.397,474.488 763.648,475.239C778.598,484.212 778.89,485.306 785.539,490.449C788.233,492.533 793.448,498.108 794.017,498.878C800.586,507.774 801.336,509.554 803.251,514.594C806.692,523.647 804.785,532.555 803.664,533.707C802.522,534.881 801.077,532.393 800.441,531.546C795.38,524.804 787.613,518.484 787.552,518.439C786.611,517.758 783.268,514.984 783.18,514.92C765.097,501.826 753.385,496.967 749.308,494.876C744.802,492.564 742.601,491.954 734.561,488.362C727.741,485.314 704.368,477.577 697.434,475.729C665.706,467.27 658.706,466.873 653.464,465.648C652.274,465.37 647.972,464.364 638.435,462.947C626.575,461.184 626.585,461.269 625.557,461.109C596.22,456.552 578.075,455.912 555.493,454.642C528.46,453.121 487.864,453.828 476.494,454.359C445.782,455.796 445.82,456.28 433.468,457.166C422.334,457.965 422.075,458.314 418.519,458.669C412.202,459.299 412.229,459.431 394.42,462.009C383.472,463.594 383.492,463.626 382.539,463.753C378.327,464.312 352.691,469.732 349.511,470.542C331.984,475.006 331.981,474.961 330.47,475.396C311.83,480.754 303.836,483.809 301.567,484.676C298.942,485.679 285.762,490.442 274.699,495.911C259.494,503.429 255.025,506.685 253.557,507.592C251.56,508.826 248.966,510.507 248.665,510.727C230.841,523.741 227.16,530.255 225.384,532.401C224.604,533.343 224.694,533.718 223.482,533.56C222.553,533.439 222.414,531.675 222.385,531.528C221.501,527.003 220.689,521.398 224.254,512.405C226.507,506.722 231.789,499.83 232.256,499.293C243.268,486.649 252.138,481.813 256.653,478.739C261.614,475.361 266.148,473.166 268.662,471.798C275.994,467.807 276.138,468.147 280.293,466.074C286.723,462.866 286.849,463.207 293.449,460.375C299.078,457.96 299.146,458.175 304.408,456.243C318.335,451.129 322.2,450.471 329.406,448.212C340.612,444.7 340.734,445.226 353.596,441.923Z" style="fill:rgb(160,170,172);"/>
                <path d="M551.517,481.069C543.628,480.792 540.8,480.867 540.261,477.582C540.11,476.658 540.756,474.746 542.381,474.191C543.753,473.722 543.788,473.751 560.506,474.271C567.128,474.477 577.463,475.37 585.477,475.836C594.895,476.385 619.729,479.276 633.496,481.524C640.434,482.656 653.348,485.498 654.381,485.812C656.942,486.589 657.793,487.36 657.755,488.721C657.68,491.366 652.809,491.714 641.436,489.935C626.478,487.595 626.532,487.303 611.473,485.758C607.958,485.397 576.743,482.195 567.485,481.81C559.498,481.478 559.523,481.351 551.517,481.069Z" style="fill:rgb(37,33,32);"/>
                <path d="M370.464,490.544C369.648,489.728 369.53,486.37 374.596,484.963C380.623,483.289 381.046,483.737 387.456,482.307C391.072,481.5 410.76,478.73 414.471,478.277C435.99,475.65 439.564,475.224 441.643,476.264C442.995,476.94 443.221,479.098 443.099,479.81C442.742,481.906 440.677,482.19 440.422,482.297C438.425,483.134 424.795,484.116 405.522,486.672C374.611,490.771 373.302,493.381 370.464,490.544Z" style="fill:rgb(37,33,32);"/>
                <path d="M480.828,478.059C480.208,481.351 476.299,480.615 462.509,481.633C453.407,482.304 452.026,482.663 450.258,480.743C448.769,479.126 450.27,476.754 450.453,476.465C451.55,474.732 452.872,475.022 469.52,473.919C470.15,473.877 476.24,473.591 477.414,473.839C479.88,474.359 481.233,475.909 480.828,478.059Z" style="fill:rgb(37,33,32);"/>
            </g>
        </g>
    </g>
</svg>
