<?xml version="1.0" encoding="UTF-8" standalone="no"?>
<!DOCTYPE svg PUBLIC "-//W3C//DTD SVG 1.1//EN" "http://www.w3.org/Graphics/SVG/1.1/DTD/svg11.dtd">
<svg width="100%" height="100%" viewBox="0 0 811 584" version="1.1" xmlns="http://www.w3.org/2000/svg" xmlns:xlink="http://www.w3.org/1999/xlink" xml:space="preserve" xmlns:serif="http://www.serif.com/" style="fill-rule:evenodd;clip-rule:evenodd;stroke-linejoin:round;stroke-miterlimit:2;">
    <g transform="matrix(1,0,0,1,-10142.154018,-10364.391445)">
        <g transform="matrix(1.95055,0,0,3.948123,-7265.768949,-11556.637138)">
            <g id="Fondo" transform="matrix(0.600792,0,0,0.296818,8821.964162,5471.232631)">
                <path d="M802.385,325.913C814.327,329.22 814.39,328.931 821.374,330.935C828.85,333.08 828.86,332.997 836.371,334.982C837.491,335.278 842.835,336.029 842.684,340.504C842.571,343.864 839.67,344.455 832.673,349.738C831.359,350.731 825.262,354.648 823.718,355.799C822.935,356.383 822.871,356.286 813.719,362.818C811.104,364.684 810.963,364.452 804.337,369.268C803.817,369.646 803.749,369.541 797.708,373.811C797.176,374.187 784.036,383.248 783.579,383.604C780.844,385.728 779.982,386.021 777.646,387.709C774.994,389.625 766.53,395.381 766.469,395.475C765.398,397.12 767.576,398.335 769.183,399.837C777.936,408.019 791.49,419.958 793.328,421.687C797.884,425.977 851.18,473.739 855.6,477.376C859.899,480.913 863.347,483.408 861.639,487.561C860.257,490.923 853.992,491.843 849.36,494.202C849.146,494.311 791.171,517.807 787.439,519.353C783.308,521.064 781.298,521.62 775.396,524.268C773.894,524.941 762.873,528.981 761.988,529.968C760.998,531.071 761.45,531.307 761.357,554.5C761.199,593.603 761.362,656.62 761.384,665.5C761.408,674.588 758.874,674.008 750.409,677.267C727.233,686.19 709.399,693.517 702.656,695.924C698.412,697.439 695.958,698.85 689.397,701.201C684.453,702.972 680.412,705.037 659.635,712.853C657.146,713.789 657.239,714.008 628.7,724.99C622.477,727.385 622.587,727.612 610.412,732.259C607.67,733.306 606.041,734.225 600.406,736.24C597.976,737.108 579.936,744.247 577.416,745.294C572.074,747.512 572.008,747.322 554.431,754.328C539.521,760.272 539.464,760.087 534.382,762.224C527.644,765.058 527.509,764.689 521.443,767.374C511.774,771.653 510.929,771.425 504.482,768.54C499.987,766.528 500.026,766.472 495.454,764.611C490.806,762.718 489.655,761.822 484.389,759.788C482.429,759.031 458.556,748.506 437.445,739.626C436.986,739.433 431.187,736.701 427.548,735.377C423.968,734.074 418.398,731.147 413.55,729.377C413.224,729.259 397.062,722.303 394.648,721.172C389.359,718.694 387.072,718.236 380.666,715.136C376.765,713.248 275.404,670.125 272.452,668.582C267.991,666.25 268.813,663.135 268.829,653.501C268.845,643.496 269.028,529.603 268.733,528.442C268.332,526.865 267.057,526.634 258.421,522.676C252.501,519.962 252.448,520.129 246.601,517.292C242.06,515.09 239.905,514.672 234.341,511.835C233.668,511.492 224.332,507.395 221.67,506.13C218.522,504.634 201.828,497.38 192.678,493.093C186.192,490.054 186.137,490.205 179.673,487.118C174.428,484.613 171.374,484.484 170.902,480.465C170.485,476.917 174.219,475.05 178.238,471.231C180.464,469.115 185.98,464.448 198.237,453.207C202.152,449.616 202.27,449.781 206.146,446.117C207.668,444.678 207.765,444.79 225.614,428.627C229.559,425.054 229.638,425.165 233.603,421.615C233.629,421.592 237.74,417.67 246.701,409.731C250.436,406.422 250.361,406.366 254.139,403.097C256.651,400.924 265.261,392.717 265.431,392.451C266.844,390.232 263.997,389.225 259.583,385.403C258.723,384.658 258.707,384.69 248.602,376.373C233.226,363.716 233.434,363.485 217.917,351.002C217.214,350.437 217.263,350.383 209.288,343.759C208.587,343.176 202.031,337.731 200.631,336.357C196.85,332.647 199.479,328.92 202.423,328.227C203.388,328 203.431,328.261 214.543,325.668C228.499,322.411 228.561,322.765 242.491,319.46C253.564,316.832 253.646,317.294 272.581,312.83C273.999,312.495 274.021,312.638 290.398,309.043C310.04,304.731 310.022,304.721 312.439,304.223C319.564,302.754 321.665,301.995 330.44,300.21C347.828,296.673 347.694,296.128 361.493,293.464C370.776,291.672 370.637,291.079 389.464,287.328C393.076,286.608 452.089,273.45 453.484,273.32C458.015,272.896 459.648,276.049 466.547,281.443C467.305,282.035 467.24,282.092 475.751,289.191C485.346,297.195 485.249,297.299 490.115,300.981C493.179,303.299 492.869,303.645 495.914,306.012C503.32,311.77 509.755,317.852 514.56,321.421C515.004,321.751 520.084,325.866 520.149,325.923C523.435,328.808 523.979,327.119 527.55,324.573C528.405,323.964 530.151,322.9 531.677,321.735C533.846,320.079 585.76,283.964 590.408,280.374C592.023,279.126 598.565,274.647 599.284,274.163C602.83,271.773 603.916,273.318 617.453,276.677C622.305,277.88 633.529,281.102 640.426,282.776C644.982,283.881 653.772,286.592 662.461,288.652C670.493,290.556 670.384,290.922 685.44,294.718C687.134,295.145 687.051,295.431 706.535,300.364C708.379,300.831 708.301,301.074 729.499,306.504C730.863,306.853 755.502,313.402 756.449,313.667C772.079,318.047 790.903,322.651 802.385,325.913Z" style="fill:rgb(7,4,4);"/>
                <path d="M508.396,487.5C508.218,519.097 508.298,758.552 508.275,759.48C508.255,760.243 508.316,760.295 507.764,760.809C506.855,761.658 505.8,760.725 502.562,759.358C491.531,754.699 491.58,754.603 490.616,754.213C485.943,752.32 477.333,748.386 476.304,747.957C444.149,734.579 444.473,733.862 431.419,728.716C427.432,727.144 427.554,726.892 423.583,725.291C414.595,721.667 414.747,721.343 405.467,717.581C400.174,715.435 400.326,715.115 395.587,713.28C392.612,712.127 387.77,710.028 387.735,710.012C381.253,706.952 381.159,707.196 374.598,704.278C368.106,701.391 368.027,701.639 362.614,699.241C351.963,694.523 351.984,694.529 333.448,686.607C315.994,679.148 316.07,679.019 314.551,678.376C295.239,670.199 295.215,670.261 292.322,668.893C286.034,665.919 285.899,666.283 279.565,663.364C276.155,661.793 276.209,661.265 276.229,657.498C276.274,649.088 276.261,621.62 276.26,618.5C276.257,611.698 276.222,535.08 276.265,533.479C276.299,532.24 276.602,530.696 279.273,531.999C284.816,534.702 284.892,534.534 285.368,534.782C288.698,536.519 296.304,539.585 301.262,541.989C305.897,544.238 306.084,543.8 310.671,546.155C314.887,548.32 331.93,555.767 333.506,556.486C348.874,563.502 348.959,563.309 350.272,563.967C357.697,567.684 357.895,567.214 361.697,569.066C367.957,572.117 368.062,571.847 374.326,574.884C382.51,578.85 387.182,580.485 392.634,583.207C399.895,586.832 401.352,585.578 408.63,577.614C409.317,576.863 413.795,571.964 417.401,568.399C420.933,564.907 420.682,564.69 424.244,561.245C428.573,557.058 436.288,548.86 439.104,546.091C445.134,540.162 444.923,539.959 445.479,539.479C447.141,538.042 447.005,537.926 450.393,534.399C451.49,533.257 459.294,525.132 464.204,520.218C470.996,513.422 483.318,500.382 487.294,496.304C492.401,491.065 499.429,483.646 500.052,483.038C505.852,477.373 506.092,475.886 507.649,476.084C508.626,476.209 508.364,476.768 508.394,485.501C508.396,486.167 508.393,486.834 508.396,487.5Z" style="fill:rgb(227,194,146);"/>
                <path d="M515.323,494.497C515.323,494.497 518.657,498.251 520.301,500.38C523.111,504.021 524.16,504.319 528.206,509.244C529.039,510.258 528.947,510.303 538.29,522.191C540.376,524.845 545.035,530.922 545.619,531.683C548.141,534.972 548.249,534.87 550.883,538.479C553.568,542.157 555.303,543.599 557.06,546.357C557.828,547.563 560.447,550.523 560.6,550.732C565.653,557.633 569.821,562.402 574.558,568.747C576.483,571.326 576.7,571.124 578.68,573.65C580.905,576.487 580.9,576.46 583.219,579.229C585.711,582.203 587.198,584.717 589.359,587.053C590.091,587.845 589.957,587.938 597.809,597.56C597.923,597.7 600.416,601.284 602.093,603.329C602.523,603.853 602.594,603.781 607.578,609.793C610.881,613.778 611.557,617.024 615.894,617.747C619.033,618.271 625.386,614.814 626.96,614.17C632.387,611.949 632.323,611.823 637.82,609.821C638.32,609.639 652.853,603.274 657.702,601.493C658.106,601.345 658.095,601.328 662.711,599.514C668.987,597.047 668.78,596.576 675.917,594.065C680.072,592.603 681.252,591.367 685.832,589.833C689.149,588.722 693.404,586.645 694.046,586.332C695.047,585.844 695.184,586.205 706.936,581.095C710.018,579.755 710.014,579.789 713.089,578.442C713.715,578.167 713.754,578.315 720.999,575.231C726.79,572.765 726.884,573.031 732.662,570.512C738.649,567.901 738.658,567.965 744.722,565.54C744.886,565.474 744.874,565.451 746.741,564.665C748.666,563.855 753.381,563.07 753.816,562.994C753.718,577.852 753.761,626.057 753.766,631.5C753.781,648.003 753.871,665.668 753.617,666.536C753.075,668.388 750.491,668.979 742.38,672.194C739.071,673.506 732.031,676.342 711.414,684.273C710.21,684.736 680.269,696.573 677.561,697.644C650.221,708.453 611.372,723.458 599.451,728.375C597.28,729.27 591.857,731.131 584.419,734.295C579.417,736.423 579.281,736.05 570.59,739.711C569.234,740.282 569.224,740.206 553.481,746.452C547.433,748.851 547.414,748.738 541.381,751.215C539.554,751.965 539.496,751.782 518.415,760.272C518.263,760.333 516.949,760.862 516.433,760.791C515.446,760.654 515.345,759.667 515.331,759.534C515.319,759.413 515.331,711.663 515.332,707.5C515.344,638.834 515.357,570.167 515.369,501.501C515.357,498.698 515.228,498.714 515.323,494.497Z" style="fill:rgb(227,194,146);"/>
                <path d="M612.605,441.852C616.027,440.829 634.192,435.809 659.506,428.521C660.868,428.129 675.429,423.937 676.538,423.646C685.529,421.287 718.179,411.779 723.456,410.337C737.051,406.622 736.958,406.341 750.559,402.704C757.435,400.866 757.9,400.077 760.602,402.379C766.529,407.428 766.347,407.627 766.874,408.051C770.773,411.177 770.569,411.393 774.379,414.643C777.015,416.893 785.492,424.723 785.879,425.042C792.351,430.379 808.295,445.312 813.387,449.638C816.366,452.17 816.276,452.242 819.197,454.841C819.872,455.442 826.955,461.743 827.642,462.335C828.577,463.141 839.645,473.095 840.3,473.712C847.214,480.227 851.147,483.113 851.367,483.584C851.422,483.703 851.84,484.601 851.269,485.229C851.109,485.406 849.479,485.966 849.319,486.02C843.331,488.075 843.542,488.561 837.617,490.807C828.197,494.379 828.33,494.677 822.316,497.035C814.882,499.95 771.964,517.312 770.305,518.056C763.108,521.28 762.904,520.731 755.667,523.885C751.138,525.859 751.103,525.722 746.525,527.563C734.629,532.344 734.61,532.278 733.58,532.703C732.784,533.032 726.022,535.824 723.614,536.775C689.618,550.201 667.29,559.603 662.441,561.343C658.61,562.717 654.006,564.821 651.596,565.75C643.669,568.806 636.735,571.767 635.415,572.269C623.029,576.983 623.1,577.532 621.545,577.28C620.883,577.173 620.501,577.111 615.341,571.642C609.557,565.511 609.434,565.635 608.953,565.083C603.373,558.671 597.418,553.125 591.396,546.594C587.18,542.021 578.603,533.379 563.633,517.38C550.272,503.101 550.294,503.097 549.122,501.866C547.833,500.512 536.957,489.087 533.07,484.884C528.999,480.481 528.905,480.587 524.829,476.204C520.697,471.761 520.814,471.662 520.047,470.79C518.53,469.064 519.412,468.506 521.609,467.898C522.245,467.722 527.147,466.366 529.535,465.607C540.41,462.148 540.5,462.506 548.392,460.155C567.662,454.417 567.722,454.658 569.395,454.152C580.926,450.667 581.045,451.161 592.52,447.565C603.293,444.189 603.439,444.743 612.605,441.852Z" style="fill:rgb(227,194,146);"/>
                <path d="M366.346,424.961C374.866,428.025 375.06,427.4 386.547,431.356C388.198,431.924 388.311,431.558 407.373,437.884C413.336,439.862 413.435,439.509 424.576,443.267C428.864,444.713 431.714,445.264 437.571,447.29C448.24,450.98 448.362,450.531 462.558,455.323C465.778,456.41 470.979,457.695 478.536,460.397C479.828,460.859 490.837,464.158 498.362,466.894C501.311,467.966 502.904,468.01 502.73,469.541C502.645,470.289 498.578,473.902 495.868,476.849C490.539,482.647 480.493,492.905 429.123,546.128C423.798,551.645 413.688,561.974 412.343,563.348C400.452,575.497 400.065,577.733 396.484,576.542C395.567,576.237 395.623,576.12 385.44,571.633C384.427,571.186 380.968,569.341 374.427,566.679C370.104,564.92 366.564,562.897 362.571,561.334C361.27,560.825 361.369,560.659 346.624,554.222C345.872,553.894 345.897,553.871 337.277,549.998C336.095,549.466 333.846,548.521 333.546,548.395C332.423,547.923 332.518,547.719 319.69,542.081C318.799,541.689 317.649,540.925 312.41,538.706C307.529,536.639 262.033,515.902 261.433,515.653C254.022,512.577 210.597,492.749 205.448,490.616C204.39,490.178 204.479,490.007 192.414,484.696C189.344,483.345 189.393,483.289 186.329,481.877C186.1,481.772 186.106,481.82 183.448,480.609C179.212,478.678 182.859,477.195 188.22,472.203C192.114,468.577 192.266,468.78 196.151,465.121C200.066,461.433 200.236,461.632 202.462,459.462C203.65,458.304 211.958,451.019 220.395,443.383C226.128,438.195 228.986,435.477 230.837,433.893C231.273,433.52 231.205,433.452 236.172,429.11C238.364,427.194 238.248,427.103 243.457,422.452C249.927,416.677 252.299,414.702 253.084,414.047C253.56,413.651 253.507,413.603 258.745,408.764C261.038,406.645 269.272,399.245 269.276,399.241C272.726,396.178 272.99,395.407 277.363,396.916C280.341,397.945 286.249,399.509 294.537,402.391C297.279,403.345 301.789,404.572 302.425,404.745C304.212,405.231 317.931,410.008 324.424,411.764C325.962,412.18 325.833,412.572 343.437,417.701C346.994,418.738 347.82,419.289 359.433,422.713C359.99,422.878 361.876,423.434 366.346,424.961Z" style="fill:rgb(227,194,146);"/>
                <path d="M685.401,301.896C696.92,305.325 697.042,304.838 708.597,308.183C709.472,308.437 709.469,308.391 719.587,311.164C722.774,312.038 726.305,312.679 732.486,314.545C736.894,315.875 749.787,318.951 754.525,320.425C762.704,322.969 762.88,322.291 774.431,325.718C785.14,328.894 785.232,328.494 799.502,332.494C805.79,334.256 806.002,333.883 823.407,338.854C830.393,340.849 831.299,340.482 831.434,341.52C831.543,342.35 831.379,342.557 829.176,344.023C824.987,346.812 822.93,348.294 820.75,349.839C814.054,354.584 813.887,354.304 807.243,359.133C802.746,362.402 765.976,387.42 761.634,390.685C756.718,394.383 755.985,392.86 737.427,387.774C734.894,387.08 731.998,386.511 725.481,384.563C717.048,382.041 714.397,381.69 697.445,376.692C695.938,376.248 695.878,376.488 678.474,371.592C668.537,368.797 668.534,368.888 658.621,366.078C647.679,362.976 647.564,363.476 637.547,360.359C635.732,359.793 635.666,360.078 614.629,354.044C610.961,352.992 579.217,344.448 571.595,342.175C570.068,341.72 570.041,341.863 552.409,336.844C548.719,335.794 545.637,335.211 535.601,332.177C532.175,331.141 532.095,331.288 531.895,331.037C531.767,330.876 531.904,330.627 531.892,330.423C531.877,330.181 531.727,329.926 531.813,329.7C531.86,329.577 540.141,324.04 546.404,319.368C547.187,318.785 547.218,318.853 556.416,312.384C563.245,307.581 575.855,298.97 579.364,296.313C580.002,295.83 580.03,295.885 587.571,290.6C588.279,290.103 594.928,285.443 596.384,284.335C597.36,283.593 597.37,283.631 601.198,281.051C603.284,279.645 603.717,280.33 613.434,282.73C623.986,285.337 623.847,285.782 636.4,288.885C637.863,289.246 647.911,292.19 654.438,293.745C662.51,295.668 666.956,297.328 685.401,301.896Z" style="fill:rgb(227,194,146);"/>
                <path d="M272.605,319.939C277.62,318.963 277.561,318.789 282.552,317.728C303.731,313.224 303.698,313.083 305.543,312.706C322.632,309.208 331.577,306.897 337.534,305.661C354.033,302.237 353.942,301.885 363.588,299.926C375.917,297.422 385.258,295.053 392.528,293.645C401.421,291.922 405.508,290.654 413.592,288.929C428.257,285.8 428.256,285.894 429.523,285.594C431.202,285.197 440.409,283.018 450.59,280.965C454.743,280.127 455.055,280.23 458.602,283.385C461.517,285.978 472.551,295.065 473.789,296.151C476.201,298.266 476.288,298.136 478.741,300.212C488.747,308.679 488.83,308.545 489.675,309.308C491.732,311.166 494.588,313.366 494.601,313.377C506.592,323.465 506.613,323.434 507.651,324.316C513.514,329.296 513.939,329.428 513.464,330.48C513.245,330.965 511.64,331.348 511.47,331.388C507.929,332.232 507.988,332.405 504.428,333.221C478.753,339.109 478.786,339.247 476.54,339.693C466.718,341.639 457.357,344.28 448.436,346.234C438.492,348.413 429.055,350.915 421.492,352.463C415.728,353.643 408.207,355.63 405.439,356.25C387.276,360.319 351.55,368.959 349.477,369.397C334.938,372.464 335.044,372.87 329.404,374.082C323.442,375.363 306.897,379.382 306.494,379.47C291.201,382.814 280.347,385.642 278.4,386.066C273.556,387.123 273.01,388.034 269.273,384.762C266.852,382.641 249.55,368.505 247.406,366.606C245.745,365.135 231.376,353.387 228.757,351.186C214.234,338.981 214.111,339.156 212.866,338.076C209.931,335.528 209.742,335.735 209.577,335.441C209.353,335.041 209.495,333.865 209.65,333.73C209.771,333.624 214.06,332.986 215.532,332.641C233.776,328.37 238.905,327.466 241.572,326.827C253.919,323.866 263.976,322.059 272.605,319.939Z" style="fill:rgb(227,194,146);"/>
                <path d="M500.57,459.296C461.241,446.941 421.912,434.586 382.583,422.23C331.787,406.327 331.852,406.126 327.4,404.863C316.732,401.836 316.851,401.49 310.468,399.605C295.079,395.061 295.334,394.176 290.556,393.338C289.197,393.1 289.239,392.958 289.121,392.939C288.976,392.917 288.838,393.091 288.696,393.055C288.517,393.009 288.414,392.812 288.256,392.717C288.057,392.598 287.738,392.621 287.63,392.417C286.963,391.154 290.284,390.73 290.554,390.696C293.723,390.291 294.508,389.674 299.526,388.615C305.819,387.286 323.332,382.947 329.517,381.572C330.559,381.34 340.475,379.135 342.518,378.566C352.156,375.88 361.489,374.278 369.432,372.229C370.953,371.836 379.054,369.747 388.547,367.71C392.119,366.944 392.06,366.761 395.609,365.947C424.111,359.416 424.048,359.182 426.536,358.662C437.584,356.352 437.513,356.14 448.517,353.574C465.047,349.718 465.06,349.829 466.479,349.43C471.596,347.99 489.396,344.212 492.468,343.378C499.516,341.466 513.271,338.684 513.528,338.622C516.585,337.881 516.538,337.75 519.604,336.996C521.355,336.565 521.739,336.751 522.067,338.528C522.13,338.87 522.085,367.021 522.081,369.498C521.938,457.76 522.341,457.898 521.523,459.516C521.283,459.991 521.076,460.399 515.374,462.067C512.042,463.042 509.859,462.507 500.57,459.296Z" style="fill:rgb(168,135,96);"/>
                <path d="M741.129,397.357C740.99,397.429 740.951,397.631 740.812,397.703C740.812,397.703 739.529,398.212 739.418,398.256C734.66,398.891 733.853,399.597 724.429,402.261C704.227,407.971 704.286,408.121 702.525,408.596C688.552,412.369 678.809,415.44 677.564,415.739C671.675,417.152 664.893,419.395 659.594,420.849C638.268,426.703 638.327,426.89 636.463,427.362C626.919,429.778 627.062,430.209 617.57,432.755C606.462,435.734 583.614,442.443 576.473,444.398C560.545,448.76 560.623,448.999 552.423,451.206C532.166,456.657 532.235,456.897 530.467,457.348C530.29,457.393 528.716,457.794 528.314,456.573C527.935,455.425 528.23,359.208 528.101,342.503C528.077,339.272 527.417,337.451 530.566,338.252C532.435,338.728 532.419,338.746 544.586,342.163C583.895,353.202 583.966,352.928 587.363,353.959C597.371,356.997 597.453,356.629 607.476,359.588C618.734,362.912 621.261,363.197 629.471,365.601C644.086,369.882 645.477,369.972 649.59,371.148C668.836,376.649 668.969,376.122 675.579,378.242C683.443,380.764 683.53,380.385 691.461,382.636C712.498,388.607 712.543,388.413 714.362,388.963C730.001,393.693 741.132,396.199 741.337,396.631C741.444,396.859 741.021,397.13 741.129,397.357Z" style="fill:rgb(168,135,96);"/>
                <path d="M515.323,494.497C515.314,483.241 515.323,483.252 515.174,479.474C515.165,479.238 514.996,474.943 518.082,478.906C523.731,486.16 536.408,498.377 544.944,508.091C546.212,509.534 546.302,509.421 561.507,525.494C587.213,552.668 588.372,553.831 590.768,556.237C592.046,557.519 591.872,557.657 606.361,572.633C606.873,573.162 606.788,573.225 612.64,579.364C617.87,584.849 618.554,587.235 627.553,583.638C637.027,579.849 644.923,576.559 645.444,576.36C650.455,574.444 751.593,533.492 752.5,533.515C753.764,533.546 753.818,535.284 753.824,535.473C753.838,535.923 753.818,561.225 753.816,563.465C753.381,563.541 748.284,565.385 746.359,566.194C744.491,566.98 744.503,567.004 744.34,567.07C738.275,569.495 738.267,569.431 732.28,572.041C726.501,574.561 726.408,574.295 720.616,576.76C713.371,579.845 713.332,579.697 712.707,579.971C709.632,581.319 709.636,581.285 706.554,582.625C694.802,587.734 694.664,587.374 693.664,587.862C693.022,588.175 688.766,590.252 685.45,591.363C680.869,592.897 679.69,594.133 675.534,595.595C668.398,598.106 668.605,598.577 662.328,601.043C657.712,602.858 657.724,602.875 657.32,603.023C652.471,604.804 637.937,611.169 637.438,611.351C631.941,613.353 632.004,613.479 626.577,615.7C625.004,616.343 618.651,619.801 615.511,619.277C611.175,618.553 609.351,614.9 606.048,610.915C601.064,604.903 600.993,604.975 600.563,604.451C598.886,602.406 596.393,598.822 596.279,598.681C588.427,589.06 588.562,588.967 587.829,588.175C585.668,585.838 584.181,583.325 581.69,580.351C579.37,577.582 579.375,577.609 577.15,574.772C575.17,572.246 574.953,572.448 573.028,569.869C568.292,563.524 564.124,558.755 559.071,551.854C558.917,551.645 556.298,548.685 555.53,547.479C553.774,544.721 552.038,543.278 549.354,539.601C546.719,535.992 546.611,536.094 544.089,532.805C543.506,532.044 538.847,525.967 536.761,523.313C527.417,511.424 527.51,511.38 526.676,510.366C522.63,505.441 522.683,504.876 519.873,501.236C518.229,499.106 515.323,494.497 515.323,494.497Z" style="fill:rgb(195,158,117);"/>
                <path d="M741.129,397.357C740.975,397.519 741.368,397.858 741.215,398.019C741.215,398.019 739.561,398.237 739.418,398.256C739.529,398.212 740.812,397.703 740.812,397.703C740.951,397.631 740.99,397.429 741.129,397.357Z" style="fill:rgb(61,56,42);"/>
            </g>
        </g>
    </g>
</svg>
