<?xml version="1.0" encoding="UTF-8" standalone="no"?>
<!DOCTYPE svg PUBLIC "-//W3C//DTD SVG 1.1//EN" "http://www.w3.org/Graphics/SVG/1.1/DTD/svg11.dtd">
<svg width="100%" height="100%" viewBox="0 0 844 885" version="1.1" xmlns="http://www.w3.org/2000/svg" xmlns:xlink="http://www.w3.org/1999/xlink" xml:space="preserve" xmlns:serif="http://www.serif.com/" style="fill-rule:evenodd;clip-rule:evenodd;stroke-linejoin:round;stroke-miterlimit:2;">
    <g transform="matrix(1,0,0,1,-145.467477,-135.450958)">
        <g id="Fondo" transform="matrix(1.171875,0,0,1.171875,-32.623695,-10.983845)">
            <g transform="matrix(1,0,0,1,-0.15451,-0.507591)">
                <path d="M749.355,842.228C743.512,845.279 743.466,845.155 731.7,849.979C729.869,850.729 714.875,856.28 700.528,859.614C691.95,861.608 692.07,862.098 673.529,865.648C661.918,867.872 661.977,868.153 646.479,870.361C627.98,872.997 628.014,873.09 609.455,875.074C594.519,876.671 572.681,878.015 569.479,878.212C559.719,878.813 475.125,884.896 376.558,870.119C361.525,867.865 360.953,867.752 354.541,866.324C352.948,865.969 352.928,866.118 334.545,862.292C333.275,862.027 316.08,857.492 315.539,857.355C312.844,856.669 299.378,852.546 292.376,849.804C273.102,842.257 267.802,838.155 260.857,833.045C259.723,832.211 255.57,828.327 255.12,827.906C249.302,822.464 243.114,813.493 240.881,809.298C237.762,803.44 233.381,795.795 228.272,779.578C226.697,774.582 226.444,774.675 225.016,769.642C218.522,746.75 218.841,746.677 213.536,723.492C213.01,721.192 209.443,702.42 209.095,700.586C207.442,691.885 206.298,682.443 204.418,669.511C200.358,641.595 200.925,641.533 199.429,628.508C198.225,618.024 196.697,600.904 196.482,598.501C195.229,584.466 194.527,568.147 194.413,565.504C194.198,560.516 193.743,557.707 193.441,538.502C193.385,534.963 192.745,534.928 189.472,533.569C188.154,533.022 180.983,530.406 176.326,527.829C172.828,525.894 153.017,517.906 152.199,502.515C152.161,501.806 152.017,436.812 152.28,434.476C152.814,429.731 155.769,425.083 159.718,421.763C168.579,414.313 186.349,407.726 206.448,401.349C207.842,400.907 207.811,400.836 223.552,396.715C248.496,390.185 271.915,386.766 272.518,386.542C273.906,386.024 273.546,385.578 274.543,379.506C274.728,378.38 276.008,365.473 278.583,352.516C280.665,342.04 281.58,336.375 287.285,315.441C294.457,289.124 306.001,264.64 309.834,257.661C310.777,255.945 310.613,255.862 317.925,242.738C318.641,241.453 325.748,230.377 326.903,228.766C326.999,228.631 330.801,222.829 336.44,215.452C336.819,214.956 336.843,214.989 341.302,209.352C342.754,207.516 348.706,200.545 354.505,194.505C358.183,190.675 358.194,190.707 361.972,186.983C363.368,185.607 366.225,183.189 370.296,179.284C370.748,178.85 370.799,178.921 376.305,174.27C376.443,174.154 382.511,169.325 384.198,168.085C391.899,162.424 399.116,158.079 400.342,157.257C401.209,156.676 401.467,156.503 411.603,150.689C411.93,150.501 423.477,144.588 428.545,142.613C434.39,140.336 437.629,138.389 447.526,135.592C453.006,134.043 456.377,132.193 474.565,128.863C497.71,124.626 516.28,124.827 536.448,126.886C542.458,127.499 561.697,130.949 568.37,132.96C574.417,134.781 574.351,134.948 580.422,136.732C581.251,136.976 592.998,140.922 605.281,146.976C612.06,150.317 612.081,150.248 618.692,154.166C625.031,157.922 625.068,157.818 631.227,161.894C631.505,162.078 631.486,162.096 634.649,164.285C636.151,165.324 642.717,169.87 652.653,178.319C652.833,178.472 660.477,185.342 660.568,185.43C665.47,190.201 679.614,203.705 691.932,221.179C693.266,223.071 693.44,222.918 695.712,226.366C699.069,231.462 699.211,231.354 702.401,236.562C704.409,239.84 704.652,239.677 707.323,244.601C710.312,250.111 710.423,250.035 713.348,255.578C717.213,262.902 717.317,262.832 720.613,270.448C720.803,270.887 722.944,275.176 724.264,278.594C730.322,294.281 732.644,298.995 738.134,319.597C741.419,331.925 741.146,331.969 743.902,344.41C745.46,351.444 745.713,351.393 747.925,366.438C749.435,376.706 749.997,384.518 750.602,385.434C751.423,386.677 751.823,386.089 771.424,389.879C781.505,391.828 791.691,394.294 793.444,394.718C808.161,398.281 816.502,400.928 818.481,401.556C819.308,401.818 829.401,404.545 843.607,410.231C850.272,412.898 850.175,413.071 856.605,416.294C862.46,419.228 867.225,424.192 867.469,424.526C872.744,431.749 872.089,432.357 872.161,445.501C872.195,451.549 872.105,494.147 872.164,500.502C872.186,502.828 872.539,505.904 869.012,512.188C866.845,516.049 857.895,524.926 836.667,532.928C831.422,534.905 831.181,535.387 831.136,538.486C830.947,551.506 830.752,551.479 830.194,564.485C829.297,585.382 828.21,594.612 827.033,610.467C827.02,610.636 825.069,629.024 824.463,634.496C824.146,637.364 824.251,637.366 823.231,646.468C821.395,662.861 817.325,688.183 816.728,692.535C816.007,697.797 810.804,724.372 810.556,725.512C804.205,754.667 803.606,754.496 799.286,770.434C798.494,773.358 793.391,788.536 791.618,792.554C789.798,796.677 787.902,802.095 781.624,812.577C778.136,818.401 771.039,826.711 768.13,829.077C762.543,833.622 762.769,833.897 756.758,837.886C756.407,838.119 756.536,838.332 749.355,842.228ZM669.01,366.933C666.896,356.861 666.884,356.873 666.708,355.996C664.793,346.483 662.472,339.587 661.154,334.863C658.474,325.251 657.965,325.434 654.804,315.953C653.264,311.332 650.492,305.728 649.801,303.946C647.812,298.823 639.275,282.387 630.892,270.847C623.104,260.124 622.566,260.58 620.622,258.036C617.641,254.136 606.972,243.996 606.277,243.425C600.087,238.343 600.349,238.028 593.988,233.552C582.894,225.743 582.84,225.825 572.9,220.533C568.421,218.148 558.131,213.978 554.67,212.96C543.26,209.604 532.607,205.736 507.662,206.246C479.792,206.816 458.336,217.564 457.591,217.859C450.236,220.778 437.691,227.913 425.785,237.185C419.955,241.725 412.167,249.221 411.522,249.874C394.993,266.583 387.254,280.696 384.968,284.197C384.285,285.244 383.079,287.09 377.532,297.946C374.744,303.4 372.933,308.272 372.239,309.827C369.583,315.778 369.869,315.875 367.586,321.982C363.656,332.495 364.05,332.604 360.44,344.949C359.375,348.588 354.214,372.458 354.153,373.061C354.132,373.27 353.957,375.018 355.625,375.236C356.248,375.318 384.009,371.827 414.661,370.129C473.016,366.896 511.445,367.251 517.653,367.281C525.979,367.32 576.115,367.561 621.665,370.857C650.25,372.925 650.206,373.407 652.691,373.585C662.379,374.278 668.685,375.572 669.6,374.912C670.623,374.173 670.461,373.385 669.01,366.933Z" style="fill:rgb(96,56,17);"/>
            </g>
            <path d="M396.53,495.171C488.77,502.355 538.513,499.904 565.484,499.062C578.031,498.67 615.923,496.461 625.492,495.415C627.17,495.231 627.188,495.526 646.493,493.43C665.396,491.378 666.957,492.272 718.452,484.228C722.884,483.535 739.132,480.453 743.546,479.78C750.276,478.755 776.103,473.319 782.516,471.556C791.035,469.214 791.184,469.807 817.381,462.126C818.14,461.904 834.048,456.659 840.606,453.729C851.001,449.085 850.988,449.062 853.566,447.624C854.539,447.081 854.579,447.031 855.64,447.325C856.406,447.538 856.106,449.485 856.106,449.501C855.98,454.917 856.223,499.448 855.908,501.551C855.522,504.134 853.985,506.523 842.409,512.326C836.112,515.483 822.605,520.674 816.558,522.667C806.624,525.94 806.687,526.104 796.62,528.904C792.502,530.049 792.545,530.126 788.439,531.261C784.701,532.295 779.338,533.497 778.543,533.676C771.788,535.19 771.942,535.815 756.568,538.873C754.076,539.368 740.728,542.513 726.543,544.767C721.951,545.496 705.304,548.791 695.555,549.884C681.304,551.48 681.46,552.725 642.485,556.354C625.429,557.942 599.236,561.19 538.502,562.588C486.967,563.774 431.322,560.715 418.501,559.487C417.225,559.365 417.235,559.508 402.521,558.259C402.27,558.238 358.437,555.017 310.568,547.043C306.953,546.441 294.939,544.297 293.58,544.055C284.372,542.412 257.024,536.623 254.621,536.007C251.361,535.17 251.405,535.039 240.537,532.352C238.595,531.873 233.023,530.495 216.464,525.614C216.228,525.544 201.622,520.751 193.591,517.292C186.847,514.386 170.716,508.181 168.833,502.409C168.297,500.765 168.693,488.6 168.541,462.5C168.535,461.399 168.549,450.579 168.546,450.499C168.523,449.829 168.405,449.159 168.447,448.49C168.591,446.205 171.093,447.748 171.292,447.87C176.552,451.113 196.2,459.157 211.538,463.363C211.693,463.406 229.196,468.984 255.448,474.753C256.811,475.053 265.41,476.942 272.535,478.295C279.167,479.554 307.597,484.585 313.517,485.369C324.123,486.773 334.631,488.423 336.463,488.711C352.009,491.152 388.747,494.364 396.53,495.171Z" style="fill:rgb(242,180,96);"/>
            <path d="M674.886,403.438C675.128,405.315 677.311,420.703 677.704,431.497C677.814,434.523 678.525,435.862 675.498,435.837C672.765,435.814 672.823,435.155 641.493,432.574C641.044,432.537 636.711,432.382 624.511,431.356C597.009,429.045 554.374,427.63 542.5,427.562C533.149,427.508 533.175,427.323 522.5,427.309C516.495,427.301 516.514,427.219 510.498,427.28C509.53,427.29 483.269,427.345 477.512,427.724C476.128,427.815 470.703,427.758 467.515,427.973C458.461,428.58 446.289,428.462 425.521,429.809C418.512,430.263 418.501,429.796 411.507,430.591C408.794,430.9 408.775,430.625 377.477,433.195C366.171,434.124 364.353,434.073 353.494,435.443C353.019,435.503 348.068,436.127 347.536,436.011C347.381,435.977 346.391,435.76 346.173,434.572C346.063,433.975 346.459,423.173 348.99,403.591C349.961,396.078 350.222,396.128 350.297,395.474C350.633,392.533 350.565,391.847 353.502,391.517C358.496,390.957 358.491,391.1 363.5,390.497C367.996,389.956 368.001,390.112 372.489,389.422C379.348,388.366 411.124,386.478 414.487,386.278C457.76,383.707 470.14,383.942 485.484,383.138C486.785,383.07 529.04,382.355 553.495,383.732C556.979,383.928 556.975,383.699 560.465,383.964C562.222,384.098 562.228,383.861 582.48,384.845C635.131,387.403 635.063,388.298 645.459,388.893C653.605,389.359 659.658,390.64 670.506,391.435C674.007,391.691 673.287,392.988 673.824,396.465C674.365,399.961 674.426,399.93 674.886,403.438Z" style="fill:rgb(155,92,41);"/>
            <path d="M290.882,381.553C291.791,374.867 294.594,354.765 296.279,347.446C299.887,331.781 299.923,331.792 300.229,330.428C301.824,323.317 307.286,305.823 308.197,303.388C312.279,292.49 312.166,292.456 312.537,291.515C319.409,274.048 328.459,257.377 330.289,254.375C337.426,242.668 337.383,242.642 338.298,241.363C340.477,238.318 342.542,234.607 351.764,222.709C354.534,219.136 354.629,219.244 356.778,216.732C362.965,209.501 370.202,201.734 371.706,200.925C372.972,200.245 392.728,198.818 427.538,207.351C428.006,207.466 432.811,208.644 433.382,208.81C434.167,209.04 434.188,208.957 434.249,208.993C436.302,210.221 433.641,211.344 433.453,211.423C432.728,211.729 432.767,211.752 432.239,212.046C422.469,217.49 417.694,222.362 415.382,223.163C414.238,223.559 414.184,223.384 400.413,220.962C391.921,219.469 379.141,218.348 378.505,218.329C368.657,218.03 367.873,229.518 374.662,232.041C376.525,232.734 398.033,235.3 398.53,235.349C399.869,235.479 400.423,235.151 400.447,236.505C400.46,237.235 400.39,237.234 399.854,237.727C399.499,238.054 398.429,239.193 398.307,239.323C388.561,249.702 389.266,251.24 385.502,251.339C379.047,251.508 355.763,253.959 353.467,254.176C343.803,255.089 342.812,264.852 349.579,268.332C350.856,268.988 351.627,269.384 367.51,267.615C368.065,267.553 374.397,266.847 374.451,266.868C374.783,266.998 375.405,268.187 375.326,268.444C375.273,268.615 372.642,272.219 370.301,276.386C358.176,297.967 356.358,305.269 356.292,305.408C351.893,314.739 352.55,314.983 348.853,324.63C347.744,327.524 347.358,327.335 344.59,328.691C340.979,330.46 322.58,343.131 318.481,345.469C310.511,350.015 313.41,357.704 317.552,359.386C322.921,361.567 326.354,357.676 333.423,353.379C340.498,349.08 340.318,348.838 340.594,348.707C340.738,348.639 342.294,347.9 342.418,349.506C342.432,349.691 340.817,355.087 340.242,358.454C339.028,365.559 336.638,375.83 335.922,380.56C332.649,402.166 331.239,414.586 330.902,417.554C330.556,420.6 329.368,420.517 326.189,423.111C318.854,429.097 318.848,429.058 317.369,430.352C307.624,438.885 306.217,439.004 305.564,442.513C304.627,447.547 309.119,451.145 312.507,451.096C315.729,451.049 317.627,448.967 317.779,448.84C326.489,441.586 326.524,441.659 327.268,441.016C327.382,440.917 328.446,439.998 329.134,440.776C329.635,441.34 328.982,443.618 328.86,452.51C328.75,460.521 328.877,460.506 328.798,468.513C328.766,471.758 326.714,470.724 322.552,470.12C319.976,469.745 305.117,467.587 290.47,464.654C287.067,463.973 287.579,462.978 287.334,459.511C287.006,454.879 287.003,441.101 287.003,439.5C287,429.714 287.746,414.577 287.751,414.518C288.69,404.414 288.328,398.879 290.882,381.553Z" style="fill:rgb(242,180,96);"/>
            <path d="M728.728,357.943C728.942,358.174 729.367,358.119 729.581,358.35C730.745,359.606 730.228,359.821 730.395,361.515C730.704,364.638 733.372,377.566 735.257,399.526C736.411,412.965 735.962,412.974 736.825,425.497C737.264,431.858 736.741,431.846 736.928,435.494C737.017,437.253 737.294,442.67 736.753,457.511C736.543,463.246 736.682,464.117 733.54,464.715C727.471,465.87 727.488,465.859 721.417,467.063C714.843,468.367 714.788,468 699.527,470.665C695.568,471.356 694.915,470.668 694.91,468.506C694.909,467.785 695.004,467.796 694.992,459.5C694.933,421.171 691.238,401.508 689.663,389.475C688.088,377.433 686.453,371.43 684.588,361.482C681.724,346.207 679.587,339.784 678.751,336.435C676.205,326.235 670.574,311.029 669.809,309.365C667.522,304.389 667.505,302.242 659.885,287.295C658.667,284.905 658.588,284.969 657.326,282.594C653.02,274.489 652.921,274.566 648.036,266.802C646.104,263.732 646.725,263.454 647.702,260.567C649.293,255.865 649.067,255.809 651.09,249.386C653.193,242.707 659.449,215.016 659.705,212.534C659.885,210.788 659.692,210.696 660.157,210.21C661.432,208.877 661.741,209.711 662.906,211.136C668.154,217.557 668.897,217.27 680.685,233.372C681.633,234.666 687.663,243.268 690.242,247.65C692.402,251.32 691.106,251.572 689.646,255.552C685.528,266.779 685.327,266.7 684.979,267.68C679.825,282.178 679.077,283.003 677.892,286.632C675.445,294.124 675.026,294.036 672.734,300.575C670.465,307.046 674.971,310.532 678.444,310.887C684.889,311.548 686.269,306.05 688.745,298.588C689.355,296.749 698.351,273.641 698.834,272.638C700.035,270.148 700.01,268.289 701.485,268.55C702.466,268.723 702.133,269.124 702.969,271.278C703.449,272.513 703.751,272.369 709.777,286.383C716.779,302.665 722.41,323.331 722.878,325.41C724.078,330.732 724.246,331.27 723.115,333.308C721.847,335.592 722.076,335.683 721.212,337.358C718.885,341.866 717.515,346.46 715.791,349.636C714.875,351.323 702.165,380.999 702.039,381.314C699.306,388.168 698.854,388.221 697.569,391.527C694.875,398.456 701.454,402.501 705.515,401.57C710.567,400.413 711.53,394.344 714.781,387.634C716.935,383.187 716.714,383.103 718.757,378.609C719.23,377.567 724.083,366.89 724.721,365.609C727.337,360.362 727.334,359.507 728.728,357.943Z" style="fill:rgb(242,180,96);"/>
            <path d="M745.13,701.45C744.926,703.003 740.789,730.938 740.683,731.529C738.726,742.43 738.776,742.484 738.184,743.237C737.624,743.951 734.868,744.664 734.564,744.742C723.457,747.615 714.272,749.074 707.531,750.628C705.204,751.164 699.797,752.137 699.581,752.049C698.649,751.672 698.685,751.509 698.711,750.498C698.725,749.943 699.456,745.665 699.869,741.545C699.99,740.341 700.114,740.362 701.605,726.512C702.071,722.185 701.944,718.018 703.353,717.281C704.438,716.713 725.528,711.938 728.407,710.321C737.366,705.29 733.162,693.247 724.513,694.58C721.561,695.035 706.579,699.414 705.498,699.378C704.069,699.33 704.083,697.7 704.084,697.513C704.1,695.588 704.586,695.628 705.756,673.514C706.223,664.682 705.572,663.673 708.577,662.796C715.06,660.903 731.311,658.495 735.119,654.16C740.298,648.264 735.319,639.3 728.502,640.515C725.092,641.123 720.025,642.903 715.574,643.814C712.103,644.524 708.635,646.052 707.588,645.364C706.783,644.835 707.118,643.897 707.254,635.495C707.362,628.862 707.467,628.625 707.482,616.5C707.49,609.573 707.64,609.361 707.994,608.862C708.856,607.646 714.464,607.424 726.513,604.557C735.545,602.407 740.308,601.851 750.599,598.851C752.689,598.242 764.858,595.338 773.414,592.258C776.331,591.208 779.938,590.415 786.627,587.82C800.399,582.476 809.502,580.382 810.839,574.591C812.428,567.705 806.809,563.154 801.491,564.465C798.748,565.141 783.285,571.898 777.542,573.636C772.003,575.312 770.15,576.95 770.021,573.53C769.715,565.414 769.918,565.423 769.573,555.498C769.572,555.474 769.37,553.938 770.136,553.153C771.886,551.362 772.554,552.956 800.399,545.154C805.033,543.856 805.035,543.948 809.523,542.586C813.379,541.417 814.726,540.767 814.751,543.486C814.858,554.858 813.998,556.92 813.704,570.517C813.634,573.775 812.393,587.257 812.061,592.469C812.004,593.364 810.598,608.392 810.42,609.488C809.918,612.588 808.267,610.994 804.346,613.2C790.513,620.981 770.238,628.807 769.464,628.705C768.545,628.584 768.482,627.629 768.473,627.505C768.325,625.284 770.028,613.111 768.051,609.746C764.32,603.394 753.337,604.281 752.691,613.513C752.573,615.191 752.929,615.186 751.724,634.512C751.11,644.351 750.985,644.323 749.233,664.475C748.975,667.44 747.213,687.705 745.13,701.45Z" style="fill:rgb(242,180,96);"/>
            <path d="M256.706,565.501C256.255,574.95 256.819,575.4 255.72,575.848C253.698,576.672 253.723,575.744 251.643,575.072C249.169,574.272 246.766,573.428 244.465,572.579C233.024,568.355 224.104,563.984 221.484,564.126C217.388,564.349 212.143,568.917 214.373,575.551C215.153,577.87 216.924,579.746 228.33,583.987C232.76,585.634 235.87,587.207 244.35,589.94C249.368,591.557 259.554,595.053 266.43,596.748C273.76,598.555 273.609,599.128 286.42,601.862C288.462,602.298 302.095,605.378 303.457,605.686C315.502,608.407 317.247,607.148 317.372,610.505C317.497,613.859 317.066,617.452 317.704,641.494C317.757,643.516 318.382,645.921 315.523,645.374C314.95,645.264 309.276,643.82 304.508,642.471C297.303,640.433 293.161,638.524 289.279,644.368C289.133,644.587 286.008,649.687 290.657,654.34C291.84,655.524 293.04,657.01 307.495,660.52C317.752,663.011 318.273,662.827 318.721,664.44C319.065,665.679 318.692,665.713 319.724,680.483C320.941,697.921 321.497,698.088 320.865,698.753C319.505,700.187 319.162,699.218 307.525,696.392C302.929,695.275 296.626,692.472 292.965,697.812C290.134,701.942 291.39,709.262 299.474,711.584C299.591,711.618 314.494,715.421 317.588,716.125C321.491,717.014 322.715,716.504 323.08,720.536C323.428,724.384 323.849,729.671 323.912,730.465C324.067,732.414 326.253,748.487 326.26,748.535C326.58,750.991 326.923,752.118 324.472,751.873C322.37,751.663 311.091,749.229 310.568,749.119C301.983,747.318 301.911,747.726 293.507,745.474C289.275,744.34 286.74,744.537 286.17,741.569C282.906,724.557 277.882,687.215 277.22,679.526C276.915,675.997 276.803,676.021 275.452,660.504C273.592,639.139 272.867,619.097 272.736,615.491C272.709,614.729 272.996,607.771 266.42,605.816C263.257,604.876 259.079,606.594 257.479,609.487C255.556,612.968 256.354,615.813 256.507,624.5C256.543,626.512 257.156,629.166 254.567,628.288C245.678,625.274 214.758,612.733 214.375,610.522C214.26,609.853 212.593,594.507 211.598,579.493C211.234,574.006 211.149,574.027 211.066,568.512C210.979,562.645 210.388,554.707 210.299,553.509C210.146,549.822 210.102,542.568 210.169,542.339C210.594,540.876 213.332,541.96 213.359,541.968C233.272,547.848 233.278,547.792 253.467,552.634C255.173,553.043 256.839,552.724 256.903,555.488C256.943,557.203 256.729,564.7 256.706,565.501" style="fill:rgb(242,180,96);"/>
            <path d="M676.562,721.96C681.094,721.383 681.006,720.951 683.523,720.694C686.15,720.426 685.479,722.55 685.297,724.48C682.607,753.064 675.598,789.22 674.577,793.518C672.267,803.236 672.848,804.133 670.603,804.838C669.706,805.119 661.308,806.364 660.498,806.484C649.07,808.176 645.845,808.197 643.787,809.884C637.643,814.917 640.933,823.494 646.462,824.669C647.409,824.871 648.485,825.099 658.527,823.674C666.462,822.547 666.573,822.16 667.296,822.747C668.207,823.485 667.431,825.36 666.974,827.608C666.63,829.3 665.566,834.539 661.279,848.436C660.527,850.873 660.246,851.386 654.458,852.237C632.413,855.477 632.457,855.617 630.533,855.835C627.37,856.194 627.839,854.406 628.387,852.47C628.585,851.772 628.819,851.084 629.005,850.382C630.026,846.541 635.063,819.752 635.446,817.491C641.197,783.563 644.1,758.66 644.699,753.524C647.494,729.557 646.811,729.484 647.384,727.469C648.198,724.602 651.302,726.212 676.562,721.96Z" style="fill:rgb(242,180,96);"/>
            <path d="M249.41,697.738C255.448,700.109 255.435,700.107 261.598,702.179C264.339,703.101 263.869,703.875 264.665,710.479C267.398,733.146 268.335,733.771 268.363,735.5C268.386,736.985 267.903,737.032 266.446,736.758C265.615,736.602 260.922,734.831 260.446,734.651C249.79,730.628 243.975,726.569 239.33,732.362C236.4,736.017 236.879,742.653 243.457,745.597C247.396,747.36 259.655,751.955 261.488,752.537C270.258,755.319 271.759,754.934 272.472,757.507C272.602,757.975 272.465,758.003 273.699,763.454C275.174,769.969 275.011,769.987 276.467,776.507C276.836,778.161 277.424,780.008 277.252,780.431C277.172,780.628 276.892,780.662 276.737,780.808C276.306,781.215 276.263,781.293 275.593,781.092C274.53,780.774 274.595,780.632 262.65,776.099C256.746,773.858 243.349,769.239 242.315,768.769C241.693,768.487 241.262,766.326 240.166,762.608C235.632,747.224 235.751,747.213 232.095,731.596C231.758,730.159 231.115,727.411 228.29,713.543C228.127,712.743 228.201,712.74 226.334,703.532C225.471,699.269 224.062,690.574 223.879,689.445C223.297,685.853 222.148,683.675 222.105,680.605C221.992,672.495 221.054,672.602 220.133,664.555C220.005,663.431 218.48,651.642 218.335,650.519C218.262,649.959 218.332,649.959 217.581,643.491C217.459,642.444 216.098,630.719 216.166,630.386C216.492,628.795 218.183,629.758 218.338,629.846C219.301,630.395 223.871,632.998 230.612,636.266C232.904,637.378 241.596,640.964 242.556,641.36C247.341,643.335 256.674,646.101 257.373,646.675C258.617,647.695 258.359,650.622 259.306,663.513C259.794,670.159 260.848,680.101 261.101,681.552C261.324,682.829 261.762,683.037 260.779,683.867C259.897,684.612 259.761,684.026 255.474,682.583C246.015,679.398 235.91,673.639 232.553,673.14C229.271,672.652 224.487,674.167 224.395,679.477C224.335,682.911 225.023,684.297 225.21,684.674C225.668,685.597 225.518,686.029 227.393,687.644C228.154,688.299 228.816,688.869 238.584,693.311C242.687,695.177 247.716,697.041 249.41,697.738Z" style="fill:rgb(242,180,96);"/>
            <path d="M573.646,152.08C573.799,152.129 580.344,154.013 591.409,158.721C595.001,160.249 594.344,161.136 594.93,165.445C596.294,175.475 596.363,175.444 597.685,185.48C598.086,188.528 598.048,193.731 602.387,195.715C607.561,198.082 613.793,193.822 612.625,186.484C611.513,179.496 611.532,179.506 610.643,172.482C610.315,169.897 610.123,169.834 610.432,169.46C611.21,168.518 611.433,168.902 612.504,169.492C612.913,169.717 612.866,169.78 617.434,172.608C621.906,175.377 636.612,185.861 642.986,192.011C645.171,194.121 647.616,194.727 647.397,197.489C647.047,201.875 642.736,225.716 637.581,242.526C636.196,247.044 636.208,249.01 634.468,248.57C633.807,248.403 634.249,247.892 628.77,242.24C627.293,240.716 627.384,240.656 625.875,239.139C624.151,237.405 616.888,230.274 615.15,228.936C612.045,226.545 612.324,226.223 609.174,223.909C604.27,220.306 604.426,220.121 599.379,216.687C593.015,212.356 589.687,210.502 588.814,210.015C587.015,209.013 587.116,208.873 585.283,207.902C581.287,205.786 579.839,205.802 579.547,202.496C579.437,201.249 579.121,193.101 575.742,180.439C572.922,169.875 573.162,169.816 569.443,159.522C567.983,155.478 568.157,155.431 566.388,151.521C565.958,150.571 565.704,150.308 566.632,149.823C567.248,149.502 567.67,149.796 573.646,152.08Z" style="fill:rgb(242,180,96);"/>
            <path d="M530.089,718.482C530.01,722.363 530.4,724.614 527.516,724.754C526.452,724.806 498.712,724.925 497.477,724.567C496.311,724.229 496.202,722.728 496.188,722.536C496.134,721.79 495.279,685.677 495.281,676.499C495.282,673.218 495.29,636.267 495.457,635.492C495.868,633.583 496.716,634.114 511.5,634.114C512.86,634.114 526.94,634.114 528.5,634.04C529.098,634.011 530.97,633.574 531.091,636.502C531.508,646.593 530.794,689.864 530.718,694.504C530.686,696.423 530.536,705.544 530.089,718.482Z" style="fill:rgb(242,180,96);"/>
            <path d="M558.888,174.385C562.274,185.729 563.567,195.665 563.383,196.464C563.031,197.994 560.828,196.746 557.415,195.795C525.56,186.922 518.565,190.655 515.768,188.203C515.03,187.556 513.116,184.714 504.625,177.342C502.713,175.681 492.447,167.494 490.177,165.956C482.891,161.018 480.753,158.953 470.785,153.042C470.5,152.873 470.568,152.773 467.319,150.782C465.338,149.569 464.74,149.898 464.732,148.512C464.728,147.769 464.783,147.685 465.504,147.508C474.16,145.388 482.009,144.294 483.457,144.092C488.213,143.429 515.728,139.593 543.473,144.649C547.551,145.391 547.654,145.778 549.379,149.556C552.31,155.974 554.538,160.165 558.888,174.385Z" style="fill:rgb(242,180,96);"/>
            <path d="M390.923,825.475C392.49,836.101 395.987,851.272 396.5,853.5C397.083,856.027 396.021,856.168 393.457,855.837C392.663,855.734 368.099,852.222 365.537,851.388C363.584,850.752 364.012,850.15 360.752,839.427C360.28,837.872 356.626,824.818 356.835,823.564C356.842,823.52 357.525,822.69 357.576,822.664C358.311,822.297 364.004,823.444 367.464,823.82C375.865,824.732 377.355,825.995 381.446,823.433C383.033,822.128 383.6,821.49 384.345,819.45C385.45,816.424 384.829,809.416 376.547,808.18C354.99,804.963 354.932,805.175 353.508,804.486C351.977,803.746 352.398,802.133 347.777,780.447C346.919,776.417 343.973,757.476 343.662,755.475C343.266,752.927 340.932,737.924 339.764,723.478C339.483,720.008 341.139,720.552 344.539,721.325C354.475,723.581 374.831,725.356 376.67,726.223C377.914,726.81 377.592,728.379 378.467,736.503C379.211,743.409 381.372,766.777 384.887,788.436C387.073,801.908 387.073,806.149 390.923,825.475" style="fill:rgb(242,180,96);"/>
            <path d="M352.438,668.939C354.415,669.162 359.58,670.592 363.106,666.179C365.286,663.451 366.798,654.407 356.452,652.801C354.783,652.542 336.487,649.702 335.639,649.237C334.185,648.438 334.473,646.554 334.211,637.509C334.153,635.52 333.531,614.073 333.966,612.644C334.311,611.511 336.255,611.736 336.465,611.76C339.949,612.163 343.578,613.148 361.45,614.977C365.46,615.387 365.428,615.514 369.449,615.898C372.329,616.173 371.828,617.583 371.823,625.497C371.795,669.426 376.049,705.389 375.551,707.515C375.193,709.046 373.929,708.703 366.459,707.81C364.652,707.594 358.21,706.65 357.494,706.545C355.987,706.324 339.866,703.96 338.761,703.14C337.554,702.245 337.294,694.917 337.049,692.546C336.484,687.096 335.244,669.086 335.263,668.485C335.332,666.243 336.209,666.539 338.435,666.9C342.766,667.604 351.317,668.784 352.438,668.939Z" style="fill:rgb(242,180,96);"/>
            <path d="M797.601,413.04C808.161,415.433 808.114,415.864 812.58,417.222C812.861,417.308 812.921,417.088 821.363,419.945C821.961,420.147 821.915,420.267 830.61,423.151C831.67,423.503 836.332,425.05 843.602,428.279C848.082,430.268 848.126,430.258 848.336,430.626C849.059,431.892 847.692,432.49 847.539,432.557C839.516,436.063 839.715,436.504 831.508,439.521C829.114,440.401 815.46,445.953 796.6,450.911C785.224,453.901 785.025,454.505 781.515,453.451C778.603,452.577 778.598,452.666 775.63,452.019C774.965,451.874 775.019,451.683 767.404,449.86C763.983,449.041 763.997,449.079 760.566,448.267C756.397,447.281 753.295,448.02 753.288,444.503C753.286,443.448 753.375,443.466 753.358,433.5C753.357,432.672 752.98,417.757 752.717,413.486C752.519,410.255 751.972,405.203 752.511,404.506C753.397,403.362 754.494,403.84 762.56,405.144C769.816,406.317 790.953,411.275 791.526,411.397C794.103,411.947 794.065,412.025 797.601,413.04Z" style="fill:rgb(155,92,41);"/>
            <path d="M672.559,668.949C681.465,667.997 687.317,666.526 688.73,667.09C690.055,667.62 689.36,670.761 689.198,674.484C689.065,677.519 689.028,677.499 688.853,680.522C688.756,682.199 688.002,695.254 687.195,701.454C687.175,701.607 687.038,702.657 686.276,703.14C685.137,703.863 671.401,706.08 667.513,706.597C652.241,708.628 652.246,708.65 651.511,708.698C648.262,708.911 649.369,706.075 649.568,703.505C651.283,681.41 651.137,681.402 651.318,679.484C651.619,676.295 652.745,664.355 653.236,639.494C653.671,617.506 652.99,616.959 654.391,616.305C655.187,615.933 664.64,614.85 665.534,614.747C687.624,612.215 687.566,611.72 689.498,611.668C690.747,611.633 690.992,612.492 691.032,612.631C691.354,613.758 690.845,646.837 690.344,648.442C689.867,649.968 687.965,649.758 678.476,651.348C673.525,652.177 673.518,651.986 668.533,652.699C660.42,653.86 658.427,662.714 663.079,666.96C666.647,670.217 669.575,669.287 672.559,668.949Z" style="fill:rgb(242,180,96);"/>
            <path d="M257.435,406.096C258.311,405.917 261.926,405.176 268.45,404.213C269.596,404.044 271.506,403.588 271.807,405.443C271.943,406.278 270.604,423.407 270.575,431.5C270.571,432.54 270.544,439.879 270.486,444.5C270.44,448.157 267.695,447.765 264.496,448.483C247.382,452.323 245.152,452.997 243.499,453.497C239.251,454.781 236.795,453.01 231.436,451.707C217.01,448.199 206.322,444.311 197.53,441.415C195.903,440.879 184.68,436.389 184.574,436.339C183.872,436.01 175.869,432.262 175.822,432.192C175.78,432.13 175.736,430.796 175.775,430.724C175.854,430.577 175.861,430.563 177.62,429.753C177.848,429.647 180.29,428.522 180.476,428.446C188.945,424.956 188.754,424.492 192.468,423.392C198.234,421.683 204.169,419.337 206.55,418.652C215.779,415.997 215.752,415.927 216.565,415.739C219.247,415.118 230.095,412.052 232.508,411.536C236.065,410.777 235.966,410.403 239.56,409.802C247.85,408.417 251.171,407.336 257.435,406.096Z" style="fill:rgb(155,92,41);"/>
            <path d="M389.941,676.472C389.205,662.988 389.065,663.015 388.706,649.495C388.644,647.173 388.004,623.032 388.178,620.467C388.191,620.286 388.286,618.886 389.527,618.65C390.443,618.476 404.604,619.833 410.523,620.143C411.559,620.197 418.521,620.56 423.475,620.881C427.372,621.133 426.666,622.598 426.646,626.5C426.471,661.029 427.368,661.32 426.355,662.357C425.607,663.122 424.727,662.864 416.475,661.662C412.246,661.047 405.5,659.726 403.495,659.671C394.818,659.433 392.143,670.684 399.591,675.342C402.506,677.165 421.325,679.038 425.447,679.761C427.815,680.176 427.44,682.681 427.517,685.5C428.171,709.425 428.334,709.406 428.275,711.485C428.226,713.184 426.695,713.338 426.489,713.358C425.14,713.493 406.909,712.339 404.534,712.092C396.881,711.295 393.652,711.465 392.93,710.231C392.475,709.454 392.658,709.397 389.941,676.472Z" style="fill:rgb(242,180,96);"/>
            <path d="M633.747,695.518C632.589,709.162 632.776,709.258 632.127,710.25C631.436,711.307 630.162,711.131 619.469,712.09C616.273,712.377 599.649,713.496 598.535,713.306C595.918,712.861 597.549,710.065 597.868,685.508C597.911,682.24 597.353,680.374 600.544,679.759C601.407,679.593 622.075,676.784 624.357,676.075C628.645,674.743 633.765,666.385 626.793,661.101C622.693,657.994 617.365,660.688 607.548,661.839C601.121,662.593 598.667,664.164 598.655,660.499C598.647,658.02 598.704,658.022 598.933,629.502C598.993,622.019 599.032,621.945 599.473,621.475C600.18,620.721 600.353,620.943 612.484,620.241C634.527,618.966 636.059,617.903 636.72,619.359C637.671,621.456 636.205,665.172 635.032,679.46C633.834,694.055 633.823,694.231 633.747,695.518Z" style="fill:rgb(242,180,96);"/>
            <path d="M463.546,739.038C468.521,739.381 468.488,739.526 475.531,740.131C478.197,740.36 478.19,740.321 478.524,740.436C480.405,741.082 479.607,741.915 480.549,768.498C480.645,771.216 481.167,773.942 479.457,774.332C478.373,774.579 469.294,774.139 460.485,773.769C459.767,773.739 459.78,773.644 451.525,773.157C447.845,772.939 448.482,771.511 448.006,765.538C446.402,745.415 445.288,719.522 445.116,715.518C445.005,712.947 443.787,684.653 444.205,683.372C444.789,681.582 447.129,682.714 458.515,683.16C460.025,683.219 477.141,683.889 477.386,683.981C478.506,684.402 478.74,685.269 478.782,685.425C478.993,686.211 478.939,702.881 479.347,719.504C479.352,719.735 479.407,721.968 479.244,722.4C478.755,723.691 478.28,723.693 466.499,722.51C461.658,722.024 455.708,720.491 452.788,726.639C451.427,729.507 450.987,737.605 461.459,738.818C461.626,738.838 461.614,738.834 463.546,739.038Z" style="fill:rgb(242,180,96);"/>
            <path d="M553.489,774.169C547.819,774.276 545.96,774.497 545.239,773.774C544.386,772.918 544.672,772.707 545.314,757.494C545.895,743.725 545.754,743.725 545.912,742.538C546.303,739.601 547.682,740.825 555.526,739.691C564.016,738.463 569.248,739.319 572.184,734.31C574.903,729.671 572.958,720.946 563.537,721.968C560.028,722.349 560.058,722.419 556.531,722.777C548.269,723.617 548.231,723.619 547.568,723.342C546.62,722.945 546.614,721.661 546.613,721.495C546.603,719.334 546.968,719.345 547.242,694.497C547.327,686.685 547.018,684.749 548.311,684.17C549.612,683.587 552.297,683.872 563.483,683.244C568.426,682.967 569.703,683.014 578.478,682.231C578.694,682.212 580.649,682.038 581.135,682.755C581.705,683.599 581.501,683.703 581.096,695.484C580.852,702.579 579.413,731.365 579.258,734.485C578.228,755.094 577.282,763.495 577.089,767.469C577.057,768.122 577.229,772.275 575.684,772.876C574.01,773.528 556.547,774.086 553.489,774.169Z" style="fill:rgb(242,180,96);"/>
            <path d="M477.73,175.162C480.953,177.544 481.134,177.269 485.787,181.141C487.456,182.529 490.012,184.403 492.464,186.539C493.744,187.654 495.108,188.433 495.084,188.671C494.978,189.726 494.752,189.691 493.705,189.92C493.221,190.025 493.173,189.683 487.583,190.864C483.256,191.779 482.326,191.675 472.445,194.291C464.766,196.323 464.782,196.343 457.409,199.257C453.098,200.962 453.003,199.665 448.637,198.13C442.644,196.022 442.677,195.963 436.548,194.343C430.861,192.841 415.979,188.212 392.491,186.682C392.108,186.657 389.136,186.778 388.745,186.278C388,185.326 389.378,184.587 389.513,184.514C393.487,182.384 405.751,171.445 430.637,159.82C430.733,159.775 437.053,157.01 437.612,156.765C442.987,154.413 443.891,154.64 444.443,154.778C444.96,154.908 464.078,165.138 477.73,175.162Z" style="fill:rgb(242,180,96);"/>
            <path d="M528.81,756.514C528.57,761.633 526.195,812.347 525.327,820.482C525.036,823.21 524.227,822.954 521.493,823.085C519.9,823.161 502.986,823.051 502.526,823.018C500.138,822.847 500.176,821.342 500.128,820.532C499.333,807.226 498.106,789.353 497.058,759.519C497.034,758.828 496.166,743.879 496.732,742.611C497.132,741.714 498.348,741.666 498.51,741.66C498.885,741.645 517.515,741.798 526.502,741.677C529.855,741.631 529.257,743.15 529.087,749.486C528.993,753.01 528.929,752.993 528.81,756.514Z" style="fill:rgb(242,180,96);"/>
            <path d="M756.947,733.588C759.581,720.439 760.519,705.342 761.494,703.496C762.148,702.259 762.63,702.918 779.475,696.432C787.636,693.29 787.699,692.904 793.423,690.33C799.483,687.605 799.211,686.576 800.383,686.899C801.351,687.166 801.121,687.477 800.895,688.468C800.634,689.61 800.664,689.595 800.163,692.449C797.235,709.137 797.063,709.104 796.853,710.562C796.705,711.584 795.03,718.939 794.542,721.509C792.626,731.609 792.294,731.516 790.892,737.584C789.277,744.57 789.337,744.561 787.703,751.545C785.975,758.93 783.039,767.602 782.929,767.757C781.49,769.775 780.661,768.195 776.291,770.016C769.19,772.975 769.333,773.249 765.324,775.125C762.464,776.463 749.844,781.112 749.439,781.234C746.688,782.063 747.447,780.214 748.094,777.409C748.167,777.088 748.973,773.591 749.013,773.4C749.214,772.448 751.072,763.642 751.558,761.512C752.593,756.979 751.912,755.989 755.61,754.875C763.376,752.537 763.422,752.689 779.523,746.556C790.134,742.513 787.504,734.764 786.064,732.832C781.735,727.028 775.028,730.709 771.357,732.132C770.341,732.526 760.178,736.467 758.553,736.772C756.166,737.219 756.451,735.975 756.947,733.588Z" style="fill:rgb(242,180,96);"/>
            <path d="M443.219,595.449C443.647,595.48 444.072,595.285 444.5,595.316C444.852,595.342 445.166,595.561 445.514,595.615C446.938,595.835 446.942,595.535 463.506,596.339C465.213,596.422 473.501,596.476 476.474,596.664C476.818,596.685 477.238,597.001 477.5,596.778C478.205,596.178 477.746,586.083 478.144,585.5C478.436,585.072 479.043,584.929 479.336,584.5" style="fill:rgb(242,180,95);"/>
            <path d="M479.336,584.5C479.25,596.511 479.089,596.491 478.987,608.509C478.976,609.794 478.993,613.513 478.993,613.518C478.988,613.753 478.942,615.846 477.455,616.017C477.345,616.03 471.618,615.472 462.506,614.449C452.457,613.322 449.611,623.436 454.452,628.544C457.755,632.029 463.066,631.42 473.507,632.416C477.299,632.777 478.828,632.401 478.926,635.489C478.936,635.787 478.734,665.379 478.72,665.53C478.607,666.739 477.587,667.186 477.43,667.255C476.204,667.793 450.796,665.849 448.484,665.672C446.587,665.527 444.016,665.866 443.708,663.472C443.278,660.131 443.136,609.113 443.219,595.449C443.133,590.469 443.149,590.482 443.218,585.498C443.229,584.685 443.189,579.807 443.265,579.448C443.298,579.293 443.496,578.358 444.592,577.969C445.093,577.79 445.095,577.916 446.523,578.002C449.196,578.162 452.948,578.335 453.507,578.361C466.531,578.963 475.492,579.1 476.523,579.139C477.977,579.195 478.158,579.031 478.994,580.205C479.457,580.855 479.329,582.786 479.336,584.5" style="fill:rgb(242,180,96);"/>
            <path d="M617.038,826.337C614.95,837.029 611.333,854.216 610.295,856.423C609.204,858.743 608.547,858.387 603.532,858.82C599.775,859.144 595.763,859.704 588.477,860.199C588.164,860.22 585.1,860.632 584.579,860.328C583.651,859.787 583.939,857.785 583.971,857.561C585.713,845.435 585.516,845.424 585.97,842.567C586.851,837.038 586.526,837.004 587.532,831.502C587.839,829.822 589.794,813.134 590.434,805.493C591.729,790.035 591.575,789.797 592.351,789.333C593.566,788.608 595.082,788.644 606.512,787.65C612.053,787.168 622.194,785.591 622.47,785.696C623.613,786.13 623.66,786.288 623.587,787.501C623.537,788.344 618.929,818.119 617.038,826.337Z" style="fill:rgb(242,180,96);"/>
            <path d="M547.383,596.483C547.323,595.447 547.147,592.388 547.109,583.512C547.108,583.264 547.098,580.872 547.241,580.407C547.736,578.797 550.345,579.094 550.48,579.09C552.8,579.021 573.673,578.398 579.482,578.014C583.096,577.775 582.528,579.473 582.553,584.499C582.579,589.997 582.61,589.983 582.596,595.483C583.019,617.257 582.36,662.519 582.121,663.445C581.672,665.181 580.582,665.287 579.491,665.403C577.548,665.609 550.163,667.7 548.645,667.139C547.189,666.6 547.679,664.227 547.679,651.5C547.68,634.644 547.086,634.31 548.304,633.234C549.688,632.01 565.736,632.329 569.273,630.107C576.271,625.71 574.089,614.118 564.501,614.547C561.969,614.66 549.855,616.057 549.506,616.028C547.292,615.848 547.545,613.891 547.539,613.498C547.518,612.137 547.357,601.884 547.383,596.483" style="fill:rgb(242,180,96);"/>
            <path d="M805.241,658.471C804.557,664.646 804.689,672.822 799.389,675.594C794.01,678.407 765.083,684.851 764.108,683.837C763.309,683.007 764.234,682.815 765.22,669.478C765.606,664.26 766.346,658.066 766.854,649.52C767.047,646.268 768.076,646.636 772.341,645.067C780.54,642.051 780.615,642.287 788.611,638.761C789.988,638.154 800.981,633.306 805.583,630.652C805.73,630.568 807.116,629.769 807.482,629.731C808.541,629.622 808.378,631.342 808.364,631.5C808.124,634.026 807.965,633.99 807.77,636.524C807.634,638.286 807.479,638.245 805.241,658.471Z" style="fill:rgb(242,180,96);"/>
            <path d="M431.053,759.534C431.845,770.262 432.099,771.121 430.495,771.48C429.537,771.695 400.732,769.127 399.242,767.849C398.603,767.302 398.215,766.969 397.25,757.529C396.112,746.401 395.637,746.474 394.75,735.477C394.543,732.912 393.912,729.549 394.711,728.707C395.67,727.695 399.657,728.625 410.516,729.174C411.883,729.243 427.127,730.014 427.591,730.137C430.142,730.812 428.59,732.082 431.053,759.534Z" style="fill:rgb(242,180,96);"/>
            <path d="M627.484,728.238C629.427,728.251 629.42,728.207 629.582,728.252C629.647,728.27 630.04,728.379 630.317,728.68C630.985,729.408 630.628,729.546 630.201,736.476C629.854,742.121 627.695,758.299 627.66,758.523C626.343,767.115 626.821,767.609 625.371,768.203C623.791,768.85 608.731,770.497 596.501,771.515C596.267,771.534 594.117,771.713 593.776,770.432C593.599,769.765 595.271,751.343 595.678,740.508C595.985,732.353 595.924,730.744 597.389,730.207C598.068,729.958 613.557,729.404 627.484,728.238Z" style="fill:rgb(242,180,96);"/>
            <path d="M437.305,831.503C437.576,833.662 440.594,857.697 440.56,858.502C440.524,859.361 440.474,859.383 439.816,859.933C439.006,860.61 438.848,860.25 425.532,859.19C415.407,858.383 415.28,858.195 414.718,857.355C414.283,856.704 411.962,848.74 408.368,828.536C407.97,825.961 407.387,826.067 402.72,796.466C401.658,789.734 400.745,786.462 401.666,785.693C402.951,784.621 403.137,786.303 422.476,787.829C431.53,788.543 431.587,788.572 432.293,788.929C433.4,789.488 433.326,790.574 433.883,798.473C433.927,799.101 435.848,819.275 435.977,820.461C436.038,821.027 436.909,827.109 437.305,831.503" style="fill:rgb(242,180,96);"/>
            <path d="M310.887,804.554C311.406,813.833 316.36,813.258 325.476,815.596C333.352,817.617 337.701,817.949 338.847,819.203C340.22,820.705 339.855,824.919 342.813,835.42C343.368,837.387 344.71,843.019 344.825,843.425C345.42,845.517 345.824,845.517 345.432,846.475C345.027,847.466 343.702,847.211 343.544,847.181C334.764,845.491 330.699,844.399 329.596,844.103C314.085,839.936 313.927,840.07 312.989,839.045C311.906,837.861 303.032,813.07 300.094,802.6C299.183,799.357 299.083,798.737 297.567,793.48C293.114,778.029 293.42,776.979 291.471,769.507C290.856,767.147 291.09,767.114 290.386,764.526C290.325,764.302 289.559,761.487 291.465,761.832C292.76,762.066 292.632,762.608 307.478,765.611C326.419,769.442 326.483,769.035 327.548,769.227C329.646,769.605 329.454,770.751 330.403,776.515C331.725,784.538 331.874,784.499 332.667,788.468C333.571,792.996 333.391,793.018 334.349,797.528C335.213,801.592 332.633,800.102 328.556,799.246C321.964,797.863 317.694,795.197 313.695,798.734C312.22,800.039 311.664,801.234 311.55,801.525C310.967,803.009 310.859,803.737 310.887,804.282C310.892,804.366 310.893,804.454 310.887,804.554" style="fill:rgb(242,180,96);"/>
            <path d="M310.887,804.554C310.111,803.812 309.846,804.245 309.066,803.5C308.578,803.033 308.999,802.813 308.548,802.317C308.354,802.104 307.996,802.146 307.73,802.032C307.371,801.878 306.821,801.417 304.436,800.708C301.692,799.893 301.74,799.736 301.5,799.789C301.24,799.847 301.396,800.443 301.136,800.5L301.306,801.5L300.094,802.6" style="fill:rgb(241,180,96);"/>
            <path d="M528.504,483.335C526.506,483.345 505.109,483.447 503.523,483.342C503.263,483.325 501.213,483.189 500.864,481.463C500.773,481.014 500.793,481.008 500.824,452.522C500.827,450.002 500.634,450.021 500.617,447.498C500.6,445.112 500.226,444.418 502.559,443.901C502.623,443.887 519.328,443.853 529.507,444.017C531.282,444.045 531.659,443.858 532.235,445.549C532.3,445.74 532.324,478.26 532.317,480.496C532.307,483.704 531.159,483.346 528.504,483.335Z" style="fill:rgb(155,92,41);"/>
            <path d="M724.949,800.698C724.893,801.059 725.108,801.108 723.278,807.433C722.007,811.822 713.8,835.23 712.209,838.362C711.359,840.034 709.582,840.383 706.431,841.201C695.495,844.041 695.553,844.209 684.501,846.504C683.164,846.781 679.003,847.949 679.265,845.497C679.3,845.17 681.308,837.79 681.397,837.472C683.914,828.482 684.092,825.003 685.427,820.479C686.106,818.183 686.694,818.412 694.536,816.669C708.315,813.607 708.587,813.435 709.643,812.77C714.527,809.691 714.154,806.287 714.04,802.789C713.261,801.097 711.267,795.72 704.454,797.3C693.072,799.94 693.074,799.942 692.429,800.085C691.302,800.334 691.121,800.46 690.467,799.517C690.13,799.031 690.454,797.656 690.491,797.498C691.554,792.99 691.306,792.959 692.332,788.463C694.422,779.304 694.999,770.968 695.936,769.918C696.7,769.063 703.025,768.667 707.533,767.646C718.467,765.172 718.571,765.707 730.557,762.711C733.287,762.029 733.645,761.127 734.552,762.473C734.825,762.879 734.952,763.067 733.55,768.512C733.347,769.302 731.996,774.546 731.106,778.409C728.016,791.814 727.109,793.856 724.949,800.698" style="fill:rgb(242,180,96);"/>
            <path d="M581.516,481.867C579.317,481.853 577.885,482.389 577.826,478.5C577.704,470.436 577.944,452.766 577.839,451.524C577.754,450.515 577.684,447.052 577.92,446.641C578.542,445.557 580.275,445.61 580.497,445.616C582.018,445.662 584.761,445.746 599.503,446.424C600.062,446.45 600.056,446.505 606.489,446.827C611.929,447.1 612.522,447.282 612.766,449.487C612.902,450.712 612.839,452.232 612.83,452.47C612.748,454.473 612.717,454.45 612.814,456.467C612.945,459.187 612.868,473.065 612.86,474.508C612.838,478.416 613.375,479.737 609.466,480.085C607.836,480.231 600.312,480.712 599.516,480.762C595.996,480.987 596.019,481.087 592.486,481.226C587.772,481.411 587.799,481.595 581.516,481.867Z" style="fill:rgb(155,92,41);"/>
            <path d="M407.569,478.12C404.898,477.587 363.571,474.949 354.513,474.37C354.357,474.36 352.661,474.251 352.563,474.218C350.863,473.634 350.988,473.293 350.93,471.495C350.783,466.976 350.963,466.994 350.766,462.488C350.603,458.76 352.84,460.467 361.551,458.844C362.109,458.74 383.006,456.285 397.515,455.765C408.955,455.354 410.02,454.425 410.314,456.535C410.493,457.816 410.327,467.007 410.388,475.496C410.397,476.751 410.638,476.896 409.73,477.749C409.438,478.023 409.235,478.453 407.569,478.12Z" style="fill:rgb(155,92,41);"/>
            <path d="M653.418,585.501C653.328,573.727 652.662,572.731 654.285,572.074C655.697,571.504 662.683,571.495 680.54,568.805C681.254,568.698 687.685,567.729 689.494,567.731C691.031,567.732 691.159,569.343 691.174,569.54C691.286,570.948 691.198,581.643 691.192,590.501C691.192,590.733 691.19,593.144 691.082,593.395C690.348,595.105 689.095,594.781 678.49,596.437C671.688,597.498 661.072,598.748 659.554,598.927C657.259,599.197 654.883,599.649 654.144,598.899C652.989,597.727 653.811,593.294 653.418,585.501Z" style="fill:rgb(242,180,96);"/>
            <path d="M473.487,790.925C480.213,791.021 481.763,790.499 481.901,793.469C482.357,803.285 482.29,803.268 482.681,808.486C483.031,813.167 483.323,818.62 483.37,819.502C483.553,822.937 481.711,822.153 476.481,821.742C464.185,820.776 452.434,819.139 452.175,816.539C451.976,814.541 449.769,792.385 449.981,791.538C450.396,789.876 450.792,789.994 452.502,790.033C457.265,790.144 457.248,790.386 473.487,790.925Z" style="fill:rgb(242,180,96);"/>
            <path d="M552.507,790.919C567.802,790.663 573.597,789.641 574.502,790.498C575.398,791.346 574.91,791.579 574.245,800.479C573.429,811.405 572.576,817.308 572.347,819.478C572.189,820.978 553.034,821.272 545.53,821.89C542.857,822.11 541.902,822.156 542.071,819.481C542.891,806.485 542.857,806.502 543.472,793.499C543.616,790.451 545.261,790.979 552.507,790.919Z" style="fill:rgb(242,180,96);"/>
            <path d="M450.392,455.499C450.277,467.176 450.551,479.688 450.259,480.447C449.563,482.258 448.342,482.005 439.506,481.41C430.895,480.829 427.908,481.428 427.739,478.485C427.7,477.807 427.732,452.475 427.71,451.503C427.626,447.835 427.515,446.417 430.495,446.319C448.126,445.74 449.939,444.047 450.344,447.521C450.583,449.576 450.221,450.503 450.392,455.499Z" style="fill:rgb(155,92,41);"/>
            <path d="M284.88,809.392C289.665,824.889 291.069,827.886 291.789,829.42C292.365,830.65 292.734,831.001 291.54,831.632C291.247,831.787 291.172,831.826 287.705,830.058C277.78,824.997 269.265,821.049 260.046,808.822C257.377,805.281 256.584,804.697 253.08,797.708C251.977,795.508 251.904,795.568 250.803,793.358C250.33,792.408 250.451,792.366 249.867,791.322C249.168,790.073 248.002,788.564 248.787,787.831C249.635,787.039 249.734,787.885 255.54,790.4C263.387,793.798 263.325,793.91 271.466,796.594C280.916,799.71 281.242,799.284 282.268,800.66C283.112,801.792 282.982,803.482 284.88,809.392Z" style="fill:rgb(242,180,96);"/>
            <path d="M739.225,811.409C741.252,805.196 741.119,805.165 741.868,802.594C742.621,800.008 743.54,799.858 746.605,798.871C753.702,796.587 753.689,796.586 760.683,793.993C769.624,790.679 773.077,788.519 773.466,788.38C773.639,788.318 775.895,787.508 775.473,789.497C775.387,789.906 775.093,790.242 774.914,790.62C772.932,794.806 769.764,801.026 768.678,802.614C764.953,808.062 762.406,813.222 752.294,821.23C749.495,823.448 741.984,827.865 737.566,829.654C734.638,830.839 733.591,832.159 732.736,831.255C731.982,830.457 732.58,830.328 733.752,827.602C734.91,824.91 738.809,812.711 739.225,811.409Z" style="fill:rgb(242,180,96);"/>
            <path d="M630.692,455.682C630.804,453.766 629.99,449.736 633.391,449.816C639.144,449.951 654.287,450.077 669.493,451.616C672.057,451.876 673.704,451.932 673.943,455.476C674.086,457.61 674.022,459.047 673.992,460.407C673.925,463.509 673.574,473.182 672.614,474.243C670.745,476.309 631.098,477.326 630.934,474.368C630.909,473.92 630.681,455.71 630.692,455.682" style="fill:rgb(155,92,41);"/>
            <path d="M469.53,838.073C476.025,838.348 475.998,838.539 482.475,838.885C485.316,839.037 484.979,840.25 485.477,847.501C485.76,851.615 485.603,851.602 486.372,859.513C486.615,862.007 486.48,862.819 483.5,862.767C481.659,862.736 476.942,862.654 460.494,861.824C457.611,861.678 457.687,860.727 456.822,853.454C456.766,852.983 456.759,852.988 456.056,847.568C456.008,847.194 455.917,846.826 455.866,846.452C455.779,845.815 454.951,839.746 454.825,838.477C454.805,838.272 454.621,836.429 456.499,836.517C458.853,836.626 458.79,837.139 469.53,838.073Z" style="fill:rgb(242,180,96);"/>
            <path d="M558.524,837.795C561.172,837.541 561.155,837.562 562.489,837.392C568.288,836.657 568.645,836.189 569.349,836.705C570.185,837.319 570.003,837.479 569.86,838.506C569.704,839.631 569.585,839.608 567.757,852.541C566.636,860.474 566.959,861.51 564.544,861.771C562.075,862.039 542.565,862.782 541.499,862.795C540.853,862.804 538.719,862.994 538.789,860.512C538.798,860.178 539.455,852.04 539.595,850.509C540.476,840.889 539.81,839.816 541.649,838.991C541.88,838.887 544.291,838.828 544.522,838.822C546.796,838.767 552.001,838.234 558.524,837.795Z" style="fill:rgb(242,180,96);"/>
            <path d="M496.055,597.381C496.044,596.19 495.982,589.91 496.071,582.49C496.103,579.739 496.738,579.548 499.5,579.561C526.183,579.687 526.181,579.442 528.499,579.516C529.682,579.554 529.783,579.543 530.429,580.533C530.681,580.92 530.634,580.966 530.793,595.488C530.689,602.529 531.054,609.678 530.942,613.499C530.875,615.785 531.619,616.506 529.448,617.197C529.085,617.312 510.178,617.289 508.502,617.287C496.682,617.272 496.415,617.21 495.944,616.283C495.439,615.29 495.932,599.152 496.055,597.381" style="fill:rgb(242,180,96);"/>
            <path d="M317.256,576.495C317.094,583.629 317.22,588.983 317.193,589.464C317.183,589.652 317.114,590.904 315.497,591.102C315.003,591.162 307.236,589.553 306.52,589.404C298.391,587.72 298.449,587.532 291.399,585.956C290.031,585.651 276.497,582.626 274.38,581.788C272.551,581.064 272.986,579.642 273.06,572.411C273.053,571.376 273.008,564.953 273.159,559.468C273.164,559.264 273.214,557.456 274.451,557.276C275.199,557.167 285.385,559.542 286.456,559.732C287.894,559.986 299.152,561.975 304.458,562.761C311.08,563.741 316.161,564.833 316.33,564.905C317.652,565.463 317.397,566.947 317.256,576.495" style="fill:rgb(242,180,96);"/>
            <path d="M748.514,557.564C748.754,557.513 751.506,556.923 751.506,556.923C753.417,556.974 753.139,559.388 753.234,569.504C753.326,579.367 753.075,579.829 752.649,580.61C751.954,581.885 747.745,582.65 724.439,588.252C721.815,588.882 709.891,591.489 708.672,591.012C708.525,590.954 708.443,590.792 708.325,590.687C707.598,590.035 707.78,589.87 707.771,581.512C707.771,581.031 707.685,581.037 707.66,575.499C707.646,574.779 707.497,567.024 707.52,566.501C707.633,563.998 710.996,564.282 712.434,564.05C715.446,563.562 715.405,563.452 718.427,563.016C724.203,562.182 733.176,560.518 734.455,560.281C741.496,558.975 741.443,558.804 748.514,557.564" style="fill:rgb(242,180,96);"/>
            <path d="M302.656,401.658C303.44,400.891 303.434,400.908 304.249,400.195C315.048,390.759 318.993,386.385 321.532,385.596C328.945,383.293 333.168,391.925 329.033,397.158C328.415,397.941 308.161,415.83 306.462,417.459C304.421,419.415 304.515,419.493 302.337,421.284C297.168,425.534 291.412,422.125 290.609,417.48C289.669,412.044 293.087,410.8 302.656,401.658Z" style="fill:rgb(96,56,17);"/>
            <path d="M726.61,441.582C726.006,442.35 726.158,442.437 719.276,451.341C719.173,451.474 716.964,454.606 716.367,455.398C711.71,461.581 709.975,465.254 705.499,464.509C702.542,464.017 695.779,459.663 701.69,451.636C705.864,445.967 706.847,445.114 708.502,442.501C708.75,442.109 708.941,442.254 711.937,437.831C712.413,437.128 712.444,437.158 718.264,429.321C721.381,425.123 724.287,419.433 730.618,422.25C733.957,423.736 736.497,429.213 732.252,434.296C731.86,434.766 727.06,440.998 726.61,441.582Z" style="fill:rgb(96,56,17);"/>
            <path d="M636.915,591.416C636.94,592.067 637.16,597.808 636.942,599.56C636.608,602.232 634.855,601.713 626.496,602.455C624.498,602.632 608.912,604.016 601.495,604.327C598.212,604.465 598.927,602.527 599.056,594.41C598.924,592.461 598.918,590.813 598.917,590.5C598.904,586.483 598.789,578.689 598.806,578.534C599.056,576.363 602.493,576.627 603.504,576.55C623.76,575.003 633.213,573.821 634.507,573.856C636.583,573.911 636.744,575.406 636.751,575.443C636.771,575.543 636.99,587.028 636.915,591.416" style="fill:rgb(242,180,96);"/>
            <path d="M426.537,591.499C426.196,600.734 427.004,602.806 425.928,603.91C425.063,604.797 423.601,604.439 419.523,604.198C417.488,604.078 417.51,604.012 415.472,603.879C410.154,603.532 390.467,601.98 389.459,601.601C387.778,600.969 388.258,598.576 388.299,588.493C388.335,583.321 388.462,578.886 388.48,578.499C388.633,575.097 388.064,573.55 391.46,573.923C400.618,574.931 405.55,575.061 409.502,575.476C423.577,576.954 423.669,576.236 425.377,576.857C426.908,577.415 426.55,578.516 426.537,591.499" style="fill:rgb(242,180,96);"/>
            <path d="M483.428,456.499C483.438,458.498 483.546,480.623 483.385,481.484C483.007,483.498 480.791,483.175 480.503,483.175C468.541,483.157 468.406,483.043 467.695,482.302C466.805,481.376 467.065,480.057 467.085,454.487C467.091,446.102 466.452,445.651 467.764,444.949C468.62,444.491 475.307,444.571 479.499,444.335C482.306,444.176 483.443,443.692 483.463,446.502C483.469,447.302 483.4,447.285 483.428,456.499Z" style="fill:rgb(155,92,41);"/>
            <path d="M312.932,316.461C313.017,315.373 312.716,313.812 314.388,311.408C314.719,310.931 315.462,309.863 320.479,307.457C323.617,305.952 342.382,295.723 344.623,294.815C349.232,292.947 352.739,295.69 353.674,297.397C355.907,301.476 354.17,303.827 353.353,305.391C353.038,305.993 352.326,307.356 346.348,310.192C339.873,313.264 339.956,313.401 333.621,316.729C322.76,322.436 321.503,324.564 317.409,322.709C313.143,320.775 312.965,316.596 312.932,316.461Z" style="fill:rgb(96,56,17);"/>
            <path d="M371.819,586.486C371.588,592.789 372.268,598.202 371.13,599.008C370.2,599.665 365.976,598.862 342.464,595.747C335.325,594.801 335.155,594.669 334.652,594.28C333.766,593.594 333.753,592.271 333.903,583.544C333.904,582.424 333.914,570.215 333.998,569.551C334.209,567.899 335.339,567.767 335.527,567.745C337.04,567.569 336.985,568.176 354.439,569.992C357.831,570.345 357.762,570.744 363.528,571.23C366.511,571.481 366.479,571.621 369.457,571.85C372.689,572.098 372.077,574.587 372.025,578.491C372.017,579.131 371.993,579.119 371.819,586.486" style="fill:rgb(242,180,96);"/>
            <path d="M523.138,846.473C523.055,847.513 523.083,847.512 522.181,859.477C522.163,859.725 521.996,861.942 521.51,862.509C520.97,863.141 520.824,863.2 507.501,863.162C504.732,863.154 503.377,863.241 503.202,860.515C502.073,842.933 501.83,842.928 502.083,841.419C502.368,839.723 502.799,839.834 504.511,839.799C505.94,839.77 521.128,839.458 522.384,839.862C523.83,840.327 523.315,843.504 523.138,846.473Z" style="fill:rgb(242,180,96);"/>
            <path d="M557.517,482.878C552.098,482.947 550.039,483.313 549.645,481.472C549.415,480.398 549.54,456.658 549.552,454.5C549.599,445.567 549.457,445.464 549.957,444.877C550.568,444.161 553.451,444.423 556.501,444.457C556.801,444.461 559.58,444.492 560.227,444.894C561.954,445.968 560.662,450.913 560.942,453.413C561.175,455.486 560.954,455.483 561.135,479.485C561.162,483.075 559.753,482.698 557.517,482.878Z" style="fill:rgb(155,92,41);"/>
        </g>
    </g>
</svg>
