<?xml version="1.0" encoding="UTF-8" standalone="no"?>
<!DOCTYPE svg PUBLIC "-//W3C//DTD SVG 1.1//EN" "http://www.w3.org/Graphics/SVG/1.1/DTD/svg11.dtd">
<svg width="100%" height="100%" viewBox="0 0 554 460" version="1.1" xmlns="http://www.w3.org/2000/svg" xmlns:xlink="http://www.w3.org/1999/xlink" xml:space="preserve" xmlns:serif="http://www.serif.com/" style="fill-rule:evenodd;clip-rule:evenodd;stroke-linejoin:round;stroke-miterlimit:2;">
    <g transform="matrix(1,0,0,1,-9342.404683,-10487.699546)">
        <g transform="matrix(1.95055,0,0,3.948123,-7265.768949,-11556.637138)">
            <g id="Fondo" transform="matrix(0.600792,0,0,0.296818,8348.951549,5489.825479)">
                <path d="M644.473,337.542C646.26,338.736 661.168,347.854 662.373,348.692C663.605,349.547 678.786,359.051 680.217,359.947C683.503,362.004 683.474,362.022 686.767,364.079C689.814,365.983 689.679,366.167 692.774,368.018C693.324,368.348 696.609,369.978 699.677,372.25C701.149,373.34 742.493,399.126 743.337,399.727C749.432,404.07 748.219,408.336 748.216,415.501C748.195,461.023 748.439,461.077 747.641,463.545C745.706,469.533 743.512,468.977 723.354,484.307C721.868,485.436 721.484,485.588 719.348,487.303C715.339,490.524 712.921,491.825 707.704,495.784C698.546,502.734 687.769,510.368 683.6,513.635C681.322,515.42 668.267,524.916 664.62,527.665C656.604,533.708 656.442,533.475 654.764,534.826C653.168,536.11 652.253,536.847 634.239,550.129C625.539,556.544 625.684,556.72 616.853,562.976C616.526,563.208 616.624,563.305 612.851,565.982C612.069,566.536 612.149,566.632 603.279,573.184C601.21,574.712 601.21,574.703 589.841,582.996C589.778,583.042 584.704,586.833 584.257,587.167C569.03,598.542 568.996,598.469 553.716,609.78C540.55,619.526 540.51,619.467 539.368,620.317C532.139,625.693 532.154,625.671 524.859,630.958C524.172,631.456 520.646,634.011 516.369,637.323C515.002,638.382 475.766,667.071 474.753,667.839C468.77,672.373 468.643,672.163 462.689,676.753C456.888,681.224 444.429,689.827 439.585,693.619C438.867,694.181 438.69,693.921 430.4,700.369C429.964,700.708 427.454,702.37 425.701,703.754C414.728,712.419 409.298,706.159 400.828,700.07C400.411,699.77 400.446,699.729 395.705,696.212C393.135,694.306 378.409,683.382 363.643,672.305C342.041,656.098 340.495,655.024 338.432,653.591C335.837,651.788 336.023,651.549 330.428,647.598C329.758,647.125 325.112,643.291 317.835,638.048C314.379,635.558 295.499,621.189 293.388,619.658C289.332,616.718 289.412,616.643 285.347,613.721C276.563,607.408 275.829,606.948 275.797,598.5C275.781,594.263 275.603,547.759 275.915,545.539C276.884,538.657 279.868,539.025 286.391,534.346C288.25,533.013 289.794,532.229 295.298,528.206C301.125,523.946 301.171,524.033 307.156,520.005C308.097,519.372 307.975,519.22 318.724,511.823C322.658,509.115 325.671,507.31 337.678,498.76C340.625,496.661 340.633,496.696 343.568,494.594C350.76,489.444 355.582,486.306 361.759,481.85C364.09,480.168 374.052,473.541 378.394,470.349C378.897,469.98 378.92,470.036 384.797,465.903C394.545,459.046 394.607,459.165 404.334,452.253C407.844,449.76 407.927,449.906 411.344,447.283C413.615,445.539 413.903,445.962 440.768,426.893C441.193,426.592 452.995,418.423 453.297,418.205C455.892,416.335 465.754,409.74 470.377,406.327C471.163,405.746 471.279,405.92 480.384,399.331C480.889,398.965 480.921,399.029 486.751,394.842C490.629,392.058 503.206,383.647 512.733,376.829C512.738,376.826 526.381,367.41 527.568,366.591C530.595,364.501 538.982,358.484 540.54,357.559C542.031,356.674 544.129,354.871 550.592,350.638C552.616,349.313 552.556,349.256 575.421,333.386C576.654,332.53 579.054,330.692 581.776,328.926C584.577,327.108 584.608,327.174 587.249,325.154C589.077,323.756 590.28,323.213 596.175,319.029C598.91,317.088 605.365,312.869 613.729,318.142C617.766,320.687 642.99,336.515 644.473,337.542Z" style="fill:rgb(115,53,25);"/>
                <path d="M732.286,401.84C738.43,405.833 740,406.729 739.338,409.455C738.771,411.792 733.743,415.086 731.613,416.663C728.64,418.863 724.24,421.678 717.691,426.758C716.427,427.738 716.357,427.634 701.649,438.702C693.762,444.637 669.739,462.09 667.502,463.503C666.771,463.964 666.978,464.229 658.799,469.9C657.392,470.875 657.551,471.066 641.574,482.6C636.057,486.583 636.102,486.61 630.554,490.578C629.813,491.108 629.841,491.112 621.33,497.254C614.209,502.393 612.606,503.452 611.83,503.965C611.163,504.406 611.249,504.518 603.71,509.799C603.017,510.285 603.074,510.34 595.267,516.168C594.112,517.031 594.009,516.881 580.618,526.666C579.272,527.65 571.579,532.932 566.657,536.71C564.209,538.589 523.583,567.947 523.271,568.14C519.599,570.408 519.789,570.656 516.227,573.111C515.462,573.638 515.524,573.693 506.838,579.943C506.474,580.204 504.415,581.686 502.346,583.294C502.232,583.383 493.918,589.355 492.425,590.402C487.289,594.003 484.499,596.12 484.322,596.242C480.438,598.925 480.528,599.012 476.671,601.749C475.026,602.917 475.009,602.853 472.569,604.592C468.528,607.47 460.505,613.113 455.239,617.155C454.353,617.835 452.815,618.736 447.663,622.718C446.48,623.632 443.079,625.82 437.722,629.81C433.513,632.945 429.551,635.514 428.824,635.985C425.849,637.915 419.029,643.691 417.573,643.884C415.2,644.198 412.661,641.154 407.414,637.621C406.657,637.112 405.688,636.459 398.256,630.829C393.215,627.011 392.914,627.251 386.738,622.2C386.475,621.984 362.502,603.868 352.68,596.263C350.921,594.901 345.318,590.739 344.676,590.262C338.538,585.703 335.193,583.376 332.66,581.289C331.798,580.579 327.698,577.726 325.775,576.158C323.88,574.613 314.385,567.451 312.201,565.915C310.376,564.632 301.19,557.583 300.237,556.852C296.128,553.698 289.344,549.456 287.92,547.236C285.456,543.395 290.868,541 300.305,534.22C300.794,533.868 305.047,531.076 306.727,529.814C310.119,527.267 312.872,525.668 317.37,522.319C318.15,521.738 332.006,512.159 332.64,511.702C333.376,511.173 336.529,509.246 340.355,506.306C342.466,504.684 347.484,501.496 350.375,499.323C350.965,498.881 350.992,498.945 357.886,493.986C359.973,492.484 363.308,490.218 363.783,489.895C368.018,487.017 367.91,486.884 372.226,484.114C374.558,482.618 381.844,477.345 382.672,476.745C382.705,476.721 386.923,473.918 389.295,472.202C394.918,468.135 446.81,432.364 449.367,430.328C452.423,427.895 452.688,428.292 455.784,425.887C459.435,423.052 472.136,414.819 475.372,412.326C477,411.071 481.206,408.184 481.719,407.832C488.245,403.351 488.237,403.365 494.646,398.702C495.112,398.363 495.127,398.425 500.578,394.617C502.385,393.355 503.333,392.993 507.7,389.781C511.919,386.679 529.795,374.682 534.278,371.193C535.771,370.032 540.52,367.36 546.209,363.098C550.202,360.108 565.413,349.882 567.372,348.329C568.638,347.326 589.069,333.59 599.306,326.218C606.36,321.139 608.559,324.242 613.562,327.403C618.139,330.296 618.219,330.133 622.739,333.12C623.276,333.476 623.332,333.369 629.603,337.338C631.516,338.549 646.738,348.183 653.578,352.371C655.533,353.568 669.269,362.275 670.734,363.123C676.389,366.396 676.167,366.728 681.735,370.14C685.175,372.248 685.012,372.493 688.564,374.396C690.208,375.277 700.392,382.045 710.233,387.929C711.011,388.394 710.871,388.592 719.745,394.094C731.282,401.246 731.297,401.198 732.286,401.84Z" style="fill:rgb(224,175,135);"/>
                <path d="M740.155,457.514C740.142,461.428 740.453,461.99 735.182,466.11C734.407,466.717 723.428,474.517 721.735,475.822C720.062,477.111 719.973,476.959 700.562,491.584C696.725,494.475 691.349,498.253 691.329,498.268C687.882,500.854 687.98,500.959 684.437,503.413C680.931,505.84 630.602,543.398 627.449,545.435C627.019,545.712 627.046,545.743 622.302,549.222C613.507,555.673 594.399,570.258 587.833,574.971C582.3,578.942 582.401,579.06 576.831,582.981C575.594,583.851 574.927,584.636 568.8,588.919C565.752,591.049 552.507,601.194 550.496,602.494C549.434,603.18 546.425,605.776 546.101,606.006C537.873,611.844 537.841,611.777 529.792,617.881C528.799,618.635 528.783,618.594 517.182,627.047C496.258,642.291 496.509,642.605 488.801,647.947C488.106,648.428 488.164,648.482 480.299,654.224C470.323,661.506 466.783,663.814 450.711,675.796C447.395,678.268 447.329,678.156 443.783,680.868C443.108,681.385 443.007,681.231 435.211,687.143C434.915,687.368 431.208,689.785 427.586,692.615C425.124,694.539 423.252,695.517 421.723,696.807C420.887,697.512 420.95,697.627 420.557,697.686C420.524,697.691 418.958,697.347 418.949,697.333C418.835,697.156 419.034,696.916 419.025,696.705C418.959,695.084 418.93,695.109 418.909,693.493C418.872,690.693 418.926,690.716 418.936,658.5C418.938,653.524 418.57,653.012 421.667,650.739C422.03,650.473 426.049,647.948 429.279,645.227C430.592,644.121 445.659,633.601 448.425,631.4C448.964,630.971 448.993,631.023 455.408,626.366C455.412,626.363 460.121,623.153 462.389,621.354C463.797,620.236 465.5,619.319 469.405,616.372C469.447,616.339 502.691,592.415 504.312,591.223C507.783,588.671 507.817,588.749 511.279,586.173C511.649,585.899 512.84,585.228 517.117,582.029C521.141,579.019 521.247,579.189 525.288,576.211C536.473,567.968 536.519,568.057 547.797,559.924C551.943,556.933 551.897,556.905 556.146,554.029C557.087,553.392 556.943,553.21 567.554,545.574C580.475,536.276 581.309,535.379 586.667,531.751C590.585,529.098 590.469,528.973 594.331,526.253C597.929,523.718 599.915,521.83 603.559,519.582C604.404,519.06 611.476,513.827 626.693,502.773C633.34,497.944 635.411,496.557 636.184,496.038C637.365,495.247 637.157,494.998 650.552,485.572C652.894,483.923 652.752,483.752 679.439,464.419C683.116,461.755 688.578,457.929 693.844,453.915C694.501,453.415 707.725,443.782 708.342,443.301C709.764,442.194 713.663,439.352 714.129,439.013C715.979,437.665 735.499,423.439 737.187,422.075C737.28,422 737.804,421.577 738.322,421.103C739.045,420.442 739.26,420.252 739.89,421.016C740.622,421.902 740.061,422.053 740.136,428.501C740.285,441.254 740.015,445.484 740.155,457.514Z" style="fill:rgb(169,94,53);"/>
                <path d="M296.405,563.619C299.262,565.839 299.19,565.906 302.213,567.886C302.489,568.066 308.349,572.72 315.757,578.165C324.7,584.738 324.572,584.888 327.792,587.042C331.144,589.283 330.896,589.597 334.178,591.922C335.572,592.91 335.36,593.155 336.783,594.074C343.468,598.392 344.856,600.374 349.537,603.454C349.751,603.594 354.542,607.429 360.349,611.699C368.659,617.808 368.49,618.005 376.82,624.055C377.467,624.526 377.457,624.535 384.76,630.149C385.268,630.539 387.979,632.622 391.165,634.942C392.753,636.1 392.533,636.363 395.579,638.384C400.094,641.381 401.902,643.657 408.221,647.907C411.027,649.794 411.168,651.162 411.207,651.535C411.363,653.045 410.963,653.028 410.908,670.499C410.905,671.46 410.885,677.907 410.841,682.504C410.824,684.379 410.88,693.397 410.934,694.527C410.987,695.648 411.379,695.817 410.537,696.539C409.83,697.145 408.72,696.436 408.588,696.352C407.081,695.39 399.061,688.778 394.373,685.709C393.618,685.215 363.703,662.74 363.458,662.554C362.962,662.174 350.582,652.975 349.69,652.25C345.718,649.022 341.967,646.586 335.9,642.01C320.427,630.34 320.36,630.453 319.34,629.711C315.287,626.761 315.598,626.382 311.438,623.579C309.027,621.954 309.243,621.677 306.798,620.095C306.35,619.805 301.331,615.91 301.241,615.851C298.219,613.882 298.329,613.751 295.445,611.57C293.135,609.823 293.233,609.721 290.849,608.052C289.447,607.07 286.755,604.897 286.405,604.614C283.648,602.388 283.797,601.94 283.751,592.499C283.644,570.936 283.765,556.819 283.781,556.541C283.79,556.372 283.873,554.9 285.546,555.374C285.617,555.394 291.465,560.117 293.521,561.471C293.762,561.629 294.177,561.902 296.405,563.619Z" style="fill:rgb(169,94,53);"/>
                <path d="M529.097,552.449C527.768,557.7 526.702,557.184 517.648,563.714C507.318,571.165 507.204,570.971 502.834,573.947C499.949,575.912 500.148,576.159 497.225,578.09C490.617,582.456 490.675,582.519 484.231,587.105C479.596,590.406 478.1,590.418 477.499,590.423C474.581,590.446 469.719,586.335 469.18,585.987C458.208,578.905 458.673,578.266 447.786,571.09C447.415,570.845 447.516,570.706 443.246,567.882C439.983,565.723 438.901,564.61 436.26,562.879C435.777,562.562 434.707,561.86 430.389,558.663C425.655,555.156 423.096,553.714 423.438,549.496C423.801,545.017 427.02,544.586 433.3,540.198C434.139,539.612 440.195,535.755 445.754,531.879C446.61,531.283 446.679,531.39 456.587,524.63C460.822,521.741 460.848,521.803 465.131,519.003C466.337,518.214 473.269,512.519 475.45,512.196C478.088,511.806 480.503,514.477 490.568,521.405C495.315,524.673 495.222,524.782 500.566,528.401C501.999,529.372 501.901,529.475 518.351,540.728C527.513,546.995 527.741,546.827 528.581,548.453C529.41,550.056 529.107,552.145 529.097,552.449Z" style="fill:rgb(115,53,25);"/>
                <path d="M657.956,457.414C658.395,461.63 658.163,462.372 653.737,465.808C649.503,469.094 647.831,470.018 642.67,473.738C635.211,479.115 631.77,481.323 630.798,481.947C629.845,482.558 629.976,482.705 619.287,490.18C616.508,492.123 616.167,492.069 612.221,495.129C605.551,500.302 604.503,498.238 597.394,493.661C597.38,493.652 584.312,485.415 578.649,481.283C578.291,481.022 566.489,473.414 560.622,469.311C557.505,467.13 557.315,467.428 554.147,464.955C554.088,464.909 550.77,463.144 551.218,459.464C551.705,455.463 557.01,453.242 561.751,449.889C565.675,447.114 565.868,447.407 594.574,427.605C603.744,421.28 604.307,419.958 607.416,421.653C608.22,422.091 615.085,427.056 616.755,428.114C620.802,430.677 624.032,432.835 624.66,433.254C639.926,443.454 641.251,444.232 642.743,445.108C646.826,447.504 646.659,447.736 650.72,450.146C657.471,454.152 657.221,454.666 657.956,457.414Z" style="fill:rgb(115,53,25);"/>
                <path d="M571.603,488.36C572.759,489.237 583.331,496.485 585.461,497.57C587.257,498.483 592.572,500.904 591.806,506.538C591.183,511.115 587.64,512.366 580.16,518.041C579.486,518.553 577.97,519.335 573.629,522.677C571.201,524.547 564.405,529.167 564.314,529.233C560.768,531.818 560.247,531.784 556.144,535.036C555.747,535.351 544.628,542.99 544.306,543.195C540.507,545.618 539.385,543.611 529.197,536.962C524.666,534.006 524.799,533.836 520.34,530.752C504.839,520.035 504.786,520.113 502.6,518.367C498.04,514.725 489.683,510.126 487.908,507.273C486.531,505.061 487.196,501.153 489.431,499.42C491.091,498.134 499.794,492.932 506.277,488.184C507.012,487.646 507.189,487.931 515.732,481.848C515.816,481.788 524.589,475.805 525.359,475.279C531.438,471.133 531.473,471.197 534.211,469.133C538.39,465.983 539.445,465.87 543.788,469.083C550.485,474.036 550.657,473.772 557.358,478.697C558.825,479.775 570.46,487.592 571.603,488.36Z" style="fill:rgb(115,53,25);"/>
                <path d="M449.259,581.818C460.084,589.975 464.401,589.993 463.914,597.526C463.615,602.134 460.662,602.685 453.61,607.667C451.261,609.327 451.157,609.156 447.706,611.777C447.341,612.054 447.339,612.045 431.733,622.827C425.642,627.035 425.401,626.67 421.661,629.704C414.403,635.59 413.204,632.352 406.458,627.56C402.044,624.424 402.039,624.463 397.687,621.228C395.789,619.817 390.798,616.352 390.195,615.934C383.917,611.576 384.184,611.233 377.799,607.065C377.332,606.76 371.39,601.923 365.303,597.816C364.363,597.181 360.908,595.576 360.419,591.508C359.796,586.324 366.361,584.195 375.265,578.139C382.383,573.298 382.571,573.618 389.733,568.854C389.925,568.726 396.08,564.876 398.356,563.281C401.531,561.055 401.679,561.316 406.222,558.108C411.376,554.47 412.294,554.883 417.228,558.831C421.289,562.081 433.056,570.403 436.374,572.69C440.045,575.221 439.776,575.566 446.748,580.105C448.028,580.939 448.042,580.89 449.259,581.818Z" style="fill:rgb(115,53,25);"/>
                <path d="M400.553,535.433C399.967,535.01 398.192,533.607 396.441,532.59C394.019,531.184 392.595,530.044 392.282,529.793C391.568,529.222 377.666,519.663 369.316,513.772C365.888,511.354 362.234,509.266 360.738,507.319C358.898,504.925 359.657,501.356 360.922,499.875C362.692,497.8 379.058,488.086 383.576,484.608C385.457,483.159 387.053,482.405 391.429,479.398C395.625,476.514 400.621,473.446 401.658,472.749C410.088,467.077 410.79,466.287 412.487,466.609C415.048,467.095 420.587,471.854 423.399,473.663C427.028,475.997 426.858,476.209 430.395,478.657C440.067,485.352 439.938,485.518 440.793,486.077C441.478,486.525 445.672,489.267 449.213,491.882C459.27,499.309 462.487,499.075 462.888,504.466C463.196,508.594 461.581,509.683 450.783,516.896C444.888,520.834 445.08,521.084 439.209,525.083C432.041,529.966 432.151,530.118 431.512,530.518C428.757,532.238 420.529,538.304 418.576,539.616C414.357,542.451 413.185,543.741 410.489,542.521C409.449,542.051 400.936,535.727 400.553,535.433Z" style="fill:rgb(115,53,25);"/>
                <path d="M548.291,383.79C552.945,387.105 553.196,386.711 557.766,390.127C558.565,390.724 558.617,390.628 568.205,396.943C569.17,397.578 570.191,398.251 580.354,404.738C587.871,409.537 590.871,410.286 591.082,415.501C591.257,419.833 588.068,420.961 581.621,425.679C576.692,429.286 576.489,428.958 571.597,432.633C570.869,433.181 570.785,433.049 562.252,439.149C556.379,443.348 556.438,443.408 550.448,447.42C543.18,452.288 542.263,454.811 537.266,451.898C531.926,448.785 519.239,440.576 518.688,440.208C512.111,435.816 512.213,435.695 505.402,431.668C502.068,429.697 502.227,429.478 497.427,426.615C496.75,426.211 489.754,421.596 489.548,421.438C485.71,418.485 486.627,413.562 489.475,411.471C493.48,408.528 501.861,403.08 504.297,401.225C508.837,397.768 509.149,398.258 513.783,394.902C516.033,393.272 516.224,393.572 525.746,386.858C526.745,386.154 535.363,380.55 536.202,380.004C536.767,379.637 538.783,377.644 542.403,379.687C543.983,380.579 547.83,383.447 548.291,383.79Z" style="fill:rgb(115,53,25);"/>
                <path d="M686.666,384.253C686.77,384.325 694.635,389.228 697.644,391.281C698.267,391.706 698.297,391.635 705.606,396.34C710.627,399.572 710.707,399.401 713.164,400.987C713.295,401.072 713.238,401.143 714.718,402.158C718.21,404.553 722.608,404.977 723.194,410.524C723.709,415.403 719.532,417.137 710.637,423.699C703.703,428.814 703.64,428.702 696.634,433.701C690.515,438.067 681.462,444.24 679.619,445.664C673.627,450.29 672.874,450.058 669.286,447.867C666.802,446.351 666.957,446.141 638.615,428.308C638.279,428.096 638.289,428.099 634.411,425.652C633.818,425.278 633.844,425.271 633.238,424.891C629.825,422.753 629.893,422.67 626.416,420.639C620.372,417.106 619.785,416.145 619.424,415.555C615.842,409.691 623.331,406.316 625.679,404.779C627.284,403.729 628.782,403.008 632.397,400.35C632.996,399.909 636.27,397.872 638.381,396.331C639.62,395.426 644.379,392.354 650.283,388.181C651.551,387.285 651.594,387.353 666.225,377.107C670.611,374.035 671.554,373.499 677.725,378.201C680.185,380.075 683.057,381.723 684.373,382.687C684.552,382.818 685.3,383.367 686.666,384.253Z" style="fill:rgb(115,53,25);"/>
                <path d="M459.596,488.36C455.274,485.492 455.342,485.411 448.866,481.003C443.561,477.391 443.651,477.272 443.188,476.96C427.495,466.398 423.057,464.3 422.894,460.469C422.677,455.369 427.849,452.925 429.237,452.078C437.683,446.929 448.314,439.835 449.769,438.955C463.519,430.638 471.361,424.053 473.526,423.621C476.519,423.022 480.899,427.817 488.415,432.628C492.882,435.488 501.451,442 506.25,444.888C508.143,446.027 511.213,448.426 511.443,448.579C518.943,453.567 523.48,455.644 524.329,458.552C526.022,464.351 521.26,467.001 518.661,468.748C514.164,471.771 514.326,471.993 509.713,474.85C507.923,475.958 486.405,491.135 482.466,493.448C477.228,496.525 475.905,499.66 470.381,495.676C467.528,493.619 461.515,489.739 459.596,488.36Z" style="fill:rgb(115,53,25);"/>
                <path d="M610.493,337.51C619.502,343.796 636.077,354.138 638.373,355.696C639.912,356.741 644.337,359.409 646.334,360.765C650.615,363.67 654.638,364.266 655.119,369.518C655.576,374.519 650.377,377.091 647.845,378.933C640.917,383.972 636.651,386.418 629.593,391.635C627.289,393.339 627.101,393.073 623.686,395.737C622.307,396.812 614.807,401.853 613.688,402.752C611.628,404.406 607.113,407.727 605.512,407.774C603.175,407.842 594.403,401.196 592.26,399.861C587.387,396.827 587.339,396.933 583.605,394.333C582.95,393.876 582.896,393.965 575.25,388.869C571.55,386.404 571.436,386.605 567.746,384.123C563.031,380.952 563.12,380.837 558.256,377.925C557.175,377.278 551.882,375.056 553.637,369.545C554.857,365.713 558.018,365.396 567.605,358.658C568.077,358.326 568.174,358.483 573.651,354.737C574.275,354.31 574.288,354.349 581.564,349.594C600.128,337.462 601.112,336.26 602.539,335.569C605.393,334.187 606.03,334.367 610.493,337.51Z" style="fill:rgb(115,53,25);"/>
                <path d="M376.55,529.436C382.07,533.711 395.327,542.075 396.498,543.502C398.174,545.545 398.646,549.635 396.272,552.302C393.871,554.998 384.492,560.553 377.664,565.729C376.088,566.923 370.914,570.043 362.258,576.146C360.642,577.285 357.694,579.051 355.615,580.66C349.361,585.497 348.414,583.186 342.272,578.824C341.893,578.555 339.262,576.687 337.468,575.545C336.859,575.158 328.665,569.169 318.758,562.135C315.928,560.126 312.278,556.993 309.552,555.419C309.012,555.108 308.275,554.682 303.224,550.886C298.657,547.454 299.563,542.58 302.663,539.691C304.473,538.005 315.255,531.797 317.38,530.323C318.427,529.598 329.212,522.766 330.243,522.113C336.35,518.244 336.383,518.33 342.335,514.26C348.207,510.243 348.884,509.161 352.819,512.068C358.515,516.276 358.349,516.472 362.56,519.419C369.611,524.353 369.584,524.366 376.55,529.436Z" style="fill:rgb(115,53,25);"/>
                <path d="M482.248,523.87C490.3,529.544 492.334,530.585 499.295,535.78C504.433,539.614 504.673,539.243 509.775,543.146C510.018,543.332 514.891,546.439 515.142,546.81C515.911,547.945 514.485,549.165 514.326,549.301C513.493,550.013 485.139,568.461 484.202,569.029C480.116,571.503 479.525,572.084 475.69,569.235C474.264,568.176 474.051,568.484 457.588,556.371C451.412,551.827 441.642,545.242 441.382,544.579C440.643,542.697 442.16,542.203 446.381,539.321C452.237,535.323 458.531,531.336 459.598,530.659C461.906,529.197 461.746,528.991 465.588,526.635C474.291,521.297 474.946,518.606 479.3,521.783C480.778,522.861 480.757,522.849 482.248,523.87Z" style="fill:rgb(224,175,135);"/>
                <path d="M616.677,436.24C618.819,437.787 634.213,447.524 640.316,451.779C643.199,453.79 645.391,454.476 642.511,456.513C631.071,464.604 630.819,464.2 619.261,472.155C618.38,472.762 612.989,476.071 612.441,476.408C608.686,478.713 608.236,479.833 604.621,477.322C601.824,475.379 601.451,475.427 593.347,469.732C589.819,467.252 589.716,467.443 586.224,464.875C583.017,462.516 574.661,456.95 573.647,456.274C571.285,454.701 568.594,453.571 570.698,451.727C571.718,450.833 579.538,445.718 580.316,445.21C582.006,444.104 593.266,436.74 601.362,431.282C604.786,428.973 605.503,428.765 608.34,430.738C611.059,432.63 614.534,434.735 616.677,436.24Z" style="fill:rgb(224,175,135);"/>
                <path d="M569.539,495.444C571.661,496.915 573.25,497.77 576.636,500.332C579.917,502.814 576.98,503.313 573.685,505.77C570.293,508.301 560.572,514.12 555.192,518.072C553.505,519.311 549.968,521.247 549.501,521.502C545.085,523.919 544.79,526.123 540.654,523.272C538.723,521.94 535.789,520.066 533.587,518.382C531.676,516.919 527.049,513.903 523.616,511.325C521.944,510.069 514.366,505.118 507.792,500.108C507.223,499.675 507.219,499.705 506.645,499.284C504.236,497.517 505.396,496.707 507.835,494.988C508.686,494.388 508.775,494.532 518.65,487.738C523.392,484.476 531.097,479.696 532.192,479.016C532.532,478.806 532.452,478.691 536.327,476.205C540.653,473.429 542.194,476.828 546.546,479.426C547.018,479.708 567.236,493.758 569.539,495.444Z" style="fill:rgb(224,175,135);"/>
                <path d="M413.666,611.269C413.602,611.224 379.662,586.751 378.835,585.303C378.791,585.226 378.876,583.981 378.935,583.887C379.122,583.589 386.287,578.876 387.761,577.945C401.387,569.345 401.331,569.271 402.556,568.592C405.722,566.839 409.724,563.617 411.466,563.864C412.134,563.958 412.8,564.052 418.647,568.289C443.012,585.945 443.169,585.725 444.812,587.124C448.689,590.425 451.417,591.128 451.076,592.469C450.659,594.112 450.152,593.753 446.358,596.277C438.494,601.508 438.318,601.207 430.388,606.323C424.222,610.3 423.066,610.976 422.414,611.356C418.571,613.601 417.976,614.439 413.666,611.269Z" style="fill:rgb(224,175,135);"/>
                <path d="M441.325,494.725C446.839,498.776 449.303,499.504 448.725,501.611C448.553,502.238 445.396,503.874 442.727,505.812C442.155,506.227 433.178,511.94 430.617,513.686C428.636,515.037 426.006,516.455 422.669,518.771C422.206,519.093 416.544,522.498 415.599,522.781C413.318,523.464 411.408,521.856 405.439,517.584C404.735,517.081 397.146,511.651 396.647,511.287C396.143,510.919 390.583,507.215 386.663,504.284C385.8,503.638 378.404,498.433 378.214,497.614C377.891,496.221 378.214,496.195 379.36,495.32C383.18,492.402 383.387,492.722 391.339,487.248C395.265,484.545 396.916,483.931 407.598,476.655C411.731,473.839 412.777,474.769 415.542,476.437C416.187,476.827 416.034,477.037 423.188,481.939C427.549,484.928 427.409,485.102 431.805,488.053C432.577,488.572 438.235,492.372 441.325,494.725Z" style="fill:rgb(224,175,135);"/>
                <path d="M552.391,394.669C552.839,394.961 558.203,398.659 559.545,399.43C560.259,399.84 560.089,400.083 568.223,404.963C569.844,405.935 572.014,407.508 572.336,407.741C573.817,408.814 576.502,410.049 576.477,411.499C576.456,412.724 576.101,412.702 565.545,419.565C564.037,420.545 563.998,420.478 546.64,431.731C546.337,431.927 543.972,433.461 542.502,433.532C540.614,433.624 539.961,432.717 526.75,424.108C525.066,423.011 506.204,410.721 505.823,410.215C505.745,410.112 505.202,409.392 505.678,408.605C506.344,407.503 530.984,391.672 534.343,389.269C539.437,385.625 540.153,386.922 543.728,389.146C544.425,389.58 549.463,392.715 552.391,394.669Z" style="fill:rgb(224,175,135);"/>
                <path d="M658.269,418.843C656.265,417.569 652.496,415.314 650.289,413.797C646.242,411.015 644.859,410.413 641.306,407.782C638.833,405.952 638.653,406.062 638.542,405.482C638.232,403.871 638.838,404.014 640.177,403.056C640.89,402.546 640.767,402.402 643.577,400.624C644.519,400.028 644.492,400.011 645.432,399.399C649.578,396.699 660.463,389.258 662.276,388.133C669.584,383.599 670.45,381.286 674.635,384.306C680.161,388.293 680.261,388.129 689.679,394.204C697.633,399.334 697.664,399.28 698.35,399.735C708,406.141 708.928,405.818 708.672,407.541C708.499,408.7 703.399,411.597 702.392,412.345C700.213,413.964 687.339,422.158 686.577,422.629C679.334,427.114 676.572,429.664 673.474,428.569C671.169,427.755 658.515,419.022 658.269,418.843Z" style="fill:rgb(224,175,135);"/>
                <path d="M448.509,459.488C446.888,458.284 444.401,456.766 441.409,454.598C441.275,454.501 440.234,453.747 440.744,452.642C440.935,452.228 443.985,450.316 444.279,450.131C450.319,446.343 450.232,446.221 450.761,445.9C458.874,440.975 471.135,432.513 473.573,431.955C474.243,431.801 475.374,431.542 481.227,435.869C486.153,439.511 486.3,439.262 491.279,442.817C495.16,445.589 507.796,454.015 508.217,454.698C508.292,454.821 508.259,456.041 508.152,456.248C507.959,456.623 503.597,459.748 500.598,461.652C494.271,465.667 493.501,466.522 491.599,467.657C484.447,471.928 478.716,476.536 476.416,477.17C475.532,477.413 474.313,477.748 466.346,471.702C463.772,469.749 459.038,466.909 456.682,465.235C449.177,459.902 449.15,459.965 448.509,459.488Z" style="fill:rgb(224,175,135);"/>
                <path d="M592.442,378.585C588.707,375.907 577.978,369.214 574.376,366.689C572.532,365.398 571.454,365.467 572.429,363.447C572.65,362.989 576.868,360.373 577.267,360.125C577.807,359.79 584.777,355.409 585.216,355.098C588.71,352.627 588.836,352.842 593.641,349.722C603.114,343.57 604.553,341.815 607.818,344.016C608.692,344.605 612.07,346.772 612.69,347.208C616.185,349.663 631.673,359.534 632.674,360.232C635.265,362.04 635.289,361.969 639.447,364.569C639.645,364.693 641.715,365.987 639.487,367.484C637.844,368.587 637.957,368.732 636.539,369.56C631.841,372.305 613.978,384.749 608.631,386.81C605.129,388.16 604.049,386.006 592.442,378.585Z" style="fill:rgb(224,175,135);"/>
                <path d="M372.83,535.061C377.792,538.627 377.815,538.573 382.751,542.173C385.874,544.45 383.052,545.299 379.654,547.722C379.527,547.813 374.101,551.171 370.6,553.645C369.761,554.238 364.333,557.418 362.622,558.676C361.317,559.635 354.256,564.082 352.491,564.286C350.596,564.505 342.905,558.127 341.175,556.955C335.206,552.912 335.352,552.735 329.424,548.605C324.165,544.941 324.423,544.627 319.214,540.872C317.913,539.933 317.364,540.096 317.548,538.512C317.65,537.64 317.957,537.829 320.735,535.837C322.97,534.233 328.772,530.971 331.321,529.231C333.187,527.956 340.234,523.791 342.365,522.299C344.246,520.983 347.692,519.045 348.551,518.877C350.602,518.476 357.08,524.018 368.78,532.109C370.842,533.535 370.809,533.543 372.83,535.061Z" style="fill:rgb(224,175,135);"/>
                <path d="M384.657,604.296C381.333,602.032 377.305,598.901 376.569,598.403C376.001,598.019 370.671,594.417 369.652,593.345C367.509,591.09 369.957,589.624 370.464,589.425C372.684,588.553 374.957,590.692 375.216,590.875C378.382,593.111 378.395,593.09 378.657,593.302C381.145,595.309 381.182,595.222 383.759,597.149C393.342,604.31 393.376,604.247 394.187,604.897C396.694,606.908 396.761,606.779 399.335,608.709C401.554,610.372 413.376,619.509 413.433,619.57C415.796,622.129 414.64,626.204 411.4,623.645C407.936,620.91 405.407,619.443 404.376,618.676C399.476,615.035 386.053,605.366 384.657,604.296Z" style="fill:rgb(224,175,135);"/>
                <path d="M644.446,424.579C640.598,421.869 639.916,421.85 638.31,420.804C629.941,415.354 629.917,415.406 629.207,414.907C628.966,414.738 626.71,413.153 628.294,411.34C631.441,407.738 635.161,412.008 639.404,414.655C640.477,415.324 648.382,420.256 652.638,423.3C660.338,428.806 665.482,431.327 669.455,434.559C672.552,437.077 671.925,439.964 671.406,440.406C670.544,441.14 669.681,440.488 665.326,437.783C664.684,437.384 658.091,433.288 657.324,432.761C651.035,428.437 650.798,428.828 644.446,424.579Z" style="fill:rgb(224,175,135);"/>
                <path d="M605.071,487.516C605.005,487.828 605.145,488.16 605.08,488.471C604.407,491.684 601.388,488.667 599.456,487.57C596.924,486.132 591.456,482.552 590.769,482.102C587.703,480.095 573.367,470.234 570.44,468.596C569.974,468.335 570.01,468.289 564.816,465.015C564.571,464.861 562.592,463.268 561.5,462.5C558.168,460.156 561.806,456.268 564.667,458.213C568.809,461.03 568.691,461.188 572.551,463.422C574.296,464.432 576.623,466.634 582.596,470.343C584.396,471.461 586.347,473.106 588.545,474.433C588.777,474.573 592.559,477.176 593.332,477.755C593.971,478.234 593.994,478.19 601.603,483.343C602.2,483.748 602.187,483.725 602.758,484.131C604.064,485.06 604.384,484.844 604.859,486.389C604.971,486.754 604.958,487.151 605.071,487.516Z" style="fill:rgb(224,175,135);"/>
                <path d="M529.377,529.679C526.101,527.218 524.404,526.255 522.35,524.712C517.782,521.283 515.313,519.752 514.176,518.958C506.027,513.261 506.016,513.288 505.32,512.777C501.322,509.841 496.688,507.311 495.899,505.382C495.389,504.135 496.683,503.059 496.845,502.924C499.789,500.473 502.921,505.108 508.409,508.637C511.453,510.594 511.438,510.579 514.315,512.76C517.44,515.128 530.688,524.512 531.211,524.913C533.637,526.776 536.596,528.274 539.294,530.752C541.347,532.638 541.311,537.771 537.349,534.708C535.176,533.028 534.999,533.317 529.377,529.679Z" style="fill:rgb(224,175,135);"/>
                <path d="M534.386,442.669C532.303,441.206 528.138,438.968 526.353,437.714C523.572,435.76 521.214,434.366 520.755,434.095C520.15,433.738 505.923,424.915 504.322,423.742C500.954,421.274 500.509,421.268 496.478,418.527C493.724,416.655 496.525,414.395 497.636,413.973C498.216,413.752 499.227,413.368 504.675,417.229C509.334,420.532 515.678,424.5 516.186,424.888C519.698,427.576 536.606,438.094 538.341,439.683C540.06,441.257 539.895,444.53 538.549,444.707C537.837,444.801 536.451,443.965 536.285,443.865C535.32,443.284 535.344,443.273 534.386,442.669Z" style="fill:rgb(224,175,135);"/>
                <path d="M465.702,576.227C459.976,571.712 459.6,572.246 456.376,569.661C452.393,566.469 444.385,561.798 438.714,557.232C435.013,554.252 433.161,553.238 432.849,553.015C429.389,550.549 432.727,546.921 436.215,548.994C436.937,549.424 443.05,553.863 443.641,554.291C458.108,564.795 458.076,564.835 459.335,565.746C466.787,571.139 466.769,571.151 467.423,571.61C475.47,577.253 476.45,577.636 475.958,580.601C475.586,582.84 474.581,582.524 472.777,581.138C469.35,578.506 469.134,578.84 465.702,576.227Z" style="fill:rgb(224,175,135);"/>
                <path d="M588.682,390.252C586.337,388.566 571.362,379.188 569.323,377.75C565.725,375.213 559.863,372.945 562.282,370.316C564.944,367.422 568.543,370.282 568.612,370.33C576.807,375.998 576.845,375.931 577.551,376.432C586.725,382.946 586.82,382.776 587.589,383.378C589.381,384.778 594.341,387.892 594.73,388.15C602.809,393.525 602.931,393.502 603.368,394.561C604.723,397.845 603.723,400.084 600.829,398.004C598.281,396.171 590.431,391.509 588.682,390.252Z" style="fill:rgb(224,175,135);"/>
                <path d="M377.26,511.845C371.807,507.657 365.465,505.12 369.211,502.125C371.236,500.504 372.905,502.314 377.417,505.608C387.894,513.255 390.268,514.627 392.111,515.999C408.477,528.18 408.825,527.691 410.08,528.942C411.505,530.363 412.531,536.116 408.562,533.408C404.903,530.912 404.701,531.242 401.377,528.668C398.783,526.66 394.898,524.206 394.305,523.77C392.987,522.802 389.482,520.596 388.356,519.696C385.889,517.721 385.879,517.768 377.26,511.845Z" style="fill:rgb(224,175,135);"/>
                <path d="M470.8,483.123C471.234,483.525 472.798,484.254 472.903,486.489C473.038,489.33 471.586,489.456 469.336,487.735C468.03,486.736 464.465,484.586 462.697,483.242C461.141,482.059 461.085,482.167 442.674,469.236C437.713,465.751 433.326,463.019 432.498,462.503C429.429,460.592 431.797,455.452 436.818,459.007C439.773,461.099 439.633,461.257 442.665,463.228C444.004,464.099 469.005,481.722 470.8,483.123Z" style="fill:rgb(224,175,135);"/>
                <path d="M348.554,570.448C348.752,570.855 349.106,571.174 349.304,571.582C349.688,572.373 349.796,574.574 348.697,574.967C347.279,575.474 347.383,574.595 327.817,561.079C327.121,560.598 327.237,560.454 319.228,554.915C318.807,554.624 308.686,547.961 308.246,546.614C307.545,544.469 309.964,542.207 312.404,543.66C313.388,544.246 323.315,552.113 324.774,553.112C328.67,555.777 328.664,555.762 332.373,558.668C337.639,562.793 345.751,567.957 348.554,570.448Z" style="fill:rgb(224,175,135);"/>
                <path d="M489.574,476.61C494.38,473.256 494.342,473.22 494.765,472.938C497.553,471.082 497.486,471.018 500.36,469.26C506.88,465.271 506.748,465.096 513.227,461.012C513.421,460.89 515.244,459.742 516.091,460.856C517.652,462.909 511.557,466.113 507.308,469.208C503.559,471.938 498.104,475.546 496.619,476.664C494.5,478.26 491.749,480.04 491.368,480.306C487.145,483.25 487.162,483.25 482.38,486.317C478.629,488.723 478.322,485.128 479.668,483.648C480.322,482.929 480.339,482.945 489.574,476.61Z" style="fill:rgb(224,175,135);"/>
                <path d="M622.506,389.507C620.537,391.052 618.778,392.195 618.443,392.413C614.778,394.795 610.972,398.608 609.693,397.331C609.468,397.107 608.86,395.473 610.623,393.623C612.43,391.726 621.106,387.263 628.65,381.726C629.724,380.938 629.806,381.098 642.546,372.565C643.664,371.816 646.35,369.627 646.996,371.24C647.439,372.345 647.144,372.41 646.203,373.159C644.859,374.229 643.305,374.955 636.63,379.676C631.974,382.969 631.892,382.811 627.259,386.165C625.659,387.323 624.323,388.132 622.506,389.507Z" style="fill:rgb(224,175,135);"/>
                <path d="M616.483,481.472C617.414,480.848 620.113,479.107 625.382,475.33C628.616,473.012 629.797,472.446 630.709,471.818C631.806,471.063 643.912,462.728 644.45,462.421C646.845,461.058 649.106,458.69 650.158,459.795C651.53,461.238 647.883,463.138 645.627,464.691C638.487,469.603 638.475,469.562 637.857,469.992C635.24,471.813 635.422,472.034 629.664,475.743C627.526,477.12 625.757,478.494 625.577,478.605C623.264,480.03 619.826,482.674 618.504,483.506C617.63,484.056 612.36,488.059 612.316,488.065C612.131,488.089 610.235,488.337 610.579,486.513C610.845,485.107 612.648,483.995 616.483,481.472Z" style="fill:rgb(224,175,135);"/>
                <path d="M686.672,429.774C686.971,429.582 689.595,427.896 690.429,427.388C695.477,424.31 697.041,422.802 702.435,419.398C713.824,412.211 713.953,411.436 714.744,412.174C715.349,412.738 715.234,412.852 714.899,413.617C714.582,414.34 712.838,415.534 712.636,415.672C703.352,422.027 703.411,422.103 702.569,422.599C701.63,423.151 698.586,425.293 698.433,425.406C696.984,426.477 691.476,430.231 691.366,430.315C689.792,431.521 681.108,437.524 680.723,437.82C680.518,437.978 678.411,439.596 677.549,438.469C676.794,437.482 678.246,435.612 678.401,435.411C678.892,434.779 678.957,434.695 686.672,429.774Z" style="fill:rgb(224,175,135);"/>
                <path d="M487.615,577.664C484.899,579.588 483.444,580.574 482.618,580.202C481.796,579.831 482.194,578.534 482.238,578.393C482.477,577.61 485.815,575.625 489.294,573.18C495.973,568.485 510.928,558.836 517.369,554.302C517.604,554.136 519.723,552.645 520.498,552.528C520.711,552.496 523.177,552.813 520.238,555.206C519.437,555.859 514.251,559.447 513.727,559.81C508.689,563.295 507.256,563.919 504.294,566.211C502.332,567.729 490.563,575.472 487.615,577.664Z" style="fill:rgb(224,175,135);"/>
                <path d="M418.618,528.66C426.872,523.081 426.946,523.217 427.658,522.726C430.819,520.546 435.554,517.536 436.247,517.095C453.339,506.229 454.304,504.168 455.205,506.526C455.582,507.511 450.939,510.289 448.686,511.774C446.93,512.932 442.416,516.175 441.588,516.637C440.012,517.516 440.109,517.64 438.606,518.645C437.646,519.287 436.922,519.772 426.682,526.777C418.874,532.118 418.423,532.574 417.66,532.141C416.208,531.318 417.484,529.739 417.613,529.579C417.898,529.226 418.333,529.013 418.618,528.66Z" style="fill:rgb(224,175,135);"/>
                <path d="M548.595,441.633C548.177,441.809 547.874,442.199 547.457,442.375C547.302,442.44 545.686,443.121 545.549,441.491C545.445,440.258 546.106,439.471 554.678,433.774C557.111,432.157 564.708,427.198 565.581,426.628C577.222,419.029 577.325,418.952 578.3,418.22C578.542,418.039 580.942,416.239 581.475,416.179C583.303,415.974 583.572,417.013 582.281,418.304C581.435,419.15 563.568,431.062 560.398,433.351C559.549,433.964 557.825,434.852 555.622,436.645C552.283,439.362 551.956,438.898 548.595,441.633Z" style="fill:rgb(224,175,135);"/>
                <path d="M551.683,527.778C564.352,519.162 564.305,519.101 565.457,518.432C565.86,518.197 566.151,518.028 570.267,515.129C574.917,511.853 575.068,512.092 579.62,508.68C579.877,508.487 582.677,506.388 583.469,507.519C584.312,508.723 581.208,510.489 580.724,510.816C576.898,513.396 576.943,513.45 576.609,513.672C570.721,517.593 566.701,520.699 566.201,521.006C562.749,523.124 562.819,523.205 559.552,525.577C558.724,526.177 552.507,530.469 552.488,530.481C548.815,532.776 547.596,534.808 546.257,533.719C544.595,532.367 549,529.643 551.683,527.778Z" style="fill:rgb(224,175,135);"/>
                <path d="M424.44,617.403C433.4,611.529 433.48,611.659 434.252,611.138C442.949,605.272 443.006,605.387 443.743,604.853C448.127,601.676 448.375,602.071 452.724,598.815C452.986,598.62 457.412,595.307 456.801,598.598C456.699,599.147 455.034,599.888 453.323,601.294C451.386,602.884 449.844,603.308 447.313,605.271C445.82,606.429 440.816,609.726 440.244,610.103C439.319,610.713 431.955,615.565 428.737,617.816C422.863,621.923 422.909,621.973 422.386,622.311C420.17,623.743 420.176,621.717 420.177,621.53C420.182,619.756 424.03,617.671 424.44,617.403Z" style="fill:rgb(224,175,135);"/>
                <path d="M359.274,571.156C358.638,571.53 358.111,572.071 357.475,572.445C354.939,573.936 355.363,571.659 355.397,571.478C355.581,570.488 359.905,567.534 360.334,567.241C360.537,567.103 374.44,558.154 380.26,554.139C381.735,553.122 381.764,553.191 383.232,552.168C384.661,551.171 389.087,547.441 390.08,548.817C390.972,550.055 388.822,551.034 383.215,555.08C382.513,555.586 382.488,555.521 374.289,561.182C373.852,561.483 373.758,561.328 368.728,564.8C364.023,568.048 363.865,567.781 359.274,571.156Z" style="fill:rgb(224,175,135);"/>
            </g>
        </g>
    </g>
</svg>
