<?xml version="1.0" encoding="UTF-8" standalone="no"?>
<!DOCTYPE svg PUBLIC "-//W3C//DTD SVG 1.1//EN" "http://www.w3.org/Graphics/SVG/1.1/DTD/svg11.dtd">
<svg width="100%" height="100%" viewBox="0 0 471 605" version="1.1" xmlns="http://www.w3.org/2000/svg" xmlns:xlink="http://www.w3.org/1999/xlink" xml:space="preserve" xmlns:serif="http://www.serif.com/" style="fill-rule:evenodd;clip-rule:evenodd;stroke-linejoin:round;stroke-miterlimit:2;">
    <g transform="matrix(1,0,0,1,-8032.6572,-8724.708754)">
        <g transform="matrix(1.276754,0,0,2.756375,-2113.766445,-6854.068498)">
            <g id="Fondo" transform="matrix(1.272325,0,0,0.589341,7479.455899,5453.530841)">
                <path d="M383.918,604.405C382.218,596.945 382.427,596.917 380.965,589.407C378.274,575.584 378.087,575.635 377.877,574.43C376.136,564.438 375.081,564.502 375.744,556.519C376.456,547.938 378.84,547.64 376.886,545.206C374.631,542.397 374.854,542.256 372.668,539.379C368.621,534.053 367.35,525.695 367.526,521.501C368.044,509.106 374.265,500.62 375.505,498.504C376.883,496.154 382.573,489.358 385.745,486.812C388.327,484.739 387.1,484.132 386.935,480.476C386.085,461.632 400.515,449.82 402.724,447.731C409.953,440.892 420.199,435.54 422.479,434.46C426.408,432.599 425.466,430.818 425.891,428.575C427.44,420.386 430.34,417.473 431.549,415.534C435.601,409.035 444.101,401.355 447.186,399.072C453.353,394.507 453.785,393.765 463.3,389.082C470.204,385.685 470.72,386.547 471.513,385.509C472.147,384.68 470.932,383.09 470.088,376.553C468.796,366.539 472.418,355.365 480.298,347.306C485.286,342.205 490.277,340.298 491.599,339.741C506.758,333.349 524.086,338.529 526.633,339.668C529.066,340.756 538.854,345.459 543.502,352.499C545.522,355.56 553.294,366.399 547.689,383.564C546.982,385.729 547.374,386.102 549.441,386.701C560.091,389.784 566.841,391.83 574.455,397.559C580.296,401.953 582.961,407.479 583.572,409.476C586.537,419.162 582.894,421.483 584.802,423.109C585.851,424.004 597.245,426.116 607.754,433.121C608.377,433.537 611.892,435.88 615.086,438.936C621.756,445.32 624.892,452.644 625.49,454.503C628.644,464.301 627.795,467.975 627.864,469.499C627.993,472.315 629.172,471.645 634.323,474.786C638.424,477.287 643.997,482.32 646.536,485.469C652.672,493.079 654.25,498.021 655.751,503.434C658.731,514.181 655.918,527.187 651.944,533.76C650.257,536.55 647.893,540.867 642.189,546.166C639.662,548.515 638.382,548.551 638.758,551.464C638.847,552.16 638.968,552.851 639.053,553.548C640.259,563.506 638.309,564.837 637.241,571.455C635.785,580.472 633.849,588.156 632.667,594.532C629.626,610.944 627.26,620.985 626.825,623.561C626.036,628.239 622.305,646.224 621.674,649.533C617.337,672.265 615.28,680.831 614.631,683.532C613.023,690.229 612.108,690.117 605.609,692.769C604.344,693.286 601.288,694.533 589.388,698.151C573.007,703.132 550.783,706.188 550.465,706.224C532.962,708.238 509.053,709.808 478.526,707.24C466.237,706.206 445.291,702.487 431.449,698.675C422.956,696.336 409.229,691.905 404.422,689.653C400.065,687.613 399.558,679.951 398.161,673.576C397.013,668.341 395.058,658.451 394.612,656.473C392.476,646.987 390.448,635.21 389.521,631.495C388.648,627.999 386.849,617.723 383.918,604.405Z" style="fill:rgb(31,27,13);"/>
                <path d="M438.759,505.592C438.758,505.225 439.024,504.89 439.023,504.523C439.012,501.327 435.347,502.106 422.435,498.765C415.134,496.876 414.587,497.348 405.441,493.651C402.1,492.301 398.628,491.15 395.038,486.865C394.289,485.972 393.133,485.561 392.865,478.489C392.239,461.99 409.546,449.591 411.27,448.197C415.143,445.066 417.125,444.35 420.292,442.188C426.537,437.925 427.485,439.779 428.22,440.717C428.813,441.475 431.623,445.787 440.577,449.3C450.755,453.293 464.331,455.493 466.437,455.835C467.251,455.966 470.668,456.959 472.188,455.225C472.422,454.958 474.336,452.01 470.431,450.756C470.085,450.645 456.734,448.902 443.608,444.201C433.105,440.44 432.072,435.643 431.814,434.446C430.137,426.656 435.642,414.969 453.357,401.297C453.656,401.066 463.036,394.241 470.415,392.237C472.957,391.546 474.294,390.721 475.527,392.478C479.544,398.197 482.655,400.051 486.374,402.695C490.714,405.779 496.311,406.611 501.468,407.662C505.125,408.408 514.526,408.607 520.401,407.127C524.892,405.995 529.82,404.781 538.089,398.044C539.195,397.143 542.046,393.778 542.373,393.392C543.338,392.254 543.828,390.995 546.431,391.756C555.981,394.547 556.545,394.665 564.629,398.254C568.262,399.867 574.73,404.137 577.735,410.382C577.819,410.556 581.92,418.608 575.386,426.405C571.303,431.277 570.94,430.895 566.178,435.121C566.093,435.197 563.945,436.653 564.371,438.536C564.525,439.217 565.918,441.315 568.691,439.901C569.411,439.534 571.451,438.493 576.541,433.543C577.061,433.037 577.043,433.05 577.541,432.539C580.477,429.529 580.471,428.369 583.573,429.179C590.172,430.904 590.123,431.032 596.452,433.615C600.508,435.27 606.584,439.058 609.367,441.649C613.748,445.726 615.078,447.898 615.461,448.525C615.908,449.255 621.073,455.216 622.136,465.537C623.106,474.967 618.629,479.816 617.77,480.746C617.138,481.43 615.664,482.857 616.16,484.622C616.447,485.643 618.107,486.558 619.375,486.1C621.163,485.455 623.169,482.8 623.432,482.452C625.655,479.51 625.617,478.503 626.304,478.176C627.487,477.612 628.166,478.123 630.529,479.452C633.655,481.211 640.787,487.278 643.514,491.49C644.918,493.658 656.215,507.756 648.064,528.315C647.031,530.919 642.841,537.893 636.444,543.434C622.074,555.879 591.386,561.048 578.493,561.192C576.733,561.212 566.088,561.331 556.591,559.1C550.507,557.671 550.293,556.092 546.352,558.231C542.345,560.405 537.786,561.666 537.57,561.727C534.3,562.654 520.156,568.293 500.463,565.763C499.152,565.595 494.912,565.05 484.476,561.568C478.129,559.451 473.97,556.001 471.466,556.224C468.287,556.506 464.141,560.447 447.561,562.925C445.747,563.196 436.184,565.169 419.574,562.087C418.161,561.825 411.704,560.626 402.52,556.456C391.387,551.4 369.455,536.753 373.963,516.587C376.383,505.765 382.306,498.656 386.325,494.336C389.456,490.969 390.207,490.581 392.418,492.594C401.482,500.842 418.083,503.583 430.473,506.613C436.463,508.077 437.362,507.307 437.808,506.924C438.611,506.236 438.68,505.704 438.759,505.592Z" style="fill:rgb(252,245,236);"/>
                <path d="M454.136,617.538C455.572,630.547 459.378,674.344 459.657,675.456C460.472,678.697 465.271,679.101 464.516,673.498C463.888,668.846 462.67,653.442 460.853,636.463C457.356,603.775 457.346,603.777 457.237,602.525C456.935,599.025 456.446,597.432 457.539,596.558C458.747,595.593 463.7,597.184 481.5,597.185C485.441,597.186 486.879,596.58 487.088,600.513C487.785,613.618 487.922,617.962 487.97,619.48C488.08,622.985 488.703,628.031 488.934,634.479C489.06,638.015 490.325,657.501 490.455,659.502C491.493,675.511 490.814,678.262 492.618,679.304C493.76,679.963 496.535,679.778 496.436,676.501C496.286,671.551 492.934,626.984 492.059,606.519C491.721,598.597 490.94,598.014 492.448,597.4C494.157,596.704 494.255,597.513 515.501,596.527C521.187,596.263 522.701,595.818 522.873,598.475C523.047,601.185 522.562,605.558 522.042,632.488C521.733,648.506 521.485,648.485 521.217,664.495C521.011,676.817 520.823,678.461 522.677,679.099C526.074,680.266 526.19,675.894 526.201,675.491C526.353,669.733 525.978,669.732 527.491,603.5C527.604,598.582 526.986,596.178 529.552,595.822C530.821,595.646 530.842,595.936 545.514,594.675C550.028,594.287 551.377,593.952 551.471,593.97C551.626,594 552.732,594.211 552.758,595.468C552.771,596.071 551.679,608.383 551.58,609.506C549.929,628.133 548.619,650.82 547.367,662.487C547.13,664.702 547.062,668.67 546.671,671.521C546.663,671.581 544.999,678.142 548.507,678.438C551.73,678.709 551.539,674.536 551.925,666.528C552.06,663.721 552.218,663.735 554.7,631.512C554.915,628.71 554.817,628.724 557.255,596.482C557.41,594.435 557.403,593.252 559.557,592.865C560.748,592.651 560.774,592.899 574.549,590.844C587.024,588.983 587.759,588.05 588.34,589.561C588.717,590.541 587.343,597.93 586.179,609.463C585.37,617.479 579.339,665.49 579.364,666.501C579.449,669.862 583.305,670.816 584.329,666.47C584.401,666.163 587.974,634.682 589.084,626.446C589.463,623.633 592.343,597.988 592.621,595.513C593.079,591.44 592.697,588.213 595.38,587.2C600.712,585.187 603.319,586.071 618.55,580.649C619.831,580.193 625.721,578.262 627.456,577.385C628.441,576.887 628.389,576.388 629.419,576.805C629.605,576.88 629.666,577.123 629.812,577.261C629.926,577.369 630.174,577.382 630.194,577.538C630.199,577.577 628.772,583.688 628.104,587.43C627.568,590.429 624.565,605.85 624.253,607.451C622.584,616.02 622.414,615.968 620.685,624.539C619.733,629.256 618.158,637.652 615.803,648.565C614.92,652.66 609.83,682.169 608.101,684.188C607.602,684.77 606.73,685.788 599.431,688.299C599.028,688.438 584.092,693.238 582.531,693.627C576.247,695.192 556.313,699.475 543.515,700.672C525.393,702.365 500.031,704.237 464.564,699.044C463.661,698.911 444.814,695.413 439.598,694.119C428.066,691.26 409.243,685.693 406.8,683.231C405.26,681.679 404.075,671.409 401.423,660.518C400.139,655.246 396.971,637.636 395.486,631.503C395.095,629.887 391.258,610.224 388.087,595.589C386.461,588.084 386.685,588.055 385.098,580.544C384.835,579.302 384.567,579.289 384.868,578.625C385.338,577.588 387.252,578.558 387.435,578.651C391.416,580.668 394.984,582.922 403.433,585.689C406.382,586.655 407.131,587.328 414.544,589.337C417.787,590.215 418.48,590.112 418.868,593.45C419.911,602.419 423.339,628.784 424.188,636.543C424.276,637.342 424.48,637.297 425.711,646.474C425.95,648.256 425.815,648.266 427.127,657.549C427.788,662.225 427.358,667.15 430.51,667.244C433.454,667.331 433.075,663.91 433.036,663.555C432.491,658.632 428.914,636.214 428.221,629.533C427.677,624.294 423.162,594.275 423.559,592.519C423.815,591.389 425.307,591.647 425.472,591.675C433.212,593.014 433.094,593.734 444.453,594.972C444.932,595.025 450.07,595.585 450.427,595.747C452.656,596.758 451.673,597.578 454.136,617.538Z" style="fill:rgb(252,216,71);"/>
                <path d="M559.452,587.117C554.456,587.615 554.495,587.792 549.472,588.206C546.076,588.485 540.041,589.246 529.53,589.876C519.242,590.494 505.141,591.864 471.51,591.189C468.358,591.125 450.605,590.07 441.459,588.798C431.099,587.357 417.048,584.341 410.677,582.036C409.71,581.686 396.209,577.421 386.409,571.659C385.113,570.897 381.934,569.541 381.381,561.508C381.346,560.991 380.811,548.795 384.66,552.279C388.803,556.029 402.357,564.528 416.529,567.369C420.43,568.151 436.628,572.086 459.503,566.513C469.847,563.993 470.662,561.41 473.708,563.055C481.023,567.005 493.305,571.451 505.476,571.953C519.665,572.539 526.149,571.141 539.427,567.277C546.477,565.226 548.193,562.595 551.502,563.494C553.641,564.075 556.688,565.454 568.496,566.545C584.062,567.983 597.761,565.445 616.382,560.108C617.478,559.794 626.972,556.396 629.692,554.89C629.907,554.771 631.93,553.651 632.488,553.6C633.59,553.498 633.646,555.305 633.652,555.482C633.737,558.229 633.357,565.986 631.457,568.464C628.804,571.924 609.944,577.694 599.417,580.109C595.831,580.931 585.761,583.591 575.553,584.859C572.479,585.241 568.836,585.984 559.452,587.117Z" style="fill:rgb(245,155,53);"/>
                <path d="M477.764,361.606C481.022,353.291 485.654,350.016 489.356,347.287C499.458,339.838 514.127,342.599 515.265,342.756C519.367,343.321 524.478,345.055 527.412,346.451C530.497,347.92 536.151,352.07 538.485,355.51C544.158,363.872 543.976,367.453 543.222,377.457C542.982,380.637 539.591,388.883 536.167,392.179C534.643,393.646 534.681,393.654 533.214,395.151C532.936,395.435 530.145,397.525 527.573,398.637C521.914,401.083 520.222,401.746 514.479,402.296C513.133,402.424 503.258,403.369 497.612,401.186C492.839,399.34 490.848,398.705 486.808,396.052C485.495,395.189 482.766,392.432 481.925,391.159C477.822,384.952 478.328,384.691 477.484,382.506C477.365,382.199 476.877,381.605 476.467,379.507C474.378,368.826 477.196,363.396 477.764,361.606Z" style="fill:rgb(222,50,68);"/>
            </g>
        </g>
    </g>
</svg>
