<?xml version="1.0" encoding="UTF-8" standalone="no"?>
<!DOCTYPE svg PUBLIC "-//W3C//DTD SVG 1.1//EN" "http://www.w3.org/Graphics/SVG/1.1/DTD/svg11.dtd">
<svg width="100%" height="100%" viewBox="0 0 394 429" version="1.1" xmlns="http://www.w3.org/2000/svg" xmlns:xlink="http://www.w3.org/1999/xlink" xml:space="preserve" xmlns:serif="http://www.serif.com/" style="fill-rule:evenodd;clip-rule:evenodd;stroke-linejoin:round;stroke-miterlimit:2;">
    <g transform="matrix(1,0,0,1,-10081.858273,-6440.176501)">
        <g transform="matrix(1.276754,0,0,1.897866,-2116.350918,-3543.870901)">
            <g transform="matrix(1.029856,0,0,0.692816,8901.84613,4957.851582)">
                <g transform="matrix(1.171875,0,0,1.171875,182.260873,-0.787709)">
                    <path d="M384.914,495.5C384.92,461.327 384.836,461.328 385.202,458.455C387.019,444.191 391.148,439.011 391.437,438.464C394.176,433.275 398.367,429.678 399.104,429.045C405.183,423.827 409.576,422.354 413.323,420.175C418.918,416.922 471.446,388.687 476.302,386.136C480.088,384.148 479.96,383.946 483.732,381.931C488.114,379.591 497.921,372.856 515.487,373.726C530.052,374.447 534.734,378.175 546.404,384.672C552.278,387.942 553.508,388.395 554.314,388.846C566.046,395.414 577.288,401.263 582.633,404.245C594.502,410.865 594.613,410.649 595.636,411.24C599.505,413.479 607.484,417.653 609.35,418.759C613.968,421.497 616.081,422.099 620.7,425.184C621.793,425.914 631.142,430.705 636.634,444.447C639.232,450.949 640.087,460.11 640.099,460.522C640.228,464.73 640.156,552.5 640.149,560.498C640.141,570.197 637.518,579.992 634.356,585.416C627.596,597.013 621.21,599.966 619.671,600.81C615.379,603.166 608.564,607.147 607.584,607.658C593.369,615.07 593.553,615.389 586.696,618.89C584.271,620.128 577.523,624.115 574.522,625.542C570.481,627.464 570.633,627.723 566.681,629.848C559.479,633.721 559.582,633.87 553.686,636.867C548.496,639.504 548.626,639.7 543.44,642.395C539.611,644.385 537.559,646.581 529.377,649.121C523.419,650.97 515.292,651.932 510.492,651.645C500.009,651.02 493.694,648.498 492.316,647.948C491.251,647.522 490.057,647.046 479.604,641.315C468.38,635.162 468.32,635.301 467.376,634.713C464.368,632.837 460.172,630.759 459.531,630.442C456.479,628.929 453.872,627.281 453.258,626.961C451.734,626.167 437.739,618.877 434.342,616.772C432.207,615.449 427.409,613.107 425.281,611.883C416.256,606.696 416.044,607.088 412.337,604.771C409.119,602.761 405.147,601.146 401.596,598.372C400.612,597.604 394.726,593.006 391.406,586.552C388.36,580.631 387.373,580.829 385.339,567.522C384.74,563.603 385.016,563.576 384.914,495.5Z" style="fill:rgb(4,4,4);"/>
                </g>
                <g transform="matrix(1.171875,0,0,1.171875,182.260873,-0.787709)">
                    <path d="M412.669,448.18C417.212,450.397 453.983,470.759 460.659,474.191C463.79,475.8 475.605,482.329 476.336,482.784C478.31,484.012 493.434,491.505 497.303,494.74C501.779,498.484 503.737,500.711 506.478,507.509C509.314,514.541 508.501,522.024 508.616,551.499C508.761,588.516 508.499,588.493 508.628,625.499C508.63,626.192 509.551,640.761 500.474,642.367C495.818,643.191 491.349,639.489 485.439,636.615C481.12,634.515 481.394,634.019 472.453,629.593C470.976,628.862 471.113,628.621 454.419,619.651C452.591,618.669 440.517,612.182 431.641,607.235C428.493,605.481 428.429,605.63 425.361,603.734C424.509,603.207 424.372,603.482 414.352,597.764C408.991,594.704 400.61,592.347 394.539,577.485C391.091,569.048 392.009,560.33 392.005,534.5C391.994,463.089 391.648,463.069 392.329,457.479C393.245,449.971 398.686,441.161 408.676,446.11C410.697,447.111 410.683,447.106 412.669,448.18Z" style="fill:rgb(252,252,252);"/>
                </g>
                <g transform="matrix(1.171875,0,0,1.171875,182.260873,-0.787709)">
                    <path d="M633.123,468.5C632.962,525.829 633.489,563.323 632.752,568.537C631.334,578.562 626.23,587.681 620.324,592.261C617.67,594.32 611.426,597.574 607.636,599.756C607.563,599.799 599.051,604.274 596.63,605.734C595.3,606.536 591.504,608.316 588.697,609.847C585.668,611.498 585.794,611.683 579.282,615.076C577.539,615.985 567.376,621.499 564.359,623.242C561.258,625.033 557.332,626.896 552.63,629.739C551.832,630.221 551.691,629.941 542.392,635.316C537.932,637.894 537.872,637.746 533.371,640.257C522.117,646.536 518.471,637.216 517.712,635.415C515.666,630.553 516.701,619.561 516.46,594.501C516.427,591.061 516.479,591.063 516.448,551.5C516.422,519.193 516.53,518.41 516.924,515.562C518.61,503.375 524.535,497.904 525.755,496.777C530.579,492.322 533.976,491.03 539.653,487.774C541.391,486.776 541.448,486.885 561.603,475.69C566.117,473.182 566.242,473.449 570.672,470.79C571.382,470.364 591.539,459.551 592.292,459.126C595.429,457.353 595.553,457.625 598.661,455.772C603.611,452.819 603.672,452.952 609.236,450.015C614.197,447.396 628.203,436.712 632.478,456.505C633.24,460.032 633.131,462.092 633.123,468.5Z" style="fill:rgb(252,252,252);"/>
                </g>
                <g transform="matrix(1.171875,0,0,1.171875,182.260873,-0.787709)">
                    <path d="M530.63,384.208C540.733,389.153 560.71,400.584 567.68,404.156C569.05,404.858 571.049,405.882 584.591,413.335C586.992,414.657 606.273,424.922 606.688,425.133C608.835,426.222 615.932,428.823 615.308,434.475C614.737,439.653 609.287,440.778 596.355,448.258C593.426,449.952 588.582,452.152 585.28,454.133C584.528,454.584 584.52,454.533 577.421,458.351C571.293,461.647 571.37,461.758 565.255,465.057C550.528,473.005 550.055,473.248 548.72,473.935C542.145,477.316 542.278,477.534 535.693,480.867C534.962,481.237 528.955,485.466 516.511,486.612C508.392,487.36 497.808,485.151 493.365,482.785C493.134,482.663 486.158,479.3 482.67,477.204C480.051,475.63 474.146,472.79 471.643,471.253C469.273,469.799 452.64,461.186 449.645,459.262C446.495,457.238 442.863,455.989 439.358,453.738C437.972,452.848 437.87,453.071 421.307,443.855C418.547,442.32 418.333,442.725 414.209,439.938C413.241,439.284 408.447,436.9 410.376,431.453C410.965,429.791 411.49,428.511 420.655,423.805C424.428,421.867 426.807,420.864 433.705,416.862C437.95,414.4 438.122,414.753 442.342,412.219C443.202,411.703 443.265,411.823 453.306,406.152C456.75,404.207 458.631,403.734 461.663,401.755C463.608,400.486 468.048,398.625 475.375,394.27C476.331,393.703 476.443,393.939 487.616,387.709C492.232,385.136 502.786,379.11 518.47,380.778C524.41,381.409 529.708,383.793 530.63,384.208Z" style="fill:rgb(252,252,252);"/>
                </g>
                <g transform="matrix(1.171875,0,0,1.171875,182.260873,-0.787709)">
                    <path d="M436.177,544.611C434.92,540.639 433.314,534.796 436.535,528.52C438.466,524.757 442.858,523.065 447.452,524.634C452.42,526.33 461.196,533.58 463.464,546.506C466.132,561.71 455.386,567.744 446.185,559.867C439.151,553.846 437.262,547.441 436.177,544.611Z" style="fill:rgb(4,4,4);"/>
                </g>
                <g transform="matrix(1.171875,0,0,1.171875,191.014207,-16.326751)">
                    <path d="M529.108,605.374C529.429,604.458 531.417,598.775 534.572,594.554C539.804,587.551 549.108,581.541 554.996,590.186C559.284,596.482 556.127,607.559 552.785,612.678C549.562,617.616 548.825,618.933 544.398,622.366C540.146,625.662 534.153,626.661 530.307,621.639C525.61,615.504 528.967,605.872 529.108,605.374Z" style="fill:rgb(4,4,4);"/>
                </g>
                <g transform="matrix(1.171875,0,0,1.171875,250.389794,-29.252514)">
                    <path d="M528.909,517.606C529.984,514.455 530.065,514.505 531.366,511.437C534.219,504.705 542.29,496.139 549.502,497.492C554.463,498.422 555.664,502.056 556.23,503.594C561.535,518.022 544.08,542.202 533.261,535.95C525.056,531.209 528.586,519.092 528.909,517.606Z" style="fill:rgb(4,4,4);"/>
                </g>
                <g transform="matrix(1.171875,0,0,1.171875,182.305766,-35.441141)">
                    <path d="M497.524,471.461C496.937,471.062 496.923,471.112 496.367,470.675C485.822,462.375 496.175,452.157 509.483,451.275C520.912,450.518 525.848,453.892 528.437,455.598C528.996,455.967 532.849,458.506 533.143,462.529C533.976,473.936 511.311,479.436 497.524,471.461Z" style="fill:rgb(4,4,4);"/>
                </g>
                <g transform="matrix(1.171875,0,0,1.171875,182.260873,-0.787709)">
                    <path d="M436.382,436.567C435.651,434.578 435.324,434.62 435.485,432.499C435.587,431.149 436.303,429.461 436.813,428.712C443.115,419.45 463.608,418.43 472.335,425.708C481.504,433.354 473.803,440.508 467.329,443.08C463.624,444.552 457.216,445.398 452.463,444.789C441.889,443.436 438.341,439.331 436.382,436.567Z" style="fill:rgb(4,4,4);"/>
                </g>
                <g transform="matrix(1.171875,0,0,1.171875,182.260873,-0.787709)">
                    <path d="M582.355,442.203C580.725,442.886 575.092,445.907 565.466,444.761C560.385,444.156 557.094,442.902 552.847,440.024C548.608,437.152 547.291,430.178 552.809,425.907C564.117,417.154 585.386,420.486 589.286,430.574C591.046,435.126 587.449,439.55 583.539,441.569C582.928,441.885 582.948,441.886 582.355,442.203Z" style="fill:rgb(4,4,4);"/>
                </g>
            </g>
        </g>
    </g>
</svg>
