<?xml version="1.0" encoding="UTF-8" standalone="no"?>
<!DOCTYPE svg PUBLIC "-//W3C//DTD SVG 1.1//EN" "http://www.w3.org/Graphics/SVG/1.1/DTD/svg11.dtd">
<svg width="100%" height="100%" viewBox="0 0 2739 1781" version="1.1" xmlns="http://www.w3.org/2000/svg" xmlns:xlink="http://www.w3.org/1999/xlink" xml:space="preserve" xmlns:serif="http://www.serif.com/" style="fill-rule:evenodd;clip-rule:evenodd;stroke-linejoin:round;stroke-miterlimit:2;">
    <g transform="matrix(1,0,0,1,-13440.302969,-9598.490841)">
        <g transform="matrix(1.95055,0,0,3.948123,-7265.768949,-11556.637138)">
            <g id="Fondo" transform="matrix(2.077159,0,0,1.02621,10248.534732,4972.627795)">
                <path d="M432.718,558.399L433.5,558.592C433.904,558.526 433.849,557.816 436.515,558.443C436.937,558.542 437.815,558.748 441.511,560.526C441.265,560.918 440.931,561.249 440.685,561.64C440.415,562.067 437.683,568.423 442.385,569.852C444.098,570.373 452.59,571.063 456.506,571.129C470.939,571.372 475.35,570.03 482.367,568.057C492.261,565.276 503.988,557.545 506.603,555.65C516.757,548.291 516.794,548.377 517.662,547.72C523.743,543.115 524.597,544.456 535.488,544.002C556.526,543.124 597.975,546.271 607.514,547.359C619.985,548.782 619.99,548.522 632.456,549.915C635.748,550.283 655.338,552.471 673.406,555.988C679.127,557.101 685.634,558.194 686.382,558.685C687.773,559.598 687.144,563.075 687.519,566.498C689.124,581.155 692.531,588.017 698.567,593.428C698.567,593.428 696.674,596.949 696.143,600.605C695.948,601.953 786.928,602.923 786.941,602.5C786.959,601.942 787.781,601.62 787.799,601.062C791.01,603.505 790.972,603.524 794.255,605.855C800.098,610.004 800.112,609.981 800.598,610.37C802.977,612.273 806.259,614.439 808.566,616.422C815.129,622.062 815.274,621.887 819.173,625.828C820.129,626.794 825.919,632.646 830.386,638.581C854.284,670.334 837.611,713.051 827.329,730.398C809.547,760.401 786.011,750.755 783.082,758.321C781.724,761.829 783.923,764.361 784.631,765.268C784.352,765.663 784.518,767.078 780.421,768.239C779.733,768.434 778.495,768.637 777.34,769.068C775.895,769.606 775.882,768.999 775.5,768.981L774.724,768.558C774.719,768.385 774.9,766.981 774.412,765.531C773.014,761.377 768.98,762.141 768.445,762.242C768.368,762.257 754.857,766.505 749.442,768.348C731.862,774.332 728.241,779.295 720.426,781.161C716.411,782.119 702.718,783.871 701.45,784.002C670.916,787.141 657.215,786.598 653.499,786.565C624.366,786.302 597.341,782.534 589.461,781.877C570.374,780.285 534.158,773.278 509.452,779.32C501.507,781.263 497.564,781.949 498.009,786.536C498.321,789.754 499.731,790.525 500.519,791.454L499.5,791.836C499.181,791.971 498.819,791.987 498.5,792.121C497.567,792.516 497.614,792.586 496.652,792.946C496.168,793.127 491.365,794.925 490.5,794.923C490.153,794.922 489.847,794.636 489.5,794.636L488.635,794.571C488.794,792.513 489.075,792.497 488.505,790.499C487.342,786.428 484.029,786.897 483.546,786.965C479.845,787.489 468.169,791.973 442.549,794.965C437.753,795.525 400.583,801.191 356.529,798.149C344.76,797.336 321.55,793.791 312.526,791.402C297.377,787.39 297.283,787.727 282.603,782.222C270.916,777.84 258.046,770.866 251.654,766.275C249.883,765.003 249.61,765.234 241.561,758.425C224.366,743.878 217.412,728.431 215.202,724.659C211.431,718.226 200.169,690.097 206.276,662.454C207.706,655.982 208.277,653.377 213.409,643.449C216.109,638.228 221.656,634.323 219.228,630.664C217.533,628.107 214.951,627.456 214.503,627.343C214.149,627.253 213.764,627.36 213.41,627.271C213.791,626.839 221.268,618.68 221.724,618.495C222.125,618.968 221.968,619.081 223.458,620.543C224.459,621.525 227.024,624.256 229.264,623.043C232.264,621.418 231.59,619.443 251.236,607.075C251.436,607.638 252.295,608.098 252.807,608.407C253.46,608.801 337.859,593.615 340.714,591.974C340.934,591.847 341.268,591.354 340.243,589.068C349.084,584.522 348.873,578.419 349.319,559.498C349.419,555.23 348.427,553.84 352.598,552.935C357.234,551.93 371.554,548.691 388.496,548.267C393.61,548.139 393.265,549.526 407.595,557.329C408.8,557.986 411.22,559.896 423.633,565.181C432.028,568.756 432.264,563.897 432.718,558.399Z" style="fill:rgb(129,207,244);"/>
                <path d="M787.001,464.461C786.035,473.999 777.039,511.995 779.247,512.268C780.532,512.428 781.299,506.763 783.253,503.362C788.997,493.362 793.926,484.409 799.485,487.524C802.704,489.327 801.779,495.7 800.306,519.487C799.435,533.551 797.97,539.744 795.772,562.526C793.651,584.509 790.736,586.429 789.843,588.644C788.987,590.764 790.238,590.673 800.426,597.607C802.164,598.79 802.085,598.874 803.821,600.076C807.688,602.754 807.799,602.588 811.377,605.648C812.01,606.188 818.412,610.743 828.829,621.164C832.868,625.205 836.77,630.293 837.16,630.769C843.189,638.134 847.983,648.284 850.16,656.592C852.404,665.157 853.648,676.179 851.674,691.526C850.863,697.832 847.029,713.27 842.207,723.375C839.693,728.645 839.907,728.743 836.965,733.777C833.492,739.719 832.225,742.842 824.346,750.34C820.418,754.078 819.131,754.48 815.673,756.771C811.604,759.465 803.546,761.999 802.451,762.343C799.484,763.276 787.099,766.424 785.411,765.798C785.116,765.689 784.926,765.377 784.631,765.268C783.923,764.361 781.724,761.829 783.082,758.321C786.011,750.755 809.547,760.401 827.329,730.398C837.611,713.051 854.284,670.334 830.386,638.581C825.919,632.646 820.129,626.794 819.173,625.828C815.274,621.887 815.129,622.062 808.566,616.422C806.259,614.439 802.977,612.273 800.598,610.37C800.112,609.981 800.098,610.004 794.255,605.855C790.972,603.524 791.01,603.505 787.799,601.062C785.418,599.098 784.931,598.294 782.573,599.633C780.587,600.761 777.355,602.374 772.216,598.93C769.27,596.956 768.969,597.872 767.221,599.042C759.403,604.269 749.689,596.648 747.494,596.637C744.771,596.624 745.221,599.901 736.436,602.21C729.952,603.915 724.902,599.595 724.128,598.933C720.655,595.962 720.169,598.864 714.491,599.396C709.389,599.873 702.901,596.868 698.567,593.428C692.531,588.017 689.124,581.155 687.519,566.498C687.144,563.075 687.773,559.598 686.382,558.685C685.634,558.194 679.127,557.101 673.406,555.988C655.338,552.471 635.748,550.283 632.456,549.915C619.99,548.522 619.985,548.782 607.514,547.359C597.975,546.271 556.526,543.124 535.488,544.002C524.597,544.456 523.743,543.115 517.662,547.72C516.794,548.377 516.757,548.291 506.603,555.65C503.988,557.545 492.261,565.276 482.367,568.057C475.35,570.03 470.939,571.372 456.506,571.129C452.59,571.063 444.098,570.373 442.385,569.852C437.683,568.423 440.415,562.067 440.685,561.64C440.931,561.249 441.265,560.918 441.511,560.526C441.946,560.455 441.974,559.948 445.514,560.37C463.106,562.467 474.615,561.874 489.51,554.519C490.753,553.906 491.574,553.347 497.587,549.636C509.817,542.089 514.363,535.931 519.575,534.835C530.828,532.468 579.441,534.047 611.501,537.491C612.783,537.629 612.79,537.488 627.546,539.002C647.601,541.059 669.861,544.62 685.408,547.989C687.711,548.488 688.233,548.023 688.692,544.53C689.884,535.441 689.861,535.408 688.438,522.506C687.066,510.072 688.474,484.906 692.429,473.475C695.1,465.754 697.11,459.185 702.616,461.199C704.045,461.722 705.226,463.489 705.566,464.476C708.583,473.218 710.625,489.945 714.262,505.551C717.096,517.711 714.942,520.208 716.471,523.514C717.211,525.113 718.344,524.165 718.352,523.451C718.485,512.592 717.88,510.175 720.798,496.569C726.014,472.245 729.156,464.193 734.982,451.726C736.499,448.48 739.71,442.6 741.874,440.97C743.266,439.921 749.607,437.91 750.222,447.523C751.477,467.148 748.63,489.618 748.163,501.485C747.708,513.024 747.722,513.008 747.192,524.547C747.004,528.624 747.571,529.06 747.872,529.077C749.076,529.143 749.162,527.548 749.198,527.388C749.689,525.21 748.96,524.349 751.826,514.593C752.858,511.083 756.977,494.606 762.241,485.357C762.563,484.79 770.735,468.026 778.082,460.118C782.85,454.988 787.597,458.58 787.001,464.461Z" style="fill:rgb(31,47,57);"/>
                <path d="M326.503,528.821C326.801,528.696 327.099,528.571 327.398,528.445C327.987,524.163 328.198,519.291 330.785,510.584C336.239,492.22 338.449,488.385 341.533,482.519C344.211,477.425 349.58,477.322 351.171,482.584C352.725,487.723 348.632,517.962 349.258,540.516C349.414,546.139 352.965,539.781 386.519,537.934C394.238,537.509 394.179,538.486 402.345,542.801C410.467,547.092 410.263,547.443 418.431,551.634C427.13,556.097 429.372,556.045 431.303,556.947C432.543,557.525 432.595,558.273 432.718,558.399C432.264,563.897 432.028,568.756 423.633,565.181C411.22,559.896 408.8,557.986 407.595,557.329C393.265,549.526 393.61,548.139 388.496,548.267C371.554,548.691 357.234,551.93 352.598,552.935C348.427,553.84 349.419,555.23 349.319,559.498C348.873,578.419 349.084,584.522 340.243,589.068C339.721,589.223 332.971,591.909 327.311,588.919C324.197,587.274 324.035,589.036 322.195,591.241C316.685,597.848 308.221,597.487 301.662,593.247C299.389,591.778 298.639,591.013 297.322,593.396C294.842,597.882 289.937,601.089 284.498,599.506C280.167,598.247 279.853,596.28 276.648,598.713C276.098,599.13 273.313,601.244 268.503,601.551C263.018,601.902 260.16,600.05 256.363,596.709C255.357,595.824 255.455,595.746 255.368,595.671C255.368,595.671 252.514,590.948 250.776,583.416C249.394,577.427 248.889,577.555 247.314,567.531C245.706,557.301 242.682,552.655 239.257,536.554C239.136,535.985 236.866,526.792 235.504,515.5C234.586,507.885 239.441,504.591 247.17,512.814C247.802,513.486 248.955,514.392 257.57,524.441C258.896,525.988 261.594,529.921 262.345,531.607C262.809,532.651 262.932,532.572 263.332,533.626C263.744,534.712 264,534.797 264.083,534.976C264.186,535.198 264.176,535.458 264.26,535.688C264.784,537.133 264.953,537.037 265.552,538.441C265.647,538.663 265.66,538.969 265.866,539.093C266.054,539.206 266.3,539.016 266.518,539.023C266.687,539.029 266.878,539.236 267.012,539.133C267.439,538.806 267.522,537.908 265.069,531.615C264.655,530.553 264.641,530.561 259.407,518.543C255.26,509.02 246.877,497.991 239.732,483.384C229.523,462.512 229.493,462.534 227.593,458.455C226.419,455.934 226.299,456.015 224.717,452.401C221.282,444.556 220.961,444.724 218.989,440.282C216.824,435.405 216.885,435.4 215.094,431.695C213.04,427.449 213.209,426.306 210.501,426.275C209.707,426.266 204.456,426.205 200.649,425.012C193.829,422.875 190.509,418.979 189.847,418.202C182.532,409.618 182.703,394.045 185.094,391.404C189.661,386.358 194.092,400.156 197.659,399.657C198.946,399.477 195.292,394.368 193.891,389.214C192.736,384.96 193.423,380.307 196.969,378.244C199.886,376.548 204.368,377.99 207.979,383.083C209.286,384.926 211.194,391.827 212.799,391.705C215.86,391.474 212.703,381.84 214.049,378.672C215.047,376.323 218.301,374.753 220.942,376.626C224.316,379.017 224.911,380.916 226.569,385.283C229.885,394.019 231.069,404.213 223.693,417.608C221.023,422.458 218.337,423.194 218.987,425.349C219.039,425.524 226.271,441.469 226.765,442.357C228.937,446.265 230.279,450.136 232.86,455.328C240.715,471.125 243.043,477.551 253.381,495.57C256.624,501.223 256.865,501.064 260.09,506.742C263.723,513.141 265.191,515.272 266.255,518.645C266.43,519.202 266.567,519.776 266.809,520.307C266.911,520.53 267.161,520.659 267.272,520.876C267.38,521.086 267.382,521.335 267.451,521.561C267.489,521.687 267.832,522.803 268.5,522.834C270.084,522.908 268.498,520.624 266.839,507.448C265.869,499.745 263.193,491.892 262.848,479.492C262.583,469.965 262.238,449.319 262.991,444.57C264.088,437.65 269.376,437.246 272.012,440.867C272.719,441.839 274.774,444.21 279.882,456.341C280.634,458.126 285.274,470.992 288.162,484.571C293.328,508.86 294.207,511.355 295.542,525.485C295.667,526.799 295.176,527.41 296.5,527.468C297.899,527.529 297.242,526.682 297.511,519.501C297.919,508.606 300.481,493.353 302.608,487.537C303.915,483.966 306.463,475.178 312.936,463.761C314.257,461.431 315.764,459.493 316.038,459.142C320.625,453.244 325.474,456.601 326.142,460.566C327.122,466.38 326.375,479.817 326.282,481.488C324.556,512.541 325.007,518.424 325.501,527.5C325.509,527.645 325.595,529.229 325.773,529.299C326.044,529.405 326.232,528.715 326.503,528.821Z" style="fill:rgb(31,47,57);"/>
                <path d="M698.567,593.428C702.901,596.868 709.389,599.873 714.491,599.396C720.169,598.864 720.655,595.962 724.128,598.933C724.902,599.595 729.952,603.915 736.436,602.21C745.221,599.901 744.771,596.624 747.494,596.637C749.689,596.648 759.403,604.269 767.221,599.042C768.969,597.872 769.27,596.956 772.216,598.93C777.355,602.374 780.587,600.761 782.573,599.633C784.931,598.294 785.418,599.098 787.799,601.062C787.781,601.62 789.069,607.336 789.117,607.595C790.301,613.974 790.372,613.953 790.467,614.508C790.898,617.028 791.125,616.955 791.64,619.47C791.804,620.27 793.324,627.699 793.633,629.477C794.93,636.946 795.071,636.911 795.168,637.562C796.541,646.813 801.386,661.248 795.492,662.471C791.238,663.354 788.424,658.287 786.596,656.401C786.287,656.084 783.608,653.322 782.945,652.242C777.857,643.96 777.615,642.953 774.366,634.593C774.312,634.455 773.875,633.331 772.672,633.832C770.908,634.567 772.311,641.786 772.533,644.498C772.885,648.799 774.355,651.742 775.015,654.608C776.142,659.496 779.866,667.818 776.375,669.243C773.793,670.296 772.081,668.242 770.143,665.759C762.477,655.937 759.861,648.381 757.875,644.324C757.578,643.715 756.528,641.571 754.95,636.38C752.801,629.309 753.028,627.676 751.628,623.463C751.157,622.043 750.158,616.829 747.78,617.962C745.052,619.263 745.727,646.363 746.848,651.44C747.4,653.939 747.438,653.917 747.893,656.434C748.704,660.922 749.277,662.755 749.414,663.519C750.074,667.196 753.935,678.02 752.852,682.578C752.22,685.239 750.009,686.36 749.505,686.518C744.497,688.091 740.021,680.114 737.753,677.295C733.481,671.983 728.615,663.865 727.727,661.401C727.517,660.819 727.399,660.206 727.185,659.625C726.46,657.654 725.927,657.379 725.143,653.558C723.82,647.117 723.815,647.046 723.768,646.471C722.698,633.388 722.724,623.638 722.69,622.484C722.683,622.255 722.601,619.471 720.546,620.592C719.887,620.951 719.161,623.122 719.082,623.36C716.71,630.456 715.967,631.651 715.53,633.508C714.595,637.488 714.091,637.294 711.612,643.554C711.345,644.227 708.091,650.929 703.049,657.091C701.861,658.543 698.291,661.075 695.507,658.492C692.409,655.617 696.017,646.901 696.238,639.484C696.719,623.312 695.959,623.028 695.554,615.497C694.841,602.248 695.192,599.83 695.387,598.483C695.542,597.413 695.879,596.537 696.278,595.832C697.241,594.128 698.567,593.428 698.567,593.428Z" style="fill:rgb(85,180,223);"/>
                <path d="M340.243,589.068C342.078,591.37 342.116,591.324 342.225,591.554C343.528,594.316 343.558,618.061 343.189,620.472C342.653,623.976 343.096,624.006 342.604,627.516C341.554,635.014 343.039,644.798 341.106,647.179C338.318,650.612 334.686,646.059 334.34,645.625C331.724,642.346 328.679,636.215 328.345,635.588C325.292,629.866 325.155,628.416 324.284,626.591C322.941,623.777 322.817,623.226 322.321,622.681C318.841,618.854 318.312,630.101 317.953,633.533C316.596,646.52 320.948,657.175 320.918,666.497C320.892,674.407 315.034,672.163 312.891,670.121C311.524,668.818 306.327,660.098 305.547,658.477C305.36,658.089 303.88,655.018 303.333,653.569C301.876,649.715 301.79,649.763 301.666,649.428C299.655,643.969 299.584,644.005 299.428,643.525C296.464,634.361 295.631,629.115 295.262,623.547C295.12,621.414 294.723,619.303 293.772,620.186C292.506,621.36 293.08,625.134 291.945,630.593C290.84,635.903 291.255,637.378 286.824,649.616C285.059,654.49 282.41,659.417 281.857,660.658C279.318,666.357 274.628,674.117 272.522,674.586C272.343,674.626 267.895,675.145 267.552,670.495C267.308,667.197 269.171,663.509 269.203,651.5C269.208,649.74 269.241,649.757 269.508,629.5C269.525,628.228 270.21,620.474 270.414,619.486C271.537,614.058 271.393,613.956 271.083,613.923C270.264,613.838 269.226,615.812 266.214,620.305C264.303,623.156 264.471,623.292 257.772,630.759C254.91,633.949 254.828,633.85 251.695,636.766C247.556,640.619 242.419,639.107 244.557,630.517C244.983,628.804 246.205,626.283 246.737,624.581C248.303,619.579 248.453,619.647 249.953,614.633C250.754,611.956 251.316,610.812 251.472,610.496C252.29,608.836 251.436,607.638 251.236,607.075C252.65,605.625 252.639,605.558 252.889,603.56C253.472,598.89 253.524,596.353 253.513,596.334C253.307,595.974 255.368,595.671 255.368,595.671C255.455,595.746 255.357,595.824 256.363,596.709C260.16,600.05 263.018,601.902 268.503,601.551C273.313,601.244 276.098,599.13 276.648,598.713C279.853,596.28 280.167,598.247 284.498,599.506C289.937,601.089 294.842,597.882 297.322,593.396C298.639,591.013 299.389,591.778 301.662,593.247C308.221,597.487 316.685,597.848 322.195,591.241C324.035,589.036 324.197,587.274 327.311,588.919C332.971,591.909 339.721,589.223 340.243,589.068Z" style="fill:rgb(85,180,222);"/>
                <path d="M213.41,627.271C213.764,627.36 214.149,627.253 214.503,627.343C214.951,627.456 217.533,628.107 219.228,630.664C221.656,634.323 216.109,638.228 213.409,643.449C208.277,653.377 207.706,655.982 206.276,662.454C200.169,690.097 211.431,718.226 215.202,724.659C217.412,728.431 224.366,743.878 241.561,758.425C249.61,765.234 249.883,765.003 251.654,766.275C258.046,770.866 270.916,777.84 282.603,782.222C297.283,787.727 297.377,787.39 312.526,791.402C321.55,793.791 344.76,797.336 356.529,798.149C400.583,801.191 437.753,795.525 442.549,794.965C468.169,791.973 479.845,787.489 483.546,786.965C484.029,786.897 487.342,786.428 488.505,790.499C489.075,792.497 488.794,792.513 488.635,794.571C488.477,794.787 488.434,795.075 488.275,795.292C487.405,796.478 483.919,797.435 483.513,797.547C474.617,799.989 474.576,799.768 465.549,801.712C439.423,807.34 388.884,811.353 356.508,808.396C354.826,808.242 286.64,805.093 242.627,772.323C241.627,771.578 235.506,767.021 230.65,762.341C204.447,737.093 198.718,709.634 198.401,708.529C197.974,707.038 195.491,698.377 194.87,689.473C193.644,671.878 195.488,662.853 198.241,653.42C202.664,638.261 211.094,629.168 211.112,629.148C212.346,627.725 212.469,627.874 213.41,627.271Z" style="fill:rgb(31,47,57);"/>
                <path d="M583.578,669.348C582.585,668.811 580.687,667.844 579.308,666.746C574.74,663.109 573.936,660.866 573.696,659.468C572.451,652.195 579.708,651.793 580.527,651.701C587.043,650.972 587.196,651.362 587.8,650.758C589.574,648.987 586.578,649.831 581.148,644.862C576.708,640.799 579.711,636.666 580.694,635.705C584.992,631.504 598.564,635.018 600.341,633.331C602.032,631.726 598.694,627.192 607.54,625.716C616.076,624.292 621.625,623.199 627.43,624.754C640.286,628.197 642.979,630.333 645.448,631.596C648.775,633.299 650.019,634.492 651.546,635.43C657.202,638.906 664.742,649.209 665.497,650.502C668.484,655.609 674.082,660.877 668.451,666.45C656.448,678.328 616.931,679.276 602.478,675.587C591.868,672.878 591.706,673.31 583.578,669.348Z" style="fill:rgb(31,47,57);"/>
                <path d="M405.463,587.056C406.341,586.988 411.827,586.562 416.453,587.705C421.869,589.042 424.657,589.223 425.926,591.26C427.302,593.471 424.57,596.555 428.497,596.555C438.73,596.555 444.915,595.526 445.491,600.501C446.33,607.733 438.773,609.823 438.76,609.833C438.653,609.917 437.835,610.561 438.494,611.506C438.951,612.161 451.267,612.508 448.54,619.517C447.838,621.323 444.126,624.602 442.568,625.606C437.808,628.671 433.962,630.849 424.399,634.217C412.489,638.412 401.875,637.707 390.48,636.745C383.239,636.133 371.956,631.514 368.794,629.133C360.557,622.93 361.756,619.072 364.51,613.506C365.411,611.686 369.313,606.213 371.191,604.216C381.448,593.31 395.824,587.827 405.463,587.056Z" style="fill:rgb(31,47,57);"/>
                <path d="M774.724,768.558C774.347,769.666 775.003,770.92 769.514,772.545C762.524,774.614 762.643,774.916 755.639,776.963C742.513,780.799 734.532,786.361 732.45,787.412C726.136,790.603 726.085,790.772 711.451,793.199C708.465,793.694 685.023,796.691 664.507,796.926C650.813,797.082 649.807,797.182 626.481,795.785C581.565,793.094 542.337,783.911 515.513,788.571C507.43,789.976 502.681,791.889 501.479,791.762C501.145,791.727 500.853,791.489 500.519,791.454C499.731,790.525 498.321,789.754 498.009,786.536C497.564,781.949 501.507,781.263 509.452,779.32C534.158,773.278 570.374,780.285 589.461,781.877C597.341,782.534 624.366,786.302 653.499,786.565C657.215,786.598 670.916,787.141 701.45,784.002C702.718,783.871 716.411,782.119 720.426,781.161C728.241,779.295 731.862,774.332 749.442,768.348C754.857,766.505 768.368,762.257 768.445,762.242C768.98,762.141 773.014,761.377 774.412,765.531C774.9,766.981 774.719,768.385 774.724,768.558Z" style="fill:rgb(31,47,57);"/>
                <g transform="matrix(0.978223,-0.207557,0.207557,0.978223,-77.146364,163.138711)">
                    <path d="M668.553,409.365C670.326,408.866 670.189,406.28 670.081,405.283C669.23,397.417 677.131,399.299 679.921,403.19C683.369,408 689.113,416.924 686.481,426.495C684.649,433.156 683.393,437.164 679.373,442.408C675.14,447.931 673.081,446.814 673.313,449.513C673.331,449.719 677.059,469.607 677.205,470.55C681.071,495.421 683.879,500.667 682.681,503.591C682.226,504.701 680.377,505.297 679.561,505.106C676.44,504.377 676.934,500.731 675.482,494.504C674.329,489.562 674.434,489.551 671.474,473.505C671.326,472.702 669.75,464.164 669.608,463.478C667.02,451.033 667.812,450.623 666.479,449.532C665.995,449.136 660.806,449.025 654.478,446.558C648.433,444.201 644.661,442.333 640.288,436.655C634.878,429.63 635.928,426.213 636.906,421.592C638.48,414.15 638.208,414.109 638.373,413.469C638.479,413.06 639.136,410.515 642.451,410.101C644.032,409.904 646.862,412.464 647.338,412.551C647.543,412.588 649.757,414.427 651.029,412.445C651.414,411.844 652.059,399.963 658.482,400.649C661.447,400.965 664.819,405.081 664.886,405.165C666.428,407.121 667.515,409.658 668.553,409.365Z" style="fill:rgb(31,47,57);"/>
                </g>
                <path d="M741.88,452.858C741.892,452.848 741.915,452.846 741.919,452.831C742.028,452.398 743.556,451.506 743.537,454.492C743.477,463.886 743.223,474.725 743.165,476.483C743.093,478.66 741.925,486.802 741.335,501.491C740.882,512.746 740.506,512.73 740.912,527.486C741.322,542.417 741.72,542.372 742.812,558.475C742.871,559.349 743.274,561.783 743.786,569.469C744.413,578.871 747.179,586.857 739.418,593.407C735.113,597.041 731.336,596.366 727.247,592.802C722.686,588.826 722.559,583.54 722.722,566.5C722.856,552.382 723.768,552.289 723.88,535.507C724.048,510.381 725.854,503.522 729.939,485.593C731.737,477.701 735.945,465.193 737.859,461.679C740.632,456.585 741.716,452.997 741.88,452.858Z" style="fill:rgb(61,137,108);"/>
                <path d="M621.544,652.236C625.666,653.22 629.615,654.672 631.112,652.24C631.906,650.951 631.602,648.235 628.566,647.309C620.319,644.794 617.494,645.14 616.524,645.259C610.721,645.969 610.377,644.866 605.592,645.908C599.66,647.199 599.192,648.133 595.717,646.123C592.912,644.5 586.586,642.107 586.4,641.562C585.63,639.308 587.13,639.831 589.495,640.066C597.27,640.837 599.722,639.484 607.334,641.992C608.19,642.274 610.973,643.456 615.345,643.25C617.464,643.15 617.461,640.676 617.043,639.753C615.957,637.353 606.54,635.8 607.939,632.762C608.593,631.343 620.102,630.049 623.509,630.391C624.619,630.502 633.168,632.322 638.307,634.909C642.197,636.867 648.716,639.618 656.583,648.431C658.902,651.029 661.11,655.382 663.847,659.268C665.935,662.232 662.923,663.361 660.659,664.774C651.41,670.546 618.53,675.34 592.441,666.669C583.491,663.694 580.671,660.029 580.602,659.48C580.42,658.039 582.349,657.869 582.551,657.852C584.891,657.646 584.864,657.524 597.582,654.888C604.708,653.41 604.527,652.657 608.433,652.106C614.865,651.199 619.521,652.009 621.544,652.236Z" style="fill:rgb(190,201,75);"/>
                <path d="M303.112,527.47C303.675,519.381 303.776,519.401 304.124,515.451C305.052,504.912 307.928,491.859 308.725,489.581C313.773,475.156 316.982,469.631 318.388,468.212C318.945,467.65 319.118,467.808 319.603,468.417C319.896,468.786 319.835,470.304 319.829,470.469C319.314,483.388 319.392,483.37 319.327,484.49C318.639,496.49 318.757,496.479 318.304,508.491C317.829,521.071 318.904,522.888 319.407,532.505C319.891,541.771 315.03,555.553 319.704,577.463C320.777,582.494 318.003,587.132 315.499,588.499C312.091,590.359 308.538,588.923 307.472,588.58C304.637,587.666 299.788,583.295 299.757,583.261C297.107,580.354 298.519,572.708 299.059,558.477C299.505,546.742 301.964,541.687 303.112,527.47Z" style="fill:rgb(61,137,108);"/>
                <path d="M710.131,521.554C710.735,525.571 712.621,540.911 712.792,543.469C713.364,552.02 713.144,552.034 714.447,560.506C714.841,563.066 715.857,575.186 715.964,576.464C716.472,582.521 716.532,582.501 717.109,588.559C717.169,589.187 717.895,593.036 711.555,592.176C708.135,591.712 703.064,589.209 700.676,586.348C695.128,579.7 692.77,563.221 694.204,550.462C695.281,540.879 695.515,540.92 695.667,539.517C696.905,528.065 692.768,519.506 694.877,496.531C694.929,495.969 695.217,492.835 695.667,489.523C696.124,486.163 695.88,486.115 698.354,477.455C698.786,475.941 699.435,472.796 699.539,472.534C700.164,470.962 701.088,471.896 701.223,472.651C701.226,472.664 704.841,495.763 705.5,498.5C706.04,500.743 707.571,505.311 708.263,510.536C708.999,516.086 709.411,516.006 710.131,521.554Z" style="fill:rgb(61,137,108);"/>
                <path d="M268.991,451.691C269.024,449.082 270.489,450.153 271.042,451.796C271.057,451.842 271.589,453.7 272.405,455.55C273.939,459.027 273.933,459.024 276.371,466.541C280.044,477.864 279.778,477.927 282.55,489.488C282.817,490.602 282.761,490.604 285.443,503.512C287.001,511.014 287.323,510.944 288.124,518.552C288.285,520.083 288.471,520.032 291.079,537.555C292.527,547.281 291.991,552.194 291.744,575.501C291.634,585.815 293.061,591.57 288.467,592.349C285.86,592.791 280.816,589.696 280.107,586.607C279.928,585.828 279.215,577.964 276.635,570.457C272.92,559.644 275.871,559.323 275.921,542.508C275.968,526.78 276.438,520.208 271.819,498.435C269.625,488.094 269.521,485.122 269.324,469.502C269.203,459.908 269.466,459.868 268.998,453.545C268.973,453.203 268.991,451.729 268.991,451.691Z" style="fill:rgb(61,137,108);"/>
                <path d="M777.703,470.759C778.452,469.211 779.722,469.833 779.324,471.526C775.859,486.239 775.985,486.267 775.655,487.539C773.196,497.014 773.336,497.034 772.648,500.527C770.588,510.989 770.937,511.053 770.917,530.496C770.908,540.225 770.025,540.155 768.216,560.476C766.85,575.815 767.207,578.035 766.911,585.52C766.646,592.2 763.022,594.559 760.555,594.144C758.727,593.838 754.441,591.452 753.377,590.681C750.693,588.731 751.242,588.114 751.446,583.497C751.502,582.216 751.66,578.636 750.669,567.485C749.709,556.671 750.081,554.577 753.989,533.596C755.851,523.597 756.198,523.677 757.763,517.564C760.334,507.522 760.465,507.578 761.72,503.577C763.802,496.933 764.15,497.083 766.966,490.721C768.292,487.728 776.082,474.849 777.703,470.759Z" style="fill:rgb(61,137,108);"/>
                <path d="M408.492,593.04C411.334,593.102 411.342,593.046 414.428,593.791C416.985,594.409 419.529,594.812 419.11,596.374C418.858,597.313 416.935,597.269 411.698,599.904C406.029,602.755 406.464,604.02 405.635,605.581C404.27,608.152 400.038,607.117 398.875,610.598C398.4,612.02 399.557,613.122 399.719,613.277C403.146,616.541 403.975,612.838 415.49,613.633C417.455,613.768 427.288,615.585 428.413,615.856C433.377,617.056 433.386,616.913 438.417,617.861C440.113,618.181 440.972,617.858 440.63,619.55C440.482,620.283 440.21,620.077 438.781,620.88C438.389,621.101 435.97,622.834 432.455,624.404C421.014,629.516 414.282,632.774 392.459,630.913C383.886,630.181 374.766,626.363 371.411,623.617C369.523,622.072 366.904,620.633 371.045,614.222C372.426,612.083 372.547,612.192 374.069,610.172C376.438,607.028 376.615,607.207 379.559,604.565C380.52,603.704 384.672,599.979 393.434,596.348C402.247,592.696 406.91,593.074 408.492,593.04Z" style="fill:rgb(190,201,75);"/>
                <path d="M791.959,538.559C790.451,552.063 790.704,552.078 788.692,565.527C787.121,576.033 787.285,577.571 785.56,581.526C785.214,582.317 782.933,588.303 780.3,591.33C779.527,592.219 778.732,593.25 776.537,592.408C773.069,591.077 773.365,588.838 773.497,584.5C773.56,582.414 773.943,569.81 775.223,558.474C776.924,543.404 778.032,539.134 778.458,537.49C781.636,525.237 781.472,525.208 783.332,519.448C784.447,515.994 784.277,515.941 785.895,512.69C786.587,511.3 787.686,508.362 790.181,504.329C790.29,504.153 792.215,499.674 793.598,498.929C795.174,498.081 794.422,499.93 794.014,505.471C793.598,511.136 794.321,513.845 792.899,528.542C792.822,529.343 792.099,536.805 791.959,538.559Z" style="fill:rgb(61,137,108);"/>
                <path d="M250.818,553.402C249.172,547.56 242.777,520.417 242.772,519.622C242.758,517.631 244.001,518.939 244.483,519.527C244.519,519.57 247.578,522.895 247.846,523.189C255.942,532.058 258.115,536.335 263.716,550.409C268.508,562.451 268.69,565.126 271.461,575.511C271.773,576.68 274.108,585.433 273.488,590.499C272.918,595.161 268.15,595.833 264.402,593.642C262.375,592.458 260.431,589.129 260.168,588.678C259.565,587.647 258.335,585.54 255.398,574.528C253.699,568.157 255.279,567.808 250.818,553.402Z" style="fill:rgb(61,137,108);"/>
                <path d="M341.77,497.611C342.785,495.011 344.914,493.173 344.726,495.473C344.7,495.791 344.346,497.88 344.284,498.486C343.162,509.336 343.278,516.512 343.095,518.485C342.414,525.837 343.238,556.468 342.549,566.503C342.012,574.325 342.731,581.085 335.475,583.391C332.031,584.485 327.722,581.706 326.755,579.424C326.042,577.742 327.135,570.249 327.25,569.459C328.059,563.914 328.425,563.996 329.391,558.48C330.755,550.697 331.842,542.767 331.877,542.574C332.817,537.451 333.411,529.95 334.184,525.446C336.726,510.632 338.632,506.923 338.749,506.574C341.76,497.638 341.76,497.638 341.77,497.611Z" style="fill:rgb(61,137,108);"/>
                <path d="M600.464,691.87C598.944,691.729 589.662,690.871 581.579,689.136C567.859,686.192 559.872,680.816 558.867,680.042C555.448,677.407 557.49,672.915 562.305,675.83C566.341,678.273 566.395,678.149 570.635,680.189C582.906,686.094 620.779,688.938 634.502,688.571C644.551,688.302 653.524,686.455 658.424,685.183C662.154,684.215 666.983,683.257 671.499,681.497C684.895,676.277 687.561,673.378 688.631,672.715C691.564,670.896 693.939,673.173 692.909,675.683C691.998,677.905 683.375,682.476 674.319,686.063C663.892,690.193 647.992,693.147 640.506,693.592C626.242,694.441 614.429,693.39 600.464,691.87Z" style="fill:rgb(31,47,57);"/>
                <g transform="matrix(0.967362,0,0,0.967362,6.832067,14.039869)">
                    <path d="M199.43,382.375C202.546,381.209 203.974,382.872 206.357,386.424C208.382,389.443 208.203,391.54 210.096,394.637C214.482,401.812 216.986,394.584 216.928,391.903C216.874,389.397 215.094,380.497 219.907,380.41C222.781,380.358 224.359,386.395 225.492,392.603C225.885,394.757 226.461,402.505 224.048,410.168C220.541,421.311 214.393,422.577 204.495,421.862C198.441,421.424 193.9,416.588 193.243,415.854C192.364,414.871 185.369,407.894 187.526,399.5C188.461,395.864 192.84,397.538 194.652,400.398C196.162,402.782 196.746,406.445 199.418,406.976C202.385,407.566 201.765,402.501 201.706,402.143C200.236,393.15 192.616,384.924 199.43,382.375Z" style="fill:rgb(228,88,89);"/>
                </g>
                <g transform="matrix(0.928592,-0.197026,0.197026,0.928592,-38.879324,178.96896)">
                    <path d="M681.103,410.8C683.893,415.097 681.298,426.094 678.182,432.357C677.069,434.593 671.472,443.721 663.479,442.649C655.994,441.644 641.069,436.432 640.517,428.029C640.315,424.959 640.692,415.65 643.073,415.29C647.172,414.668 649.464,420.261 652.299,417.96C654.522,416.156 655.502,405.995 658.352,405.885C661.485,405.764 663.446,410.292 666.004,412.569C672.71,418.536 674.091,407.517 673.994,405.544C673.812,401.846 679.417,408.205 681.103,410.8Z" style="fill:rgb(228,88,89);"/>
                </g>
                <path d="M335.509,715.776C330.912,716.116 330.946,716.377 322.476,719.425C321.319,719.842 320.244,720.076 314.502,721.509C307.709,723.205 290.97,721.285 290.331,717.535C290.134,716.381 291.016,713.989 294.426,714.869C296.866,715.498 303.029,718.3 315.414,716.025C320.414,715.106 330.616,709.694 338.492,710.579C348.057,711.654 349.527,717.256 360.449,716.148C364.828,715.704 372.281,711.013 376.484,710.4C383.318,709.403 387.554,711.275 388.433,711.663C395.787,714.913 398.22,716.774 407.545,714.689C409.556,714.239 410.812,713.836 411.928,715.239C412.683,716.189 413.461,720.175 402.514,720.753C391.861,721.315 388.198,715.893 382.48,715.723C378.412,715.603 376.788,715.16 368.695,718.942C353.729,725.934 348.119,718.418 340.582,716.222C338.971,715.753 335.916,715.773 335.509,715.776Z" style="fill:rgb(242,253,253);"/>
                <path d="M383.44,651.936C379.172,651.439 357.43,647.137 354.566,643.455C354.106,642.863 353.114,638.124 358.618,640.188C381.897,648.915 405.399,648.11 409.516,647.968C430.523,647.249 445.955,640.381 452.742,635.87C458.826,631.827 460.278,636.017 458.476,638.48C456.654,640.971 443.969,646.522 442.35,647.11C416.572,656.48 389.54,652.707 383.44,651.936Z" style="fill:rgb(31,47,57);"/>
                <path d="M717.443,715.818C706.707,714.595 705.365,717.819 693.402,721.138C691.553,721.651 681.899,724.33 669.419,721.793C668.999,721.707 664.691,720.832 666.361,717.384C667.295,715.457 673.682,718.323 682.503,717.542C688.833,716.981 691.108,716.79 695.701,714.981C706.887,710.573 707.424,710.445 713.491,710.296C722.654,710.069 725.927,714.868 732.501,714.754C738.107,714.657 744.818,709.022 745.604,713.477C746.083,716.196 743.729,716.801 737.365,719.206C729.522,722.17 725.563,717.731 717.443,715.818Z" style="fill:rgb(242,252,253);"/>
                <path d="M654.522,576.347C660.91,576.833 660.663,575.33 664.446,574.222C668.162,573.134 668.771,577.528 666.237,579.09C665.721,579.408 661.343,581.567 656.5,581.455C649.987,581.305 649.354,579.638 645.581,580.776C641.852,581.9 637.955,585.241 630.609,582.215C625.183,579.98 625.028,581.715 619.543,582.711C614.261,583.671 614.232,582.182 602.498,582.315C595.665,582.392 592.171,582.784 590.827,581.235C590.128,580.429 589.481,577.526 593.477,577.239C596.149,577.047 606.381,577.136 607.503,577.145C613.341,577.196 615.011,578.785 621.54,576.628C631.296,573.405 631.963,580.236 639.473,577.432C644.145,575.688 645.649,574.134 652.383,575.878C653.446,576.154 653.441,576.11 654.522,576.347Z" style="fill:rgb(242,253,253);"/>
                <path d="M251.413,596.236C251.814,596.06 253.307,595.974 253.513,596.334C253.524,596.353 253.472,598.89 252.889,603.56C252.639,605.558 252.65,605.625 251.236,607.075C231.59,619.443 232.264,621.418 229.264,623.043C227.024,624.256 224.459,621.525 223.458,620.543C221.968,619.081 222.125,618.968 221.724,618.495C221.769,618.185 221.613,617.868 221.658,617.557C222.027,614.997 235.927,604.351 239.452,602.418C241.454,601.32 246.073,598.128 249.619,596.842C250.212,596.627 250.835,596.49 251.413,596.236Z" style="fill:rgb(31,47,57);"/>
                <path d="M351.618,751.062C349.725,750.405 349.734,750.419 349.574,750.353C346.213,748.959 346.857,745.492 349.459,745.265C352.172,745.029 361.141,750.278 373.571,745.742C373.886,745.627 376.828,744.553 377.705,746.371C379.654,750.409 372.758,751.064 369.379,752.054C362.338,754.116 355.397,751.856 351.618,751.062Z" style="fill:rgb(239,253,252);"/>
                <path d="M416.497,604.492C421.452,603.309 421.45,603.315 426.539,602.896C431.039,602.525 431.027,602.628 435.514,602.173C435.719,602.152 437.643,601.957 438.037,602.711C438.302,603.22 438.248,603.278 437.829,603.665C436.502,604.888 435.799,604.676 433.668,605.817C426.851,609.467 426.561,608.997 423.543,608.316C416.874,606.811 413.062,607.898 412.589,607.381C412.442,607.22 412.542,606.033 412.759,605.83C412.984,605.62 413.014,605.682 416.497,604.492Z" style="fill:rgb(190,201,75);"/>
                <path d="M430.506,546.851C426.069,546.765 421.585,547.08 420.905,543.448C420.889,543.365 420.59,539.738 424.476,539.283C425.385,539.177 430.68,539.095 432.358,539.864C435.874,541.474 435.238,546.151 431.544,546.774C431.202,546.832 430.848,546.793 430.506,546.851Z" style="fill:rgb(31,47,57);"/>
                <path d="M477.534,547.043C477.165,546.93 476.768,546.921 476.399,546.809C475.041,546.396 474.595,545.658 474.5,545.5C471.794,541.024 478.022,538.608 483.546,539.058C483.933,539.09 487.005,539.34 486.957,542.506C486.886,547.218 479.391,547.026 477.534,547.043Z" style="fill:rgb(31,47,57);"/>
                <path d="M799.523,783.86C799.103,783.828 797.397,784.099 796.101,782.954C795.407,782.34 792.122,777.87 800.422,776.13C802.846,775.622 806.929,775.071 807.449,778.508C808.166,783.247 799.884,783.812 799.523,783.86Z" style="fill:rgb(31,47,57);"/>
                <path d="M507.485,813.134C505.904,813.058 505.847,813.307 504.436,812.607C502.094,811.444 501.566,805.52 509.48,805.149C515.985,804.844 517.222,811.46 509.574,812.853C509.408,812.883 509.419,812.873 507.485,813.134Z" style="fill:rgb(31,47,57);"/>
                <path d="M455.572,541.917C455.893,541.894 456.209,541.829 456.53,541.806C462.926,541.354 462.992,548.021 457.481,549.43C450.415,551.236 449.371,546.361 450.617,544.572C452.072,542.482 455.017,542.065 455.572,541.917Z" style="fill:rgb(31,47,57);"/>
                <path d="M616.496,597.222C616.498,597.222 620.357,597.182 621.527,597.363C621.847,597.412 624.655,597.846 623.947,600.618C623.432,602.639 621.533,602.51 620.501,602.526C614.881,602.612 609.326,602.786 609.366,599.498C609.401,596.544 613.614,597.133 616.496,597.222Z" style="fill:rgb(240,253,251);"/>
                <path d="M769.065,788.487C769.095,788.146 769.084,787.801 769.114,787.46C769.691,780.797 776.361,781.495 776.783,787.481C777.219,793.671 772.756,795.303 770.261,792.727C768.856,791.276 769.101,789.111 769.065,788.487Z" style="fill:rgb(31,47,57);"/>
                <path d="M191.784,716.471C191.757,716.878 192.102,718.454 190.906,719.832C186.317,725.122 181.142,715.154 184.707,711.715C186.621,709.868 190.518,710.649 191.618,715.474C191.693,715.802 191.709,716.143 191.784,716.471Z" style="fill:rgb(31,47,57);"/>
                <path d="M745.155,796.556C745.18,797.048 745.902,800.975 743.207,803.103C741.292,804.614 736.745,803.652 737.64,797.52C738.634,790.715 743.913,792.738 744.843,795.364C744.98,795.751 745.018,796.169 745.155,796.556Z" style="fill:rgb(31,47,57);"/>
                <path d="M489.574,808.516C489.745,808.114 489.849,807.685 490.02,807.282C491.404,804.023 495.925,804.737 496.885,808.399C498.127,813.139 494.109,816.783 491.337,814.755C488.524,812.697 489.531,808.879 489.574,808.516Z" style="fill:rgb(31,47,57);"/>
                <path d="M755.498,802.838C755.155,802.763 754.794,802.799 754.451,802.724C749.944,801.741 750.292,795.25 755.512,794.605C760.523,793.986 761.74,798.444 759.829,800.753C758.021,802.938 756,802.746 755.498,802.838Z" style="fill:rgb(31,47,57);"/>
                <path d="M193.427,727.846C193.546,727.909 195.876,728.21 196.372,731.52C197.563,739.473 188.189,739.168 188.908,732.537C189.517,726.92 193.332,727.858 193.427,727.846Z" style="fill:rgb(31,47,57);"/>
                <path d="M180.433,731.925C180.109,731.806 179.752,731.796 179.428,731.677C175.82,730.36 175.637,724.507 179.544,723.668C184.98,722.5 187.221,730.098 182.587,731.739C181.408,732.157 180.484,731.92 180.433,731.925Z" style="fill:rgb(31,47,57);"/>
            </g>
        </g>
    </g>
</svg>
