<?xml version="1.0" encoding="UTF-8" standalone="no"?>
<!DOCTYPE svg PUBLIC "-//W3C//DTD SVG 1.1//EN" "http://www.w3.org/Graphics/SVG/1.1/DTD/svg11.dtd">
<svg width="100%" height="100%" viewBox="0 0 412 594" version="1.1" xmlns="http://www.w3.org/2000/svg" xmlns:xlink="http://www.w3.org/1999/xlink" xml:space="preserve" xmlns:serif="http://www.serif.com/" style="fill-rule:evenodd;clip-rule:evenodd;stroke-linejoin:round;stroke-miterlimit:2;">
    <g transform="matrix(1,0,0,1,-8683.422243,-10330.286771)">
        <g transform="matrix(1.95055,0,0,3.948123,-7265.768949,-11556.637138)">
            <g id="Fondo" transform="matrix(0.600792,0,0,0.296818,7974.603504,5469.586766)">
                <path d="M680.942,521.563C679.709,530.798 676.918,542.67 676.095,545.378C672.375,557.626 668.348,566.716 667.548,568.521C665.986,572.045 664.308,576.617 657.662,588.596C652.127,598.574 652.2,598.598 646.368,608.42C644.142,612.169 639.842,619.128 638.103,622.289C636.906,624.464 631.738,633.363 631.18,634.323C630.244,635.936 630.338,635.965 619.609,654.567C614.405,663.591 613.628,664.582 612.608,666.56C612.004,667.732 603.622,681.317 602.244,683.33C600.498,685.882 600.707,686.019 591.331,699.388C582.683,711.719 577.068,719.165 566.855,728.874C557.378,737.884 546.856,743.153 543.324,745.196C542.257,745.814 523.254,755.872 503.506,755.917C491.295,755.945 483.938,753.331 474.39,747.682C465.734,742.56 455.869,733.077 449.744,726.282C446.864,723.087 446.767,723.195 444.082,719.851C444.063,719.827 438.512,713.782 434.085,707.835C433.376,706.882 433.256,706.995 424.922,696.163C424.5,695.614 413.069,679.941 409.625,674.417C407.222,670.562 406.978,670.731 402.042,662.786C401.716,662.261 401.627,662.323 397.798,656.319C395.096,652.083 385.951,637.009 384.581,634.453C384.046,633.455 383.233,632.316 381.674,629.409C377.867,622.309 377.663,622.435 373.907,615.294C371.888,611.454 370.367,609.03 368.368,604.564C367.972,603.681 367.815,603.773 363.062,593.698C350.771,567.648 345.164,544.378 344.164,538.565C343.584,535.189 338.553,516.345 340.258,486.485C341.824,459.053 351.67,439.673 357.631,431.591C360.023,428.349 360.375,428.423 360.198,427.579C360.167,427.434 359.591,426.796 359.407,426.726C358.174,426.26 357.854,427.583 343.401,422.793C342.552,422.511 335.549,420.784 336.598,416.527C337.454,413.055 341.753,414.338 351.584,411.852C362.928,408.984 362.934,408.742 370.658,404.808C371.583,404.336 373.452,403.952 373.331,402.534C373.226,401.298 372.423,401.82 366.381,395.617C362.927,392.071 358.323,386.474 356.551,383.468C356.25,382.958 354.468,380.474 353.435,378.537C350.217,372.502 342.724,358.958 343.814,342.522C344.283,335.453 348.617,335.22 352.073,339.836C353.023,341.105 356.705,346.022 366.716,353.177C392.055,371.284 417.114,370.651 426.507,370.578C426.72,370.577 429.228,370.557 428.285,368.595C428.067,368.14 427.887,368.275 424.917,363.261C424.369,362.336 418.127,349.395 417.43,347.526C413.812,337.825 413.328,335.659 412.334,330.527C411.204,324.688 413.237,320.837 419.607,323.186C421.907,324.033 441.546,332.56 449.629,337.287C449.64,337.293 455.685,340.64 458.609,342.304C458.9,342.47 478.05,354.565 486.371,362.702C487.866,364.163 488.959,363.585 488.666,361.502C488.244,358.493 488.137,358.521 487.759,351.484C487.64,349.256 485.465,309.513 488.974,281.569C491.458,261.79 494.01,257.152 495.051,255.259C495.536,254.378 496.075,250.82 505.525,249.707C516.924,248.364 527.686,252.526 531.287,255.746C538.054,261.797 535.128,268.588 531.294,284.449C528.855,294.539 525.12,306.093 524.437,342.499C524.411,343.859 524.457,343.848 524.513,359.499C524.523,362.204 526.167,361.267 526.663,360.819C529.75,358.032 540.582,351.763 556.315,336.308C557.453,335.19 566.78,326.459 575.57,314.553C583.232,304.174 582.684,301.077 586.482,301.611C589.523,302.039 590.539,305.872 593.348,311.573C597.862,320.74 601.369,337.24 599.685,350.522C598.503,359.842 596.089,366.114 596.123,366.546C596.134,366.692 596.207,367.626 597.403,367.862C597.448,367.871 606.514,368.063 615.466,366.318C617.133,365.993 632.008,364.784 656.251,352.051C659.179,350.513 667.084,345.399 669.5,345.496C670.578,345.539 674.368,346.454 672.767,352.566C670.379,361.682 666.296,368.671 663.561,373.538C663.138,374.292 660.839,378.384 657.411,382.425C657.146,382.737 654.282,386.112 654.228,386.431C654.206,386.561 654.015,387.699 654.714,388.006C654.849,388.065 654.865,387.961 656.545,388.182C681.082,391.4 683.668,385.277 686.892,389.201C688.566,391.239 686.534,394.011 686.289,394.346C684.238,397.144 680.291,400.308 679.718,400.767C675.539,404.117 675.455,403.994 669.679,406.861C661.882,410.731 651.526,412.95 651.75,413.315C652.073,413.841 652.467,413.462 657.247,418.723C662.418,424.415 667.578,431.158 673.303,445.573C675.309,450.625 680.198,463.401 682.129,487.528C683.379,503.142 681.299,518.862 680.942,521.563Z" style="fill:rgb(62,49,40);"/>
                <path d="M365.71,580.418C364.204,576.917 364.245,576.918 362.831,573.363C361.831,570.85 361.986,570.808 360.951,568.307C358.891,563.33 355.393,551.775 354.874,549.398C353.89,544.893 353.452,545.022 352.521,540.495C350.694,531.61 350.245,528.605 350.089,527.564C349.074,520.768 347.911,515.438 347.805,502.497C347.646,482.893 348.812,479.597 349.886,472.561C350.984,465.367 351.87,464.093 352.254,462.445C353.193,458.413 353.265,458.448 354.673,454.567C355.975,450.98 356.095,451.047 357.634,447.569C358.996,444.493 362.577,438.43 363.944,436.855C367.148,433.161 368.999,429.61 371.611,428.942C372.705,428.662 379.658,430.118 390.502,429.672C400.805,429.249 407.529,426.769 413.529,425.614C422.333,423.919 436.513,417.328 438.578,416.758C440.962,416.1 455.041,410.318 461.503,409.572C463.234,409.373 463.916,409.935 463.699,411.51C462.479,420.353 460.993,423.898 462.491,440.501C463.889,456.013 471.374,472.115 476.04,479.744C477.121,481.512 478.746,484.332 479.066,484.781C479.368,485.206 482.07,489.004 483.417,489.647C486.565,491.149 488.288,489.149 490.862,485.738C491.131,485.382 493.404,482.371 494.146,481.225C497.344,476.283 502.909,471.024 504.57,468.56C505.828,466.694 508.148,464.212 508.156,464.204C510.233,462.154 510.03,461.999 512.404,459.422C516.245,455.253 518.045,452.426 520.709,449.679C521.897,448.455 526.236,442.291 526.698,441.635C529.749,437.301 529.474,437.144 531.778,433.693C532.171,433.104 535.151,426.705 535.263,426.413C537.559,420.434 538.078,417.277 538.213,416.457C539.151,410.752 538.813,410.066 539.588,409.628C541.411,408.596 544.457,412.511 546.732,414.228C551.847,418.087 551.47,418.523 556.629,422.341C558.088,423.42 558.343,423.067 559.565,424.43C560.662,425.655 564.72,428.592 565.186,428.93C568.221,431.127 574.502,435.984 575.497,436.505C579.074,438.378 579.001,438.479 582.431,440.602C583.389,441.196 583.387,441.174 584.336,441.759C586.851,443.311 586.724,443.503 589.358,444.828C593.259,446.791 594.653,448.022 607.39,453.731C610.148,454.967 620.222,458.378 623.571,459.152C627.972,460.169 632.417,458.013 630.901,452.36C630.278,450.034 621.682,430.356 621.331,429.569C620.536,427.789 615.507,415.557 614.933,414.354C614.197,412.814 614.546,410.7 615.447,410.333C615.472,410.323 636.923,411.944 639.648,413.139C642.028,414.183 649.184,421.663 650.317,422.697C653.065,425.202 658.702,433.864 660.34,436.6C662.411,440.061 662.535,439.996 664.13,443.687C671.802,461.439 672.024,471.558 673.412,478.516C674.265,482.792 674.779,500.003 674.555,504.501C674.012,515.411 673.939,516.344 673.447,518.489C672.066,524.504 672.088,531.409 670.379,535.466C669.188,538.294 669.379,538.34 668.776,542.569C668.325,545.73 667.582,545.495 666.758,548.567C665.388,553.678 664.949,553.522 663.688,557.563C663.347,558.658 663.337,558.649 657.932,570.697C656.835,573.143 656.275,572.838 655.678,574.573C654.437,578.184 654.013,577.981 652.456,581.48C651.833,582.879 649.063,587.505 648.603,588.548C647.268,591.575 642.626,598.548 642.29,599.395C642.078,599.929 641.805,600.621 638.724,605.63C634.153,613.066 634.345,613.169 633.897,613.78C632.01,616.353 630.766,619.339 630.133,620.233C629.079,621.722 628.859,621.514 628.782,621.651C628.493,622.166 628.377,622.762 628.15,623.307C627.546,624.753 626.29,626.93 626.113,627.236C625.646,628.046 620.715,636.59 620.25,637.342C618.356,640.405 618.623,640.541 616.803,643.654C615.44,645.984 615.321,645.892 614.142,648.302C613.84,648.92 610.386,654.999 610.191,655.266C607.088,659.511 604.388,665.531 602.735,667.637C601.349,669.405 601.399,669.433 600.561,671.53C600.355,672.047 596.738,677.11 594.707,680.6C593.578,682.541 593.444,682.427 592.242,684.329C591.169,686.028 591.191,686.038 591.098,686.185C589.431,688.806 588.447,689.14 586.56,692.544C586.449,692.744 582.027,698.48 579.404,702.435C577.652,705.075 577.487,704.944 576.447,706.457C574.368,709.48 573.27,710.127 572.399,711.412C571.735,712.391 569.863,714.366 569.63,714.612C560.729,724.006 559.578,724.868 558.58,725.616C555.793,727.702 554.838,729.388 546.747,733.869C545.364,734.634 544.744,735.668 541.731,736.949C539.672,737.825 539.721,737.871 537.793,738.97C536.582,739.66 530.485,742.243 530.435,742.259C528.562,742.843 528.526,742.716 523.556,744.65C518.109,746.768 499.836,749.456 490.534,746.387C479.535,742.758 473.747,737.741 470.251,734.816C463.327,729.024 462.34,728.002 460.205,725.773C459.657,725.201 454.092,719.392 453.384,718.602C453.348,718.562 448.201,712.528 445.868,710.136C444.804,709.046 444.983,708.866 443.724,707.332C443.327,706.848 439.506,702.194 438.74,701.298C436.858,699.096 437.258,698.81 435.378,696.608C430.285,690.645 430.715,690.33 427.178,685.758C424.589,682.413 424.328,682.614 423.192,680.678C420.635,676.322 417.093,671.771 414.079,666.786C413.242,665.401 406.741,656.054 406.456,655.525C405.93,654.545 404.807,652.453 399.204,643.666C397.196,640.517 396.914,640.621 396.45,639.527C394.807,635.647 390.273,629.548 388.365,625.562C386.268,621.18 385.012,619.355 384.951,619.238C383.729,616.869 383.65,616.931 382.385,614.573C373.343,597.717 373.388,597.02 372.986,596.251C372.904,596.094 372.111,594.579 371.968,594.275C370.438,591.031 370.664,590.946 369.154,587.7C368.531,586.361 368.323,586.469 365.71,580.418Z" style="fill:rgb(243,62,52);"/>
                <path d="M518.067,314.467C517.036,324.968 517.114,324.961 516.773,335.509C516.126,355.571 516.851,359.517 516.933,368.489C516.976,373.304 519.499,375.524 524.685,371.752C533.363,365.441 535.531,364.693 539.333,361.285C541.308,359.515 541.772,359.606 544.366,357.34C547.311,354.767 547.356,354.853 550.359,352.32C551.399,351.443 551.485,351.568 557.215,346.199C559.533,344.027 559.671,344.194 561.796,341.807C561.928,341.659 567.592,336.556 572.163,331.205C574.242,328.772 574.35,328.892 576.384,326.407C578.39,323.955 583.831,316.747 584.209,316.209C584.677,315.544 584.696,315.464 585.504,315.465C586.796,315.466 586.442,316.077 587.841,319.364C589.333,322.869 589.366,322.854 590.288,326.558C593.51,339.51 591.967,349.547 591.664,351.524C590.217,360.941 588.375,365.742 585.634,370.576C584.231,373.051 583.676,373.435 581.243,371.989C575.529,368.595 574.195,367.983 572.019,370.058C568.323,373.583 574.2,376.783 574.729,377.07C578.289,379.009 578.148,379.218 581.617,381.32C582.014,381.56 581.94,381.65 586.171,384.911C592.101,389.483 597.168,396.964 597.963,398.138C602.025,404.136 601.838,404.228 605.217,410.644C608.63,417.122 613.732,430.582 616.359,436.558C618.31,440.998 618.753,443.548 620.444,447.519C621.268,449.455 620.498,450.157 618.498,449.506C618.38,449.467 604.125,443.819 602.719,443.079C595.578,439.324 595.477,439.543 588.66,435.249C581.315,430.622 581.3,430.653 580.68,430.223C576.808,427.531 575.02,426.867 570.666,423.287C570.011,422.748 569.865,422.951 562.199,416.9C562.101,416.822 559.938,415.366 556.564,412.424C555.3,411.323 552.476,409.321 548.408,405.601C541.057,398.88 540.324,398.445 538.487,394.506C536.874,391.049 531.604,390.204 531.645,396.497C531.69,403.55 533.648,412.63 526.143,428.316C524.525,431.699 518.131,441.074 514.397,445.414C508.536,452.226 507.578,453.42 507.006,454.134C506.231,455.1 506.01,454.907 496.877,465.842C493.223,470.216 493.223,470.197 489.658,474.63C486.485,478.577 484.732,478.791 483.824,477.315C475.703,464.11 473.681,455.992 472.643,452.462C468.512,438.418 469.401,426.749 469.572,424.505C469.847,420.888 470.209,416.02 473.212,407.399C474.762,402.95 477.161,396.738 484.968,387.918C485.018,387.862 489.537,383.443 491.696,381.76C496.216,378.237 497.792,378.48 497.441,374.506C497.156,371.277 492.271,328.73 496.115,287.473C496.387,284.555 496.835,277.18 498.786,268.567C500.358,261.624 501.029,259.017 504.395,258.115C512.01,256.073 526.284,258.677 527.364,264.524C528.309,269.643 523.755,276.371 520.1,298.443C518.542,307.853 518.16,313.178 518.067,314.467Z" style="fill:rgb(92,183,69);"/>
                <path d="M358.825,419.184C358.764,418.91 384.662,405.543 395.174,398.027C404.215,391.564 404.651,391.097 405.348,390.353C409.154,386.285 403.95,384.138 403.578,384.082C400.79,383.662 395.617,388.958 384.359,396.278C382.092,397.752 381.175,397.918 376.331,393.701C370.026,388.212 370.035,388.235 369.915,388.094C369.587,387.707 366.835,384.462 365.928,383.173C358.793,373.026 357.204,368.79 356.691,367.423C355.257,363.601 354.426,363.634 352.88,357.412C351.874,353.363 353.16,352.438 353.459,352.59C353.76,352.743 355.397,354.278 355.56,354.43C358.97,357.628 359.208,357.554 361.597,359.37C364.51,361.584 366.028,362.384 366.44,362.601C371.648,365.346 386.057,375.82 412.542,378.056C424.961,379.104 439.703,377.288 440.418,377.128C444.041,376.315 444.558,372.086 441.501,370.499C434.717,366.977 435.379,365.245 430.177,356.699C428.021,353.158 423.664,342.686 421.827,336.417C420.3,331.204 424.952,334.31 427.564,335.355C433.807,337.855 450.003,346.408 454.636,349.274C456.553,350.459 466.597,355.955 485.238,371.811C489.179,375.163 487.105,376.032 485.87,376.956C481.939,379.902 478.757,383.606 478.206,384.248C467.472,396.748 470.141,399.901 465.513,400.583C462.984,400.955 463.017,401.024 460.55,401.678C443.338,406.245 443.156,407.376 436.535,409.594C430.521,411.608 424.363,414.278 423.528,414.577C402.349,422.159 393.178,421.912 381.496,421.816C376.081,421.772 358.982,419.886 358.825,419.184Z" style="fill:rgb(92,183,69);"/>
                <path d="M671.006,398.093C670.992,398.889 661.419,401.978 656.563,402.839C654.133,403.27 651.704,404.169 642.5,404.497C630.58,404.922 616.775,402.494 614.566,402.106C609.774,401.264 609.303,401.495 606.663,397.4C600.999,388.614 598.675,385.46 591.01,378.969C590.269,378.342 590.113,378.437 589.876,377.506C589.442,375.804 592.257,375.683 592.514,375.672C602.439,375.244 613.349,376.24 633.4,370.163C638.911,368.492 639.326,368.606 649.642,363.82C652.509,362.49 652.49,362.498 655.269,361.017C656.484,360.369 660.881,357.574 661.476,357.816C661.611,357.871 662.586,358.268 662.272,359.456C662.186,359.785 659.316,365.525 658.168,367.307C656.374,370.093 656.409,370.11 656.243,370.345C654.041,373.464 654.418,373.717 651.392,377.418C648.934,380.425 649.023,380.494 646.124,383.086C641.534,387.189 641.599,387.304 641.186,388.393C640.621,389.882 641.93,392.492 653.505,395.478C654.719,395.791 671.03,396.656 671.006,398.093Z" style="fill:rgb(92,183,69);"/>
                <path d="M371.924,481.581C369.835,491.949 371.635,496.268 366.463,497.172C365.023,497.423 360.303,496.939 360.436,489.5C360.575,481.751 364.002,465.612 368.783,455.633C370.111,452.861 370.379,451.487 374.392,445.423C375.791,443.31 378.143,440.36 381.492,440.61C384.558,440.84 387.77,444.155 384.854,448.72C381.604,453.808 381.657,453.831 379.098,459.316C375.145,467.789 372.615,478.957 371.924,481.581Z" style="fill:rgb(251,247,244);"/>
                <g transform="matrix(1,0,0,1,-18.917663,-23.889312)">
                    <path d="M528.515,518.609C530.307,518.698 530.297,518.678 530.45,518.706C530.822,518.772 532.648,519.098 534.07,521.734C538.425,529.801 538.36,535.381 537.398,541.481C536.587,546.629 531.791,559.295 524.306,549.641C521.686,546.261 520.777,538.669 520.759,538.475C519.86,528.678 522.938,523.678 523.615,522.577C526.194,518.389 527.298,518.998 528.515,518.609Z" style="fill:rgb(75,44,31);"/>
                </g>
                <g transform="matrix(1,0,0,1,6.615593,-20.396722)">
                    <path d="M559.655,566.532C560.224,563.392 560.133,563.371 560.477,562.492C560.793,561.687 562.371,557.665 566.554,553.551C569.998,550.164 573.779,551.518 574.292,551.829C577.877,554.004 578.474,568.215 574.203,574.328C573.255,575.686 573.487,575.822 571.059,579.16C569.891,580.765 564.869,585.35 561.803,583.106C559.748,581.603 559.531,578.889 559.451,578.512C558.322,573.193 559.095,570.029 559.655,566.532Z" style="fill:rgb(75,44,31);"/>
                </g>
                <path d="M441.198,544.483C441.252,543.923 441.673,539.537 442.719,537.607C443.939,535.356 445.892,531.882 449.536,533.416C451.935,534.425 455.008,540.446 455.764,542.398C457.408,546.648 457.576,555.155 456.171,561.432C454.544,568.7 447.749,567.44 444.459,561.524C443.172,559.211 442.505,558.676 441.772,555.425C440.816,551.181 440.924,549.445 441.198,544.483Z" style="fill:rgb(75,44,31);"/>
                <g transform="matrix(1,0,0,1,-14.635737,-3.56943)">
                    <path d="M500.164,709.607C499.768,707.561 499.725,707.58 499.441,705.507C499.354,704.875 499.02,702.437 499.828,697.55C501.113,689.775 507.343,692.346 508.693,693.2C516.943,698.418 517.511,708.925 517.747,712.481C518.388,722.156 510.916,722.196 506.674,719.246C501.469,715.625 500.38,710.205 500.164,709.607Z" style="fill:rgb(75,44,31);"/>
                </g>
                <path d="M403.776,463.628C403.714,463.745 402.224,467.639 396.24,473.161C393.542,475.65 387.572,475.873 387.307,469.51C386.891,459.505 389.222,455.733 389.853,454.711C392.265,450.806 392.347,450.853 395.693,447.706C398.893,444.696 407.176,441.891 406.482,454.498C406.351,456.87 405.663,458.828 403.776,463.628Z" style="fill:rgb(75,44,31);"/>
                <g transform="matrix(1,0,0,1,16.693322,58.492816)">
                    <path d="M437.033,594.523C437.029,595.153 436.989,600.762 436.082,602.345C436.031,602.435 435.976,602.381 435.273,603.35C434.029,605.067 432.494,606.964 428.378,604.729C427.108,604.04 426.223,602.875 424.151,600.839C423.86,600.553 423.349,600.05 421.312,596.614C418.413,591.723 418.216,579.232 422.82,575.908C426.955,572.922 433.206,581.195 434.527,584.488C436.855,590.29 436.807,591.597 437.033,594.523Z" style="fill:rgb(75,44,31);"/>
                </g>
                <g transform="matrix(1,0,0,1,13.509545,-7.436305)">
                    <path d="M627.788,543.467C627.801,546.95 628.09,547.651 626.748,550.585C625.699,552.879 624.483,557.519 621.43,560.428C620.91,560.924 620.898,560.895 620.469,561.469C619.95,562.163 616.301,565.507 613.499,565.386C610.584,565.26 609.786,563.727 609.625,563.418C607.565,559.464 608.022,549.874 614.21,541.297C614.781,540.506 620.511,532.563 626.147,538.791C626.275,538.932 627.083,540.227 627.25,540.595C627.775,541.751 627.571,541.794 627.788,543.467Z" style="fill:rgb(75,44,31);"/>
                </g>
                <g transform="matrix(1,0,0,1,-1.376052,-13.438276)">
                    <path d="M576.019,493.532C576.146,501.423 574.453,504.1 572.436,507.457C571.101,509.681 566.832,514.648 562.802,510.242C560.141,507.334 559.753,502.217 559.696,501.475C558.882,490.766 561.082,487.765 562.363,485.422C564.839,480.895 573.489,477.987 576.019,493.532Z" style="fill:rgb(75,44,31);"/>
                </g>
                <path d="M545.72,660.54C545.904,659.662 546.999,654.451 550.208,650.268C559.961,637.559 566.109,648.643 562.694,661.563C562.065,663.943 559.075,667.655 557.15,669.098C555.706,670.179 555.992,670.477 554.558,671.565C551.503,673.885 551.118,674.021 550.44,674.337C547.999,675.475 546.498,673.79 546.385,673.592C544.493,670.269 545.589,661.577 545.72,660.54Z" style="fill:rgb(75,44,31);"/>
                <g transform="matrix(1,0,0,1,2.422104,-21.60479)">
                    <path d="M395.892,614.443C395.745,611.146 395.1,604.875 397.441,601.452C398.44,599.992 401.262,600.077 402.515,600.457C405.909,601.484 409.217,606.906 409.505,607.497C412.722,614.094 414.789,618.613 413.248,626.444C412.832,628.556 409.522,631.035 406.634,629.259C404.789,628.124 404.627,628.387 403.034,626.942C401.117,625.203 399.197,622.913 398.482,621.509C396.085,616.807 396.257,616.725 395.892,614.443Z" style="fill:rgb(75,44,31);"/>
                </g>
                <g transform="matrix(1,0,0,1,-5.311648,-18.856355)">
                    <path d="M594.76,630.539C595.006,629.406 595.404,625.493 599.193,622.146C599.398,621.965 601.013,620.537 601.815,619.954C605.827,617.034 608.831,620.266 609.237,620.703C610.5,622.062 611.521,625.277 611.582,626.492C611.625,627.354 610.632,633.429 610.265,634.437C609.372,636.882 605.468,643.241 604.529,644.525C603.309,646.192 597.585,649.5 595.44,642.521C593.767,637.079 594.564,632.373 594.76,630.539Z" style="fill:rgb(75,44,31);"/>
                </g>
                <g transform="matrix(1,0,0,1,15.436973,-7.091188)">
                    <path d="M414.061,502.481C414.174,495.834 415.181,492.222 419.503,492.413C422.365,492.539 423.542,493.419 425.461,494.567C429.632,497.063 430.901,505.114 430.418,509.493C430.347,510.139 429.882,514.353 428.168,517.3C427.928,517.711 426.686,519.848 422.414,518.809C420.288,518.292 417.547,514.827 416.462,512.515C413.735,506.701 414.084,503.081 414.061,502.481Z" style="fill:rgb(75,44,31);"/>
                </g>
                <path d="M372.94,519.664C373.379,518.767 374.971,515.17 376.573,514.679C380.283,513.544 381.621,517.672 382.859,519.233C385.037,521.98 386.494,528.028 386.707,530.487C386.909,532.825 386.059,538.379 385.711,539.569C384.532,543.604 380.432,543.282 377.256,540.817C367.561,533.294 371.68,523.94 372.94,519.664Z" style="fill:rgb(75,44,31);"/>
                <g transform="matrix(1,0,0,1,11.01423,-0.807322)">
                    <path d="M511.537,607.488C510.788,605.023 510.612,605.072 510.324,602.524C509.754,597.495 511.099,593.214 511.342,592.441C512.254,589.537 516.086,585.223 521.239,588.921C524.941,591.578 525.525,598.95 525.557,599.496C526.381,613.529 519.387,615.743 515.372,612.7C512.477,610.506 512.097,608.702 511.537,607.488Z" style="fill:rgb(75,44,31);"/>
                </g>
                <g transform="matrix(1,0,0,1,17.422193,-16.784805)">
                    <path d="M614.659,490.44C617.053,498.186 615.112,502.798 611.997,506.838C611.654,507.282 609.477,510.943 605.519,511.082C604.914,511.103 601.597,510.7 600.472,506.509C600.164,505.361 597.907,500.711 601.652,490.563C601.925,489.825 604.191,485.534 607.477,485.194C607.977,485.142 610.503,484.881 613.19,487.799C614.367,489.078 614.22,489.297 614.659,490.44Z" style="fill:rgb(75,44,31);"/>
                </g>
                <g transform="matrix(1,0,0,1,29.631426,-69.707318)">
                    <path d="M478.301,709.648C482.83,714.887 482.069,722.3 479.522,723.537C478.911,723.834 474.335,725.457 469.619,722.298C467.953,721.182 464.629,719.345 462.522,712.495C461.904,710.483 460.516,705.696 464.596,703.723C468.102,702.028 472.011,704.07 472.579,704.367C474.271,705.251 476.295,707.116 476.59,707.388C477.652,708.366 477.566,708.418 478.301,709.648Z" style="fill:rgb(75,44,31);"/>
                </g>
                <path d="M489.285,591.357C489.268,591.381 486.323,596.185 481.527,595.354C477.273,594.617 476.369,588.404 477.364,583.468C477.497,582.805 477.838,578.289 482.599,572.574C483.968,570.93 484.903,569.034 487.529,569.281C489.985,569.512 490.751,572.641 491.343,574.55C491.595,575.362 493.559,583.164 491.125,588.343C490.619,589.421 489.446,591.125 489.285,591.357Z" style="fill:rgb(75,44,31);"/>
                <g transform="matrix(1,0,0,1,-18.917663,-23.889312)">
                    <path d="M532.334,538.483C532.279,538.963 531.907,542.192 531.142,544.395C530.706,545.651 530.802,545.884 529.516,546.187C528.501,546.427 527.997,545.317 527.935,545.18C526.855,542.801 525.422,535.978 525.913,532.549C526.285,529.947 527.512,525.427 528.415,525.266C529.733,525.033 529.7,525.428 530.247,526.637C530.485,527.161 531.89,530.264 532.324,533.524C532.617,535.728 532.363,538.029 532.334,538.483Z" style="fill:rgb(226,189,57);"/>
                </g>
                <g transform="matrix(1,0,0,1,6.615593,-20.396722)">
                    <path d="M571.601,562.5C571.383,566.56 571.269,568.227 567.985,573.8C566.962,575.536 567.118,575.651 566.368,576.28C563.292,578.856 563.862,569.518 565.874,564.662C568.546,558.212 570.615,557.65 571.198,557.969C571.951,558.381 571.662,561.203 571.601,562.5Z" style="fill:rgb(226,189,57);"/>
                </g>
                <g transform="matrix(1,0,0,1,-14.635737,-3.56943)">
                    <path d="M512.134,709.552C512.298,710.919 513.225,715.099 511.446,715.156C510.329,715.191 508.95,713.661 507.313,711.639C504.035,707.59 504.766,699.231 505.606,698.646C506.772,697.836 507.938,699.677 508.055,699.862C508.242,700.156 509.212,701.687 510.224,703.632C511.141,705.394 512.018,709.068 512.134,709.552Z" style="fill:rgb(226,189,57);"/>
                </g>
                <path d="M446.442,550.505C446.371,549.754 445.784,543.477 447.063,541.094C447.533,540.218 447.622,540.081 448.594,540.313C448.997,540.41 449.22,541.039 450.269,543.603C450.663,544.566 452.326,548.631 451.682,556.535C451.661,556.796 451.388,560.151 449.666,559.109C449.381,558.936 448.339,556.866 448.237,556.664C446.815,553.84 446.777,553.156 446.442,550.505Z" style="fill:rgb(226,189,57);"/>
                <g transform="matrix(1,0,0,1,16.693322,58.492816)">
                    <path d="M431.252,591.546C431.308,592.094 431.879,597.702 431.402,598.439C430.483,599.86 429.907,599.497 428.96,598.092C426.941,595.097 423.342,589.226 424.634,583.535C424.676,583.35 425.099,581.485 426.33,581.873C426.373,581.886 429.364,585.226 430.73,589.424C430.73,589.424 431.21,591.376 431.252,591.546Z" style="fill:rgb(226,189,57);"/>
                </g>
                <g transform="matrix(1,0,0,1,-1.376052,-13.438276)">
                    <path d="M564.816,495.527C565.174,492.573 565.102,492.573 565.38,491.47C565.465,491.136 566.537,486.9 568.501,488.499C569.395,489.227 572.131,496.176 568.873,502.693C567.946,504.546 568.574,505.605 566.506,505.462C565.689,505.406 565.633,505.32 565.435,504.53C564.785,501.939 564.813,496.249 564.816,495.527Z" style="fill:rgb(226,189,57);"/>
                </g>
                <g transform="matrix(1,0,0,1,13.509545,-7.436305)">
                    <path d="M622.226,545.491C621.923,547.31 622.075,548.879 619.631,553.57C618.584,555.58 615.885,559.167 614.544,559.282C614.506,559.285 613.921,558.478 613.856,558.291C613.746,557.974 613.841,554.17 615.698,549.575C616.908,546.579 617.039,546.645 619.127,544.181C619.281,543.999 620.895,542.095 621.89,543.059C622.69,543.833 622.252,543.991 622.226,545.491Z" style="fill:rgb(226,189,57);"/>
                </g>
                <path d="M396.26,455.338C398.292,452.695 398.315,452.719 398.483,452.483C399.892,450.507 401.378,451.481 401.434,452.512C401.472,453.198 400.644,456.201 400.557,456.517C400.32,457.374 399.427,460.615 395.247,466.278C394.47,467.331 394.52,467.35 394.436,467.424C393.252,468.475 392.513,467.697 392.4,467.579C391.886,467.037 392.956,462.833 393.058,462.431C394.027,458.622 394.417,458.79 396.26,455.338Z" style="fill:rgb(226,189,57);"/>
                <path d="M552.132,658.363C553.134,655.72 553.205,655.598 554.135,654.244C554.323,653.97 556.408,650.934 556.689,650.965C556.859,650.983 557.871,651.093 558.103,652.568C558.203,653.207 558.093,653.863 558.063,654.509C557.952,656.947 557.827,659.822 555.804,662.703C553.854,665.478 552.79,666.776 551.48,666.56C549.552,666.243 551.928,658.988 552.132,658.363Z" style="fill:rgb(226,189,57);"/>
                <g transform="matrix(1,0,0,1,2.422104,-21.60479)">
                    <path d="M406.691,614.427C407.958,617.891 408.289,617.815 408.52,621.503C408.601,622.803 408.782,623.328 407.485,623.277C406.39,623.234 406.171,622.522 405.4,621.595C404.704,620.758 401.893,618.597 400.909,610.47C400.694,608.694 400.702,607.514 401.442,607.389C403.125,607.106 402.964,607.741 403.881,609.172C405.672,611.965 405.544,612.025 406.691,614.427Z" style="fill:rgb(226,189,57);"/>
                </g>
                <g transform="matrix(1,0,0,1,15.436973,-7.091188)">
                    <path d="M424.985,505.45C425.02,506.003 425.394,511.762 424.368,512.342C424.201,512.437 423.022,512.324 422.78,512.153C421.799,511.46 418.331,503.011 419.153,499.36C419.667,497.076 422.719,498.494 424.004,501.744C424.981,504.214 424.871,504.83 424.985,505.45Z" style="fill:rgb(226,189,57);"/>
                </g>
                <g transform="matrix(1,0,0,1,17.422193,-16.784805)">
                    <path d="M604.981,497.609C605.926,494.656 606.254,493.137 607.244,492.09C610.092,489.078 611.046,497.866 608.761,501.66C608.64,501.861 607.401,503.919 607.226,504.158C606.554,505.07 605.058,504.69 604.812,504.308C604.299,503.51 604.919,498.142 604.981,497.609Z" style="fill:rgb(226,189,57);"/>
                </g>
                <g transform="matrix(1,0,0,1,11.01423,-0.807322)">
                    <path d="M515.661,599.497C515.671,599.159 515.752,596.438 516.043,595.291C516.093,595.092 516.622,593.01 518.206,593.911C519.092,594.415 520.853,600.115 520.202,604.462C520.009,605.744 519.749,607.447 518.498,607.447C515.88,607.447 515.679,600.172 515.661,599.497Z" style="fill:rgb(226,189,57);"/>
                </g>
                <g transform="matrix(1,0,0,1,-5.311648,-18.856355)">
                    <path d="M603.845,634.668C601.828,638.742 599.435,639.86 599.942,635.502C600.634,629.549 601.443,628.706 602.913,626.871C604.377,625.043 605.767,625.13 605.768,627.472C605.77,630.778 604.109,634.134 603.845,634.668Z" style="fill:rgb(226,189,57);"/>
                </g>
                <path d="M380.683,528.459C381.013,530.825 381.871,535.388 380.593,535.668C380.188,535.757 379.206,536.246 377.752,533.372C376.458,530.814 376.083,523.55 377.538,522.562C377.817,522.371 378.923,522.597 379.049,522.817C379.595,523.773 380.577,528.001 380.683,528.459Z" style="fill:rgb(226,189,57);"/>
                <g transform="matrix(1,0,0,1,29.631426,-69.707318)">
                    <path d="M470.704,716.281C465.937,709.852 467.976,709.08 468.575,708.968C469.06,708.877 471.292,710.335 471.513,710.479C474.126,712.187 476.103,716.246 475.819,717.597C475.323,719.965 472.605,717.837 472.389,717.668C471.522,716.989 471.549,716.977 470.704,716.281Z" style="fill:rgb(226,189,57);"/>
                </g>
                <path d="M482.873,583.604C483.235,582.562 483.909,579.789 485.366,578.232C485.934,577.625 486.11,577.661 486.7,578.244C487.601,579.134 486.767,582.341 486.73,582.536C485.893,586.937 485.043,589.373 483.506,589.354C481.126,589.326 482.734,584.182 482.873,583.604Z" style="fill:rgb(226,189,57);"/>
            </g>
        </g>
    </g>
</svg>
