<?xml version="1.0" encoding="UTF-8" standalone="no"?>
<!DOCTYPE svg PUBLIC "-//W3C//DTD SVG 1.1//EN" "http://www.w3.org/Graphics/SVG/1.1/DTD/svg11.dtd">
<svg width="100%" height="100%" viewBox="0 0 415 415" version="1.1" xmlns="http://www.w3.org/2000/svg" xmlns:xlink="http://www.w3.org/1999/xlink" xml:space="preserve" xmlns:serif="http://www.serif.com/" style="fill-rule:evenodd;clip-rule:evenodd;stroke-linecap:round;stroke-linejoin:round;stroke-miterlimit:5;">
    <g transform="matrix(1,0,0,1,-9401.793805,-8358.590906)">
        <g transform="matrix(1.276754,0,0,2.756375,-2113.766445,-6854.068498)">
            <g transform="matrix(1.91986,0,0,0.88928,-19947.063448,5346.673946)">
                <path d="M15172.289,200.749C15215.122,200.749 15249.897,235.524 15249.897,278.357C15249.897,321.19 15215.122,355.965 15172.289,355.965C15129.455,355.965 15094.68,321.19 15094.68,278.357C15094.68,235.524 15129.455,200.749 15172.289,200.749ZM15172.289,248.059C15189.01,248.059 15202.586,261.635 15202.586,278.357C15202.586,295.079 15189.01,308.655 15172.289,308.655C15155.567,308.655 15141.991,295.079 15141.991,278.357C15141.991,261.635 15155.567,248.059 15172.289,248.059Z" style="fill:rgb(246,99,121);stroke:rgb(176,1,70);stroke-width:13.75px;"/>
            </g>
        </g>
    </g>
</svg>
