<?xml version="1.0" encoding="UTF-8" standalone="no"?>
<!DOCTYPE svg PUBLIC "-//W3C//DTD SVG 1.1//EN" "http://www.w3.org/Graphics/SVG/1.1/DTD/svg11.dtd">
<svg width="100%" height="100%" viewBox="0 0 638 420" version="1.1" xmlns="http://www.w3.org/2000/svg" xmlns:xlink="http://www.w3.org/1999/xlink" xml:space="preserve" xmlns:serif="http://www.serif.com/" style="fill-rule:evenodd;clip-rule:evenodd;stroke-linejoin:round;stroke-miterlimit:2;">
    <g transform="matrix(1,0,0,1,-10934.741926,-7059.683198)">
        <g transform="matrix(1.276754,0,0,1.897866,-2116.350918,-3543.870901)">
            <g transform="matrix(0.917855,0,0,0.61747,10059.827632,5456.507098)">
                <g transform="matrix(1,0,0,1,-63.636313,-121.573848)">
                    <path d="M295.854,508.5C295.844,457.5 295.833,406.5 295.823,355.5C295.838,346.762 295.385,343.353 298.148,339.281C300.51,335.801 303.333,333.51 308.475,333.175C311.922,332.951 672.819,333.114 704.501,333.128C717.444,333.134 720.45,332.012 725.867,339.246C729.109,343.576 728.462,344.18 728.462,366.5C728.456,557.869 728.3,557.861 728.445,574.5C728.531,584.364 728.693,584.434 727.289,588.413C726.673,590.161 727.117,590.762 729.364,593.604C733.822,599.242 742.063,609.251 746.771,615.297C760.452,632.865 760.38,632.918 761.595,634.426C777.657,654.35 777.504,654.44 778.916,656.157C782.96,661.075 783.863,660.872 783.911,665.494C784.045,678.386 784.45,680.296 781.322,684.366C776.3,690.9 771.191,690.853 766.498,690.8C755.478,690.675 554.157,690.759 525.499,690.736C494.351,690.71 273.56,690.751 273.495,690.75C255.788,690.513 251.373,691.88 246.302,687.75C239.79,682.445 240.384,677.836 240.476,670.5C240.575,662.644 240.425,662.431 242.209,660.255C245.687,656.011 245.647,655.997 247.958,652.851C249.837,650.292 249.967,650.409 252.817,646.753C258.567,639.375 264.569,631.867 265.599,630.579C268.827,626.541 268.843,626.567 269.118,626.213C272.628,621.712 272.676,621.766 276.154,617.233C280.058,612.144 280.131,612.226 284.084,607.163C296.287,591.533 296.633,591.769 297.174,590.391C297.81,588.771 295.698,587.941 295.761,580.503C295.905,563.402 295.812,543.133 295.854,508.5Z" style="fill:rgb(73,57,70);"/>
                </g>
                <g transform="matrix(1,0,0,1,-63.636313,-121.573848)">
                    <path d="M467.5,572.278C447.812,572.418 342.38,572.32 331.5,572.31C318.729,572.298 318.686,572.529 317.652,572.129C316.494,571.682 316.629,571.139 316.637,559.499C316.681,490.419 316.489,359.782 316.779,358.58C317.048,357.462 318.286,357.265 318.456,357.238C318.553,357.223 655.234,357.276 703.504,357.218C706.834,357.214 707.664,357.099 707.966,359.447C708.24,361.573 708.043,437.695 708.025,444.499C707.946,475.255 708.155,569.058 707.922,570.575C707.57,572.859 706.507,572.297 696.499,572.33C658.166,572.332 619.833,572.333 581.5,572.334C543.5,572.315 505.5,572.296 467.5,572.278Z" style="fill:rgb(199,233,245);"/>
                </g>
                <g transform="matrix(1,0,0,1,-63.636313,-121.573848)">
                    <path d="M284.292,617.348C288.545,611.987 288.395,611.894 292.212,607.278C297.71,600.627 299.613,597.013 301.428,596.315C302.628,595.853 302.674,595.991 317.5,595.993C345.166,595.97 372.833,595.946 400.499,595.923C452.947,595.988 452.94,595.917 457.5,595.941C470.005,596.007 469.983,595.904 482.5,595.897C559.168,595.933 635.836,595.97 712.504,596.006C721.482,596.018 722.041,595.231 724.373,597.619C725.622,598.898 748.735,628.666 751.703,632.339C756.909,638.783 756.94,638.746 757.96,640.179C758.325,640.692 759.897,642.521 760.568,643.45C763.492,647.496 770.148,655.536 771.12,656.805C773.779,660.276 774.932,661.443 775.167,661.736C775.309,661.913 777.027,664.058 774.499,664.496C772.732,664.801 349.656,664.627 318.5,664.593C255.919,664.526 255.914,664.972 250.484,664.624C250.316,664.613 248.652,664.507 248.714,663.471C248.766,662.618 250.245,660.655 250.413,660.432C250.722,660.023 253.008,656.989 254.372,655.389C257.664,651.53 259.002,649.379 261.389,646.409C268.414,637.666 268.295,637.579 268.915,636.826C271.826,633.286 271.639,633.146 271.897,632.843C275.762,628.305 275.714,628.291 284.292,617.348Z" style="fill:rgb(230,99,150);"/>
                </g>
                <g transform="matrix(1,0,0,1,-63.636313,-121.573848)">
                    <path d="M504.433,340.433C506.082,341.205 506.723,350.409 503.558,350.907C503.08,350.982 493.538,350.971 491.774,350.969C433.438,350.984 375.836,350.835 317.5,350.849C313.031,350.849 311.496,350.55 310.592,351.569C309.977,352.262 310.202,352.386 310.048,370.499C309.923,385.218 310.103,385.209 310.098,554.499C310.098,556.184 310.097,575.196 310.142,575.561C310.465,578.181 311.901,577.842 319.5,577.815C446.5,577.824 573.5,577.833 700.5,577.843C712.83,577.852 713.157,578.03 713.998,576.777C714.302,576.324 714.166,576.262 714.273,495.497C714.295,478.568 714.21,364.64 714.393,354.5C714.418,353.155 714.676,351.18 712.463,350.867C712.087,350.814 609.059,350.835 585.5,350.824C572.698,350.817 521.652,351.152 521.27,351.026C518.182,350.004 518.542,341.124 520.379,339.883C522.292,338.591 694.071,339.99 711.505,339.677C714.151,339.629 718.863,339.357 721.111,343.681C722.074,345.531 721.84,345.657 721.892,369.499C722.121,473.5 721.666,473.478 721.903,577.497C721.915,582.681 722.432,585.814 719.347,588.298C717.056,590.143 716.735,589.727 697.499,589.759C632.166,589.703 566.833,589.647 501.5,589.591C442.5,589.639 383.5,589.687 324.5,589.736C307.389,589.75 306.89,590.294 304.286,587.7C302.119,585.541 302.864,584.572 302.692,572.493C302.691,572.412 302.694,400.332 302.699,398.5C302.781,371.562 302.471,346.403 302.942,344.614C304.512,338.649 311.738,339.745 317.5,339.773C329.58,339.832 329.572,339.751 468.5,339.788C490.251,339.794 501.258,338.945 504.433,340.433Z" style="fill:rgb(230,99,150);"/>
                </g>
                <g transform="matrix(1,0,0,1,-63.636313,-121.573848)">
                    <path d="M623.498,626.743C622.142,626.737 515.859,626.794 506.499,626.799C468.833,626.789 431.166,626.778 393.5,626.768C333.69,626.76 333.692,626.869 328.492,626.767C323.208,626.663 323.585,623.566 325.291,621.336C330.102,615.047 329.95,614.952 330.368,614.407C333.078,610.879 333.593,609.643 335.347,607.389C338.547,603.28 339.329,600.875 342.486,600.411C343.957,600.195 459.964,600.321 461.499,600.313C488.182,600.168 488.179,600.347 490.499,600.317C495.283,600.255 677.679,600.279 678.503,600.293C684.894,600.407 685.058,601.115 688.72,606.356C691.678,610.589 691.802,610.491 692.058,610.859C700.131,622.493 701.904,622.911 700.261,625.331C699.36,626.659 696.832,626.733 696.511,626.743C695.641,626.769 625.112,626.753 623.498,626.743Z" style="fill:rgb(73,57,70);"/>
                </g>
                <g transform="matrix(1,0,0,1,-63.636313,-121.573848)">
                    <path d="M559.821,675.531C560.14,672.586 560.105,672.599 560.166,672.35C560.182,672.284 560.273,671.907 560.599,671.607C561.129,671.118 563.256,671.107 563.491,671.106C565.153,671.098 667.374,671.095 667.5,671.095C675.016,671.12 774.944,671.081 775.566,671.12C777.157,671.221 777.94,671.957 777.36,676.479C776.244,685.173 766.64,684.205 766.505,684.205C632.836,684.181 499.168,684.158 365.5,684.134C358.06,684.137 281.19,684.165 272.504,684.131C255.321,684.063 252.689,684.85 249.812,682.171C246.544,679.127 246.696,675.516 246.699,673.51C246.701,672.191 247.373,671.619 247.505,671.507C248.116,670.988 248.259,671.103 332.5,671.105C462.67,671.108 462.707,671.007 463.583,671.34C465.304,671.994 463.927,675.863 465.596,678.441C466.917,680.483 468.049,681.083 470.522,681.347C473.392,681.653 532.038,681.537 532.5,681.534C553.372,681.408 554.809,682.005 557.228,680.139C560.075,677.942 559.734,676.043 559.821,675.531Z" style="fill:rgb(230,99,150);"/>
                </g>
                <g transform="matrix(1,0,0,1,-63.636313,-121.573848)">
                    <path d="M452.501,657.072C450.8,657.086 447.204,657.353 445.745,656.149C442.577,653.534 444.532,650.189 448.231,642.374C452.5,633.356 451.305,630.688 458.499,630.614C469.827,630.497 556.94,630.528 565.5,630.531C573.022,630.534 572.172,633.277 575.825,641.351C576.09,641.936 578.494,647.246 579.217,648.628C579.32,648.824 581.278,652.216 580.014,654.253C577.806,657.811 573.289,656.984 572.493,656.981C562.894,656.944 562.903,657.268 452.501,657.072Z" style="fill:rgb(73,57,70);"/>
                </g>
                <g transform="matrix(1,0,0,1,-63.636313,-121.573848)">
                    <path d="M569.509,651.055C563.605,650.881 563.606,651.045 508.5,651.048C504.095,651.048 455.059,651.051 453.432,650.98C453.242,650.972 451.389,650.891 451.569,649.508C451.64,648.959 453.551,645.001 453.737,644.616C457.214,637.415 456.719,636.824 458.437,636.31C459.357,636.034 461.601,636.151 562.497,636.101C565.936,636.1 566.722,635.485 568.074,638.668C569.314,641.587 569.319,641.565 570.694,644.404C573.29,649.762 573.305,649.994 572.69,650.693C572.012,651.464 571.836,651.065 569.509,651.055Z" style="fill:rgb(249,250,251);"/>
                </g>
                <g transform="matrix(1,0,0,1,-63.636313,-121.573848)">
                    <path d="M598.338,447.277C589.723,453.443 589.982,453.767 578.45,462.432C577.165,463.397 575.128,464.757 573.868,465.816C570.527,468.624 570.429,468.477 566.865,470.975C566.354,471.334 566.591,471.615 560.7,475.764C559.82,476.384 556.456,479.945 553.141,475.769C550.96,473.021 552.487,470.548 557.736,466.83C558.34,466.402 558.528,466.506 560.204,465.129C562.148,463.533 562.252,463.692 564.193,462.08C567.195,459.587 567.346,459.8 570.363,457.307C571.444,456.413 573.067,455.586 575.449,453.443C578.603,450.605 578.842,450.933 582.278,448.213C587.01,444.468 586.929,444.358 588.499,443.499C589.419,442.995 593.393,439.365 597.545,436.557C598.503,435.909 605.809,429.953 607.641,428.694C615.164,423.521 617.953,420.626 622.561,417.581C622.946,417.327 622.778,417.121 627.118,414.058C627.336,413.905 627.942,413.196 630.475,411.468C631.54,410.741 635.567,407.39 640.656,403.691C642.853,402.095 642.518,401.692 644.505,400.507C647,399.019 646.953,398.693 647.865,397.968C648.072,397.804 648.344,397.723 648.523,397.529C648.665,397.374 648.638,397.101 648.794,396.96C648.962,396.809 649.791,396.82 652.417,394.398C653.977,392.96 662.938,386.615 666.085,384.012C668.338,382.148 668.537,382.432 671.249,380.156C672.909,378.762 675.388,378.887 675.402,378.891C675.75,379.004 680.987,381.83 677.473,386.478C676.747,387.438 671.923,390.316 666.267,395.169C666.18,395.244 665.598,395.743 665.136,396.053C664.218,396.67 664.202,396.616 663.398,397.356C662.973,397.746 662.893,397.63 657.626,401.674C656.011,402.914 655.864,402.703 653.644,404.682C648.99,408.831 648.75,408.503 646.781,409.887C645.033,411.116 642.769,413.449 639.534,415.54C638.472,416.226 632.404,421.489 629.377,423.314C628.939,423.578 629.018,423.675 624.266,427.156C622.461,428.478 620.177,430.545 615.215,434.175C614.6,434.625 610.193,438.036 610.183,438.044C608.645,439.257 603.832,442.79 598.338,447.277Z" style="fill:rgb(249,250,251);"/>
                </g>
                <g transform="matrix(1,0,0,1,-63.636313,-121.573848)">
                    <path d="M567.563,436.599C568.69,435.728 568.689,435.751 569.796,434.858C575.763,430.046 575.835,430.168 577.2,429.098C578.859,427.797 578.92,427.92 580.646,426.702C582.991,425.047 584.241,423.855 584.566,423.606C585.723,422.719 585.887,422.956 586.875,421.898C587.536,421.189 588.174,420.787 595.461,415.45C601.858,410.764 601.82,410.719 602.401,410.348C605.434,408.407 605.209,408.119 608.206,406.123C608.756,405.757 618.956,397.748 619.443,397.417C622.103,395.611 622.078,395.614 624.631,393.661C636.633,384.483 636.783,384.699 637.803,383.872C640.154,381.965 640.321,382.237 641.401,381.386C645.889,377.849 645.992,378.028 650.726,374.864C654.523,372.326 656.965,374.381 657.351,375.562C657.879,377.179 657.059,378.272 656.39,379.425C655.275,381.346 654.394,380.672 651.314,383.236C651.279,383.266 640.531,391.565 637.454,393.439C635.649,394.538 635.917,394.866 634.168,396.06C627.857,400.363 622.601,404.985 619.707,406.793C614.793,409.863 614.488,410.95 611.622,412.686C607.704,415.06 608.179,415.702 604.319,418.187C600.921,420.375 601.281,420.865 597.753,422.865C595.314,424.248 595.446,424.418 593.31,426.244C592.957,426.546 590.443,428.696 588.626,429.669C586.412,430.854 586.131,431.795 584.227,433.127C582.163,434.573 582.234,434.639 580.265,436.206C579.313,436.965 579.074,436.603 577.268,438.163C576.159,439.121 573.296,440.851 571.838,441.899C571.423,442.197 569.202,444.645 566.458,445.094C565.059,445.323 562.519,443.927 562.788,441.542C563.032,439.386 565.548,437.873 567.563,436.599Z" style="fill:rgb(249,250,251);"/>
                </g>
                <g transform="matrix(1,0,0,1,-63.636313,-121.573848)">
                    <path d="M515.5,676.125C505.147,676.071 493.693,676.147 484.501,676.097C472.207,676.03 471.14,676.477 470.78,674.43C470.184,671.04 471.054,670.537 474.5,670.564C496.661,670.739 529.402,670.512 538.499,670.609C551.727,670.75 552.427,670.165 553.488,671.508C553.768,671.863 554.348,675.178 552.638,675.791C551.355,676.252 551.314,676.035 515.5,676.125Z" style="fill:rgb(230,99,150);"/>
                </g>
                <g transform="matrix(1,0,0,1,-63.636313,-121.573848)">
                    <path d="M389.486,610.9C375.283,610.532 372.413,611.348 371.799,610.297C371.629,610.007 371.301,609.446 373.363,606.389C374.47,604.747 374.988,605.526 392.5,605.228C395.22,605.182 396.761,605.054 395.693,607.567C394.139,611.225 393.446,611.037 389.486,610.9Z" style="fill:rgb(249,250,251);"/>
                </g>
                <g transform="matrix(1,0,0,1,-63.636313,-121.573848)">
                    <path d="M360.499,605.243C364.233,605.237 364.228,605.181 364.552,605.199C365.843,605.268 366.352,605.178 366.167,606.458C366.133,606.697 364.678,609.285 364.541,609.528C363.328,611.686 359.613,610.479 343.475,610.904C341.439,610.957 340.634,610.35 341.837,608.724C342.001,608.502 343.778,606.097 343.918,605.979C344.794,605.236 344.909,605.249 360.499,605.243Z" style="fill:rgb(249,250,251);"/>
                </g>
                <g transform="matrix(1,0,0,1,-63.636313,-121.573848)">
                    <path d="M518.077,608.507C518.238,606.759 517.776,606.545 518.706,605.746C519.244,605.284 521.275,605.282 521.501,605.282C539.412,605.265 539.877,605.088 540.551,606.473C540.701,606.78 542.313,610.09 540.617,610.741C540.301,610.862 537.749,610.841 537.5,610.839C528.986,610.768 529.003,610.977 520.492,610.908C517.56,610.884 518.284,609.37 518.077,608.507Z" style="fill:rgb(249,250,251);"/>
                </g>
                <g transform="matrix(1,0,0,1,-63.636313,-121.573848)">
                    <path d="M342.5,615.494C347.512,615.515 347.499,615.513 352.5,615.501C358.336,615.488 360.547,615.174 360.572,616.493C360.581,616.964 359.654,618.378 359.554,618.53C358.023,620.865 357.284,620.558 353.5,620.557C336.913,620.555 336.921,620.664 335.483,620.577C333.025,620.428 334.822,617.979 334.956,617.796C337.033,614.966 338.05,615.506 342.5,615.494Z" style="fill:rgb(249,250,251);"/>
                </g>
                <g transform="matrix(1,0,0,1,-63.636313,-121.573848)">
                    <path d="M413.502,605.228C422.37,605.227 424.094,605.14 424.493,605.509C425.394,606.345 424.004,610.174 422.575,610.678C421.394,611.095 402.446,610.743 402.389,610.722C401.239,610.293 401.833,608.795 401.897,608.636C403.054,605.724 403.796,605.495 404.465,605.34C405.041,605.207 407.287,605.226 413.502,605.228Z" style="fill:rgb(249,250,251);"/>
                </g>
                <g transform="matrix(1,0,0,1,-63.636313,-121.573848)">
                    <path d="M435.501,605.215C452.331,605.301 452.68,605.034 453.297,605.697C453.817,606.255 453.904,610.137 451.555,610.704C450.253,611.018 436.765,610.759 433.493,610.786C433.325,610.787 431.627,610.801 431.393,610.726C430.172,610.331 430.802,608.8 430.868,608.641C431.669,606.694 431.96,606.339 432.1,606.168C433.049,605.009 434.138,605.278 435.501,605.215Z" style="fill:rgb(249,250,251);"/>
                </g>
                <g transform="matrix(1,0,0,1,-63.636313,-121.573848)">
                    <path d="M495.5,610.858C495.073,610.858 490.565,610.865 490.445,610.846C488.766,610.591 488.734,610.202 488.871,608.52C489.002,606.918 489.239,605.657 490.472,605.372C491.231,605.197 509.213,605.293 509.523,605.337C512.416,605.752 511.103,610.089 511.05,610.172C510.515,610.996 510.272,610.874 495.5,610.858Z" style="fill:rgb(249,250,251);"/>
                </g>
                <g transform="matrix(1,0,0,1,-63.636313,-121.573848)">
                    <path d="M623.504,605.307C624.602,605.447 625.834,604.621 627.68,608.419C629.157,611.457 626.863,610.89 623.494,610.83C617.333,610.721 608.163,611.188 606.545,610.424C605.553,609.957 604.13,606.629 604.781,605.728C605.282,605.036 606.637,605.276 611.5,605.289C615.501,605.295 619.502,605.301 623.504,605.307Z" style="fill:rgb(249,250,251);"/>
                </g>
                <g transform="matrix(1,0,0,1,-63.636313,-121.573848)">
                    <path d="M566.497,610.872C549.401,610.782 549.25,611.097 548.536,610.453C547.607,609.613 547.612,606.983 547.701,606.55C548.001,605.089 548.634,605.295 561.5,605.265C567.786,605.251 568.488,604.869 569.551,607.481C570.454,609.699 570.93,610.763 568.55,610.896C567.867,610.934 567.18,610.834 566.497,610.872Z" style="fill:rgb(249,250,251);"/>
                </g>
                <g transform="matrix(1,0,0,1,-63.636313,-121.573848)">
                    <path d="M469.499,610.856C468.854,610.857 461.859,610.86 461.439,610.814C460,610.658 459.938,609.64 459.929,609.479C459.888,608.794 460.158,608.126 460.298,607.454C460.845,604.827 462.376,605.218 466.5,605.207C480.336,605.169 480.448,604.93 481.449,605.586C482.475,606.257 482.292,608.776 481.904,609.723C481.382,610.999 480.177,610.826 469.499,610.856Z" style="fill:rgb(249,250,251);"/>
                </g>
                <g transform="matrix(1,0,0,1,-63.636313,-121.573848)">
                    <path d="M538.5,615.526C539.917,615.52 541.93,615.051 542.411,617.516C543.067,620.883 540.592,620.574 539.499,620.563C530.293,620.476 520.57,620.69 519.532,620.403C517.86,619.94 518.223,617.214 518.5,616.5C519.016,615.164 519.559,615.548 538.5,615.526Z" style="fill:rgb(249,250,251);"/>
                </g>
                <g transform="matrix(1,0,0,1,-63.636313,-121.573848)">
                    <path d="M592.5,610.856C588.884,610.857 584.236,610.87 581.495,610.841C577.923,610.804 577.025,611.045 576.348,607.522C576.31,607.325 575.97,605.559 577.443,605.263C577.755,605.2 591.297,605.317 592.502,605.327C596.353,605.36 597.219,604.875 598.533,608.49C599.574,611.354 597.437,610.965 596.505,610.892C596.155,610.864 592.82,610.857 592.5,610.856Z" style="fill:rgb(249,250,251);"/>
                </g>
                <g transform="matrix(1,0,0,1,-63.636313,-121.573848)">
                    <path d="M367.279,617.356C367.365,617.256 368.115,615.878 369.522,615.605C370.09,615.494 372.427,615.524 374.5,615.519C375.7,615.516 389.278,615.483 389.501,615.495C390.827,615.565 390.974,616.39 391,616.534C391.033,616.718 390.368,618.538 389.643,619.616C388.768,620.916 386.542,620.573 380.5,620.571C368.497,620.567 368.507,620.736 367.467,620.658C367.334,620.648 366.291,620.569 366.237,619.526C366.211,619.026 367.175,617.518 367.279,617.356Z" style="fill:rgb(249,250,251);"/>
                </g>
                <g transform="matrix(1,0,0,1,-63.636313,-121.573848)">
                    <path d="M436.5,615.502C437.539,615.498 447.85,615.451 449.49,615.576C449.694,615.592 451.425,615.724 451.211,617.47C450.8,620.812 449.859,620.606 446.5,620.586C428.313,620.475 428.211,620.603 427.744,620.189C427.017,619.544 427.603,617.754 427.668,617.554C428.495,615.027 429.736,615.467 436.5,615.502Z" style="fill:rgb(249,250,251);"/>
                </g>
                <g transform="matrix(1,0,0,1,-63.636313,-121.573848)">
                    <path d="M469.5,615.509C469.61,615.509 478.491,615.5 478.5,615.5C479.209,615.503 481.337,615.241 481.338,617.502C481.34,620.972 479.313,620.603 477.5,620.598C476.06,620.593 459.595,620.543 459.496,620.539C456.697,620.418 457.668,617.536 458.35,616.385C458.991,615.303 460.786,615.53 469.5,615.509Z" style="fill:rgb(249,250,251);"/>
                </g>
                <g transform="matrix(1,0,0,1,-63.636313,-121.573848)">
                    <path d="M564.5,615.499C570.011,615.483 572.034,615.033 572.852,618.447C573.105,619.5 573.24,619.659 572.368,620.297C571.86,620.668 571.788,620.477 563.5,620.522C550.456,620.591 550.056,620.69 549.522,619.489C549.163,618.681 548.653,615.974 550.518,615.572C551.254,615.414 560.523,615.483 564.5,615.499Z" style="fill:rgb(249,250,251);"/>
                </g>
                <g transform="matrix(1,0,0,1,-63.636313,-121.573848)">
                    <path d="M417.5,615.478C419.941,615.668 421.092,615.107 420.867,617.542C420.629,620.118 418.803,620.465 418.504,620.522C417.473,620.718 402.691,620.431 400.5,620.492C400.264,620.499 397.829,620.566 397.554,620.398C397.305,620.246 396.144,619.534 397.946,616.778C399,615.167 401.927,615.538 404.5,615.541C411.007,615.547 410.994,615.501 417.5,615.478Z" style="fill:rgb(249,250,251);"/>
                </g>
                <g transform="matrix(1,0,0,1,-63.636313,-121.573848)">
                    <path d="M505.5,615.531C509.094,615.523 511.519,614.873 511.387,618.497C511.29,621.161 508.264,620.516 506.5,620.531C496.465,620.616 489.748,620.52 489.505,620.474C487.367,620.071 487.477,616.103 489.538,615.656C490.527,615.442 495.682,615.559 505.5,615.531Z" style="fill:rgb(249,250,251);"/>
                </g>
                <g transform="matrix(1,0,0,1,-63.636313,-121.573848)">
                    <path d="M619.5,615.526C620.22,615.525 626.706,615.516 628.499,615.552C630.484,615.592 630.912,615.841 631.886,617.263C634.714,621.389 630.492,620.564 629.5,620.541C627.422,620.492 617.54,620.55 616.5,620.556C611.644,620.585 610.799,621.321 609.522,618.492C609.037,617.417 608.714,617.426 609.096,616.314C609.462,615.25 609.887,615.553 619.5,615.526Z" style="fill:rgb(249,250,251);"/>
                </g>
                <g transform="matrix(1,0,0,1,-63.636313,-121.573848)">
                    <path d="M594.5,615.541C594.9,615.541 599.173,615.546 599.495,615.572C599.838,615.601 602.092,615.788 602.703,618.45C603.153,620.406 602.5,620.612 600.503,620.591C585.17,620.431 582.742,620.658 581.53,620.379C579.323,619.871 579.09,616.464 579.774,615.891C580.203,615.532 580.28,615.56 594.5,615.541Z" style="fill:rgb(249,250,251);"/>
                </g>
                <g transform="matrix(1,0,0,1,-63.636313,-121.573848)">
                    <path d="M673.499,610.847C667.497,610.842 665.383,610.881 664.475,610.564C664.157,610.453 663.39,610.186 661.731,607.373C661.658,607.249 661.06,606.234 661.582,605.582C662.034,605.018 662.203,605.297 673.499,605.285C679.637,605.279 680.107,604.852 681.886,607.233C682.564,608.141 684.022,609.342 683.323,610.374C682.855,611.062 682.003,610.835 673.499,610.847Z" style="fill:rgb(249,250,251);"/>
                </g>
                <g transform="matrix(1,0,0,1,-63.636313,-121.573848)">
                    <path d="M646.5,610.851C637.467,610.852 636.414,610.971 635.522,609.485C633.996,606.939 632.487,605.451 635.459,605.235C635.81,605.21 649.298,605.303 650.501,605.312C651.008,605.315 653.131,604.924 654.169,606.708C654.297,606.927 655.738,609.404 655.746,609.46C655.765,609.604 655.921,610.755 654.63,610.9C653.984,610.972 653.988,610.827 646.5,610.851Z" style="fill:rgb(249,250,251);"/>
                </g>
                <g transform="matrix(1,0,0,1,-63.636313,-121.573848)">
                    <path d="M673.5,615.493C674.38,615.482 674.371,615.501 684.5,615.497C687.496,615.495 688.256,615.598 690.056,617.812C690.194,617.982 691.576,619.682 690.505,620.508C690.284,620.678 688.661,620.571 688.501,620.561C683.915,620.26 672.169,620.833 670.548,620.358C669.106,619.936 667.657,617.284 667.724,616.524C667.841,615.194 670.439,615.469 673.5,615.493Z" style="fill:rgb(249,250,251);"/>
                </g>
                <g transform="matrix(1,0,0,1,-63.636313,-121.573848)">
                    <path d="M639.654,618.424C639.477,617.787 639.168,617.954 638.991,617.317C638.97,617.241 638.882,616.924 639.074,616.331C639.528,614.927 640.012,615.509 641.501,615.526C642.601,615.539 657.266,615.415 658.471,615.648C658.796,615.71 660.123,615.967 661.455,618.52C661.521,618.648 662.07,619.699 661.355,620.312C661.011,620.607 658.729,620.56 658.5,620.555C654.779,620.479 648.236,620.623 643.5,620.524C640.132,620.453 640.446,619.518 639.654,618.424Z" style="fill:rgb(249,250,251);"/>
                </g>
                <g transform="matrix(0.762311,0,0,0.762311,-6.504996,-87.90657)">
                    <circle cx="597.838" cy="408.92" r="3.348" style="fill:rgb(249,250,251);"/>
                </g>
                <g transform="matrix(0.868277,0,0,0.868277,-66.480574,-128.370015)">
                    <circle cx="575.44" cy="405.617" r="3.671" style="fill:rgb(73,57,70);"/>
                </g>
                <g transform="matrix(0.868277,0,0,0.868277,-35.574052,-128.370015)">
                    <circle cx="575.44" cy="405.617" r="3.671" style="fill:rgb(73,57,70);"/>
                </g>
            </g>
        </g>
    </g>
</svg>
