<?xml version="1.0" encoding="UTF-8" standalone="no"?>
<!DOCTYPE svg PUBLIC "-//W3C//DTD SVG 1.1//EN" "http://www.w3.org/Graphics/SVG/1.1/DTD/svg11.dtd">
<svg width="100%" height="100%" viewBox="0 0 488 514" version="1.1" xmlns="http://www.w3.org/2000/svg" xmlns:xlink="http://www.w3.org/1999/xlink" xml:space="preserve" xmlns:serif="http://www.serif.com/" style="fill-rule:evenodd;clip-rule:evenodd;stroke-linejoin:round;stroke-miterlimit:2;">
    <g transform="matrix(1,0,0,1,-10278.523265,-7010.400659)">
        <g transform="matrix(1.276754,0,0,1.897866,-2116.350918,-3543.870901)">
            <g transform="matrix(0.783236,0,0,0.526907,9443.135539,5380.733687)">
                <g transform="matrix(1.171875,0,0,1.171875,0,0)">
                    <path d="M489.487,379.325C494.511,378.881 523.926,378.705 524.327,378.724C528.707,378.931 528.813,377.915 553.51,380.411C559.576,381.024 559.473,381.671 565.545,382.164C570.079,382.533 574.713,384.253 578.59,385.165C579.702,385.426 586.48,387.019 592.391,388.837C595.023,389.647 605.246,393.851 605.306,393.88C607.342,394.852 607.25,395.021 609.336,395.852C613.999,397.711 625.755,404.79 627.289,405.857C632.27,409.32 633.471,409.533 635.626,411.353C638.29,413.602 639.584,413.934 641.857,416.122C643.228,417.442 643.392,417.234 645.697,419.263C647.863,421.17 647.801,421.216 650.071,422.996C651.615,424.206 659.207,431.905 660.531,433.474C663.085,436.498 663.327,436.488 664.805,438.272C669.859,444.376 669.55,444.596 669.99,445.125C674.132,450.114 674.301,450.894 677.861,456.262C681.203,461.302 683.505,466.107 684.361,467.577C685.451,469.447 687.886,474.115 689.66,478.44C695.591,492.895 695.628,493.745 696.266,496.564C697.176,500.586 697.531,500.479 698.498,504.5C701.711,517.853 703.703,530.8 703.689,552.499C703.68,567.27 701.093,585.056 700.501,587.5C699.664,590.952 699.835,590.964 699.153,594.432C698.142,599.568 697.458,599.374 696.447,604.488C696.297,605.241 695.501,608.451 695.188,609.396C690.663,623.058 688.805,626.458 686.899,630.661C684.637,635.648 684.381,635.501 682.96,638.712C681.589,641.812 681.206,641.581 679.652,644.575C675.016,653.507 672.471,655.697 669.294,660.355C667.301,663.279 661.902,669.657 657.792,673.826C654.125,677.546 654.172,677.584 653.851,677.905C649.358,682.39 649.204,682.208 647.145,684.127C645.409,685.744 642.11,688.361 637.303,692.261C631.738,696.777 629.86,697.237 628.866,697.917C627.728,698.696 627.976,699.078 617.309,705.261C612.799,707.83 612.633,707.507 610.651,708.771C608.186,710.342 607.965,709.893 605.442,711.394C603.637,712.467 598.331,714.226 595.532,715.569C590.211,718.122 588.897,717.606 586.71,718.911C584.277,720.362 580.066,720.872 577.636,721.903C573.457,723.675 573.336,723.247 566.472,724.372C562.873,724.962 562.967,725.313 559.408,726.116C559.18,726.167 543.638,728.509 542.507,728.586C533.288,729.217 533.3,729.333 532.498,729.368C524.215,729.731 524.234,729.915 523.515,729.935C510.132,730.32 507.626,730.178 504.482,729.676C502.383,729.34 495.879,729.255 493.516,729.165C491.167,729.076 470.752,726.571 467.559,725.227C464.228,723.825 460.515,723.623 458.531,723.366C455.245,722.942 453.381,721.477 449.509,720.47C444.045,719.05 444.353,718.164 439.419,716.895C436.696,716.195 435.576,715.275 433.507,714.483C428.871,712.707 428.865,712.735 428.468,712.564C426.694,711.801 426.283,710.9 424.543,710.395C424.23,710.304 421.129,709.403 420.683,709.089C420.544,708.992 420.527,708.781 420.406,708.663C418.794,707.094 415.221,705.403 414.74,705.175C411.525,703.474 410.704,702.933 410.369,702.712C407.263,700.664 405.931,700.606 402.334,697.739C400.772,696.494 399.58,695.98 398.627,695.317C397.735,694.697 395.888,693.412 387.836,687.068C387.011,686.418 385.248,684.344 383.664,683.264C382.223,682.28 382.205,682.329 380.991,681.077C379.001,679.025 378.861,679.019 377.862,678.047C376.549,676.771 368.202,667.652 367.851,667.235C365.782,664.774 365.831,664.758 363.835,662.243C361.768,659.637 360.965,658.462 360.329,657.613C359.192,656.095 359.229,656.088 356.216,651.703C352.262,645.948 350.181,641.895 350.09,641.759C348.026,638.709 348.303,638.559 347.234,636.662C344.1,631.101 344.58,630.871 343.231,628.649C340.794,624.635 341.762,624.22 340.038,620.719C337.804,616.181 333.341,600.379 333.145,599.581C330.108,587.169 330.044,587.185 328.321,574.525C326.661,562.331 326.915,532.749 328.944,520.557C331.066,507.799 331.836,505.654 332.282,504.412C334.198,499.08 333.808,494.723 340.202,480.39C341.215,478.121 341.141,477.011 342.553,474.528C344.65,470.837 347.661,464.237 347.969,463.751C353.286,455.399 353.17,455.33 353.701,454.653C355.267,452.657 354.602,452.201 356.411,450.422C358.167,448.696 364.182,439.649 367.113,437.078C368.217,436.109 368.104,436.021 368.891,434.776C370.209,432.691 378.358,425.047 379.219,424.24C380.791,422.765 381.166,423.167 382.408,421.411C383.456,419.928 391.335,414.295 395.665,410.716C397.143,409.494 397.429,409.672 398.68,408.783C403.048,405.68 403.107,405.78 404.256,405.095C409.409,402.024 409.325,401.685 412.393,400.264C417.889,397.718 418.141,396.963 420.379,396.206C425.27,394.552 424.918,393.68 436.58,389.752C451.28,384.8 454.841,384.883 462.567,382.851C466.513,381.814 480.662,380.106 489.487,379.325Z" style="fill:rgb(246,150,19);"/>
                </g>
                <g transform="matrix(1.084672,0,0,1.320344,-47.461948,-149.158204)">
                    <ellipse cx="600.657" cy="465.104" rx="26.526" ry="4.966" style="fill:rgb(124,135,16);"/>
                </g>
                <g transform="matrix(1.171875,0,0,1.171875,3.742759,2.188267)">
                    <path d="M508.189,358.006C508.684,357.157 509.466,354.053 509.838,352.588C516.652,325.733 524.688,314.834 524.789,314.677C528.976,308.185 530.169,307.04 533.214,308.958C538.022,311.987 540.421,316.037 543.154,319.754C545.605,323.089 543.912,324.373 540.4,330.442C529.337,349.556 522.991,384.27 522.441,387.839C522.192,389.451 521.308,393.409 519.206,394.111C517.321,394.74 505.722,396.628 503.45,390.47C501.76,385.887 506.997,366.251 507.138,365.448C507.359,364.198 497.829,363.894 492.604,364.983C490.249,365.474 460.627,372.7 458.424,373.129C433.209,378.038 412.086,376.45 398.586,374.013C391.456,372.726 377.086,368.223 374.595,367.248C357.705,360.633 357.884,360.238 356.443,359.631C355.057,359.048 349.837,356.851 339.351,351.822C330.594,347.622 315.649,341.93 313.569,341.299C300.887,337.45 298.771,336.964 297.464,336.664C287.141,334.296 285.37,335.42 285.509,333.502C285.592,332.359 296.319,323.004 302.403,318.363C307.801,314.244 307.923,314.453 313.653,310.772C324.498,303.804 343.33,296.015 356.496,293.479C377.568,289.419 392.863,288.865 417.417,293.891C423.837,295.205 436.259,299.682 440.405,301.704C448.861,305.828 452.432,307.987 453.441,308.598C458.762,311.817 459.714,312.441 460.281,312.832C471.814,320.787 478.835,327.425 479.745,328.218C486.652,334.235 507.945,357.841 508.189,358.006Z" style="fill:rgb(97,111,23);"/>
                </g>
                <path d="M641.607,853.018C700.406,848.1 748.221,815.927 774.383,788.638C801.056,760.814 826.432,701.306 825.931,643.755C825.513,595.722 808.256,550.35 787.6,522.856C752.109,475.616 699.991,457.791 699.991,457.791C699.991,457.791 845.011,676.682 641.607,853.018Z" style="fill:rgb(241,134,24);"/>
            </g>
        </g>
    </g>
</svg>
