<?xml version="1.0" encoding="UTF-8" standalone="no"?>
<!DOCTYPE svg PUBLIC "-//W3C//DTD SVG 1.1//EN" "http://www.w3.org/Graphics/SVG/1.1/DTD/svg11.dtd">
<svg width="100%" height="100%" viewBox="0 0 640 654" version="1.1" xmlns="http://www.w3.org/2000/svg" xmlns:xlink="http://www.w3.org/1999/xlink" xml:space="preserve" xmlns:serif="http://www.serif.com/" style="fill-rule:evenodd;clip-rule:evenodd;stroke-linejoin:round;stroke-miterlimit:2;">
    <g transform="matrix(1,0,0,1,-9536.525443,-9188.70267)">
        <g transform="matrix(1.276754,0,0,2.756375,-2113.766445,-6854.068498)">
            <g transform="matrix(0.783236,0,0,0.362795,8905.111942,5720.975123)">
                <g transform="matrix(1.171875,0,0,1.171875,0,0)">
                    <path d="M784.92,320.467C785.513,335.898 784.858,335.899 785.111,513.501C785.132,528.3 785.255,615.268 785.085,698.497C785.078,702.113 785.036,722.311 774.315,742.402C770.628,749.312 763.578,759.395 756.17,766.135C745.686,775.674 741.568,777.472 737.677,779.81C735.09,781.366 725.929,785.807 717.587,787.835C701.191,791.823 696.369,791.074 667.499,791.169C561.833,791.164 456.166,791.158 350.5,791.152C326.747,791.179 315.016,791.956 295.681,784.052C278.493,777.026 269.449,767.148 268.073,765.96C263.504,762.012 262.41,760.502 256.32,752.632C254.637,750.456 249.403,742.057 247.24,736.606C243.497,727.173 241.805,722.364 240.309,710.521C239.307,702.585 239.509,702.559 239.513,638.5C239.532,322.369 239.536,322.365 239.731,319.517C240.22,312.39 241.956,285.737 264.667,261.652C279.301,246.133 293.971,240.515 302.569,237.714C315.227,233.591 329.161,233.504 331.5,233.49C331.575,233.489 684.444,233.482 688.5,233.496C700.75,233.537 714.58,233.514 733.569,242.36C734.152,242.631 743.059,247.277 747.338,250.713C751.481,254.039 751.538,253.955 755.425,257.583C758.01,259.996 758.051,259.933 760.422,262.569C765.163,267.842 775.63,279.67 781.392,299.531C784.34,309.694 784.9,320.183 784.92,320.467Z" style="fill:rgb(98,49,29);"/>
                </g>
                <g transform="matrix(1.171875,0,0,1.171875,0,0)">
                    <path d="M250.932,702.475C250.624,692.693 250.857,537.818 250.879,523.5C250.872,463.168 250.865,402.836 250.858,342.503C250.874,323.426 250.193,316.408 254.31,302.442C254.738,300.993 257.695,293.41 258.187,292.355C258.967,290.683 263.592,279.522 274.939,267.908C277.91,264.867 282.147,261.55 284.219,260.085C291.919,254.643 294.512,253.871 296.253,253.003C308.24,247.034 324.42,245.313 327.487,245.227C339.804,244.883 339.803,245.085 481.5,245.112C694.371,245.153 694.375,244.963 698.512,245.331C714.205,246.729 722.139,250.525 726.549,252.397C731.909,254.672 736.976,258.245 737.482,258.527C741.41,260.711 747.367,266.292 747.537,266.46C756.785,275.522 760.204,281.244 762.624,285.424C774.636,306.179 773.81,326.277 773.81,331.5C773.792,410.833 773.774,490.167 773.755,569.5C773.6,633.012 773.921,632.993 773.801,696.494C773.774,710.712 769.561,725.456 765.885,732.684C765.317,733.801 759.928,747.627 744.252,761.203C741.702,763.412 735.179,767.722 733.572,768.625C723.462,774.303 714.146,778.207 697.482,779.196C693.874,779.41 693.871,779.381 460.5,779.385C329.123,779.387 329.133,779.398 325.535,779.101C321.23,778.745 290.282,777.807 266.957,747.104C265.075,744.627 261.784,739.203 261.439,738.536C256.373,728.772 252.44,720.212 250.932,702.475Z" style="fill:rgb(212,132,71);"/>
                </g>
                <g transform="matrix(1.171875,0,0,1.171875,0,0)">
                    <path d="M689.496,251.654C689.689,251.667 697.5,251.833 707.498,254.506C712.733,255.905 712.729,255.901 717.708,258.06C718.796,258.532 723.932,260.759 730.8,265.019C739.152,270.2 748.387,280.853 752.413,287.548C752.9,288.357 758.093,298.246 759.704,303.423C764.574,319.074 763.617,332.447 763.772,356.502C763.805,361.65 763.81,589.26 763.811,609.5C763.812,691.737 763.819,691.771 762.438,701.491C762.197,703.184 761.82,703.812 761.248,707.442C760.704,710.898 757.999,718.891 756.137,722.328C753.379,727.418 753.673,727.912 748.274,735.333C741.033,745.285 727.134,757.103 709.434,762.263C706.015,763.259 706.079,763.466 702.554,763.939C695.413,764.896 695.429,765.239 681.5,765.239C427.398,765.239 427.421,764.947 334.498,765.331C331.573,765.343 320.916,764.237 317.578,763.22C313.496,761.976 313.447,762.164 309.47,760.574C306.639,759.442 305.486,759.604 296.487,754.524C293.589,752.888 285.717,746.822 282.98,744.04C282.648,743.703 282.392,743.298 282.073,742.949C281.84,742.694 281.735,742.805 279.023,739.902C276.787,737.509 276.338,736.281 273.38,732.6C272.744,731.809 267.286,723.22 265.124,716.631C258.148,695.365 259.487,690.101 259.517,611.5C259.492,540.5 259.467,469.5 259.442,398.5C259.557,325.244 259.281,325.166 261.22,315.458C261.912,311.992 261.74,311.963 262.779,308.572C263.144,307.38 264.885,298.624 269.781,290.637C270.916,288.785 270.964,287.466 273.845,283.774C275.262,281.96 277.379,278.263 283.393,272.391C283.716,272.075 284.058,271.742 287.677,268.706C291.459,265.533 298.738,261.522 299.333,261.184C300.771,260.368 309.33,256.201 314.59,254.796C318.454,253.765 326.8,252.042 331.524,251.713C333.12,251.601 333.122,251.649 496.5,251.656C674.065,251.664 674.058,251.445 689.496,251.654Z" style="fill:rgb(232,178,100);"/>
                </g>
                <g transform="matrix(1.171875,0,0,1.171875,0,0)">
                    <path d="M739.09,337.577C741.257,348.37 740.315,354.684 740.486,431.5C740.523,448.324 740.342,658.091 740.575,669.499C740.806,680.793 737.735,695.879 732.236,705.354C729.087,710.78 728.155,713.19 720.902,720.877C712.849,729.414 702.939,734.111 701.637,734.787C700.519,735.368 692.839,738.604 687.625,739.947C671.882,744.003 664.619,742.83 575.5,742.94C500.166,743.018 424.831,743.095 349.497,743.172C335.313,743.172 325.226,737.339 321.437,735.633C318.481,734.302 312.972,730.353 312.267,729.847C311.111,729.018 305.045,724.669 299.365,717.605C298.48,716.504 298.398,716.174 296.314,713.639C294.006,710.832 289.689,702.698 289.58,702.462C281.085,684.072 282.003,672.322 282.004,645.5C282.006,558.099 281.786,355.195 282.074,351.477C282.681,343.632 283.423,325.002 299.832,304.765C305.764,297.448 315.114,290.458 321.551,287.604C322.805,287.048 332.813,281.063 351.498,280.435C354.81,280.324 642.069,280.389 664.5,280.387C674.536,280.387 680.416,280.197 691.536,283.383C695.68,284.57 703.756,288.213 707.365,290.703C708.457,291.457 714.333,294.841 721.091,301.889C731.34,312.577 735.646,325.264 736.415,327.527C738.088,332.457 737.907,332.497 739.09,337.577Z" style="fill:rgb(98,49,29);"/>
                </g>
                <g transform="matrix(1.171875,0,0,1.171875,0,0)">
                    <path d="M732.909,669.573C731.16,684.76 726.82,692.826 725.831,694.662C723.54,698.92 723.827,699.09 719.184,705.277C717.193,707.929 710.128,716.316 702.418,721.375C699.975,722.978 700.04,723.054 697.405,724.309C694.19,725.841 690.536,728.546 679.465,731.339C674.326,732.635 667.942,733.744 664.521,733.894C661.035,734.046 402.302,733.988 379.5,733.983C363.201,733.979 355.655,734.787 343.505,731.481C341.333,730.89 336.498,730.571 324.77,724.068C322.395,722.751 312.196,715.031 309.489,711.509C308.326,709.996 304.203,705.968 299.799,697.36C299.117,696.027 295.742,687.511 294.862,682.434C292.042,666.148 292.781,666.062 292.697,621.5C292.697,540.5 292.696,459.5 292.696,378.5C292.708,353.675 292.5,353.638 294.356,343.475C295.668,336.284 295.984,336.372 298.595,329.537C299.387,327.462 303.515,320.055 307.882,314.809C313.099,308.541 319.175,303.979 320.262,303.163C329.766,296.027 338.395,293.356 350.39,291.001C357.045,289.694 357.1,289.89 412.5,289.858C432.819,289.846 662.773,289.713 666.481,289.968C673.955,290.483 676.682,291.104 677.552,291.302C683.124,292.573 683.126,292.521 688.555,294.344C693.931,296.148 701.394,300.317 705.435,303.585C710.273,307.499 710.736,308.079 716.694,314.32C717.003,314.644 717.305,314.96 720.069,318.791C723.079,322.964 722.923,323.054 725.359,327.576C725.823,328.436 729.059,334.944 729.891,338.397C733.615,353.856 733.532,353.934 733.531,372.5C733.521,653.138 733.818,653.132 733.244,665.484C733.148,667.551 733.148,667.531 732.909,669.573Z" style="fill:rgb(222,91,44);"/>
                </g>
                <g transform="matrix(1.171875,0,0,1.171875,0,0)">
                    <path d="M305.562,623.493C303.825,606.903 303.89,606.915 303.713,605.477C302.622,596.59 302.533,589.422 302.542,583.5C302.573,563.568 309.277,548.935 311.246,540.427C312.667,534.287 315.421,526.793 316.189,517.48C317.133,506.039 316.283,498.266 312.834,486.399C312.466,485.134 309.106,473.571 308.172,470.608C305.977,463.641 306.185,463.595 304.555,456.488C299.434,434.146 305.124,407.481 306.456,390.496C308.626,362.827 301.955,355.998 313.983,333.776C314.263,333.259 317.66,328.294 319.373,326.387C320.475,325.161 326.984,317.917 335.583,313.666C346.106,308.464 350.681,307.558 355.535,306.692C362.563,305.438 390.32,306.71 397.478,306.107C423.878,303.886 427.656,301.624 448.5,301.511C460.858,301.444 460.772,302.35 472.545,305.329C483.935,308.211 487.1,310.196 502.453,312.776C521.811,316.028 539.399,308.611 552.454,305.34C559.674,303.531 563.899,301.497 575.5,301.425C593.786,301.31 598.88,303.678 623.484,305.682C639.181,306.96 647.984,305.995 662.506,306.181C680.374,306.411 694.982,316.601 701.038,321.999C703.538,324.228 710.854,332.376 714.611,341.454C719.072,352.229 718.817,356.01 718.363,374.496C717.74,399.849 722.098,406.723 722.408,434.501C722.557,447.908 721.261,452.592 720.907,454.571C718.452,468.301 714.805,476.657 712.606,484.532C710.89,490.676 707.189,499.583 708.416,515.505C709.713,532.334 716.814,548.76 719.071,559.594C722.128,574.276 722.746,574.414 721.933,595.525C721.531,605.993 718.482,625.599 718.268,636.494C717.844,658.085 719.875,664.769 715.787,676.595C710.635,691.501 703.643,698.233 699.791,701.812C689.646,711.239 680.007,714.209 678.598,714.771C667.824,719.067 659.119,718.618 656.503,718.648C632,718.926 631.963,718.046 615.55,719.919C615.527,719.921 595.612,722.918 585.495,723.364C562.674,724.372 561.32,721.895 552.51,719.466C532.154,713.855 519.901,708.591 497.576,712.861C487.037,714.876 468.995,721.354 458.441,723.12C454.393,723.797 441.745,723.495 437.525,723.141C436.398,723.047 426.737,722.235 423.462,721.742C415.478,720.54 415.495,720.598 407.486,719.618C392.239,717.753 371.918,719.285 360.503,718.461C352.628,717.892 341.437,714.334 332.702,708.209C328.053,704.949 328.104,704.9 323.933,701.047C318.336,695.877 312.653,687.489 309.948,679.352C307.258,671.261 306.552,667.694 306.559,661.499C306.576,644.75 307.909,644.702 305.562,623.493Z" style="fill:rgb(252,228,151);"/>
                </g>
                <g transform="matrix(1.171875,0,0,1.171875,0,0)">
                    <path d="M494.752,387.631C492.55,391.511 488.368,399.476 475.41,406.326C468.419,410.022 443.517,417.194 424.351,394.625C421.92,391.762 418.402,385.809 416.846,380.401C414.253,371.389 414.36,359.466 419.705,349.609C421.807,345.732 425.953,337.834 438.648,330.783C440.585,329.708 447.025,327.514 451.552,326.904C472.923,324.021 485.45,337.24 487.547,339.454C500.07,352.669 503.107,371.157 494.752,387.631Z" style="fill:rgb(98,49,29);"/>
                </g>
                <g transform="matrix(1.171875,0,0,1.171875,0,0)">
                    <path d="M611.023,376.41C608.268,387.428 607.273,388.902 601.935,395.832C600.159,398.138 596.411,402.692 587.437,407.368C586.419,407.898 567.616,416.574 549.247,405.94C546.756,404.497 545.749,404.432 540.431,399.573C530.706,390.69 522.653,372.742 530.692,353.576C536.007,340.901 543.754,336.082 548.347,333.241C562.058,324.759 583.337,324.895 598.167,338.853C598.475,339.143 609.9,348.524 611.614,366.491C612.007,370.614 611.253,374.744 611.023,376.41Z" style="fill:rgb(98,49,29);"/>
                </g>
                <g transform="matrix(1.171875,0,0,1.171875,0,0)">
                    <path d="M528.927,586.406C528.469,583.981 528.43,584.003 528.112,581.548C527.797,579.111 526.094,565.963 535.994,551.855C537.293,550.004 543.871,542.198 552.511,538.526C570.12,531.043 583.607,537.159 586.577,538.316C591.778,540.341 597.09,544.937 597.591,545.395C605.832,552.915 608.499,559.985 610.153,565.604C615.592,584.079 606.818,602.689 591.374,612.288C589.007,613.759 582.435,616.341 579.399,617.076C562.328,621.211 548.437,612.461 547.358,611.714C533.992,602.459 531.166,593.167 528.927,586.406Z" style="fill:rgb(98,49,29);"/>
                </g>
                <g transform="matrix(1.171875,0,0,1.171875,0,0)">
                    <path d="M418.884,667.43C418.599,665.609 417.803,661.91 418.421,656.492C419.949,643.104 426.315,635.59 426.417,635.441C429.786,630.528 434.861,626.722 435.407,626.363C439.946,623.379 452.9,614.771 472.578,620.239C480.344,622.397 488.006,628.459 491.905,633.162C496.231,638.38 498.383,642.42 500.75,650.428C502.209,655.365 502.025,662.939 501.574,665.511C499.482,677.435 494.844,682.759 493.082,685.192C481.321,701.435 452.53,709.344 431.598,690.394C420.886,680.697 419.482,670.014 418.884,667.43Z" style="fill:rgb(98,49,29);"/>
                </g>
                <g transform="matrix(1.171875,0,0,1.171875,0,0)">
                    <path d="M326.097,563.462C328.491,541.046 346.356,527.995 362.495,526.446C375.862,525.164 382.29,528.726 388.244,531.95C391.111,533.502 396.524,537.826 398.563,540.447C403.519,546.82 404.447,549.14 405.728,552.41C408.303,558.98 408.263,561.68 408.369,562.516C410.27,577.562 403.413,587.98 399.276,593.328C397.897,595.11 394.119,599.2 389.319,602.192C370.498,613.924 350.309,607.938 339.764,598.204C338.758,597.275 332.448,591.45 329.495,584.502C325.084,574.123 325.943,565.962 326.097,563.462Z" style="fill:rgb(98,49,29);"/>
                </g>
                <g transform="matrix(1.171875,0,0,1.171875,0,0)">
                    <path d="M326.298,436.497C326.53,431.993 326.917,429.172 328.383,424.461C330.299,418.302 334.708,412.148 337.415,409.416C341.445,405.348 349.007,399.604 359.561,397.928C370.487,396.193 379.928,399.26 384.382,401.704C390.93,405.299 393.468,408.299 395.576,410.425C400.339,415.23 403.505,422.703 404.118,424.629C412.632,451.338 392.17,477.655 364.499,476.525C362.343,476.437 349.555,475.914 339.438,466.569C325.491,453.684 326.323,438.958 326.298,436.497Z" style="fill:rgb(98,49,29);"/>
                </g>
                <g transform="matrix(1.171875,0,0,1.171875,0,0)">
                    <path d="M610.9,480.567C609.841,485.872 608.554,491.925 601.023,501.08C600.308,501.949 595.234,506.448 593.485,507.476C590.481,509.241 573.229,520.5 552.315,508.828C537.488,500.553 528.091,482.473 534.454,462.484C534.841,461.271 537.31,455.804 538.69,453.614C540.988,449.966 543.938,446.977 544.455,446.454C546.104,444.783 550.762,441.289 552.457,440.422C556.97,438.111 570.515,431.286 588.286,438.987C591.254,440.274 597.152,444.16 601.255,448.722C606.263,454.29 608.428,460.27 608.83,461.38C612.491,471.487 611.24,477.669 610.9,480.567Z" style="fill:rgb(98,49,29);"/>
                </g>
                <g transform="matrix(1.171875,0,0,1.171875,0,0)">
                    <path d="M628.044,556.471C629.461,533.311 647.878,524.325 648.266,524.098C661.275,516.488 677.084,518.976 685.386,523.7C686.034,524.07 690.324,526.511 693.1,528.953C694.294,530.004 698.238,534.495 698.345,534.624C701.013,537.869 703.813,544.025 704.063,544.67C712.235,565.728 699.499,587.847 681.582,594.724C656.964,604.172 634.265,588.479 629.333,568.541C627.572,561.421 627.881,559.317 628.044,556.471Z" style="fill:rgb(98,49,29);"/>
                </g>
                <g transform="matrix(1.171875,0,0,1.171875,0,0)">
                    <path d="M394.87,675.553C390.515,699.433 366.843,710.226 347.648,703.103C340.086,700.297 334.734,695.264 330.344,689.614C327.801,686.34 322.399,675.78 324.455,664.493C329.122,638.875 353.937,629.573 371.595,636.246C373.444,636.944 377.653,638.3 383.555,643.438C384.247,644.04 387.564,646.928 390.786,652.339C392.76,655.653 395.844,663.398 395.28,671.485C395.138,673.533 395.114,673.513 394.87,675.553Z" style="fill:rgb(98,49,29);"/>
                </g>
                <g transform="matrix(1.171875,0,0,1.171875,0,0)">
                    <path d="M698.137,651.665C698.678,652.791 702.121,658.96 701.803,668.512C701.743,670.32 701.414,680.213 693.614,689.59C680.538,705.309 658.268,706.038 644.21,694.871C625.208,679.776 626.518,651.978 645.306,638.221C655.993,630.396 676.428,626.066 693.112,643.864C695.62,646.54 697.81,650.998 698.137,651.665Z" style="fill:rgb(98,49,29);"/>
                </g>
                <g transform="matrix(1.171875,0,0,1.171875,0,0)">
                    <path d="M633.946,365.374C633.801,364.842 627.493,347.79 641.565,331.556C651.833,319.71 665.214,319.747 666.508,319.689C683.675,318.917 699.505,331.147 702.854,349.431C706.268,368.07 693.836,380.978 687.195,385.031C667.894,396.812 648.752,388.595 640.04,376.851C637.84,373.885 636.683,372.931 633.946,365.374Z" style="fill:rgb(98,49,29);"/>
                </g>
                <g transform="matrix(1.171875,0,0,1.171875,0,0)">
                    <path d="M431.115,472.427C431.861,468.69 434.712,454.19 451.358,446.172C458.076,442.936 468.88,442.358 476.413,444.793C493.631,450.358 502.952,467.675 501.451,481.496C501.303,482.858 500.457,490.642 495.746,497.653C489.529,506.902 482.837,509.754 480.666,510.831C465.72,518.246 447.486,512.793 438.194,500.73C428.364,487.969 430.588,476.042 431.115,472.427Z" style="fill:rgb(98,49,29);"/>
                </g>
                <g transform="matrix(1.171875,0,0,1.171875,0,0)">
                    <path d="M362.559,320.07C364.501,320.352 373.474,321.191 382.738,330.251C386.099,333.538 390.601,340.356 392.148,346.595C396.232,363.072 388.257,383.033 366.501,389.503C358.738,391.812 345.277,391.594 334.78,382.182C333.86,381.358 327.133,376.154 323.717,365.435C323.172,363.726 321.266,355.674 323.217,347.434C326.806,332.274 337.367,326.172 340.374,324.28C340.374,324.279 347.601,319.908 356.505,319.747C359.547,319.692 359.533,319.736 362.559,320.07Z" style="fill:rgb(98,49,29);"/>
                </g>
                <g transform="matrix(1.171875,0,0,1.171875,0,0)">
                    <path d="M488.13,355.654C489.725,360.197 493.46,369.67 487.63,382.556C484.591,389.271 477.464,395.111 476.582,395.62C473.737,397.263 469.499,400.251 460.511,401.586C453.744,402.591 441.833,399.223 436.602,394.388C436.247,394.06 422.775,384.06 423.829,366.517C424.1,362.009 426.223,352.702 433.445,345.444C435.218,343.662 435.29,343.772 437.16,342.115C438.938,340.54 443.766,338.075 445.492,337.478C447.834,336.667 459.522,331.726 473.535,339.435C476.696,341.174 477.969,342.384 478.304,342.703C485.218,349.279 486.232,351.479 488.13,355.654Z" style="fill:rgb(222,91,44);"/>
                </g>
                <g transform="matrix(1.171875,0,0,1.171875,0,0)">
                    <path d="M536.194,368.487C536.967,358.649 539.783,354.228 541.092,352.228C544.655,346.784 549.011,342.262 555.445,339.383C563.489,335.783 568.551,336.153 570.502,336.144C578.655,336.108 586.926,340.867 589.768,343.15C594.479,346.937 596.636,349.889 598.668,353.403C599.702,355.191 599.655,355.213 599.746,355.368C603.086,361.024 603.496,372.401 601.911,377.609C600.526,382.163 600.669,382.24 598.183,386.308C597.475,387.468 594.334,391.716 594.049,392.021C593.352,392.767 590.631,395.033 590.326,395.287C588.945,396.437 588.777,396.181 587.374,397.324C586.146,398.323 586.08,398.184 584.685,398.891C566.774,407.978 551.259,397.542 548.631,395.326C548.415,395.144 546.283,393.347 545.975,393.007C539.978,386.384 538.508,381.726 538.155,380.608C535.839,373.271 536.203,369.566 536.194,368.487Z" style="fill:rgb(222,91,44);"/>
                </g>
                <g transform="matrix(1.171875,0,0,1.171875,0,0)">
                    <path d="M600.714,564.415C600.963,565.155 603.316,570.494 602.82,579.515C602.623,583.1 601.087,588.596 599.801,590.66C599.706,590.813 599.733,590.824 598.647,592.596C594.139,599.952 591.186,601.687 586.693,604.804C584.436,606.37 578.617,608.67 573.466,609.111C563.239,609.985 553.94,606.105 549.556,602.433C547.073,600.354 545.803,599.439 542.273,594.655C535.962,586.103 536.614,576.447 536.818,573.528C536.915,572.134 537.421,564.884 543.152,557.254C545.827,553.693 548.769,550.577 555.681,546.875C556.567,546.401 562.919,543.845 568.513,543.756C575.069,543.651 584.376,544.485 593.922,554.097C597.664,557.865 598.859,560.678 600.714,564.415Z" style="fill:rgb(222,91,44);"/>
                </g>
                <g transform="matrix(1.171875,0,0,1.171875,0,0)">
                    <path d="M488.599,643.443C490.925,647.705 492.626,651.428 493.025,660.495C493.116,662.565 492.267,670.427 488.925,675.744C485.444,681.281 484.719,682.1 478.307,687.249C476.428,688.758 466.016,694.076 456.493,692.558C448.022,691.208 443.299,688.576 438.339,684.717C433.753,681.148 426.149,671.26 427.063,658.478C427.463,652.882 428.377,647.65 434.945,638.85C435.185,638.53 438.577,635.169 438.834,634.952C439.802,634.135 447.125,628.937 453.562,627.878C464.43,626.091 475.567,629.187 482.211,635.79C487.058,640.606 487.975,642.508 488.599,643.443Z" style="fill:rgb(222,91,44);"/>
                </g>
                <g transform="matrix(1.171875,0,0,1.171875,0,0)">
                    <path d="M604.764,671.509C604.194,678.273 602.631,687.828 592.245,696.177C580,706.021 560.012,706.332 547.739,692.303C531.94,674.243 539.93,647.884 560.31,640.016C561.618,639.511 565.561,637.629 573.492,637.76C579.142,637.853 584.623,640.074 587.38,641.728C592.772,644.963 595.163,646.651 599.696,653.377C604.827,660.991 604.773,670.003 604.764,671.509Z" style="fill:rgb(98,49,29);"/>
                </g>
                <g transform="matrix(1.171875,0,0,1.171875,0,0)">
                    <path d="M697.922,436.433C698.248,439.799 700.354,453.585 686.76,465.8C685.787,466.675 680.36,471.077 673.539,472.663C649.216,478.319 630.326,457.823 632.995,436.57C633.265,434.42 635.063,428.698 636.748,425.629C646.998,406.957 666.648,406.26 678.301,410.975C680.594,411.902 685.242,414.694 688.298,417.706C696.904,426.186 697.893,436.267 697.922,436.433Z" style="fill:rgb(98,49,29);"/>
                </g>
                <g transform="matrix(1.171875,0,0,1.171875,0,0)">
                    <path d="M430.787,575.392C429.791,572.614 429.074,570.75 429.117,564.492C429.168,557.067 432.885,549.692 435.267,546.346C444.754,533.017 461.697,530.411 472.5,534.5C482.471,538.273 486.328,543.763 487.664,545.372C488.462,546.333 492.307,550.961 494.125,559.584C496.477,570.747 490.94,580.903 488.799,583.713C484.862,588.883 484.348,589.214 478.348,593.261C472.771,597.024 462.654,598.57 455.563,597.136C435.768,593.132 430.797,575.416 430.787,575.392Z" style="fill:rgb(98,49,29);"/>
                </g>
                <g transform="matrix(1.171875,0,0,1.171875,0,0)">
                    <path d="M370.531,535.135C376.054,536.137 382.882,536.648 391.919,546.123C394.014,548.321 396.948,553.53 397.648,555.44C397.737,555.683 400.852,562.843 399.379,572.482C397.445,585.141 389.329,591.289 385.859,593.977C380.451,598.166 369.393,601.618 360.577,599.191C353.384,597.211 353.13,596.577 349.466,594.554C347.286,593.351 345.672,591.389 343.487,589.514C341.798,588.064 336.13,580.454 335.127,573.545C333.677,563.556 335.451,557.267 339.437,550.458C341.574,546.808 343.327,545.156 343.743,544.765C352.967,536.078 361.892,535.565 362.49,535.443C365.242,534.879 369.888,535.104 370.531,535.135Z" style="fill:rgb(222,91,44);"/>
                </g>
                <g transform="matrix(1.171875,0,0,1.171875,0,0)">
                    <path d="M395.847,427.382C397.096,432.176 398.82,438.277 395.311,448.42C394.429,450.969 388.787,460.897 380.438,464.355C378.741,465.058 373.828,468.661 362.481,467.672C358.723,467.345 354.523,465.561 353.667,465.112C350.392,463.39 347.982,463.278 341.354,455.613C340.136,454.204 334.326,446.297 335.076,435.484C335.401,430.793 335.49,429.507 338.223,423.37C340.428,418.417 344.998,414.415 345.732,413.772C346.273,413.298 348.302,410.725 356.576,407.739C360.74,406.236 366.825,405.921 370.499,406.51C381.756,408.317 386.441,413.492 389.935,417.106C390.594,417.787 393.324,420.611 395.847,427.382Z" style="fill:rgb(222,91,44);"/>
                </g>
                <g transform="matrix(1.171875,0,0,1.171875,0,0)">
                    <path d="M600.804,464.374C600.946,464.86 601.308,466.093 602.297,470.529C602.568,471.748 602.824,476.727 602.117,480.426C601.337,484.504 599.36,493.213 587.271,501.116C580.03,505.85 565.629,506.839 556.641,501.244C550.549,497.452 548.299,494.209 547.118,492.823C546.439,492.026 536.608,479.461 543.823,462.629C546.055,457.422 547.474,456.073 550.228,453.251C550.866,452.597 554.106,449.277 559.585,446.696C563.361,444.917 572.017,443.584 577.437,444.815C583.991,446.302 586.652,448.235 587.342,448.735C588.013,449.223 590.654,450.578 593.564,453.436C594.662,454.515 598.615,459.113 600.804,464.374Z" style="fill:rgb(222,91,44);"/>
                </g>
                <g transform="matrix(1.171875,0,0,1.171875,0,0)">
                    <path d="M696.579,550.477C696.698,550.973 698.147,554.404 697.404,562.489C696.809,568.97 693.501,573.906 692.919,574.775C684.728,586.999 669.39,592.082 655.454,586.616C652.033,585.274 646.704,581.572 643.913,578.118C640.833,574.306 639.004,571.505 637.466,565.509C634.042,552.158 641.777,541.785 643.02,540.118C647.702,533.839 652.764,531.549 657.548,529.63C660.96,528.262 669.852,526.588 677.703,530.064C680.363,531.242 683.69,532.196 689.301,537.704C690.731,539.109 691.721,540.675 692.803,542.308C695.389,546.212 695.776,548.132 696.579,550.477Z" style="fill:rgb(222,91,44);"/>
                </g>
                <g transform="matrix(1.171875,0,0,1.171875,0,0)">
                    <path d="M692.949,668.524C692.049,680.981 682.937,688.53 678.533,690.567C677.077,691.24 670.302,695.183 660.601,693.076C657.7,692.446 642.05,687.399 639.631,670.482C637.567,656.043 649.019,641.398 664.512,640.713C673.16,640.33 680.95,643.077 687.636,651.396C689.993,654.329 692.646,660.802 692.936,665.459C693.013,666.702 692.973,666.69 692.949,668.524Z" style="fill:rgb(252,237,189);"/>
                </g>
                <g transform="matrix(1.171875,0,0,1.171875,0,0)">
                    <path d="M384.21,680.36C381.838,684.896 380.088,688.472 372.728,692.907C366.565,696.621 353.948,698.49 344.629,691.327C340.37,688.054 340.325,688.059 337.23,683.679C336.176,682.187 327.07,667.645 339.591,652.574C341.658,650.085 341.714,650.149 344.315,648.232C353.69,641.323 368.202,640.934 378.781,651.207C382.821,655.13 390.444,666.631 384.21,680.36Z" style="fill:rgb(252,237,189);"/>
                </g>
                <g transform="matrix(1.171875,0,0,1.171875,0,0)">
                    <path d="M488.377,464.581C496.335,476.929 493.261,494.925 476.691,502.923C472.713,504.843 466.681,505.385 463.54,505.054C449.661,503.591 444.377,494.38 442.242,490.641C435.158,478.236 441.102,459.223 457.477,453.439C466.357,450.303 473.994,453.415 475.316,453.954C484.024,457.503 487.837,463.867 488.377,464.581Z" style="fill:rgb(252,237,189);"/>
                </g>
                <g transform="matrix(1.171875,0,0,1.171875,0,0)">
                    <path d="M692.213,344.641C692.431,345.146 694.824,349.074 694.629,356.505C694.408,364.939 688.725,372.781 684.195,376.098C683.364,376.706 677.765,381.726 667.5,381.587C659.254,381.476 654.55,378.025 653.613,377.338C649.755,374.509 649.346,374.56 645.14,368.746C643.814,366.913 640.781,360.759 641.428,353.494C642.374,342.881 647.874,336.983 653.692,332.788C661.858,326.9 681.842,325.572 691.239,342.64C691.275,342.705 692.135,344.481 692.213,344.641Z" style="fill:rgb(252,237,189);"/>
                </g>
                <g transform="matrix(1.171875,0,0,1.171875,0,0)">
                    <path d="M384.066,351.557C384.284,355.588 385.997,368.982 370.429,378.38C362.377,383.241 346.488,384.231 336.257,370.675C333.996,367.68 331.134,361.876 331.062,355.506C330.897,340.968 344.235,327.141 360.464,328.938C361.963,329.104 368.628,329.404 375.867,336.097C382.838,342.541 383.607,349.419 384.066,351.557Z" style="fill:rgb(252,237,189);"/>
                </g>
                <g transform="matrix(1.171875,0,0,1.171875,0,0)">
                    <path d="M572.497,647.054C573.494,647.087 579.601,647.291 584.453,650.574C597.756,659.576 599.47,675.387 589.638,686.616C581.728,695.649 566.201,697.783 555.521,687.479C555.225,687.194 552.055,683.614 551.483,682.51C542.761,665.683 554.814,653.558 558.796,650.946C564.831,646.986 570.79,647.128 572.497,647.054Z" style="fill:rgb(222,91,44);"/>
                </g>
                <g transform="matrix(1.171875,0,0,1.171875,0,0)">
                    <path d="M460.524,541.914C463.173,541.881 464.932,541.516 470.529,543.428C477.122,545.681 483.613,553.228 485.012,559.631C487.559,571.294 481.593,578.469 481.554,578.535C477.896,584.596 468.296,589.222 462.502,588.935C457.274,588.676 451.355,588.201 444.642,581.362C440.004,576.636 437.847,569.595 438.043,565.503C438.176,562.729 438.349,557.794 442.248,552.322C442.831,551.504 446.228,547.052 448.655,545.797C454.268,542.895 454.224,542.558 460.524,541.914Z" style="fill:rgb(222,91,44);"/>
                </g>
                <g transform="matrix(1.171875,0,0,1.171875,0,0)">
                    <path d="M662.527,464.275C661.847,464.156 659.81,464.053 656.396,462.774C652.208,461.205 637.413,451.126 643.298,433.43C647.607,420.47 662.896,413.23 676.599,420.313C682.95,423.596 685.698,428.775 685.979,429.188C686.381,429.779 688.772,433.296 689.12,437.545C689.447,441.533 690.01,447.466 684.75,454.678C682.441,457.843 681.858,458.295 681.54,458.541C676.004,462.828 672.529,464.99 662.527,464.275Z" style="fill:rgb(222,91,44);"/>
                </g>
            </g>
        </g>
    </g>
</svg>
