<?xml version="1.0" encoding="UTF-8" standalone="no"?>
<!DOCTYPE svg PUBLIC "-//W3C//DTD SVG 1.1//EN" "http://www.w3.org/Graphics/SVG/1.1/DTD/svg11.dtd">
<svg width="100%" height="100%" viewBox="0 0 645 654" version="1.1" xmlns="http://www.w3.org/2000/svg" xmlns:xlink="http://www.w3.org/1999/xlink" xml:space="preserve" xmlns:serif="http://www.serif.com/" style="fill-rule:evenodd;clip-rule:evenodd;stroke-linejoin:round;stroke-miterlimit:2;">
    <g transform="matrix(1,0,0,1,-10322.508577,-9151.737115)">
        <g transform="matrix(1.276754,0,0,2.756375,-2113.766445,-6854.068498)">
            <g id="Fondo" transform="matrix(0.732187,0,0,0.339149,9618.117296,5751.712545)">
                <path d="M533.523,163.103C547.165,164.015 567.762,166.412 576.518,168.425C587.002,170.835 592.557,171.439 608.555,176.307C612.496,177.507 612.512,177.399 616.45,178.649C617.752,179.063 620.456,179.921 632.585,184.262C632.935,184.387 648.234,190.285 653.68,193.148C654.152,193.396 680.527,204.712 707.711,224.202C709.91,225.779 715.444,229.582 719.776,233.157C719.927,233.281 726.78,238.245 736.376,246.644C737.738,247.837 737.876,247.667 741.175,250.844C751.109,260.411 751.299,260.204 760.789,270.23C762.357,271.887 766.387,275.798 769.919,280.148C770.274,280.585 770.417,280.458 774.555,285.454C787.515,301.1 791.501,307.434 793.657,310.39C797.998,316.341 812.752,339.282 818.365,351.567C818.69,352.277 821.248,356.995 822.412,359.541C823.073,360.987 823.087,360.96 823.737,362.395C827.044,369.706 827.392,369.539 831.247,379.598C833.513,385.512 833.657,385.444 835.773,391.403C837.894,397.374 838.055,397.305 839.931,403.372C844.555,418.332 844.529,418.326 848.165,433.571C849.772,440.312 852.437,451.463 855.461,478.504C856.703,489.607 858.858,524.075 854.35,555.48C853.891,558.673 854.078,558.685 852.853,566.553C850.827,579.568 850.58,580.497 846.383,598.472C840.518,623.594 828.976,651.632 825.825,657.654C825.66,657.969 821.831,666.489 820.213,669.352C819.175,671.189 806.322,699.652 779.17,733.238C772.185,741.878 765.239,750.293 748.081,767.066C747.292,767.837 740.374,774.12 739.701,774.731C729.428,784.06 711.626,798.168 696.587,807.637C695.159,808.536 683.169,816.085 678.482,818.467C677.321,819.057 675.081,820.539 669.422,823.337C665.1,825.473 661.389,827.649 656.567,829.648C653.129,831.073 649.813,832.95 645.537,834.589C636.073,838.217 636.191,838.494 626.634,841.85C619.146,844.48 619.228,844.67 611.603,846.865C602.672,849.435 601.618,850.327 584.568,853.814C583.446,854.043 552.757,861.638 511.5,861.639C507.575,861.64 488.23,861.64 462.564,858.093C454.468,856.973 432.281,852.87 420.59,849.208C416.816,848.026 410.469,846.637 399.484,842.547C389.634,838.878 385.729,838.221 368.284,829.969C366.883,829.306 362.852,827.7 359.356,825.766C356.9,824.408 351.584,822.052 348.665,820.214C347.236,819.315 347.117,819.534 330.425,809.62C329.294,808.949 311.473,797.487 296.713,785.231C292.082,781.386 292.067,781.44 287.551,777.442C285.855,775.94 285.706,776.124 280.68,771.311C273.706,764.631 269.354,760.858 260.715,751.305C256.415,746.551 256.306,746.666 252.169,741.773C251.205,740.631 244.712,733.382 240.024,726.871C239.854,726.636 239.241,726.089 235.76,721.319C225.844,707.732 223.759,703.832 220.269,698.64C219.748,697.865 219.939,697.757 214.249,688.649C213.758,687.863 209.175,679.571 208.145,677.69C205.078,672.091 196.824,655.156 194.401,648.54C191.748,641.294 191.164,641.533 187.197,629.606C185.56,624.685 185.293,624.788 183.398,618.531C176.798,596.736 177.579,596.537 174.65,584.463C173.446,579.499 168.641,554.585 167.499,525.5C166.604,502.714 167.922,487.843 169.244,475.469C169.484,473.218 171.139,457.736 173.246,447.453C177.517,426.611 178.355,423.287 181.629,412.537C183.157,407.522 183.481,405.096 187.41,394.467C188.875,390.504 195.435,370.141 210.646,342.579C213.237,337.883 214.526,335.418 215.727,333.649C217.374,331.223 217.138,331.1 218.724,328.631C219.786,326.976 220.494,325.349 221.721,323.649C223.17,321.641 224.219,319.569 227.69,314.627C227.899,314.329 248.251,282.774 280.35,253.334C281.649,252.143 281.587,252.107 282.886,250.905C285.246,248.723 306.284,230.505 321.569,220.605C327.321,216.879 327.714,216.261 335.584,211.646C337.878,210.3 351.059,202.086 368.723,193.998C381.242,188.266 415.97,173.041 459.501,166.505C467.257,165.34 478.039,164.363 485.5,163.5C491.301,162.829 516.778,161.901 533.523,163.103Z" style="fill:rgb(75,34,33);"/>
                <path d="M843.959,551.552C843.575,555.121 840.874,573.356 839.75,578.549C839.614,579.178 838.282,585.332 838.059,586.407C837.944,586.965 833.969,603.714 832.196,609.402C828.708,620.588 828.96,620.665 824.677,631.567C822.773,636.414 822.974,636.465 821.043,641.315C820.779,641.978 820.683,641.931 817.574,649.531C813.056,660.574 801.852,681.496 797.829,687.713C794.286,693.19 794.506,693.307 790.843,698.721C788.969,701.491 789.085,701.551 787.194,704.293C786.684,705.033 782.985,710.108 778.01,717.134C777.52,717.827 777.39,717.722 771.435,725.449C768.26,729.568 754.699,745.479 744.724,754.739C744.061,755.355 744.128,755.398 736.637,762.645C734.733,764.487 721.981,775.527 721.194,776.105C720.405,776.685 707.271,787.091 704.237,789.112C699.961,791.96 700.124,792.173 695.788,794.923C695.554,795.071 691.681,797.89 687.417,800.35C681.997,803.476 669.907,811.383 653.622,818.748C648.56,821.037 648.679,821.25 643.473,823.437C636.013,826.57 636.054,826.632 628.48,829.444C620.415,832.438 618.891,833.162 613.57,834.715C601.382,838.273 601.518,838.756 587.569,841.833C585.917,842.198 574.29,845.575 547.518,848.646C522.538,851.511 506.186,850.562 492.521,850.089C489.907,849.998 461.585,847.492 444.472,843.625C431.991,840.805 404.336,835.165 366.714,817.062C365.715,816.581 365.776,816.473 354.395,810.711C350.953,808.968 351.144,808.651 347.398,806.687C346.951,806.453 327.422,795.316 310.215,781.861C308.795,780.751 308.737,780.847 307.361,779.67C303.027,775.964 302.869,776.172 298.575,772.414C297.369,771.359 296.533,770.951 291.645,766.341C286.873,761.841 283.918,759.729 271.383,746.61C267.405,742.446 261.28,735.547 260.415,734.573C256.02,729.622 244.939,715.745 241.897,711.212C239.036,706.949 238.806,707.128 236.027,702.813C233.605,699.054 233.327,699.26 228.675,691.397C227.261,689.008 224.541,684.958 223.378,682.567C222.832,681.443 217.016,672.116 207.885,652.319C206.844,650.061 197.241,627.064 194.24,616.584C192.011,608.798 191.431,608.49 189.128,598.591C184.806,580.018 184.43,580.091 181.59,560.488C179.61,546.825 177.587,530.469 178.316,500.495C178.658,486.465 180.28,474.736 180.588,472.511C183.587,450.831 183.358,450.785 188.405,429.478C190.147,422.129 189.996,422.106 193.658,410.55C195.751,403.944 195.453,403.851 198.711,395.58C199.504,393.569 200.723,389.648 204.934,379.674C210.562,366.347 213.641,359.871 224.381,340.433C224.697,339.862 236.707,319.603 250.757,301.702C255.343,295.859 255.46,295.972 260.144,290.224C262.846,286.909 277.235,271.497 279.992,268.992C283.543,265.765 293.309,255.482 313.778,239.892C314.871,239.059 322.772,233.041 327.749,229.895C328.269,229.566 334.262,225.466 343.234,220.035C344.472,219.286 353.907,213.902 355.73,212.936C363.441,208.853 363.429,208.853 371.352,205.194C372.439,204.692 373.175,204.1 376.565,202.651C379.402,201.439 394.611,194.247 419.603,186.852C432.4,183.066 432.465,183.387 445.459,180.334C451.617,178.887 481.492,173.783 508.498,173.395C514.567,173.308 517.818,173.252 532.465,173.944C532.85,173.962 555.34,176.207 561.545,177.187C566.452,177.962 570.742,178.176 588.504,182.482C596.207,184.349 596.292,184.002 606.558,187.33C609.108,188.157 612.862,188.918 630.517,195.455C650.21,202.747 670.764,213.978 673.366,215.715C675.394,217.069 676.377,217.102 682.69,221.206C683.461,221.708 689.202,225.074 693.281,227.831C697.795,230.881 697.961,230.727 700.403,232.631C701.211,233.261 701.373,233 710.758,240.173C724.7,250.829 725.916,252.5 727.868,254.059C731.836,257.229 744.003,268.574 750.053,274.943C769.179,295.074 779.095,308.298 787.84,321.271C789.306,323.447 797.503,335.609 804.879,349.297C805.109,349.725 812.293,363.757 812.607,364.45C815.293,370.387 815.509,370.275 817.97,376.308C820.001,381.286 820.379,381.114 824.828,393.381C827.528,400.826 827.677,400.753 829.947,408.353C832.181,415.831 832.786,415.657 836.796,433.431C837.471,436.42 839.668,444.031 841.635,457.479C843.473,470.053 845.405,481.127 845.968,502.484C846.184,510.698 846.62,528.767 843.959,551.552Z" style="fill:rgb(236,198,140);"/>
                <path d="M818.921,602.581C817.766,610.007 817.195,609.844 816.368,612.454C815.84,614.123 815.957,614.226 814.619,617.554C813.664,619.931 814.122,620.079 812.6,623.546C809.327,631.001 810.207,631.362 805.679,640.58C805,641.961 802.778,648.746 797.821,657.654C797.79,657.71 797.067,659.374 796.448,660.471C794.458,664.001 795.29,664.438 791.329,670.373C788.532,674.565 788.327,676.445 785.892,679.745C785.321,680.519 785.424,680.963 783.072,684.21C782.707,684.714 782.542,684.942 778.874,690.744C778.747,690.945 777.302,693.885 777.037,694.191C776.907,694.342 776.681,694.387 776.546,694.534C775.551,695.621 773.69,699.336 770.211,703.281C768.503,705.218 768.195,706.727 765.116,710.173C764.329,711.054 763.058,712.753 762.448,713.45C760.033,716.209 758.59,718.678 755.161,722.212C751.892,725.581 752.316,725.926 751.081,727.175C750.099,728.169 749.971,728.005 749.051,729.084C745.364,733.41 745.236,733.267 743.268,735.269C741.476,737.094 741.988,737.597 740.094,739.089C735.792,742.477 732.977,746.351 729.323,749.327C726.559,751.577 725.923,752.899 722.472,755.462C721.071,756.503 721.449,756.925 719.354,758.292C716.368,760.24 716.704,760.613 714.112,763.045C711.998,765.028 711.752,764.696 709.585,766.624C708.539,767.554 705.607,769.092 702.689,771.741C702.438,771.969 702.397,771.91 699.251,774.224C698.349,774.887 696.983,775.619 695.62,776.669C693.936,777.967 693.795,777.762 692.252,779.239C691.789,779.681 690.89,780.541 685.627,783.736C679.398,787.518 673.513,792.008 669.551,793.583C668.115,794.153 668.23,794.341 666.405,795.254C662.77,797.072 663.191,797.824 659.416,799.337C657.094,800.267 654.255,801.728 653.815,801.954C653.261,802.239 652.642,802.864 651.468,803.432C647.347,805.426 646.597,806.083 640.457,808.379C631.605,811.688 631.58,812.916 626.398,814.212C620.989,815.564 618.749,817.807 612.424,819.247C609.554,819.901 607.941,821.098 604.588,821.78C603.66,821.969 601.933,822.178 600.643,822.803C599.849,823.187 583.909,827.191 583.457,827.248C579.453,827.757 579.544,828.144 575.578,828.898C572.076,829.565 572.09,829.512 568.568,829.983C564.072,830.585 564.24,831.525 558.55,831.871C555.675,832.046 555.028,832.714 548.44,833.144C546.411,833.277 546.094,833.6 544.513,833.704C543.021,833.802 543.04,833.756 541.541,833.852C539.903,833.957 539.306,834.256 537.491,834.311C534.481,834.402 534.501,834.482 531.519,834.781C530.615,834.871 527.944,834.787 524.53,834.999C521.495,835.188 521.478,834.854 518.488,835.37C515.009,835.971 514.99,835.432 493.497,834.839C493.016,834.826 493.031,834.649 487.504,834.456C484.883,834.364 484.272,833.796 482.495,833.757C476.986,833.633 477.022,833.424 471.519,833.025C467.694,832.748 467.745,832.433 463.44,831.867C460.405,831.468 460.502,830.985 457.467,830.704C455.272,830.501 447.465,828.916 443.429,827.797C442.233,827.465 440.651,827.457 438.441,826.737C435.661,825.831 426.024,823.792 423.38,822.803C419.976,821.528 419.789,822.112 416.466,820.62C416.333,820.561 413.112,819.459 412.54,819.352C409.772,818.832 409.781,818.822 404.402,816.763C400.99,815.457 401.074,815.28 397.604,814.194C396.324,813.793 394.75,812.626 391.458,811.626C388.984,810.875 389.014,810.824 386.468,809.57C386.341,809.507 380.063,806.878 378.651,806.198C377.217,805.508 377.12,805.807 375.684,805.091C372.879,803.691 370.028,801.701 368.281,800.947C365.98,799.953 366.013,799.907 363.66,799.046C361.828,798.376 360.41,797.004 356.402,794.639C354.64,793.599 354.525,793.12 354.153,792.943C353.986,792.864 352.748,792.741 351.307,791.824C350.612,791.382 350.558,791.479 342.521,786.467C341.179,785.63 341.375,785.364 339.548,784.415C335.365,782.244 329.354,777.254 325.865,775.001C324.096,773.859 324.222,773.712 322.421,772.61C321.281,771.912 320.31,770.347 315.476,767.531C313.899,766.612 314.115,766.127 312.321,764.708C309.807,762.718 309.984,762.538 307.425,760.617C306.053,759.587 305.702,758.971 304.206,757.889C303.88,757.653 301.238,755.743 300.417,754.574C298.385,751.684 295.338,750.532 289.581,744.434C288.792,743.599 288.821,743.597 288.587,743.42C287.72,742.766 286.741,741.671 285.04,739.917C284.844,739.716 284.8,739.77 282.5,737.5C280.211,735.243 280.598,734.918 278.288,732.695C275.968,730.463 275.041,728.881 273.078,726.955C271.24,725.153 271.133,725.305 270.994,725.133C270.218,724.173 268.198,721.497 267.958,721.179C266.608,719.39 266.38,719.615 265.018,717.863C262.86,715.085 262.815,715.136 260.849,712.203C259.485,710.169 259.189,710.458 257.992,709.161C257.91,709.072 251.044,699.549 250.871,699.279C250.457,698.633 250.371,698.032 248.762,696.3C246.905,694.3 247.498,693.905 242.181,685.708C240.582,683.244 240.432,683.352 239.136,680.737C237.971,678.387 237.458,678.687 235.627,675.434C235.083,674.467 235.057,674.184 233.913,672.269C231.966,669.012 232.235,668.881 230.165,665.675C228.809,663.575 229.279,663.329 227.886,661.25C227.448,660.597 224.916,655.498 224.854,655.341C224.63,654.774 223.113,650.93 221.674,648.412C219.774,645.086 213.875,629.458 213.095,627.691C212.782,626.983 211.762,623.141 211.117,621.63C209.311,617.398 210.028,617.133 207.426,611.528C205.191,606.713 205.577,603.78 204.765,601.397C204.101,599.447 204.007,599.496 203.367,597.543C201.938,593.176 202.602,592.918 201.547,590.483C200.266,587.527 201.189,587.309 200.331,584.532C198.656,579.111 199.542,578.939 197.605,570.476C196.588,566.037 196.617,566.046 196.283,561.526C196.119,559.302 195.266,557.521 194.857,552.483C194.408,546.957 194.117,546.999 193.729,541.473C193.484,537.991 193.605,538.008 193.464,534.501C193.384,532.516 192.818,531.751 192.757,530.492C192.435,523.893 192.292,519.46 192.261,518.5C192.029,511.28 192.694,499.364 192.733,494.501C192.757,491.417 193.182,491.462 193.208,489.493C193.241,486.977 193.124,486.978 193.59,484.515C194.097,481.839 193.27,481.629 194.181,477.461C194.386,476.521 194.126,476.483 195.915,465.557C196.874,459.696 196.005,459.073 197.182,455.438C198.939,450.012 199.2,442.999 201.423,436.479C201.62,435.9 202.219,432.042 202.747,430.578C203.99,427.134 203.461,427 204.648,423.552C205.932,419.822 205.237,418.316 207.518,413.508C207.956,412.584 209.185,408.166 209.444,407.479C209.705,406.786 210.042,406.122 210.289,405.423C210.818,403.927 210.722,403.901 211.431,402.474C212.199,400.928 212.345,399.124 213.768,395.642C218.21,384.776 217.866,384.671 218.638,382.555C219.379,380.521 220.763,379.173 223.322,373.406C226.278,366.747 229.183,362.248 230.344,359.435C232.239,354.847 232.84,355.04 233.512,353.508C234.424,351.432 234.701,351.601 235.704,349.585C237.304,346.372 237.688,346.606 239.354,343.422C242.085,338.204 245.018,335.161 246.404,332.448C246.961,331.358 248.719,329.119 249.154,328.329C250.385,326.094 250.342,326.066 252.071,324.201C252.382,323.866 253.509,321.981 254.66,320.625C254.879,320.367 254.785,320.321 257.166,317.214C258.349,315.671 258.098,315.397 259.71,313.66C263.472,309.605 262.708,308.986 266.804,304.793C268.657,302.897 269.432,301.187 270.866,299.867C271.949,298.871 271.998,298.932 272.837,297.726C274.549,295.265 281.284,289.025 282.488,287.491C282.666,287.265 283.851,285.756 284.943,284.874C285.291,284.592 285.716,284.412 286.055,284.12C286.273,283.932 286.166,283.845 288.339,281.341C289.998,279.431 294.251,276.027 295.495,274.496C296.96,272.695 297.339,273.021 298.197,272.172C298.442,271.929 299.359,270.668 301.154,269.059C305.641,265.035 305.612,265.018 310.496,261.494C313.993,258.971 313.576,258.48 317.101,256.004C323.278,251.667 322.745,250.96 329.162,247.02C330.992,245.896 331.877,244.765 338.583,240.618C341.638,238.728 341.442,238.438 344.612,236.741C346.233,235.874 346.305,236.011 347.744,234.855C348.076,234.588 348.145,234.706 352.257,232.041C353.421,231.287 353.506,231.482 354.675,230.752C354.976,230.564 355.091,230.776 358.562,228.614C362.363,226.246 362.553,226.603 366.352,224.211C367.27,223.633 369.601,222.949 372.796,220.986C373.31,220.671 373.399,220.879 379.611,217.769C380.335,217.406 383.989,216.029 385.363,215.242C389.07,213.119 389.305,213.679 393.249,212.012C398.839,209.648 399.004,210.108 404.596,207.747C407.953,206.33 408.044,206.648 411.447,205.366C414.425,204.244 414.349,204.057 417.472,203.378C417.622,203.345 425.009,200.701 441.573,196.798C451.171,194.537 451.321,195.335 462.529,192.7C464.06,192.34 466.346,192.724 469.553,191.78C473.901,190.501 474.014,191.348 478.518,190.806C480.635,190.551 483.744,190.088 486.476,190.042C487.279,190.029 487.273,189.999 496.499,189.493C499.502,189.329 499.475,189.164 502.499,189.151C504.528,189.143 515.157,188.788 519.529,189.116C523.017,189.378 523.013,189.095 526.511,189.37C529.996,189.644 529.997,189.4 533.482,189.742C534.466,189.839 538.18,189.75 539.46,189.964C544.702,190.839 550.542,190.69 552.565,191.144C559.188,192.63 561.108,191.786 563.445,192.745C565.842,193.728 565.893,193.499 568.444,193.845C572.756,194.428 577.601,195.748 583.445,196.73C585.58,197.088 586.383,197.682 588.564,198.134C588.884,198.2 599.345,200.67 600.602,201.239C605.063,203.259 605.435,202.138 611.42,204.697C613.911,205.761 613.954,205.604 616.56,206.331C617.218,206.515 617.123,206.763 624.517,209.463C627.907,210.701 627.843,210.832 631.257,211.996C632.303,212.352 635.097,213.528 635.428,213.667C638.957,215.151 638.795,215.505 642.412,216.718C645.263,217.673 645.404,218.778 647.527,219.433C649.4,220.011 649.479,219.842 651.611,221.306C652.882,222.179 657.158,223.898 657.649,224.207C664.28,228.379 667.983,229.594 669.426,230.613C669.998,231.017 669.988,231.01 670.627,231.298C671.499,231.691 673.528,233.278 674.412,233.669C676.062,234.4 675.911,234.641 677.498,235.503C682.274,238.095 681.944,238.582 686.584,241.365C689.096,242.872 688.932,243.113 691.503,244.495C692.526,245.045 693.464,246.101 694.413,246.604C697.719,248.355 703.245,253.465 705.77,255.132C708.201,256.737 708.192,256.731 710.329,258.711C711.114,259.439 712.799,260.437 714.296,261.711C718.069,264.921 718.145,264.814 721.679,268.289C727.277,273.795 727.644,273.38 728.077,273.906C728.218,274.077 728.491,275 730.497,276.504C733.12,278.47 733.938,280.201 738.603,284.374C739.732,285.384 740.165,286.107 741.526,287.477C746.614,292.6 750.892,297.476 751.677,298.372C752.761,299.607 753.022,299.365 754.551,301.474C757.265,305.216 757.584,304.937 760.303,308.67C762.447,311.615 762.395,311.644 764.845,314.195C766.695,316.12 766.813,317.444 768.956,320.162C772.101,324.152 772.201,324.069 773.193,325.758C775.413,329.537 776.017,329.615 777.213,331.661C777.639,332.39 777.672,333.054 779.669,335.391C780.517,336.382 782.628,339.816 782.87,340.21C783.231,340.797 784.506,343.516 785.801,345.306C787.735,347.98 790.588,353.164 790.713,353.369C793.275,357.555 793.544,359.597 794.906,361.26C795.736,362.273 795.603,362.353 798.577,368.468C799.864,371.114 799.774,371.137 801.119,373.743C801.299,374.093 802.153,376.431 802.676,377.405C802.896,377.817 805.277,382.259 805.387,382.568C807.068,387.262 807.102,388.31 809.094,392.706C809.669,393.973 809.465,394.033 809.985,395.316C810.147,395.715 810.443,396.052 810.6,396.453C810.758,396.854 810.682,396.871 812.313,401.557C812.682,402.616 812.818,402.543 813.205,403.59C813.439,404.222 813.285,404.264 814.233,406.632C815.47,409.724 815.251,410.929 816.478,413.51C817.575,415.813 817.104,415.951 817.985,418.361C818.916,420.905 818.492,421.01 819.423,423.53C820.685,426.948 820.181,427.073 821.303,430.556C821.862,432.292 821.579,433.593 822.926,437.394C824.439,441.667 824.385,445.575 826.705,454.453C827.771,458.534 827.509,461.078 828.449,466.509C831.074,481.673 829.686,481.852 830.493,484.501C831.235,486.938 831.09,486.956 831.13,489.516C831.139,490.075 831.291,490.059 831.485,496.5C831.591,500.004 831.648,499.989 831.71,503.495C831.773,507.076 832.041,510.2 831.465,530.499C831.379,533.506 831.235,533.488 831.228,536.498C831.221,539.057 830.361,538.913 830.217,541.465C830.044,544.509 830.271,544.505 829.82,547.535C829.079,552.518 829.019,552.496 828.639,557.517C828.455,559.956 826.985,568.73 826.787,569.559C826.544,570.582 826.621,570.586 824.248,582.456C823.894,584.225 823.251,584.438 823.12,586.406C822.982,588.493 823.07,588.493 822.477,590.495C822.076,591.851 821.852,593.896 820.697,597.579C819.9,600.118 819.756,600.05 818.921,602.581Z" style="fill:rgb(246,214,158);"/>
                <path d="M617.388,231.862C624.889,234.704 638.479,240.514 644.718,244.097C646.624,245.192 649.292,246.046 655.361,249.738C657.481,251.028 663.565,254.449 664.282,254.852C665.074,255.298 664.989,255.408 673.802,261.052C688.533,270.486 706.039,285.495 710.392,289.617C714.763,293.755 714.859,293.635 719.096,297.898C721.857,300.676 724.721,303.054 733.244,312.712C735.452,315.214 735.587,315.075 736.561,316.455C737.083,317.195 741.593,322.183 746.428,328.554C747.085,329.421 752.881,337.058 754.429,339.548C754.617,339.85 754.704,339.788 756.932,343.218C757.246,343.702 757.31,343.647 760.97,349.192C761.925,350.639 762.002,350.577 764.394,354.564C768.773,361.864 768.879,361.789 772.923,369.27C776.443,375.781 776.374,375.792 779.577,382.458C782.203,387.923 782.177,387.911 784.58,393.465C785.267,395.055 786.312,396.929 787.589,400.464C788.492,402.965 792.603,413.196 796.634,427.462C797.155,429.306 797.465,429.746 798.71,434.447C799.942,439.101 804.371,459.025 804.855,463.448C805.529,469.608 805.824,469.557 806.578,477.491C806.949,481.399 808.983,497.216 808.86,513.502C808.701,534.593 804.921,563.15 803.385,569.475C801.564,576.972 801.749,582.612 792.098,612.363C789.856,619.275 785.702,628.909 785.091,630.325C782.17,637.099 782.132,637.069 778.846,643.664C777.464,646.439 777.793,646.591 774.963,651.749C770.006,660.785 770.062,660.799 764.714,669.631C763.99,670.826 759.095,678.912 755.144,684.245C751.819,688.735 750.109,692.17 737.362,707.385C736.721,708.15 736.754,708.33 734.112,711.151C728.267,717.394 715.232,732.489 692.339,750.282C691.077,751.263 690.563,751.454 688.318,753.267C685.507,755.539 685.355,755.308 682.573,757.592C679.614,760.022 669.119,766.45 665.672,768.78C664.751,769.402 664.698,769.295 653.673,775.802C652.495,776.497 635.69,785.096 630.405,787.268C617.566,792.542 617.617,792.641 604.437,797.311C602.956,797.836 598.623,799.371 585.565,802.756C585.397,802.799 581.494,804.279 565.445,807.175C562.4,807.725 544.566,811.948 512.497,812.158C496.33,812.264 472.309,810.474 455.489,806.55C448.115,804.829 447.976,805.458 432.603,801.123C418.958,797.276 404.563,792.441 384.346,782.816C379.285,780.407 373.731,777.205 370.445,775.6C369.645,775.209 369.678,775.158 360.775,770.071C360.304,769.801 360.317,769.793 354.293,765.814C353.855,765.524 352.295,764.809 349.323,762.749C343.962,759.035 343.914,759.128 338.707,755.204C336.107,753.244 333.404,751.719 320.372,740.656C317.095,737.875 317.303,737.644 315.551,736.438C314.093,735.434 312.646,733.707 310.424,731.581C301.995,723.512 301.832,723.691 293.909,715.106C266.186,685.067 251.151,654.881 251.072,654.735C248.292,649.607 248.105,649.724 245.774,644.387C244.21,640.806 243.859,640.987 241.218,634.626C239.108,629.543 237.214,626.012 235.32,620.567C233.394,615.031 233.124,615.148 231.295,609.569C225.402,591.598 224.879,587.727 222.721,578.453C219.05,562.668 215.759,538.374 215.74,515.5C215.723,495.318 216.011,489.304 219.242,464.46C219.909,459.329 224.693,436.333 227.338,428.449C228.881,423.851 231.339,414.42 233.365,409.445C234.95,405.555 237.125,398.773 238.781,395.631C239.281,394.681 238.943,394.539 244.23,383.366C251.65,367.686 257.961,357.876 259.343,355.413C260.409,353.514 270.171,338.886 271.802,336.738C273.327,334.731 273.233,334.688 274.772,332.704C275.931,331.209 276.732,329.804 278.626,327.603C279.25,326.879 280.897,324.669 282.619,322.591C293.708,309.211 298.549,304.691 300.479,302.482C302.18,300.534 304.274,298.913 306.03,297.063C307.355,295.668 312.132,290.638 323.8,280.853C325.891,279.1 332.578,273.904 333.347,273.306C333.663,273.061 333.697,273.112 337.364,270.32C351.567,259.503 365.505,251.7 365.587,251.656C371.099,248.655 370.937,248.39 376.583,245.653C378.75,244.603 380.543,243.399 387.415,240.302C392.523,238.001 392.481,237.966 397.589,235.712C398.146,235.466 398.151,235.501 404.621,232.787C405.319,232.495 405.346,232.603 413.526,229.576C428.485,224.04 442.848,220.827 445.444,220.246C449.147,219.417 449.091,219.194 455.433,218.08C475.393,214.574 492.873,211.723 523.5,212.503C536.69,212.839 547.407,214.408 549.47,214.71C552.009,215.082 552.011,214.902 554.522,215.379C557.73,215.99 573.673,218.18 586.384,221.893C594.184,224.171 597.599,224.588 607.568,228.309C611.583,229.807 611.622,229.636 615.574,231.306C615.714,231.365 615.708,231.347 617.388,231.862Z" style="fill:rgb(207,95,50);"/>
                <g transform="matrix(1,0,0,1,-0.129915,-0.396958)">
                    <path d="M537.528,232.126C549.818,233.197 569.869,236.595 576.472,238.594C582.415,240.393 583.999,239.947 598.375,244.848C604.532,246.947 604.558,246.806 610.606,249.204C621.248,253.423 621.237,253.418 631.589,258.303C633.619,259.261 633.671,259.103 635.675,260.148C645.038,265.035 651.872,269.092 653.255,269.913C655.763,271.401 655.687,271.483 658.216,272.966C658.596,273.189 658.491,273.337 662.822,276.004C670.915,280.988 685.602,292.321 691.475,297.528C698.738,303.966 698.801,303.885 702.522,307.476C717.885,322.301 717.713,323.179 722.6,328.408C723.57,329.445 730.443,337.721 732.446,340.547C733.06,341.412 736.016,345.221 736.329,345.625C742.319,353.341 751.43,368.28 752.199,369.67C752.458,370.139 758.816,380.994 764.297,392.595C765.434,395.001 767.187,398.976 767.432,399.533C770.88,407.352 770.572,407.464 773.788,415.385C775.249,418.982 781.857,438.589 784.948,456.418C785.261,458.222 787.716,466.582 789.245,486.519C789.435,488.995 790.599,499.572 790.526,516.5C790.506,521.401 789.526,537.963 789.006,542.451C786.6,563.235 786.272,563.178 781.881,582.594C780.061,590.644 779.51,590.475 777.367,598.46C776.93,600.087 774.967,606.302 773.584,609.535C770.874,615.871 771.575,616.156 765.688,628.591C765.163,629.7 764.802,631.233 762.586,635.545C757.423,645.591 757.298,645.798 756.782,646.658C755.388,648.978 752.924,654.29 748.231,661.333C746.543,663.865 738.088,678.169 723.443,695.454C717.946,701.942 717.754,701.747 712.075,708.072C710.652,709.656 695.875,723.594 695.195,724.129C690.83,727.564 690.094,728.618 687.52,730.524C684.613,732.675 684.782,732.87 681.859,734.988C681.536,735.222 681.587,735.287 677.874,737.981C677.784,738.046 677.799,738.044 676.784,738.846C674.256,740.841 674.159,740.683 671.595,742.635C670.168,743.722 670.08,743.579 668.693,744.736C668.436,744.951 668.378,745 665.25,747.131C664.81,747.431 664.727,747.294 659.633,750.704C659.265,750.95 647.382,758.133 646.528,758.552C643.183,760.189 640.214,762.238 636.321,764.159C635.937,764.348 635.92,764.304 631.479,766.458C624.616,769.785 624.669,769.866 617.566,772.669C614.914,773.716 612.2,775.352 604.576,777.724C601.51,778.677 595.736,781.056 592.577,781.786C591.967,781.926 583.353,784.396 581.572,784.785C577.711,785.629 577.861,786.334 554.479,790.367C541.375,792.627 526.874,793.093 518.502,793.54C509.004,794.048 480.867,792.514 470.513,790.421C469.791,790.275 469.792,790.324 461.438,788.845C457.47,788.142 457.461,788.317 453.524,787.397C450.777,786.755 450.724,787.026 439.397,783.874C431.917,781.792 431.87,781.995 424.556,779.355C419.811,777.643 419.013,777.84 409.382,773.763C401.22,770.306 401.139,770.526 394.234,766.997C392.249,765.982 389.785,764.906 389.393,764.735C386.758,763.583 372.247,755.568 366.79,752.047C366.677,751.974 362.784,749.799 350.246,740.865C348.525,739.638 341.751,734.811 329.698,724.264C317.956,713.99 307.635,703.215 305.909,701.159C303.139,697.859 303.011,697.987 300.275,694.667C298.114,692.043 287.832,679.873 282.619,671.428C281.762,670.039 278.354,665.623 276.585,662.447C274.58,658.847 270.975,654.235 261.153,634.663C259.222,630.814 252.291,614.327 251.392,611.534C250.461,608.64 249.991,608.281 248.686,604.435C245.99,596.487 246.239,596.425 243.837,588.395C241.88,581.856 239.619,569.637 238.716,565.453C236.898,557.025 236.076,551.116 234.448,532.505C233.183,518.053 233.948,503.044 234.078,500.486C234.139,499.29 234.613,490.003 234.997,485.54C235.149,483.784 235.891,477.27 235.973,476.552C237.05,467.092 241.13,445.424 244.559,434.519C244.908,433.408 244.714,433.363 248.728,420.571C249.242,418.935 252.119,411.277 252.421,410.471C256.086,400.717 261.088,390.181 262.975,386.732C264.973,383.082 265.517,381.04 268.803,375.681C269.111,375.179 272.731,368.844 273.071,368.249C279.879,356.334 283.367,352.412 287.916,345.822C288.271,345.308 288.339,345.373 292.675,339.632C292.931,339.293 299.034,331.494 303.561,326.556C310.735,318.73 310.538,318.563 318.095,311.113C321.872,307.39 323.482,306.017 327.848,301.863C327.96,301.756 338.027,293.228 340.307,291.263C344.217,287.896 353.534,281.583 355.251,280.197C357.014,278.774 368.153,271.015 383.276,263.08C385.305,262.015 385.963,261.266 391.623,258.767C399.426,255.322 399.254,254.966 403.434,253.353C405.701,252.478 412.227,249.212 427.451,244.347C428.384,244.049 463.328,231.929 504.494,231.225C519.677,230.965 528.415,231.514 530.491,231.644C534.017,231.866 533.999,231.837 537.528,232.126Z" style="fill:rgb(236,198,140);"/>
                </g>
                <g transform="matrix(0.853333,0,0,0.853333,190.643844,-16.721529)">
                    <circle cx="158.414" cy="520.251" r="58.921" style="fill:rgb(207,95,50);"/>
                </g>
                <g transform="matrix(0.853333,0,0,0.853333,184.567168,145.499636)">
                    <circle cx="158.414" cy="520.251" r="58.921" style="fill:rgb(207,95,50);"/>
                </g>
                <g transform="matrix(0.853333,0,0,0.853333,294.945986,-128.065937)">
                    <circle cx="158.414" cy="520.251" r="58.921" style="fill:rgb(207,95,50);"/>
                </g>
                <g transform="matrix(0.853333,0,0,0.853333,458.087351,-128.413273)">
                    <circle cx="158.414" cy="520.251" r="58.921" style="fill:rgb(207,95,50);"/>
                </g>
                <g transform="matrix(0.853333,0,0,0.853333,567.66778,-22.552746)">
                    <circle cx="158.414" cy="520.251" r="58.921" style="fill:rgb(207,95,50);"/>
                </g>
                <g transform="matrix(0.853333,0,0,0.853333,569.470337,135.335132)">
                    <circle cx="158.414" cy="520.251" r="58.921" style="fill:rgb(207,95,50);"/>
                </g>
                <g transform="matrix(0.853333,0,0,0.853333,459.710158,261.975846)">
                    <circle cx="158.414" cy="520.251" r="58.921" style="fill:rgb(207,95,50);"/>
                </g>
                <g transform="matrix(0.853333,0,0,0.853333,296.314821,261.975846)">
                    <circle cx="158.414" cy="520.251" r="58.921" style="fill:rgb(207,95,50);"/>
                </g>
                <g transform="matrix(1,0,0,1,11.19826,-22.20281)">
                    <path d="M616.704,611.393C618.005,614.312 617.859,614.353 618.87,617.389C620.091,621.055 623.228,622.307 620.534,626.525C619.387,628.322 613.142,630.664 610.753,622.43C609.848,619.308 610.603,618.517 607.6,617.254C607.207,617.089 601.119,615.481 602.218,610.433C603.302,605.454 609.74,606.636 610.449,606.766C614.809,607.566 616.397,610.93 616.704,611.393Z" style="fill:rgb(128,34,8);"/>
                </g>
                <g transform="matrix(1,0,0,1,-10.766945,-21.738849)">
                    <path d="M416.447,605.071C418.234,605.229 418.342,604.905 419.399,605.661C423.547,608.631 421.717,614.298 416.455,615.282C409.011,616.674 403.513,612.79 400.434,610.589C396.192,607.556 397.536,602.592 400.565,601.702C404.533,600.535 406.776,603.155 407.854,604.069C412.21,607.762 412.911,606.096 415.429,605.277C415.758,605.17 416.117,605.178 416.447,605.071Z" style="fill:rgb(128,34,8);"/>
                </g>
                <path d="M417.479,406.688C417.801,406.796 419.973,406.709 421.274,409.589C423.764,415.104 413.905,420.745 405.833,413.151C404.598,411.99 401.459,408.275 401.091,407.839C400.959,407.684 399.174,406.184 399.698,403.545C400.271,400.66 404.3,397.368 408.43,401.567C411.779,404.971 411.375,407.01 414.526,406.804C416.013,406.706 415.997,406.684 417.479,406.688Z" style="fill:rgb(128,34,8);"/>
                <path d="M604.673,406.983C606.973,406.319 608.167,406.16 609.242,404.37C609.577,403.812 610.368,401.083 610.669,400.593C614.294,394.695 623.791,398.944 619.446,407.47C618.25,409.815 614.46,413.009 613.573,413.604C602.855,420.798 600.09,412.868 601.774,409.629C602.763,407.729 604.515,407.085 604.673,406.983Z" style="fill:rgb(128,34,8);"/>
                <path d="M524.163,333.565C524.17,333.943 526.476,336.483 514.891,345.978C514.197,346.546 512.662,348.26 509.527,348.119C505.542,347.94 502.143,343.189 507.349,339.283C508.504,338.417 510.175,337.944 512.261,335.315C513.902,333.246 516.194,328.738 520.459,329.681C520.628,329.718 521.513,329.913 522.391,330.637C523.742,331.749 523.475,331.948 524.163,333.565Z" style="fill:rgb(128,34,8);"/>
                <path d="M506.263,518.386C507.861,515.064 509.465,511.378 510.791,509.727C513.93,505.819 522.407,509.06 518.903,515.687C518.567,516.322 514.939,523.182 514.68,523.615C511.723,528.541 504.948,525.874 505.234,521.48C505.328,520.026 505.567,520.101 506.263,518.386Z" style="fill:rgb(128,34,8);"/>
                <g transform="matrix(1,0,0,1,6.839966,5.737942)">
                    <path d="M256.29,482.616C255.629,480.86 255.424,480.916 255.34,479.506C255.279,478.493 255.528,477.673 255.575,477.52C257.722,470.445 264.066,471.921 265.433,472.643C273.464,476.885 268.309,487.924 260.399,485.899C257.542,485.168 256.308,482.64 256.29,482.616Z" style="fill:rgb(128,34,8);"/>
                </g>
                <path d="M755.93,479.525C755.749,480.478 755.988,481.752 753.999,483.991C749.288,489.293 739.504,484.35 742.475,476.49C745.085,469.589 755.489,471.281 755.925,478.464C755.946,478.817 755.909,479.172 755.93,479.525Z" style="fill:rgb(128,34,8);"/>
                <path d="M681.217,348.856C681.205,348.844 679.567,347.819 678.743,345.427C678.642,345.133 678.084,343.513 678.683,341.549C679.648,338.384 681.504,337.529 682.237,337.044C684.503,335.546 688.708,335.44 691.368,339.58C693.768,343.317 691.725,348.033 688.551,349.594C684.418,351.627 681.855,349.289 681.217,348.856Z" style="fill:rgb(128,34,8);"/>
                <path d="M332.067,344.581C332.056,344.215 331.907,343.862 331.896,343.496C331.887,343.205 332.037,341.221 332.92,339.747C336.468,333.825 343.632,336.079 345.376,340.553C348.033,347.369 339.921,353.52 334.404,348.609C332.32,346.755 332.294,345.29 332.067,344.581Z" style="fill:rgb(128,34,8);"/>
                <path d="M684.565,687.08C682.52,686.41 682.336,686.698 680.787,685.19C680.544,684.953 679.135,683.582 678.785,681.445C677.74,675.07 684.146,671.554 688.42,673.674C694.929,676.902 692.907,684.424 688.47,686.441C686.352,687.404 685.139,687.084 684.565,687.08Z" style="fill:rgb(128,34,8);"/>
                <path d="M337.397,686.932C335.463,686.224 334.675,686.307 333.041,683.789C332.805,683.425 331.527,681.456 332.25,678.434C333.813,671.902 343.027,671.169 345.409,677.536C346.964,681.69 344.297,684.436 343.88,684.866C340.807,688.03 338.152,687.007 337.397,686.932Z" style="fill:rgb(128,34,8);"/>
                <path d="M516.221,269.551C516.236,269.98 516.61,271.381 515.757,273.607C513.036,280.704 501.099,278.278 502.638,269.524C503.846,262.649 513.583,261.854 515.862,268.366C515.998,268.756 516.085,269.161 516.221,269.551Z" style="fill:rgb(128,34,8);"/>
                <path d="M512.588,756.633C511.878,756.937 509.585,758.868 505.468,756.551C499.824,753.373 501.971,742.362 510.457,743.729C514.01,744.301 515.644,747.37 515.926,749.424C516.579,754.166 513.224,756.112 512.588,756.633Z" style="fill:rgb(128,34,8);"/>
                <path d="M569.229,634.612C568.782,632.636 568.758,632.653 568.746,632.478C568.193,624.293 578.818,622.8 581.603,628.442C584.971,635.266 577.923,640.96 572.621,638.261C570.334,637.097 570.586,636.784 569.229,634.612Z" style="fill:rgb(128,34,8);"/>
                <g transform="matrix(1,0,0,1,20.456031,-0.057524)">
                    <path d="M499.437,687.079C497.401,687.091 497.348,687.331 495.474,686.558C488.985,683.88 490.899,672.756 498.52,673.123C505.866,673.476 507.279,683.513 501.451,686.413C501.299,686.488 501.302,686.462 499.437,687.079Z" style="fill:rgb(128,34,8);"/>
                </g>
                <path d="M442.214,634.699C441.116,632.94 441.122,632.951 441.028,632.799C440.882,632.565 440.85,632.608 440.699,632.376C435.409,624.228 442.845,618.813 447.189,623.763C447.597,624.227 450.052,627.963 451.807,631.349C453.66,634.925 450.785,637.224 449.591,637.705C444.933,639.582 442.543,635.121 442.214,634.699Z" style="fill:rgb(128,34,8);"/>
                <g transform="matrix(1,0,0,1,67.997271,-8.494884)">
                    <path d="M262.82,523.436C262.809,521.009 261.887,519.378 271.308,514.134C275.033,512.061 279.735,516.207 277.846,520.665C277.238,522.099 277.042,521.953 275.854,522.934C264.998,531.891 263.424,524.863 262.82,523.436Z" style="fill:rgb(128,34,8);"/>
                </g>
                <g transform="matrix(1,0,0,1,80.632473,89.32189)">
                    <g transform="matrix(0.716148,0,0,0.716148,317.919914,139.423664)">
                        <circle cx="158.414" cy="520.251" r="58.921" style="fill:rgb(128,34,8);"/>
                    </g>
                    <g transform="matrix(0.869083,0,0,0.869083,-25.777797,-28.24206)">
                        <circle cx="526.009" cy="621.623" r="43.107" style="fill:rgb(172,70,42);"/>
                    </g>
                    <g transform="matrix(1,0,0,1,-85.41791,88.429141)">
                        <path d="M505.405,396.035C506.363,395.91 513.455,394.984 517.479,395.601C520.927,396.13 520.86,399.997 520.199,401.35C519.001,403.804 517.333,402.936 509.503,403.537C500.587,404.221 501.685,397.166 504.397,396.248C504.722,396.138 505.08,396.145 505.405,396.035Z" style="fill:rgb(128,34,8);"/>
                    </g>
                    <g transform="matrix(1,0,0,1,-85.41791,88.429141)">
                        <path d="M530.33,408.547C530.339,408.187 530.137,407.843 530.146,407.483C530.227,404.128 537.537,400.255 541.18,412.623C541.332,413.142 542.665,417.665 539.31,419.112C536.4,420.368 535.105,417.809 535.094,417.796C532.835,414.888 532.444,411.934 530.33,408.547Z" style="fill:rgb(128,34,8);"/>
                    </g>
                    <g transform="matrix(-0.06057,0.998164,-0.998164,-0.06057,896.254407,20.243435)">
                        <path d="M530.33,408.547C530.339,408.187 530.137,407.843 530.146,407.483C530.227,404.128 537.537,400.255 541.18,412.623C541.332,413.142 542.665,417.665 539.31,419.112C536.4,420.368 535.105,417.809 535.094,417.796C532.835,414.888 532.444,411.934 530.33,408.547Z" style="fill:rgb(128,34,8);"/>
                    </g>
                    <g transform="matrix(1,0,0,1,-85.41791,92.273858)">
                        <path d="M513.39,422.808C513.103,422.682 512.795,422.608 512.509,422.481C510.144,421.438 508.308,418.633 510.24,416.303C512.132,414.021 513.441,414.133 517.553,415.313C522.275,416.668 525.913,420.066 523.226,423.281C520.721,426.278 518.775,424.732 513.39,422.808Z" style="fill:rgb(128,34,8);"/>
                    </g>
                    <g transform="matrix(1,0,0,1,-85.41791,88.429141)">
                        <path d="M496.532,437.057C497.706,437.268 498.484,436.89 501.666,439.299C502.222,439.719 504.551,441.131 504.247,443.467C504.145,444.254 502.08,448.845 497.545,446.406C496.555,445.873 496.615,445.806 495.623,445.267C492.863,443.769 492.444,444.395 491.058,442.747C489.455,440.841 492.192,437.29 495.463,437.056C495.818,437.03 496.176,437.082 496.532,437.057Z" style="fill:rgb(128,34,8);"/>
                    </g>
                    <g transform="matrix(1,0,0,1,-85.41791,88.429141)">
                        <path d="M490.593,423.207C490.086,422.878 488.915,422.738 488.195,420.595C487.349,418.077 491.232,413.806 491.523,413.526C495.299,409.894 500.657,415.221 497.948,419.709C495.564,423.66 495.07,424.042 490.593,423.207Z" style="fill:rgb(128,34,8);"/>
                    </g>
                </g>
                <g transform="matrix(1,0,0,1,-3.760298,-12.343403)">
                    <g transform="matrix(0.716148,0,0,0.716148,317.919914,139.423664)">
                        <circle cx="158.414" cy="520.251" r="58.921" style="fill:rgb(128,34,8);"/>
                    </g>
                    <g transform="matrix(0.869083,0,0,0.869083,-25.777797,-28.24206)">
                        <circle cx="526.009" cy="621.623" r="43.107" style="fill:rgb(172,70,42);"/>
                    </g>
                    <g transform="matrix(1,0,0,1,-85.41791,88.429141)">
                        <path d="M505.405,396.035C506.363,395.91 513.455,394.984 517.479,395.601C520.927,396.13 520.86,399.997 520.199,401.35C519.001,403.804 517.333,402.936 509.503,403.537C500.587,404.221 501.685,397.166 504.397,396.248C504.722,396.138 505.08,396.145 505.405,396.035Z" style="fill:rgb(128,34,8);"/>
                    </g>
                    <g transform="matrix(1,0,0,1,-85.41791,88.429141)">
                        <path d="M530.33,408.547C530.339,408.187 530.137,407.843 530.146,407.483C530.227,404.128 537.537,400.255 541.18,412.623C541.332,413.142 542.665,417.665 539.31,419.112C536.4,420.368 535.105,417.809 535.094,417.796C532.835,414.888 532.444,411.934 530.33,408.547Z" style="fill:rgb(128,34,8);"/>
                    </g>
                    <g transform="matrix(-0.06057,0.998164,-0.998164,-0.06057,896.254407,20.243435)">
                        <path d="M530.33,408.547C530.339,408.187 530.137,407.843 530.146,407.483C530.227,404.128 537.537,400.255 541.18,412.623C541.332,413.142 542.665,417.665 539.31,419.112C536.4,420.368 535.105,417.809 535.094,417.796C532.835,414.888 532.444,411.934 530.33,408.547Z" style="fill:rgb(128,34,8);"/>
                    </g>
                    <g transform="matrix(1,0,0,1,-85.41791,92.273858)">
                        <path d="M513.39,422.808C513.103,422.682 512.795,422.608 512.509,422.481C510.144,421.438 508.308,418.633 510.24,416.303C512.132,414.021 513.441,414.133 517.553,415.313C522.275,416.668 525.913,420.066 523.226,423.281C520.721,426.278 518.775,424.732 513.39,422.808Z" style="fill:rgb(128,34,8);"/>
                    </g>
                    <g transform="matrix(1,0,0,1,-85.41791,88.429141)">
                        <path d="M496.532,437.057C497.706,437.268 498.484,436.89 501.666,439.299C502.222,439.719 504.551,441.131 504.247,443.467C504.145,444.254 502.08,448.845 497.545,446.406C496.555,445.873 496.615,445.806 495.623,445.267C492.863,443.769 492.444,444.395 491.058,442.747C489.455,440.841 492.192,437.29 495.463,437.056C495.818,437.03 496.176,437.082 496.532,437.057Z" style="fill:rgb(128,34,8);"/>
                    </g>
                    <g transform="matrix(1,0,0,1,-85.41791,88.429141)">
                        <path d="M490.593,423.207C490.086,422.878 488.915,422.738 488.195,420.595C487.349,418.077 491.232,413.806 491.523,413.526C495.299,409.894 500.657,415.221 497.948,419.709C495.564,423.66 495.07,424.042 490.593,423.207Z" style="fill:rgb(128,34,8);"/>
                    </g>
                </g>
                <g transform="matrix(1,0,0,1,181.916342,-21.324427)">
                    <g transform="matrix(0.716148,0,0,0.716148,317.919914,139.423664)">
                        <circle cx="158.414" cy="520.251" r="58.921" style="fill:rgb(128,34,8);"/>
                    </g>
                    <g transform="matrix(0.869083,0,0,0.869083,-25.777797,-28.24206)">
                        <circle cx="526.009" cy="621.623" r="43.107" style="fill:rgb(172,70,42);"/>
                    </g>
                    <g transform="matrix(1,0,0,1,-85.41791,88.429141)">
                        <path d="M505.405,396.035C506.363,395.91 513.455,394.984 517.479,395.601C520.927,396.13 520.86,399.997 520.199,401.35C519.001,403.804 517.333,402.936 509.503,403.537C500.587,404.221 501.685,397.166 504.397,396.248C504.722,396.138 505.08,396.145 505.405,396.035Z" style="fill:rgb(128,34,8);"/>
                    </g>
                    <g transform="matrix(1,0,0,1,-85.41791,88.429141)">
                        <path d="M530.33,408.547C530.339,408.187 530.137,407.843 530.146,407.483C530.227,404.128 537.537,400.255 541.18,412.623C541.332,413.142 542.665,417.665 539.31,419.112C536.4,420.368 535.105,417.809 535.094,417.796C532.835,414.888 532.444,411.934 530.33,408.547Z" style="fill:rgb(128,34,8);"/>
                    </g>
                    <g transform="matrix(-0.06057,0.998164,-0.998164,-0.06057,896.254407,20.243435)">
                        <path d="M530.33,408.547C530.339,408.187 530.137,407.843 530.146,407.483C530.227,404.128 537.537,400.255 541.18,412.623C541.332,413.142 542.665,417.665 539.31,419.112C536.4,420.368 535.105,417.809 535.094,417.796C532.835,414.888 532.444,411.934 530.33,408.547Z" style="fill:rgb(128,34,8);"/>
                    </g>
                    <g transform="matrix(1,0,0,1,-85.41791,92.273858)">
                        <path d="M513.39,422.808C513.103,422.682 512.795,422.608 512.509,422.481C510.144,421.438 508.308,418.633 510.24,416.303C512.132,414.021 513.441,414.133 517.553,415.313C522.275,416.668 525.913,420.066 523.226,423.281C520.721,426.278 518.775,424.732 513.39,422.808Z" style="fill:rgb(128,34,8);"/>
                    </g>
                    <g transform="matrix(1,0,0,1,-85.41791,88.429141)">
                        <path d="M496.532,437.057C497.706,437.268 498.484,436.89 501.666,439.299C502.222,439.719 504.551,441.131 504.247,443.467C504.145,444.254 502.08,448.845 497.545,446.406C496.555,445.873 496.615,445.806 495.623,445.267C492.863,443.769 492.444,444.395 491.058,442.747C489.455,440.841 492.192,437.29 495.463,437.056C495.818,437.03 496.176,437.082 496.532,437.057Z" style="fill:rgb(128,34,8);"/>
                    </g>
                    <g transform="matrix(1,0,0,1,-85.41791,88.429141)">
                        <path d="M490.593,423.207C490.086,422.878 488.915,422.738 488.195,420.595C487.349,418.077 491.232,413.806 491.523,413.526C495.299,409.894 500.657,415.221 497.948,419.709C495.564,423.66 495.07,424.042 490.593,423.207Z" style="fill:rgb(128,34,8);"/>
                    </g>
                </g>
                <g transform="matrix(1,0,0,1,80.632473,-105.717198)">
                    <g transform="matrix(0.716148,0,0,0.716148,317.919914,139.423664)">
                        <circle cx="158.414" cy="520.251" r="58.921" style="fill:rgb(128,34,8);"/>
                    </g>
                    <g transform="matrix(0.869083,0,0,0.869083,-25.777797,-28.24206)">
                        <circle cx="526.009" cy="621.623" r="43.107" style="fill:rgb(172,70,42);"/>
                    </g>
                    <g transform="matrix(1,0,0,1,-85.41791,88.429141)">
                        <path d="M505.405,396.035C506.363,395.91 513.455,394.984 517.479,395.601C520.927,396.13 520.86,399.997 520.199,401.35C519.001,403.804 517.333,402.936 509.503,403.537C500.587,404.221 501.685,397.166 504.397,396.248C504.722,396.138 505.08,396.145 505.405,396.035Z" style="fill:rgb(128,34,8);"/>
                    </g>
                    <g transform="matrix(1,0,0,1,-85.41791,88.429141)">
                        <path d="M530.33,408.547C530.339,408.187 530.137,407.843 530.146,407.483C530.227,404.128 537.537,400.255 541.18,412.623C541.332,413.142 542.665,417.665 539.31,419.112C536.4,420.368 535.105,417.809 535.094,417.796C532.835,414.888 532.444,411.934 530.33,408.547Z" style="fill:rgb(128,34,8);"/>
                    </g>
                    <g transform="matrix(-0.06057,0.998164,-0.998164,-0.06057,896.254407,20.243435)">
                        <path d="M530.33,408.547C530.339,408.187 530.137,407.843 530.146,407.483C530.227,404.128 537.537,400.255 541.18,412.623C541.332,413.142 542.665,417.665 539.31,419.112C536.4,420.368 535.105,417.809 535.094,417.796C532.835,414.888 532.444,411.934 530.33,408.547Z" style="fill:rgb(128,34,8);"/>
                    </g>
                    <g transform="matrix(1,0,0,1,-85.41791,92.273858)">
                        <path d="M513.39,422.808C513.103,422.682 512.795,422.608 512.509,422.481C510.144,421.438 508.308,418.633 510.24,416.303C512.132,414.021 513.441,414.133 517.553,415.313C522.275,416.668 525.913,420.066 523.226,423.281C520.721,426.278 518.775,424.732 513.39,422.808Z" style="fill:rgb(128,34,8);"/>
                    </g>
                    <g transform="matrix(1,0,0,1,-85.41791,88.429141)">
                        <path d="M496.532,437.057C497.706,437.268 498.484,436.89 501.666,439.299C502.222,439.719 504.551,441.131 504.247,443.467C504.145,444.254 502.08,448.845 497.545,446.406C496.555,445.873 496.615,445.806 495.623,445.267C492.863,443.769 492.444,444.395 491.058,442.747C489.455,440.841 492.192,437.29 495.463,437.056C495.818,437.03 496.176,437.082 496.532,437.057Z" style="fill:rgb(128,34,8);"/>
                    </g>
                    <g transform="matrix(1,0,0,1,-85.41791,88.429141)">
                        <path d="M490.593,423.207C490.086,422.878 488.915,422.738 488.195,420.595C487.349,418.077 491.232,413.806 491.523,413.526C495.299,409.894 500.657,415.221 497.948,419.709C495.564,423.66 495.07,424.042 490.593,423.207Z" style="fill:rgb(128,34,8);"/>
                    </g>
                </g>
            </g>
        </g>
    </g>
</svg>
