<?xml version="1.0" encoding="UTF-8" standalone="no"?>
<!DOCTYPE svg PUBLIC "-//W3C//DTD SVG 1.1//EN" "http://www.w3.org/Graphics/SVG/1.1/DTD/svg11.dtd">
<svg width="100%" height="100%" viewBox="0 0 503 977" version="1.1" xmlns="http://www.w3.org/2000/svg" xmlns:xlink="http://www.w3.org/1999/xlink" xml:space="preserve" xmlns:serif="http://www.serif.com/" style="fill-rule:evenodd;clip-rule:evenodd;stroke-linejoin:round;stroke-miterlimit:2;">
    <g transform="matrix(1,0,0,1,-7992.440826,-9873.464914)">
        <g transform="matrix(1.95055,0,0,3.948123,-7265.768949,-11556.637138)">
            <g id="Fondo" transform="matrix(0.600792,0,0,0.296818,7643.777197,5402.136781)">
                <path d="M615.626,352.031C615.862,351.924 616.168,352.131 616.404,352.024C616.752,351.866 616.59,351.577 620.591,349.714C625.913,347.237 634.317,344.963 635.536,344.633C637.29,344.158 645.377,340.92 664.477,339.266C675.103,338.345 693.299,337.993 697.387,339.77C703.165,342.282 701.876,348.662 697.605,350.714C692.197,353.312 691.654,352.319 666.783,367.951C663.424,370.062 659.818,372.681 659.226,373.112C659.188,373.139 656.782,374.456 644.117,384.004C638.515,388.228 634.481,390.202 623.611,401.605C622.904,402.347 619.012,406.429 615.106,411.197C606.635,421.536 606.234,421.645 606.682,422.418C607.237,423.374 607.48,423.102 608.525,422.755C612.381,421.476 612.441,421.718 629.484,418.41C639.73,416.422 679.188,414.978 685.316,420.703C689.109,424.247 688.909,431.619 677.476,433.362C670.674,434.399 670.62,434.328 664.371,437.225C663.591,437.587 663.546,437.476 654.555,441.612C651.715,442.918 646.417,445.572 645.714,445.924C640.359,448.606 626.003,458.103 624.355,459.288C623.909,459.61 620.872,461.506 611.404,468.362C608.61,470.386 603.052,473.855 597.226,478.225C595.583,479.457 595.827,480.255 597.695,481.081C608.23,485.739 608.125,485.936 618.749,492.055C629.61,498.309 632.448,501.524 641.099,508.943C644.685,512.019 649.322,518.266 649.966,519.134C651.893,521.729 652.021,521.612 653.881,524.237C660.027,532.912 663.243,543.835 669.721,552.338C672.627,556.152 680.844,573.508 683.794,583.411C691.601,609.616 690.511,615.865 689.654,630.51C689.392,634.99 693.086,640.981 696.009,655.594C698.803,669.558 700.116,689.852 698.653,698.524C696.971,708.491 697.13,708.496 695.254,718.451C694.201,724.036 699.278,734.379 697.724,752.521C696.824,763.026 691.99,788.455 686.419,802.469C682.097,813.34 680.321,816.497 673.98,826.793C673.903,826.918 673.07,828.529 671.712,830.633C670.021,833.253 670.157,833.32 667.778,836.69C667.56,836.998 665.519,840.253 663.195,843.278C660.685,846.547 660.365,847.337 656.263,852.31C648.079,862.233 648.165,862.298 645.341,865.357C642.033,868.939 642.182,869.071 632.289,878.272C630.745,879.708 626.508,883.649 611.344,894.263C604.408,899.117 602.091,899.702 598.633,901.747C596.675,902.904 576.451,913.484 557.469,916.298C553.916,916.824 550.824,917.649 538.539,918.883C511.605,921.588 475.762,920.454 451.481,912.558C444.671,910.344 439.302,908.502 427.41,902.683C413.776,896.011 404.822,888.659 400.429,885.602C398.882,884.526 393.76,880.356 393.188,879.891C382.936,871.544 374.162,860.225 372.705,858.346C370.439,855.423 370.628,855.276 366.355,850.63C362.211,846.126 345.957,823.107 340.942,811.302C338.923,806.549 335.859,800.195 330.878,777.414C325.876,754.535 326.49,744.394 326.664,741.507C327.551,726.87 330.025,722.751 329.134,718.58C325.043,699.422 325.086,690.926 325.098,688.498C325.111,685.846 325.173,673.461 328.718,655.548C330.308,647.514 334.583,637.006 334.383,632.505C333.955,622.89 333.754,622.051 335.35,608.482C335.774,604.881 339,585.592 349.999,562.729C352.679,557.157 352.011,556.887 355.873,548.666C357.169,545.907 358.973,541.505 363.909,532.751C364.008,532.574 369.835,523.745 371.621,521.6C383.616,507.193 390.039,503.36 394.312,500.236C396.206,498.851 397.296,498.482 405.163,493.007C415.149,486.055 421.221,483.616 424.65,481.801C425.66,481.266 428.15,480.452 428.281,480.286C428.834,479.59 428.336,478.784 428.268,478.674C428.054,478.328 420.366,473.089 420.195,472.983C409.574,466.417 409.756,466.155 399.449,458.569C390.901,452.278 382.655,447.547 380.652,446.249C376.373,443.477 354.965,434.923 352.557,434.302C347.931,433.108 336.036,432.435 336.773,424.535C337.227,419.664 343.291,418.471 352.499,417.484C360.763,416.598 378.934,416.337 390.493,417.572C401.14,418.71 401.076,419.055 411.56,421.185C416.461,422.181 416.555,422.885 417.303,422.24C418.242,421.43 416.466,419.641 416.403,419.569C414.773,417.672 414.938,417.566 413.282,415.688C411.357,413.505 407.523,407.961 402.189,402.833C398.634,399.415 398.641,399.438 388.194,389.833C387.524,389.217 387.464,389.313 379.541,382.451C362.049,367.302 341.645,357.549 335.637,354.234C328.875,350.504 324.644,351.486 323.416,346.521C322.319,342.082 326.061,339.12 331.52,338.823C348.209,337.915 364.692,340.805 367.536,341.304C379.884,343.47 401.365,349.553 407.422,352.741C408.887,353.512 409.101,354.439 410.187,353.206C411.041,352.236 410.229,352.165 408.869,350.301C406.724,347.362 405.334,345.256 405.039,344.809C402.55,341.039 390.509,325.949 383.655,318.365C380.38,314.74 376.511,309.305 359.176,291.822C351.107,283.684 350.253,283.712 339.232,274.857C336.216,272.434 318.282,260.502 314.22,258.296C310.806,256.442 299.356,254.083 297.734,248.438C296.901,245.538 298.149,241.319 304.462,240.274C307.883,239.708 322.261,240.512 330.44,241.895C333.439,242.403 351.752,245.5 367.451,250.641C369.566,251.333 387.497,256.28 398.521,261.458C402.58,263.365 402.485,263.522 406.555,265.387C407.796,265.957 420.951,273.345 424.449,275.59C424.606,275.69 426.141,276.676 426.506,276.675C427.921,276.673 427.532,274.688 427.495,274.501C424.489,259.158 413.125,225.979 413.015,225.682C412.626,224.637 409.661,216.654 408.286,212.576C407.848,211.277 406.505,208.259 404.34,202.566C403.293,199.814 396.421,184.256 395.065,181.732C391.131,174.405 391.158,174.407 386.89,167.269C378.143,152.64 375.058,154.231 372.963,151.21C370.644,147.866 372.585,139.961 380.486,141.572C387.737,143.051 393.605,146.766 397.753,149.042C409.112,155.278 411.426,157.338 418.223,161.894C420.471,163.401 430.023,171.131 436.122,175.974C437.478,177.051 451.873,189.618 466.648,208.39C467.786,209.835 474.903,219.444 475.617,220.408C476.051,220.993 476.042,220.973 476.394,221.595C476.484,221.755 477.38,223.339 478.503,222.503C478.843,222.251 479.5,216.276 481.167,207.44C483.757,193.703 487.858,175.023 487.969,174.614C490.422,165.606 490.433,165.622 492.718,156.561C493.173,154.757 498.4,137.322 500.825,130.621C502,127.371 504.399,120.46 504.706,119.575C505.031,118.64 509.078,108.385 511.074,104.301C517.452,91.246 519.103,86.106 524.437,86.961C528.314,87.583 529.642,91.05 530.808,93.359C531.252,94.239 536.196,105.226 537.443,108.522C537.719,109.252 542.08,122.156 543.338,126.546C543.905,128.523 546.903,138.985 549.636,151.47C555.017,176.058 555.844,186.617 558.679,212.481C559.232,217.527 559.119,222.617 559.837,223.087C560.748,223.683 561.425,222.62 561.501,222.501C564.053,218.499 578.297,197.191 591.338,184.335C594.435,181.281 601.478,175.035 606.768,170.837C616.98,162.733 620.644,161.393 628.267,156.145C630.723,154.453 639.211,149.737 640.326,149.154C649.957,144.116 652.512,143.221 653.624,142.832C654.96,142.364 662.208,139.07 665.364,144.571C666.374,146.331 666.786,150.819 663.07,154.039C660.996,155.837 660.912,155.782 657.1,161.21C650.397,170.753 641.532,185.943 638.82,191.656C636.23,197.113 636.463,197.196 633.854,202.665C633.464,203.481 626.471,222.373 625.809,224.593C620.435,242.622 620.226,242.548 618.193,251.419C615.401,263.605 614.669,263.419 614.583,264.502C614.394,266.906 617.103,265.181 617.289,265.062C618.425,264.339 627.3,259.876 628.459,259.404C638.969,255.124 640.314,254.2 649.471,251.409C650.945,250.96 655.884,249.077 667.486,246.441C676.238,244.451 687.931,241.545 708.493,240.377C721.33,239.647 725.042,240.283 726.414,245.518C726.635,246.36 727.283,251.449 721.403,253.159C718.236,254.081 716.783,253.218 711.584,256.627C709.601,257.927 704.811,260.729 700.636,263.702C697.257,266.108 697.111,265.894 690.259,271.177C674.222,283.542 670.146,288.75 658.835,299.831C647.455,310.981 627.05,334.178 619.702,344.635C618.007,347.048 618.12,347.117 616.235,349.377C615.655,350.072 615.486,349.977 615.436,350.484C615.429,350.556 615.628,350.489 615.732,351.342C615.776,351.698 615.581,351.669 615.626,352.031Z" style="fill:rgb(22,22,19);"/>
                <path d="M497.075,191.403C497.346,190.131 499.726,178.954 500.722,175.561C504.314,163.331 504.004,161.769 505.429,157.478C507.431,151.448 507.146,151.382 509.093,145.355C514.992,127.097 517.283,122.28 518.197,120.358C521.904,112.563 521.462,112.381 521.882,111.762C521.96,111.647 522.495,110.858 523.57,111.409C523.868,111.562 525.514,116.036 525.665,116.446C528.211,123.366 534.814,150.447 535.054,151.591C538.865,169.742 539.563,169.591 542.313,187.528C544.852,204.087 546.579,236.986 546.681,241.495C547.008,255.996 547.799,261.51 548.387,274.505C549.428,297.489 548.971,297.485 548.814,320.493C548.791,323.879 547.98,323.967 546.386,326.422C546.107,326.851 544.96,328.617 542.65,331.614C539.193,336.101 539.201,336.094 539.188,336.101C539.14,336.124 537.784,336.16 537.753,336.14C537.416,335.926 536.1,333.856 536.085,333.836C535.879,333.573 534.103,331.295 533.411,330.634C533.109,330.346 531.615,328.92 528.5,328.875C523.199,328.798 521.714,332.787 519.154,336.237C514.112,343.032 514.171,343.07 513.724,343.654C509.594,349.057 507.274,352.795 506.674,353.617C502.631,359.153 502.786,360.13 501.469,360.17C500.267,360.206 499.503,358.317 498.861,357.286C496.599,353.653 492.768,345.569 487.819,338.288C485.355,334.662 485.123,334.269 484.977,326.486C484.473,299.605 485.869,286.614 486.086,280.481C486.532,267.883 488.947,249.772 489.102,247.469C489.473,241.976 490.963,229.057 491.147,227.458C492.22,218.162 494.575,204.696 495.4,200.481C496.29,195.936 496.062,195.911 497.075,191.403Z" style="fill:rgb(86,186,112);"/>
                <path d="M488.578,363.456C492.635,370.9 492.697,372.016 491.241,374.351C489.69,376.837 489.503,377.437 488.265,379.353C487.396,380.699 481.939,390.754 480.998,392.752C477.691,399.773 478.103,400.626 476.501,400.487C475.992,400.443 475.984,400.382 471.663,396.323C469.598,394.382 469.683,394.317 467.594,392.398C467.359,392.182 467.365,392.189 460.718,386.267C457.483,383.384 457.439,383.466 453.621,380.348C447.181,375.088 447.053,375.281 443.787,373.109C441.634,371.677 439.655,370.023 439.311,369.735C434.2,365.463 436.372,363.155 430.155,354.732C427.406,351.007 426.923,349.566 423.181,344.738C421.218,342.204 421.418,342.076 419.389,339.588C417.942,337.814 415.305,334.251 414.642,333.396C410.811,328.462 399.808,315.244 398.335,313.654C385.49,299.8 385.664,299.652 377.429,291.574C365.66,280.03 364.819,279.352 360.4,275.621C357.116,272.849 357.231,272.741 353.864,270.086C353.244,269.597 353.406,269.421 346.369,263.663C342.508,260.503 341.601,260.831 341.063,259.509C340.219,257.432 344.492,259.01 347.504,259.474C350.535,259.94 361.414,261.613 384.558,269.324C398.486,273.964 407.467,279.933 410.53,281.444C416.318,284.298 426.146,291.605 427.445,292.572C428.352,293.246 428.334,293.237 429.241,293.888C435.733,298.546 435.304,299.052 438.541,301.452C440.014,302.544 449.491,311.437 450.532,312.467C452.096,314.017 464.126,325.934 469.034,332.836C473.055,338.49 473.304,338.294 476.947,344.21C477.178,344.586 477.305,344.479 480.027,348.79C483.734,354.659 483.748,354.627 487.074,360.717C488.424,363.19 488.41,363.176 488.578,363.456Z" style="fill:rgb(86,186,112);"/>
                <path d="M482.075,430.433C482.306,429.24 482.85,425.667 483.773,422.572C487.285,410.801 487.165,410.751 490.194,404.354C490.501,403.706 493.127,398.159 494.168,396.324C498.626,388.466 498.505,388.414 498.921,387.749C504.872,378.239 504.75,378.171 505.337,377.393C507.791,374.142 507.67,373.015 511.037,368.184C511.302,367.723 512.551,365.553 514.677,362.625C514.982,362.205 517.84,358.007 517.965,357.847C522.738,351.781 524.914,348.149 527.253,345.267C527.374,345.117 528.545,343.675 529.53,344.466C529.822,344.7 531.387,348.157 531.535,348.484C533.58,353.002 533.56,352.994 533.739,353.386C536.307,359.011 536.353,358.976 536.566,359.468C538.711,364.437 538.613,364.452 540.724,369.416C545.268,380.101 544.552,380.338 546.672,386.445C548.465,391.612 551.634,409.6 551.882,417.483C552.722,444.222 546.405,458.038 545.404,460.463C543.826,464.287 543.918,465.837 540.5,465.5C534.165,464.876 534.155,465.171 514.5,465.18C490.438,465.19 490.48,464.919 488.393,464.833C481.908,464.568 480.333,457.136 480.307,453.517C480.248,445.212 481.847,432.271 482.075,430.433" style="fill:rgb(86,186,112);"/>
                <path d="M553.004,339.155C553.219,338.874 554.738,336.885 555.668,335.624C559.409,330.543 559.479,330.623 563.039,326.137C568.639,319.216 568.697,319.289 574.895,312.869C575.964,311.762 586.905,301.38 589.519,299.522C590.848,298.577 594.591,294.681 604.657,287.74C606.487,286.478 606.539,286.583 608.386,285.34C623.061,275.662 630.692,272.622 640.64,268.86C652.339,264.435 652.46,264.864 664.507,261.526C675.115,258.586 685.325,257.253 685.533,257.443C686.834,258.626 684.77,259.538 684.597,259.615C682.212,260.669 678.903,263.329 670.898,269.966C665.414,274.514 664.41,275.42 663.862,275.914C663.276,276.444 656.581,282.485 656.525,282.529C654.841,283.839 655.104,284.108 653.453,285.451C652.921,285.885 640.962,297.595 638.389,300.399C631.707,307.681 631.386,308.061 630.805,308.751C624.609,316.106 624.406,315.918 621.932,318.871C621.21,319.733 621.363,319.834 619.731,321.696C617.623,324.104 617.694,324.143 615.646,326.619C611.892,331.158 611.99,331.231 611.664,331.625C609.017,334.819 609.154,334.916 607.643,336.608C604.892,339.687 591.205,359.112 590.456,360.474C587.268,366.273 588.046,366.995 583.84,369.858C583.068,370.383 579.811,373.133 577.699,374.76C573.475,378.013 567.036,384.283 566.145,385.151C562.385,388.813 562.53,389.175 561.498,389.215C560.29,389.261 560.554,388.756 560.241,387.594C559.002,383.002 558.688,383.119 557.901,380.384C553.74,365.92 552.355,365.043 548.867,356.349C546.724,351.009 545.235,350.621 547.874,346.749C550.46,342.955 550.097,342.72 553.004,339.155" style="fill:rgb(86,186,112);"/>
                <path d="M420.213,205.601C418.938,202.6 418.823,202.673 417.815,200.357C415.213,194.379 415.283,194.375 412.6,188.453C407.869,178.011 407.43,178.247 404.619,172.436C402.276,167.59 401.748,167.912 401.582,167.477C401.471,167.187 401.457,166.82 401.604,166.546C401.768,166.24 402.078,165.9 402.426,165.904C402.771,165.908 404.362,167.332 404.517,167.472C404.868,167.785 405.2,168.12 405.551,168.432C407.203,169.9 410.365,172.223 411.65,173.321C417.637,178.444 417.666,178.407 418.184,178.855C427.039,186.511 437.791,198.404 440.302,200.72C448.435,208.222 457.387,219.125 463.16,227.709C465.736,231.539 465.824,231.474 466.045,231.808C473.72,243.406 474.708,245.337 475.344,246.579C476.752,249.329 475.462,249.806 475.15,254.455C474.765,260.19 474.563,260.157 474.279,261.5C473.949,263.065 474.624,263.298 473.389,274.487C472.725,280.495 473.029,280.498 472.478,286.498C470.368,309.484 470.755,309.513 470.534,311.508C470.431,312.43 470.478,312.673 469.54,312.715C468.277,312.773 468.41,312.396 467.516,311.483C461.221,305.057 460.343,304.574 459.369,303.645C451.048,295.709 445.252,291.534 444.545,290.468C444.139,289.854 443.806,289.353 442.339,281.534C442.174,280.655 440.798,273.32 440.182,270.565C439.041,265.466 438.982,265.502 437.802,260.432C436.865,256.41 436.463,256.531 435.605,252.475C434.946,249.359 434.694,249.444 433.69,245.444C432.373,240.2 425.841,221.696 423.436,215.523C421.538,210.649 421.987,210.518 420.213,205.601Z" style="fill:rgb(86,186,112);"/>
                <path d="M561.449,250.473C561.449,250.473 566.355,240.906 571.702,232.299C574.754,227.385 582.364,216.387 582.364,216.387C585.787,211.829 585.825,211.873 589.688,207.667C599.666,196.805 615.461,182.258 621.337,178.249C623.987,176.441 623.893,176.344 626.41,174.368C627.354,173.627 628.987,172.583 629.373,172.308C634.159,168.903 634.106,168.838 634.527,168.551C636.581,167.152 636.916,167.588 637.045,167.755C637.753,168.675 636.142,169.777 633.295,175.394C628.358,185.136 627.026,188.088 625.245,192.393C623.034,197.739 619.94,204.304 617.846,209.645C614.663,217.761 614.718,217.774 614.439,218.478C612.019,224.568 612.334,224.946 611.363,227.448C608.273,235.419 605.798,245.652 604.545,249.514C602.147,256.9 602.796,257.072 600.478,264.493C599.719,266.922 599.994,266.98 599.255,269.427C597.322,275.829 598.017,276.501 594.577,278.632C593.898,279.053 589.327,281.885 586.396,284.373C583.797,286.58 580.916,288.731 580.31,289.251C579.877,289.622 576.129,292.84 574.964,293.975C574.318,294.605 568.939,299.846 566.837,301.796C564.422,304.037 564.617,304.202 564.405,304.392C563.275,305.399 562.52,304.685 562.403,304.575C562.045,304.235 562.224,300.351 561.884,290.483C560.657,254.892 559.233,254.556 561.449,250.473" style="fill:rgb(86,186,112);"/>
                <path d="M545.485,669.515C547.682,671.811 547.741,671.724 550.004,673.97C552.95,676.894 550.749,677.467 546.27,682.278C545.12,683.513 526.944,701.459 518.826,709.813C513.911,714.87 513.062,715.655 510.624,713.366C509.602,712.407 496.92,699.493 495.732,698.283C475.422,677.599 474.621,677.526 475.174,675.389C475.395,674.532 478.836,671.164 480.489,669.489C480.569,669.409 480.567,669.416 481.486,668.486C487.954,661.939 487.981,661.977 490.906,658.881C491.527,658.224 507.147,642.666 509.856,639.844C512.537,637.052 513.464,637.022 516.12,639.848C516.253,639.989 529.064,652.789 531.088,654.894C534.281,658.213 534.299,658.173 537.569,661.431C541.189,665.038 541.044,665.281 543.544,667.457C543.714,667.605 543.684,667.61 545.485,669.515Z" style="fill:rgb(252,203,65);"/>
                <path d="M477.493,690.508C480.277,693.282 485.116,698.648 488.792,702.187C495.096,708.256 494.88,708.447 504.681,718.328C506.932,720.598 506.803,721.254 504.653,723.633C502.459,726.061 474.318,754.047 471.669,756.681C469.374,758.964 468.656,758.95 466.356,756.652C458.057,748.357 458.114,748.329 457.393,747.611C455.352,745.578 432.282,722.603 431.919,722.16C429.898,719.695 432.073,718.342 435.124,715.139C436.059,714.156 436.099,714.226 447.067,703.105C454.864,695.199 454.895,695.258 455.571,694.57C456.221,693.908 456.216,693.912 463.483,686.484C467.299,682.583 467.991,682.558 468.501,682.539C469.462,682.503 469.595,682.561 477.493,690.508Z" style="fill:rgb(252,203,65);"/>
                <path d="M573.409,697.586C577.738,702.07 593.644,718.011 594.031,718.785C595.263,721.246 591.444,723.19 587.471,727.472C583.803,731.426 582.353,732.56 581.972,732.964C579.782,735.286 579.737,735.207 577.417,737.414C574.648,740.048 571.153,743.984 568.044,747.014C565.781,749.22 565.661,749.064 562.399,752.397C557.296,757.612 557.231,757.636 556.633,757.852C554.793,758.516 553.758,756.522 552.102,754.902C541.827,744.846 536.534,739.021 534.179,736.834C532.897,735.643 520.897,723.388 520.781,723.254C517.977,720.002 519.865,719.234 526.104,713.095C527.112,712.104 526.984,712.005 538.54,700.543C555.773,683.451 556.403,681.782 558.389,682.735C558.924,682.992 560.948,684.861 561.475,685.524C562.004,686.189 562.108,686.081 568.882,693.148C571.079,695.44 571.244,695.256 573.409,697.586Z" style="fill:rgb(252,203,65);"/>
                <path d="M477.7,601.304C480.516,604.126 496.85,620.849 501.555,625.446C501.598,625.487 503.538,627.231 505.879,630.26C507.602,632.489 505.374,633.965 497.586,641.591C495.928,643.214 496.063,643.331 477.094,662.114C471.149,668.001 469.693,671.866 465.935,668.071C465.218,667.347 465.472,667.136 457.237,658.762C451.198,652.622 451.413,652.429 440.671,641.334C432.355,632.744 432.357,632.527 432.367,631.497C432.378,630.358 434.029,628.75 437.383,625.381C449.388,613.323 456.96,605.279 465.677,596.68C468.317,594.076 468.926,592.801 471.642,595.338C474.76,598.251 474.629,598.362 477.7,601.304Z" style="fill:rgb(252,203,65);"/>
                <path d="M395.674,668.665C397.126,667.088 401.959,662.078 402.508,661.508C421.936,641.37 421.842,641.283 423.561,639.562C426.074,637.047 426.94,637.954 430.028,640.986C430.39,641.342 430.365,641.36 434.405,645.59C435.304,646.532 444.763,656.437 445.548,657.459C446.042,658.102 447.606,659.558 454.862,667.162C457.796,670.237 457.853,670.157 460.805,673.214C464.083,676.609 461.952,677.27 458.659,680.652C456.37,683.004 447.468,692.148 429.812,709.822C427.641,711.995 426.014,714.039 424.452,713.885C423.868,713.827 423.335,713.774 418.834,709.177C411.896,702.091 411.891,702.13 404.896,695.121C393.271,683.473 392.086,682.128 391.037,680.937C389.826,679.562 387.263,677.939 388.833,675.762C388.874,675.704 395.126,669.232 395.674,668.665Z" style="fill:rgb(252,203,65);"/>
                <path d="M546.45,838.547C543.312,835.149 543.211,835.266 540.072,831.887C536.003,827.508 529.748,821.499 527.21,818.77C519.126,810.08 517.672,809.726 518.489,807.494C518.95,806.235 547.112,778.259 547.208,778.173C550.652,775.089 553.959,770.831 555.512,770.55C557.964,770.106 557.686,771.275 569.168,782.823C574.66,788.347 574.711,788.263 580.106,793.865C583.893,797.798 586.139,799.901 587.596,801.404C591.418,805.344 593.289,806.668 591.663,808.616C590.211,810.355 590.178,810.324 571.929,828.932C570.524,830.365 566.139,835.063 564.097,837.087C556.696,844.422 556.954,844.656 556.284,845.265C553.937,847.397 553.42,845.766 546.45,838.547Z" style="fill:rgb(252,203,65);"/>
                <path d="M564.397,857.645C562.956,856.283 562.939,856.306 562.819,856.182C559.539,852.785 560.101,851.798 563.41,848.415C564.478,847.322 576.427,835.101 576.762,834.761C586.827,824.575 586.714,824.475 587.596,823.597C590.114,821.091 590.058,821.061 592.496,818.497C594.732,816.146 596.772,813.955 597.566,813.808C599.499,813.448 602.493,818.603 605.302,821.634C607.696,824.216 608.343,825.451 610.311,827.665C614.356,832.217 620.96,841.108 622.771,843.281C626.872,848.2 626.737,848.286 630.74,853.293C633.111,856.26 634.774,857.159 632.476,859.475C630.493,861.473 630.377,861.344 626.443,865.443C625.7,866.217 625.758,866.251 625.03,867.042C624.733,867.364 618.652,873.041 617.175,874.043C612.761,877.036 610.995,878.811 609.155,880.023C608.471,880.473 601.495,885.065 600.581,885.631C595.193,888.962 594.486,889.105 592.203,886.81C589.382,883.975 586.348,880.717 585.847,880.18C580.321,874.248 580.077,874.504 578.905,873.124C576.13,869.862 575.91,870.083 573.099,866.838C570.694,864.062 567.313,861.218 564.397,857.645Z" style="fill:rgb(252,203,65);"/>
                <path d="M546.589,584.413C549.475,587.26 551.188,588.011 548.183,591.198C546.554,592.927 546.338,592.68 527.234,612.249C524.024,615.537 523.904,615.398 520.701,618.702C514.427,625.175 514.237,625.206 513.462,625.332C511.628,625.629 510.772,623.995 506.379,619.624C505.02,618.271 491.815,604.744 490.551,603.448C488.068,600.904 487.991,601.01 485.555,598.448C479.528,592.109 475.74,589.067 475.68,587.493C475.653,586.764 475.634,586.283 481.397,580.399C483.218,578.54 498.612,562.824 504.285,557.279C510.258,551.441 510.21,551.383 510.815,550.983C512.836,549.648 515.167,552.819 517.739,555.244C523.52,560.697 523.951,561.796 530.245,567.776C531.529,568.997 536.229,573.744 536.746,574.266C543.947,581.539 545.824,583.581 546.589,584.413Z" style="fill:rgb(252,203,65);"/>
                <path d="M477.547,778.453C480.74,781.765 480.665,781.817 484.052,784.945C485.549,786.328 485.284,786.585 501.857,803.163C506.265,807.572 506.416,808.517 505.138,810.25C503.364,812.655 496.419,818.795 491.063,825.106C489.747,826.658 489.49,826.412 473.407,843.413C470.876,846.089 470.175,847.547 467.298,844.727C466.488,843.934 466.488,843.934 457.364,834.629C456.691,833.942 450.443,827.569 448.968,826.032C447.005,823.985 446.885,824.126 444.946,822.065C442.351,819.306 436.585,813.446 435.535,812.463C432.015,809.167 431.616,808.459 433.463,806.467C439.006,800.489 439.147,800.643 444.728,794.716C446.793,792.522 465.188,773.202 466.785,771.845C469.091,769.886 470.198,771.041 472.62,773.372C474.123,774.818 476.289,777.246 477.547,778.453Z" style="fill:rgb(252,203,65);"/>
                <path d="M581.362,619.638C582.05,620.311 582.004,620.332 589.815,628.179C592.717,631.094 593.681,632.267 593.22,633.398C593.074,633.757 592.856,634.292 590.112,637.103C571.815,655.85 572.006,656.018 571.014,657.011C569.761,658.267 569.708,658.184 568.495,659.496C568.091,659.933 560.027,668.498 559.218,669.13C556.381,671.348 554.932,667.888 546.39,659.613C544.278,657.567 539.976,653.142 539.424,652.574C521.582,634.221 518.522,632.978 519.695,630.586C520.659,628.621 521.163,629.021 531.484,618.484C535.693,614.186 535.701,614.215 540.068,610.073C540.602,609.567 540.443,609.43 546.422,603.425C554.769,595.041 555.584,593.782 558.172,595.913C559.052,596.638 564.99,602.819 565.575,603.428C567.814,605.759 569.84,608.069 571.505,609.495C571.978,609.899 571.864,610 576.927,615.07C579.183,617.331 579.089,617.398 581.362,619.638Z" style="fill:rgb(252,203,65);"/>
                <path d="M547.295,767.304C542.284,772.554 536.114,778.276 528.857,785.825C527.081,787.672 513.496,801.243 513.379,801.327C511.048,802.99 509.896,800.103 502.276,792.734C501.055,791.554 501.183,791.44 487.371,777.623C475.558,765.806 475.477,765.642 475.507,764.5C475.545,763.041 479.272,759.579 482.456,756.455C490.331,748.732 490.251,748.67 493.909,744.911C498.847,739.836 499.091,740.115 504.015,735.025C511.565,727.22 511.816,726.687 513.539,727.428C514.272,727.743 520.77,734.172 525.714,739.295C526.853,740.474 526.904,740.42 540.165,753.819C548.581,762.324 550.361,763.398 549.169,765.297C549.053,765.483 548.953,765.642 547.295,767.304Z" style="fill:rgb(252,203,65);"/>
                <path d="M449.467,750.532C455.018,756.025 454.999,756.043 455.515,756.484C455.643,756.594 460.231,761.263 460.485,761.515C463.677,764.681 462.66,765.483 460.606,767.6C439.513,789.338 439.491,789.31 436.996,791.991C431.287,798.124 429.884,799.204 428.621,800.612C428.437,800.818 427.547,802.138 426.481,802.22C424.428,802.38 423.364,800.004 401.663,778.341C400.784,777.463 393.155,769.847 390.852,767.2C388.43,764.416 390.414,763.639 393.233,760.27C396.204,756.721 398.625,754.543 411.286,740.318C414.822,736.346 414.929,736.475 418.426,732.439C423.715,726.335 424.101,726.178 425.446,726.62C425.607,726.673 426.033,726.813 427.103,727.945C430.869,731.93 431.958,732.663 434.006,734.959C434.648,735.678 435.624,736.772 442.55,743.45C445.484,746.278 448.926,749.954 449.467,750.532Z" style="fill:rgb(252,203,65);"/>
                <path d="M436.695,882.72C431.34,888.893 430.33,889.197 428.598,888.307C426.192,887.07 420.916,883.294 420.267,882.829C419.584,882.341 414.696,879.251 410.729,876.131C407.178,873.339 404.207,872.403 399.811,868.179C391.364,860.065 390.879,860.053 391.123,858.425C391.352,856.888 402.783,843.44 410.923,832.862C411.336,832.326 411.444,832.43 416.327,826.364C419.217,822.773 419.336,822.896 422.22,819.277C425.17,815.574 426.142,813.843 428.651,816.345C431.41,819.098 431.472,819.009 434.178,821.807C435.163,822.825 435.238,822.746 446.633,834.378C450.593,838.42 450.686,838.31 454.643,842.361C457.058,844.832 457.025,844.839 462.927,851.103C465.561,853.898 462.286,855.509 456.681,861.673C456.149,862.259 456.101,862.21 449.868,868.843C449.48,869.255 449.449,869.22 444.962,873.943C444.297,874.642 437.576,881.716 436.695,882.72Z" style="fill:rgb(252,203,65);"/>
                <path d="M623.623,750.394C630.17,757.729 635.402,762.671 635.049,764.416C634.849,765.404 628.718,771.156 627.961,771.951C625.506,774.528 625.54,774.528 622.996,776.997C619.44,780.449 619.614,780.594 616.078,784.066C613.547,786.552 613.622,786.608 611.099,789.103C608.732,791.442 608.525,791.958 604.153,796.128C599.441,800.62 599.106,802.499 596.686,800.295C596.017,799.686 596.195,799.517 588.859,792.137C587.993,791.265 584.856,787.72 584.06,786.965C579.562,782.697 574.227,776.69 568.178,770.817C563.622,766.394 562.383,764.756 562.772,763.577C563.194,762.297 563.304,762.333 574.32,751.319C576.806,748.834 581.719,743.999 582.364,743.365C585.177,740.596 590.181,735.542 590.858,734.859C593.353,732.339 593.33,732.349 595.856,729.84C598.844,726.873 599.76,724.94 602.511,727.489C603.3,728.22 603.165,728.33 611.728,737.288C612.016,737.59 618.627,745.025 622.67,749.34C623.157,749.86 623.135,749.855 623.623,750.394Z" style="fill:rgb(252,203,65);"/>
                <path d="M395.531,696.468C397.869,698.78 407.41,708.313 409.018,709.958C411.249,712.239 411.244,712.219 413.538,714.461C418.353,719.168 418.381,719.838 418.321,720.48C418.164,722.169 410.477,729.637 404.077,737.104C403.121,738.22 402.9,738.01 391.702,750.675C389.827,752.796 388.995,753.436 385.907,756.871C385.637,757.172 384.434,759.143 382.543,758.418C381.192,757.9 356.4,732.276 348.509,724.491C348.239,724.225 345.702,721.723 345.86,720.558C346.02,719.371 346.438,719.563 359.343,706.349C366.192,699.336 366.244,699.422 366.837,698.812C370.962,694.566 380.262,684.615 381.406,684.266C383.695,683.568 385.096,686.039 387.584,688.412C392.729,693.319 392.999,693.983 395.531,696.468Z" style="fill:rgb(252,203,65);"/>
                <path d="M628.604,668.4C633.488,673.283 636.13,676.383 636.213,676.645C636.891,678.769 634.71,679.61 628.443,686.446C624.647,690.587 622.411,692.398 620.536,694.536C620.052,695.088 619.898,694.93 613.994,700.978C613.717,701.262 613.728,701.265 610.566,704.563C607.197,708.077 602.13,712.989 601.448,713.398C599.851,714.357 598.677,712.423 591.212,704.773C581.831,695.159 581.687,695.316 572.382,685.619C568.708,681.791 568.419,682.111 564.797,678.221C561.691,674.885 564.936,674.638 574.224,664.252C574.768,663.644 585.307,652.861 586.019,652.062C589.685,647.949 594.375,643.426 597.349,640.353C599.578,638.051 600.256,638.934 602.582,641.424C612.753,652.31 621.99,661.524 628.604,668.4Z" style="fill:rgb(252,203,65);"/>
                <path d="M529.725,832.277C536.068,838.612 542.205,844.895 546.92,850.139C549.046,852.504 548.635,853.125 546.393,855.397C534.25,867.701 531.227,871.32 527.101,875.063C526.578,875.537 526.584,875.52 526.069,876.021C525.852,876.232 514.782,888.244 513.295,889.105C511.965,889.876 511.07,888.995 506.568,884.433C504.063,881.895 504.275,881.719 501.663,879.324C500.189,877.972 483.793,861.325 482.245,859.753C476.345,853.763 475.014,852.93 477.757,849.713C478.71,848.596 478.923,848.801 490.413,836.421C496.666,829.683 496.837,829.867 503.161,823.183C503.745,822.567 509.724,816.248 510.564,815.582C512.487,814.056 512.85,815.11 517.429,819.572C518.484,820.6 528.256,830.776 529.725,832.277Z" style="fill:rgb(252,203,65);"/>
                <path d="M417.446,371.596C424.823,375.963 424.925,375.778 429.287,378.816C430.167,379.429 433.652,381.597 435.283,382.823C445.324,390.374 445.913,389.676 459.398,402.616C461.357,404.496 462.277,405.199 465.871,409.147C466.849,410.221 467.042,410.036 469.687,413.354C473.134,417.676 471.037,418.256 470.156,423.435C469.23,428.877 467.926,434.573 467.852,443.536C467.85,443.689 467.839,445.059 467.405,445.396C466.222,446.317 466.165,445.361 462.281,442.839C447.97,433.545 445.24,436.628 441.947,431.234C441.22,430.042 437.751,424.359 432.094,416.838C431.996,416.708 416.213,399.015 408.099,390.919C405.165,387.99 396.726,380.189 395.728,379.266C391.027,374.92 390.785,375.223 388.603,373.379C386.132,371.291 386.281,371.122 381.436,367.588C378.518,365.459 378.602,365.385 375.646,363.292C371.345,360.247 366.616,357.396 365.342,356.685C364.358,356.136 364.416,356.07 363.364,355.639C362.571,355.314 362.404,355.333 362.39,354.491C362.36,352.64 365.737,354.554 368.558,355.176C372.018,355.939 372.056,355.65 375.496,356.515C379.054,357.41 397.839,360.773 417.446,371.596Z" style="fill:rgb(86,186,112);"/>
                <path d="M616.461,794.46C617.435,793.509 618.745,792.11 618.94,791.902C622.797,787.784 623.234,787.692 626.402,784.405C630.01,780.661 635.036,775.553 635.79,774.786C639.014,771.51 639.825,770.138 641.36,770.757C642.557,771.24 665.083,800.12 667.971,804.155C669.695,806.563 669.461,806.969 667.07,811.255C665.389,814.268 663.599,817.541 663.122,818.246C659.832,823.113 660.008,823.216 659.719,823.636C654.072,831.857 654.157,831.91 653.613,832.584C651.552,835.133 648.206,839.846 646.73,841.689C640.478,849.492 640.808,850.22 639.499,850.207C638.609,850.199 638.699,849.898 633.387,843.592C626.245,835.113 626.343,835.053 625.722,834.318C620.009,827.545 614.978,821.085 613.095,818.854C605.826,810.24 602.891,808.612 605.63,805.613C605.973,805.238 609.049,801.87 609.988,800.988C613.351,797.827 613.15,797.651 616.461,794.46Z" style="fill:rgb(252,203,65);"/>
                <path d="M418.264,628.716C421.21,631.968 419.914,632.719 416.809,635.811C414.846,637.766 413.409,639.197 392.764,660.742C386.589,667.187 386.037,667.839 385.487,668.487C384.818,669.278 382.582,671.219 381.601,671.04C380.298,670.802 376.583,665.744 371.402,660.598C370.92,660.12 370.951,660.103 365.501,654.499C364.593,653.565 364.715,653.481 354.377,642.616C349.461,637.449 349.742,636.656 351.046,635.145C355.66,629.799 355.912,630.059 364.952,619.909C365.827,618.926 365.983,619.079 368.843,615.797C369.364,615.198 375.355,608.915 376.042,608.105C376.813,607.194 379.787,603.685 386.162,597.134C388.737,594.488 389.79,597.121 394.643,602.367C395.451,603.24 395.299,603.372 404.539,613.465C406.328,615.419 417.168,627.494 418.264,628.716Z" style="fill:rgb(252,203,65);"/>
                <path d="M580.401,536.599C582.422,538.606 589.277,545.57 589.339,545.642C591.607,548.226 589.62,549.224 587.97,550.945C585.728,553.282 585.716,553.245 576.967,561.963C573.451,565.466 573.655,565.644 570.111,569.105C566.826,572.314 558.284,581.181 557.579,581.607C555.482,582.875 554.924,581.577 553.109,579.923C549.439,576.581 549.748,576.289 546.075,572.942C543.817,570.884 540.897,567.268 533.653,560.342C531.143,557.942 520.851,547.4 519.746,546.267C516.885,543.337 519.003,542.633 527.264,534.271C528.767,532.75 545.26,516.282 550.319,511.315C552.985,508.697 553.747,510.266 557.847,514.137C560.861,516.982 572.943,529.133 573.384,529.606C575.178,531.534 576.585,532.597 580.401,536.599Z" style="fill:rgb(252,203,65);"/>
                <path d="M655.891,657.784C655.258,658.442 655.402,658.57 648.194,666.209C643.499,671.185 642.499,671.8 639.764,669.227C638.652,668.18 638.872,667.974 626.529,655.472C625.575,654.506 625.643,654.47 614.72,643.284C614.08,642.628 613.896,642.211 609.363,637.636C608.86,637.129 608.874,637.137 608.374,636.621C606.074,634.247 604.477,633.155 606.599,630.581C607.946,628.948 619.977,615.665 623.62,611.603C626.701,608.166 626.534,608.045 629.701,604.689C636.175,597.83 636.008,595.857 638.57,597.407C638.834,597.566 638.81,597.592 644.454,603.542C649.571,608.935 649.309,609.165 654.571,614.43C659.573,619.435 659.307,619.657 664.291,624.702C667.362,627.81 673.134,634.337 673.887,635.189C675.952,637.525 674.434,638.194 669.092,644.111C667.004,646.422 660.612,653.064 659.869,653.837C657.918,655.863 657.901,655.824 655.891,657.784Z" style="fill:rgb(252,203,65);"/>
                <path d="M447.334,559.667C436.113,548.181 434.452,547.261 434.686,545.537C434.777,544.872 434.812,544.613 440.213,539.232C450.369,529.111 450.304,529.05 451.19,528.173C469.282,510.266 469.127,509.781 470.513,509.719C472.315,509.64 476.323,514.132 478.653,516.345C484.298,521.709 484.157,521.832 489.731,527.252C495.769,533.125 496.256,533.65 496.797,534.232C503.732,541.702 507.142,543.225 504.96,545.836C501.292,550.225 500.896,549.83 497.034,554.047C496.712,554.399 487.893,563.116 484.563,566.561C480.515,570.748 471.701,579.659 471.176,580.11C468.94,582.036 468.063,580.856 462.696,575.312C462.105,574.701 455.746,568.131 455.304,567.69C447.939,560.336 447.981,560.3 447.334,559.667Z" style="fill:rgb(252,203,65);"/>
                <path d="M436.482,559.518C439.478,562.728 462.785,585.869 463.043,586.704C463.711,588.87 460.378,590.966 455.882,595.853C455.422,596.353 455.386,596.3 449.952,601.943C446.444,605.587 441.349,610.568 440.558,611.554C440.062,612.172 439.948,612.314 433.653,618.654C427.357,624.994 427.215,625.028 426.457,625.208C425.017,625.551 423.262,623.012 420.205,619.784C418.335,617.81 394.75,591.321 394.361,590.587C393.705,589.35 393.36,588.874 396.414,585.422C397.501,584.193 397.628,584.318 410.434,570.44C414.398,566.144 419.878,560.539 422.068,558.1C427.706,551.821 428.124,552.251 428.509,552.262C429.033,552.276 429.349,552.285 433.49,556.51C434.985,558.034 434.967,558.022 436.482,559.518Z" style="fill:rgb(252,203,65);"/>
                <path d="M617.449,574.545C630.378,588.859 632.892,588.764 630.927,591.742C628.882,594.841 628.411,594.62 624.831,598.769C622.396,601.591 622.176,601.381 620.536,603.533C619.394,605.031 615.054,609.497 613.534,611.53C612.906,612.371 602.021,623.959 601.565,624.563C599.139,627.781 598.002,625.972 595.103,622.872C594.61,622.345 589.262,616.79 588.753,616.261C587.222,614.671 587.152,614.744 569.46,596.538C568.079,595.116 568.011,595.208 566.452,593.546C563.927,590.853 561.905,589.062 562.657,587.575C563.449,586.011 566.149,583.779 566.494,583.494C567.27,582.853 567.071,582.671 570.907,578.903C573.939,575.926 573.746,575.764 576.877,572.9C578.354,571.549 586.368,563.25 587.275,562.29C587.663,561.878 587.698,561.92 592.224,557.233C595.91,553.416 596.732,553.427 598.694,555.286C605.381,561.621 605.071,561.906 611.581,568.42C612.061,568.9 614.655,571.495 617.449,574.545Z" style="fill:rgb(252,203,65);"/>
                <path d="M356.177,806.306C358.659,802.758 365.428,793.453 366.339,792.362C368.455,789.825 372.011,785.128 373.894,782.817C377.166,778.8 377.1,778.75 377.389,778.405C380.682,774.475 381.62,773.124 381.878,772.854C384.575,770.037 386.134,773.604 388.906,776.073C391.826,778.674 391.551,778.927 394.349,781.653C397.4,784.626 397.324,784.667 400.318,787.681C410.222,797.651 410.22,797.626 416.71,804.301C420.049,807.736 421.618,808.492 419.199,811.242C409.383,822.399 388.035,849.264 387.184,850.214C384.034,853.73 382.658,848.876 381.195,846.712C378.995,843.458 378.67,843.715 375.077,838.819C374.967,838.669 367.074,828.617 363.101,821.73C360.815,817.768 360.653,817.873 360.454,817.529C356.427,810.544 354.494,808.711 356.177,806.306Z" style="fill:rgb(252,203,65);"/>
                <path d="M500.315,483.26C501.969,481.989 501.864,481.863 503.698,480.863C505.261,480.011 510.34,478.831 511.519,478.745C519.006,478.202 521.617,482.912 528.494,487.509C530.922,489.132 541.149,498.256 544.867,502.158C547.878,505.318 544.828,505.658 534.038,517.073C533.69,517.441 530.662,520.644 529.538,521.541C527.608,523.081 527.805,523.279 524.529,526.529C518.984,532.029 519.064,532.105 518.576,532.577C514.076,536.929 512.978,539.366 510.261,536.749C509.812,536.316 504.758,531.447 504.658,531.345C493.043,519.434 492.857,519.644 481.155,507.835C477.572,504.219 476.835,503.653 478.048,502.196C480.183,499.631 483.682,496.886 485.846,494.872C491.995,489.153 497.359,485.638 500.315,483.26Z" style="fill:rgb(252,203,65);"/>
                <path d="M623.328,569.662C621.85,568.14 621.798,568.215 620.323,566.671C613.127,559.144 613.118,559.161 612.503,558.497C605.107,550.505 602.086,548.322 602.85,546.642C603.133,546.018 608.915,540.021 609.457,539.459C610.201,538.687 610.244,538.766 611.016,538.011C611.528,537.51 614.911,533.794 616.392,532.377C618.866,530.009 621.154,527.403 621.792,526.815C625.812,523.113 629.687,518.529 631.495,518.428C633.485,518.317 636.006,522.635 638.341,525.62C646.793,536.426 649.212,544.284 654.042,553.738C656.236,558.032 657.306,558.578 654.38,562.409C647.223,571.778 647.268,571.804 646.613,572.592C644.18,575.52 641.271,579.758 639.112,582.177C636.785,584.785 635.755,583.012 633.446,580.551C624.629,571.155 624.109,570.559 623.328,569.662Z" style="fill:rgb(252,203,65);"/>
                <path d="M564.519,421.5C564.519,421.5 572.822,383.5 620.479,364.214C622.544,363.097 628.931,359.642 648.493,355.465C648.558,355.452 663.421,352.808 663.462,352.809C663.727,352.817 664.09,352.739 664.244,352.956C664.374,353.138 664.016,353.364 664.017,353.589C664.017,353.843 664.331,354.076 664.247,354.316C664.148,354.6 659.209,355.913 651.364,361.299C650.268,362.051 640.264,368.812 636.612,371.645C631.632,375.507 631.406,375.272 627.754,378.771C624.945,381.462 623.75,381.907 619.842,385.881C617.121,388.648 617.059,388.567 614.388,391.398C607.568,398.626 607.561,398.6 601.21,406.264C595.329,413.359 595.276,413.293 589.783,420.687C582.972,429.855 582.971,430.661 582.002,432.149C580.299,434.766 576.359,435.105 570.65,438.737C568.631,440.022 567.045,440.727 565.752,441.997C565.379,442.363 565.305,442.548 564.506,442.482C563.77,442.422 564.019,441.909 564,441.816C563.974,441.684 563.788,441.615 563.776,441.481C563.724,440.907 564.235,440.703 564.375,429.501C564.414,426.41 564.473,426.423 564.519,421.5" style="fill:rgb(86,186,112);"/>
                <path d="M653.89,695.215C656.492,697.447 665.764,707.455 676.242,717.759C678.166,719.651 678.918,720.178 677.014,722.08C674.271,724.82 674.218,724.743 671.526,727.525C664.391,734.901 664.361,734.853 657.116,742.112C655.811,743.42 645.648,753.786 644.715,754.686C642.569,756.852 641.733,758.9 638.88,756.101C638.348,755.579 632.357,748.873 631.792,748.241C626.59,742.418 626.601,742.438 621.285,736.694C618.933,734.154 619.139,733.996 615.127,729.843C612.419,727.04 612.506,726.986 609.743,724.255C605.524,720.083 606.807,719.005 609.437,716.437C619.444,706.663 619.265,706.51 620.879,704.894C621.282,704.492 630.329,695.528 637.261,688.274C641.177,684.175 641.744,683.553 643.553,684.41C644.278,684.754 650.121,691.074 650.519,691.481C652.289,693.293 652.075,693.464 653.89,695.215" style="fill:rgb(252,203,65);"/>
                <path d="M586.597,490.32C587.831,490.797 588.766,491.158 601.433,497.623C612.119,503.076 612.213,502.914 621.165,508.997C624.749,511.433 624.753,512.099 624.756,512.5C624.761,513.194 624.762,513.315 618.862,518.866C616.04,521.52 613.532,524.291 611.973,525.846C609.681,528.134 609.866,528.278 607.601,530.597C605.132,533.126 598.354,539.87 598.112,540.093C596.48,541.594 595.498,540.91 591.809,537.181C585.414,530.714 585.348,530.788 584.802,530.216C579.844,525.016 579.787,525.088 579.359,524.634C575.357,520.399 572.566,518.012 567.322,512.674C559.845,505.062 558.511,504.711 559.697,502.633C560.18,501.786 568.783,493.703 573.438,489.432C576.173,486.923 577.28,485.824 581.333,487.849C583.945,489.154 583.908,489.186 586.597,490.32Z" style="fill:rgb(252,203,65);"/>
                <path d="M489.775,878.229C497.328,885.688 497.145,885.851 504.78,893.213C506.566,894.935 506.842,895.402 505.278,897.32C504.968,897.7 498.172,904.837 497.399,905.349C495.63,906.522 491.154,905.764 479.478,904.737C470.232,903.924 460.957,901.442 450.572,898.279C447.009,897.194 439.451,894.048 439.194,893.847C437.411,892.453 439.359,891.171 441.14,889.182C443.53,886.516 443.591,886.591 445.935,883.894C447.138,882.509 449.618,880.285 451.357,878.373C457.992,871.078 458.302,871.379 462.936,865.886C464.786,863.692 467.783,860.654 468.218,860.213C471.084,857.306 471.977,860.109 476.531,864.466C477.83,865.709 484.599,872.984 489.775,878.229Z" style="fill:rgb(252,203,65);"/>
                <path d="M546.243,866.275C551.381,861.251 551.344,860.852 551.587,860.576C554.548,857.22 555.631,859.894 557.901,862.187C558.136,862.412 581.735,886.69 585.055,890.857C586.056,892.113 586.487,892.241 585.661,893.627C585.468,893.951 583.744,894.604 583.57,894.67C578.783,896.485 576.454,898.206 563.482,901.432C554.07,903.773 554.08,903.964 535.505,905.56C529.485,906.078 529.031,906.617 526.17,903.814C519.118,896.907 519.031,896.365 518.891,895.491C518.626,893.852 522.284,891.88 546.243,866.275" style="fill:rgb(252,203,65);"/>
                <path d="M403.064,514.942C400.087,511.759 402.025,510.757 406.38,507.337C409.225,505.103 410.481,504.611 411.253,504.096C421.727,497.115 425.005,496.056 428.409,494.326C432.002,492.499 432.076,492.695 435.709,490.974C438.366,489.715 440.237,488.997 440.639,488.843C445.419,487.009 446.187,486.631 447.623,487.247C448.049,487.43 447.982,487.528 452.065,490.967C452.719,491.518 459.733,498.274 460.711,499.28C463.302,501.947 464.742,502.754 463.939,504.704C463.828,504.974 462.138,506.972 461.517,507.516C458.962,509.755 445.75,523.031 444.393,524.394C437.5,531.32 437.492,531.287 436.898,531.893C430.692,538.23 429.291,540.029 427.597,539.271C426.317,538.699 422.807,535.019 422.443,534.555C420.685,532.318 420.421,532.587 418.444,530.553C414.029,526.007 413.454,525.401 413.024,524.949C410.762,522.567 405.207,517.233 403.064,514.942Z" style="fill:rgb(252,203,65);"/>
                <path d="M386.341,581.669C382.241,577.596 367.719,557.65 367.875,556.52C368.099,554.894 376.067,539.213 378.182,536.287C379.082,535.043 382.046,530.683 382.301,530.356C384.178,527.943 387.156,523.392 390.701,519.695C392.835,517.47 393.49,517.101 395.745,519.218C399.451,522.697 399.479,522.643 401.048,523.998C401.353,524.261 411.814,534.951 414.04,536.981C415.148,537.991 419.286,542.455 420.932,544.076C422.898,546.011 422.727,546.76 419.718,549.717C416.358,553.019 395.781,575.448 392.599,578.597C389.076,582.084 388.428,583.742 386.341,581.669Z" style="fill:rgb(252,203,65);"/>
                <path d="M680.786,774.575C678.443,783.05 678.143,785.526 674.603,795.553C674.305,796.398 674.471,796.68 673.577,796.778C672.259,796.921 672.419,796.444 671.608,795.407C669.621,792.862 669.363,793.086 664.82,787.252C663.523,785.585 654.147,773.544 648.383,766.597C646.556,764.396 646.754,763.63 651.156,759.17C661.58,748.612 662.602,747.605 663.61,746.612C666.333,743.932 666.081,743.699 667.513,742.513C670.114,740.358 673.205,736.457 675.939,733.977C678.322,731.815 678.279,731.791 680.379,729.36C680.509,729.209 682.227,727.221 682.872,729.283C682.913,729.415 684.84,743.01 685.079,745.545C685.296,747.859 685.959,748.466 682.815,765.562C681.979,770.111 681.844,770.066 680.786,774.575Z" style="fill:rgb(252,203,65);"/>
                <path d="M366.573,753.429C376.357,763.16 378.324,764.6 376.916,766.725C374.839,769.86 370.851,773.979 368.503,777.502C367.747,778.638 359.529,788.421 357.773,790.707C357.354,791.252 353.083,796.811 352.45,797.448C350.643,799.264 350.091,798.001 349.328,795.564C348.638,793.358 346.161,785.451 342.275,767.546C342.111,766.79 339.325,751.887 339.265,748.504C339.222,746.085 339.561,742.875 341.284,731.44C341.48,730.14 341.199,729.627 342.503,729.61C343.357,729.599 343.846,730.448 345.671,732.325C346.596,733.277 363.281,750.102 366.573,753.429Z" style="fill:rgb(252,203,65);"/>
                <path d="M650.511,674.511C651.381,673.571 657.822,667.102 658.461,666.461C660.211,664.703 671.993,652.404 673.167,651.179C677.36,646.802 678.446,645.073 679.682,646.297C680.777,647.382 683.421,659.483 684.174,665.542C686.464,683.952 686.053,690.346 684.661,698.525C682.662,710.268 683.537,710.394 683.121,711.339C682.789,712.092 681.552,711.798 681.415,711.765C681.131,711.697 681.022,711.672 678.803,709.219C671.316,700.948 670.803,701.452 658.065,687.925C655.159,684.838 654.817,685.191 652.129,681.898C651.17,680.723 648.815,678.86 648.767,677.493C648.759,677.266 648.379,676.964 650.511,674.511Z" style="fill:rgb(252,203,65);"/>
                <path d="M381.808,432.247C382.062,431.751 393.072,431.85 395.543,432.179C405.591,433.52 406.517,434.042 407.559,434.267C411.248,435.062 422.847,438.93 426.543,440.396C428.454,441.154 442.893,447.851 443.626,448.216C444.491,448.647 452.834,452.804 454.357,453.741C461.046,457.855 463.073,459.589 463.766,460.182C464.163,460.522 467.875,463.679 468.53,464.47C469.334,465.44 470.872,466.636 469.739,467.734C469.354,468.107 469.281,467.979 466.5,468.5C455.927,470.479 455.638,470.915 451.385,472.1C444.497,474.021 444.157,474.604 442.155,472.918C439.17,470.404 436.573,468.552 435.416,467.604C430.5,463.573 429.344,463.084 427.42,461.607C424.214,459.147 417.314,454.405 415.709,453.214C412.058,450.503 409.756,449.062 409.326,448.748C407.93,447.73 400.943,442.629 391.336,436.792C390.36,436.198 382.819,432.653 381.808,432.247Z" style="fill:rgb(86,186,112);"/>
                <path d="M633.464,432.032C639.885,431.605 641.834,432.655 641.834,432.655C641.49,432.847 639.388,433.735 638.359,434.17C634.417,435.836 634.322,435.596 630.604,437.713C626.846,439.853 626.751,439.68 623.252,442.196C618.987,445.262 607.662,452.937 602.314,457.233C595.049,463.07 595.026,463.017 587.662,468.704C581.72,473.293 581.888,474.653 578.432,473.728C571.824,471.959 571.891,471.734 559.532,469.317C557.242,468.87 556.314,468.501 557.512,466.508C559.149,463.783 564.523,459.606 565.198,459.081C570.336,455.088 574.18,452.222 585.316,446.155C595.818,440.434 602.905,438.922 613.565,435.737C618.1,434.382 628.511,432.36 633.464,432.032Z" style="fill:rgb(86,186,112);"/>
                <path d="M346.458,645.567C346.703,645.694 375.018,674.625 375.642,676.44C376.495,678.925 375.302,678.897 361.891,692.887C361.129,693.682 357.047,697.585 354.907,699.889C352.274,702.722 347.185,707.507 345.494,709.494C344.859,710.24 342.951,712.028 342.466,712.016C342.318,712.012 341.552,711.992 341.345,710.546C341.183,709.424 341.222,709.431 339.587,696.488C339.242,693.755 338.095,690.012 339.689,670.516C339.761,669.626 339.818,669.638 341.204,659.451C341.599,656.549 344.305,645.981 344.669,645.649C344.775,645.553 345.375,645.005 346.458,645.567Z" style="fill:rgb(252,203,65);"/>
                <path d="M675.146,602.569C677.472,614.322 676.585,615.552 677.004,622.497C677.044,623.15 677.047,624.377 677.04,624.395C676.989,624.526 676.514,625.733 675.554,625.333C674.462,624.879 674.978,624.303 665.489,614.511C664.641,613.635 648.936,597.024 647.497,595.502C643.792,591.583 642.207,590.969 645.094,587.199C645.893,586.157 649.156,581.896 655.203,574.274C655.924,573.364 657.574,571.591 660.148,568.142C662.181,565.416 663.443,569.397 663.897,570.315C664.643,571.825 666.835,577.487 667.791,579.366C668.05,579.874 670.935,586.516 672.708,593.44C673.882,598.026 674.022,597.973 675.146,602.569Z" style="fill:rgb(252,203,65);"/>
                <path d="M363.311,565.934C363.601,566.032 371.328,575.513 380.772,587.295C383.108,590.21 381.525,591.086 378.883,593.874C374.742,598.243 374.828,598.306 370.628,602.62C369.787,603.484 364.023,609.827 363.451,610.456C356.391,618.224 351.898,622.305 349.536,625.542C348.771,626.59 347.184,626.899 347.189,624.544C347.191,623.612 347.717,610.662 348.302,607.469C349.013,603.587 352.521,591.031 354.261,586.405C355.812,582.283 357.76,576.309 359.351,572.442C360.292,570.153 360.202,570.132 361.369,567.423C361.447,567.244 362.176,565.551 363.311,565.934Z" style="fill:rgb(252,203,65);"/>
                <path d="M535.492,477.81C550.379,478.509 559.345,481.896 563.61,483.157C564.214,483.336 564.832,483.461 565.437,483.636C565.953,483.785 566.191,483.678 566.263,484.562C566.351,485.644 566.129,485.604 565.365,486.373C564.353,487.389 563.001,488.441 558.294,493.299C553.523,498.223 552.643,498.354 550.52,496.477C542.22,489.138 542.206,489.156 541.52,488.48C540.538,487.509 532.961,481.189 532.319,480.73C530.878,479.699 529.644,479.331 529.559,478.491C529.402,476.939 530.576,477.646 535.492,477.81Z" style="fill:rgb(252,203,65);"/>
                <path d="M465.569,482.937C467.384,482.657 467.374,482.666 467.529,482.634C469.106,482.308 472.805,481.543 487.518,480.207C490.226,479.961 490.027,481.653 488.551,482.551C487.484,483.201 486.949,483.527 476.753,492.781C472.452,496.685 471.368,498.827 468.393,495.603C465.531,492.502 465.282,492.773 461.286,488.717C459.272,486.673 455.955,484.371 460.56,483.851C461.184,483.78 465.169,483.014 465.569,482.937Z" style="fill:rgb(252,203,65);"/>
                <g transform="matrix(1.343643,0,0,1.343643,-176.00409,-311.526717)">
                    <path d="M513.505,906.77C510.082,906.835 508.546,906.825 508.386,906.647C508.278,906.527 507.61,905.787 508.676,904.644C508.829,904.481 508.889,904.564 510.719,902.727C513.006,900.429 513.419,902.072 515.82,904.235C516.841,905.156 516.872,905.121 516.989,905.367C517.52,906.481 516.809,906.737 516.701,906.776C516.226,906.947 513.984,906.798 513.505,906.77Z" style="fill:rgb(252,203,65);"/>
                </g>
            </g>
        </g>
    </g>
</svg>
