<?xml version="1.0" encoding="UTF-8" standalone="no"?>
<!DOCTYPE svg PUBLIC "-//W3C//DTD SVG 1.1//EN" "http://www.w3.org/Graphics/SVG/1.1/DTD/svg11.dtd">
<svg width="100%" height="100%" viewBox="0 0 599 638" version="1.1" xmlns="http://www.w3.org/2000/svg" xmlns:xlink="http://www.w3.org/1999/xlink" xml:space="preserve" xmlns:serif="http://www.serif.com/" style="fill-rule:evenodd;clip-rule:evenodd;stroke-linejoin:round;stroke-miterlimit:2;">
    <g transform="matrix(1,0,0,1,-13590.032783,-8379.295985)">
        <g transform="matrix(1.95055,0,0,2.756375,-7265.768949,-6854.068498)">
            <g transform="matrix(0.512676,0,0,0.362795,10525.708963,5438.392718)">
                <g transform="matrix(1,0,0,1,23.913115,-43.478149)">
                    <g id="Fondo" transform="matrix(1.171875,0,0,1.171875,0,0)">
                        <path d="M750.519,739.942C747.662,739.745 744.988,739.528 744.73,739.845C744.584,740.023 744.831,740.297 744.841,740.526C744.851,740.76 744.666,741.026 744.788,741.225C745.198,741.889 749.003,741.984 755.326,744.888C765.179,749.413 766.293,751.163 767.106,754.588C768.029,758.479 766.546,764.136 759.547,764.879C758.313,765.01 758.071,766.151 742.631,761.08C728.037,756.287 724.33,755.775 714.419,751.778C710.135,750.05 709.902,751.041 709.936,751.399C710.042,752.535 715.046,754.554 718.297,756.781C722.46,759.632 731.162,764.221 729.66,772.529C729.378,774.086 727.254,779.454 720.497,778.521C719.69,778.41 719.695,778.403 710.569,776.214C699.373,773.528 692.607,769.779 672.44,766.909C670.367,766.614 647.913,763.418 646.529,763.239C642.397,762.703 641.066,761.494 641.353,763.521C641.549,764.909 645.333,764.879 646.374,772.514C647.125,778.024 641.435,786.836 630.483,782.54C623.942,779.974 614.566,767.061 609.625,765.184C602.46,762.462 603.31,769.017 603.324,769.501C603.511,775.808 604.545,782.54 598.201,787.088C593.79,790.249 586.242,789.453 582.472,783.52C578.006,776.49 580.449,770.69 578.735,766.404C577.161,762.468 569.76,764.336 568.313,765.113C557.957,770.674 555.836,777.932 546.537,779.698C544.786,780.03 535.969,779.913 535.75,771.487C535.594,765.453 537.801,764.823 537.13,763.695C536.402,762.472 536.049,763.169 534.495,763.228C530.98,763.362 494.018,763.273 490.498,763.264C490.145,763.264 487.708,763.092 487.393,763.355C486.425,764.165 486.921,764.375 487.385,765.533C491.077,774.744 484.374,782.52 474.465,778.584C467.705,775.899 465.321,770.247 456.643,765.235C454.774,764.155 452.665,763.992 449.481,764.139C444.129,764.387 445.125,769.905 444.134,776.44C441.633,792.931 423.319,791.842 420.957,779.423C420.119,775.017 422.117,767.626 420.309,765.674C419.075,764.341 415.565,764.303 413.559,765.595C409.722,768.067 399.428,781.03 392.359,783.059C391.348,783.35 384.021,785.453 379.738,779.336C375.527,773.321 380.218,766.276 381.924,764.752C382.57,764.175 382.905,764.365 382.948,763.483C383.003,762.356 382.634,762.336 381.5,762.494C380.302,762.662 380.367,762.934 366.558,764.874C342.21,768.295 342.178,768.216 328.369,772.027C303.78,778.815 299.105,781.406 295.214,774.64C293.781,772.149 294.108,767.647 296.57,764.553C298.848,761.69 301.16,760.126 305.784,756.903C307.963,755.384 308.032,755.52 310.416,754.377C312.644,753.307 312.893,752.64 312.916,752.623C313.437,752.231 313.572,752.519 314.091,752.127C315.232,751.266 315.277,750.707 315.29,750.549C315.377,749.456 314.535,749.757 314.45,749.787C314.032,749.937 314.217,750.321 309.443,752.172C306.775,753.206 298.318,756.485 275.379,763.079C268.284,765.118 260.889,766.824 257.756,760.38C256.282,757.35 257.235,752.303 259.515,750.517C264.937,746.267 265.334,746.945 271.629,743.789C274.308,742.446 278.966,741.825 279.312,741.33C279.418,741.18 279.379,739.945 279.284,739.866C277.777,738.61 266.517,743.147 261.202,734.656C260.44,733.439 256.753,723.583 270.468,721.294C280.274,719.657 280.345,720.426 331.502,720.297C338.931,720.278 339.419,720.477 339.493,719.498C339.599,718.094 338.447,718.289 336.271,716.858C317.814,704.728 308.307,696.781 295.065,682.898C291.562,679.225 288.165,675.123 287.589,674.427C286.375,672.96 282.352,668.325 275.74,658.354C266.805,644.879 263.17,634.221 261.315,629.576C257.774,620.706 254.185,598.664 259.574,584.526C264.097,572.66 269.88,568.18 276.676,564.863C292.292,557.243 315.616,565.384 321.524,567.435C325.974,568.98 340.332,575.936 348.633,582.322C351.189,584.289 351.237,584.186 353.756,586.167C354.385,586.662 360.42,591.406 361.483,592.526C361.641,592.692 361.701,593.094 362.528,593.121C363.747,593.16 363.232,592.452 364.053,587.43C364.411,585.244 365.642,577.71 370.42,560.478C371.044,558.231 377.284,539.517 377.317,539.43C396.065,489.514 396.436,489.675 398.049,485.329C399.343,481.84 397.922,481.865 395.425,480.653C364.172,465.483 349.018,441.722 345.386,433.554C343.34,428.954 335.774,415.801 338.205,392.466C339.158,383.325 343.356,371.289 348.943,361.782C353.013,354.856 355.942,351.448 356.649,350.625C356.843,350.399 358.636,348.312 358.76,347.56C359.162,345.109 357.39,345.813 350.738,336.346C349.919,335.181 345.601,329.036 342.816,320.397C338.1,305.764 338.423,281.815 356.156,263.182C358.766,260.44 360.161,258.441 366.379,254.305C367.854,253.324 374.002,249.873 377.503,248.508C385.121,245.538 398.23,243.071 410.474,245.624C415.855,246.746 420.174,247.331 430.206,252.993C431.265,253.59 439.8,259.117 446.119,267.772C448.84,271.497 454.164,280.047 456.131,288.601C456.544,290.394 456.264,293.016 459.48,292.393C476.052,289.188 499.709,285.136 531.478,287.727C562.472,290.254 564.889,294.219 566.842,291.732C567.669,290.677 567.199,287.486 570.886,279.677C574.709,271.581 578.404,264.276 590.284,255.203C591.748,254.085 598.701,249.791 604.61,247.832C627.1,240.377 645.277,248.048 646.499,248.503C649.345,249.563 652.038,251.219 654.543,252.42C659.06,254.585 675.735,265.643 681.743,287.435C684.525,297.522 684.553,311.429 680.65,321.559C680.385,322.245 677.649,330.86 670.761,339.693C665.932,345.885 664.316,346.22 665.641,348.415C666.604,350.009 672.507,356.729 677.205,365.643C682.94,376.527 685.025,385.053 686.08,395.543C686.707,401.781 686.111,416.663 680.796,428.634C677.05,437.069 675.955,438.561 670.919,445.798C667.752,450.348 659.297,460.655 647.369,469.314C628.438,483.057 624.154,480.508 625.539,484.486C626.592,487.509 631.919,500.489 633.799,505.388C634.952,508.395 650.189,545.028 656.743,572.441C657.086,573.876 660.084,586.419 660.451,590.507C660.465,590.657 660.603,592.2 660.726,592.374C661.53,593.51 663.026,592.2 663.175,592.07C674.493,582.165 677.604,580.901 683.719,576.847C685.468,575.688 695.503,570.293 700.44,568.354C715.914,562.279 726.669,561.168 736.46,561.887C743.787,562.425 753.503,566.791 759.05,573.871C767.704,584.913 768.907,601.824 765.721,618.545C762.197,637.039 750.51,657.56 737.37,673.396C734.243,677.165 732.03,680.204 724.598,687.601C719.088,693.084 719.123,693.098 713.227,698.181C706.518,703.965 701.744,707.35 698.679,709.735C697.879,710.358 693.294,713.512 690.436,715.41C688.255,716.858 688.358,717.003 686.095,718.077C684.921,718.634 684.205,718.782 685.088,719.743C685.896,720.623 686.139,720.157 701.5,720.205C740.86,720.329 750.823,719.407 758.467,722.576C765.622,725.543 766.967,736.366 756.466,739.391C754.756,739.883 750.997,739.935 750.519,739.942Z" style="fill:rgb(45,47,38);"/>
                        <path d="M352.306,371.399C356.393,362.982 359.517,358.336 368.366,348.377C371.285,345.093 367.575,345.253 358.614,334.413C354.641,329.606 351.971,323.506 351.526,322.489C343.577,304.331 349.761,288.784 350.567,286.523C358.346,264.693 374.811,258.015 379.62,255.754C387.038,252.268 399.61,251.375 406.505,252.47C416.866,254.116 419.052,255.951 420.448,256.601C421.394,257.041 427.476,259.87 431.558,263.433C438.238,269.264 438.268,269.444 442,275.152C443.99,278.195 444.108,278.114 445.616,281.442C449.297,289.566 449.405,292.267 450.332,299.523C450.686,302.297 451.808,301.768 453.472,301.372C466.206,298.339 471.586,297.802 479.478,296.361C490.204,294.402 511.271,293.742 522.51,294.301C538.911,295.117 545.514,296.544 556.506,298.466C570.974,300.995 572.021,302.707 573.028,301.133C573.819,299.896 572.979,285.118 585.802,269.747C590.381,264.258 597.678,258.998 601.432,257.355C605.251,255.683 605.112,255.364 608.461,254.373C624.802,249.54 636.515,253.219 640.573,254.251C644.673,255.294 653.66,259.987 658.589,264.397C670.983,275.487 673.635,286.745 674.709,290.439C677.398,299.681 676.064,309.553 675.587,311.52C673.673,319.399 671.431,328.578 660.193,340.202C655.372,345.189 653.544,345.6 655.327,347.629C656.054,348.457 656.038,348.449 656.732,349.314C658.41,351.411 664.987,359.799 665.009,359.834C676.946,378.133 678.301,389.448 678.781,397.49C678.954,405.17 679.007,407.244 677.52,414.504C675.874,422.545 674.083,425.002 672.615,428.554C670.557,433.53 666.165,439.918 664.775,441.701C659.129,448.938 654.786,454.501 643.772,462.857C636.019,468.739 635.731,468.288 627.343,473.208C624.209,475.047 617.877,477.912 617.752,477.988C615.223,479.541 616.205,480.562 618.149,485.632C622.853,497.895 623.295,497.711 625.362,503.554C627.59,509.851 629.737,513.632 631.336,518.558C631.571,519.279 632.604,522.46 634.683,527.42C637.987,535.307 637.643,535.71 639.442,540.521C642.048,547.488 641.961,547.496 644.195,554.588C649.246,570.627 648.83,570.724 651.608,581.469C655.179,595.274 653.97,595.995 656.091,603.631C656.565,605.335 656.744,605.958 658.366,605.231C658.471,605.184 664.254,600.689 667.143,598.089C673.088,592.738 674.057,592.338 677.606,589.643C678.72,588.796 683.393,585.247 692.392,580.295C712.918,569 732.064,567.566 739.653,570.001C745.19,571.778 746.574,572.58 747.612,573.322C752.747,576.993 753.394,578.51 755.604,582.445C756.257,583.609 759.6,589.56 760.068,598.527C760.737,611.344 758.054,620.106 757.71,621.55C756.44,626.885 751.852,637.538 751.796,637.648C751.481,638.277 746.671,647.704 744.708,650.633C742.146,654.455 742.491,654.673 737.046,662.173C734.009,666.357 727.208,674.428 722.917,678.876C709.377,692.912 702.107,697.883 701.454,698.443C699.709,699.937 696.656,702.082 695.266,703.18C690.902,706.627 687.471,708.45 685.241,710.146C682.556,712.188 664.049,723.165 660.538,724.585C657.188,725.939 654.636,727.468 651.291,729.043C649.568,729.854 644.593,731.845 642.275,733.05C638.317,735.106 635.805,735.589 635.603,736.53C635.569,736.686 635.321,737.842 636.6,738.259C639.388,739.167 654.059,732.618 662.383,729.213C664.74,728.248 669.426,725.427 671.506,724.511C674.978,722.98 675.14,725.853 685.56,727.099C694.351,728.15 736.304,726.739 743.507,727.392C754.429,728.383 756.662,729.038 756.77,730.473C756.998,733.495 748.648,732.556 736.518,733.707C728.595,734.458 725.915,733.943 725.498,736.5C724.946,739.881 728.692,740.032 736.611,744.286C742.435,747.416 744.707,747.058 754.353,751.808C756.293,752.763 760.876,754.344 760.173,756.424C758.952,760.033 752.259,756.716 747.529,755.4C735.479,752.05 735.543,751.895 723.582,748.228C707.004,743.146 707.001,743.044 705.496,743.034C699.747,742.994 698.624,748.113 700.309,751.606C702.6,756.353 715.141,761.652 721.913,768.13C722.092,768.301 724.087,770.21 721.418,771.184C718.623,772.203 695.239,763.513 677.455,760.774C638.996,754.849 632.201,755.006 628.53,753.434C626.319,752.487 620.247,746.298 617.97,740.318C615.407,733.59 616.502,730.333 617.428,727.477C618.894,722.956 621.648,709.513 622.512,706.504C624.366,700.053 626.206,690.137 626.559,688.512C630.24,671.572 631.333,663 633.323,648.476C640.364,597.066 635.001,556.971 634.759,556.354C634.296,555.176 632.528,555.004 631.928,556.601C631.711,557.176 631.977,561.135 632.003,561.529C633.371,581.94 632.721,599.712 632.574,602.503C631.747,618.218 630.594,631.848 628.183,646.443C626.952,653.902 626.923,653.894 626.842,654.546C624.624,672.29 620.758,687.078 620.472,688.494C617.548,702.978 616.097,706.573 614.767,712.566C611.158,728.835 609.738,731.666 611.428,738.518C613.286,746.057 616.145,749.624 618.978,753.071C623.409,758.461 632.636,764.338 638.62,770.386C641.265,773.06 640.035,778.345 634.383,776.916C630.389,775.906 623.302,768.175 622.499,767.501C618.097,763.807 613.62,757.039 605.531,757.834C594.199,758.948 597.944,772.07 596.943,777.58C595.891,783.366 590.734,782.121 589.574,781.374C584.009,777.786 587,767.556 583.84,762.319C583.484,761.728 581.282,758.08 576.477,757.812C568.706,757.38 566.307,758.488 559.809,762.929C555.646,765.774 552.766,769.597 548.726,771.902C545.491,773.748 542.648,772.67 542.331,770.525C541.658,765.965 549.356,761.263 559.825,751.856C564.207,747.918 564.246,747.977 564.616,747.623C571.464,741.081 572.261,739.732 573.39,738.405C581.189,729.241 580.292,721.088 580.626,713.506C581.555,692.45 581.508,692.471 583.082,671.459C584.978,646.145 587.852,633.756 588.757,628.545C592.034,609.673 592.801,609.851 595.127,600.413C597.497,590.792 601.96,578.833 603.069,574.393C603.678,571.959 602.047,570.519 601.541,570.387C599.601,569.879 599.349,572.054 598.378,574.456C595.792,580.85 593.81,586.647 593.438,587.49C593.055,587.054 592.389,586.936 592.006,586.5C591.4,585.812 589.369,576.14 582.93,565.262C577.772,556.55 574.001,553.4 572.526,551.476C572.098,550.917 563.677,541.317 550.719,534.081C545.091,530.938 533.758,526.493 525.532,525.283C522.466,524.832 520.514,523.826 507.491,524.266C499.512,524.536 487.225,527.745 482.696,529.91C478.523,531.904 476.868,531.92 470.306,536.195C468.516,537.361 466.444,538.217 459.246,544.165C458.893,544.457 456.621,546.335 454.971,547.969C453.275,549.648 450.161,552.693 444.82,559.753C439.463,566.836 435.114,577.32 434.427,579.474C433.712,581.715 432.801,584.833 432.539,585.319C432.387,585.601 430.991,587.043 430.75,587.451C425.563,575.92 425.596,567.427 422.135,571.125C418.978,574.498 425.472,580.627 433.388,617.524C440.584,651.064 442.095,686.558 442.427,690.505C443.14,698.997 442.976,698.994 443.307,707.509C443.777,719.618 442.51,727.964 449.365,736.603C455.364,744.162 458.316,746.263 461.615,749.375C465.265,752.818 465.478,752.558 467.555,754.439C472.836,759.223 478.719,763.292 481.134,766.735C483.285,769.8 481.147,771.978 481.096,772.017C477.329,774.9 470.902,768.128 467.635,765.34C460.399,759.167 458.684,757.922 450.495,757.647C438.091,757.231 439.367,767.53 437.829,775.572C436.635,781.818 432.781,782.644 430.372,781.857C425.878,780.389 427.383,773.6 427.142,766.525C426.996,762.272 423.811,758.008 418.478,757.805C408.403,757.422 406.786,764.109 394.395,774.377C387.476,780.111 383.051,775.831 385.289,771.379C386.533,768.904 395.415,762.836 399.349,759.327C399.493,759.199 407.395,752.841 410.67,744.569C415.964,731.201 413.321,730.66 410.562,717.485C409.044,710.239 405.436,698.857 402.607,684.478C401.904,680.905 401.751,680.952 400.998,677.402C400.63,675.665 398.147,660.79 397.857,658.446C395.012,635.393 392.841,630.294 391.846,595.489C391.113,569.834 393.107,562.036 392.761,557.485C392.742,557.238 392.557,554.8 390.464,555.409C389.268,555.757 389.28,557.456 388.566,565.505C387.004,583.121 387.555,604.967 387.716,608.489C388.738,630.865 389.531,633.774 390.006,638.551C390.75,646.028 390.961,645.989 391.824,653.46C392.984,663.511 393.16,663.474 394.584,673.487C395.235,678.059 395.501,677.987 396.339,682.532C398.738,695.531 402.158,707.43 404.192,716.576C407.364,730.845 409.007,731.252 407.376,736.464C405.007,744.036 404.042,745.109 400.378,749.389C395.799,754.738 395.077,754.025 387.542,754.889C383.4,755.364 373.854,756.978 373.446,757.028C353.736,759.461 352.136,760.037 344.454,761.22C329.227,763.566 308.566,771.14 303.488,771.277C303.267,771.283 301.093,771.342 301.382,769.473C301.471,768.891 303.195,767.492 303.376,767.345C307.673,763.857 309.25,762.964 309.627,762.68C314.526,759.004 314.753,759.363 319.719,755.803C320.429,755.294 326.894,750.66 324.014,745.766C320.957,740.571 314.022,744.493 307.485,746.449C292.705,750.871 292.748,750.989 291.463,751.372C289.714,751.894 276.045,755.969 269.558,757.75C269.131,757.867 264.564,759.12 264.148,756.592C263.765,754.27 267.603,752.964 269.395,752.229C273.099,750.71 273.011,750.54 276.711,748.987C280.171,747.534 280.335,747.948 290.335,743.153C295.504,740.675 299.478,739.957 298.642,736.459C298.021,733.862 294.995,734.412 290.459,733.933C288.799,733.758 288.804,733.79 273.469,732.869C268.257,732.555 267.908,731.83 267.702,731.401C266.664,729.243 270.211,728.719 270.521,728.673C288.417,726.027 306.42,727.753 330.5,727.491C349.136,727.288 348.957,722.873 352.457,723.647C353.135,723.796 361.914,729.232 367.58,731.304C371.599,732.774 371.416,733.163 375.422,734.711C376.153,734.993 380.629,736.723 384.653,738.011C388.483,739.236 389.364,737.455 389.252,736.557C389.136,735.631 387.378,735.149 386.403,734.773C385.646,734.482 370.514,727.646 369.683,727.162C366.32,725.202 364.128,724.41 363.653,724.172C356.728,720.69 350.348,716.825 344.56,713.401C341.353,711.505 333.986,706.7 331.339,704.726C324.988,699.992 324.908,700.106 324.363,699.686C323.818,699.266 318.75,695.356 317.598,694.382C294.361,674.736 283.515,656.923 281.376,653.584C276.648,646.205 276.548,646.278 272.705,638.405C269.656,632.16 266.581,622.211 266.396,621.527C260.085,598.111 266.74,582.068 273.123,576.11C277.853,571.695 281.18,571.041 282.536,570.611C293.247,567.216 302.162,569.853 307.6,571.016C308.816,571.276 315.265,572.655 322.396,575.748C322.986,576.004 326.95,577.723 329.671,579.165C339.936,584.604 344.151,587.865 345.312,588.763C350.38,592.684 350.475,592.533 359.158,599.929C364.713,604.66 365.59,605.527 366.493,605.449C367.182,605.39 367.767,605.366 369.314,596.47C371.508,583.86 371.818,583.942 376.289,566.446C377.727,560.821 383.356,544.239 384.008,542.32C391.503,520.242 403.02,493.41 404.167,490.37C407.652,481.131 407.894,481.216 408.033,480.37C408.059,480.217 408.22,479.238 407.5,478.5C406.581,477.559 397.257,473.789 394.306,471.799C389.847,468.793 386.481,468.398 373.597,457.382C367.711,452.348 366.255,450.356 364.119,447.826C364.096,447.798 356.925,440.251 352.178,430.652C346.216,418.597 345.295,414.251 345.076,405.561C344.69,390.178 348.323,379.604 352.306,371.399Z" style="fill:rgb(154,183,71);"/>
                        <path d="M430.75,587.451C430.991,587.043 432.521,582.357 433.904,579.213C434.815,577.143 439.463,566.836 444.82,559.753C450.161,552.693 453.275,549.648 454.971,547.969C456.621,546.335 458.893,544.457 459.246,544.165C466.444,538.217 468.516,537.361 470.306,536.195C476.868,531.92 478.523,531.904 482.696,529.91C487.225,527.745 499.512,524.536 507.491,524.266C520.514,523.826 522.466,524.832 525.532,525.283C533.758,526.493 545.091,530.938 550.719,534.081C563.677,541.317 572.098,550.917 572.526,551.476C574.001,553.4 577.772,556.55 582.93,565.262C589.369,576.14 593.438,587.49 593.438,587.49C593.438,587.49 586.486,613.017 584.964,620.599C584.827,621.278 581.008,640.966 580.914,641.568C577.617,662.833 577.78,666.34 577.502,669.5C575.813,688.634 575.563,706.227 575.374,709.494C574.781,719.773 575.937,722.97 572.053,730.229C571.103,732.004 564.161,740.146 558.676,744.713C557.802,745.44 549.841,752.068 547.541,753.555C544.693,755.397 544.03,756.567 542.4,757.021C542.154,757.089 502.327,757.085 496.502,757.08C481.928,757.065 481.673,757.321 480.128,755.944C477.782,753.853 471.926,749.948 464.417,743.602C459.422,739.38 455.362,734.262 454.659,733.376C447.805,724.736 449.42,722.379 449.071,712.507C447.752,675.241 446.075,659.622 443.161,640.554C442.734,637.764 439.269,620.61 438.581,617.481C435.2,602.116 432.16,594.327 430.75,587.451Z" style="fill:rgb(244,232,149);"/>
                        <path d="M520.484,424.1C535.052,423.188 543.903,420.882 550.632,418.973C565.822,414.663 570.47,412.193 574.559,410.639C577.149,409.654 588.416,404.175 590.668,402.807C600.529,396.815 600.559,396.885 601.395,396.332C605.213,393.809 606.581,392.307 608.755,394.248C610.947,396.205 608.152,397.73 606.708,398.792C593.707,408.342 586.301,411.333 583.674,412.835C582.221,413.665 572.442,418.262 565.562,420.673C555.873,424.068 545.556,427.576 526.488,429.354C514.552,430.468 500.903,429.647 500.491,429.607C483.058,427.934 477.159,426.791 460.571,421.283C455.927,419.741 444.313,414.715 443.572,414.349C442.834,413.984 434.927,410.075 434.375,409.732C430.212,407.149 430.102,407.344 429.749,407.107C424.883,403.835 424.793,403.979 424.373,403.691C418.338,399.544 418.262,399.681 416.177,397.876C413.334,395.413 416.836,392.47 419.623,394.304C423.569,396.9 423.553,396.88 427.549,399.424C432.461,402.55 432.559,402.353 437.708,405.084C448.875,411.009 463.135,415.896 465.484,416.553C475.746,419.42 477.055,420.239 483.515,421.427C498.937,424.265 505.339,424.469 520.484,424.1Z" style="fill:rgb(45,47,38);"/>
                        <path d="M390.539,708.473C385.976,702.007 386.108,701.919 385.707,701.36C384.243,699.316 371.344,680.993 370.389,679.579C368.428,676.677 364.604,672.009 363.987,671.142C363.42,670.347 359.204,664.429 356.673,661.363C354.386,658.592 354.249,658.736 352.021,655.903C350.358,653.788 345.133,648.635 342.839,646.191C334.185,636.973 318.531,625.386 318.046,624.987C317.883,624.853 316.308,623.555 317.419,622.421C318.345,621.476 320.114,622.662 320.307,622.792C331.442,630.254 334.204,632.735 341.119,638.903C345.253,642.59 347.382,645.081 348.655,646.341C349.947,647.62 358.761,656.34 363.714,663.355C365.335,665.652 365.427,665.567 367.058,667.84C367.393,668.307 370.692,672.906 371.268,673.664C376.504,680.56 379.84,686.064 380.708,687.38C381.727,688.926 385.09,693.672 385.548,694.469C386.964,696.931 390.075,701.081 392.634,705.418C395.998,711.121 396.053,711.077 396.329,711.581C396.433,711.772 397.392,713.528 396.357,714.294C394.644,715.564 392.726,711.68 390.539,708.473Z" style="fill:rgb(45,47,38);"/>
                        <path d="M673.35,657.373C669.085,662.325 669.055,662.283 666.561,665.55C664.176,668.677 663.782,668.716 659.583,674.561C658.529,676.028 656.363,678.382 654.39,681.42C653.31,683.083 636.268,706.35 635.399,707.418C631.633,712.043 630.343,715.116 628.434,714.687C626.719,714.301 628.278,711.664 628.411,711.44C629.299,709.937 632.763,704.836 633.15,704.267C634.578,702.163 642.751,690.701 643.083,690.2C643.596,689.424 643.631,689.464 649.725,680.657C649.748,680.625 654.749,673.875 655.185,673.285C664.381,660.874 667.051,658.605 669.504,655.504C671.308,653.224 684.058,639.554 686.516,637.518C686.911,637.191 686.831,637.115 691.296,633.261C694.827,630.213 705.185,622.114 706.487,622.051C706.705,622.041 709.191,621.921 707.574,624.555C706.995,625.497 706.642,625.125 702.611,628.63C698.127,632.527 697.131,632.266 687.767,641.766C682.048,647.568 682.005,647.502 676.661,653.631C675.007,655.528 675.025,655.517 673.35,657.373Z" style="fill:rgb(45,47,38);"/>
                        <path d="M669.39,376.568C671.613,377.21 671.632,377.133 671.786,377.26C672.02,377.451 672.157,377.951 671.933,378.154C671.893,378.189 670.056,378.047 669.985,378C669.985,378 669.438,376.683 669.39,376.568Z" style="fill:rgb(209,149,56);"/>
                    </g>
                    <g transform="matrix(1.159846,0,0,1.159846,-133.428339,-53.403498)">
                        <circle cx="495.061" cy="449.938" r="31.162" style="fill:rgb(249,120,63);"/>
                    </g>
                    <g transform="matrix(1.159846,0,0,1.159846,185.100521,-53.403498)">
                        <circle cx="495.061" cy="449.938" r="31.162" style="fill:rgb(249,120,63);"/>
                    </g>
                    <g transform="matrix(1,0,0,1,1.36772,-2.279511)">
                        <g transform="matrix(1.406386,0,0,1.406386,36.024208,-281.393026)">
                            <circle cx="495.061" cy="449.938" r="31.162" style="fill:rgb(244,232,149);"/>
                        </g>
                        <g transform="matrix(1.213128,0,0,1.213128,131.698873,-188.416471)">
                            <circle cx="495.061" cy="449.938" r="31.162" style="fill:rgb(45,47,38);"/>
                        </g>
                        <g transform="matrix(1.05347,0,0,1.05347,-41.790839,-23.719039)">
                            <circle cx="748.945" cy="346.607" r="9.465" style="fill:rgb(250,250,250);"/>
                        </g>
                    </g>
                    <g transform="matrix(1,0,0,1,2.917784,0)">
                        <g transform="matrix(1.406386,0,0,1.406386,-233.869847,-283.672537)">
                            <circle cx="495.061" cy="449.938" r="31.162" style="fill:rgb(244,232,149);"/>
                        </g>
                        <g transform="matrix(1.213128,0,0,1.213128,-138.195181,-190.695982)">
                            <circle cx="495.061" cy="449.938" r="31.162" style="fill:rgb(45,47,38);"/>
                        </g>
                        <g transform="matrix(1.05347,0,0,1.05347,-311.684893,-25.99855)">
                            <circle cx="748.945" cy="346.607" r="9.465" style="fill:rgb(250,250,250);"/>
                        </g>
                    </g>
                </g>
            </g>
        </g>
    </g>
</svg>
