<?xml version="1.0" encoding="UTF-8" standalone="no"?>
<!DOCTYPE svg PUBLIC "-//W3C//DTD SVG 1.1//EN" "http://www.w3.org/Graphics/SVG/1.1/DTD/svg11.dtd">
<svg width="100%" height="100%" viewBox="0 0 655 508" version="1.1" xmlns="http://www.w3.org/2000/svg" xmlns:xlink="http://www.w3.org/1999/xlink" xml:space="preserve" xmlns:serif="http://www.serif.com/" style="fill-rule:evenodd;clip-rule:evenodd;stroke-linejoin:round;stroke-miterlimit:2;">
    <g transform="matrix(1,0,0,1,-8015.033921,-9233.406184)">
        <g transform="matrix(1.276754,0,0,2.756375,-2113.766445,-6854.068498)">
            <g transform="matrix(0.783236,0,0,0.362795,7712.276767,5727.495374)">
                <g id="Fondo" transform="matrix(1.171875,0,0,1.171875,0,0)">
                    <path d="M481.412,640.111C471.937,642.208 464.386,643.514 455.534,645.636C443.663,648.482 443.527,647.821 425.41,652.125C423.106,652.673 423.074,652.472 396.474,658.38C394.407,658.839 394.408,658.756 370.598,663.916C358.942,666.442 333.025,671.847 308.441,677.224C308.261,677.263 299.8,678.875 294.431,680.205C286.764,682.106 278.825,683.155 264.537,686.642C264.116,686.745 251.775,689.511 249.501,689.551C247.384,689.588 242.136,688.466 241.047,682.575C240.817,681.326 240.767,681.326 240.744,648.499C240.738,639.309 240.851,638.917 246.558,632.552C251.749,626.762 251.84,626.868 257.098,621.131C260.382,617.549 260.274,617.479 264.739,612.724C268.091,609.154 267.946,609.054 274.74,601.718C279.927,596.116 322.952,548.488 326.643,544.637C328.132,543.082 328.021,542.984 344.674,524.66C345.365,523.899 353.279,515.12 362.327,505.341C364.007,503.526 385.831,479.12 387.872,476.837C388.36,476.292 388.417,476.365 394.071,470.117C398.113,465.649 398.149,465.702 402.216,461.243C402.905,460.488 404.83,457.965 406.902,455.894C407.463,455.334 407.616,455.18 413.615,448.602C416.482,445.459 416.41,445.418 419.3,442.316C421.061,440.426 492.773,361.014 495.817,357.788C500.231,353.11 500.072,352.977 507.656,344.639C515.985,335.482 515.881,335.404 524.293,326.31C524.946,325.604 531.168,318.877 532.343,317.374C534.573,314.522 532.292,312.686 532.103,302.51C532.003,297.124 532.005,288.259 538.996,276.815C540.76,273.928 545.888,268.064 548.79,265.856C550.567,264.504 553.209,262.911 553.605,262.673C558.241,259.877 558.233,259.815 563.453,258.344C586.083,251.967 604.789,261.589 619.712,272.188C621.069,273.152 632.802,281.486 636.398,284.62C640.409,288.117 640.641,287.802 644.687,291.279C647.086,293.34 647.176,293.211 651.241,296.797C656.292,301.253 656.365,301.151 661.342,305.677C663.015,307.198 663.755,307.534 672.313,315.697C672.886,316.244 676.986,320.155 679.46,322.542C680.944,323.973 682.238,325.076 685.018,327.969C685.606,328.581 685.615,328.565 692.513,335.487C704.186,347.199 721.925,367.573 727.042,373.878C727.705,374.695 742.688,392.77 754.945,410.174C755.337,410.73 755.435,410.643 758.244,414.682C768.41,429.302 787.668,459.01 793.507,473.497C798.514,485.922 798.983,496.469 799.074,498.518C800.889,539.388 784.873,560.465 781.795,564.713C781.426,565.222 780.638,566.31 776.589,570.584C776.124,571.074 774.864,572.404 770.149,576.048C764.743,580.227 759.016,580.215 753.531,581.62C745.489,583.679 731.908,585.978 725.539,587.639C722.852,588.34 722.802,588.108 691.602,594.973C686.904,596.007 677.145,597.892 670.508,599.536C668.402,600.058 650.869,603.456 642.503,605.514C641.467,605.769 641.462,605.654 629.449,608.259C580.103,618.876 530.758,629.494 481.412,640.111Z" style="fill:rgb(71,50,32);"/>
                    <path d="M407.914,471.854C410.008,469.456 418.955,459.833 420.766,457.717C425.139,452.606 430.185,447.427 433.61,443.597C441.642,434.616 441.718,434.705 449.802,425.76C454.56,420.494 454.615,420.558 455.01,420.085C459.093,415.192 470.984,402.391 471.156,402.194C474.193,398.734 474.259,398.819 474.508,398.507C476.783,395.659 481.922,390.307 482.076,390.126C485.417,386.202 499.716,370.562 503.402,366.415C511.971,356.775 515.162,353.35 516.204,352.231C519.399,348.801 519.169,348.625 522.331,345.341C526.455,341.057 526.966,339.437 528.499,339.395C529.003,339.381 529.272,339.374 534.25,341.955C536.452,343.097 536.333,343.273 538.555,344.401C539.864,345.066 543.427,346.874 554.424,353.63C556.204,354.724 556.061,354.909 557.813,356.026C572.715,365.53 572.505,365.824 585.449,375.566C588.882,378.15 588.694,378.352 592.107,380.986C595.162,383.344 594.915,383.616 597.914,386.026C601.803,389.152 601.655,389.303 605.397,392.616C607.247,394.255 607.074,394.41 608.916,396.049C615.275,401.705 615.103,401.853 621.165,407.83C625.818,412.419 625.616,412.584 627.491,414.508C630.941,418.05 630.808,418.151 634.174,421.791C636.346,424.14 636.226,424.214 638.345,426.632C645.468,434.758 650.834,442.17 651.269,442.687C654.507,446.533 655.288,448.152 657.296,450.656C659.276,453.124 660.245,454.811 660.657,455.393C669.511,467.884 672.183,473.398 674.229,476.654C676.601,480.428 676.403,480.532 680.032,486.773C682.04,490.228 687.661,501.789 689.181,505.627C693.605,516.795 693.754,516.818 693.768,520.498C693.839,538.242 692.999,539.076 691.96,545.594C691.83,546.405 690.654,553.784 689.978,555.675C689.13,558.046 688.29,557.207 679.492,559.465C677.015,560.101 677.013,560.019 674.508,560.537C658.411,563.871 657.892,564.002 656.461,564.363C652.748,565.299 650.81,566.435 649.671,563.434C647.306,557.205 646.018,556.149 643.556,552.457C641.654,549.605 636.367,545.146 636.142,544.989C628.988,540.014 624.604,538.778 623.509,538.47C604.644,533.154 591.483,541.992 589.788,542.979C589.06,543.403 585.845,545.276 581.612,549.609C578.815,552.472 575.124,558.031 573.365,562.447C569.876,571.212 570.475,578.117 570.594,579.493C570.864,582.603 570.521,583.214 566.569,583.911C554.256,586.085 542.598,589.145 536.454,590.27C527.483,591.912 517.283,594.468 513.443,595.246C493.814,599.222 493.15,599.588 490.429,600.151C460.902,606.26 460.964,606.509 458.397,607.039C430.828,612.731 430.935,613.223 428.495,613.386C427.73,613.437 427.684,613.458 427.121,612.922C426.366,612.203 426.646,612.062 426.165,609.557C425.209,604.586 422.29,598.464 420.832,596.288C414.185,586.366 407.237,583.432 404.344,581.804C395.477,576.816 379.152,576.144 368.35,582.216C365.254,583.956 358.988,586.798 353.174,595.284C342.472,610.905 346.637,625.202 347.234,628.557C347.865,632.099 345.557,630.796 334.507,633.529C324.742,635.944 310.128,638.698 306.518,639.573C300.762,640.967 292.594,642.582 285.424,644.107C275.436,646.233 275.505,646.472 265.49,648.447C253.698,650.772 253.645,651.191 252.378,650.678C251.336,650.257 251.697,645.408 252.022,644.349C252.293,643.462 252.481,642.851 259.361,635.375C275.752,617.565 323.121,565.323 333.805,553.777C338.635,548.558 338.691,548.619 339.084,548.142C342.26,544.286 342.443,544.468 345.723,540.694C348.555,537.435 368.657,515.373 369.437,514.448C374.964,507.897 378.725,504.126 379.392,503.402C380.003,502.738 386.752,495.413 387.017,495.084C391.448,489.593 396.842,484.438 407.914,471.854Z" style="fill:rgb(251,206,89);"/>
                    <path d="M785.761,486.43C785.612,486.574 783.896,488.235 783.896,488.235C783.617,488.163 783.67,487.704 783.547,487.443C782.735,485.718 780.333,483.928 779.666,483.313C776.015,479.944 767.972,476.985 766.466,476.64C756.577,474.374 747.778,475.593 734.444,481.384C731.638,482.602 726.33,486.54 725.389,487.361C723.081,489.376 723.3,489.575 722.459,490.456C721.342,491.627 720.455,491.631 720.29,491.728C719.924,491.079 719.867,491.13 719.573,490.458C717.681,486.148 713.578,478.833 712.55,476.476C711.44,473.934 709.476,470.914 708.29,468.604C704.211,460.656 703.279,459.93 702.493,458.504C699.845,453.699 696.005,447.894 692.939,443.201C677.592,419.708 674.64,419.722 676.736,417.77C676.757,417.751 676.739,417.763 678.282,417.057C679.527,416.488 687.162,413.261 690.52,411.537C694.483,409.501 694.151,404.88 690.42,403.862C687.917,403.179 679.253,408.641 672.422,411.297C669.001,412.627 667.953,409.053 664.604,405.406C661.629,402.165 659.462,399.477 658.535,398.468C657.574,397.423 657.581,397.436 656.621,396.394C645.899,384.756 644.199,382.78 634.463,373.54C633.888,372.994 628.338,367.727 627.289,366.714C623.089,362.656 622.805,362.984 620.398,360.61C617.143,357.4 613.906,355.968 615.191,354.311C615.994,353.276 623.242,349.645 625.559,347.568C630.266,343.35 625.579,337.549 621.233,341.149C618.932,343.055 617.078,344.032 615.299,345.18C609.477,348.941 609.043,349.069 608.431,349.25C607.311,349.581 606.098,348.769 602.36,345.671C600.908,344.469 589.799,336.184 588.585,335.382C587.919,334.943 581.286,330.562 580.241,329.917C568.83,322.874 568.734,322.01 548.663,312.158C545.015,310.367 544.241,310.51 543.859,306.462C542.457,291.597 547.188,285.433 548.909,282.767C553.452,275.728 560.562,271.74 562.672,270.891C582.339,262.976 598.321,272.735 604.283,275.894C610.567,279.224 631.568,294.876 649.312,310.712C657.477,318 657.549,317.889 663.488,323.513C682.838,341.837 691.267,351 692.134,351.865C694.278,354.005 697.442,357.733 702.183,362.792C707.851,368.84 712.885,375.145 718.826,382.221C725.192,389.802 725.548,390.616 726.375,391.601C728.766,394.448 728.712,394.464 730.366,396.602C731.658,398.271 731.712,398.208 733.016,399.88C734.151,401.333 745.868,417.349 746.597,418.432C746.598,418.434 757.517,434.24 757.632,434.416C769.154,452.086 771.605,456.82 774.389,461.568C777.012,466.041 776.698,466.204 778.197,468.663C782.612,475.907 783.972,481.155 785.761,486.43Z" style="fill:rgb(242,182,124);"/>
                    <path d="M724.168,500.581C724.115,500.415 723.505,498.499 723.505,498.499C723.486,498.461 722.907,497.724 722.373,496.552C721.788,495.269 721.114,494.394 720.29,491.728C720.455,491.631 722.232,488.919 724.54,486.904C725.481,486.083 732.355,481.036 735.162,479.817C748.496,474.027 757.784,473.8 767.608,476.334C776.457,478.617 785.612,486.574 785.761,486.43C786.152,487.831 787.836,493.87 787.725,504.502C787.713,505.707 787.634,513.318 786.698,519.531C784.134,536.549 779.201,551.872 768.867,561.872C765.849,564.793 764.713,566.607 761.32,568.052C760.471,568.414 745.849,571.624 739.582,572.882C725.949,575.617 712.902,578.782 704.478,580.397C697.688,581.699 697.148,582.238 691.466,583.339C674.921,586.545 673.056,586.996 671.47,587.38C658.488,590.521 658.396,590.033 645.401,593.046C638.616,594.619 579.463,607.288 578.497,607.486C577.375,607.716 566.28,609.985 564.49,610.46C563.307,610.774 560.939,611.402 549.543,613.718C539.434,615.772 539.49,615.923 529.415,618.045C500.977,624.034 501.034,624.293 498.545,624.726C490.206,626.18 480.663,628.426 480.493,628.472C474.579,630.047 463.617,632.041 460.555,632.744C435.216,638.568 435.121,638.049 429.476,639.405C415.873,642.673 403.744,644.836 399.58,645.852C386.511,649.042 379.298,649.97 373.5,651.5C368.168,652.907 349.558,656.427 345.493,657.47C338.109,659.363 338.042,658.97 324.388,662.007C310.875,665.012 308.886,665.397 307.531,665.659C287.077,669.611 287.231,670.27 278.564,671.851C270.019,673.41 264.81,674.853 258.434,676.209C256.367,676.649 252.466,678.004 251.912,676.336C251.638,675.513 251.79,675.488 251.789,665.499C251.789,661.433 251.323,660.251 254.517,659.581C258.536,658.738 269.414,656.093 284.429,653.131C287.002,652.623 294.325,650.814 304.535,648.667C320.256,645.361 320.218,645.204 321.592,644.95C329.468,643.488 341.965,640.579 359.582,636.87C377.953,633.002 377.912,632.88 379.511,632.56C394.204,629.625 394.17,629.494 395.451,629.26C401.146,628.218 403.172,627.378 414.437,625.194C423.085,623.518 428.717,621.922 434.563,620.795C444.354,618.907 471.902,612.551 476.576,611.874C478.921,611.534 478.847,611.183 505.513,605.564C538.717,598.567 538.675,598.386 541.566,597.797C561.67,593.701 561.608,593.459 569.556,591.748C573.483,590.902 573.493,591.016 577.442,590.214C578.411,590.017 587.083,588.256 589.529,587.603C598.609,585.177 598.753,585.861 613.472,582.383C614.265,582.195 659.689,572.444 662.575,571.859C671.102,570.128 671.032,569.857 675.595,568.929C685.605,566.894 685.589,566.933 695.543,564.684C710.165,561.38 710.193,561.618 711.457,561.309C717.498,559.831 722.662,560.191 724.194,550.445C725.441,542.51 727.326,535.237 726.721,518.495C726.228,504.823 725.716,504.866 724.168,500.581Z" style="fill:rgb(217,144,84);"/>
                    <path d="M662.897,414.159C667.172,418.927 666.748,419.261 670.965,424.09C671.378,424.563 671.314,424.604 675.762,430.305C677.07,431.981 679.259,435.615 680.761,437.27C682.586,439.279 682.877,440.708 684.825,443.276C688.608,448.265 691.377,453.901 694.134,457.75C696.272,460.734 696.02,460.873 696.858,462.297C697.772,463.851 697.904,463.743 698.789,465.339C709.746,485.111 711.129,488.393 718.218,503.613C719.228,505.781 719.146,505.854 719.817,519.479C720.369,530.709 719.888,534.257 719.716,535.529C718.973,541.004 718.865,540.968 718.059,546.451C717.619,549.449 717.491,551.213 714.581,551.797C713.781,551.957 713.801,552.022 704.615,553.98C700.465,554.864 700.279,555.455 699.409,554.596C697.872,553.079 701.891,546.034 702.084,527.499C702.214,515.109 702.326,514.992 700.222,509.614C698.591,505.449 698.781,505.39 696.797,501.372C695.826,499.405 696.329,499.211 694.773,496.357C694.77,496.351 693.171,492.464 689.611,486.432C688.085,483.848 688.344,483.733 686.15,479.681C685.808,479.05 676.741,463.163 674.664,460.378C672.922,458.041 672.541,457.098 670.136,453.761C669.838,453.347 667.152,448.981 657.094,435.823C650.915,427.739 646.879,423.163 646.391,422.589C645.629,421.689 645.34,421.127 643.203,418.806C641.503,416.959 641.831,416.712 640.097,414.879C637.181,411.799 637.317,411.694 634.281,408.732C631.874,406.383 631.314,405.309 629.339,403.677C627.471,402.134 625.279,398.806 621.821,396.115C620.523,395.105 615.885,389.918 610.062,384.917C604.681,380.296 604.771,380.224 599.351,375.667C596.105,372.938 594.651,371.304 590.162,367.986C588.376,366.666 588.322,366.752 586.691,365.258C584.326,363.09 584.033,363.503 581.557,361.434C579.243,359.499 569.777,352.836 565.571,350.382C565.024,350.064 557.637,345.217 554.547,343.438C552.766,342.413 552.638,342.103 552.283,341.914C548.934,340.127 548.881,340.246 545.698,338.204C540.325,334.758 535.374,333.501 535.248,331.503C535.125,329.553 539.734,325.962 545.032,320.09C547.41,317.454 548.432,319.729 554.545,322.41C555.771,322.948 562.062,326.755 562.715,327.106C564.787,328.221 565.432,328.305 569.702,331.156C570.11,331.428 571.156,331.794 574.197,333.931C575.295,334.702 578.737,336.778 583.172,339.99C585.197,341.455 585.305,341.264 587.266,342.821C590.018,345.005 591.979,346.168 597.429,350.594C599.585,352.344 599.918,352.293 601.395,353.624C604.41,356.339 615.505,364.916 622.358,371.656C627.152,376.372 627.379,376.107 632.108,380.878C633.296,382.075 634.192,382.712 636.15,384.828C638.803,387.695 638.92,387.564 641.526,390.476C645.762,395.21 646.07,394.904 650.206,399.748C652.991,403.01 653.265,402.744 655.931,406.122C658.403,409.255 658.907,408.821 662.897,414.159Z" style="fill:rgb(183,70,55);"/>
                    <g transform="matrix(0.709988,-0.14909,0.160095,0.762397,-145.029481,74.330479)">
                        <path d="M609.352,828.363L516.759,828.363C516.759,802.794 537.487,782.067 563.056,782.067C588.624,782.067 609.352,802.794 609.352,828.363Z" style="fill:rgb(183,70,55);"/>
                    </g>
                    <g transform="matrix(0.847972,0,0,0.847972,2.376256,-32.319969)">
                        <circle cx="542.559" cy="646.326" r="46.309" style="fill:rgb(71,50,32);"/>
                    </g>
                    <g transform="matrix(0.886,0,0,0.886,-24.783894,-25.644738)">
                        <circle cx="549.926" cy="611.052" r="34.808" style="fill:rgb(183,70,55);"/>
                    </g>
                    <g transform="matrix(0.847972,0,0,0.847972,98.933257,-120.72372)">
                        <circle cx="542.559" cy="646.326" r="46.309" style="fill:rgb(71,50,32);"/>
                    </g>
                    <g transform="matrix(0.886,0,0,0.886,71.773107,-114.048489)">
                        <circle cx="549.926" cy="611.052" r="34.808" style="fill:rgb(183,70,55);"/>
                    </g>
                </g>
                <g transform="matrix(0.985714,0,0,0.985714,8.372435,6.075567)">
                    <circle cx="365.899" cy="725.849" r="5.229" style="fill:rgb(71,50,32);"/>
                </g>
                <g transform="matrix(0.985714,0,0,0.985714,86.735011,-100.004882)">
                    <circle cx="365.899" cy="725.849" r="5.229" style="fill:rgb(71,50,32);"/>
                </g>
                <g transform="matrix(0.985714,0,0,0.985714,272.208692,-87.432167)">
                    <circle cx="365.899" cy="725.849" r="5.229" style="fill:rgb(71,50,32);"/>
                </g>
                <g transform="matrix(0.985714,0,0,0.985714,206.672774,-214.229896)">
                    <circle cx="365.899" cy="725.849" r="5.229" style="fill:rgb(71,50,32);"/>
                </g>
                <g transform="matrix(0.985714,0,0,0.985714,389.096235,-164.339485)">
                    <circle cx="365.899" cy="725.849" r="5.229" style="fill:rgb(71,50,32);"/>
                </g>
                <g transform="matrix(0.796165,-0.170459,0.155449,0.726057,28.713007,224.292268)">
                    <path d="M756.635,783.639L663.175,783.639C663.175,757.83 684.096,736.909 709.905,736.909C735.713,736.909 756.635,757.83 756.635,783.639Z" style="fill:rgb(183,70,55);"/>
                </g>
            </g>
        </g>
    </g>
</svg>
