<?xml version="1.0" encoding="UTF-8" standalone="no"?>
<!DOCTYPE svg PUBLIC "-//W3C//DTD SVG 1.1//EN" "http://www.w3.org/Graphics/SVG/1.1/DTD/svg11.dtd">
<svg width="100%" height="100%" viewBox="0 0 1439 127" version="1.1" xmlns="http://www.w3.org/2000/svg" xmlns:xlink="http://www.w3.org/1999/xlink" xml:space="preserve" xmlns:serif="http://www.serif.com/" style="fill-rule:evenodd;clip-rule:evenodd;stroke-linejoin:round;stroke-miterlimit:2;">
    <g transform="matrix(1,0,0,1,-7857.070022,-8368.567823)">
        <g transform="matrix(1.276754,0,0,2.41528,-2113.766445,-5508.126071)">
            <g transform="matrix(1,0,0,1,-10.388328,20.011857)">
                <g transform="matrix(0.930431,0,0,0.49184,-1207.9924,1452.301144)">
                    <path d="M9708.709,8746.734C9705.515,8746.734 9702.921,8744.14 9702.921,8740.946C9702.921,8737.752 9705.515,8735.159 9708.709,8735.159L10908.053,8735.159C10911.247,8735.159 10913.84,8737.752 10913.84,8740.946C10913.84,8744.14 10911.247,8746.734 10908.053,8746.734L9708.709,8746.734Z"/>
                </g>
                <g transform="matrix(1.090925,0,0,0.57668,-1874.416634,731.197242)">
                    <path d="M8886.338,8665.15C8886.338,8662.426 8888.549,8660.214 8891.274,8660.214C8893.998,8660.214 8896.21,8662.426 8896.21,8665.15L8896.21,8745.743C8896.21,8748.467 8893.998,8750.679 8891.274,8750.679C8888.549,8750.679 8886.338,8748.467 8886.338,8745.743L8886.338,8665.15Z"/>
                </g>
                <g transform="matrix(1.090925,0,0,0.57668,-758.449882,731.197242)">
                    <path d="M8886.338,8665.15C8886.338,8662.426 8888.549,8660.214 8891.274,8660.214C8893.998,8660.214 8896.21,8662.426 8896.21,8665.15L8896.21,8745.743C8896.21,8748.467 8893.998,8750.679 8891.274,8750.679C8888.549,8750.679 8886.338,8748.467 8886.338,8745.743L8886.338,8665.15Z"/>
                </g>
                <g transform="matrix(0.830071,0,0,0.364417,540.118274,2579.035432)">
                    <path d="M8884.787,8665.15C8884.787,8660.839 8887.693,8657.339 8891.274,8657.339C8894.854,8657.339 8897.761,8660.839 8897.761,8665.15L8897.761,8745.743C8897.761,8750.054 8894.854,8753.554 8891.274,8753.554C8887.693,8753.554 8884.787,8750.054 8884.787,8745.743L8884.787,8665.15Z"/>
                </g>
                <g transform="matrix(0.830071,0,0,0.364417,655.923939,2579.035432)">
                    <path d="M8884.787,8665.15C8884.787,8660.839 8887.693,8657.339 8891.274,8657.339C8894.854,8657.339 8897.761,8660.839 8897.761,8665.15L8897.761,8745.743C8897.761,8750.054 8894.854,8753.554 8891.274,8753.554C8887.693,8753.554 8884.787,8750.054 8884.787,8745.743L8884.787,8665.15Z"/>
                </g>
                <g transform="matrix(0.830071,0,0,0.364417,771.729603,2579.035432)">
                    <path d="M8884.787,8665.15C8884.787,8660.839 8887.693,8657.339 8891.274,8657.339C8894.854,8657.339 8897.761,8660.839 8897.761,8665.15L8897.761,8745.743C8897.761,8750.054 8894.854,8753.554 8891.274,8753.554C8887.693,8753.554 8884.787,8750.054 8884.787,8745.743L8884.787,8665.15Z"/>
                </g>
                <g transform="matrix(0.830071,0,0,0.364417,887.535268,2579.035432)">
                    <path d="M8884.787,8665.15C8884.787,8660.839 8887.693,8657.339 8891.274,8657.339C8894.854,8657.339 8897.761,8660.839 8897.761,8665.15L8897.761,8745.743C8897.761,8750.054 8894.854,8753.554 8891.274,8753.554C8887.693,8753.554 8884.787,8750.054 8884.787,8745.743L8884.787,8665.15Z"/>
                </g>
                <g transform="matrix(0.830071,0,0,0.364417,1003.340933,2579.035432)">
                    <path d="M8884.787,8665.15C8884.787,8660.839 8887.693,8657.339 8891.274,8657.339C8894.854,8657.339 8897.761,8660.839 8897.761,8665.15L8897.761,8745.743C8897.761,8750.054 8894.854,8753.554 8891.274,8753.554C8887.693,8753.554 8884.787,8750.054 8884.787,8745.743L8884.787,8665.15Z"/>
                </g>
                <g transform="matrix(0.830071,0,0,0.364417,1119.146597,2579.035432)">
                    <path d="M8884.787,8665.15C8884.787,8660.839 8887.693,8657.339 8891.274,8657.339C8894.854,8657.339 8897.761,8660.839 8897.761,8665.15L8897.761,8745.743C8897.761,8750.054 8894.854,8753.554 8891.274,8753.554C8887.693,8753.554 8884.787,8750.054 8884.787,8745.743L8884.787,8665.15Z"/>
                </g>
                <g transform="matrix(0.830071,0,0,0.364417,1234.952262,2579.035432)">
                    <path d="M8884.787,8665.15C8884.787,8660.839 8887.693,8657.339 8891.274,8657.339C8894.854,8657.339 8897.761,8660.839 8897.761,8665.15L8897.761,8745.743C8897.761,8750.054 8894.854,8753.554 8891.274,8753.554C8887.693,8753.554 8884.787,8750.054 8884.787,8745.743L8884.787,8665.15Z"/>
                </g>
                <g transform="matrix(0.830071,0,0,0.364417,1350.757926,2579.035432)">
                    <path d="M8884.787,8665.15C8884.787,8660.839 8887.693,8657.339 8891.274,8657.339C8894.854,8657.339 8897.761,8660.839 8897.761,8665.15L8897.761,8745.743C8897.761,8750.054 8894.854,8753.554 8891.274,8753.554C8887.693,8753.554 8884.787,8750.054 8884.787,8745.743L8884.787,8665.15Z"/>
                </g>
                <g transform="matrix(0.830071,0,0,0.364417,1466.563591,2579.035432)">
                    <path d="M8884.787,8665.15C8884.787,8660.839 8887.693,8657.339 8891.274,8657.339C8894.854,8657.339 8897.761,8660.839 8897.761,8665.15L8897.761,8745.743C8897.761,8750.054 8894.854,8753.554 8891.274,8753.554C8887.693,8753.554 8884.787,8750.054 8884.787,8745.743L8884.787,8665.15Z"/>
                </g>
            </g>
        </g>
    </g>
</svg>
