<?xml version="1.0" encoding="UTF-8" standalone="no"?>
<!DOCTYPE svg PUBLIC "-//W3C//DTD SVG 1.1//EN" "http://www.w3.org/Graphics/SVG/1.1/DTD/svg11.dtd">
<svg width="100%" height="100%" viewBox="0 0 443 542" version="1.1" xmlns="http://www.w3.org/2000/svg" xmlns:xlink="http://www.w3.org/1999/xlink" xml:space="preserve" xmlns:serif="http://www.serif.com/" style="fill-rule:evenodd;clip-rule:evenodd;stroke-linejoin:round;stroke-miterlimit:2;">
    <g transform="matrix(1,0,0,1,-9644.707749,-6938.143276)">
        <g transform="matrix(1.276754,0,0,1.897866,-2116.350918,-3543.870901)">
            <g transform="matrix(1,0,0,1,-69.005704,-30.948194)">
                <g transform="matrix(1.209297,0,0,0.813532,8836.089649,5284.960665)">
                    <path d="M632.23,363.612C632.374,364.154 633.282,367.571 633.562,370.495C634.154,376.682 630.829,383.894 629.799,385.657C624.198,395.243 616.619,400.341 614.348,402.32C610.807,405.405 610.19,405.57 609.768,405.877C604.453,409.732 604.369,409.573 598.658,412.798C596.927,413.776 591.805,415.794 589.496,416.487C569.869,422.379 560.14,422.034 549.488,422.155C540.137,422.262 538.248,421.898 538.359,423.526C538.406,424.222 539.406,424.411 539.522,424.433C541.033,424.718 555.141,424.555 556.499,424.54C596.108,424.082 596.086,424.383 648.497,424.294C653.537,424.285 653.56,427.659 653.875,429.459C653.918,431.007 653.976,430.988 653.899,432.487C653.2,446.225 653.645,494.798 653.481,497.499C653.041,504.726 646.164,500.826 644.656,502.63C644.348,502.998 644.119,503.036 644.101,515.5L644.197,676.491C644.207,681.575 640.355,680.953 637.495,680.954C626.493,680.957 626.516,681.043 615.497,681.038L420.5,681.041C394.723,681.034 394.737,681.102 392.498,681.041C386.529,680.877 386.543,681.25 380.582,681.093C378.846,681.048 377.315,679.627 376.939,677.442C376.811,676.694 376.937,559.117 376.906,542.498C376.836,503.919 377.342,503.661 376.37,502.614C375.122,501.269 368.354,503.814 367.728,498.475C367.621,497.556 367.651,429.762 367.705,428.511C367.722,428.116 367.85,425.134 370.478,424.421C371.83,424.054 417.533,424.344 426.494,424.312C457.193,424.205 481.625,424.94 482.449,424.404C482.573,424.324 483.759,423.553 482.458,422.565C481.311,421.694 467.103,422.835 454.521,421.367C452.405,421.12 442.026,419.909 428.625,415.166C423.043,413.191 414.266,407.884 410.268,404.777C399.436,396.357 395.008,389.863 394.632,389.397C394.164,388.815 391.893,385.996 389.99,381.298C387.463,375.062 388.338,367.628 389.565,364.524C395.233,350.197 405.431,347.959 411.402,344.339C415.702,341.732 419.669,336.844 426.609,333.745C437.067,329.075 444.117,330.275 452.534,334.437C457.306,336.797 465.944,344.871 472.656,353.379C473.043,353.869 476.016,357.638 477.412,359.565C482.55,366.661 482.322,366.801 486.832,374.309C492.177,383.208 492.391,384.356 493.617,386.436C495.314,389.314 495.743,389.582 503.5,389.49C518.567,389.311 524.668,389.718 526.316,389.086C527.91,388.474 531.476,381.393 531.838,380.674C533.913,376.555 534.041,376.65 536.918,371.752C540.162,366.231 543.017,362.46 543.611,361.576C547.012,356.512 547.206,356.67 550.902,351.824C552.618,349.575 552.823,349.774 554.547,347.541C556.31,345.256 565.833,336.102 570.704,333.946C580.899,329.433 586.23,330.559 590.388,331.844C599.449,334.644 605.096,339.887 606.697,341.264C611.992,345.819 615.514,346.232 619.319,348.782C629.769,355.783 631.157,361.023 632.23,363.612ZM593.711,395.916C597.224,394.044 601.528,391.43 605.137,387.19C612.485,378.557 614.961,364.922 608.678,357.356C604.459,352.276 600.253,351.911 595.533,353.6C585.298,357.263 579.792,363.013 577.157,365.072C576.261,365.772 575.078,366.697 566.736,374.754C557.452,383.721 542.206,402.431 541.863,402.825C541.457,403.292 537.295,408.073 536.808,408.692C535.901,409.844 536.344,410.43 536.435,410.552C537.147,411.495 537.365,410.981 538.508,410.654C539.751,410.3 543.85,409.759 544.523,409.646C568.787,405.565 579.231,402.79 593.711,395.916ZM464.552,407.248C466.047,407.614 469.488,408.456 483.495,410.616C483.657,410.641 485.19,410.877 485.543,410.562C486.939,409.313 483.777,406.749 480.339,402.629C478.289,400.173 478.357,400.146 476.252,397.714C473.226,394.218 473.239,394.237 470.14,390.808C467.77,388.186 467.953,388.042 465.535,385.468C464.996,384.894 463.151,382.824 461.704,381.307C459.873,379.387 444.367,363.129 437.214,358.949C421.756,349.916 418.35,351.588 413.374,357.396C408.592,362.978 408.938,376.056 414.84,384.276C420.076,391.566 428.064,399.656 464.552,407.248Z" style="fill:rgb(55,27,18);"/>
                </g>
                <g transform="matrix(1.209297,0,0,0.813532,8836.089649,5284.960665)">
                    <path d="M487.158,531.497C487.169,571.831 487.18,612.164 487.191,652.498C487.19,654.176 487.185,672.344 487.115,673.478C486.98,675.678 485.453,675.505 484.5,675.51C464.332,675.616 398.94,675.514 391.5,675.502C384.158,675.491 384.153,675.57 383.557,675.351C382.524,674.97 382.417,673.685 382.402,673.512C382.319,672.505 382.03,504.873 382.401,503.469C382.978,501.291 385.425,502.4 397.499,501.992C398.066,501.973 424.18,501.983 426.5,501.984C432.185,501.986 468.98,502.163 484.485,501.954C487.687,501.911 487.21,503.974 487.186,513.502C487.177,519.5 487.167,525.499 487.158,531.497Z" style="fill:rgb(178,33,44);"/>
                </g>
                <g transform="matrix(1.209297,0,0,0.813532,8836.089649,5284.960665)">
                    <path d="M638.817,589.501C638.738,609.414 638.874,672.359 638.721,673.527C638.434,675.719 637.582,675.505 632.5,675.527C612.221,675.615 562.58,675.531 556.5,675.521C539.016,675.492 539.02,675.579 537.504,675.463C535.785,675.332 535.679,673.701 535.665,673.485C535.478,670.615 535.583,634.084 535.56,627.499C535.445,594.997 535.773,595.01 535.597,562.5C535.45,535.494 535.695,535.514 535.626,508.502C535.618,505.143 535.251,502.892 536.428,502.387C537.858,501.774 542.905,502.182 553.499,501.951C554.016,501.94 570.054,501.935 571.494,501.934C574.375,501.933 603.533,501.924 607.504,502.061C608.863,502.108 608.861,501.798 624.497,502.024C630.152,502.106 637.297,501.44 638.29,502.665C639.192,503.778 638.728,504.002 638.788,562.5C638.794,569.12 638.764,583.978 638.817,589.501Z" style="fill:rgb(178,33,44);"/>
                </g>
                <g transform="matrix(1.209297,0,0,0.813532,8836.089649,5284.960665)">
                    <path d="M406.5,429.827C478.268,429.773 478.256,429.732 484.494,429.848C486.315,429.882 486.695,429.788 487.17,431.544C487.221,431.731 487.14,485.889 487.177,493.504C487.178,493.608 487.54,496.061 485.484,496.411C485.263,496.449 459.181,496.459 455.5,496.447C392.938,496.257 392.94,496.52 387.501,496.458C375.376,496.32 373.921,496.836 373.295,495.645C372.508,494.147 372.974,494.029 372.976,474.5C372.977,471.139 372.981,437.536 373.089,432.486C373.123,430.895 373.321,429.868 375.513,429.828C378.258,429.779 404.021,429.822 406.5,429.827Z" style="fill:rgb(178,33,44);"/>
                </g>
                <g transform="matrix(1.209297,0,0,0.813532,8836.089649,5284.960665)">
                    <path d="M641.499,429.845C643.667,429.83 646.911,429.641 647.635,430.365C648.381,431.113 648.121,433.279 648.193,443.502C648.209,445.667 648.235,494.016 648.141,494.458C647.597,497.014 645.718,496.453 642.5,496.44C597.992,496.262 598.016,496.584 553.5,496.46C537.778,496.416 536.485,496.894 535.9,495.354C535.393,494.018 535.585,493.967 535.617,477.499C535.704,431.596 535.211,431.286 536.303,430.284C537.278,429.388 537.54,429.851 641.499,429.845Z" style="fill:rgb(178,33,44);"/>
                </g>
                <g transform="matrix(1.209297,0,0,0.813532,8836.089649,5284.960665)">
                    <path d="M530.711,533.5C530.63,673.686 531.204,674.07 530.091,675.055C529.499,675.579 529.368,675.405 503.5,675.487C493.422,675.519 492.865,675.605 492.423,674.542C492.051,673.651 492.217,673.593 492.095,548.5C492.091,544.979 492.055,507.7 492.215,504.482C492.363,501.52 494.502,502.095 500.499,502.076C507.639,502.054 528.224,502.072 528.535,502.101C530.056,502.242 530.67,502.74 530.731,504.487C530.827,507.21 530.721,531.179 530.711,533.5Z" style="fill:rgb(251,186,159);"/>
                </g>
                <g transform="matrix(1.209297,0,0,0.813532,8836.089649,5284.960665)">
                    <path d="M513.502,429.837C525.477,429.806 525.46,429.792 526.5,429.794C529.582,429.799 530.733,429.412 530.744,432.498C530.761,437.378 530.901,476.457 530.732,493.504C530.723,494.506 530.838,496.393 528.499,496.473C525.05,496.59 499.979,496.472 497.5,496.46C494.607,496.446 492.543,496.939 492.17,494.554C492.049,493.773 492.085,444.34 492.124,438.495C492.167,432.115 491.898,430.53 493.589,429.866C493.827,429.772 495.347,429.784 495.5,429.785C501,429.829 500.977,429.842 513.502,429.837Z" style="fill:rgb(251,186,159);"/>
                </g>
                <g transform="matrix(1.209297,0,0,0.813532,8836.089649,5284.960665)">
                    <path d="M503.502,394.927C516.658,395.359 524.448,394.429 525.491,395.51C526.046,396.086 526.201,396.247 526.037,405.502C525.776,420.258 525.961,420.237 525.934,421.518C525.898,423.221 526.036,423.558 524.428,424.098C524.146,424.193 514.962,424.217 512.504,424.209C497.921,424.161 497.832,424.411 497.211,423.925C496.067,423.028 496.426,422.718 496.356,409.5C496.285,396.204 496.222,395.601 497.628,394.998C497.711,394.962 497.7,394.919 503.502,394.927Z" style="fill:rgb(251,186,159);"/>
                </g>
                <g transform="matrix(1.209297,0,0,0.813532,8836.089649,5284.960665)">
                    <path d="M627.917,375.579C627.42,377.775 626.431,385.193 614.549,395.555C613.947,396.08 606.691,401.709 602.434,404.396C596.167,408.352 590.38,411.179 576.45,414.262C565.097,416.775 541.048,417.406 540.548,417.332C538.995,417.103 539.171,415.59 540.337,415.246C542.536,414.597 547.958,415.285 559.525,412.601C575.363,408.924 576.625,408.9 589.607,403.762C590.443,403.431 595.474,401.439 599.665,398.758C613.815,389.705 622.589,373.524 614.647,356.437C614.185,355.443 612.987,353.615 612.992,353.446C613.03,352.306 614.361,352.446 614.504,352.461C615.362,352.55 623.148,358.062 625.469,362.518C628.752,368.82 628.517,371.449 627.917,375.579Z" style="fill:rgb(251,186,159);"/>
                </g>
                <g transform="matrix(1.209297,0,0,0.813532,8836.089649,5284.960665)">
                    <path d="M463.425,412.84C480.921,416.059 483.078,413.898 482.693,416.567C482.527,417.724 480.946,417.582 463.502,416.46C447.384,415.424 440.288,412.972 434.572,411.281C423.819,408.101 415.132,401.737 405.894,394.032C403.593,392.113 398.992,386.471 397.748,384.351C392.439,375.303 391.854,367.567 399.504,358.504C400.125,357.769 403.491,355.013 403.732,354.853C404.026,354.658 407.095,352.626 407.513,352.576C407.692,352.555 409.349,352.359 408.619,354.542C408.539,354.782 408.372,354.677 407.057,357.288C403.673,364.005 403.311,375.92 408.182,383.68C410.935,388.065 413.251,393.673 426.31,400.852C433.344,404.719 433.589,404.144 441.618,407.208C446.565,409.096 461.068,412.234 463.425,412.84Z" style="fill:rgb(251,186,159);"/>
                </g>
                <g transform="matrix(1.209297,0,0,0.813532,8836.089649,5284.960665)">
                    <path d="M546.513,366.509C547.727,364.88 547.705,364.872 547.811,364.732C549.337,362.724 549.211,362.663 550.698,360.64C558.995,349.349 566.754,342.537 570.431,340.388C579.112,335.317 585.526,335.686 590.435,337.658C596.34,340.031 605.557,346.493 605.564,347.507C605.576,349.197 602.763,347.684 598.516,347.312C591.935,346.736 581.872,341.845 560.774,361.788C548.216,373.658 542.29,382.161 535.236,392.306C533.753,394.439 534.303,394.782 532.602,396.741C532.498,396.861 532.502,397.157 532.342,397.144C531.965,397.113 531.546,396.945 531.328,396.636C529.616,394.219 541.754,373.22 546.513,366.509Z" style="fill:rgb(251,186,159);"/>
                </g>
                <g transform="matrix(1.209297,0,0,0.813532,8836.089649,5284.960665)">
                    <path d="M491.319,396.421C490.654,396.395 490.211,397.286 489.306,395.724C487.473,392.56 487.452,392.594 485.404,389.567C483.459,386.692 483.253,386.866 481.603,384.43C478.41,379.718 476.138,377.571 474.999,376.091C466.189,364.645 455.608,356.184 454.54,355.449C450.137,352.415 441.091,344.798 429.503,346.52C422.158,347.612 422.132,347.368 421.499,347.494C418.083,348.176 420.994,342.343 428.621,338.749C439.118,333.803 445.941,337.292 450.427,339.64C458.711,343.978 467.545,355.666 468.814,357.259C480.995,372.543 485.978,384.233 488.737,389.384C492.053,395.572 491.286,396.058 491.319,396.421Z" style="fill:rgb(251,186,159);"/>
                </g>
                <g transform="matrix(1.209297,0,0,0.813532,8836.089649,5284.960665)">
                    <path d="M476.813,390.218C476.664,390.05 475.319,388.534 474.98,388.094C474.356,387.283 471.723,383.862 466.455,378.545C465.181,377.26 465.314,377.173 464.11,375.843C462.685,374.266 455.684,367.739 454.94,367.046C447.942,360.521 448.159,360.271 440.346,354.725C435.192,351.066 432.98,351.652 432.893,350.262C432.873,349.939 433.207,349.668 433.473,349.482C434.943,348.458 442.187,351.312 446.694,354.18C448.422,355.279 457.076,360.785 466.161,370.791C471.484,376.654 480.915,389.445 482.395,391.57C486.188,397.017 486.258,396.965 486.575,397.448C488.506,400.394 490.274,401.932 491.079,403.635C491.887,405.347 491.221,406.314 489.571,405.381C489.458,405.317 484.664,399.252 484.241,398.717C482.419,396.412 480.546,394.601 480.48,394.519C478.691,392.328 478.701,392.343 476.813,390.218Z" style="fill:rgb(251,186,159);"/>
                </g>
                <g transform="matrix(1.209297,0,0,0.813532,8836.089649,5284.960665)">
                    <path d="M546.262,389.286C545.328,390.357 540.763,395.596 534.838,402.885C534.82,402.907 532.95,406.282 531.672,405.264C529.899,403.852 535.234,399.249 539.456,392.472C539.82,391.887 539.878,391.936 544.434,385.453C545.336,384.169 547.98,380.754 548.294,380.349C559.735,365.575 571.422,356.499 577.443,353.388C579.137,352.512 587.957,346.585 588.795,349.236C589.051,350.049 586.936,351.194 582.061,354.725C573.465,360.951 573.042,361.846 564.913,368.951C564.061,369.695 564.111,369.742 555.187,379.211C550.561,384.119 550.901,384.405 546.262,389.286Z" style="fill:rgb(251,186,159);"/>
                </g>
            </g>
        </g>
    </g>
</svg>
