<?xml version="1.0" encoding="UTF-8" standalone="no"?>
<!DOCTYPE svg PUBLIC "-//W3C//DTD SVG 1.1//EN" "http://www.w3.org/Graphics/SVG/1.1/DTD/svg11.dtd">
<svg width="100%" height="100%" viewBox="0 0 441 486" version="1.1" xmlns="http://www.w3.org/2000/svg" xmlns:xlink="http://www.w3.org/1999/xlink" xml:space="preserve" xmlns:serif="http://www.serif.com/" style="fill-rule:evenodd;clip-rule:evenodd;stroke-linejoin:round;stroke-miterlimit:2;">
    <g transform="matrix(1,0,0,1,-12289.193851,-6462.323568)">
        <g transform="matrix(1.276754,0,0,1.897866,-2116.350918,-3543.870901)">
            <g transform="matrix(0.429724,0,0,0.289088,11194.458916,5227.172109)">
                <g id="Fondo" transform="matrix(1.171875,0,0,1.171875,0,0)">
                    <path d="M803.093,255.437C802.544,259.148 800.926,273.571 790.716,291.622C788.852,294.916 787.232,294.882 775.557,292.255C773.862,291.874 763.145,288.673 751.416,283.703C739.207,278.53 739.638,276.845 738.481,277.381C736.883,278.121 737.716,278.74 739.126,279.801C740.127,280.555 740.135,280.532 743.842,283.062C747.398,285.489 747.275,285.628 750.58,288.402C755.658,292.664 767.459,304.996 767.729,305.284C774.604,312.598 786.64,326.895 788.099,328.819C791.49,333.29 793.234,335.149 796.412,339.564C800.158,344.771 802.416,347.653 807.371,355.58C809.283,358.638 809.357,358.569 812.333,363.601C815.184,368.418 815.306,368.331 817.98,373.237C818.529,374.246 818.665,374.146 825.024,385.744C829.054,393.094 838.847,414.768 840.713,420.424C842.614,426.184 843.479,427.207 846.555,437.483C853.783,461.634 853.62,463.972 856.851,480.438C858.35,488.074 860.882,513.332 861.268,526.508C861.815,545.155 861.632,549.32 859.187,582.473C857.746,602.023 852.817,621.53 851.243,628.439C850.444,631.948 842.86,660.289 831.001,686.284C826.891,695.292 826.769,695.206 824.997,698.754C822.49,703.775 822.667,703.854 819.831,708.696C819.506,709.252 819.582,709.291 815.99,715.761C813.13,720.91 810.967,724.119 809.578,726.55C806.856,731.313 792.594,752.576 777.115,770.161C770.732,777.412 770.644,777.302 764.461,783.46C762.196,785.716 762.262,785.758 759.948,787.949C759.674,788.208 755.943,792.217 755.596,792.589C753.419,794.928 754.255,795.735 758.378,803.562C763.746,813.753 771.452,829.451 774.279,834.622C776.327,838.369 776.094,838.915 780.227,846.634C780.632,847.389 785.915,859.636 786.154,864.524C786.179,865.032 787.115,870.396 781.624,877.591C771.038,891.461 756.542,888.511 752.328,885.789C747.012,882.354 736.48,871.106 719.583,854.417C715.225,850.108 710.866,845.8 706.508,841.492C704.868,839.873 704.016,839.221 701.892,837.078C699.419,834.585 698.811,836.318 689.429,841.368C683.903,844.342 683.962,844.404 678.425,847.362C661.637,856.331 652.718,859.491 651.682,859.932C643.138,863.568 618.157,873.295 601.54,877.648C592.61,879.988 592.652,880.081 583.585,881.931C575.894,883.499 552.282,888.654 517.507,888.056C515.551,888.022 487.636,886.354 477.466,884.698C453.251,880.756 453.37,880.198 429.532,874.372C423.328,872.856 423.456,872.463 412.56,869.306C411.491,868.996 394.322,863.281 391.611,862.209C377.797,856.746 365.646,851.824 343.605,840.291C341.45,839.163 339.183,837.71 338.559,837.392C335.443,835.804 334.929,834.987 332.406,837.403C331.975,837.816 330.199,839.108 317.623,851.624C284.801,884.289 284.415,886.211 277.522,887.604C273.052,888.507 265.653,887.919 260.695,884.232C244.03,871.837 249.584,860.294 253.407,851.46C255.027,847.717 258.256,840.255 275.9,805.709C280.998,795.727 281.435,795.739 281.067,794.618C280.414,792.627 271.983,784.922 264.92,777.109C254.489,765.571 250.705,761.167 242.279,750.674C234.385,740.844 222.265,722.898 217.862,714.306C214.719,708.175 214.397,708.364 211.895,703.305C208.809,697.063 208.692,697.142 206,690.71C204.291,686.626 201.461,681.614 196.055,666.645C190.492,651.239 188.471,642.827 184.128,623.582C182.429,616.054 178.97,597.893 178.203,590.535C175.888,568.326 175.36,555.252 175.926,527.511C176.074,520.259 178.129,495.672 181.371,479.476C181.521,478.727 185.926,453.074 196.462,426.486C207.236,399.301 210.915,392.205 219.056,377.271C219.736,376.023 225.923,365.225 227.736,362.656C231.022,358 236.041,346.383 254.135,325.19C264.173,313.432 275.685,301.245 275.972,300.987C278.037,299.137 278.011,299.12 285.761,291.775C289.389,288.336 289.251,288.204 293.143,285.068C294.035,284.349 297.554,280.718 302.624,277.628C303.574,277.049 303.518,276.983 304.545,276.554C304.769,276.461 306.781,275.621 306.724,274.432C306.711,274.176 306.62,273.045 303.525,274.59C298.38,277.158 297.577,278.502 277.475,286.433C267.518,290.362 258.28,292.448 256.574,292.834C243.7,295.741 242.699,293.412 241.897,292.245C241.514,291.689 241.607,291.642 238.063,284.724C238.016,284.633 231.174,270.729 229.707,254.48C228.813,244.572 228.817,241.457 230.303,229.47C231.331,221.182 235.897,204.779 244.009,192.184C246.65,188.083 249.56,182.242 260.061,171.099C262.907,168.08 262.791,167.982 267.703,163.741C269.91,161.836 278.354,154.14 291.603,147.713C304.497,141.458 328.409,131.902 361.507,138.464C364.675,139.093 377.298,142.449 384.267,145.979C389.342,148.55 393.427,150.017 403.563,157.417C409.834,161.997 415.38,167.692 416.329,168.667C417.123,169.482 421.819,174.304 425.7,179.357C426.873,180.883 429.556,185.549 429.115,187.434C428.897,188.368 428.609,189.598 422.172,197.216C418.68,201.347 412.152,207.374 411.24,208.216C402.355,216.418 398.661,218.691 397.45,219.437C396.671,219.916 394.739,221.43 392.523,222.529C391.288,223.141 388.85,224.752 388.849,224.753C388.742,224.973 388.909,225.241 388.905,225.485C388.902,225.665 388.711,225.883 388.829,226.019C389.866,227.22 397.614,221.657 408.606,217.801C416.776,214.934 417.629,214.054 440.551,208.747C442.077,208.394 470.969,202.753 482.513,201.651C501.806,199.811 502.446,200.869 503.185,199.344C503.637,198.41 503.539,179.171 503.372,178.537C502.916,176.809 501.507,177.212 491.501,177.15C482.462,177.094 479.421,177.819 475.329,172.624C473.286,170.03 473.481,169.727 473.609,147.5C473.617,146.076 472.604,138.746 478.769,134.937C482.434,132.672 484.809,133.55 519.499,133.398C556.432,133.236 556.567,133.215 559.452,134.595C561.078,135.373 565.077,138.668 565.547,143.496C565.637,144.414 565.764,165.524 565.539,167.503C565.186,170.615 562.618,176.698 555.476,177.158C550.759,177.462 534.431,176.744 533.496,177.494C532.585,178.226 532.598,178.839 532.589,186.5C532.588,187.458 532.576,197.88 532.673,198.468C532.929,200.008 534.347,200.146 534.548,200.166C537.716,200.474 542.12,200.245 553.499,201.507C554.001,201.563 557.68,201.503 579.537,205.277C594.962,207.94 597.608,208.919 616.432,213.738C617.412,213.989 617.824,214.095 628.471,217.591C631.963,218.738 638.013,221.693 638.5,221.5C639.85,220.965 639.698,220.259 638.42,219.573C633.075,216.705 629.424,214.196 625.422,210.587C614.69,200.909 608.932,193.96 607.633,192.392C604.317,188.39 604.254,188.033 604.173,187.564C604.055,186.884 603.913,186.069 607.925,179.796C608.646,178.668 616.259,169.732 618.992,166.998C621.012,164.977 625.717,160.812 626.312,160.285C631.378,155.799 639.174,150.965 640.348,150.238C642.321,149.014 652.686,143.845 657.436,142.313C663.913,140.223 676.637,135.299 698.513,136.111C701.835,136.235 712.565,137.197 720.492,139.529C734.695,143.706 734.651,144.068 742.743,148.003C747.667,150.398 748.128,150.33 759.567,158.405C766.965,163.627 771.875,169.089 772.923,170.045C776.311,173.135 776.035,173.381 779.701,177.312C781.89,179.659 787.194,187.214 788.104,188.746C791.623,194.672 800.502,208.071 803.389,231.513C803.91,235.745 804.042,241.537 804.023,244.492C803.999,248.353 803.205,254.565 803.093,255.437Z" style="fill:rgb(38,36,31);"/>
                    <path d="M850.199,481.548C851.744,490.09 855.9,521.766 855.253,547.495C855.085,554.181 855.524,563.248 851.084,595.441C850.43,600.182 848.602,608.53 846.129,621.427C844.788,628.427 840.38,644.158 837.569,651.526C837.362,652.069 827.748,681.137 814.129,705.288C810.558,711.62 810.679,711.664 807.21,717.329C805.547,720.046 805.694,720.122 803.947,722.789C799.944,728.901 790.424,744.232 775.831,761.771C774.1,763.851 774.004,763.742 769.74,768.705C768.891,769.694 768.825,769.613 758.649,780.637C755.837,783.685 746.217,792.701 745.431,793.428C744.348,794.429 738.053,800.252 731.58,805.601C725.56,810.576 725.449,810.404 719.212,815.127C716.597,817.107 700.247,828.451 687.718,834.906C683.053,837.309 682.563,837.987 679.449,839.39C674.016,841.836 669.488,844.321 668.641,844.786C665.937,846.27 663.327,847.099 659.676,848.855C653.208,851.966 653.103,851.677 646.472,854.431C639.007,857.531 639.036,857.548 631.393,860.2C626.008,862.068 626.113,862.337 620.64,863.964C609.104,867.395 609.285,867.937 597.622,870.981C590.095,872.945 590.153,873.113 582.542,874.703C577.046,875.852 558.069,879.061 546.535,879.877C537.697,880.502 525.965,882.204 499.487,880.721C483.119,879.804 456.123,875.122 446.475,872.598C442.769,871.628 426.026,868.069 409.464,862.617C398.416,858.98 372.964,848.069 363.724,843.048C359.301,840.645 355.586,839.075 352.64,837.263C350.778,836.117 343.587,832.23 340.676,830.223C340.598,830.169 329.363,823.423 324.302,819.783C318.473,815.592 318.461,815.633 313.756,812.144C311.245,810.282 310.592,809.959 303.234,803.822C303.141,803.745 292.883,795.585 279.531,782.467C266.55,769.713 253.582,753.609 251.471,750.522C250.984,749.809 250.805,749.944 245.018,741.865C244.86,741.644 244.748,741.763 242.904,739.206C242.424,738.541 242.537,738.476 237.16,730.724C234.94,727.524 235.178,727.379 232.836,724.259C231.865,722.966 225.61,712.109 225.299,711.614C224.429,710.23 213.969,691.221 211.348,684.566C210.867,683.345 208.482,678.554 207.384,675.545C204.398,667.362 203.55,667.169 200.043,655.65C199.464,653.749 188.374,624.942 183.753,577.476C179.826,537.148 184.575,502.389 186.615,492.522C186.651,492.347 188.278,482.098 190.355,472.468C191.675,466.346 196.516,446.589 198.389,441.46C199.796,437.606 200.651,432.822 203.442,426.475C204.945,423.056 206.923,416.973 210.211,410.359C211.175,408.42 212.255,405.256 215.271,399.384C217.621,394.807 226.201,376.961 241.198,354.289C242.152,352.847 248.756,342.862 253.669,336.628C258.428,330.588 258.333,330.523 261.71,326.692C264.514,323.511 264.346,323.386 267.222,320.254C271.779,315.289 271.56,315.108 276.337,310.339C277.328,309.35 277.526,308.77 281.724,304.729C283.187,303.321 287.033,299.21 293.093,294.04C293.477,293.712 293.373,293.602 297.79,289.825C298.739,289.014 298.783,289.07 309.811,279.87C314.978,275.558 329.481,264.65 339.581,258.636C344.022,255.992 343.867,255.766 348.4,253.319C348.698,253.158 371.159,239.132 401.598,227.753C407.081,225.703 407.033,225.619 412.609,223.843C423.96,220.226 423.876,219.987 436.586,216.862C458.266,211.531 465.519,211.422 476.473,209.35C476.846,209.28 485.207,208.175 487.547,207.927C518.786,204.62 545.524,207.578 550.533,208.132C556.495,208.792 556.506,208.61 561.485,209.583C564.309,210.134 582.623,212.009 604.426,217.798C605.932,218.198 626.263,222.724 647.494,231.515C649.571,232.375 649.611,232.23 651.64,233.189C658.915,236.628 660.68,236.58 682.605,248.302C683.238,248.64 689.048,251.995 689.608,252.318C693.533,254.583 693.776,254.551 695.387,255.671C699.852,258.772 700.141,258.32 706.792,263.081C706.98,263.215 709.104,264.394 713.386,267.659C716.037,269.68 716.84,269.69 723.26,274.8C726.509,277.386 726.638,277.193 729.389,279.625C730.581,280.679 735.13,284.081 737.101,285.93C741.668,290.212 746.245,293.919 749.169,296.836C752.167,299.825 752.23,299.742 755.208,302.77C761.421,309.088 761.422,309.069 767.4,315.592C777.325,326.422 776.798,326.866 778.906,329.152C782.26,332.789 781.991,332.999 785.191,336.759C787.867,339.903 798.322,354.862 798.7,355.361C798.947,355.687 806.448,367.138 806.612,367.431C806.997,368.118 813.41,378.192 819.342,389.584C820.585,391.97 820.614,391.934 821.849,394.333C824.577,399.634 824.444,399.682 828.847,409.345C829.5,410.778 829.705,411.783 831.796,416.366C833.439,419.967 838.998,434.522 842.72,448.436C845.043,457.119 845.132,457.077 847.729,469.449C848.355,472.431 848.447,472.398 848.987,475.408C849.119,476.144 849.692,478.571 850.199,481.548Z" style="fill:rgb(252,177,36);"/>
                    <path d="M802.906,554.518C802.352,565.417 801.436,575.466 799.201,590.448C799.13,590.925 795.785,610.306 790.718,626.565C788.894,632.42 788.492,635.178 784.659,645.555C781.855,653.148 782.107,653.237 778.733,660.603C778.49,661.134 775.499,668.492 773.755,671.629C773.305,672.438 772.001,675.563 769.807,679.651C762.487,693.288 757.999,700.72 746.981,715.846C745.076,718.461 738.419,726.954 736.339,729.364C730.776,735.81 730.852,735.855 724.91,741.925C722.917,743.961 723.058,744.063 721.073,746.091C719.058,748.148 706.988,759.826 698.463,766.452C695.61,768.67 695.736,768.809 692.815,770.919C692.172,771.384 688.189,774.55 687.789,774.868C684.892,777.171 670.791,786.787 661.718,791.887C661.603,791.952 658.075,794.107 654.296,796.111C633.083,807.362 622.939,810.874 608.404,816.235C607.571,816.543 592.855,821.234 586.539,822.666C563.275,827.938 540.182,832.183 506.514,830.259C504.045,830.118 490.594,829.912 462.572,824.135C448.919,821.321 448.969,821.163 435.599,817.168C434.708,816.901 417.999,811.419 411.449,808.619C402.259,804.689 402.144,804.963 382.734,795.052C378.41,792.844 362.867,783.539 358.637,780.309C353.734,776.566 349.773,774.936 333.708,761.249C288.652,722.863 268.846,682.022 264.769,674.363C263.26,671.528 263.452,671.451 261.801,668.352C261.347,667.502 254.555,652.27 252.138,644.62C249.342,635.773 249.04,635.869 246.023,623.613C243.084,611.672 243.047,611.693 241.077,599.57C240.938,598.709 237.572,580.034 236.841,561.484C235.602,530.025 237.831,511.846 241.297,490.466C243.235,478.51 248.219,460.34 250.444,454.48C252.806,448.259 252.053,447.991 258.539,432.517C261.564,425.299 261.771,425.415 265.009,418.28C267.979,411.736 268.302,411.916 271.404,405.449C272.134,403.929 275.443,398.285 275.805,397.668C275.979,397.371 277.263,394.79 280.704,389.632C282.873,386.379 282.782,386.348 285.016,383.135C290.692,374.97 290.487,374.837 298.112,365.183C307.354,353.48 308.775,352.826 311.026,350.097C311.568,349.44 313.024,347.674 318.277,342.285C320.267,340.242 320.36,340.366 322.35,338.353C324.846,335.828 324.898,335.902 327.551,333.558C327.775,333.361 342.569,319.24 362.348,306.265C373.583,298.895 373.728,299.151 378.338,296.219C380.108,295.094 385.079,292.654 387.34,291.216C390.49,289.213 406.976,281.481 408.615,280.767C411.698,279.424 411.614,279.27 414.713,277.983C415.449,277.678 426.369,273.578 427.383,273.197C427.54,273.138 446.928,266.706 454.441,265.215C461.775,263.76 461.703,263.53 469.418,262.045C470.933,261.754 478.528,259.64 499.531,257.891C520.299,256.161 533.743,257.447 551.519,259.333C560.427,260.278 582.752,265.122 585.451,265.708C590.776,266.864 606.608,271.511 613.572,274.31C628.05,280.128 628.469,279.225 656.258,293.951C659.44,295.637 669.963,301.944 672.395,303.662C675.191,305.637 698.153,320.314 718.367,340.633C737.015,359.378 741.64,366.196 744.558,369.448C747.082,372.261 748.383,374.562 750.631,377.401C750.88,377.714 758.685,388.939 759.182,389.707C770.385,407.002 772.928,413.023 780.182,427.644C780.709,428.707 780.621,428.738 785.874,441.345C790.227,451.793 797.705,477.111 800.106,495.548C803.525,521.801 803.341,535.131 803.026,552.484C803,553.887 802.944,553.874 802.906,554.518Z" style="fill:rgb(38,36,31);"/>
                    <path d="M243.917,531.52C244.493,521.486 244.428,521.493 245.508,511.501C248.457,484.212 255.282,462.276 255.556,461.519C257.877,455.107 261.044,443.576 270.747,422.614C279.783,403.092 294.186,380.653 308.971,362.901C313.953,356.919 314.113,357.065 314.543,356.542C315.368,355.537 316.156,354.579 325.899,344.908C328.595,342.233 330.769,340.447 332.669,338.689C339.195,332.651 339.141,332.608 347.682,325.74C361.292,314.797 367.569,311.229 369.671,309.76C373.792,306.88 375.964,306.033 380.737,302.872C381.984,302.046 395.253,294.734 395.549,294.596C397.123,293.861 404.62,289.937 408.399,288.272C432.171,277.797 445.984,274.973 450.531,273.599C464.532,269.368 487.053,266.128 490.53,265.829C510.055,264.152 514.591,263.396 539.526,265.164C554.25,266.208 579.57,271.479 585.606,273.118C603.018,277.847 620.776,282.841 648.436,297.623C656.439,301.9 656.293,302.121 661.241,304.946C666.418,307.901 673.275,312.749 673.778,313.071C678.914,316.353 693.372,326.795 705.701,338.286C708.016,340.444 722.57,354.01 733.018,366.901C738.444,373.596 738.366,373.647 738.846,374.221C744.499,380.993 746.806,384.838 748.68,387.37C751.292,390.9 754.422,395.97 754.695,396.37C758.221,401.539 758.024,401.647 759.719,404.375C764.216,411.61 763.977,411.724 767.847,419.325C775.9,435.14 778.446,442.7 779.663,445.427C782.827,452.52 787.076,468.336 788.06,472.601C794.576,500.823 794.925,515.289 795.713,530.491C796.224,540.347 795.322,557.165 795.197,559.481C793.733,586.771 786.666,614.929 785.601,618.531C781.695,631.749 780.889,635.889 774.955,650.677C770.558,661.635 767.017,668.834 766.256,670.38C762.907,677.188 762.709,677.063 759.368,683.427C755.96,689.919 754.838,691.013 753.881,692.723C753.11,694.099 751.124,697.647 743.008,709.161C740.127,713.249 739.984,713.116 737.033,717.151C735.284,719.543 723.887,732.516 722.22,734.232C721.669,734.8 717.47,739.125 715.259,741.258C693.191,762.548 678.529,774.814 646.296,792.137C639.309,795.891 626.064,802.039 619.536,804.595C603.307,810.949 593.773,813.316 590.455,814.363C579.221,817.907 556.193,822.063 541.468,823.132C500.769,826.086 473.266,818.761 462.451,816.749C458.162,815.951 452.59,814.239 450.436,813.744C437.803,810.843 422.491,805.359 418.418,803.704C417.386,803.285 409.629,800.133 405.6,798.261C375.824,784.419 360.806,773.112 357.391,770.66C345.874,762.391 341.551,758.526 337.695,755.261C336.055,753.873 328.303,747.31 318.181,736.793C307.742,725.947 300.882,716.921 298.785,714.288C298.532,713.971 294.797,709.474 287.742,699.337C287.351,698.775 283.901,693.818 282.982,692.219C271.165,671.668 271.079,670.622 269.962,668.267C269.55,667.397 266.019,659.954 264.963,657.317C260.848,647.036 260.514,647.173 257.178,636.604C253.824,625.977 253.866,625.978 250.206,609.568C246.961,595.019 244.984,573.062 244.862,571.467C243.459,553.255 243.32,550.956 243.917,531.52Z" style="fill:rgb(254,254,254);"/>
                    <path d="M530.098,485.515C530.37,494.008 530.595,493.979 530.815,502.486C530.908,506.041 530.387,506.528 531.404,506.687C532.872,506.917 532.561,506.097 535.886,502.885C536.119,502.659 557.449,480.97 583.819,454.829C587.845,450.839 587.847,450.873 591.786,446.78C597.734,440.599 599.606,439.754 600.436,439.38C616.138,432.294 626.274,448.412 618.877,460.717C616.677,464.379 614.903,465.415 609.919,470.886C609.529,471.314 607.505,473.964 599.763,481.756C597.936,483.594 596.612,485.413 589.131,493.125C588.185,494.101 588.202,494.106 577.459,505.461C568.224,515.222 568.272,515.25 558.97,524.96C558.264,525.697 558.321,525.718 550.279,534.297C547.91,536.825 547.967,537.067 548.294,540.519C550.074,559.306 534.552,573.216 519.526,573.936C503.48,574.706 500.151,566.383 495.51,566.183C493.842,566.111 474.878,568.106 463.526,569.692C447.541,571.927 447.534,571.685 431.492,573.425C408.487,575.921 408.559,576.412 385.544,578.875C374.472,580.059 352.84,583.036 349.479,582.803C344.254,582.441 337.513,577.994 336.548,570.494C335.695,563.864 341.369,556.36 347.583,554.838C347.643,554.824 373.669,550.458 375.449,550.187C390.193,547.942 390.177,547.952 393.475,547.351C405.292,545.194 463.203,536.658 475.485,534.415C478.586,533.849 483.731,533.183 484.45,533.09C486.593,532.813 488.347,532.936 489.485,530.493C495.156,518.316 499.218,520.712 499.752,516.525C499.796,516.179 499.16,498.577 498.839,478.492C498.183,437.542 497.477,437.398 498.842,433.614C502.569,423.287 515.845,418.527 524.571,428.44C528.481,432.88 528.009,435.513 528.571,448.497C529.177,462.493 529.065,462.475 529.724,476.491C529.858,479.343 529.986,483.605 530.098,485.515Z" style="fill:rgb(38,36,31);"/>
                    <path d="M797.068,255.434C794.707,267.788 794.261,270.515 788.681,282.588C787.319,285.534 787.676,286.095 786.462,286.133C785.375,286.168 785.045,285.232 784.464,284.531C782.37,282 774.935,275.036 766.565,269.401C765.859,268.925 763.163,266.948 761.299,265.834C755.404,262.309 752.986,260.406 749.446,258.594C748.57,258.146 745.787,256.405 745.625,256.296C744.267,255.391 725.987,245.258 725.303,244.812C721.942,242.616 696.52,228.557 694.612,227.315C692.434,225.898 687.773,223.68 685.627,222.289C681.078,219.339 657.447,206.486 651.72,203.119C649.678,201.918 638.734,196.155 637.471,195.556C630.888,192.433 629.927,191.203 620.617,188.136C620.038,187.945 614.452,186.105 613.42,185.622C611.829,184.88 612.936,183.415 613.051,183.262C616.099,179.229 615.973,179.14 619.4,175.414C627.469,166.641 628.46,166.534 633.437,162.42C636.357,160.007 644.564,154.979 644.719,154.897C656.926,148.448 661.942,147.341 666.352,146.005C687.85,139.492 709.739,142.674 720.384,145.905C731.098,149.156 739.927,152.06 754.558,162.422C768.482,172.283 774.913,180.877 779.85,187.243C779.96,187.385 788.916,199.471 792.972,212.352C798.883,231.124 798.102,241.216 798.073,244.497C798.072,244.633 798.364,245.742 797.068,255.434Z" style="fill:rgb(252,177,36);"/>
                    <path d="M256.869,278.386C253.997,280.735 248.798,285.306 248.088,286.111C246.881,287.48 245.866,286.436 245.734,286.3C244.73,285.268 239.337,272.944 237.707,265.452C233.983,248.336 235.012,238.041 237.163,225.437C237.911,221.057 241.904,209.874 242.869,207.657C245.642,201.278 245.767,201.354 249.235,195.315C251.761,191.912 251.339,191.645 256.552,184.538C257.222,183.624 259.972,179.875 265.835,173.832C270.504,169.02 270.581,169.122 275.771,164.859C276.894,163.937 282.291,160.114 283.459,159.437C285.445,158.287 289.281,155.701 291.571,154.636C297.475,151.89 297.342,151.626 303.421,149.285C305.2,148.6 316.669,144.184 326.472,143.244C337.627,142.173 341.849,142.01 353.523,143.308C362.405,144.295 377.228,149.407 380.688,151.119C388.102,154.787 388.227,154.55 395.198,158.995C395.657,159.287 404.868,165.452 412.155,172.824C412.28,172.951 419.851,181.664 420.005,181.886C421.503,184.029 422.088,185.036 420.838,185.905C418.195,187.74 416.132,185.764 392.677,197.854C381.308,203.713 381.52,204.056 380.528,204.552C372.927,208.356 372.868,208.666 372.234,209.037C370.204,210.224 366.715,212.021 365.61,212.685C362.144,214.767 362.134,214.715 358.662,216.785C355.557,218.637 355.409,218.338 352.334,220.216C348.777,222.388 344.082,224.755 340.334,227.234C338.506,228.443 324.627,236.08 324.35,236.25C316.913,240.824 290.072,255.616 286.689,257.809C283.87,259.636 276.309,264.021 272.253,266.955C264.276,272.724 260.734,275.226 256.869,278.386Z" style="fill:rgb(252,177,36);"/>
                    <path d="M532.932,523.643C532.932,523.643 538.129,526.939 540.412,533.121C542.202,537.969 542.193,538.173 542.304,545.495C542.317,546.356 542.357,549.002 538.675,555.62C538.454,556.018 537.049,558.543 535.107,560.06C532.066,562.433 532.323,563.664 525.402,566.244C524.435,566.604 519.874,568.305 512.548,567.227C511.737,567.108 508.804,566.677 503.31,562.788C501.109,561.23 500.818,559.973 497.455,559.898C490.216,559.737 490.295,560.609 476.538,561.866C475.57,561.954 475.584,562.04 464.469,563.239C456.741,564.072 441.891,566.215 435.526,566.771C427.332,567.487 410.592,569.811 407.466,570.113C405.706,570.283 397.137,571.11 385.513,572.621C378.554,573.525 378.562,573.449 371.545,573.935C369.153,574.101 369.241,574.559 364.461,575.169C351.164,576.867 349.794,576.578 348.545,576.314C348.213,576.244 346.299,575.84 344.954,574.079C344.621,573.643 342.716,571.15 343.14,567.471C343.411,565.125 346.05,561.313 350.495,560.477C353.014,560.002 353.041,560.256 355.554,559.709C356.336,559.538 356.363,559.75 365.429,558.073C376.314,556.06 379.142,556.304 385.58,554.874C390.49,553.784 407.136,551.527 415.424,550.062C423.939,548.556 423.97,548.856 432.504,547.528C434.845,547.164 435.355,547.13 436.579,546.732C439.91,545.647 447.735,545.732 449.446,545.163C449.824,545.037 450.155,544.795 450.528,544.655C452.622,543.869 462.156,543.189 474.558,540.83C484.456,538.948 491.718,539.127 493.322,537.323C494.253,536.276 494.255,534.944 495.732,532.633C497.279,530.214 498.174,527.419 502.377,524.32C503.448,523.529 503.569,523.733 504.73,522.815C506.117,521.718 510.869,519.452 513.463,519.2C520.575,518.508 524.264,519.342 525.094,519.628C530.553,521.51 532.932,523.643 532.932,523.643Z" style="fill:rgb(163,47,42);"/>
                    <path d="M756.513,814.493C759.56,820.343 759.918,821.739 763.213,827.663C763.923,828.939 768.8,838.649 769.281,839.607C780.32,861.588 779.687,861.855 779.786,862.442C779.937,863.33 781.382,866.43 777.2,873.297C776.565,874.339 771.81,879.624 767.63,880.914C760.116,883.232 756.422,880.834 755.614,880.31C752.568,878.333 743.297,869.02 729.098,854.911C728.335,854.153 728.284,854.228 719.499,845.501C717.237,843.253 717.398,843.116 715.073,840.947C711.281,837.409 709.357,835.246 708.08,833.966C707.213,833.097 705.298,831.963 708.696,829.833C709.434,829.37 722.954,820.351 735.395,810.358C738.709,807.696 738.699,807.72 741.886,804.904C743.497,803.48 743.646,803.688 745.234,802.21C747.56,800.046 748.59,798.926 750.019,801.768C751.183,804.082 750.96,804.173 756.513,814.493Z" style="fill:rgb(74,92,104);"/>
                    <path d="M326.306,829.847C326.46,829.923 328.169,830.761 328.217,830.812C329.394,832.05 326.972,834.21 325.614,835.62C324.751,836.516 322.786,838.556 314.604,846.604C310.986,850.162 311.106,850.268 310.171,851.172C308.396,852.887 308.239,852.714 305.602,855.593C305.415,855.797 305.413,855.792 292.577,868.575C289.274,871.864 289.013,871.768 286.5,874.5C286.153,874.876 286.088,874.798 281.656,878.682C280.435,879.752 278.554,881.902 272.495,881.755C266.536,881.61 263.251,878.51 260.398,875.593C258.631,873.787 258.863,873.624 257.315,871.623C255,868.633 255.206,863.337 256.255,860.414C258.036,855.453 259.454,853.142 266.317,839.412C267.323,837.4 267.458,837.483 268.384,835.445C269.492,833.01 275.21,821.665 275.774,820.651C276.821,818.766 283.341,806.098 283.593,805.541C283.786,805.115 285.777,800.719 286.48,800.467C287.927,799.948 287.95,800.492 293.253,804.771C293.368,804.864 304.043,813.659 308.705,817.198C310.991,818.933 316.557,823.479 320.749,826.142C323.584,827.942 323.531,827.987 326.306,829.847Z" style="fill:rgb(74,92,104);"/>
                    <path d="M302.099,638.5C302.15,637.474 302.468,631.091 306.362,626.388C316.925,613.632 333.112,618.37 337.71,621.126C350.185,628.604 349.605,643.43 343.332,649.326C342.236,650.357 341.508,650.213 342.005,651.631C342.358,652.636 342.86,652.251 345.636,655.382C349.655,659.914 350.1,664.649 350.183,665.535C351.705,681.741 337.244,689.431 327.467,690.08C311.05,691.171 301.477,681.692 299.807,672.438C297.356,658.851 307.207,652.734 307.399,652.426C309.26,649.443 302.837,649.984 302.099,638.5Z" style="fill:rgb(38,36,31);"/>
                    <path d="M326.129,447.61C326.086,447.459 324.49,443.262 324.291,436.511C323.801,419.813 326.749,414.274 327.058,413.35C327.668,411.525 331.793,399.179 344.563,396.838C357.96,394.381 365.24,403.537 365.342,403.646C371.13,409.803 372.931,420.633 373.229,423.532C375.679,447.349 367.53,457.226 366.057,459.15C363.29,462.762 357.375,465.928 353.538,466.684C345.034,468.361 340.523,465.622 338.47,464.554C328.951,459.605 326.375,448.391 326.129,447.61Z" style="fill:rgb(38,36,31);"/>
                    <path d="M559.418,147.499C558.973,166.291 560.546,167.887 556.447,170.391C554.371,171.659 554.161,171.025 531.503,171.179C529.469,171.193 491.936,171.19 488.496,171.189C488.477,171.189 481.49,171.984 480.17,167.596C479.456,165.227 479.854,162.984 479.757,148.498C479.742,146.343 479.22,143.256 481.832,140.893C483.217,139.64 483.472,139.788 511.5,139.79C514.858,139.79 553.38,139.792 553.472,139.798C555.545,139.926 558.463,141.404 559.211,144.554C559.421,145.44 559.325,145.44 559.418,147.499Z" style="fill:rgb(73,90,102);"/>
                    <path d="M314.196,545.384C312.535,549.661 311.96,552.659 299.345,569.386C293.176,577.566 290.779,579.397 286.513,579.215C281.812,579.014 276.636,574.017 282.28,566.342C287.543,559.186 289.541,558.57 287.803,557.125C287.108,556.547 284.125,557.124 278.432,554.65C266.061,549.273 259.181,530.099 272.06,516.101C282.506,504.748 300.79,505.995 310.191,516.771C317.952,525.666 316.295,536.653 316.028,538.427C315.562,541.514 314.387,544.842 314.196,545.384Z" style="fill:rgb(38,36,31);"/>
                    <path d="M620.498,697.923C647.268,697.982 647.679,697.396 650.4,699.624C654.773,703.205 654.575,712.735 644.501,713.065C642.37,713.134 628.856,712.931 627.496,712.911C627.341,712.908 625.69,712.884 625.567,712.921C623.948,713.417 624.078,713.778 624.056,715.477C623.984,721.109 624.076,721.212 624.401,721.577C626.291,723.706 631.716,718.644 642.513,723.471C643.746,724.022 651.083,727.302 654.267,735.588C656.248,740.743 657.209,751.433 651.051,759.157C649.389,761.242 645.64,765.956 636.493,768.474C635.165,768.84 627.668,770.444 620.462,767.593C600.492,759.692 605.453,741.875 616.582,745.247C620.709,746.498 620.907,751.709 626.491,753.525C628.778,754.268 633.941,754.704 637.27,751.279C642.135,746.274 640.919,737.286 632.466,735.722C624.464,734.242 617.72,745.982 610.155,737.795C606.781,734.144 608.024,732.076 608.439,707.498C608.443,707.27 607.979,700.735 613.518,698.544C615.228,697.868 617.389,698.045 620.498,697.923Z" style="fill:rgb(38,36,31);"/>
                    <path d="M436.855,358.5C436.877,379.721 437.054,379.936 435.385,382.427C431.42,388.346 421.597,386.535 421.509,377.5C421.426,368.929 421.502,351.74 421.512,349.5C421.532,344.869 421.629,344.835 421.437,344.527C420.568,343.123 420.203,343.73 418.577,343.989C414.946,344.57 412.995,342.679 412.368,344.448C412.015,345.444 412.658,378.163 412.031,380.384C409.834,388.165 397.394,388.306 397.163,377.507C397.137,376.285 397.211,344.789 397.175,344.577C396.977,343.388 395.659,343.483 395.5,343.495C394.549,343.564 389.468,345.82 385.774,341.289C384.658,339.919 382.807,334.98 387.743,330.811C389.218,329.565 391.062,329.093 395.796,323.755C398.332,320.897 400.272,315.609 406.498,316.514C415.06,317.759 411.649,328.535 412.56,329.452C414.149,331.051 419.92,324.151 421.161,322.282C421.523,321.739 423.843,315.631 430.487,316.588C433.266,316.988 436.386,319.376 436.819,323.468C436.954,324.743 436.874,324.743 436.86,339.5C436.859,345.833 436.857,352.167 436.855,358.5Z" style="fill:rgb(38,36,31);"/>
                    <path d="M521.442,798.067C514.682,798.581 511.011,798.096 504.434,794.613C501.383,792.997 492.036,785.282 492.696,772.508C493.055,765.561 494.581,762.814 496.456,758.48C498.481,753.8 502.971,747.815 504.048,746.197C504.563,745.423 504.562,745.443 510.947,736.847C512.45,734.823 512.539,734.913 513.984,732.835C516.642,729.015 518.768,728.22 519.306,728.018C527.084,725.108 533.173,731.868 529.199,738.317C525.768,743.886 520.54,748.562 520.358,749.458C520.013,751.155 520.838,750.91 522.552,751.167C537.511,753.409 546.616,767.077 542.171,781.396C540.891,785.517 537.246,790.626 534.496,792.495C528.06,796.869 526.82,796.852 521.442,798.067Z" style="fill:rgb(38,36,31);"/>
                    <path d="M674.96,667.488C675.382,664.394 674.971,664.234 676.643,661.586C677.583,660.099 677.669,659.961 690.209,644.274C696.556,636.335 706.93,623.574 708.147,622.194C713.647,615.96 720.2,618.273 722.768,622.352C724.375,624.905 723.707,625.166 723.922,656.495C723.942,659.51 723.459,660.619 726.483,660.775C726.815,660.792 727.148,660.786 727.48,660.807C737.108,661.411 737.687,675.509 726.473,676.13C723.278,676.307 724.08,678.249 724.084,681.497C724.091,688.478 718.826,690.169 715.467,689.796C707.174,688.876 708.991,678.734 708.651,677.456C708.225,675.851 707.573,676.167 695.501,676.16C684.754,676.154 679.224,676.859 676.584,672.444C675.222,670.166 675.34,670.106 674.96,667.488Z" style="fill:rgb(38,36,31);"/>
                    <path d="M722.046,418.512C721.989,418.154 721.973,417.791 721.916,417.433C721.096,412.296 714.63,408.738 708.483,412.475C704.645,414.807 705.477,422.605 698.476,423.306C689.878,424.166 686.528,414.181 694.679,404.649C695.94,403.175 703.3,394.567 717.506,396.449C724.491,397.374 728.314,400.413 728.484,400.522C730.165,401.607 736.183,406.468 737.171,414.552C738.504,425.465 733.635,431.418 731.213,434.255C726.366,439.933 716.533,447.844 715.482,448.479C713.934,449.413 713.583,449.659 713.596,450.485C713.616,451.799 714.212,451.401 715.515,451.309C721.632,450.879 731.155,451.112 732.514,451.145C740.574,451.342 741.827,461.12 736.583,464.612C733.743,466.503 732.593,466.217 728.503,466.202C710.372,466.133 699.168,466.23 697.514,466.182C692.425,466.037 688.013,462.104 688.312,456.49C688.69,449.39 693.343,448.374 712.791,430.83C715.423,428.457 716.081,428.191 717.648,426.652C722.414,421.971 721.938,419.32 722.046,418.512Z" style="fill:rgb(38,36,31);"/>
                    <path d="M558.936,345.537C558.771,346.316 559.08,346.881 557.455,349.47C554.978,353.416 551.582,352.557 535.5,352.559C515.985,352.561 512.786,353.111 509.979,349.154C508.17,346.603 506.863,340.662 511.669,335.663C513.413,333.849 537.17,314.433 539.538,310.525C546.28,299.398 531.016,294.34 525.662,301.62C523.599,304.423 523.995,308.758 518.489,310.459C516.337,311.124 512.123,310.674 510.355,307.591C506.041,300.068 514.017,290.228 518.512,287.518C519.492,286.928 526.239,281.715 537.519,283.37C547.965,284.902 558.33,294.227 556.33,308.474C555.055,317.554 548.349,324.961 535.605,334.635C534.528,335.452 532.946,336.545 532.894,336.709C532.767,337.111 533.375,338.068 533.612,338.144C534.214,338.334 534.224,337.925 541.5,337.915C551.999,337.9 555.558,337.112 558.146,341.678C559.136,343.425 558.793,343.529 558.936,345.537Z" style="fill:rgb(38,36,31);"/>
                    <path d="M720.97,562.505C721.037,562.058 721.07,559.642 722.701,557.657C722.714,557.641 724.268,555.457 727.455,555.116C733.25,554.497 735.09,558.924 735.945,560.184C737.161,561.974 740.7,564.645 744.464,564.898C754.673,565.586 758,555.542 751.478,551.532C747.886,549.324 747.72,549.623 743.503,549.427C737.38,549.143 735.763,541.601 738.79,537.706C742.384,533.082 745.814,536.497 749.113,533.13C753.694,528.453 749.113,523.31 744.504,523.229C739.011,523.131 737.716,528.168 735.341,530.318C731.875,533.457 727.358,531.749 726.623,531.289C717.98,525.877 726.207,507.882 745.506,508.189C760.156,508.422 768.961,519.805 766.655,531.531C765.626,536.767 762.697,538.456 763.457,540.522C763.783,541.409 769.914,546.095 770.6,554.492C771.339,563.547 767.729,568.229 766.7,569.642C757.071,582.863 739.75,580.098 733.423,577.689C730.881,576.722 725.479,573.179 723.411,569.556C720.782,564.951 721.215,564.657 720.97,562.505Z" style="fill:rgb(38,36,31);"/>
                    <path d="M294.308,273.047C290.898,274.311 291.064,274.679 287.629,275.863C286.27,276.331 272.669,281.768 272.653,281.777C269.929,283.266 269.642,282.537 263.407,285.252C262.499,285.648 262.488,285.598 258.51,286.809C257.251,287.192 256.672,287.824 256.479,286.508C256.195,284.563 259.919,282.094 264.721,278.793C268.606,276.123 268.569,276.108 272.355,273.29C272.871,272.905 281.282,267.808 283.389,266.349C287.024,263.832 288.782,263.445 293.36,260.274C294.405,259.55 295.851,259.333 297.388,258.305C299.819,256.678 299.931,256.896 302.409,255.347C309.752,250.757 314.157,248.938 316.365,247.255C318.655,245.509 319.2,246.204 322.232,244.09C323.325,243.328 324.63,242.418 336.61,235.693C338.487,234.639 339.723,233.967 340.413,233.372C340.805,233.034 340.7,232.906 341.521,232.533C343.59,231.594 344.102,231.847 346.334,230.236C347.667,229.274 349.059,228.838 351.357,227.275C352.202,226.7 352.224,226.74 360.35,222.23C362.903,220.812 362.873,220.806 365.347,219.235C366.374,218.583 367.677,218.463 369.335,217.236C371.181,215.872 380.775,211.13 382.24,210.116C384.427,208.603 386.15,208.129 389.275,206.115C391.376,204.761 391.54,205.094 393.676,203.813C395.078,202.972 401.531,199.586 407.373,197.135C410.63,195.768 415.204,192.663 416.254,193.706C416.931,194.377 416.713,194.54 416.144,195.302C415.32,196.406 410.883,199.624 409.472,201.474C408.854,202.284 407.947,202.581 403.796,206.769C403.032,207.541 398.38,211.459 397.27,212.183C395.743,213.18 395.961,213.437 394.453,214.438C392.698,215.603 392.363,216.457 389.43,218.396C388.047,219.31 387.639,219.861 384.297,222.172C381.32,224.229 381.487,224.425 378.472,226.459C377.452,227.147 373.649,229.833 373.231,230.128C371.409,231.415 370.964,231.29 367.648,233.745C366.802,234.371 362.732,236.606 360.285,238.174C358.725,239.175 356.761,239.734 355.14,241.027C353.68,242.191 350.493,243.591 348.734,244.896C346.719,246.389 346.411,245.818 344.31,247.169C343.86,247.459 343.825,247.381 338.492,250.488C335.966,251.959 335.979,251.932 333.401,253.314C332.068,254.029 329.006,255.936 326.365,257.248C325.95,257.455 326.025,257.547 321.272,260.027C320.263,260.553 320.275,260.543 319.268,261.072C318.894,261.268 314.804,263.213 313.785,263.922C312.464,264.841 309.82,265.74 307.687,266.847C302.765,269.403 299.662,270.239 297.59,271.678C297.468,271.763 297.417,271.931 297.288,272.004C297.068,272.129 297.068,272.081 294.308,273.047Z" style="fill:rgb(163,47,42);"/>
                    <path d="M536.168,518.926C534.978,518.117 534.976,518.137 533.995,517.081C531.934,514.863 534.198,513.462 538.836,508.841C545.307,502.394 545.315,502.413 545.798,501.783C547.154,500.014 547.59,499.963 548.315,499.293C551.719,496.145 553.359,494.206 553.761,493.731C556.582,490.397 557.723,490.192 559.759,487.772C562.708,484.267 563.148,484.688 566.688,480.69C568.441,478.711 569.23,478.281 570.179,477.233C573.39,473.69 578.614,468.91 579.252,468.236C580.725,466.678 580.591,466.553 585.229,462.236C586.818,460.758 586.516,460.492 588.15,459.097C589.597,457.861 590.666,456.584 591.684,455.709C594.109,453.624 593.807,453.33 596.18,451.181C601.56,446.307 602.523,443.608 608.545,444.262C610.519,444.476 613.762,446.582 614.313,449.548C615.313,454.931 614.066,456.712 611.699,459.648C609.202,462.746 609.394,462.875 609.173,463.14C608.3,464.19 607.845,463.668 606.386,465.378C606.308,465.469 605.506,466.353 605.429,466.438C601.465,470.802 601.438,470.775 601.122,471.178C599.018,473.856 598.743,473.582 596.315,476.359C594.923,477.951 594.682,477.697 593.334,479.34C591.386,481.715 589.606,482.886 587.028,486.058C584.288,489.432 581.893,491.511 580.265,493.293C577.639,496.167 577.711,496.211 574.871,498.895C573.997,499.721 572.581,502.078 569.679,504.668C566.481,507.52 566.34,508.532 562.822,511.813C560.138,514.317 560.332,514.486 558.929,515.973C557.094,517.919 557.254,518.075 555.458,519.463C553.903,520.664 552.28,523.37 547.242,528.121C545.108,530.132 543.988,527.571 543.373,526.579C542.93,525.865 540.525,521.986 536.168,518.926Z" style="fill:rgb(163,47,42);"/>
                    <path d="M653.442,210.633C660.372,214.461 660.398,214.374 664.716,217.136C665.346,217.539 671.653,220.79 673.341,221.785C679.28,225.29 679.479,225.457 680.719,226.056C682.744,227.034 682.677,227.127 684.64,228.235C685.386,228.656 687.418,229.333 689.365,230.759C691.373,232.23 691.671,231.698 693.677,233.185C694.75,233.98 702.548,238.411 703.326,238.853C703.499,238.951 711.058,242.802 712.755,244.103C715.665,246.335 716.237,245.398 718.628,247.294C720.156,248.507 721.078,248.548 724.359,250.713C726.014,251.806 731.735,254.407 736.452,257.584C739.447,259.601 739.683,259.176 742.711,261.15C749.133,265.336 749.478,264.759 755.762,269.142C757.628,270.443 761.653,272.624 764.708,275.235C765.447,275.866 765.602,275.637 774.295,282.685C777.28,285.104 777.486,284.952 777.625,285.478C777.688,285.718 778.191,288.116 774.596,286.161C774.596,286.161 768.661,284.19 762.411,281.727C756.821,279.524 756.731,279.8 752.678,278.078C751.8,277.704 751.756,277.394 747.378,275.834C747.071,275.724 744.397,274.771 743.622,274.251C742.674,273.615 742.678,273.624 741.576,273.306C739.011,272.566 739.074,272.434 736.747,271.092C735.651,270.461 724.923,265.486 724.609,265.291C719.629,262.21 719.197,262.998 714.336,259.752C712.502,258.527 711.365,258.505 710.376,257.68C707.681,255.431 698.802,250.557 692.409,246.633C690.863,245.683 688.884,245.113 688.75,245.023C688.612,244.93 688.442,244.339 685.445,242.621C674.313,236.236 674.435,236.017 671.432,234.635C670.231,234.082 668.878,233.009 667.513,232.472C665.009,231.486 665.025,231.473 662.684,230.143C648.998,222.366 639.29,213.881 633.149,208.99C632.425,208.414 623.757,201.226 622.789,200.225C617.393,194.642 615.842,193.75 616.736,192.673C617.607,191.624 622.958,194.973 629.399,197.753C631.523,198.669 632.846,199.603 634.553,200.394C638.793,202.358 641.77,204.332 642.366,204.727C643.052,205.181 643.097,205.089 651.407,209.633C652.899,210.448 652.923,210.377 653.442,210.633Z" style="fill:rgb(163,47,42);"/>
                    <path d="M388.5,697.938C416.871,697.891 419.556,697.919 420.577,698.149C422.413,698.562 429.755,701.56 425.608,711.543C424.67,713.801 410.219,747.256 406.035,756.296C403.854,761.009 401.479,769.356 394.484,768.721C390.285,768.34 386.25,764.483 388.261,758.425C388.922,756.435 395.728,740.744 395.785,740.627C397.072,737.98 399.34,732.289 399.632,731.557C399.686,731.421 405.309,718.747 405.803,717.633C406.192,716.757 407.47,714.451 407.034,713.68C406.46,712.663 404.84,712.933 403.494,712.931C397.829,712.93 392.163,712.93 386.498,712.93C382.859,712.928 380.422,712.396 378.228,708.641C376.022,704.868 378.119,698.136 385.484,698.014C387.005,697.989 386.985,697.976 388.5,697.938Z" style="fill:rgb(38,36,31);"/>
                    <path d="M523.093,475.52C523.233,480.163 524.549,510.279 524.354,511.473C523.93,514.078 520.681,511.822 511.468,513.282C508.535,513.746 507.263,514.933 506.146,513.825C505.493,513.177 505.82,513.016 505.51,498.5C505.328,489.988 505.136,490.006 505.079,481.505C505.063,479.185 504.947,479.188 504.717,452.499C504.58,436.595 503.444,435.411 508.385,431.343C512.607,427.867 521.393,430.342 521.777,438.483C521.986,442.922 521.938,450.75 522.424,457.503C522.788,462.555 522.401,462.552 523.093,475.52Z" style="fill:rgb(73,90,102);"/>
                    <path d="M303.425,425.123C302.173,425.255 300.263,425.769 297.535,424.436C292.136,421.799 292.526,414.697 297.518,411.526C307.337,405.291 306.924,400.596 310.524,398.537C314.701,396.149 321.815,396.883 321.806,405.499C321.784,425.02 321.539,425 321.787,444.5C321.979,459.559 321.75,460.154 321.263,461.418C320.813,462.586 318.827,466.455 314.51,466.671C309.708,466.911 306.461,463.103 306.358,458.504C306.273,454.734 306.512,426.438 306.154,425.648C305.735,424.722 304.689,424.832 304.546,424.847C304.163,424.888 303.807,425.083 303.425,425.123Z" style="fill:rgb(38,36,31);"/>
                    <path d="M638.931,374.5C638.913,375.778 639.833,382.452 634.358,385.213C631.589,386.609 624.084,386.549 623.769,377.491C623.689,375.184 623.966,345.132 623.731,344.403C623.693,344.286 623.409,343.404 622.501,343.47C622.269,343.487 620.076,344.406 617.549,344.162C611.271,343.557 607.978,335.033 615.77,329.888C620.088,327.037 620.589,326.596 625.151,320.252C625.605,319.62 627.76,315.705 633.456,316.732C638.551,317.651 638.888,322.775 638.934,323.468C639.202,327.541 638.917,327.546 638.931,374.5Z" style="fill:rgb(38,36,31);"/>
                    <path d="M489.843,324.5C489.842,321.805 489.842,312.804 489.795,312.446C489.774,312.28 489.597,310.928 488.475,310.823C487.794,310.758 487.13,311.072 486.454,311.174C484.989,311.394 483.048,311.236 482.58,311.125C482.112,311.014 479.107,310.3 477.931,307.319C475.42,300.951 481.53,297.554 482.17,297.074C488.712,292.172 491.085,287.419 491.688,286.645C495.876,281.258 504.384,282.89 505.061,290.527C505.13,291.301 505.096,302.798 505.066,303.493C504.869,308.013 505.201,334.378 504.946,344.526C504.705,354.097 495.44,354.612 491.693,350.333C489.5,347.828 489.816,347.448 489.843,324.5Z" style="fill:rgb(38,36,31);"/>
                    <path d="M502.089,532.201C503.89,530.044 503.839,530.031 504.924,528.891C506.397,527.341 513.689,523.136 521.44,524.756C522.158,524.906 531.017,526.346 534.547,534.477C538.727,544.106 535.625,549.094 534.597,551.542C533.378,554.444 529.016,558.878 526.635,559.804C524.471,560.645 520.177,562.525 515.524,562.113C513.33,561.918 513.34,561.841 511.364,560.89C511.049,560.738 508.271,559.774 507.599,559.364C499.625,554.494 494.823,543.017 502.089,532.201Z" style="fill:rgb(42,32,25);"/>
                    <path d="M354.685,414.361C356.451,417.065 358.838,420.863 358.159,436.478C357.552,450.42 349.457,456.784 343.371,449.606C337.879,443.128 338.378,420.009 343.241,414.29C349.378,407.072 354.319,413.956 354.685,414.361Z" style="fill:rgb(254,254,254);"/>
                    <g transform="matrix(0.897758,0,0,0.897758,-31.721311,-33.920337)">
                        <circle cx="611.872" cy="642.936" r="14.348" style="fill:rgb(252,177,36);"/>
                    </g>
                    <path d="M513.5,200.077C512.66,200.034 509.91,200.36 509.505,198.499C509.432,198.164 509.241,179.575 509.578,178.527C510.125,176.822 513.641,177.263 514.5,177.266C523.548,177.298 525.998,176.762 526.498,178.5C526.6,178.852 526.589,181.26 526.588,181.5C526.515,198.392 526.527,198.389 526.501,198.5C526.103,200.175 524.806,200.043 513.5,200.077Z" style="fill:rgb(73,90,102);"/>
                    <path d="M290.49,523.25C293.125,523.419 293.17,523.291 295.554,524.392C297.529,525.306 298.288,526.302 298.463,526.532C305.257,535.462 294.997,546.546 285.422,540.614C279.724,537.084 280.506,531.065 281.747,528.615C284.263,523.649 289.114,523.449 290.49,523.25Z" style="fill:rgb(254,254,254);"/>
                    <path d="M511.616,767.627C513.065,766.609 512.97,766.464 514.617,765.811C515.9,765.302 517.25,765.229 517.484,765.216C530.132,764.531 530.947,781.751 519.496,783.471C511.224,784.714 504.713,774.93 511.616,767.627Z" style="fill:rgb(254,254,254);"/>
                    <path d="M321.618,675.072C319.998,674.388 319.976,674.458 318.471,673.544C311.886,669.55 315.607,659.011 325.476,659.901C337.653,660.998 336.413,673.3 327.434,675.228C324.693,675.817 323.354,675.389 321.618,675.072Z" style="fill:rgb(254,254,254);"/>
                    <path d="M324.484,644.887C322.627,644.596 322.635,644.617 322.479,644.572C314.914,642.4 316.515,633.451 323.538,632.826C332.567,632.022 334.666,640.622 329.532,643.55C326.856,645.076 325.306,644.821 324.484,644.887Z" style="fill:rgb(254,254,254);"/>
                    <path d="M704.288,651.318C706.88,648.348 706.637,648.171 706.863,647.914C706.94,647.827 707.533,647.153 708.313,647.718C708.742,648.029 708.708,649.326 708.704,649.47C708.446,659.334 708.598,659.458 708.019,660.081C707.553,660.583 707.482,660.658 699.479,660.687C697.999,660.692 696.823,659.984 698.336,658.397C700.95,655.655 700.651,655.412 704.288,651.318Z" style="fill:rgb(254,254,254);"/>
                </g>
            </g>
        </g>
    </g>
</svg>
