<?xml version="1.0" encoding="UTF-8" standalone="no"?>
<!DOCTYPE svg PUBLIC "-//W3C//DTD SVG 1.1//EN" "http://www.w3.org/Graphics/SVG/1.1/DTD/svg11.dtd">
<svg width="100%" height="100%" viewBox="0 0 435 486" version="1.1" xmlns="http://www.w3.org/2000/svg" xmlns:xlink="http://www.w3.org/1999/xlink" xml:space="preserve" xmlns:serif="http://www.serif.com/" style="fill-rule:evenodd;clip-rule:evenodd;stroke-linejoin:round;stroke-miterlimit:2;">
    <g transform="matrix(1,0,0,1,-11757.944269,-6462.323568)">
        <g transform="matrix(1.276754,0,0,1.897866,-2116.350918,-3543.870901)">
            <g transform="matrix(0.691829,0,0,0.465415,10621.832178,5120.924614)">
                <g id="Fondo" transform="matrix(1.171875,0,0,1.171875,0,0)">
                    <path d="M489.411,302.831C476.472,298.041 480.625,286.598 481.728,284.626C486.112,276.791 494.904,277.897 496.498,277.904C533.151,278.059 533.403,277.371 536.675,279.128C547.021,284.684 543.979,294.954 541.715,297.665C536.022,304.485 531.364,303.078 525.494,303.183C523.823,303.213 523.485,303.029 522.897,304.589C522.646,305.255 522.777,305.282 522.827,313.492C522.847,316.838 525.651,315.954 529.518,316.281C546.097,317.686 555.653,320 561.542,321.299C574.675,324.196 589.101,330.076 590.427,330.667C596.368,333.315 596.38,333.257 602.305,335.924C604.709,337.006 605.41,337.912 606.644,335.587C608.895,331.342 609.967,330.099 608.525,328.473C607.589,327.416 588.735,317.199 585.359,314.701C582.597,312.656 577.511,310.365 581.011,305.182C589.972,291.916 604.103,288.142 606.501,287.502C623.837,282.872 632.188,289.156 634.39,287.383C634.735,287.105 635.404,285.647 635.476,285.488C639.55,276.6 648.919,275.289 654.593,281.414C661.679,289.062 656.084,295.102 654.205,298.345C652.315,301.608 655.197,301.653 658.725,308.38C664.758,319.883 664.847,327.854 664.899,330.494C665.143,342.927 659.182,352.108 659.107,352.2C654.958,357.295 649.478,351.773 639.604,346.307C636.439,344.555 636.612,344.304 633.457,342.569C631.259,341.361 629.635,339.111 627.436,343.467C625.633,347.04 624.33,348.356 626.835,350.004C628.006,350.775 628.122,350.599 636.405,356.637C637.324,357.307 643.582,361.869 647.578,365.41C650.227,367.758 650.172,367.794 652.806,370.169C652.811,370.174 658.515,375.474 659.531,376.467C661.702,378.59 662.006,379.066 662.96,380.068C674.634,392.336 676.378,395.578 680.336,400.623C682.3,403.127 684.142,406.036 685.309,407.631C692.014,416.801 703.071,437.363 706.356,446.556C710.243,457.433 710.566,457.313 713.745,468.432C719.67,489.15 720.287,501.89 721.019,510.534C722.092,523.215 721.879,548.262 716.224,572.436C715.812,574.195 708.232,611.411 683.143,646.247C671.052,663.035 661.036,672.518 658.282,675.281C655.001,678.573 645.323,687.09 643.482,688.481C640.895,690.434 643.053,692.008 647.606,699.435C655.005,711.507 658.982,717.254 661.863,722.297C663.891,725.848 669.039,730.902 664.441,739.465C661.634,744.691 652.556,749.921 644.572,743.41C642.195,741.472 642.542,741.143 627.407,716.559C620.707,705.676 620.635,705.403 619.497,705.414C619.068,705.418 617.571,706.253 617.411,706.342C613.953,708.272 613.445,708.261 610.347,710.248C607.284,712.211 591.893,719.444 581.363,723.119C560.085,730.546 547.49,731.865 542.54,732.725C521.284,736.416 493.685,734.65 486.489,733.579C463.811,730.205 455.39,727.302 453.431,726.725C448.425,725.252 432.553,719.747 423.59,715.318C405.494,706.376 405.66,704.486 403.597,705.652C402.738,706.137 399.456,711.72 399.132,712.271C398.633,713.12 395.08,718.67 394.126,720.296C390.907,725.779 390.762,726.107 389.76,727.663C385.963,733.557 383.214,738.768 380.777,741.72C373.246,750.841 361.039,745.195 358.469,737.511C355.846,729.665 359.591,726.761 367.946,712.756C371.376,707.006 373.425,704.015 375.89,699.732C379.824,692.9 383.139,690.277 380.513,688.484C378.559,687.15 378.198,686.468 376.219,684.834C372.366,681.653 372.494,681.535 368.786,678.19C362.092,672.153 358.122,667.413 353.535,662.468C346.082,654.433 334.402,637.181 330.125,629.718C325.506,621.658 321.078,612.132 320.353,610.573C313.096,594.963 307.581,574.427 306.289,566.536C300.583,531.691 301.469,515.827 305.314,489.469C306.947,478.273 312.376,460.235 312.622,459.54C318.957,441.649 322.277,435.206 329.701,421.612C330.54,420.077 334.337,413.848 336.065,411.215C343.748,399.512 354.617,385.89 364.36,376.356C364.522,376.197 378.224,362.054 395.624,350.698C397.652,349.374 399.814,348.86 398.087,345.72C395.865,341.682 395.995,341.616 395.761,341.291C394.302,339.262 393.817,340.955 386.717,344.895C374.073,351.91 370.559,355.716 366.371,353.746C362.686,352.013 359.733,340.805 359.278,337.532C357.981,328.21 359.913,318.541 364.129,310.323C368.373,302.051 370.759,301.846 370.478,299.504C370.284,297.889 365.882,293.353 365.957,289.489C366.124,280.817 374.222,276.699 379.448,277.787C385.156,278.976 387.359,283.654 387.774,284.344C389.292,286.874 388.962,288.426 392.496,287.485C394.733,286.89 407.656,283.449 421.404,288.75C433.08,293.252 438.857,300.228 441.115,302.823C446.56,309.078 443.364,311.009 440.41,313.384C439.738,313.924 438.423,314.981 431.279,319.11C429.509,320.133 418,326.712 416.574,327.618C414.495,328.94 413.969,329.467 415.735,332.371C417.943,336.002 417.436,337.025 419.544,336.87C419.776,336.853 427.119,333.48 427.422,333.336C440.518,327.101 461.25,320.378 482.519,317.642C499.149,315.503 500.395,317.082 501.137,314.449C501.191,314.259 501.202,305.746 501.183,305.515C500.971,303.053 499.278,303.207 498.502,303.194C493.933,303.119 493.936,303.369 489.411,302.831Z" style="fill:rgb(56,27,44);"/>
                    <path d="M710.179,480.558C713.112,494.939 712.704,494.986 713.638,502.486C714.269,507.554 717.248,529.007 711.633,562.52C711.527,563.156 711.403,563.127 710.085,570.425C709.254,575.027 708.728,574.87 707.12,581.394C706.237,584.976 706.186,584.955 703.326,593.434C702.465,595.987 702.273,595.908 701.499,598.5C700.817,600.782 695.179,613.587 692.787,617.679C692.108,618.84 687.751,627.43 684.86,631.728C683.175,634.234 682.086,636.695 677.638,642.603C677.102,643.315 677.179,643.614 674.249,647.304C673.849,647.807 671.405,651.091 670.317,652.361C668.928,653.982 669.204,654.181 667.702,655.693C667.305,656.093 667.36,656.133 662.997,660.94C661.167,662.955 661.381,663.128 657.312,667.319C655.58,669.103 655.396,668.875 653.662,670.657C649.372,675.068 646.873,676.783 641.701,681.727C641.375,682.038 641.328,681.974 637.226,685.144C637.031,685.295 628.633,691.422 628.507,691.509C626.858,692.633 626.943,692.732 624.408,694.364C620.781,696.698 608.016,704.469 603.465,706.43C601.766,707.161 601.846,707.275 599.457,708.404C598.434,708.887 598.537,709.047 597.494,709.486C596.877,709.746 595.838,709.979 591.723,711.972C589.101,713.242 589.01,713.009 586.4,714.312C586.002,714.51 573.723,719.087 569.441,720.275C568.57,720.516 564.052,721.736 563.584,721.863C559.459,722.977 557.436,724.172 539.519,726.625C519.691,729.341 498.86,728.678 490.517,727.368C489.13,727.15 483.665,726.815 478.439,725.84C475.969,725.38 467.692,724.203 463.431,722.709C462.404,722.349 462.374,722.524 450.396,718.803C449.257,718.449 439.714,715.485 436.362,713.781C435.135,713.157 434.221,713.193 430.589,711.321C430.407,711.227 421.213,707.182 414.643,703.22C412.406,701.872 409.476,700.831 404.638,697.3C402.669,695.864 402.435,696.256 399.7,694.21C399.109,693.767 389.288,687.194 384.598,683.374C383.479,682.463 383.15,682.374 381.811,681.171C378.413,678.12 373.15,673.552 369.91,670.106C369.354,669.515 365.079,665.774 358.185,657.747C356.347,655.607 356.085,655.828 354.577,653.436C354.238,652.899 347.068,644.546 344.665,640.408C343.812,638.939 340.353,634.08 338.89,631.294C338.03,629.657 338.127,629.609 336.995,628.141C336.912,628.033 330.203,617.085 328.135,611.649C326.379,607.032 325.855,607.274 324.133,602.625C323.195,600.093 323.05,600.171 322.16,597.607C320.755,593.559 320.48,593.672 319.201,589.578C318.376,586.94 317.91,586.502 317.457,584.509C315.749,576.993 314.666,575.546 314.177,572.58C312.433,562.016 311.706,562.14 310.675,551.479C310.327,547.876 308.194,534.8 309.261,513.489C309.974,499.244 312.212,487.741 312.643,485.529C312.858,484.421 312.863,484.432 314.52,476.505C315.363,472.468 315.739,472.584 316.738,468.567C317.621,465.019 317.966,465.132 318.868,461.589C319.599,458.72 321.572,454.457 321.842,453.615C324.993,443.801 326.379,443.298 327.687,439.574C328.177,438.177 328.259,438.215 331.666,431.588C335.167,424.779 346.254,405.443 361.169,389.201C361.76,388.557 364.8,385.443 366.019,384.069C367.683,382.194 367.907,382.432 369.466,380.465C369.799,380.045 370.994,379.124 373.051,377.056C376.631,373.455 381.561,369.611 386.433,365.423C386.955,364.974 386.994,365.035 393.279,360.201C394.718,359.094 394.805,359.248 396.263,358.143C399.143,355.959 401.15,354.894 401.6,354.654C403.5,353.646 403.263,353.29 406.552,351.598C408.663,350.512 412.84,347.517 420.591,343.696C420.814,343.586 422.817,342.599 423.335,342.236C425.347,340.825 425.668,341.48 430.27,339.044C433.842,337.153 434.047,337.637 437.667,335.815C439.871,334.705 444.78,333.341 449.525,331.572C451.672,330.772 466.365,326.513 481.467,324.269C490.806,322.882 499.89,322.532 501.498,322.47C533.079,321.252 543.372,324.6 551.449,325.783C552.548,325.944 567.299,329.355 569.384,329.948C575.588,331.714 590.231,337.173 593.674,339.132C594.047,339.345 595.518,340.182 598.562,341.351C601.72,342.563 601.566,342.839 604.559,344.385C612.206,348.338 614.184,350.021 618.578,352.36C621.413,353.869 624.569,356.388 625.74,357.11C626.957,357.86 626.965,357.839 633.393,362.635C637.598,365.771 637.612,365.718 638.486,366.516C642.035,369.765 643.982,370.055 654.854,381.136C655.698,381.996 657.041,382.963 661.254,387.719C664.113,390.945 664.157,390.882 666.844,394.252C669.174,397.175 671.641,398.84 676.93,407.205C677.347,407.866 680.764,412.056 683.385,416.57C685.987,421.05 686.508,420.741 691.912,431.297C693.75,434.888 694.102,434.699 696.458,440.516C697.485,443.05 699.573,446.196 701.938,453.367C703.404,457.816 703.761,457.681 704.823,461.417C705.592,464.125 706.1,464.609 706.522,466.495C708.107,473.591 708.71,473.418 710.179,480.558Z" style="fill:rgb(239,57,59);"/>
                    <path d="M687.52,561.503C687.461,561.755 685.749,569.587 683.752,575.576C682.912,578.096 683.153,579.081 681.766,582.604C678.667,590.479 679.285,590.727 674.06,601.313C671.975,605.538 672.161,605.618 669.804,609.677C668.887,611.256 669.064,612.027 667.845,613.708C666.703,615.284 658.837,629.832 647.335,642.357C646.583,643.176 644.694,645.507 639.226,651.222C637.003,653.547 637.056,653.575 634.616,655.643C632.749,657.226 632.979,657.451 631.1,659.005C630.308,659.66 629.465,660.042 627.787,661.8C626.265,663.394 621.248,666.917 620.551,667.565C618.714,669.271 618.622,669.129 616.668,670.732C614.291,672.682 614.207,672.536 605.342,678.275C602.898,679.857 602.871,679.784 600.429,681.385C599.591,681.935 599.594,681.902 589.334,687.206C589.28,687.234 579.835,691.39 577.44,692.342C569.487,695.505 566.475,696.235 565.492,696.473C560.216,697.751 550.873,702.123 526.478,704.249C503.501,706.251 490.739,703.569 482.525,702.344C467.174,700.055 461.074,697.039 457.557,696.297C451.488,695.016 434.412,687.355 432.638,686.253C431.756,685.705 426.129,682.758 425.507,682.486C423.91,681.787 419.996,678.942 418.238,677.935C416.928,677.185 410.238,673.356 402.737,667.178C401.362,666.047 398.083,663.756 395.643,661.347C394.748,660.463 394.565,660.675 389.747,656.225C380.672,647.845 381.197,647.356 375.568,641.439C373.725,639.503 366.07,629.394 365.965,629.236C364.935,627.681 364.968,627.688 363.94,626.156C360.707,621.339 360.562,621.45 357.661,616.411C356.804,614.923 356.197,614.64 355.301,612.599C354.776,611.402 348.768,601.014 345.4,591.538C343.065,584.968 342.707,585.102 340.766,578.412C337.701,567.851 334.821,558.217 333.234,539.519C332.805,534.467 332.28,517.371 333.472,507.497C334.915,495.55 336.142,487.108 340.144,474.397C341.849,468.978 341.179,468.775 343.517,463.508C346.11,457.663 345.55,456.182 353.426,441.455C354.264,439.888 354.315,439.929 355.071,438.308C356.325,435.62 361.09,428.4 362.811,425.673C363.733,424.214 363.608,424.137 364.829,422.756C367.003,420.296 369.229,415.908 378.106,406.121C378.125,406.1 381.064,402.592 384.437,399.43C385.21,398.705 385.297,398.821 386.037,398.042C387.029,396.997 386.77,396.75 389.464,394.455C389.893,394.09 389.857,394.055 394.744,389.797C396.342,388.404 396.183,388.256 397.851,386.977C398.467,386.504 398.525,386.581 402.303,383.277C403.853,381.921 403.973,382.099 406.342,380.276C408.026,378.98 408.13,379.158 409.774,377.809C410.666,377.077 410.668,377.089 423.284,369.17C423.686,368.918 428.507,366.465 429.664,365.82C431.371,364.869 434.868,363.26 435.326,363.049C440.468,360.683 440.707,359.765 458.575,353.729C462.877,352.276 478.358,348.654 481.461,348.238C490.464,347.031 490.421,346.7 499.489,346.272C502.249,346.142 513.683,344.536 538.502,347.485C545.829,348.356 546.795,349.038 553.536,350.344C557.478,351.108 565.596,353.632 566.36,353.906C570.387,355.346 570.467,355.08 574.397,356.76C579.089,358.766 579.415,358.444 584.326,360.866C589.438,363.387 593.271,364.887 598.362,367.789C598.416,367.819 601.105,369.12 603.376,370.69C611.09,376.025 611.394,375.566 614.246,377.808C616.563,379.63 620.225,381.95 623.372,384.643C626.876,387.642 626.978,387.504 630.427,390.577C638.376,397.661 638.384,398.037 640.652,400.344C640.7,400.393 643.304,403.128 644.538,404.465C644.807,404.756 650.801,411.569 655.348,417.613C657.745,420.798 664,429.675 666.203,433.67C667.14,435.37 667.046,435.406 667.774,436.321C669.34,438.292 668.816,438.582 670.153,440.697C670.166,440.718 675.19,450.554 675.569,451.47C677.817,456.897 677.907,456.84 679.852,462.384C680.343,463.783 681.991,467.191 682.5,469.5C683.458,473.851 688.157,487.212 689.854,502.457C690.23,505.831 690.531,505.789 690.954,516.475C691.015,518.034 691.823,525.592 690.242,544.477C689.875,548.857 687.773,560.147 687.52,561.503Z" style="fill:rgb(58,26,45);"/>
                    <path d="M342.914,488.595C346.356,475.452 345.93,475.321 350.797,462.622C353.661,455.151 353.705,455.183 356.872,448.677C361.934,438.279 372.652,421.329 383.592,409.586C389.148,403.624 389.216,403.721 391.455,401.456C399.52,393.297 408.133,387.086 409.756,385.836C415.781,381.192 416.004,381.538 419.352,379.263C425.354,375.183 430.138,372.863 431.322,372.173C437.796,368.4 454.975,361.183 463.59,358.847C478.897,354.696 491.042,353.375 493.462,353.112C515.632,350.7 537.006,353.629 540.535,354.32C561.19,358.365 569.921,361.489 583.448,367.608C590.2,370.662 591.971,371.771 599.294,375.856C603.421,378.159 603.21,378.458 607.276,380.862C610.795,382.942 620.783,390.879 622.16,391.934C623.383,392.871 634.788,403.205 637.068,405.9C641.727,411.409 646.632,415.949 654.974,428.181C660.339,436.049 661.778,439.229 662.939,441.245C666.081,446.697 665.936,446.753 668.729,452.385C677.689,470.455 682.631,493.886 683.679,504.481C687.16,539.684 680.978,562.35 677.63,574.538C675.637,581.793 670.942,593.483 668.034,599.284C661.615,612.092 657.551,619.175 648.765,630.695C646.604,633.528 635.681,647.851 617.296,662.219C609.351,668.429 602.063,672.805 601.365,673.291C596.853,676.426 583.691,682.858 580.397,684.247C579.699,684.541 574.015,686.937 571.618,687.823C543.657,698.157 518.916,698.348 516.498,698.425C468.393,699.956 433.24,679.311 429.572,677.364C419.434,671.984 408.781,664.081 407.707,663.234C391.091,650.129 382.077,639.173 378.72,635.311C374.925,630.944 367.116,619.78 364.956,616.21C353.291,596.934 350.821,587.624 350.408,586.534C346.484,576.166 346.708,576.102 343.829,565.41C340.269,552.196 335.728,521.127 342.914,488.595Z" style="fill:rgb(247,234,218);"/>
                    <path d="M522.768,498.499C522.958,501.04 522.775,501.104 523.221,501.684C524.789,503.722 528.647,503.287 534.265,511.645C534.917,512.615 535.578,514.227 537.509,514.355C540.233,514.536 612.719,514.196 615.49,514.571C621.128,515.334 628.956,523.076 622.521,532.517C619.137,537.481 612.479,537.648 611.507,537.672C608.069,537.758 537.297,537.55 536.556,537.777C533.421,538.738 535.167,540.878 527.63,546.68C518.62,553.617 501.252,554.449 491.306,541.642C482.877,530.786 485.686,518.787 488.672,513.599C495.603,501.561 501.006,503.989 501.205,500.47C501.42,496.672 501.067,396.012 501.43,393.492C502.18,388.29 509.533,386.885 511.906,386.902C516.884,386.938 521.338,388.849 522.416,392.52C522.739,393.619 522.742,393.63 522.742,437.5C522.742,451.417 522.647,488.15 522.768,498.499Z" style="fill:rgb(49,25,46);"/>
                    <path d="M365.959,337.408C365.673,334.881 365.67,334.885 365.628,334.486C364.377,322.772 369.338,308.959 381.695,299.766C383.096,298.724 387.878,295.997 389.442,295.363C397.007,292.296 403.804,292.468 405.5,292.446C413.586,292.341 420.556,295.409 421.345,295.823C426.177,298.355 428.124,299.858 428.667,300.277C431.215,302.244 437.54,306.601 435.085,309.095C434.35,309.842 430.652,311.863 430.253,312.081C425.35,314.761 425.467,314.941 420.575,317.638C415.086,320.666 415.222,320.881 409.693,323.849C406.895,325.351 407.039,325.555 404.276,327.108C402.935,327.861 397.895,330.693 387.596,336.662C372.627,345.338 372.783,345.621 371.368,346.128C368.646,347.104 367.487,343.558 365.959,337.408Z" style="fill:rgb(246,159,60);"/>
                    <path d="M597.652,314.24C594.483,312.404 593.718,311.913 593.383,311.699C589.443,309.173 586.469,308.406 589.339,305.353C591.907,302.621 593.105,301.73 593.469,301.459C600.419,296.288 603.787,295.126 608.58,293.791C609.882,293.428 616.788,291.503 625.449,292.838C627.715,293.187 633.247,294.767 635.704,296.118C641.491,299.302 642.788,299.744 645.998,303.019C646.68,303.715 648.426,305.219 649.896,307.192C653.339,311.816 654.167,313.893 654.422,314.534C657.745,322.877 658.253,326.033 658.187,332.488C658.121,338.934 655.291,345.226 654.62,345.636C653.774,346.154 653.247,346.859 648.313,343.806C645.477,342.051 642.361,340.316 641.39,339.679C636.261,336.315 605.088,318.624 597.652,314.24Z" style="fill:rgb(246,159,60);"/>
                    <path d="M628.042,704.741C627.713,704.14 627.697,704.164 627.39,703.551C625.925,700.621 626.738,700.225 629.552,698.577C633.166,696.461 635.392,693.316 637.392,695.587C637.884,696.146 650.573,716.801 650.888,717.244C653.11,720.361 658.728,729.878 659.053,730.678C661.609,736.98 653.115,743.428 647.886,737.19C647.404,736.616 642.887,729.266 642.502,728.499C640.917,725.344 640.241,724.762 638.348,721.591C635.906,717.5 629.686,707.75 628.042,704.741Z" style="fill:rgb(246,159,60);"/>
                    <path d="M366.606,727.574C368.435,724.773 377.812,709.356 379.959,705.769C382.284,701.884 383.167,700.829 386.494,695.496C388.125,692.882 390.301,696.051 394.55,698.418C397.996,700.338 397.884,701.327 395.797,704.68C391.131,712.176 391.393,712.336 389.717,714.644C388.761,715.959 381.873,727.672 379.93,730.769C376.463,736.294 376.865,736.654 374.493,738.491C370.688,741.441 366.548,738.366 365.467,736.523C363.667,733.456 363.957,731.469 366.606,727.574Z" style="fill:rgb(246,159,60);"/>
                    <path d="M496.5,296.5C493.487,296.452 491.957,296.546 490.325,295.921C487.001,294.647 485.061,288.82 489.604,285.648C491.268,284.486 491.425,284.461 512.5,284.492C531.362,284.521 533.531,283.858 535.518,286.484C539.595,291.874 535.367,296.161 531.501,296.513C530.16,296.635 499.3,296.511 496.5,296.5Z" style="fill:rgb(246,159,60);"/>
                    <path d="M436.366,405.578C435.08,403.397 431.245,396.379 430.849,395.366C429.369,391.575 432.748,387.529 436.484,387.89C441.377,388.362 441.714,393.395 447.799,403.332C451.781,409.834 445.526,412.19 444.476,412.347C439.753,413.05 437.848,408.037 436.366,405.578Z" style="fill:rgb(49,25,46);"/>
                    <g transform="matrix(0.875959,0.482385,-0.482385,0.875959,319.703999,-180.0485)">
                        <path d="M436.366,405.578C435.08,403.397 431.245,396.379 430.849,395.366C429.369,391.575 432.748,387.529 436.484,387.89C441.377,388.362 441.714,393.395 447.799,403.332C451.781,409.834 445.526,412.19 444.476,412.347C439.753,413.05 437.848,408.037 436.366,405.578Z" style="fill:rgb(49,25,46);"/>
                    </g>
                    <path d="M592.95,395.694C591.715,398.309 585.208,409.553 584.41,410.423C579.95,415.287 572.137,410.323 575.866,403.699C576.027,403.414 578.887,398.696 581.461,393.479C582.886,390.593 585.386,386.186 590.501,388.499C590.709,388.593 591.861,389.114 592.59,390.443C594.321,393.598 593.02,395.433 592.95,395.694Z" style="fill:rgb(49,25,46);"/>
                    <path d="M593.193,654.638C593.375,655.263 594.14,656.47 593.422,658.469C591.946,662.578 585.976,663.609 583.46,659.527C582.555,658.058 579.657,652.574 576.203,646.669C575.927,646.196 573.807,642.573 575.952,639.83C578.093,637.092 582.559,636.797 584.522,639.481C586.631,642.365 589.369,648.066 592.188,652.685C592.386,653.011 593.115,654.481 593.193,654.638Z" style="fill:rgb(49,25,46);"/>
                    <path d="M379.395,605.911C377.931,605.278 377.799,605.479 376.724,604.292C376.56,604.111 375.667,603.125 375.466,601.504C374.93,597.197 378.863,595.548 379.362,595.252C384.422,592.247 391.224,588.585 392.266,588.024C397.121,585.411 399.562,590.215 399.801,591.434C400.974,597.409 393.754,599.42 387.338,603.208C381.29,606.779 380.976,606.02 379.395,605.911Z" style="fill:rgb(49,25,46);"/>
                    <path d="M378.665,454.238C372.267,449.606 376.644,444.637 379.57,443.771C382.152,443.007 382.217,443.748 396.457,451.57C401.728,454.465 399.826,460.145 397.506,461.51C394.723,463.148 393.028,462.374 390.359,460.74C385.027,457.476 381.391,455.757 378.665,454.238Z" style="fill:rgb(49,25,46);"/>
                    <path d="M639.356,604.742C628.648,598.645 628.586,598.766 627.66,598.228C622.611,595.288 623.372,590.167 626.782,587.958C629.416,586.251 631.815,588.051 636.39,590.688C644.607,595.423 644.715,595.215 645.421,595.64C651.595,599.352 647.554,604.582 645.507,605.513C642.333,606.957 639.707,604.941 639.356,604.742Z" style="fill:rgb(49,25,46);"/>
                    <path d="M448.309,645.405C448.09,645.812 440.509,659.645 440.069,660.17C436.169,664.819 427.772,660.674 431.114,654.311C432.363,651.931 438.347,641.062 439.517,639.514C441.828,636.455 448.411,636.967 448.973,642.465C449.132,644.014 448.823,643.959 448.309,645.405Z" style="fill:rgb(49,25,46);"/>
                    <path d="M376.504,530.572C373.571,530.659 361.119,530.673 360.49,530.589C354.367,529.774 353.293,519.847 361.503,519.753C362.78,519.738 375.129,519.597 377.468,519.817C382.87,520.326 383.718,528.155 378.423,530.266C378.423,530.266 376.657,530.548 376.504,530.572Z" style="fill:rgb(49,25,46);"/>
                    <path d="M644.553,454.594C643.32,455.287 637.764,458.1 633.635,460.725C624.924,466.264 621.659,455.815 626.466,452.457C629.237,450.521 632.446,449.175 635.378,447.294C640.689,443.885 643.08,442.96 645.291,443.998C645.754,444.215 648.883,445.684 648.541,449.504C648.255,452.685 645.29,454.111 644.553,454.594Z" style="fill:rgb(49,25,46);"/>
                    <path d="M506.644,677.484C506.593,676.286 506.419,672.266 506.556,662.501C506.674,654.025 515.068,654.102 517.042,659.642C517.495,660.912 517.485,660.946 517.346,676.498C517.291,682.648 511.436,683.646 508.631,681.336C506.778,679.81 506.659,677.535 506.644,677.484Z" style="fill:rgb(49,25,46);"/>
                    <path d="M647.495,530.642C647.165,530.582 646.824,530.6 646.493,530.54C641.327,529.602 640.217,521.693 645.638,519.992C646.926,519.588 646.943,519.635 662.501,519.714C668.687,519.745 668.885,525.917 667.169,528.278C665.091,531.136 664.413,530.651 647.495,530.642Z" style="fill:rgb(49,25,46);"/>
                    <g transform="matrix(1.111847,0,0,1.111847,-142.817812,-166.40751)">
                        <circle cx="588.832" cy="622.007" r="7.505" style="fill:rgb(246,159,60);"/>
                    </g>
                    <path d="M512.504,303.13C513.179,303.183 513.861,303.108 514.537,303.161C516.924,303.349 516.53,305.287 516.511,310.5C516.504,312.367 516.674,314.098 515.921,314.888C515.619,315.205 515.009,315.846 510.495,315.606C507.499,315.446 507.734,314.495 507.693,311.496C507.628,306.81 507.385,303.844 508.418,303.372C508.951,303.128 512.176,303.13 512.504,303.13Z" style="fill:rgb(246,159,60);"/>
                    <path d="M621.425,335.643C622.694,336.412 622.797,336.315 623.02,336.784C623.584,337.967 622.081,339.629 621.98,339.801C621.158,341.196 619.836,344.353 618.495,344.426C617.653,344.472 617.712,344.231 613.4,341.659C611.168,340.327 612.273,338.878 614.378,335.422C615.023,334.364 615.89,333.028 617.514,333.458C617.622,333.487 621.113,335.466 621.425,335.643Z" style="fill:rgb(246,159,60);"/>
                    <path d="M382.412,288.542C382.511,288.863 383.981,290.975 381.518,292.525C377.38,295.129 377.11,295.025 376.37,294.874C375.607,294.719 375.021,293.534 373.763,291.36C371.994,288.303 372.925,287.217 374.027,286.064C375.785,284.223 378.812,283.365 381.312,286.634C381.618,287.034 381.585,287.043 382.412,288.542Z" style="fill:rgb(246,159,60);"/>
                    <path d="M650.618,290.55C650.263,291.191 649.636,292.374 649.552,292.533C648.372,294.76 647.82,294.831 647.649,294.896C646.133,295.472 646.146,294.922 644.772,294.043C641.433,291.907 639.871,291.479 641.599,288.554C642.288,287.388 644.22,283.901 647.486,284.56C650.118,285.092 651.224,288.117 651.011,289.414C650.946,289.809 650.683,290.155 650.618,290.55Z" style="fill:rgb(246,159,60);"/>
                    <path d="M411.074,337.723C411.638,339.139 412.109,339.113 411.675,340.57C411.349,341.662 406.511,344.364 405.598,344.114C404.071,343.697 401.31,337.684 401.298,337.506C401.206,336.161 402.61,336.044 405.349,334.263C407.382,332.942 408.025,332.563 409.229,334.657C410.123,336.209 410.098,336.207 411.074,337.723Z" style="fill:rgb(246,159,60);"/>
                </g>
            </g>
        </g>
    </g>
</svg>
