<?xml version="1.0" encoding="UTF-8" standalone="no"?>
<!DOCTYPE svg PUBLIC "-//W3C//DTD SVG 1.1//EN" "http://www.w3.org/Graphics/SVG/1.1/DTD/svg11.dtd">
<svg width="100%" height="100%" viewBox="0 0 543 526" version="1.1" xmlns="http://www.w3.org/2000/svg" xmlns:xlink="http://www.w3.org/1999/xlink" xml:space="preserve" xmlns:serif="http://www.serif.com/" style="fill-rule:evenodd;clip-rule:evenodd;stroke-linejoin:round;stroke-miterlimit:2;">
    <g transform="matrix(1,0,0,1,-8784.58523,-9215.900447)">
        <g transform="matrix(1.276754,0,0,2.756375,-2113.766445,-6854.068498)">
            <g id="Fondo" transform="matrix(0.675341,0,0,0.312818,8403.143585,5765.416176)">
                <g transform="matrix(0.853333,0,0,0.853333,0,0)">
                    <path d="M949.112,820.48C575.299,1050.345 248.765,820.9 248.765,820.9L269.312,786.829L929.548,786.84L949.112,820.48Z" style="fill:rgb(234,235,166);"/>
                </g>
                <path d="M396.093,396.249C399.793,389.75 418.754,358.481 420.163,356.303C420.708,355.461 421.148,354.781 426.621,345.571C428.743,342.001 436.952,328.644 437.159,328.28C440.998,321.504 463.462,284.955 463.659,284.592C464.317,283.383 470.147,273.619 470.778,272.68C471,272.348 472.556,270.03 473.419,268.451C474.459,266.548 477.551,261.724 477.633,261.577C478.845,259.397 478.875,259.431 500.658,223.598C505.826,215.096 505.689,215.027 506.143,214.291C509.541,208.783 509.493,208.772 509.6,208.557C510.114,207.526 510.35,206.716 511.455,206.818C512.55,206.918 512.196,207.538 514.335,210.609C514.458,210.785 522.107,223.55 522.201,223.686C523.926,226.205 533.517,242.465 534.283,243.626C535.104,244.871 538.891,251.195 539.207,251.674C541.913,255.783 549.691,269.273 553.235,274.668C553.48,275.042 607.207,364.014 607.982,365.203C608.998,366.762 612.764,373.003 613.176,373.684C620.438,385.718 620.397,385.728 621.046,386.762C624.623,392.46 633.919,408.22 634.718,409.36C635.674,410.722 650.607,435.435 650.608,435.435C651.428,437.063 651.612,436.931 652.501,438.499C656.537,445.621 656.938,445.361 660.833,452.319C661.543,453.588 667.647,463.397 668.7,465.392C670.582,468.955 670.808,468.806 672.864,472.275C675.283,476.357 675.555,476.172 677.822,480.311C679.472,483.323 682.138,487.434 682.684,488.396C684.467,491.538 684.591,491.445 686.433,494.546C688.026,497.227 692.94,504.977 695.89,510.273C696.858,512.012 698.564,514.45 699.709,516.384C706.223,527.388 706.27,527.338 706.82,528.303C708.903,531.96 709.12,531.88 712.864,538.274C716.861,545.098 717.112,544.936 718.112,546.733C722.582,554.757 722.895,554.559 724.094,556.734C726.795,561.632 727.084,561.439 729.896,566.282C730.13,566.684 732.591,570.923 732.831,571.298C736.349,576.797 736.137,576.911 739.603,582.434C741.755,585.864 741.617,585.92 743.739,589.353C751.108,601.275 756.445,610.44 757.256,611.652C760.895,617.09 763.856,623.366 768.248,629.669C768.751,630.391 773.382,638.344 774.245,639.656C776.755,643.472 777.398,644.961 779.113,647.749C780.512,650.024 780.536,649.989 781.872,652.285C783.203,654.572 793.178,670.384 793.234,671.531C793.247,671.788 793.298,672.828 791.234,674.049C786.637,676.768 786.667,676.81 786.255,677.023C785.556,677.384 780.773,679.854 777.644,681.764C775.739,682.927 774.746,683.225 773.67,683.817C763.355,689.494 759.638,691.167 758.629,691.742C754.407,694.149 748.126,696.77 745.761,697.984C736.815,702.579 726.59,706.808 719.621,709.783C713.267,712.496 705.61,715.2 705.408,715.283C698.475,718.15 694.177,719.32 690.603,720.747C685.796,722.666 657.344,731.889 635.538,736.666C620.709,739.915 620.742,739.986 619.448,740.238C603.342,743.371 599.381,743.743 596.461,744.301C577.394,747.946 542.81,749.96 540.476,750.045C535.222,750.235 529.416,751.182 500.496,750.884C492.354,750.8 468.002,749.016 464.483,748.69C433.247,745.804 420.132,742.871 407.458,740.759C402.124,739.871 397.229,738.506 393.448,737.736C376.944,734.379 363.745,730.356 362.366,729.998C352.672,727.483 352.028,727.111 336.355,721.894C318.371,715.908 314.01,713.509 308.457,711.617C306.959,711.107 307.013,711.024 305.534,710.42C304.474,709.987 295.676,706.393 292.353,704.823C284.144,700.945 284.079,701.104 283.371,700.757C279.673,698.947 279.645,699.023 279.326,698.863C266.813,692.574 266.754,692.731 265.694,692.135C262.531,690.353 255.314,686.852 250.623,684.267C249.338,683.559 236.364,676.412 234.635,675.281C232.158,673.663 232.084,673.813 230.838,673.048C230.711,672.971 229.873,672.457 229.799,671.519C229.735,670.708 235.012,662.264 240.793,652.666C253.578,631.439 253.602,631.47 254.685,629.608C256.968,625.686 270.485,603.784 273.164,599.299C281.827,584.795 281.891,584.844 282.589,583.552C283.59,581.699 286.74,576.692 287.406,575.446C288.15,574.055 288.408,574.212 297.661,558.593C299.13,556.112 315.186,529.83 319.101,523.269C327.537,509.135 334.549,498.162 340.749,487.636C344.439,481.372 349.846,472.584 350.934,470.749C354.571,464.613 354.736,464.742 355.042,464.205C355.573,463.277 357.123,460.566 361.877,452.717C380.286,422.33 380.4,422.416 381.864,419.697C382.327,418.836 386.72,411.655 388.117,409.268C389.81,406.373 389.908,406.454 391.636,403.583C395.71,396.813 395.743,396.84 396.093,396.249Z" style="fill:rgb(241,93,87);"/>
                <path d="M204.254,714.145C204.335,713.913 204.31,713.652 204.391,713.419C204.432,713.301 205.779,710.81 205.828,710.734C208.778,706.216 208.601,706.114 208.857,705.722C212.4,700.313 212.247,699.737 213.56,699.905C214.393,700.012 218.126,701.909 218.245,701.978C220.567,703.33 232.941,710.535 247.696,718.103C258.198,723.489 261.302,724.598 264.609,726.285C271.767,729.935 275.738,731.378 278.414,732.672C291.37,738.94 319.549,749.459 338.489,755.536C349.036,758.921 361.984,762.467 362.464,762.617C371.322,765.383 380.01,766.693 386.482,768.569C388.281,769.091 410.47,773.266 411.509,773.45C443.562,779.146 443.755,777.675 453.532,779.29C458.004,780.028 458,779.948 462.515,780.335C476.505,781.533 476.496,781.391 490.529,782.069C504.325,782.735 514.268,782.445 523.5,782.432C528.742,782.425 554.314,781.111 555.542,780.971C561.194,780.325 566.932,780.029 568.541,779.787C575.483,778.74 575.466,778.737 582.466,778.114C591.854,777.28 612.904,773.688 614.468,773.353C620.63,772.035 632.543,769.848 635.413,769.158C636.62,768.867 648.351,766.043 650.512,765.551C664.701,762.318 668.522,760.533 676.485,758.449C680.014,757.525 687.252,754.957 688.525,754.58C693.535,753.099 693.443,752.857 698.441,751.317C706.593,748.806 720.059,743.285 722.448,742.366C734.747,737.634 734.621,737.38 735.694,736.983C742.778,734.359 742.573,733.901 747.628,731.829C750.129,730.804 750.038,730.635 752.533,729.573C762.778,725.212 762.57,724.794 763.465,724.427C770.954,721.351 786.681,712.477 791.299,710.165C792.488,709.569 802.152,704.123 802.235,704.067C802.787,703.695 807.752,700.344 809.445,699.924C810.759,699.597 818.623,713.881 819.553,715.443C819.229,715.588 818.179,716.101 812.756,718.939C812.659,718.99 812.671,719.005 811.578,719.635C803.171,724.48 784.523,734.826 778.467,737.427C776.59,738.234 774.659,739.608 768.444,742.378C766.727,743.143 759.486,746.934 753.453,749.388C750.839,750.452 746.262,752.539 745.64,752.823C744.761,753.224 744.717,753.111 734.494,757.487C732.957,758.145 718.16,764.002 714.412,765.24C710.59,766.502 691.893,773.597 674.471,778.388C672.301,778.985 666.753,780.924 660.456,782.313C648.437,784.964 648.622,785.751 629.478,789.394C622.013,790.814 618.811,791.907 599.53,794.712C595.921,795.237 560.191,801.388 507.5,801.074C493.26,800.989 459.821,799.408 445.518,797.348C444.643,797.222 444.648,797.254 434.547,796C433.101,795.821 433.13,795.686 416.516,793.389C413.573,792.983 404.621,791.221 403.589,791.018C401.691,790.644 389.122,788.678 372.527,784.393C367.606,783.123 362.223,782.199 352.614,779.152C347.388,777.495 341.104,776.17 334.414,773.748C330.389,772.291 314.281,767.488 297.445,760.649C292.697,758.72 292.583,759.05 284.502,755.496C278.915,753.038 278.8,753.334 271.379,749.764C270.593,749.386 263.301,746.452 258.715,744.078C254.529,741.912 254.415,742.19 246.697,738.116C242.631,735.969 238.649,734.34 232.371,730.723C231.133,730.01 231.111,730.093 216.69,722.163C215.782,721.664 204.668,714.675 204.254,714.145Z" style="fill:rgb(158,193,66);"/>
                <path d="M204.254,714.145C204.668,714.675 215.782,721.664 216.69,722.163C231.111,730.093 231.133,730.01 232.371,730.723C238.649,734.34 242.631,735.969 246.697,738.116C254.415,742.19 254.529,741.912 258.715,744.078C263.301,746.452 270.593,749.386 271.379,749.764C278.8,753.334 278.915,753.038 284.502,755.496C292.583,759.05 292.697,758.72 297.445,760.649C314.281,767.488 330.389,772.291 334.414,773.748C341.104,776.17 347.388,777.495 352.614,779.152C362.223,782.199 367.606,783.123 372.527,784.393C389.122,788.678 401.691,790.644 403.589,791.018C404.621,791.221 413.573,792.983 416.516,793.389C433.13,795.686 433.101,795.821 434.547,796C444.648,797.254 444.643,797.222 445.518,797.348C459.821,799.408 493.26,800.989 507.5,801.074C560.191,801.388 595.921,795.237 599.53,794.712C618.811,791.907 622.013,790.814 629.478,789.394C648.622,785.751 648.437,784.964 660.456,782.313C666.753,780.924 672.301,778.985 674.471,778.388C691.893,773.597 710.59,766.502 714.412,765.24C718.16,764.002 732.957,758.145 734.494,757.487C744.717,753.111 744.761,753.224 745.64,752.823C746.262,752.539 750.839,750.452 753.453,749.388C759.486,746.934 766.727,743.143 768.444,742.378C774.659,739.608 776.59,738.234 778.467,737.427C784.523,734.826 803.171,724.48 811.578,719.635C812.671,719.005 812.659,718.99 812.756,718.939C818.179,716.101 819.229,715.588 819.553,715.443C822.577,719.642 827.386,726.88 826.228,728.229C826.058,728.427 820.482,731.173 817.333,733.233C814.514,735.077 808.048,738.104 806.759,738.914C800.568,742.803 781.901,751.852 779.708,752.915C772.634,756.345 770.401,757.707 766.426,759.334C763.716,760.444 759.204,762.879 756.306,764.033C745.244,768.438 743.14,770.342 714.589,780.741C707.195,783.434 707.16,783.319 706.519,783.557C697.843,786.786 684.921,790.525 684.547,790.649C677.228,793.088 677.163,792.81 665.368,796.033C648.26,800.707 627.498,805.002 621.563,805.909C603.687,808.642 603.919,810.46 552.506,814.577C534.97,815.981 512.942,815.95 509.5,815.945C488.251,815.915 447.947,814.043 408.419,806.938C407.461,806.766 397.752,805.021 396.441,804.812C392.785,804.231 378.04,800.848 376.49,800.546C368.108,798.91 358.664,796.182 355.54,795.357C342.218,791.843 342.376,791.377 336.434,789.716C328.599,787.525 321.555,785.037 320.434,784.712C317.22,783.78 299.015,777.215 294.543,775.394C290.289,773.662 279.963,769.661 278.327,768.903C270.786,765.413 263.987,762.903 249.356,755.799C231.302,747.034 223.116,742.428 222.245,741.998C217.827,739.817 217.971,739.571 213.608,737.294C209.03,734.904 209.076,734.865 204.604,732.314C198.857,729.035 198.838,729.077 198.34,728.789C195.365,727.071 196.95,726.165 199.113,722.278C202.664,715.897 203.046,715.759 204.254,714.145Z" style="fill:rgb(53,104,49);"/>
                <path d="M454.172,410.524C454.152,409.882 454.011,405.277 454.44,402.492C456.397,389.796 462.544,383.74 466.503,383.543C469.269,383.405 471.515,385.948 472.01,386.828C475.438,392.936 474.359,400.671 473.883,404.56C472.841,413.074 466.101,423.857 460.557,422.234C454.749,420.534 454.274,411.489 454.172,410.524Z" style="fill:rgb(75,28,40);"/>
                <path d="M519.003,553.697C519.154,554.154 520.729,558.06 521.272,563.519C521.855,569.397 521.055,578.936 517.437,583.453C513.412,588.478 510.017,588.246 506.34,583.615C499.61,575.137 501.672,549.04 511.508,547.558C515.972,546.885 518.96,553.624 519.003,553.697Z" style="fill:rgb(75,28,40);"/>
                <path d="M558.033,507.486C558.067,506.412 558.287,499.403 561.517,494.512C562.143,493.563 563.946,492.026 565.547,491.794C572.327,490.814 577.705,504.234 577.719,514.499C577.721,515.632 577.732,523.537 574.106,528.197C568.868,534.926 561.708,528.709 558.877,516.427C557.863,512.027 557.962,512.008 558.033,507.486Z" style="fill:rgb(75,28,40);"/>
                <path d="M552.363,412.558C552.309,412.419 549.2,406.736 549.8,395.523C550.076,390.362 552.229,385.855 554.519,384.529C563.276,379.458 571.8,398.674 569.232,412.446C567.348,422.552 562.246,423.58 558.65,421.277C557.145,420.313 557.211,420.249 556.081,418.888C554.146,416.557 554.221,416.505 552.363,412.558Z" style="fill:rgb(75,28,40);"/>
                <path d="M465.888,509.516C465.691,515.645 463.577,521.79 462.19,524.333C461.416,525.752 458.296,531.228 454.524,531.028C447.371,530.651 443.57,514.485 448.703,501.579C448.939,500.985 451.097,495.069 454.645,492.729C457.704,490.712 461.718,491.438 463.86,497.359C466.374,504.312 465.885,508.213 465.888,509.516Z" style="fill:rgb(75,28,40);"/>
                <path d="M435.475,598.439C436.285,598.175 438.047,597.054 440.658,598.126C442.129,598.729 442.017,598.888 442.995,600.151C446.844,605.12 443.288,616.053 439.736,621.637C438.602,623.419 436.728,626.469 435.466,627.466C434.646,628.113 432.515,630.565 430.536,631.567C417.572,638.137 416.882,620.722 425.141,608.267C429.9,601.09 433.34,599.511 435.475,598.439Z" style="fill:rgb(75,28,40);"/>
                <path d="M588.534,598.415C589.373,598.844 592.775,600.15 597.149,605.756C606.665,617.951 606.393,635.936 595.468,632.598C591.732,631.457 587.475,626.872 586.946,626.149C575.583,610.629 578.375,595.313 587.366,597.972C587.766,598.09 588.135,598.297 588.534,598.415Z" style="fill:rgb(75,28,40);"/>
                <path d="M627.868,546.277C626.82,544.069 624.86,540.864 624.379,536.513C623.399,527.634 630.124,524.145 640.608,532.356C648.16,538.27 656.812,553.539 649.345,559.248C645.759,561.989 635.665,558.207 627.868,546.277Z" style="fill:rgb(75,28,40);"/>
                <path d="M371.866,550.551C372.233,548.926 372.367,547.911 373.122,546.326C373.95,544.588 375.533,540.321 380.848,534.815C381.366,534.278 383.864,531.689 388.444,529.398C401.323,522.954 404.101,536.92 392.163,551.234C387.923,556.318 381.934,559.952 378.47,560.193C369.936,560.786 371.828,550.987 371.866,550.551Z" style="fill:rgb(75,28,40);"/>
            </g>
        </g>
    </g>
</svg>
