<?xml version="1.0" encoding="UTF-8" standalone="no"?>
<!DOCTYPE svg PUBLIC "-//W3C//DTD SVG 1.1//EN" "http://www.w3.org/Graphics/SVG/1.1/DTD/svg11.dtd">
<svg width="100%" height="100%" viewBox="0 0 781 811" version="1.1" xmlns="http://www.w3.org/2000/svg" xmlns:xlink="http://www.w3.org/1999/xlink" xml:space="preserve" xmlns:serif="http://www.serif.com/" style="fill-rule:evenodd;clip-rule:evenodd;stroke-linecap:round;stroke-linejoin:round;stroke-miterlimit:1.5;">
    <g transform="matrix(1,0,0,1,-1822.474278,-1648.969432)">
        <g transform="matrix(1,0,0,1,-0.394062,45.840992)">
            <g transform="matrix(1.195522,0,0,1.195522,-432.052833,-330.946726)">
                <g transform="matrix(0.828851,0,0,0.828851,1886.138422,1617.765768)">
                    <path d="M145.295,143.097C200.893,183.406 211.55,249.429 211.55,249.429L227.535,245.375C227.535,245.375 210.103,160.24 150.364,134.526"/>
                    <path d="M642.826,143.097C587.228,183.406 576.571,249.429 576.571,249.429L560.586,245.375C560.586,245.375 578.018,160.24 637.757,134.526"/>
                    <path d="M632.774,143.794C632.774,143.794 640.683,100.025 651.46,93.54C667.264,84.028 687.818,89.136 697.33,104.94C706.842,120.744 701.734,141.298 685.93,150.81C675.154,157.296 632.775,143.794 632.775,143.794L632.774,143.794Z" style="fill:rgb(251,102,166);"/>
                    <path d="M155.347,143.794C155.347,143.794 147.438,100.025 136.661,93.54C120.857,84.028 100.303,89.136 90.791,104.94C81.279,120.744 86.387,141.298 102.191,150.81C112.967,157.296 155.346,143.794 155.346,143.794L155.347,143.794Z" style="fill:rgb(251,102,166);"/>
                </g>
                <g transform="matrix(0.828851,0,0,0.828851,1886.138837,1617.765768)">
                    <g>
                        <path d="M645.855,670.454L645.855,385.924C724.426,385.924 788.12,449.618 788.12,528.189C788.12,606.76 724.426,670.454 645.855,670.454Z"/>
                        <path d="M142.265,670.454L142.265,385.924C63.694,385.924 0,449.618 0,528.189C0,606.76 63.694,670.454 142.265,670.454Z"/>
                    </g>
                    <g transform="matrix(1,0,0,1,-0.0005,0)">
                        <path d="M267.705,295.447L520.416,295.447C520.416,225.663 463.845,169.092 394.061,169.092C324.277,169.092 267.706,225.663 267.706,295.447L267.705,295.447Z"/>
                    </g>
                    <path d="M725.931,383.108L725.931,673.271C725.931,753.344 660.922,818.353 580.849,818.353L207.271,818.353C127.198,818.353 62.189,753.344 62.189,673.271L62.189,383.108C62.189,303.035 127.198,238.026 207.271,238.026L580.849,238.026C660.922,238.026 725.931,303.035 725.931,383.108Z" style="fill:rgb(251,102,166);"/>
                    <g transform="matrix(1,0,0,1,-0.0005,-0)">
                        <path d="M681.801,409.555L681.801,646.824C681.801,712.3 628.643,765.458 563.167,765.458L224.954,765.458C159.478,765.458 106.32,712.3 106.32,646.824L106.32,409.555C106.32,344.079 159.478,290.921 224.954,290.921L563.167,290.921C628.643,290.921 681.801,344.079 681.801,409.555Z" style="fill:white;"/>
                    </g>
                    <rect x="384.317" y="61.156" width="17.645" height="175.606"/>
                    <g transform="matrix(1,0,0,1,-0.0005,0)">
                        <ellipse cx="249.377" cy="490.958" rx="39.24" ry="61.779"/>
                        <ellipse cx="538.744" cy="490.958" rx="39.24" ry="61.779"/>
                        <g>
                            <ellipse cx="551.194" cy="460.239" rx="8.749" ry="13.774" style="fill:white;"/>
                            <ellipse cx="263.059" cy="460.239" rx="8.749" ry="13.774" style="fill:white;"/>
                        </g>
                    </g>
                    <g>
                        <ellipse cx="198.231" cy="649.767" rx="52.484" ry="35.227" style="fill:rgb(204,90,128);"/>
                        <ellipse cx="589.889" cy="649.767" rx="52.484" ry="35.227" style="fill:rgb(204,90,128);"/>
                    </g>
                    <g transform="matrix(1,0,0,1,0.9205,0)">
                        <rect x="384.317" y="61.156" width="17.645" height="175.606"/>
                    </g>
                    <g transform="matrix(1,0,0,1,0.92,0)">
                        <circle cx="393.14" cy="50.895" r="50.895" style="fill:rgb(251,102,166);"/>
                    </g>
                </g>
                <g transform="matrix(0.828851,0,0,0.828851,1886.138837,1617.765768)">
                    <path d="M264.819,343.019C264.819,343.019 265.252,347.14 258.017,348.917C258.017,348.917 234.956,353.999 220.787,369.448C220.787,369.448 217.014,373.671 213.797,371.573C213.797,371.573 210.163,369.368 212.34,365.284C212.34,365.284 224.987,335.34 257.799,336.164C257.799,336.164 264.558,336.432 264.818,343.019" style="stroke:black;stroke-width:2.34px;"/>
                    <path d="M523.302,343.019C523.302,343.019 522.869,347.14 530.104,348.917C530.104,348.917 553.165,353.999 567.334,369.448C567.334,369.448 571.107,373.671 574.324,371.573C574.324,371.573 577.958,369.368 575.781,365.284C575.781,365.284 563.134,335.34 530.322,336.164C530.322,336.164 523.563,336.432 523.303,343.019" style="stroke:black;stroke-width:2.34px;"/>
                </g>
                <g transform="matrix(0.828851,0,0,0.828851,1886.138837,1617.765768)">
                    <g>
                        <path d="M190.466,419.165L195.716,411.893L214.391,430.561L190.466,419.165Z" style="stroke:black;stroke-width:2.34px;"/>
                        <path d="M204.884,402.768L212.187,397.561L223.898,421.228L204.884,402.769L204.884,402.768Z" style="stroke:black;stroke-width:2.34px;"/>
                    </g>
                    <g>
                        <path d="M597.655,419.165L592.405,411.893L573.73,430.561L597.655,419.165Z" style="stroke:black;stroke-width:2.34px;"/>
                        <path d="M583.237,402.768L575.934,397.561L564.223,421.228L583.237,402.769L583.237,402.768Z" style="stroke:black;stroke-width:2.34px;"/>
                    </g>
                </g>
                <g transform="matrix(0.828851,0,0,0.828851,1886.138837,1617.765768)">
                    <path d="M312.052,609.801C323.154,631.429 356.079,648.988 394.06,648.988C432.041,648.988 464.965,631.429 476.068,609.801C470.539,638.854 435.696,662.442 394.06,662.442C352.424,662.442 317.581,638.854 312.052,609.801Z"/>
                </g>
            </g>
        </g>
    </g>
</svg>
