<?xml version="1.0" encoding="UTF-8" standalone="no"?>
<!DOCTYPE svg PUBLIC "-//W3C//DTD SVG 1.1//EN" "http://www.w3.org/Graphics/SVG/1.1/DTD/svg11.dtd">
<svg width="100%" height="100%" viewBox="0 0 517 684" version="1.1" xmlns="http://www.w3.org/2000/svg" xmlns:xlink="http://www.w3.org/1999/xlink" xml:space="preserve" xmlns:serif="http://www.serif.com/" style="fill-rule:evenodd;clip-rule:evenodd;stroke-linecap:round;stroke-linejoin:round;stroke-miterlimit:1;">
    <g transform="matrix(1,0,0,1,-370.135876,-2752.167758)">
        <g transform="matrix(1,0,0,1,-13.343921,107.519542)">
            <g transform="matrix(1,0,0,1,-0,0.727491)">
                <g id="Fondo" transform="matrix(1.020309,0,0,1.020309,298.288645,2520.764299)">
                    <g transform="matrix(0.919691,0,0,0.919691,28.659056,28.093198)">
                        <path d="M327.522,222.957C330.753,222.872 427.305,220.301 497.29,266.817C515.399,278.854 599.007,336.37 609.341,471.508C609.824,477.815 612.485,512.613 607.771,550.552C606.206,563.151 596.445,641.716 547.195,697.237C527.381,719.573 522.017,719.037 525.679,722.304C542.504,737.317 555.425,741.511 561.294,743.94C581.612,752.346 590.798,771.424 589.636,786.509C586.199,831.13 534.857,843.188 486.8,812.043C455.591,791.816 445.36,772.191 442.486,772.299C436.372,772.529 432.992,779.847 372.53,786.862C362.692,788.004 323.216,788.339 308.477,786.766C182.42,773.314 125.927,711.082 96.32,658.604C22.76,528.221 40.964,230.566 327.522,222.957Z" style="fill:rgb(124,218,243);"/>
                    </g>
                    <g transform="matrix(0.976495,0,0,0.976495,7.917139,2.663664)">
                        <path d="M168.126,499.494C169.226,473.256 172.48,422.031 207.974,376.895C242.123,333.469 301.825,325.825 316.49,325.287C342.211,324.342 453.77,314.251 492.273,421.591C511.176,474.291 516.96,580.225 462.314,638.324C407.905,696.171 296.994,699.206 235.237,657.883C162.152,608.981 168.104,510.614 168.126,499.494Z" style="fill:rgb(254,254,253);"/>
                    </g>
                </g>
                <g transform="matrix(0.788406,0,0,0.788406,143.861188,2582.637587)">
                    <path d="M561.712,620.401C608.709,663.366 655.707,663.374 702.704,620.401" style="fill:none;stroke:black;stroke-width:21.67px;"/>
                </g>
                <g transform="matrix(0.741844,0,0,0.741844,262.923073,2653.225706)">
                    <path d="M587.038,450.485C587.682,440.185 593.01,420.555 606.783,411.96C617.857,405.051 632.336,409.769 640.006,420.864C667.227,460.243 642.03,526.142 607.694,508.159C584.108,495.806 586.721,455.376 587.038,450.485Z"/>
                </g>
                <g transform="matrix(0.741844,0,0,0.741844,262.923073,2653.225706)">
                    <path d="M403.496,511.038C355.894,509.122 360.68,403.574 406.446,408.996C434.09,412.271 446.985,477.118 419.16,504.141C412.921,510.199 404.86,510.917 403.496,511.038Z"/>
                </g>
                <g transform="matrix(0.741844,0,0,0.741844,262.923073,2653.225706)">
                    <path d="M629.859,570.526C636.346,534.249 700.662,541.493 701.086,571.505C701.561,605.034 630.504,610.218 629.859,570.526Z" style="fill:rgb(228,86,123);"/>
                </g>
                <g transform="matrix(0.741844,0,0,0.741844,262.923073,2653.225706)">
                    <path d="M320.823,574.466C320.85,571.333 320.026,567.657 324.094,561.246C340.968,534.649 390.903,546.149 391.879,570.468C393.284,605.441 326.043,608.564 320.823,574.466Z" style="fill:rgb(228,86,123);"/>
                </g>
                <g transform="matrix(0.751352,0,0,1,157.642333,28.337571)">
                    <rect x="627.864" y="2665.827" width="32.859" height="107.014" style="fill:rgb(124,218,243);"/>
                </g>
                <g transform="matrix(1,0,0,1,-11.184254,26.057165)">
                    <circle cx="653.138" cy="2652.477" r="34.614" style="fill:rgb(124,218,243);"/>
                </g>
            </g>
        </g>
    </g>
</svg>
