<?xml version="1.0" encoding="UTF-8" standalone="no"?>
<!DOCTYPE svg PUBLIC "-//W3C//DTD SVG 1.1//EN" "http://www.w3.org/Graphics/SVG/1.1/DTD/svg11.dtd">
<svg width="100%" height="100%" viewBox="0 0 1267 429" version="1.1" xmlns="http://www.w3.org/2000/svg" xmlns:xlink="http://www.w3.org/1999/xlink" xml:space="preserve" xmlns:serif="http://www.serif.com/" style="fill-rule:evenodd;clip-rule:evenodd;stroke-linejoin:round;stroke-miterlimit:2;">
    <g transform="matrix(1,0,0,1,-106.778438,-498.337436)">
        <g transform="matrix(1.170529,0,0,0.858748,1618.937817,187.533932)">
            <g>
                <g transform="matrix(0.605655,0,0,0.973285,-2748.936682,-1012.129311)">
                    <g transform="matrix(2.311476,0,0,1.960611,2156.77228,1239.599613)">
                        <path d="M207.489,116.359C330.375,102.44 370.895,228.114 318.401,289.414C314.065,294.477 320.517,293.38 335.232,308.748C354.898,329.287 328.812,353.476 313.541,348.347C285.879,339.056 282.22,324.354 276.434,327.366C244.867,343.796 197.465,348.554 158.27,328.985C120.876,310.315 110.276,270.324 108.87,256.451C103.997,208.364 115.514,186.388 128.651,164.594C131.806,159.361 160.625,121.914 207.489,116.359Z" style="fill:rgb(124,218,243);"/>
                    </g>
                    <g transform="matrix(2.367662,0,0,2.021929,1997.129376,1221.810408)">
                        <path d="M562.558,317.217C562.261,317.271 562.043,316.759 561.746,316.813C561.422,316.872 557.505,339.972 540.359,346.128C534.964,348.066 520.556,348.282 512.594,340.398C506.571,334.433 496.81,324.768 497.575,235.501C497.592,233.548 499.395,145.567 507.028,122.347C513.964,101.247 526.143,89.681 552.524,95.412C579.371,101.244 575.477,141.105 575.05,145.476C572.205,174.61 569.711,188.359 572.597,182.661C585.258,157.653 624.476,146.751 654.258,166.848C694.22,193.816 693.895,289.981 661.549,323.546C649.86,335.676 641.885,341.281 619.457,345.237C611.854,346.577 576.846,348.491 563.361,317.607C563.094,317.477 562.826,317.347 562.558,317.217Z" style="fill:rgb(124,218,243);"/>
                    </g>
                    <g transform="matrix(2.072369,0,0,1.757799,2215.463727,1313.523653)">
                        <path d="M721.513,347.119C717.223,346.646 706.85,344.86 699.646,330.426C690.28,311.662 680.347,215.026 716.712,179.727C723.881,172.768 734.909,171.249 739.46,172.651C746.54,174.832 755.6,177.626 763.004,199.681C769.24,218.255 770.443,258.79 767.079,290.45C760.42,353.116 726.272,347.082 721.513,347.119Z" style="fill:rgb(124,218,243);"/>
                    </g>
                    <g transform="matrix(1.472348,0,0,2.191065,2444.641575,1166.732563)">
                        <path d="M450.493,263.206C373.597,264.213 368.069,265.061 361.335,254.609C359.47,251.714 351.59,226.808 373.392,220.128C383.946,216.895 384.21,219.683 444.505,217.632C451.264,217.403 482.35,212.468 477.05,245.429C476.756,247.262 475.452,255.48 466.311,260.138C460.754,262.97 451.782,263.176 450.493,263.206Z" style="fill:rgb(124,218,243);stroke:rgb(124,218,243);stroke-width:0.67px;"/>
                    </g>
                    <g transform="matrix(1.691213,0,0,1.237225,2499.240409,1393.754099)">
                        <path d="M731.502,162.802C724.613,162.551 716.019,162.737 705.078,152.961C686.173,136.07 691.064,91.457 732.489,91.052C777.652,90.61 778.992,147.044 749.451,159.393C740.904,162.966 740.751,162.464 731.502,162.802Z" style="fill:rgb(124,218,243);"/>
                    </g>
                    <g transform="matrix(3.455353,0,0,2.930856,686.354696,953.070422)">
                        <path d="M615.795,249.492C615.792,249.969 617.968,278.867 601.392,290.335C586.927,300.343 559.293,286.029 566.129,237.454C570.333,207.577 606.523,200.553 614.315,235.537C615.343,240.15 615.741,248.371 615.795,249.492Z" style="fill:rgb(49,27,66);"/>
                    </g>
                    <g transform="matrix(3.252775,0,0,2.759028,2396.481012,1347.043657)">
                        <path d="M498.5,209.034C496.777,208.957 459.496,214.008 471.925,146.58C474.26,133.913 477.601,127.805 474.474,128.292C463.934,129.933 463.697,131.842 453.654,128.085C432.269,120.086 436.137,75.468 473.434,82.801C479.325,83.959 474.104,74.945 478.797,62.622C486.579,42.188 525.096,43.457 518.596,74.519C517.716,78.722 514.99,83.612 517.493,82.828C540.722,75.554 555.696,88.954 551.111,109.407C546.771,128.766 520.492,125.54 517.547,125.178C514.817,124.843 511.793,124.052 512.568,126.484C521.475,154.428 539.858,206.936 498.5,209.034Z" style="fill:rgb(124,218,243);"/>
                    </g>
                    <g transform="matrix(3.725244,0,0,3.15978,2193.189449,1262.106994)">
                        <path d="M324.499,122.035C347.804,122.896 343.17,163.622 332.205,171.099C308.419,187.317 295.715,123.663 324.499,122.035Z" style="fill:rgb(49,27,66);"/>
                    </g>
                </g>
            </g>
        </g>
    </g>
</svg>
