<?xml version="1.0" encoding="UTF-8" standalone="no"?>
<!DOCTYPE svg PUBLIC "-//W3C//DTD SVG 1.1//EN" "http://www.w3.org/Graphics/SVG/1.1/DTD/svg11.dtd">
<svg width="100%" height="100%" viewBox="0 0 795 826" version="1.1" xmlns="http://www.w3.org/2000/svg" xmlns:xlink="http://www.w3.org/1999/xlink" xml:space="preserve" xmlns:serif="http://www.serif.com/" style="fill-rule:evenodd;clip-rule:evenodd;stroke-linecap:round;stroke-linejoin:round;stroke-miterlimit:1;">
    <g transform="matrix(1,0,0,1,-1814.988862,-292.201848)">
        <g transform="matrix(0.53138,0,0,0.626474,459.447632,0.8585)">
            <g transform="matrix(1.384564,0,0,1.384564,-1268.59914,47.21023)">
                <g transform="matrix(1,0,0,1,-0,-21.644242)">
                    <g transform="matrix(1.010868,0,0,0.982598,-35.851105,9.834485)">
                        <g transform="matrix(-0,1.340034,-1.53566,-0,5637.236419,413.500692)">
                            <path d="M521.557,1300.441L270.336,1300.441C270.336,1231.068 326.574,1174.83 395.947,1174.83C465.319,1174.83 521.557,1231.068 521.557,1300.441Z"/>
                        </g>
                        <g transform="matrix(0,1.340034,1.53566,-0,960.3555,413.500692)">
                            <path d="M521.557,1300.441L270.336,1300.441C270.336,1231.068 326.574,1174.83 395.947,1174.83C465.319,1174.83 521.557,1231.068 521.557,1300.441Z"/>
                        </g>
                        <g transform="matrix(-1.53566,0,0,1.340034,3906.835346,-1059.154877)">
                            <path d="M521.557,1300.441L270.336,1300.441C270.336,1231.068 326.574,1174.83 395.947,1174.83C465.319,1174.83 521.557,1231.068 521.557,1300.441Z"/>
                        </g>
                        <g transform="matrix(1.264706,0,0,0.964903,1990.100307,-364.129972)">
                            <path d="M1390.58,1177.899L1390.58,1533.696C1390.58,1631.88 1320.884,1711.594 1235.038,1711.594L834.527,1711.594C748.681,1711.594 678.986,1631.88 678.986,1533.696L678.986,1177.899C678.986,1079.714 748.681,1000 834.527,1000L1235.038,1000C1320.884,1000 1390.58,1079.714 1390.58,1177.899Z" style="fill:rgb(124,218,243);"/>
                        </g>
                        <g transform="matrix(1.096535,0,0,0.78901,2164.120794,-125.654154)">
                            <path d="M1390.58,1177.899L1390.58,1533.696C1390.58,1631.88 1324.848,1711.594 1243.886,1711.594L825.679,1711.594C744.717,1711.594 678.986,1631.88 678.986,1533.696L678.986,1177.899C678.986,1079.714 744.717,1000 825.679,1000L1243.886,1000C1324.848,1000 1390.58,1079.714 1390.58,1177.899Z" style="fill:white;"/>
                        </g>
                        <g transform="matrix(0.975416,0,0,1.340034,2119.798695,-824.45652)">
                            <circle cx="1024.408" cy="1269.785" r="49.986"/>
                        </g>
                        <g transform="matrix(0.975416,0,0,1.340034,2479.345355,-824.45652)">
                            <circle cx="1024.408" cy="1269.785" r="49.986"/>
                        </g>
                        <g>
                            <g transform="matrix(1.53566,0,0,0.899424,1492.983209,-221.297032)">
                                <circle cx="991.127" cy="1440.579" r="37.526" style="fill:rgb(204,90,128);"/>
                            </g>
                            <g transform="matrix(1.53566,0,0,0.899424,2060.540707,-221.297032)">
                                <circle cx="991.127" cy="1440.579" r="37.526" style="fill:rgb(204,90,128);"/>
                            </g>
                        </g>
                        <g transform="matrix(1.53566,0,0,1.340034,1539.399165,-878.682393)">
                            <path d="M1060.402,1416.652C1058.069,1415.096 1140.426,1509.294 1231.034,1416.652" style="fill:none;stroke:black;stroke-width:13.13px;"/>
                        </g>
                        <g transform="matrix(1.53566,0,0,1.340034,1333.256584,-740.756859)">
                            <rect x="1271.329" y="844.951" width="15.58" height="155.049"/>
                        </g>
                        <g transform="matrix(1.870463,0,0,1.632187,1085.563186,-1007.53517)">
                            <circle cx="1182.587" cy="849.72" r="36.893" style="fill:rgb(124,218,243);"/>
                        </g>
                    </g>
                    <g transform="matrix(-0,1.316715,-1.55235,-0,5662.650441,416.139321)">
                        <path d="M521.557,1300.441L270.336,1300.441C270.336,1231.068 326.574,1174.83 395.947,1174.83C465.319,1174.83 521.557,1231.068 521.557,1300.441Z"/>
                    </g>
                    <g transform="matrix(0,1.316715,1.55235,-0,934.941477,416.139321)">
                        <path d="M521.557,1300.441L270.336,1300.441C270.336,1231.068 326.574,1174.83 395.947,1174.83C465.319,1174.83 521.557,1231.068 521.557,1300.441Z"/>
                    </g>
                    <g transform="matrix(-1.55235,0,0,1.316715,3913.443479,-1030.888676)">
                        <path d="M521.557,1300.441L270.336,1300.441C270.336,1231.068 326.574,1174.83 395.947,1174.83C465.319,1174.83 521.557,1231.068 521.557,1300.441Z"/>
                    </g>
                    <g transform="matrix(1.278451,0,0,0.948111,1975.877486,-347.958793)">
                        <path d="M1390.58,1177.899L1390.58,1533.696C1390.58,1631.88 1320.884,1711.594 1235.038,1711.594L834.527,1711.594C748.681,1711.594 678.986,1631.88 678.986,1533.696L678.986,1177.899C678.986,1079.714 748.681,1000 834.527,1000L1235.038,1000C1320.884,1000 1390.58,1079.714 1390.58,1177.899Z" style="fill:rgb(124,218,243);"/>
                    </g>
                    <g transform="matrix(1.108452,0,0,0.775279,2151.789217,-113.632999)">
                        <path d="M1390.58,1177.899L1390.58,1533.696C1390.58,1631.88 1324.848,1711.594 1243.886,1711.594L825.679,1711.594C744.717,1711.594 678.986,1631.88 678.986,1533.696L678.986,1177.899C678.986,1079.714 744.717,1000 825.679,1000L1243.886,1000C1324.848,1000 1390.58,1079.714 1390.58,1177.899Z" style="fill:white;"/>
                    </g>
                    <g transform="matrix(0.986017,0,0,1.316715,2106.985427,-800.274608)">
                        <circle cx="1024.408" cy="1269.785" r="49.986"/>
                    </g>
                    <g transform="matrix(0.986017,0,0,1.316715,2470.439617,-800.274608)">
                        <circle cx="1024.408" cy="1269.785" r="49.986"/>
                    </g>
                    <g transform="matrix(1.010868,0,0,0.982598,-35.851105,9.834485)">
                        <g transform="matrix(1.53566,0,0,0.899424,1492.983209,-221.297032)">
                            <circle cx="991.127" cy="1440.579" r="37.526" style="fill:rgb(204,90,128);"/>
                        </g>
                        <g transform="matrix(1.53566,0,0,0.899424,2060.540707,-221.297032)">
                            <circle cx="991.127" cy="1440.579" r="37.526" style="fill:rgb(204,90,128);"/>
                        </g>
                    </g>
                    <g transform="matrix(1.55235,0,0,1.316715,1311.895227,-718.031512)">
                        <rect x="1271.329" y="844.951" width="15.58" height="155.049"/>
                    </g>
                    <g transform="matrix(1.890791,0,0,1.603783,1061.509913,-980.16727)">
                        <circle cx="1182.587" cy="849.72" r="36.893" style="fill:rgb(124,218,243);"/>
                    </g>
                </g>
                <g transform="matrix(1.881892,0,0,1.596235,2109.04902,-13.629333)">
                    <path d="M561.712,620.401C608.709,663.366 655.707,663.374 702.704,620.401" style="fill:none;stroke:black;stroke-width:16.85px;"/>
                </g>
            </g>
        </g>
    </g>
</svg>
