<?xml version="1.0" encoding="UTF-8" standalone="no"?>
<!DOCTYPE svg PUBLIC "-//W3C//DTD SVG 1.1//EN" "http://www.w3.org/Graphics/SVG/1.1/DTD/svg11.dtd">
<svg width="100%" height="100%" viewBox="0 0 795 781" version="1.1" xmlns="http://www.w3.org/2000/svg" xmlns:xlink="http://www.w3.org/1999/xlink" xml:space="preserve" xmlns:serif="http://www.serif.com/" style="fill-rule:evenodd;clip-rule:evenodd;stroke-linecap:round;stroke-linejoin:round;stroke-miterlimit:1;">
    <g transform="matrix(1,0,0,1,-231.486014,-1591.058812)">
        <g transform="matrix(0.955274,0,0,1,41.101188,73.18165)">
            <g>
                <g id="Fondo" transform="matrix(1.04682,0,0,1,80.474915,1397.941449)">
                    <path d="M285.51,831.163C277.8,830.577 270.006,829.114 258.871,818.139C196.422,756.588 196.21,756.171 192.752,749.367C182.283,728.77 194.122,717.548 219.948,679.813C230.837,663.903 233.715,662.719 227.049,649.726C218.756,633.562 211.945,611.714 209.509,605.496C205.95,596.409 203.234,598.312 149.427,586.807C110.542,578.492 113.578,558.442 113.61,514.501C113.644,467.947 109.729,443.261 147.579,434.903C200.799,423.151 204.991,426.602 209.745,413.59C220.176,385.038 221.152,385.52 230.04,364.326C232.594,358.236 230.881,356.388 211.132,327.756C196.263,306.198 173.589,284.204 204.054,255.043C235.315,225.122 259.173,196.83 273.696,190.992C294.607,182.585 306.302,192.674 352.808,227.079C367.848,238.206 369.278,224.2 414.593,210.866C431.875,205.78 427.152,199.895 437.173,152.432C443.322,123.303 462.953,120.885 482.499,120.459C546.777,119.059 552.68,120.731 558.534,122.389C584.119,129.635 583.907,148.284 591.023,183.574C594.677,201.697 591.761,206.271 609.546,211.365C648.202,222.437 654.963,237.446 668.259,228.171C704.551,202.852 720.114,181.427 746.461,190.603C759.733,195.225 792.607,233.332 814.924,254.066C846.377,283.288 828.062,301.152 813.044,323.185C793.372,352.044 787.733,356.969 791.742,365.387C807.442,398.359 805.919,398.939 812.974,416.286C816.592,425.183 819.325,423.083 871.567,434.213C906.147,441.579 907.068,462.084 907.395,482.501C908.497,551.281 906.922,555.64 904.77,561.594C896.328,584.949 880.083,585.341 830.446,595.247C814.539,598.421 814.265,600.251 808.663,615.566C793.667,656.557 786.027,657.283 793.883,669.243C815.501,702.155 832.005,717.979 831.798,734.504C831.537,755.416 819.18,759.755 763.274,817.275C735.2,846.161 713.838,825.476 686.797,806.104C667.416,792.219 663.571,787.079 655.608,789.827C641.063,794.847 642.703,798.816 604.46,810.379C594.175,813.488 595.046,818.023 589.801,844.561C584.579,870.976 583.587,892.925 555.43,899.056C544.266,901.487 475.679,900.391 471.455,899.923C438.035,896.22 436.849,867.578 435.573,861.483C426.227,816.871 428.436,813.499 418.42,810.754C368.202,796.989 366.372,782.553 353.219,792.129C307.208,825.632 305.385,830.883 285.51,831.163Z" style="fill:rgb(111,215,247);"/>
                    <path d="M265.095,544.532C242.093,389.285 370.607,250.05 530.521,262.055C660.436,271.808 768.134,382.953 757.968,527.523C748.088,668.021 625.04,764.38 496.472,755.996C484.018,755.184 411.735,750.471 351.411,698.607C321.097,672.544 277.252,624.339 265.095,544.532Z" style="fill:rgb(254,253,252);"/>
                    <path d="M587.038,450.485C587.682,440.185 593.01,420.555 606.783,411.96C617.857,405.051 632.336,409.769 640.006,420.864C667.227,460.243 642.03,526.142 607.694,508.159C584.108,495.806 586.721,455.376 587.038,450.485Z"/>
                    <path d="M403.496,511.038C355.894,509.122 360.68,403.574 406.446,408.996C434.09,412.271 446.985,477.118 419.16,504.141C412.921,510.199 404.86,510.917 403.496,511.038Z"/>
                    <path d="M629.859,570.526C636.346,534.249 700.662,541.493 701.086,571.505C701.561,605.034 630.504,610.218 629.859,570.526Z" style="fill:rgb(228,86,123);"/>
                    <path d="M320.823,574.466C320.85,571.333 320.026,567.657 324.094,561.246C340.968,534.649 390.903,546.149 391.879,570.468C393.284,605.441 326.043,608.564 320.823,574.466Z" style="fill:rgb(228,86,123);"/>
                </g>
                <g transform="matrix(1.04682,0,0,1,-46.79211,1342.080053)">
                    <path d="M561.712,620.401C608.709,663.366 655.707,663.374 702.704,620.401" style="fill:none;stroke:black;stroke-width:23.33px;"/>
                </g>
            </g>
        </g>
    </g>
</svg>
