<?xml version="1.0" encoding="UTF-8" standalone="no"?>
<!DOCTYPE svg PUBLIC "-//W3C//DTD SVG 1.1//EN" "http://www.w3.org/Graphics/SVG/1.1/DTD/svg11.dtd">
<svg width="100%" height="100%" viewBox="0 0 840 1105" version="1.1" xmlns="http://www.w3.org/2000/svg" xmlns:xlink="http://www.w3.org/1999/xlink" xml:space="preserve" xmlns:serif="http://www.serif.com/" style="fill-rule:evenodd;clip-rule:evenodd;stroke-linecap:round;stroke-linejoin:round;stroke-miterlimit:1.5;">
    <g transform="matrix(1,0,0,1,-5325.240535,-186.374218)">
        <g transform="matrix(1.043103,0,0,1,-252.954749,56.069331)">
            <g transform="matrix(1.094275,0,0,1.244334,7698.045913,-2956.240119)">
                <g transform="matrix(1,0,0,0.775107,22.836323,972.512674)">
                    <g transform="matrix(0.490028,0,0,0.57993,-2351.989096,1868.713591)">
                        <g transform="matrix(1,0,0,1,0,5.599208)">
                            <g transform="matrix(1.607281,-0.215687,0.175389,1.306986,717.980744,563.320865)">
                                <rect x="507.144" y="887.263" width="72.995" height="109.34" style="stroke:black;stroke-width:3.02px;"/>
                            </g>
                            <g transform="matrix(1.318701,0,0,1.318701,-17.159041,-396.974103)">
                                <path d="M1244.574,1524.981C1244.574,1524.981 1203.154,1398.407 1207.926,1337.75C1342.218,1349.04 1378.157,1278.786 1378.157,1278.786C1378.157,1278.786 1447.408,1381.988 1424.921,1535.023C1424.921,1535.023 1423.304,1547.517 1407.723,1555.343C1407.723,1555.343 1307.403,1598.753 1256.703,1548.257C1256.703,1548.257 1249.661,1540.994 1244.574,1524.981" style="fill:rgb(124,218,243);stroke:black;stroke-width:3.39px;"/>
                            </g>
                            <g transform="matrix(1.318701,0,0,1.318701,-17.159041,-396.974103)">
                                <path d="M1244.383,1091.71C1244.383,1091.71 1327.938,1080.713 1367.089,1215.855C1367.089,1215.855 1371.845,1234.485 1362.308,1244.889C1362.308,1244.889 1312.658,1303.029 1205.14,1295.29C1190.048,1293.442 1184.652,1274.169 1184.652,1274.169C1139.728,1140.835 1214.631,1102.209 1214.631,1102.209C1214.631,1102.209 1226.769,1094.299 1244.383,1091.71" style="fill:rgb(124,218,243);stroke:black;stroke-width:3.39px;"/>
                            </g>
                            <g transform="matrix(1.318701,0,0,1.318701,-17.159041,-396.974103)">
                                <g transform="matrix(1,0,0,1,0.004612,0.284151)">
                                    <path d="M1378.157,1278.786C1384.283,1255.821 1363.375,1243.616 1363.375,1243.616C1363.041,1244.052 1362.686,1244.477 1362.308,1244.889C1362.308,1244.889 1312.658,1303.029 1205.14,1295.29C1202.721,1294.994 1200.627,1294.29 1198.689,1293.25C1198.689,1293.25 1181.263,1319.659 1207.926,1337.75C1342.218,1349.04 1378.157,1278.786 1378.157,1278.786" style="stroke:black;stroke-width:3.39px;"/>
                                </g>
                            </g>
                            <g transform="matrix(0.342508,-0.03158,0.032091,0.348059,-252.389912,-274.638349)">
                                <path d="M5105.857,6255.411C5105.857,6255.411 4951.187,6350.095 4916.143,6540.263C4916.143,6540.263 4913.15,6567.985 4932.058,6582.973C4932.058,6582.973 4960.374,6609.075 4993.163,6613.179C4993.163,6613.179 5032.33,6616.529 5047.088,6596.105C5047.088,6596.105 5084.309,6537.477 5127.105,6526.261C5127.105,6526.261 5153.491,6520.833 5176.395,6527.467C5176.395,6527.467 5207.136,6534.939 5224.992,6561.503C5224.992,6561.503 5242.239,6584.881 5243.498,6609.689C5243.498,6609.689 5244.38,6629.774 5236.698,6645.768C5236.698,6645.768 5205.383,6728.187 5140.696,6744.42C5140.696,6744.42 5115.946,6751.682 5108.391,6768.179C5108.391,6768.179 5094.259,6791.533 5096.62,6828.779C5096.62,6828.779 5101.199,6870.645 5148.914,6893.519C5148.914,6893.519 5191.956,6910.244 5250.248,6900.406C5250.248,6900.406 5340.991,6886.386 5400.174,6830.662C5400.174,6830.662 5577.042,6687.913 5597.412,6234.681C5597.412,6234.681 5582.616,6157.754 5443.135,6167.11C5443.135,6167.11 5169.806,6215.259 5105.857,6255.411" style="fill:rgb(124,218,243);stroke:black;stroke-width:12.89px;"/>
                            </g>
                        </g>
                        <g transform="matrix(1.329748,0,0,1.534968,-12.017996,-762.843251)">
                            <rect x="921.506" y="1771.354" width="155.39" height="46.524" style="stroke:black;stroke-width:3.11px;"/>
                        </g>
                        <g transform="matrix(1,0,0,1,-5,0)">
                            <g transform="matrix(1.318701,0,0,1.318701,3.72738,-379.75757)">
                                <path d="M897.348,1825.204C897.348,1825.204 977.614,1877.077 1094.058,1827.863C1094.058,1827.863 1095.907,1858.335 1070.687,1870.578C1003.593,1899.635 924.233,1874.281 924.233,1874.281C893.3,1864.224 897.348,1825.204 897.348,1825.204C901.508,1808.082 920.306,1805.224 920.306,1805.224C920.306,1805.224 989.337,1840.274 1077.967,1804.569C1077.967,1804.569 1092.213,1809.148 1094.058,1827.863" style="fill:rgb(124,218,243);stroke:black;stroke-width:3.39px;"/>
                            </g>
                            <g transform="matrix(1.318701,0,0,1.318701,3.632467,-379.716816)">
                                <path d="M1094.058,1827.863C1092.213,1809.148 1077.967,1804.569 1077.967,1804.569C989.337,1840.274 920.306,1805.224 920.306,1805.224C920.306,1805.224 901.508,1808.082 897.348,1825.204C897.348,1825.204 977.614,1877.077 1094.058,1827.863" style="fill:rgb(78,190,212);stroke:black;stroke-width:3.39px;"/>
                            </g>
                        </g>
                        <g transform="matrix(1.318701,0,0,1.318701,4.886943,-379.75757)">
                            <path d="M864.456,1694.112C864.456,1694.112 856.475,1758.507 897.939,1772.325C897.939,1772.325 1007.409,1804.345 1095.849,1767.237C1133.247,1753.689 1124.86,1694.03 1124.86,1694.03" style="fill:rgb(124,218,243);stroke:black;stroke-width:3.39px;"/>
                            <g transform="matrix(1.044917,0,0,1.5625,-51.984849,-961.288433)">
                                <ellipse cx="1001.662" cy="1699.844" rx="125.12" ry="17.748" style="fill:rgb(78,190,212);stroke:black;stroke-width:2.55px;"/>
                            </g>
                        </g>
                        <g transform="matrix(2.131551,0,0,1.318701,-694.54589,-483.333678)">
                            <path d="M997.213,1733.904C997.213,1754.513 986.862,1771.245 974.112,1771.245L912.977,1771.245C900.227,1771.245 889.876,1754.513 889.876,1733.904C889.876,1713.295 900.227,1696.563 912.977,1696.563L974.112,1696.563C986.862,1696.563 997.213,1713.295 997.213,1733.904Z" style="stroke:black;stroke-width:2.52px;"/>
                        </g>
                        <g transform="matrix(1.318701,0,0,1.318701,4.886943,-372.75757)">
                            <path d="M1218.189,1042.026C1238.396,1062.319 1241.247,1078.983 1241.247,1078.983C1241.247,1078.983 1315.779,1383.57 1183.389,1573.803C1156.119,1611.111 1099.479,1629.453 1099.479,1629.453C979.308,1662.772 871.125,1628.163 871.125,1628.163C835.196,1615.592 811.744,1596.446 796.848,1579.295C796.848,1579.295 686.91,1455.901 705.679,1141.051C705.679,1141.051 707.179,1111.169 722.17,1093.577" style="fill:rgb(124,218,243);stroke:black;stroke-width:3.39px;"/>
                        </g>
                        <g transform="matrix(1.400024,0,0,1.400024,-128.148157,-474.743459)">
                            <circle cx="1213.935" cy="1213.466" r="30.059" style="fill:rgb(221,255,0);stroke:black;stroke-width:3.19px;"/>
                        </g>
                        <g transform="matrix(1.349157,-0.140959,0.192036,1.838038,-244.451493,-853.304829)">
                            <ellipse cx="976.058" cy="1118.654" rx="252.002" ry="59.274" style="fill:rgb(78,190,212);stroke:black;stroke-width:2.76px;"/>
                        </g>
                        <g transform="matrix(1.529014,-0.155903,0.210013,2.0597,-448.04953,-1001.889766)">
                            <ellipse cx="988.915" cy="1071.554" rx="133.462" ry="28.538" style="stroke:black;stroke-width:2.45px;"/>
                        </g>
                        <g transform="matrix(1.224343,-0.13745,0.13745,1.224343,-142.386754,-172.226565)">
                            <circle cx="769.824" cy="1278.142" r="92.58" style="stroke:black;stroke-width:3.63px;"/>
                        </g>
                        <g transform="matrix(1.342202,-0.910146,0.7401,1.091433,-740.516605,417.291626)">
                            <rect x="507.144" y="887.263" width="72.995" height="109.34" style="stroke:black;stroke-width:3.02px;"/>
                        </g>
                        <g transform="matrix(1.149994,0,0,1.166207,-156.678111,9.653918)">
                            <g transform="matrix(0.986397,-0.164383,0.164383,0.986397,15.055516,-13.697524)">
                                <path d="M619.094,790.353C639.816,770.208 655.148,742.401 655.148,742.401C661.873,730.68 663.779,717.389 663.779,717.389C666.181,699.936 657.633,690.433 657.633,690.433C649.537,679.468 634.421,680.856 634.421,680.856C620.227,681.83 613.514,692.191 613.514,692.191L584.653,740.301C579.013,750.435 576.356,738.198 576.356,738.198L541.473,590.831C536.625,572.024 524.778,564.989 524.778,564.989C513.761,558.892 499.239,564.318 499.239,564.318C486.429,569.683 481.705,580.411 481.705,580.411C475.06,593.702 480.174,612.222 480.174,612.222L510.504,719.091C513.674,729.903 504.419,732.382 504.419,732.382C495.292,734.143 491.339,726.867 491.339,726.867L436.285,613.083C429.559,601.394 418.901,600.024 418.901,600.024C392.78,595.22 381.171,617.547 381.171,617.547C373.465,630.366 383.139,646.925 383.139,646.925L446.63,752.738C452.235,759.784 445.189,765.388 445.189,765.388C437.663,770.352 431.587,763.578 431.587,763.578C401.113,728.487 365.753,701.574 365.753,701.574C349.089,694.369 336.78,710.432 336.78,710.432C321.017,730.398 337.512,746.027 337.512,746.027C337.512,746.027 369.381,784.035 413.529,819.412C413.529,819.412 428.44,911.217 509.719,903.615C509.719,903.615 572.37,898.997 605.127,851.93C605.127,851.93 627.01,828.47 619.094,790.353" style="fill:rgb(3,161,207);stroke:black;stroke-width:3.87px;"/>
                            </g>
                            <g transform="matrix(0.986397,-0.164383,0.164383,0.986397,13.527506,-5.953276)">
                                <path d="M520.461,810.832C520.461,810.832 531.094,768.22 577.694,744.06C577.694,744.06 519.053,752.541 520.461,810.832" style="fill:rgb(2,116,177);"/>
                            </g>
                        </g>
                        <g transform="matrix(1.300762,-0.216772,0.216772,1.300762,-229.708685,-143.789348)">
                            <path d="M642.626,901.529C642.626,901.529 740.48,1007.598 763.322,1172.31C763.322,1172.31 767.98,1205.39 746.329,1238.705C723.875,1267.007 693.45,1275.945 693.45,1275.945C659.956,1290.54 629.216,1276.529 629.216,1276.529C516.521,1220.59 470.191,977.75 470.191,977.75" style="fill:rgb(124,218,243);stroke:black;stroke-width:3.39px;"/>
                        </g>
                        <g transform="matrix(1.223146,-0.803703,0.264258,0.402171,-230.206083,1028.563805)">
                            <ellipse cx="556.41" cy="936.091" rx="84.934" ry="35.377" style="stroke:black;stroke-width:4.1px;"/>
                        </g>
                        <g transform="matrix(1,0,0,1,12.799992,3.039199)">
                            <g transform="matrix(1.57382,0,0,1.57382,-1280.784002,-325.655504)">
                                <circle cx="1608.421" cy="806.761" r="73.983" style="stroke:black;stroke-width:2.84px;"/>
                            </g>
                            <g transform="matrix(1.318701,0,0,1.318701,-73.773931,-349.249038)">
                                <g transform="matrix(0.797746,-0.08612,0.107331,0.994223,132.506033,86.55559)">
                                    <rect x="915.442" y="441.354" width="13.8" height="84.671" style="stroke:black;stroke-width:3.74px;"/>
                                </g>
                                <g transform="matrix(1,0,0,1,-3.485616,22.727439)">
                                    <circle cx="915.065" cy="387.678" r="45.775" style="fill:rgb(124,218,243);stroke:black;stroke-width:3.39px;"/>
                                </g>
                                <g transform="matrix(1.044444,0,0,1.017778,-62.291069,-31.921488)">
                                    <circle cx="956.47" cy="612.118" r="72.273" style="stroke:black;stroke-width:3.29px;"/>
                                </g>
                                <g transform="matrix(1.312265,0,0,1.278761,-95.406696,-41.259292)">
                                    <circle cx="956.47" cy="612.118" r="72.273" style="stroke:black;stroke-width:2.62px;"/>
                                </g>
                                <g transform="matrix(1.312265,0,0,1.278761,-487.8063,9.90688)">
                                    <circle cx="956.47" cy="612.118" r="72.273" style="stroke:black;stroke-width:2.62px;"/>
                                </g>
                                <path d="M1091.267,562.347C1091.267,562.347 1135.103,569.197 1162.756,606.623C1173.362,622.847 1195.418,675.668 1206.935,841.324C1206.935,841.324 1213.059,898.249 1167.373,920.89C994.786,1003.594 824.839,976.068 824.839,976.068C768.425,966.353 755.362,932.171 755.362,932.171C730.329,889.449 714.299,699.847 714.299,699.847C708.002,651.577 756.986,619.77 756.986,619.77C756.986,619.77 893.725,531.944 1091.267,562.347" style="fill:rgb(124,218,243);stroke:black;stroke-width:3.39px;"/>
                                <path d="M1132.644,885.774C1177.964,858.487 1174.952,833.002 1174.952,833.002C1164.944,675.856 1147.043,650.699 1147.043,650.699C1147.043,650.699 1126.326,605.76 1063.605,603.45C897.837,597.956 812.154,651.494 812.154,651.494C762.573,676.871 769.529,719.133 769.529,719.133C769.529,719.133 782.414,853.136 799.594,895.656C799.594,895.656 813.579,925.263 850.311,930.008C850.311,930.008 1009.966,953.322 1132.644,885.774" style="fill:white;stroke:black;stroke-width:3.39px;"/>
                                <g transform="matrix(1.021344,-0.135567,0.140492,1.058446,-141.199147,75.555019)">
                                    <ellipse cx="888.822" cy="765.938" rx="22.035" ry="31.84" style="stroke:black;stroke-width:3.23px;"/>
                                </g>
                                <g transform="matrix(1.021344,-0.135567,0.140492,1.058446,62.78798,48.879971)">
                                    <ellipse cx="888.822" cy="765.938" rx="22.035" ry="31.84" style="stroke:black;stroke-width:3.23px;"/>
                                </g>
                                <g transform="matrix(1.0749,-0.205703,0.218145,1.139911,-262.160918,52.475911)">
                                    <ellipse cx="869.084" cy="869.59" rx="30.955" ry="18.11" style="fill:rgb(204,90,128);"/>
                                </g>
                                <g transform="matrix(1.094156,-0.023361,0.024774,1.160332,139.747356,-155.98668)">
                                    <ellipse cx="869.084" cy="869.59" rx="30.955" ry="18.11" style="fill:rgb(204,90,128);"/>
                                </g>
                                <g transform="matrix(0.99998,-0.006333,0.006333,0.99998,-5.306373,7.613897)">
                                    <path d="M927.685,841.95C925.242,839.519 926.132,836.896 927.141,835.695C927.874,834.821 928.673,834.265 930.032,834.155C931.682,834.02 933.656,835.447 933.656,835.447C933.656,835.447 995.281,886.219 1041.204,821.026C1041.204,821.026 1042.173,819.603 1043.762,819.271C1044.84,819.045 1046.378,819.191 1047.435,819.703C1049.268,820.589 1050.238,823.094 1048.769,825.525C999.493,898.828 927.685,841.95 927.685,841.95" style="stroke:black;stroke-width:3.39px;"/>
                                </g>
                            </g>
                            <g transform="matrix(1.812718,-0.288613,0.211319,1.327249,-586.421515,-157.738079)">
                                <ellipse cx="724.196" cy="811.113" rx="12.715" ry="129.488" style="stroke:black;stroke-width:2.78px;"/>
                            </g>
                            <g transform="matrix(1.318701,0,0,1.318701,-163.972075,-88.818911)">
                                <circle cx="963.536" cy="213.977" r="22.871" style="fill:rgb(201,243,255);"/>
                            </g>
                        </g>
                    </g>
                </g>
            </g>
        </g>
    </g>
</svg>
