<?xml version="1.0" encoding="UTF-8" standalone="no"?>
<!DOCTYPE svg PUBLIC "-//W3C//DTD SVG 1.1//EN" "http://www.w3.org/Graphics/SVG/1.1/DTD/svg11.dtd">
<svg width="100%" height="100%" viewBox="0 0 787 1045" version="1.1" xmlns="http://www.w3.org/2000/svg" xmlns:xlink="http://www.w3.org/1999/xlink" xml:space="preserve" xmlns:serif="http://www.serif.com/" style="fill-rule:evenodd;clip-rule:evenodd;stroke-linecap:round;stroke-linejoin:round;stroke-miterlimit:1.5;">
    <g transform="matrix(1,0,0,1,-6333.606852,-246.321934)">
        <g transform="matrix(1.043103,0,0,1,-252.954749,56.069331)">
            <g transform="matrix(0.465653,0,0,0.410426,7263.654061,-246.846884)">
                <g transform="matrix(0.72213,0,0,0.854615,-1942.679382,1423.33216)">
                    <path d="M1054.042,2366.731C1054.042,2366.731 1046.771,2485.814 1096.642,2514.356C1096.642,2514.356 1305.247,2608.103 1497.958,2514.356C1547.829,2485.814 1540.929,2366.731 1540.929,2366.731" style="fill:rgb(251,102,166);stroke:black;stroke-width:6.67px;"/>
                </g>
                <g transform="matrix(0.795367,0,0,1.040233,-2030.584779,971.78969)">
                    <ellipse cx="1288.536" cy="2378.493" rx="221.028" ry="54.154" style="fill:rgb(251,102,166);stroke:rgb(20,3,3);stroke-width:5.75px;"/>
                </g>
                <g transform="matrix(0.876085,0,0,1.036814,-2147.548246,735.527247)">
                    <path d="M1172.412,2609.178C1151.781,2600.44 1152.895,2582.711 1152.895,2582.711L1152.895,2522.684C1152.895,2522.684 1301.419,2566.447 1453.725,2519.238L1453.725,2576.483C1452.623,2600.991 1429.34,2606.972 1429.34,2606.972C1285.838,2655.892 1172.412,2609.178 1172.412,2609.178" style="fill:rgb(110,64,84);stroke:black;stroke-width:5.5px;"/>
                </g>
                <g transform="matrix(0.876085,0,0,1.036814,-2135.08276,959.135144)">
                    <circle cx="1799.629" cy="2153.908" r="88.331" style="stroke:black;stroke-width:5.5px;"/>
                </g>
                <g transform="matrix(0.876085,0,0,1.036814,-2215.555488,941.09827)">
                    <path d="M1708.699,1638.585C1708.699,1638.585 1854.912,1693.202 1931.211,1548.328C1931.211,1548.328 2064.771,1756.246 2046.424,2088.875C2046.424,2088.875 2044.99,2132.796 1976.168,2152.245C1976.168,2152.245 1894.188,2175.016 1778.219,2144.141C1756.98,2134.885 1753.928,2109.246 1753.928,2109.246C1753.928,2109.246 1695.451,1795.025 1708.699,1638.585" style="fill:rgb(251,102,166);"/>
                    <clipPath id="_clip1">
                        <path d="M1708.699,1638.585C1708.699,1638.585 1854.912,1693.202 1931.211,1548.328C1931.211,1548.328 2064.771,1756.246 2046.424,2088.875C2046.424,2088.875 2044.99,2132.796 1976.168,2152.245C1976.168,2152.245 1894.188,2175.016 1778.219,2144.141C1756.98,2134.885 1753.928,2109.246 1753.928,2109.246C1753.928,2109.246 1695.451,1795.025 1708.699,1638.585"/>
                    </clipPath>
                    <g clip-path="url(#_clip1)">
                        <path d="M1000.035,1068.472C887.659,1068.936 869.443,1011.714 869.443,1011.714C833.143,907.091 817.075,677.523 817.075,677.523C808.03,576.603 904.105,536.347 904.105,536.347C904.105,536.347 1116.951,436.37 1381.599,483.146C1381.599,483.146 1462.105,499.672 1480.3,576.861C1480.3,576.861 1516.517,719.462 1516.791,881.761C1516.791,881.761 1522.4,959.839 1448.658,990.163C1448.658,990.163 1250.857,1074.455 1000.035,1068.472" style="fill:white;stroke:black;stroke-width:19.27px;"/>
                    </g>
                    <path d="M1708.699,1638.585C1708.699,1638.585 1854.912,1693.202 1931.211,1548.328C1931.211,1548.328 2064.771,1756.246 2046.424,2088.875C2046.424,2088.875 2044.99,2132.796 1976.168,2152.245C1976.168,2152.245 1894.188,2175.016 1778.219,2144.141C1756.98,2134.885 1753.928,2109.246 1753.928,2109.246C1753.928,2109.246 1695.451,1795.025 1708.699,1638.585" style="fill:none;stroke:black;stroke-width:5.5px;"/>
                </g>
                <g transform="matrix(0.876085,0,0,1.036814,-2215.469333,943.590395)">
                    <path d="M1659.149,1608.065C1659.149,1608.065 1836.773,1736.456 1939.846,1530.22C1881.194,1226.609 1691.971,1286.763 1691.971,1286.763C1691.971,1286.763 1522.748,1351.594 1659.149,1608.065" style="fill:rgb(251,102,166);stroke:black;stroke-width:5.5px;"/>
                </g>
                <g transform="matrix(0.876085,0,0,1.036814,-2215.555488,941.09827)">
                    <path d="M1728.79,1944.863C1728.79,1944.863 1924.823,1963.46 2035.53,1860.411" style="fill:none;stroke:black;stroke-width:5.5px;"/>
                </g>
                <g transform="matrix(0.876085,0,0,1.036814,-2129.39868,972.244849)">
                    <path d="M1636.179,1262.025C1636.179,1262.025 1826.544,1664.096 1601.187,2166.839C1562.146,2252.435 1509.406,2271.177 1509.406,2271.177C1222.932,2387.544 1028.938,2246.015 1028.938,2246.015C733.534,1762.469 820.267,1330.777 820.267,1330.777" style="fill:rgb(251,102,166);stroke:black;stroke-width:5.5px;"/>
                </g>
                <g transform="matrix(0.8613,0,0,1.019318,-2135.70637,935.987276)">
                    <circle cx="445.328" cy="1166.033" r="93.156" style="stroke:black;stroke-width:5.59px;"/>
                </g>
                <g transform="matrix(1.138173,-0.22764,0.189677,1.365976,-2549.435267,1037.763299)">
                    <path d="M619.094,790.353C639.816,770.208 655.148,742.401 655.148,742.401C661.873,730.68 663.779,717.389 663.779,717.389C666.181,699.936 657.633,690.433 657.633,690.433C649.537,679.468 634.421,680.856 634.421,680.856C620.227,681.83 613.514,692.191 613.514,692.191L584.653,740.301C579.013,750.435 576.356,738.198 576.356,738.198L541.473,590.831C536.625,572.024 524.778,564.989 524.778,564.989C513.761,558.892 499.239,564.318 499.239,564.318C486.429,569.683 481.705,580.411 481.705,580.411C475.06,593.702 480.174,612.222 480.174,612.222L510.504,719.091C513.674,729.903 504.419,732.382 504.419,732.382C495.292,734.143 491.339,726.867 491.339,726.867L436.285,613.083C429.559,601.394 418.901,600.024 418.901,600.024C392.78,595.22 381.171,617.547 381.171,617.547C373.465,630.366 383.139,646.925 383.139,646.925L446.63,752.738C452.235,759.784 445.189,765.388 445.189,765.388C437.663,770.352 431.587,763.578 431.587,763.578C401.113,728.487 365.753,701.574 365.753,701.574C349.089,694.369 336.78,710.432 336.78,710.432C321.017,730.398 337.512,746.027 337.512,746.027C337.512,746.027 369.381,784.035 413.529,819.412C413.529,819.412 428.44,911.217 509.719,903.615C509.719,903.615 572.37,898.997 605.127,851.93C605.127,851.93 627.01,828.47 619.094,790.353" style="fill:rgb(251,102,166);stroke:black;stroke-width:4.15px;"/>
                </g>
                <g transform="matrix(0.956839,-0.411176,0.34766,1.149359,-2563.585034,1324.944991)">
                    <path d="M520.461,810.832C520.461,810.832 531.094,768.22 577.694,744.06C577.694,744.06 519.053,752.541 520.461,810.832" style="fill:white;"/>
                </g>
                <g transform="matrix(0.876085,0,0,1.036814,-2187.813675,851.946956)">
                    <circle cx="1593.793" cy="1725.428" r="95.648" style="fill:none;stroke:black;stroke-width:5.5px;"/>
                </g>
                <g transform="matrix(0.834594,0,0,0.987712,-2112.779505,928.529638)">
                    <circle cx="1583.12" cy="1733.669" r="74.168" style="fill:white;stroke:black;stroke-width:5.77px;"/>
                </g>
                <g transform="matrix(0.955117,-0.102669,0.11376,1.482238,-2377.32212,497.903362)">
                    <ellipse cx="1228.775" cy="1322.537" rx="377.229" ry="81.458" style="fill:rgb(251,102,166);stroke:black;stroke-width:4.31px;"/>
                </g>
                <g transform="matrix(1.013477,-0.109155,0.115424,1.500988,-2482.598761,488.828488)">
                    <ellipse cx="1269.696" cy="1314.146" rx="211.096" ry="54.697"/>
                </g>
                <g transform="matrix(1.2776,0,0,1.022448,-2512.868298,1015.389637)">
                    <ellipse cx="883.087" cy="1601.414" rx="94.811" ry="171.595" style="stroke:black;stroke-width:4.42px;"/>
                </g>
                <g transform="matrix(0.876085,0,0,1.036814,-2129.39868,972.244849)">
                    <path d="M573.546,1077.13C573.546,1077.13 870.097,1352.748 895.369,1543.413C895.369,1543.413 908.505,1632.663 855.996,1697.753C754.511,1808.013 637.046,1722.168 637.046,1722.168C637.046,1722.168 412.208,1557.955 339.223,1219.891" style="fill:rgb(251,102,166);stroke:black;stroke-width:5.5px;"/>
                </g>
                <g transform="matrix(0.831963,-0.597079,0.321052,0.626553,-2488.221397,1768.023326)">
                    <ellipse cx="488.883" cy="1098.486" rx="123.67" ry="48.182" style="stroke:black;stroke-width:5.91px;"/>
                </g>
                <g transform="matrix(0.876085,0,0,1.036814,-2129.39868,972.244849)">
                    <path d="M974.593,1806.62C974.593,1806.62 976.424,2008.338 1066.484,2266.512" style="fill:none;stroke:black;stroke-width:5.5px;"/>
                </g>
                <g transform="matrix(0.876085,0,0,1.036814,-2129.39868,972.244849)">
                    <path d="M985.994,1929.876C985.994,1929.876 1263.372,2008.23 1535.13,1925.501" style="fill:none;stroke:black;stroke-width:5.5px;"/>
                </g>
                <g transform="matrix(0.876085,0,0,1.036814,-2129.39868,965.161188)">
                    <circle cx="1562.73" cy="1923.702" r="27.6" style="fill:white;stroke:black;stroke-width:5.5px;"/>
                </g>
                <g transform="matrix(1.014916,-0,-0,1.201117,-2295.341916,741.56871)">
                    <circle cx="1213.465" cy="1243.826" r="126.86" style="stroke:black;stroke-width:4.75px;"/>
                </g>
                <g transform="matrix(0.876085,0,0,1.036814,-2138.538507,1004.694806)">
                    <path d="M1416.555,234.769C1332.54,295.679 1316.438,395.447 1316.438,395.447L1292.283,389.321C1292.283,389.321 1318.625,260.673 1408.897,221.816"/>
                </g>
                <g transform="matrix(-0.870486,0.117032,0.098889,1.030188,-254.167218,913.485714)">
                    <path d="M1416.555,234.769C1332.54,295.679 1316.438,395.447 1316.438,395.447L1292.283,389.321C1292.283,389.321 1318.625,260.673 1408.897,221.816"/>
                </g>
                <g transform="matrix(0.746332,-0.107576,0.10592,1.029209,-2024.361985,1110.235529)">
                    <rect x="1050.053" y="172.547" width="30.63" height="175.578"/>
                </g>
                <g transform="matrix(-0.148114,-1.02189,0.863474,-0.175287,-2093.004843,2761.82198)">
                    <path d="M842.838,933.186L604.142,933.186C592.047,912.236 585.679,888.471 585.679,864.28C585.679,788.22 647.43,726.469 723.49,726.469C799.55,726.469 861.301,788.22 861.301,864.28C861.301,888.471 854.934,912.236 842.838,933.186Z"/>
                </g>
                <g transform="matrix(-0.114455,-1.027928,-0.868576,0.135453,33.221333,2378.710458)">
                    <path d="M842.838,933.186L604.142,933.186C592.047,912.236 585.679,888.471 585.679,864.28C585.679,788.22 647.43,726.469 723.49,726.469C799.55,726.469 861.301,788.22 861.301,864.28C861.301,888.471 854.934,912.236 842.838,933.186Z"/>
                </g>
                <g transform="matrix(-0.873384,0.081352,0.06874,1.033618,-603.671464,517.223625)">
                    <path d="M842.838,933.186L604.142,933.186C592.047,912.236 585.679,888.471 585.679,864.28C585.679,788.22 647.43,726.469 723.49,726.469C799.55,726.469 861.301,788.22 861.301,864.28C861.301,888.471 854.934,912.236 842.838,933.186Z"/>
                </g>
                <g transform="matrix(0.876085,0,0,1.036814,-2138.538507,1004.694806)">
                    <path d="M926.322,1146.669C804.989,1135.017 782.019,1050.304 782.019,1050.304C734.57,851.254 716.875,681.794 716.875,681.794C716.875,681.794 697.071,561.329 782.019,507.1C782.019,507.1 1058.104,300.714 1423.424,411.394C1423.424,411.394 1514.265,434.032 1539.571,546.178C1539.571,546.178 1593.373,736.783 1589.974,937.545C1589.974,937.545 1593.543,1024.392 1481.498,1068.776C1481.498,1068.776 1238.441,1163.494 926.322,1146.669" style="fill:rgb(251,102,166);stroke:black;stroke-width:5.5px;"/>
                </g>
                <g transform="matrix(0.876085,0,0,1.036814,-2138.538507,1004.694806)">
                    <path d="M1000.035,1068.472C887.659,1068.936 869.443,1011.714 869.443,1011.714C833.143,907.091 817.075,677.523 817.075,677.523C808.03,576.603 904.105,536.347 904.105,536.347C904.105,536.347 1116.951,436.37 1381.599,483.146C1381.599,483.146 1462.105,499.672 1480.3,576.861C1480.3,576.861 1516.517,719.462 1516.791,881.761C1516.791,881.761 1522.4,959.839 1448.658,990.163C1448.658,990.163 1250.857,1074.455 1000.035,1068.472" style="fill:white;stroke:black;stroke-width:5.5px;"/>
                </g>
                <g transform="matrix(-0.77423,1.771811,-1.786391,-1.093298,1100.166785,910.513241)">
                    <path d="M873.346,735.215L875.287,728.728L896.872,736.498L873.346,735.215Z" style="stroke:black;stroke-width:2.6px;"/>
                </g>
                <g transform="matrix(-1.273821,1.306235,-1.316984,-1.798777,1210.244099,1858.908457)">
                    <path d="M873.346,735.215L875.287,728.728L896.872,736.498L873.346,735.215Z" style="stroke:black;stroke-width:2.6px;"/>
                </g>
                <g transform="matrix(1.685485,0,0,2.380093,-2845.508842,27.944506)">
                    <path d="M873.346,735.215L875.287,728.728L896.872,736.498L873.346,735.215Z" style="stroke:black;stroke-width:2.6px;"/>
                </g>
                <g transform="matrix(1.565533,0.739042,-0.745124,2.210707,-2184.250031,-523.417089)">
                    <path d="M873.346,735.215L875.287,728.728L896.872,736.498L873.346,735.215Z" style="stroke:black;stroke-width:2.6px;"/>
                </g>
                <g transform="matrix(0.876085,0,0,1.036814,-2138.538507,1004.694806)">
                    <path d="M1298.549,560.676C1298.549,560.676 1299.419,567.714 1312.169,567.882C1312.169,567.882 1352.582,567.449 1382.175,587.736C1382.175,587.736 1390.097,593.319 1394.651,588.58C1394.651,588.58 1399.858,583.5 1394.651,577.532C1394.651,577.532 1361.998,532.487 1307.605,546.535C1307.605,546.535 1296.439,549.593 1298.549,560.676" style="stroke:black;stroke-width:5.5px;"/>
                </g>
                <g transform="matrix(-0.853486,0.233973,0.197702,1.01007,-273.09289,763.341485)">
                    <path d="M1298.549,560.676C1298.549,560.676 1299.419,567.714 1312.169,567.882C1312.169,567.882 1352.582,567.449 1382.175,587.736C1382.175,587.736 1390.097,593.319 1394.651,588.58C1394.651,588.58 1399.858,583.5 1394.651,577.532C1394.651,577.532 1361.998,532.487 1307.605,546.535C1307.605,546.535 1296.439,549.593 1298.549,560.676" style="stroke:black;stroke-width:5.5px;"/>
                </g>
                <g transform="matrix(0.909214,0,0,1.098164,-2176.071466,940.724363)">
                    <ellipse cx="969.186" cy="951.72" rx="64.073" ry="45.497" style="fill:rgb(204,90,128);"/>
                </g>
                <g transform="matrix(0.858511,-0.354305,0.305541,1.036925,-2026.203305,1281.545875)">
                    <ellipse cx="969.186" cy="951.72" rx="64.073" ry="45.497" style="fill:rgb(204,90,128);"/>
                </g>
                <g transform="matrix(0.760899,0,0,0.900496,-2027.83908,1015.725789)">
                    <circle cx="1068.591" cy="134.294" r="76.422" style="fill:rgb(251,102,166);stroke:black;stroke-width:6.33px;"/>
                </g>
                <g transform="matrix(0.876085,0,0,1.036814,-2138.538507,1004.694806)">
                    <path d="M926.322,1146.669C804.989,1135.017 782.019,1050.304 782.019,1050.304C734.57,851.254 716.875,681.794 716.875,681.794C716.875,681.794 697.071,561.329 782.019,507.1C782.019,507.1 1058.104,300.714 1423.424,411.394C1423.424,411.394 1514.265,434.032 1539.571,546.178C1539.571,546.178 1593.373,736.783 1589.974,937.545C1589.974,937.545 1593.543,1024.392 1481.498,1068.776C1481.498,1068.776 1238.441,1163.494 926.322,1146.669" style="fill:none;stroke:black;stroke-width:5.5px;"/>
                </g>
                <g transform="matrix(0.876085,0,0,1.036814,-2138.538507,1004.694806)">
                    <path d="M1000.035,1068.472C887.659,1068.936 869.443,1011.714 869.443,1011.714C833.143,907.091 817.075,677.523 817.075,677.523C808.03,576.603 904.105,536.347 904.105,536.347C904.105,536.347 1116.951,436.37 1381.599,483.146C1381.599,483.146 1462.105,499.672 1480.3,576.861C1480.3,576.861 1516.517,719.462 1516.791,881.761C1516.791,881.761 1522.4,959.839 1448.658,990.163C1448.658,990.163 1250.857,1074.455 1000.035,1068.472" style="fill:none;stroke:black;stroke-width:5.5px;"/>
                </g>
                <g transform="matrix(0.876085,0,0,1.036814,-2138.538507,1004.694806)">
                    <path d="M1000.035,1068.472C887.659,1068.936 869.443,1011.714 869.443,1011.714C833.143,907.091 817.075,677.523 817.075,677.523C808.03,576.603 904.105,536.347 904.105,536.347C904.105,536.347 1116.951,436.37 1381.599,483.146C1381.599,483.146 1462.105,499.672 1480.3,576.861C1480.3,576.861 1516.517,719.462 1516.791,881.761C1516.791,881.761 1522.4,959.839 1448.658,990.163C1448.658,990.163 1250.857,1074.455 1000.035,1068.472" style="fill:none;stroke:black;stroke-width:5.5px;"/>
                </g>
                <g transform="matrix(0.92676,-0.122824,0.112636,1.190335,-1954.199864,950.620656)">
                    <ellipse cx="991.876" cy="785.452" rx="48.124" ry="66.778"/>
                </g>
                <g transform="matrix(1.006999,-0.504043,0.444563,1.243954,-2267.359262,1295.588789)">
                    <ellipse cx="994.546" cy="747.026" rx="9.968" ry="11.644" style="fill:white;"/>
                </g>
                <g transform="matrix(-0.186113,1.156719,-0.550867,-0.124138,-1107.700564,-377.853993)">
                    <path d="M1478.751,133.939C1478.751,133.939 1529.118,212.411 1529.118,246.042C1529.118,295.365 1506.549,335.409 1478.751,335.409C1450.952,335.409 1428.383,295.365 1428.383,246.042C1428.383,212.411 1478.751,133.939 1478.751,133.939Z" style="fill:rgb(246,113,163);stroke:black;stroke-width:5.96px;"/>
                </g>
                <g transform="matrix(0.92676,-0.122824,0.112636,1.190335,-2287.232512,1005.438549)">
                    <ellipse cx="991.876" cy="785.452" rx="48.124" ry="66.778"/>
                </g>
                <g transform="matrix(1.006999,-0.504043,0.444563,1.243954,-2600.39191,1350.406682)">
                    <ellipse cx="994.546" cy="747.026" rx="9.968" ry="11.644" style="fill:white;"/>
                </g>
                <g transform="matrix(-0.206658,-1.563016,0.865553,-0.160285,-1723.191583,3905.355513)">
                    <path d="M1155.338,918.876C1138.251,926.541 1124.379,965.118 1124.379,1010.857C1124.379,1056.596 1138.251,1095.173 1155.338,1102.838C1132.556,1102.838 1114.059,1061.623 1114.059,1010.857C1114.059,960.091 1132.556,918.876 1155.338,918.876Z"/>
                </g>
                <g transform="matrix(0.876085,0,0,1.036814,-2138.538507,1004.694806)">
                    <path d="M1408.897,221.816L1416.555,234.769" style="fill:none;stroke:black;stroke-width:5.5px;"/>
                </g>
                <g transform="matrix(-0.3425,-1.105539,0.526493,-0.228449,-476.231544,2917.062375)">
                    <path d="M1478.751,133.939C1478.751,133.939 1529.118,212.411 1529.118,246.042C1529.118,295.365 1506.549,335.409 1478.751,335.409C1450.952,335.409 1428.383,295.365 1428.383,246.042C1428.383,212.411 1478.751,133.939 1478.751,133.939Z" style="fill:rgb(251,102,166);stroke:black;stroke-width:5.96px;"/>
                </g>
                <g transform="matrix(0.329749,0.069872,-0.059997,0.39657,-1927.336554,376.818369)">
                    <path d="M5105.857,6255.411C5105.857,6255.411 4951.187,6350.095 4916.143,6540.263C4916.143,6540.263 4913.15,6567.985 4932.058,6582.973C4932.058,6582.973 4960.374,6609.075 4993.163,6613.179C4993.163,6613.179 5032.33,6616.529 5047.088,6596.105C5047.088,6596.105 5084.309,6537.477 5127.105,6526.261C5127.105,6526.261 5153.491,6520.833 5176.395,6527.467C5176.395,6527.467 5207.136,6534.939 5224.992,6561.503C5224.992,6561.503 5242.239,6584.881 5243.498,6609.689C5243.498,6609.689 5244.38,6629.774 5236.698,6645.768C5236.698,6645.768 5205.383,6728.187 5140.696,6744.42C5140.696,6744.42 5115.946,6751.682 5108.391,6768.179C5108.391,6768.179 5094.259,6791.533 5096.62,6828.779C5096.62,6828.779 5101.199,6870.645 5148.914,6893.519C5148.914,6893.519 5191.956,6910.244 5250.248,6900.406C5250.248,6900.406 5340.991,6886.386 5400.174,6830.662C5400.174,6830.662 5577.042,6687.913 5597.412,6234.681C5597.412,6234.681 5582.616,6157.754 5443.135,6167.11C5443.135,6167.11 5169.806,6215.259 5105.857,6255.411" style="fill:rgb(251,102,166);stroke:black;stroke-width:14.26px;"/>
                </g>
                <g transform="matrix(0.876085,0,0,1.036814,-2147.548246,735.527247)">
                    <path d="M1152.895,2557.61C1152.895,2557.61 1298.822,2628.619 1453.725,2550.004" style="fill:none;stroke:black;stroke-width:5.5px;"/>
                </g>
            </g>
        </g>
    </g>
</svg>
