<?xml version="1.0" encoding="UTF-8" standalone="no"?>
<!DOCTYPE svg PUBLIC "-//W3C//DTD SVG 1.1//EN" "http://www.w3.org/Graphics/SVG/1.1/DTD/svg11.dtd">
<svg width="100%" height="100%" viewBox="0 0 627 1114" version="1.1" xmlns="http://www.w3.org/2000/svg" xmlns:xlink="http://www.w3.org/1999/xlink" xml:space="preserve" xmlns:serif="http://www.serif.com/" style="fill-rule:evenodd;clip-rule:evenodd;stroke-linecap:round;stroke-linejoin:round;stroke-miterlimit:1.5;">
    <g transform="matrix(1,0,0,1,-5489.960782,-1289.936208)">
        <g transform="matrix(1.043103,0,0,1,-252.954749,56.069331)">
            <g transform="matrix(0.231819,0,0,0.241811,5806.003777,1790.536352)">
                <g transform="matrix(1,0,0,1,-1295.833333,-2302.083333)">
                    <g transform="matrix(4.166667,0,0,4.166667,0,0)">
                        <g>
                            <path d="M585.348,822.808L596.074,902.741L530.45,911.547L519.724,831.614L585.348,822.808Z" style="stroke:black;stroke-width:2.5px;"/>
                            <path d="M483.559,831.863C483.559,831.863 453.008,738.502 456.527,693.761C555.581,702.089 582.089,650.269 582.089,650.269C582.089,650.269 633.169,726.391 616.582,839.269C616.582,839.269 615.39,848.485 603.897,854.257C603.897,854.257 529.901,886.276 492.505,849.03C492.505,849.03 487.311,843.673 483.558,831.862" style="fill:rgb(124,218,243);stroke:black;stroke-width:2.5px;"/>
                            <path d="M483.418,512.281C483.418,512.281 545.049,504.17 573.926,603.851C573.926,603.851 577.434,617.592 570.399,625.266C570.399,625.266 533.777,668.15 454.472,662.441C443.34,661.078 439.36,646.862 439.36,646.862C406.223,548.515 461.472,520.024 461.472,520.024C461.472,520.024 470.425,514.19 483.417,512.28" style="fill:rgb(124,218,243);stroke:black;stroke-width:2.5px;"/>
                            <g>
                                <g>
                                    <path d="M582.093,650.479C586.612,633.54 571.19,624.537 571.19,624.537C570.944,624.859 570.681,625.172 570.403,625.476C570.403,625.476 533.781,668.36 454.476,662.651C452.692,662.433 451.147,661.914 449.717,661.146C449.717,661.146 436.864,680.626 456.53,693.969C555.584,702.297 582.092,650.477 582.092,650.477" style="stroke:black;stroke-width:2.5px;"/>
                                </g>
                            </g>
                            <path d="M524.44,903.094C524.44,903.094 496.508,924.26 493.208,961.901C493.208,961.901 493.132,967.351 497.024,969.935C497.024,969.935 502.917,974.516 509.273,974.736C509.273,974.736 516.837,974.696 519.297,970.459C519.297,970.459 525.375,958.388 533.373,955.448C533.373,955.448 538.33,953.925 542.838,954.812C542.838,954.812 548.861,955.724 552.759,960.58C552.759,960.58 556.483,964.827 557.169,969.634C557.169,969.634 557.698,973.529 556.514,976.778C556.514,976.778 551.994,993.377 539.893,997.68C539.893,997.68 535.282,999.531 534.13,1002.876C534.13,1002.876 531.842,1007.672 532.963,1014.882C532.963,1014.882 534.592,1022.952 544.143,1026.562C544.143,1026.562 552.689,1029.058 563.68,1026.113C563.68,1026.113 580.813,1021.781 591.151,1009.887C591.151,1009.887 622.473,978.972 618.24,890.376C618.24,890.376 614.025,875.661 587.471,879.946C587.471,879.946 535.972,894.148 524.441,903.094" style="fill:rgb(124,218,243);stroke:black;stroke-width:2.5px;"/>
                        </g>
                        <g>
                            <path d="M35.798,838.08L25.072,918.013L90.696,926.819L101.422,846.886L35.798,838.08Z" style="stroke:black;stroke-width:2.5px;"/>
                            <path d="M137.588,847.135C137.588,847.135 168.139,753.774 164.62,709.033C65.566,717.361 39.058,665.541 39.058,665.541C39.058,665.541 -12.022,741.663 4.565,854.541C4.565,854.541 5.757,863.757 17.25,869.529C17.25,869.529 91.246,901.548 128.642,864.302C128.642,864.302 133.836,858.945 137.589,847.134" style="fill:rgb(124,218,243);stroke:black;stroke-width:2.5px;"/>
                            <path d="M137.729,527.554C137.729,527.554 76.098,519.443 47.221,619.124C47.221,619.124 43.713,632.865 50.748,640.539C50.748,640.539 87.37,683.423 166.675,677.714C177.807,676.351 181.787,662.135 181.787,662.135C214.924,563.788 159.675,535.297 159.675,535.297C159.675,535.297 150.722,529.463 137.73,527.553" style="fill:rgb(124,218,243);stroke:black;stroke-width:2.5px;"/>
                            <g>
                                <g>
                                    <path d="M39.053,665.751C34.534,648.812 49.956,639.809 49.956,639.809C50.202,640.131 50.465,640.444 50.743,640.748C50.743,640.748 87.365,683.632 166.67,677.923C168.454,677.705 169.999,677.186 171.429,676.418C171.429,676.418 184.282,695.898 164.616,709.241C65.562,717.569 39.054,665.749 39.054,665.749" style="stroke:black;stroke-width:2.5px;"/>
                                </g>
                            </g>
                            <path d="M96.706,918.367C96.706,918.367 124.638,939.533 127.938,977.174C127.938,977.174 128.014,982.624 124.122,985.208C124.122,985.208 118.229,989.789 111.873,990.009C111.873,990.009 104.309,989.969 101.849,985.732C101.849,985.732 95.771,973.661 87.773,970.721C87.773,970.721 82.816,969.198 78.308,970.085C78.308,970.085 72.285,970.997 68.387,975.853C68.387,975.853 64.663,980.1 63.977,984.907C63.977,984.907 63.448,988.802 64.632,992.051C64.632,992.051 69.152,1008.65 81.253,1012.953C81.253,1012.953 85.864,1014.804 87.016,1018.149C87.016,1018.149 89.304,1022.945 88.183,1030.155C88.183,1030.155 86.554,1038.225 77.003,1041.835C77.003,1041.835 68.457,1044.331 57.466,1041.386C57.466,1041.386 40.333,1037.054 29.995,1025.16C29.995,1025.16 -1.327,994.245 2.906,905.649C2.906,905.649 7.121,890.934 33.675,895.219C33.675,895.219 85.174,909.421 96.705,918.367" style="fill:rgb(124,218,243);stroke:black;stroke-width:2.5px;"/>
                        </g>
                        <rect x="253.833" y="1020.085" width="115.576" height="39.944" style="stroke:black;stroke-width:2.5px;"/>
                        <g>
                            <path d="M236.331,1059.805C236.331,1059.805 295.535,1098.067 381.424,1061.767C381.424,1061.767 382.788,1084.243 364.186,1093.273C314.697,1114.705 256.161,1096.005 256.161,1096.005C233.345,1088.586 236.331,1059.805 236.331,1059.805C239.399,1047.176 253.265,1045.068 253.265,1045.068C253.265,1045.068 304.182,1070.921 369.556,1044.585C369.556,1044.585 380.063,1047.963 381.424,1061.767" style="fill:rgb(124,218,243);stroke:black;stroke-width:2.5px;"/>
                            <path d="M381.371,1061.789C380.01,1047.985 369.503,1044.607 369.503,1044.607C304.129,1070.943 253.212,1045.09 253.212,1045.09C253.212,1045.09 239.347,1047.198 236.278,1059.827C236.278,1059.827 295.482,1098.089 381.371,1061.789" style="fill:rgb(78,190,212);stroke:black;stroke-width:2.5px;"/>
                        </g>
                        <g>
                            <path d="M215.515,963.112C215.515,963.112 209.628,1010.61 240.212,1020.802C240.212,1020.802 320.957,1044.42 386.19,1017.049C413.775,1007.056 407.589,963.052 407.589,963.052" style="fill:rgb(124,218,243);stroke:black;stroke-width:2.5px;"/>
                            <ellipse cx="311.56" cy="963.558" rx="96.434" ry="20.454" style="fill:rgb(78,190,212);stroke:black;stroke-width:2.5px;"/>
                        </g>
                        <path d="M375.608,934.528C375.608,949.729 363.267,962.071 348.065,962.071L275.176,962.071C259.975,962.071 247.633,949.73 247.633,934.528C247.633,919.327 259.974,906.985 275.176,906.985L348.065,906.985C363.266,906.985 375.608,919.326 375.608,934.528Z" style="stroke:black;stroke-width:2.5px;"/>
                        <path d="M476.428,486.048C491.333,501.015 493.436,513.307 493.436,513.307C493.436,513.307 548.411,737.971 450.759,878.287C430.645,905.805 388.867,919.335 388.867,919.335C300.229,943.911 220.433,918.383 220.433,918.383C193.932,909.111 176.633,894.989 165.646,882.338C165.646,882.338 84.556,791.322 98.4,559.089C98.4,559.089 99.506,537.048 110.564,524.073" style="fill:rgb(124,218,243);stroke:black;stroke-width:2.5px;"/>
                        <circle cx="454.097" cy="610.655" r="23.539" style="fill:rgb(221,255,0);stroke:black;stroke-width:2.5px;"/>
                        <path d="M288.786,460.837C393.743,449.871 481.808,468.274 485.322,501.907C488.836,535.54 406.477,571.749 301.519,582.715C196.562,593.681 108.497,575.278 104.983,541.645C101.469,508.012 183.828,471.803 288.786,460.837Z" style="fill:rgb(78,190,212);stroke:black;stroke-width:2.5px;"/>
                        <path d="M292.824,480.942C355.82,474.519 408.468,484.036 410.318,502.182C412.168,520.328 362.525,540.275 299.529,546.698C236.533,553.121 183.885,543.604 182.035,525.458C180.185,507.312 229.828,487.365 292.824,480.942Z" style="stroke:black;stroke-width:2.5px;"/>
                        <g>
                            <circle cx="281.816" cy="455.686" r="65.127" style="stroke:black;stroke-width:2.5px;"/>
                            <g>
                                <path d="M220.512,60.776L227.215,122.869L219.095,123.746L212.392,61.653L220.512,60.776Z" style="stroke:black;stroke-width:2.5px;"/>
                                <circle cx="213.435" cy="35.013" r="33.763" style="fill:rgb(124,218,243);stroke:black;stroke-width:2.5px;"/>
                                <ellipse cx="231.955" cy="168.279" rx="55.677" ry="54.256" style="stroke:black;stroke-width:2.5px;"/>
                                <ellipse cx="396.475" cy="279.224" rx="69.955" ry="68.168" style="stroke:black;stroke-width:2.5px;"/>
                                <ellipse cx="107.041" cy="316.965" rx="69.955" ry="68.168" style="stroke:black;stroke-width:2.5px;"/>
                                <path d="M345.972,147.086C345.972,147.086 378.306,152.138 398.703,179.744C406.526,191.711 422.794,230.672 431.29,352.859C431.29,352.859 435.807,394.847 402.108,411.547C274.808,472.549 149.455,452.246 149.455,452.246C107.844,445.081 98.209,419.868 98.209,419.868C79.745,388.357 67.921,248.506 67.921,248.506C63.276,212.902 99.407,189.441 99.407,189.441C99.407,189.441 200.266,124.661 345.973,147.086" style="fill:rgb(124,218,243);stroke:black;stroke-width:2.5px;"/>
                                <path d="M376.492,385.645C409.919,365.519 407.698,346.72 407.698,346.72C400.316,230.809 387.112,212.253 387.112,212.253C387.112,212.253 371.831,179.106 325.568,177.402C203.297,173.35 140.098,212.84 140.098,212.84C103.527,231.558 108.658,262.73 108.658,262.73C108.658,262.73 118.162,361.571 130.834,392.934C130.834,392.934 141.149,414.772 168.243,418.272C168.243,418.272 286.004,435.469 376.492,385.645" style="fill:white;stroke:black;stroke-width:2.5px;"/>
                                <path d="M182.565,272.268C191.727,271.052 200.643,281.203 202.464,294.922C204.285,308.641 198.325,320.767 189.163,321.983C180.001,323.199 171.085,313.048 169.264,299.329C167.443,285.61 173.403,273.484 182.565,272.268Z" style="stroke:black;stroke-width:2.5px;"/>
                                <path d="M333.026,252.593C342.188,251.377 351.104,261.528 352.925,275.247C354.746,288.966 348.786,301.092 339.624,302.308C330.462,303.524 321.546,293.373 319.725,279.654C317.904,265.935 323.864,253.809 333.026,252.593Z" style="stroke:black;stroke-width:2.5px;"/>
                                <path d="M173.74,355.064C187.286,352.472 199.589,357.19 201.197,365.594C202.805,373.998 193.114,382.925 179.568,385.518C166.022,388.11 153.719,383.392 152.111,374.988C150.503,366.584 160.194,357.657 173.74,355.064Z" style="fill:rgb(204,90,128);"/>
                                <path d="M361.085,331.015C374.873,330.721 386.216,337.427 386.398,345.981C386.581,354.535 375.535,361.72 361.746,362.014C347.958,362.308 336.615,355.602 336.433,347.048C336.25,338.494 347.296,331.309 361.085,331.015Z" style="fill:rgb(204,90,128);"/>
                                <path d="M225.319,354.592C223.506,352.81 224.15,350.871 224.888,349.981C225.425,349.333 226.012,348.919 227.014,348.831C228.23,348.724 229.693,349.767 229.693,349.767C229.693,349.767 275.383,386.928 308.951,338.628C308.951,338.628 309.659,337.573 310.83,337.321C311.624,337.15 312.758,337.25 313.541,337.623C314.897,338.268 315.624,340.111 314.552,341.911C278.549,396.208 225.319,354.592 225.319,354.592" style="stroke:black;stroke-width:2.5px;"/>
                            </g>
                            <path d="M69.156,228.535C76.271,227.402 88.906,269.557 97.353,322.612C105.8,375.667 106.882,419.661 99.767,420.794C92.652,421.927 80.017,379.772 71.57,326.717C63.123,273.662 62.041,229.668 69.156,228.535Z" style="stroke:black;stroke-width:2.5px;"/>
                            <circle cx="201.306" cy="35.796" r="16.869" style="fill:rgb(201,243,255);"/>
                        </g>
                    </g>
                </g>
            </g>
        </g>
    </g>
</svg>
