<?xml version="1.0" encoding="UTF-8" standalone="no"?>
<!DOCTYPE svg PUBLIC "-//W3C//DTD SVG 1.1//EN" "http://www.w3.org/Graphics/SVG/1.1/DTD/svg11.dtd">
<svg width="100%" height="100%" viewBox="0 0 330 1031" version="1.1" xmlns="http://www.w3.org/2000/svg" xmlns:xlink="http://www.w3.org/1999/xlink" xml:space="preserve" xmlns:serif="http://www.serif.com/" style="fill-rule:evenodd;clip-rule:evenodd;stroke-linejoin:round;stroke-miterlimit:2;">
    <g transform="matrix(1,0,0,1,-14705.958872,-4434.414321)">
        <g transform="matrix(1.95055,0,0,2.756375,-7265.768949,-6854.068498)">
            <g id="Fondo" transform="matrix(0.810255,0,0,0.573378,10934.474431,3989.349816)">
                <path d="M556.396,188.274C581.79,177.669 583.21,198.939 588.481,199.622C612.219,202.698 613.338,227.632 607.253,235.318C603.799,239.682 606.976,240.263 607.248,244.532C608.092,257.775 595.102,259.834 594.57,260.545C593.489,261.994 616.446,282.102 615.858,323.498C615.211,369.013 589.852,389.246 585.097,393.04C570.468,404.712 558.738,402.211 550.731,406.89C540.565,412.831 534.799,413.548 531.375,415.282C530.054,415.951 527.977,426.761 532.683,429.163C553.769,439.925 556.909,449.477 575.045,513.643C577.581,522.618 569.344,521.308 567.23,523.184C565.596,524.633 572.541,561.681 575.305,588.523C577.815,612.904 581.526,612.259 582.708,629.486C583.814,645.6 570.586,652.347 570.466,652.371C564.165,653.606 568.658,656.735 569.085,685.51C569.17,691.214 559.709,690.492 557.668,691.807C554.761,693.679 557.244,719.952 555.582,753.504C552.627,813.156 560.31,819.083 555.537,830.515C552.779,837.121 484.457,837.917 474.461,836.791C457.763,834.91 412.13,840.993 412.088,831.483C411.988,808.726 462.594,800.037 466.364,799.084C468.428,798.562 467.826,797.581 466.947,772.485C466.728,766.242 464.442,700.985 463.877,694.462C463.623,691.539 456.801,691.682 454.636,690.269C451.762,688.393 452.277,682.342 452.243,681.512C450.994,650.951 453.426,644.934 448.467,648.45C444.9,650.979 444.621,650.799 440.475,649.583C438.869,649.111 437.744,650.35 435.5,650.32C425.546,650.187 423.876,634.305 421.862,630.318C418.178,623.023 428.298,604.546 431.088,591.416C444.415,528.704 445.655,529.012 446.797,523.558C447.617,519.643 445.485,520.58 441.815,518.108C438.282,515.727 441.022,514.583 456.841,475.647C473.414,434.857 486.215,433.982 489.495,430.495C490.193,429.752 490.23,423.139 490.233,422.496C490.259,417.902 488.059,419.584 483.532,419.103C430.427,413.461 400.098,387.464 415.968,352.733C418.863,346.399 419.715,346.593 421.66,328.513C422.027,325.102 414.862,327.444 410.458,325.595C402.952,322.442 408.433,283.234 424.928,265.887C434.267,256.067 446.375,251.249 446.418,251.236C457.392,247.844 471.74,230.438 510.5,229.736C521.751,229.532 526.76,231.877 523.907,229.369C510.85,217.891 517.197,193.726 530.603,187.724C547.071,180.352 550.789,190.363 556.396,188.274ZM516.498,710.5C516.123,698.184 516.261,698.253 515.958,697.327C515.572,696.152 511.854,696.174 511.485,696.177C506.244,696.209 503.758,694.262 503.693,699.501C503.005,755.238 501.206,755.122 500.879,796.51C500.837,801.82 499.421,805.196 504.508,803.525C510.477,801.566 519.368,799.434 520.265,799.011C523.044,797.701 518.559,762.951 516.498,710.5Z" style="fill:rgb(59,37,17);"/>
                <path d="M490.296,302.752C491.77,306.865 491.319,319.22 496.512,319.29C510.15,319.472 513.376,319.582 512.726,312.498C511.896,303.44 511.207,303.026 512.432,302.313C516.566,299.91 510.061,315.417 522.496,315.646C528.133,315.75 533.319,316.226 533.743,312.538C533.884,311.308 535.474,297.463 536.384,297.287C538.863,296.807 548.635,318.45 553.356,341.536C553.494,342.213 555.026,349.703 556.51,349.584C557.065,349.539 564.691,338.336 575.521,341.421C592.343,346.212 583.932,376.268 563.496,372.532C563.131,372.465 558.878,371.687 558.864,372.598C558.81,376.17 567.135,374.507 566.283,378.466C558.712,413.622 527.519,405.189 526.55,416.506C526.105,421.7 527.789,429.714 524.273,431.012C522.101,431.815 504.995,438.133 495.442,433.608C491.193,431.596 497.968,417.313 489.444,415.969C472.542,413.303 413.36,410.49 415.814,365.531C416.345,355.803 422.839,351.676 424.084,340.449C424.353,338.018 427.832,306.629 431.199,310.711C432.413,312.183 427.308,323.76 436.461,323.057C451.324,321.916 451.351,320.485 451.659,318.522C454.608,299.706 455.909,298.802 457.098,299.81C458.367,300.887 451.288,320.312 462.501,320.433C486.67,320.694 487.152,319.508 487.72,317.558C488.843,313.701 487.464,304.224 490.296,302.752Z" style="fill:rgb(231,166,117);"/>
                <path d="M532.886,531.455C537.572,551.652 543.986,591.429 543.308,592.398C541.844,594.491 502.374,598.92 483.499,599.017C468.69,599.094 448.596,596.447 446.848,595.073C446.352,594.684 445.115,594.323 455.959,531.527C459.646,508.055 461.827,499.494 462.079,498.285C466.531,475.501 468.235,473.871 466.406,472.637C463.718,470.823 461.848,482.467 460.563,488.515C454.693,516.121 455.348,516.202 454.827,518.595C453.932,522.708 445.168,515.832 444.828,515.271C444.373,514.52 446.634,509.159 446.849,508.648C462.651,471.176 469.101,451.798 484.752,437.794C490.537,432.619 491.272,435.917 493.38,436.763C507.992,442.624 526.046,433.961 528.603,432.735C529.765,432.177 535.5,432.682 543.356,440.641C557.795,455.269 571.511,516.045 571.449,516.494C570.836,520.956 527.152,526.346 524.483,525.544C520.931,524.476 521.834,480.648 520.065,477.79C516.075,471.342 517.716,492.929 518.074,500.59C518.82,515.273 518.779,517.716 519.894,525.443C521.121,533.946 530.568,524.572 532.886,531.455" style="fill:rgb(233,128,13);"/>
                <path d="M549.717,653.507C553.391,659.169 559.679,652.471 563.196,655.806C565.538,658.026 565.302,677.032 565.695,683.517C565.848,686.051 564.977,688.235 534.482,691.384C495.861,695.372 457.41,688.572 456.34,686.611C455.952,685.9 455.607,685.268 455.647,676.502C455.658,674.193 455.368,663.493 455.321,660.507C455.257,656.459 455.267,642.55 455.196,637.511C454.704,602.77 454.607,600.973 457.507,601.209C518.803,606.189 543.588,593.107 544.76,598.403C547.732,611.83 530.391,629.96 537.64,636.342C541.13,639.414 545.45,634.484 545.903,633.967C548.165,631.385 548.242,642.762 548.237,643.505C548.186,651.713 549.717,653.507 549.717,653.507Z" style="fill:rgb(133,68,65);"/>
                <path d="M543.542,631.538C537.687,638.137 540.319,627.877 540.421,627.48C544.228,612.642 550.136,613.635 548.045,596.561C545.597,576.588 535.736,529.809 536.803,528.799C538.213,527.464 538.625,528.505 560.572,523.906C563.243,523.347 562.961,525.286 571.411,584.51C573.342,598.044 572.019,598.237 575.743,611.425C580.833,629.452 580.018,643.387 577.122,639.992C576.782,639.594 578.079,628.02 574.588,630.603C573.769,631.209 574.989,650.047 569.354,648.716C568.942,648.619 570.977,625.473 566.872,632.723C566.538,633.314 567.14,652.579 561.506,652.329C558.721,652.206 562.437,648.608 561.2,634.557C560.983,632.096 558.562,631.816 558.245,634.447C558.132,635.379 558.639,649.234 555.341,652.328C550.087,657.257 552.812,621.583 546.769,627.789C546.493,628.073 546.53,628.067 543.542,631.538Z" style="fill:rgb(231,166,117);"/>
                <path d="M552.079,747.488C551.784,776.428 552.338,776.824 550.467,778.454C549.672,779.147 524.753,781.458 524.159,777.571C521.982,763.329 520.288,713.132 520.099,707.521C519.788,698.309 517.752,696.472 521.433,696.102C549.162,693.314 549.075,692.364 551.483,692.613C553.965,692.87 552.516,694.232 552.503,707.5C552.5,710.699 552.491,720.091 552.079,747.488Z" style="fill:rgb(231,166,117);"/>
                <path d="M468.72,730.497C468.129,700.382 467.182,694.802 467.937,693.86C468.267,693.447 499.027,696.057 499.464,696.532C501.131,698.345 497.717,776.833 497.573,777.515C496.795,781.206 472.382,779.229 471.513,778.48C471.195,778.207 470.282,778.214 468.72,730.497Z" style="fill:rgb(231,166,117);"/>
                <path d="M432.554,645.428C424.489,637.688 427.019,631.981 427.603,631.748C431.059,630.37 430.961,630.246 433.19,627.295C442.3,615.23 442.592,615.472 443.345,614.396C445.305,611.595 443.202,609.195 440.991,611.886C429.281,626.134 429.905,626.7 428.56,627.569C419.985,633.109 430.463,606.097 431.139,604.355C432.681,600.379 432.634,600.371 443.387,552.473C443.888,550.241 448.591,529.293 449.83,524.619C449.948,524.172 454.305,521.798 452.829,529.563C451.89,534.496 445.901,565.992 442.976,591.552C442.263,597.778 443.316,598.438 449.441,599.787C452.54,600.469 451.56,601.723 451.387,616.501C451.096,641.3 452.626,641.72 451.133,643.253C447.939,646.531 445.985,628.928 444.456,628.619C438.556,627.428 447.96,645.753 444.555,646.667C436.95,648.707 438.314,626.423 434.612,629.628C431.37,632.435 441.828,650.516 432.554,645.428Z" style="fill:rgb(231,166,117);"/>
                <path d="M544.524,803.965C551.02,803.29 551.438,802.348 552.248,803.651C552.862,804.636 553.372,819.228 553.263,820.464C553.1,822.303 552.408,822.515 530.467,824.042C509.583,825.495 508.561,825.437 507.71,822.438C504.615,811.541 498.592,809.84 500.63,808.716C505.317,806.132 510.315,814.78 511.447,814.893C516.602,815.409 507.803,806.899 508.788,805.926C511.387,803.362 518.272,811.58 518.449,811.635C521.182,812.487 521.262,809.046 517.231,805.711C514.449,803.41 520.035,802.971 522.508,802.56C526.189,801.947 526.547,804.706 544.524,803.965Z" style="fill:rgb(233,128,13);"/>
                <path d="M474.588,804.041C480.945,804.891 484.309,806.063 495.502,804.731C504.985,803.603 492.091,807.843 491.712,807.968C479.936,811.84 472.603,821.781 471.391,823.425C469.439,826.071 448.914,825.601 448.602,825.362C447.414,824.448 447.611,816.267 443.252,811.69C440.74,809.053 445.343,806.943 448.41,810.58C450.104,812.59 452.096,816.463 454.538,815.572C458.126,814.261 445.574,804.866 453.528,806.292C455.648,806.672 463.045,819.497 462.506,812.499C462.273,809.474 456.252,805.093 459.465,804.414C470.716,802.036 470.704,803.37 474.588,804.041Z" style="fill:rgb(233,128,13);"/>
                <path d="M479.419,800.94C472.598,799.513 472.51,799.762 471.943,799.074C471.646,798.714 469.227,782.283 472.5,782.511C494.501,784.046 494.666,782.057 496.377,782.908C497.564,783.499 497.648,783.843 497.195,799.469C497.087,803.227 480.834,801.123 479.419,800.94Z" style="fill:rgb(253,252,249);"/>
                <path d="M546.457,800.13C544.739,800.215 525.398,801.168 525.103,797.587C523.979,783.942 524.259,783.566 525.347,783.191C526.19,782.9 536.751,783.505 547.519,782.747C552.901,782.367 551.158,785.101 551.172,790.496C551.174,791.202 551.192,798.603 550.359,799.281C550.111,799.482 550.072,799.343 546.457,800.13Z" style="fill:rgb(253,252,249);"/>
                <path d="M527.494,832.136C515.167,832.648 465.21,836.685 472.807,829.863C475.189,827.723 492.485,831.467 542.481,826.329C544.44,826.127 553.234,824.333 552.736,827.543C552.286,830.449 543.249,831.164 527.494,832.136Z" style="fill:rgb(233,128,13);"/>
                <path d="M493.394,811.226C494.36,811.033 495.681,809.808 498.336,812.665C499.014,813.395 503.008,817.694 504.47,823.506C505.157,826.239 498.67,825.76 490.499,825.832C476.837,825.952 475.437,826.07 475.324,825.659C473.933,820.575 491.727,812.027 493.394,811.226Z" style="fill:rgb(233,128,13);"/>
                <path d="M435.496,825.763C434.216,825.76 421.698,825.734 419.486,825.569C415.447,825.268 423.953,817.194 433.68,812.92C444.219,808.29 444.211,824.882 444.043,825.124C443.616,825.741 436.182,825.761 435.496,825.763Z" style="fill:rgb(233,128,13);"/>
                <path d="M553.575,239.296C552.075,238.738 547.893,236.71 538.372,233.86C533.09,232.279 532.732,232.722 531.782,232.063C531.143,231.62 530.974,230.474 532.672,229.906C546.272,225.357 566.839,238.097 564.92,242.744C564.329,244.176 556.209,240.352 553.575,239.296Z" style="fill:rgb(186,70,64);"/>
                <path d="M454.299,383.669C454.058,383.286 451.829,379.739 452.293,378.378C453.586,374.583 457.625,386.545 467.57,388.017C485.111,390.613 489.974,371.986 491.529,372.003C500.095,372.094 475.41,407.836 454.299,383.669Z" style="fill:rgb(47,38,29);"/>
                <g transform="matrix(1.136999,0,0,1.015558,-73.668524,-5.447082)">
                    <ellipse cx="453.992" cy="339.398" rx="4.565" ry="7.818" style="fill:rgb(47,38,29);"/>
                </g>
                <g transform="matrix(1.136999,0,0,1.015558,-17.725004,-5.447082)">
                    <ellipse cx="453.992" cy="339.398" rx="4.565" ry="7.818" style="fill:rgb(47,38,29);"/>
                </g>
                <g transform="matrix(1,0,0,1,0.059411,-0.328152)">
                    <path d="M426.504,829.197C441.419,829.336 445.04,828.237 444.868,831.533C444.711,834.552 430.351,833.816 426.575,833.759C422.545,833.699 413.054,832.594 416.481,829.479C417.074,828.94 425.96,829.193 426.504,829.197Z" style="fill:rgb(233,128,13);"/>
                </g>
                <g transform="matrix(0.715941,0,0,0.895987,150.900488,86.239856)">
                    <path d="M426.504,829.197C441.419,829.336 445.04,828.237 444.868,831.533C444.711,834.552 426.116,833.549 422.341,833.493C420.774,833.469 418.207,833.538 416.682,833.005C414.284,832.165 413.564,830.475 416.481,829.479C418.059,828.94 425.96,829.193 426.504,829.197Z" style="fill:rgb(233,128,13);"/>
                </g>
                <path d="M459.661,349.686C460.452,349.041 464.043,347.004 466.691,348.247C470.801,350.176 462.274,351.21 460.875,352.841C456.963,357.399 466.668,358.32 467.231,359.566C468.994,363.472 447.405,359.673 459.661,349.686Z" style="fill:rgb(47,38,29);"/>
                <path d="M573.577,351.943C563.931,355.512 564.912,364.382 562.033,360.893C559.677,358.038 571.906,344.797 576.429,349.562C576.536,349.674 577.407,350.592 576.497,351.497C576.497,351.497 573.811,351.907 573.577,351.943Z" style="fill:rgb(47,38,29);"/>
                <path d="M518.709,508.121C518.709,508.121 518.782,522.311 520.302,526.98C521.746,531.413 528.132,527.753 530.662,528.892C531.947,529.471 532.603,530.332 532.861,531.38C533.918,535.68 534.508,538.826 534.508,538.826C490.91,548.26 454.704,538.813 454.704,538.813L460.013,507.998C460.013,507.998 494.997,512.965 518.709,508.121" style="fill:white;"/>
            </g>
        </g>
    </g>
</svg>
