<?xml version="1.0" encoding="UTF-8" standalone="no"?>
<!DOCTYPE svg PUBLIC "-//W3C//DTD SVG 1.1//EN" "http://www.w3.org/Graphics/SVG/1.1/DTD/svg11.dtd">
<svg width="100%" height="100%" viewBox="0 0 416 995" version="1.1" xmlns="http://www.w3.org/2000/svg" xmlns:xlink="http://www.w3.org/1999/xlink" xml:space="preserve" xmlns:serif="http://www.serif.com/" style="fill-rule:evenodd;clip-rule:evenodd;stroke-linejoin:round;stroke-miterlimit:2;">
    <g transform="matrix(1,0,0,1,-15116.2929,-4471.145942)">
        <g transform="matrix(1.95055,0,0,2.756375,-7265.768949,-6854.068498)">
            <g id="Fondo" transform="matrix(0.811969,0,0,0.57459,11151.000759,3988.5077)">
                <path d="M427.49,584.498C432.827,556.718 433.222,556.869 440.058,529.394C441.346,524.218 443.342,522.685 438.442,520.645C430.26,517.238 433.842,514.507 437.047,506.308C462.344,441.581 465.43,443.044 468.498,439.498C475.61,431.275 480.323,434.234 480.671,429.516C480.976,425.389 482.546,419.95 477.5,419.495C471.896,418.989 427.176,414.954 410.767,397.267C391.489,376.488 399.139,360.547 407.562,348.545C410.433,344.455 410.983,317.633 414.267,302.457C416.166,293.684 409.873,295.453 407.214,286.598C399.258,260.098 427.237,253.643 431.279,252.065C433.655,251.138 425.055,244.951 427.189,238.391C429.774,230.447 435.325,245.016 469.647,233.91C517.884,218.301 539.845,235.544 556.57,246.386C559.526,248.302 558.703,245.06 571.929,227.849C595.727,196.879 630.954,208.383 638.444,234.517C639.655,238.742 663.209,244.488 661.101,278.477C659.146,310.013 644.65,289.778 643.454,289.786C641.556,289.8 639.738,305.888 626.333,310.006C600.616,317.906 610.737,295.265 601.254,289.943C594.118,285.937 601.843,297.558 603.078,300.65C619.384,341.487 594.083,373.741 592.915,375.711C589.377,381.682 600.184,387.407 600.398,390.51C600.779,396.022 590.458,395.503 589.502,395.455C585.311,395.245 587.478,400.603 579.486,401.3C574.583,401.727 575.548,403.579 571.411,406.356C565.316,410.447 552.104,403.079 550.623,402.254C547.617,400.577 548.278,404.447 526.433,412.297C520.367,414.476 521.406,416.675 522.386,426.511C522.804,430.703 534.155,428.768 546.279,451.628C552.8,463.921 565.101,508.452 565.597,510.475C568.637,522.862 560.857,519.701 559.392,522.428C558.496,524.095 564.624,557.282 568.429,584.509C572.27,611.995 583.134,634.651 572.301,643.211C564.601,649.296 564.928,649.655 564.245,650.163C560.948,652.617 563.57,655.823 563.209,685.496C563.109,693.702 554.654,689.904 552.549,691.578C550.413,693.277 553.305,735.866 551.209,769.477C549.625,794.884 555.556,827.342 551.424,834.049C548.941,838.079 480.474,836.436 475.505,836.288C457.961,835.768 458.044,836.888 440.503,836.906C416.272,836.931 410.295,837.138 410.292,832.496C410.281,808.34 464.195,801.402 464.631,800.599C465.51,798.98 460.659,701.03 460.081,695.547C459.673,691.687 454.108,693.586 450.404,691.673C446.609,689.713 448.368,663.232 447.244,647.558C447.01,644.301 443.341,648.913 443.12,649.191C439.731,653.45 435.785,649.578 433.427,650.314C432.127,650.721 424.192,653.2 420.221,639.568C416.251,625.944 417.712,620.462 420.462,611.487C424.561,598.109 424.682,598.233 427.49,584.498ZM499.952,725.511C499.772,751.141 497.725,801.974 499.413,803.588C499.509,803.68 515.936,801.38 516.561,797.508C517.655,790.739 512.813,757.439 511.435,701.501C511.42,700.878 511.26,694.383 510.335,693.788C509.92,693.52 500.749,693.634 500.583,693.729C498.716,694.799 500.586,697.667 499.952,725.511Z" style="fill:rgb(59,37,17);"/>
                <path d="M479.504,314.377C484.154,314.444 488.549,315.203 496.593,313.216C514.825,308.713 529.782,294.335 530.191,297.59C531.215,305.742 527.268,308.653 544.786,348.345C546.698,352.677 550.722,337.851 564.417,340.887C580.84,344.527 576.252,375.28 553.556,372.023C553.084,371.955 547.619,371.171 547.61,372.506C547.587,376.11 557.855,373.771 557.043,379.455C553.07,407.262 518.977,405.179 517.897,413.567C516.334,425.706 520.12,428.224 514.594,429.825C512.3,430.49 484.828,438.45 484.789,431.512C484.772,428.422 486.604,417.018 481.408,415.829C477.647,414.969 395.451,412.845 403.896,364.576C405.578,354.966 412.321,352.799 413.437,343.494C415.965,322.416 415.442,322.447 418.618,301.518C418.993,299.048 419.08,295.531 422.531,296.364C454.148,303.99 454.553,314.016 479.504,314.377Z" style="fill:rgb(252,195,150);"/>
                <path d="M555.254,489.564C562.477,514.55 563.256,515.882 560.317,517.116C557.499,518.299 555.526,519.128 522.531,522.749C521.893,522.819 514.966,523.58 514.509,522.496C513.462,520.012 512.734,469.897 509.498,469.698C507.059,469.547 508.33,471.332 509.966,517.477C510,518.429 509.751,527.858 513.497,527.587C521.04,527.039 522.49,524.964 523.449,528.516C524.515,532.469 524.595,532.763 534.693,578.447C536.78,587.887 540.138,592.104 530.48,593.115C523.637,593.831 482.24,598.166 444.519,596.011C438.777,595.683 440.189,593.28 440.989,587.573C446.129,550.933 447.024,551.131 452.1,514.45C455.888,487.081 459.066,447.17 478.722,436.937C480.938,435.784 492.345,442.208 517.362,433.141C526.079,429.982 537.648,441.411 545.098,459.679C549.607,470.731 551.815,479.634 555.254,489.564Z" style="fill:rgb(236,108,177);"/>
                <path d="M571.997,396.559C571.997,396.559 571.716,402.28 568.424,403.083C567.07,403.414 560.045,403.197 553.802,399.133C551.553,397.668 560.532,389.212 560.649,379.503C560.699,375.332 561.974,375.906 564.598,374.716C585.222,365.356 579.757,342.106 567.501,337.499C554.849,332.742 548.039,341.924 547.358,342.031C545.615,342.306 539.021,324.339 537.398,318.53C530.811,294.958 535.414,289.852 535.718,288.503C535.952,287.467 535.419,285.381 533.633,287.619C530.447,291.611 530.047,291.074 525.717,293.878C523.407,295.374 505.613,306.898 495.373,310.094C484.956,313.345 467.514,309.159 464.653,308.16C458.466,306 467.628,307.057 478.312,297.298C499.052,278.354 465.161,302.279 459.421,305.265C458.539,305.723 457.981,306.013 447.742,301.038C442.256,298.371 467.086,285.067 469.252,281.388C469.395,281.145 469.689,278.544 465.749,280.988C448.923,291.429 445.514,295.537 444.134,297.201C442.041,299.724 436.921,296.019 433.363,294.947C427.951,293.318 427.878,294.087 422.404,292.72C419.894,292.093 424.529,280.407 434.7,271.735C440.094,267.136 447.537,263.618 440.52,264.791C426.753,267.093 418.122,287.744 417.053,290.303C414.751,295.811 410.207,284.492 409.929,279.466C408.703,257.3 438.281,257.266 438.844,252.561C439.067,250.695 427.567,241.467 432.561,240.783C440.687,239.669 441.636,247.915 473.632,236.917C479.636,234.853 517.078,221.983 552.239,247.855C565.301,257.466 556.437,268.517 580.287,279.914C603.763,291.133 615.357,336.235 590.165,372.227C588.364,374.8 587.917,371.56 587.89,371.368C587.848,371.059 586.782,363.336 585.345,368.422C583.189,376.057 592.481,387.11 593.595,388.435C598.012,393.689 583.783,388.987 582.821,389.857C581.784,390.795 586.931,399.07 574.565,396.271C573.805,395.942 572.089,395.458 571.997,396.559" style="fill:rgb(195,59,45);"/>
                <path d="M535.458,612.479C534.645,614.095 523.233,636.77 535.427,635.1C539.114,634.595 542.164,629.61 542.29,632.549C542.898,646.682 539.187,652.985 555.52,654.135C556.206,654.183 559.073,653.031 559.077,656.511C559.09,670.567 559.759,670.467 559.643,684.514C559.613,688.09 557.41,686.405 519.526,688.729C494.676,690.253 494.297,689.829 492.877,688.238C489.041,683.941 495.546,625.241 472.526,622.873C472.172,622.837 469.091,624.18 474.27,626.967C485.199,632.847 485.374,647.948 487.866,683.48C488.091,686.686 489.666,687.933 486.521,688.567C470.106,691.876 462.329,689.468 454.546,688.336C450.837,687.796 452.58,672.888 450.71,632.483C450.698,632.231 449.734,602.002 450.826,600.873C453.878,597.715 472.622,604.092 522.518,597.866C537.753,595.964 538.04,597.32 538.301,598.557C540.046,606.804 536.225,611.019 535.458,612.479Z" style="fill:rgb(255,15,81);"/>
                <path d="M596.492,284.712C593.142,284.278 593.356,283.758 588.944,280.008C584.83,276.511 583.394,269.629 583.364,269.546C578.06,254.838 565.106,250.161 563.843,248.275C562.922,246.9 572.505,233.372 578.602,226.593C581.111,223.803 600.798,201.912 625.157,220.885C627.434,222.658 638.726,236.118 631.452,234.871C627.428,234.182 618.768,235.181 619.704,237.412C620.233,238.672 620.677,238.014 625.508,237.954C642.202,237.747 662.95,254.148 655.8,286.567C653.723,295.983 649.448,288.94 648.164,287.906C638.116,279.807 638.503,287.764 638.135,289.422C634.315,306.655 614.631,311.793 611.952,304.347C607.235,291.231 610.42,286.257 596.492,284.712Z" style="fill:rgb(195,59,45);"/>
                <path d="M555.284,527.52C563.733,574.629 564.298,593.602 570.686,614.443C574.82,627.93 572.537,642.69 570.792,638.353C570.253,637.013 571.745,626.861 568.699,628.9C567.286,629.846 566.581,650.411 563.621,644.426C563.149,643.472 565.615,627.603 561.647,628.909C559.957,629.465 562.047,653.738 555.615,650.2C554.125,649.38 557.873,628.294 553.546,630.592C551.956,631.437 553.569,654.13 547.837,649.107C544.508,646.189 548.671,613.959 538.148,628.255C532.011,636.592 533.72,623.538 537.935,615.758C545.961,600.943 542.639,600.048 539.653,583.469C536.749,567.349 535.162,564.689 529.277,534.541C528.567,530.903 528.223,531.085 527.507,527.499C527.11,525.511 528.36,525.361 552.473,523.108C555.591,522.817 555.12,526.203 555.284,527.52Z" style="fill:rgb(252,195,150);"/>
                <path d="M547.913,695.505C548.618,731.672 546.849,786.568 546.495,786.935C545.84,787.617 544.664,787.844 528.06,787.966C524.408,787.992 521.131,788.13 520.392,786.937C519.033,784.744 516.03,707.439 515.751,700.49C515.615,697.112 514.276,693.098 517.528,692.888C519.842,692.738 540.094,691.429 546.488,691.566C547.639,691.591 547.889,695.171 547.913,695.505Z" style="fill:rgb(252,195,150);"/>
                <path d="M467.922,770.477C466.072,724.407 465.904,724.488 465.759,720.487C464.899,696.754 462.074,693.827 466.517,694.065C483.25,694.963 488.406,691.264 494.449,693.614C495.814,694.145 495.841,700.866 495.844,701.507C495.872,708.313 496.074,758.374 494.945,786.575C494.869,788.462 493.852,788.24 471.47,789.035C468.27,789.149 468.77,787.513 467.922,770.477Z" style="fill:rgb(252,195,150);"/>
                <path d="M478.521,548.935C458.301,547.278 456.034,537.004 458.512,494.501C458.834,488.977 471.875,489.939 477.52,489.664C484.528,489.323 499.236,490.37 500.56,492.454C502.106,494.888 502.464,495.45 500.584,528.507C499.501,547.567 480.921,548.778 478.521,548.935Z" style="fill:rgb(59,37,17);"/>
                <path d="M476.487,493.905C477.83,493.77 496.906,494.385 497.581,496.472C497.675,496.763 496.915,529.128 495.749,532.578C490.702,547.519 462.528,553.338 461.77,525.49C461.705,523.105 461.026,498.148 462.825,495.681C462.939,495.526 462.816,494.752 476.487,493.905Z" style="fill:rgb(198,192,173);"/>
                <g transform="matrix(0.522122,0,0,0.631398,-7372.717632,-2593.839232)">
                    <path d="M15039.232,4918.565C15044.512,4911.041 15055.073,4911.041 15060.353,4914.803C15065.633,4918.565 15065.633,4926.089 15060.353,4933.613C15056.657,4939.257 15047.152,4944.9 15039.232,4948.662C15031.312,4944.9 15021.807,4939.257 15018.111,4933.613C15012.831,4926.089 15012.831,4918.565 15018.111,4914.803C15023.391,4911.041 15033.952,4911.041 15039.232,4918.565Z" style="fill:rgb(255,0,60);"/>
                </g>
                <path d="M432.417,623.448C433.752,622.119 433.719,622.222 435.354,621.249C441.688,617.484 443.039,606.09 438.843,611.773C435.809,615.883 435.853,615.861 431.84,618.93C428.612,621.398 427.303,627.724 424.327,629.096C416.364,632.769 427.978,604.064 429.327,596.467C429.555,595.184 431.605,583.641 432.22,580.443C433.231,575.187 444.704,523.958 444.802,523.704C445.653,521.494 446.496,522.261 446.643,524C446.784,525.669 446.246,528.265 446.21,528.456C444.054,539.891 436.77,589.497 436.381,596.496C435.967,603.975 446.933,595.981 446.72,603.506C445.75,637.822 448.543,638.34 446.61,640.59C443.688,643.991 441.949,629.782 440.5,628.5C434.475,623.171 444.49,645.488 440.358,647.212C432.578,650.459 435.521,622.505 430.876,630.611C429.898,632.316 430.516,632.394 432.005,641.586C434.244,655.405 422.874,640.434 423.171,634.495C423.345,631.012 427.884,633.897 432.417,623.448Z" style="fill:rgb(252,195,150);"/>
                <path d="M502.703,810.268C503.099,810.646 511.222,818.415 509.138,812.591C508.395,810.514 502.655,805.412 507.507,806.186C509.68,806.533 517.171,816.793 517.404,811.494C517.532,808.57 511.383,804.68 515.384,804.171C523.649,803.12 532.499,805.778 543.5,804.504C546.548,804.151 547.854,802.493 548.339,805.547C548.568,806.989 551.098,822.938 547.614,823.788C544.499,824.548 518.066,825.161 515.494,825.22C513.047,825.277 505.697,826.176 504.709,823.402C502.376,816.853 503.102,816.363 497.933,811.157C497.19,810.408 497.48,806.696 502.703,810.268Z" style="fill:rgb(211,34,92);"/>
                <path d="M458.559,805.627C460.213,804.525 464.955,803.341 471.521,804.304C472.711,804.479 479.173,804.508 481.414,804.586C484.613,804.698 503.778,803.657 491.799,806.921C467.184,813.629 470.552,824.859 464.497,824.903C448.886,825.018 448.9,825.251 447.547,825.154C446.383,825.071 445.833,820.847 445.781,820.448C444.907,813.74 440.085,812.321 441.61,810.632C445.501,806.322 450.406,817.186 452.517,815.525C454.802,813.727 450.125,809.057 449.936,808.479C449.739,807.879 451.87,804.525 456.865,812.264C459.418,816.219 461.545,811.335 458.349,807.568C457.26,806.284 458.559,805.627 458.559,805.627Z" style="fill:rgb(211,34,92);"/>
                <path d="M500.071,821.626C500.087,821.793 501.734,824.788 498.552,824.948C496.399,825.056 472.371,826.265 471.609,825.367C469.606,823.006 488.841,808.628 493.372,811.697C498.529,815.19 497.658,815.927 500.071,821.626Z" style="fill:rgb(211,34,92);"/>
                <path d="M452.17,486.44C447.352,517.949 447.379,519.148 445.449,518.797C433.698,516.662 439.191,511.632 443.532,500.513C447.326,490.795 447.372,490.923 451.073,481.207C451.212,480.841 458.41,461.945 454.283,477.524C454.095,478.233 454.179,478.234 452.17,486.44Z" style="fill:rgb(236,108,177);"/>
                <g transform="matrix(1,0,0,1,-0.511887,-1.554031)">
                    <path d="M468.941,797.505C469.12,794.679 468.572,794.455 469.602,793.638C470.127,793.221 492.167,792.45 493.483,792.6C496.415,792.934 495.52,801.118 495.026,801.207C481.706,803.606 472.557,802.075 470.607,801.805C469.055,801.59 469.458,799.991 468.941,797.505Z" style="fill:rgb(63,122,179);"/>
                </g>
                <g transform="matrix(1,0,0,1,51.450941,-2.525299)">
                    <path d="M468.941,797.505C469.12,794.679 468.572,794.455 469.602,793.638C470.127,793.221 492.167,792.45 493.483,792.6C496.415,792.934 495.52,801.118 495.026,801.207C481.706,803.606 472.557,802.075 470.607,801.805C469.055,801.59 469.458,799.991 468.941,797.505Z" style="fill:rgb(63,122,179);"/>
                </g>
                <path d="M475.735,379.692C477.997,376.268 477.492,376.066 479.405,372.436C481.358,368.733 484.696,373.765 479.404,381.438C463.324,404.75 439.914,385.623 441.047,378.363C441.776,373.694 445.75,382.96 451.673,386.175C466.297,394.111 475.306,380.149 475.735,379.692Z" style="fill:rgb(59,37,17);"/>
                <path d="M428.631,815.8C429.093,815.594 433.609,813.581 434.433,813.281C440.116,811.206 444.76,824.992 440.455,825.124C419.336,825.776 419.331,826.647 417.55,826.208C413.126,825.116 427.588,816.426 428.631,815.8Z" style="fill:rgb(211,34,92);"/>
                <path d="M580.498,276.253C568.426,269.505 570.509,267.351 563.005,255.729C562.825,255.449 558.696,249.053 562.465,251.606C576.667,261.225 579.735,270.888 581.11,274.552C581.11,274.552 580.547,276.117 580.498,276.253Z" style="fill:rgb(255,188,45);"/>
                <g transform="matrix(0.821704,0,0,0.841619,68.965409,121.288461)">
                    <path d="M454.148,842.842C454.148,844.066 453.129,845.061 451.875,845.061L423.09,845.061C421.835,845.061 420.817,844.066 420.817,842.842C420.817,841.617 421.835,840.623 423.09,840.623L451.875,840.623C453.129,840.623 454.148,841.617 454.148,842.842Z" style="fill:rgb(211,34,92);"/>
                </g>
                <g transform="matrix(0.612369,0,0,0.841619,186.710381,121.288461)">
                    <path d="M454.148,842.842C454.148,844.066 452.781,845.061 451.098,845.061L423.867,845.061C422.184,845.061 420.817,844.066 420.817,842.842C420.817,841.617 422.184,840.623 423.867,840.623L451.098,840.623C452.781,840.623 454.148,841.617 454.148,842.842Z" style="fill:rgb(211,34,92);"/>
                </g>
                <g transform="matrix(0.91263,0,0,0.841619,85.244845,121.288461)">
                    <path d="M454.148,842.842C454.148,844.066 453.231,845.061 452.101,845.061L422.863,845.061C421.734,845.061 420.817,844.066 420.817,842.842C420.817,841.617 421.734,840.623 422.863,840.623L452.101,840.623C453.231,840.623 454.148,841.617 454.148,842.842Z" style="fill:rgb(211,34,92);"/>
                </g>
                <g transform="matrix(1.335606,0,0,0.841619,-58.549687,121.288461)">
                    <path d="M454.148,842.842C454.148,844.066 453.521,845.061 452.75,845.061L422.215,845.061C421.444,845.061 420.817,844.066 420.817,842.842C420.817,841.617 421.444,840.623 422.215,840.623L452.75,840.623C453.521,840.623 454.148,841.617 454.148,842.842Z" style="fill:rgb(211,34,92);"/>
                </g>
                <path d="M445.406,355.498C445.575,346.684 456.65,347.7 457.399,348.587C460.713,352.513 447.248,349.802 449.543,356.483C450.457,359.143 459.762,360.855 453.437,362.062C446.942,363.302 445.375,357.129 445.406,355.498Z" style="fill:rgb(59,37,17);"/>
                <path d="M555.192,356.28C554.041,358.279 554.328,358.305 553.221,360.356C549.756,366.777 549.254,351.388 562.47,348.303C566.278,347.414 567.101,350.067 565.477,350.46C561.006,351.541 560.392,350.666 555.192,356.28Z" style="fill:rgb(59,37,17);"/>
                <path d="M428.539,315.587C428.255,315.742 419.333,320.582 424.625,314.598C430.959,307.436 443.559,311.618 435.513,313.548C431.877,314.42 431.982,314.392 428.539,315.587Z" style="fill:rgb(59,37,17);"/>
                <g transform="matrix(-1,0,0,1,926.872184,5.704876)">
                    <path d="M428.539,315.587C428.255,315.742 419.333,320.582 424.625,314.598C430.959,307.436 443.559,311.618 435.513,313.548C431.877,314.42 431.982,314.392 428.539,315.587Z" style="fill:rgb(59,37,17);"/>
                </g>
                <path d="M494.526,315.487C495.644,315.846 495.51,315.923 496.593,316.275C495.904,316.012 495.215,315.749 494.526,315.487Z" style="fill:rgb(127,104,87);"/>
                <g transform="matrix(1.130204,0,0,1.038161,-70.514247,-15.188796)">
                    <ellipse cx="443.261" cy="339.243" rx="4.793" ry="8.21" style="fill:rgb(59,37,17);"/>
                </g>
                <g transform="matrix(1.130204,0,0,1.038161,-12.218923,-15.188796)">
                    <ellipse cx="443.261" cy="339.243" rx="4.793" ry="8.21" style="fill:rgb(59,37,17);"/>
                </g>
            </g>
        </g>
    </g>
</svg>
