<?xml version="1.0" encoding="UTF-8" standalone="no"?>
<!DOCTYPE svg PUBLIC "-//W3C//DTD SVG 1.1//EN" "http://www.w3.org/Graphics/SVG/1.1/DTD/svg11.dtd">
<svg width="100%" height="100%" viewBox="0 0 815 808" version="1.1" xmlns="http://www.w3.org/2000/svg" xmlns:xlink="http://www.w3.org/1999/xlink" xml:space="preserve" xmlns:serif="http://www.serif.com/" style="fill-rule:evenodd;clip-rule:evenodd;stroke-linejoin:round;stroke-miterlimit:2;">
    <g transform="matrix(1,0,0,1,-4289.741219,-1278.42611)">
        <g transform="matrix(1.027245,0,0,0.976562,3081.802182,1182.140413)">
            <g transform="matrix(0.83196,0,0,0.83196,236.220891,75.813322)">
                <g transform="matrix(0.973478,0,0,1.024,1123.806224,-0.61515)">
                    <path d="M681.006,109.731C683.027,113.431 706.329,145.268 689.198,191.38C672.386,236.633 623.354,248.971 622.676,249.671C621.234,251.161 621.231,259.214 620.296,306.498C619.667,338.263 620.959,338.126 620.973,338.144C622.353,339.865 627.121,343.646 627.683,344.091L628.507,344.468L629.463,345.587C642.01,356.59 648.482,364.336 649.97,366.117C660.999,379.316 660.947,379.271 670.607,393.428C714.289,457.446 718.634,509.266 723.876,526.385C727.573,538.455 756.42,548.643 766.5,548.532C769.723,548.497 780.791,530.91 801.474,527.438C802.348,527.291 803.127,527.16 806.142,517.384C810.143,504.413 814.163,498.224 810.409,495.619C803.735,490.987 799.368,488.668 790.883,475.096C776.666,445.498 783.35,439.961 799.054,384.356C815.893,324.736 815.706,300.972 853.44,293.189C868.784,290.023 880.535,296.812 939.407,312.827C953.384,316.629 977.49,323.753 984.092,356.545C987.913,375.524 973.62,402.381 953.368,465.457C943.432,496.406 934.421,523.415 887.509,521.279C882.552,521.053 883.734,523.911 876.865,546.609C876.42,548.079 880.723,553.513 882.387,556.778C885.375,562.645 886.89,566.974 887.112,567.538C888.966,572.307 897.555,594.395 885.433,631.478C873.034,669.411 847.297,671.492 845.629,674.56C841.777,681.648 834.198,734.214 787.545,725.278C769.702,721.861 762.122,704.924 761.657,704.449C756.579,694.929 759.551,690.352 752.465,691.345C748.286,691.931 751.234,707.172 744.169,737.417C726.109,814.731 669.786,853.937 668.422,856.458C666.66,859.714 669.434,860.7 651.859,899.663C649.764,904.307 653.901,904.235 659.839,914.155C663.098,920.689 662.489,920.867 665.486,927.497C665.542,932.608 668.016,938.228 664.099,949.362C648.553,993.56 544.828,975.204 526.755,959.202C512.944,946.975 516.836,937.324 508.433,904.519C506.528,897.084 494.026,906.821 442.528,901.287C435.284,900.508 435.123,903.981 432.81,916.557C427.261,946.724 432.853,964.382 377.512,972.585C273.847,987.952 277.975,943.798 277.847,929.426C280.146,915.666 288.694,907.552 291.533,904.583C295.015,901.442 290.097,898.287 278.548,868.494L277.673,866.451C274.112,857.76 275.569,856.674 268.239,850.857C258.121,842.827 217.267,812.267 198.384,740.53C192.734,719.067 193.2,706.048 191.488,702.497C190.778,701.025 191.392,700.839 191.37,700.465C191.134,694.494 192.96,689.219 186.486,688.891C171.433,688.129 171.535,687.579 156.554,686.183C149.144,685.493 150.593,700.988 128.622,707.915C118.901,710.98 96.586,711.624 83.937,695.083C83.657,694.717 83.696,694.73 80.688,690.33C77.11,684.263 75.487,678.762 74.36,676.473C72.899,668.804 74.03,667.079 68.734,664.065C63.51,661.091 39.873,647.635 35.942,596.458C33.328,562.43 52.259,544.861 55.672,541.693C62.208,535.627 65.812,536.134 63.153,527.592C63.131,527.523 61.682,526.267 62.69,514.541C60.814,501.143 52.474,499.471 32.703,458.405C25.583,443.615 22.145,434.263 20.569,430.471C14.079,411.584 -15.512,340.931 33.708,284.703C62.993,251.248 139.671,238.335 175.989,305.258C197.707,345.278 200.4,393.161 158.621,476.562C147.159,499.442 142.533,506.64 143.249,510.541C144.982,519.993 145.33,519.928 144.749,529.511C144.66,530.968 144.405,532.004 152.527,538.435C159.889,547.638 164.307,547.034 165.536,546.866C169.835,546.279 201.457,541.955 216.023,527.051C218.629,524.385 218.111,522.082 222.312,506.439C231.774,471.215 243.082,432.485 273.454,388.47C302.753,346.01 321.89,337.827 339.436,324.424C341,323.23 340.312,322.758 340.828,262.502C340.833,261.942 340.861,258.718 340.517,255.508C341.667,244.902 341.474,243.318 335.43,240.653C324.332,235.759 295.34,224.231 280.967,190.238C254.125,129.211 300.619,44.016 391.58,64.112C397.842,65.496 398.547,66.685 403.234,62.188C465.795,2.158 542.465,33.926 564.243,52.811C572.024,59.559 571.842,59.659 579.246,66.785C582.419,69.839 592.121,66.323 604.481,66.959C608.602,67.171 633.044,68.428 653.792,82.076C673.107,94.782 679.272,107.031 681.006,109.731Z" style="fill:rgb(242,239,229);fill-opacity:0.6;"/>
                </g>
                <g transform="matrix(0.973478,0,0,1.024,1123.806224,-0.61515)">
                    <path d="M59.508,287.513C60.148,287.135 60.809,286.794 61.448,286.417C99.486,263.967 149.869,277.737 167.157,331.612C192.23,409.747 113.378,505.349 122.599,513.392C130.077,519.914 124.194,543.148 131.534,546.421C142.349,551.243 145.46,557.115 149.802,564.328C155.465,573.736 218.353,557.475 234.186,536.268C237.471,531.868 241.599,489.34 267.137,437.322C312.448,345.033 360.163,343.265 359.946,331.484C359.894,328.686 359.906,328.746 359.815,296.499C359.632,231.528 362.865,228.475 356.42,226.875C353.941,226.26 336.632,221.963 326.71,215.178C260.667,170.013 295.777,81.903 362.496,79.381C380.011,78.719 399.066,86.803 399.301,86.935C403.182,89.12 403.904,89.238 406.803,85.758C455.825,26.906 534.473,38.12 569.899,85.179C573.977,90.596 575.091,89.677 581.563,87.727C596.119,83.341 622.099,84.921 640.446,95.589C699.346,129.836 685.447,222.31 606.476,232.315C601.931,232.891 603.64,237.079 602.655,265.505C601.32,304.076 601.132,303.997 599.941,342.512C599.686,350.748 612.069,354.774 622.079,364.936C680.611,424.355 693.487,477.767 705.818,532.439C708.872,545.983 732.241,562.843 761.556,567.037C777.126,569.264 777.567,567.546 779.152,565.272C800.133,535.165 812.705,552.873 816.101,545.336C816.849,543.676 833.791,492.131 834.573,489.517C835.632,485.973 833.321,486.808 822.391,480.68C801.027,468.702 801.952,448.723 802.103,445.476C802.61,434.534 833.287,332.189 833.547,331.519C845.409,301.042 875.021,313.829 883.56,316.297C888.279,317.661 942.045,333.2 942.546,333.371C965.686,341.278 968.708,362.787 963.79,376.581C932.818,463.443 929.797,483.895 920.429,492.425C895.002,515.578 872.683,491.582 870.155,501.386C867.366,512.201 857.291,545.268 854.742,554.562C853.561,558.869 855.481,558.437 859.156,560.971C876.824,573.151 873.807,601.484 870.179,616.426C860.302,657.114 836.183,655.165 833.577,655.771C827.159,657.262 823.637,713.053 793.562,707.149C767.954,702.122 779.958,671.57 779.94,671.431C779.601,668.708 773.706,670.569 773.513,670.596C738.22,675.412 730.119,664.216 730.748,675.486C731.55,689.855 736.597,780.312 657.827,839.946C648.574,846.951 652.289,849.422 643.349,871.44C632.355,898.513 630.61,897.574 626.853,905.647C624.297,911.142 650.105,917.871 647.102,940.432C643.339,968.706 550.17,957.525 536.561,942.444C532.79,938.265 532.031,912.717 521.537,882.486C520.104,878.359 511.224,882.335 491.502,883.527C455.52,885.703 435.871,881.258 427.525,880.316C422.931,879.798 423.079,881.146 421.669,885.55C410.555,920.27 414.213,921.04 410.254,937.438C406.023,954.961 342.442,960.28 315.49,954.549C297.841,950.797 290.606,936.881 300.589,922.565C309.374,909.968 319.455,910.045 315.985,904.227C297.655,873.494 291.342,846.055 291.203,845.605C289.76,840.933 272.549,832.481 256.954,814.078C204.182,751.804 210.905,682.167 211.293,671.497C211.493,665.993 203.295,669.028 189.496,669.155C157.689,669.448 139.869,659.511 137.559,662.531C137.45,662.674 139.041,688.598 119.473,690.286C90.5,692.786 91.357,662.113 90.054,653.552C89.56,650.308 84.477,650.16 78.519,647.46C64.654,641.175 55.045,616.432 54.909,588.504C54.742,554.421 80.93,550.17 82.489,548.491C85.087,545.695 78.399,521.949 81.282,517.373C83.876,513.257 83.796,512.628 78.547,503.472C50.768,455.016 39.136,431.138 30.936,402.38C21.358,368.784 19.24,315.911 59.508,287.513Z" style="fill:rgb(129,45,34);"/>
                </g>
                <g transform="matrix(0.973478,0,0,1.024,1123.806224,-0.61515)">
                    <path d="M139.551,625.966C145.168,622.903 150.92,609.842 151.104,609.333C157.067,592.89 152.452,585.461 154.906,582.853C156.347,581.322 156.661,582.123 162.486,582.051C204.704,581.527 241.831,556.884 249.019,544.202C257.948,528.449 266.256,422.864 348.875,361.995C358.358,355.008 375.804,338.637 451.517,335.877C554.318,332.129 587.106,355.52 606.246,373.752C669.133,433.655 678.746,494.677 690.064,540.596C694.289,557.739 721.351,571.715 731.426,575.679C756.715,585.631 771.161,582.683 773.338,583.93C778.377,586.82 768.095,592.615 779.567,619.469C783.39,628.417 788.342,631.785 789.057,632.76C790.807,635.147 787.962,645.845 786.317,649.405C783.172,656.21 745.153,656.84 730.551,653.3C726.284,652.266 728.29,644.368 720.113,627.699C716.878,621.103 708.085,620.621 709.633,631.481C716.8,681.746 727.746,757.056 649.083,825.04C640.796,832.202 638.794,831.046 635.949,841.622C623.795,886.798 604.259,911.84 604.777,913.47C605.568,915.955 628.414,921.638 631.18,933.565C633.974,945.613 580.721,939.87 575.551,939.143C549.504,935.479 549.304,931.509 548.885,928.449C547.288,916.803 546.991,916.936 544.361,905.532C538.508,880.151 537.118,879.95 537.077,878.544C536.941,873.835 562.03,867.401 564.439,860.478C567.83,850.728 546.662,857.758 546.568,857.783C448.219,883.246 389.457,852.028 381.501,854.504C376.548,856.046 377.586,862.001 395.661,871.167C403.542,875.164 407.729,873.98 405.531,882.507C394.233,926.332 397.271,926.999 395.522,930.511C394.001,933.567 369.454,939.77 342.499,940.473C311.037,941.293 311.326,936.012 311.792,933.537C313.686,923.495 332.439,916.611 334.609,915.814C342.74,912.829 337.011,909.959 330.562,898.467C312.616,866.486 308.726,846.196 306.123,837.602C303.149,827.785 294.495,830.422 273.282,806.691C209.411,735.238 231.763,644.445 232.931,630.537C233.951,618.384 224.839,621.89 222.325,627.4C213.639,646.435 216.869,649.797 210.525,650.74C173.65,656.22 142.961,644.738 140.374,643.993C139.024,643.605 133.773,643.902 136.671,627.55C138.321,627.101 138.238,627.087 139.551,625.966Z" style="fill:rgb(242,239,229);"/>
                </g>
                <g transform="matrix(0.973478,0,0,1.024,1123.806224,-0.61515)">
                    <path d="M324.663,111.686C357.779,81.081 394.606,103.118 396.289,104.707C399.481,107.718 390.295,122.868 398.456,121.275C402.291,120.526 401.24,119.145 404.872,113.727C464.517,24.747 552.796,67.136 568.652,115.448C571.768,124.945 577.969,126.32 578.75,118.523C579.629,109.755 574.687,105.111 585.576,102.918C627.428,94.488 653.309,123.09 658.377,141.535C673.909,198.068 610.309,222.868 604.5,216.5C603.475,215.377 603.613,215.186 604.053,197.502C604.227,190.511 632.324,185.426 624.305,178.771C620.413,175.541 588.023,194.457 555.828,170.097C545.34,162.163 563.27,158.949 559.783,152.345C557.87,148.721 556.459,150.855 535.719,160.97C507.114,174.921 490.166,168.854 489.729,173.517C489.315,177.934 510.285,178.431 510.5,178.428C533.766,178.09 534.871,171.988 542.176,177.9C564.337,195.836 586.246,194.62 588.515,198.491C590.095,201.186 587.782,258.313 587.572,263.511C587.43,267.03 584.298,265.666 570.483,261.559C565.39,260.045 568.145,257.69 566.24,214.537C566.081,210.916 562.957,210.982 562.584,214.519C560.773,231.707 556.619,256.511 556.602,256.547C554.981,259.958 532.324,253.647 531.83,253.141C529.574,250.833 529.373,206.586 527.19,204.794C523.052,201.399 523.492,219.414 519.458,248.494C519.411,248.837 518.987,251.891 516.496,251.661C489.907,249.199 489.625,249.829 487.988,248.217C487.003,247.247 486.657,197.728 484.261,194.647C481.001,190.454 479.906,200.862 478.549,214.505C476.954,230.545 477.585,230.485 476.076,246.447C475.727,250.14 468.638,249.183 467.501,249.175C446.024,249.018 443.129,251.771 442.817,246.483C440.283,203.551 441.011,200.625 437.628,201.842C435.415,202.639 431.735,246.085 430.883,248.625C429.636,252.344 408.222,253.21 407.348,252.771C404.611,251.397 402.031,216.339 400.843,210.373C400.322,207.754 397.5,207.853 397.302,211.464C397.116,214.837 395.436,245.356 393.714,253.535C393.424,254.914 393.067,256.612 377.492,260.424C374.184,261.234 374.648,258.686 375.014,219.495C375.225,196.926 373.597,194.41 380.512,192.552C383.888,191.646 418.151,182.441 419.319,172.481C420.139,165.485 408.857,172.843 400.374,175.051C354.919,186.882 342.761,166.196 338.87,171.751C335.135,177.083 356.943,188.959 358.276,189.863C363.626,193.49 360.265,208.619 359.409,209.395C356.598,211.943 325.313,203.921 313.321,177.582C296.819,141.334 321.001,115.586 324.663,111.686Z" style="fill:rgb(242,239,229);"/>
                </g>
                <g transform="matrix(0.973478,0,0,1.024,1123.806224,-0.61515)">
                    <path d="M665.486,927.497C666.545,927.557 666.473,927.393 667.525,927.612C683.713,930.984 715.613,932.922 742.7,946.075C744.004,946.709 759.973,954.463 748.342,963.304C727.036,979.501 656.974,987.116 656.459,987.188C483.905,1011.413 201.189,991.345 196.787,957.461C195.428,947.002 220.145,940.429 220.455,940.331C240.639,933.957 277.303,929.377 277.847,929.426C277.975,943.798 273.847,987.952 377.512,972.585C432.853,964.382 427.261,946.724 432.81,916.557C435.123,903.981 435.284,900.508 442.528,901.287C494.026,906.821 506.528,897.084 508.433,904.519C516.836,937.324 512.944,946.975 526.755,959.202C544.828,975.204 648.553,993.56 664.099,949.362C668.016,938.228 665.542,932.608 665.486,927.497Z" style="fill:rgb(196,190,171);"/>
                </g>
                <g transform="matrix(0.973478,0,0,1.024,1123.806224,-0.61515)">
                    <path d="M819.465,462.532C809.047,448.524 813.72,443.555 823.07,408.389C824.626,402.537 841.419,339.378 843.536,335.517C853.96,316.504 864.56,322.109 885.511,328.461C935.235,343.535 951.789,343.769 953.864,362.458C954.455,367.778 954.719,370.156 934.53,426.511C919.626,468.112 917.885,489.898 896.499,490.46C884.699,490.77 853.816,480.243 853.622,480.165C833.613,472.217 829.992,473.645 819.465,462.532Z" style="fill:rgb(242,239,229);"/>
                </g>
                <g transform="matrix(0.973478,0,0,1.024,1123.806224,-0.61515)">
                    <path d="M374.605,287.5C374.634,279.494 374.473,279.48 374.753,278.545C376.438,272.911 416.818,267.444 420.564,266.937C483.557,258.408 549.074,268.593 584.476,281.558C587.748,282.757 587.23,284.439 586.23,309.491C585.219,334.798 585.972,338.047 582.567,336.336C574.777,332.422 569.699,331.625 564.556,330.294C559.069,328.873 531.091,321.628 494.486,319.758C423.237,316.118 376.766,329.641 376.487,329.595C374.44,329.254 374.221,328.243 374.605,287.5Z" style="fill:rgb(242,239,229);"/>
                </g>
                <g transform="matrix(0.973478,0,0,1.024,1123.806224,-0.61515)">
                    <path d="M542.431,507.487C528.612,582.699 424.281,590.825 393.433,528.533C385.196,511.9 387.488,501.074 381.564,501.969C377.941,502.516 358.57,506.597 362.388,497.449C366.61,487.333 398.076,465.117 398.87,476.477C399.113,479.96 391.915,484.517 396.322,485.842C436.107,497.808 501.898,495.657 526.305,486.043C530.14,484.532 524.567,473.424 532.499,474.505C540.151,475.548 533.62,484.634 555.477,495.55C558.159,496.889 567.065,499.337 564.596,504.548C561.922,510.191 544.959,503.875 543.659,504.772C543.463,504.907 543.57,504.971 542.431,507.487Z" style="fill:rgb(129,45,34);"/>
                </g>
                <g transform="matrix(0.973478,0,0,1.024,1123.806224,-0.61515)">
                    <path d="M103.003,502.708C102.985,504.034 101.471,505.167 100.677,503.347C100.515,502.976 98.71,489.435 98.114,486.577C77.144,386.081 86.752,291.876 97.448,294.785C101.222,295.811 110.698,321.823 111.61,365.496C112.906,427.544 104.465,469.479 103.203,498.449C103.108,500.637 103.017,501.79 103.003,502.708Z" style="fill:rgb(242,239,229);"/>
                </g>
                <g transform="matrix(0.973478,0,0,1.024,1123.806224,-0.61515)">
                    <path d="M758.413,713.391C757.994,709.465 754.155,709.923 753.852,712.416C753.665,713.956 753.446,717.834 753.198,724.013C750.246,797.666 704.783,843.68 703.317,845.332C684.862,866.143 678.858,864.117 675.155,876.394C674.857,877.384 665.738,906.167 659.839,914.155C653.901,904.235 649.764,904.307 651.859,899.663C669.434,860.7 666.66,859.714 668.422,856.458C669.786,853.937 726.109,814.731 744.169,737.417C751.234,707.172 748.286,691.931 752.465,691.345C759.551,690.352 756.579,694.929 761.657,704.449C762.122,704.924 769.702,721.861 787.545,725.278C834.198,734.214 841.777,681.648 845.629,674.56C847.297,671.492 873.034,669.411 885.433,631.478C897.555,594.395 888.966,572.307 887.112,567.538C888.073,567.107 907.883,598.374 892.658,642.556C877.76,685.789 853.591,679.454 850.888,688.602C849.082,694.717 834.216,740.181 797.029,739.008C762.79,737.927 759.365,718.017 758.413,713.391Z" style="fill:rgb(196,190,171);"/>
                </g>
                <g transform="matrix(0.973478,0,0,1.024,1123.806224,-0.61515)">
                    <path d="M761.657,704.449C760.901,704.968 760.146,705.487 759.391,706.006" style="fill:rgb(207,201,182);"/>
                </g>
                <g transform="matrix(0.973478,0,0,1.024,1123.806224,-0.61515)">
                    <path d="M681.006,109.731C683.897,108.578 684.335,108.468 684.559,109.432C685.4,113.037 700.363,132.312 703.133,158.535C708.361,208.036 679.26,233.542 673.735,238.776C649.088,262.123 630.762,258.952 630.292,264.47C630.042,267.397 628.761,340.212 628.793,341.598C628.859,344.453 627.838,343.9 627.683,344.091C627.121,343.646 622.353,339.865 620.973,338.144C620.959,338.126 619.667,338.263 620.296,306.498C621.231,259.214 621.234,251.161 622.676,249.671C623.354,248.971 672.386,236.633 689.198,191.38C706.329,145.268 683.027,113.431 681.006,109.731Z" style="fill:rgb(196,190,171);"/>
                </g>
                <g transform="matrix(0.973478,0,0,1.024,1123.806224,-0.61515)">
                    <path d="M759.391,706.006C760.146,705.487 760.901,704.968 761.657,704.449" style="fill:rgb(207,201,183);"/>
                </g>
                <g transform="matrix(0.973478,0,0,1.024,1123.806224,-0.61515)">
                    <path d="M70.604,575.531C72.523,571.145 71.91,570.692 75.607,567.623C76.477,566.901 80.972,563.169 88.55,561.962C100.993,559.979 103.236,562.026 104.407,574.506C104.956,580.363 89.415,579.173 88.691,585.521C87.784,593.467 101.797,580.567 114.136,595.768C121.515,604.858 96.241,607.59 96.819,612.438C97.424,617.506 117.616,608.033 120.8,621.463C122.529,628.76 101.048,636.927 91.498,636.969C72.642,637.051 66.366,599.322 70.604,575.531Z" style="fill:rgb(242,239,229);"/>
                </g>
                <g transform="matrix(0.973478,0,0,1.024,1123.806224,-0.61515)">
                    <path d="M71.091,311.271C78.183,299.071 85.594,295.285 84.259,299.476C72.677,335.838 75.752,402.693 84.802,459.446C89.601,489.54 96.748,500.145 94.199,501.306C93.149,501.784 91.88,501.905 87.779,488.39C77.135,453.316 67.995,435.419 62.191,405.562C53.142,359.012 58.145,333.768 71.091,311.271Z" style="fill:rgb(242,239,229);"/>
                </g>
                <g transform="matrix(0.973478,0,0,1.024,1123.806224,-0.61515)">
                    <path d="M850.525,571.466C869.069,586.882 853.38,630.951 844.219,638.155C832.436,647.421 801.892,632.677 806.791,622.623C810.686,614.629 836.485,621.38 829.483,614.517C826.112,611.213 806.742,607.285 812.654,600.637C820.417,591.908 821.744,593.657 833.501,593.368C834.066,593.355 841.064,593.183 838.571,588.454C836.084,583.739 823.318,585.11 824.3,578.476C825.601,569.689 824.567,566.578 833.501,566.616C844.458,566.663 846.902,568.946 850.525,571.466Z" style="fill:rgb(242,239,229);"/>
                </g>
                <g transform="matrix(0.973478,0,0,1.024,1123.806224,-0.61515)">
                    <path d="M865.133,421.393C869.27,407.267 875.064,390.28 881.815,365.599C883.099,360.904 887.867,354.157 894.491,354.205C913.631,354.344 905.272,376.639 896.5,403.5C884.043,441.645 883.728,458.318 869.497,456.524C852.441,454.374 860.465,436.758 865.133,421.393Z" style="fill:rgb(129,45,34);"/>
                </g>
                <g transform="matrix(0.973478,0,0,1.024,1123.806224,-0.61515)">
                    <path d="M849.914,357.614C857.502,335.545 874.71,345.986 874.76,358.503C874.791,366.048 850.832,438.289 850.324,439.422C846.025,449.01 836.724,448.609 832.733,446.118C820.638,438.57 829.572,430.715 849.914,357.614Z" style="fill:rgb(129,45,34);"/>
                </g>
                <g transform="matrix(0.973478,0,0,1.024,1123.806224,-0.61515)">
                    <path d="M112.366,493.377C112.168,494.12 110.157,495.036 110.387,492.558C110.42,492.199 123.592,416.587 119.566,350.496C117.731,320.367 111.262,303.327 109.786,299.439C105.373,287.814 147.614,321.419 137.533,393.504C132.034,432.821 123.244,452.374 112.366,493.377Z" style="fill:rgb(242,239,229);"/>
                </g>
                <g transform="matrix(0.973478,0,0,1.024,1123.806224,-0.61515)">
                    <path d="M913.62,377.538C914.08,376.004 918.304,361.903 928.555,364.205C941.958,367.215 939.336,377.16 923.982,424.647C915.93,449.55 911.423,475.334 894.859,463.073C887.668,457.751 889.92,451.202 913.62,377.538Z" style="fill:rgb(129,45,34);"/>
                </g>
                <g transform="matrix(0.973478,0,0,1.024,1123.806224,-0.61515)">
                    <path d="M140.668,448.575C128.036,476.475 126.855,480.245 125.433,480.278C125.344,480.281 124.779,480.215 124.799,479.37C124.847,477.33 132.533,456.276 134.707,448.557C142.652,420.353 158.489,359.578 136.272,314.607C126.553,294.933 117.001,291.835 119.534,289.722C120.469,288.943 133.317,296.163 139.006,301.998C188.073,352.32 147.827,432.764 140.668,448.575Z" style="fill:rgb(242,239,229);"/>
                </g>
                <g transform="matrix(0.973478,0,0,1.024,1123.806224,-0.61515)">
                    <path d="M516.574,516.653C510.185,519.022 479.292,530.474 431.575,522.06C396.353,515.849 394.787,500.574 396.188,499.166C399.841,495.496 435.12,512.425 487.488,506.398C520.341,502.618 534.903,492.821 526.921,506.731C523.337,512.979 520.925,514.275 516.574,516.653Z" style="fill:rgb(242,239,229);"/>
                </g>
                <g transform="matrix(0.973478,0,0,1.024,1123.806224,-0.61515)">
                    <path d="M72.54,290.958L73.443,291.571C73.219,295.957 63.753,299.107 55.227,323.398C32.425,388.363 85.331,489.569 81.51,491.315C80.544,491.756 78.788,489.66 77.757,487.316C68.117,465.394 21.679,388.698 36.873,336.595C46.484,303.638 65.494,295.093 72.54,290.958Z" style="fill:rgb(242,239,229);"/>
                </g>
                <g transform="matrix(0.973478,0,0,1.024,1123.806224,-0.61515)">
                    <path d="M525.886,413.904C549.599,397.345 559.09,437.356 550.303,452.388C534.675,479.125 502.641,442.809 525.886,413.904Z" style="fill:rgb(129,45,34);"/>
                </g>
                <g transform="matrix(0.973478,0,0,1.024,1123.806224,-0.61515)">
                    <path d="M80.688,690.33C83.696,694.73 83.657,694.717 83.937,695.083C96.586,711.624 118.901,710.98 128.622,707.915C150.593,700.988 149.144,685.493 156.554,686.183C171.535,687.579 171.433,688.129 186.486,688.891C192.96,689.219 191.134,694.494 191.37,700.465C190.497,700.787 190.518,701.84 172.486,700.665C167.761,700.358 161.401,697.333 158.916,700.779C158.375,701.529 147.357,723.186 119.498,722.559C92.891,721.96 80.102,690.933 80.688,690.33Z" style="fill:rgb(196,190,171);"/>
                </g>
                <g transform="matrix(0.973478,0,0,1.024,1123.806224,-0.61515)">
                    <path d="M388.917,414.843C402.825,401.251 414.487,416.496 416.615,427.477C422.625,458.485 396.508,469.282 386.962,452.226C375.277,431.349 388.772,415.085 388.917,414.843Z" style="fill:rgb(129,45,34);"/>
                </g>
                <g transform="matrix(0.973478,0,0,1.024,1123.806224,-0.61515)">
                    <path d="M481.554,537.069C483.133,537.353 509.259,542.044 497.412,549.356C469.338,566.684 415.136,550.225 428.785,542.99C445.264,534.253 465.933,535.647 481.554,537.069Z" style="fill:rgb(242,239,229);"/>
                </g>
                <g transform="matrix(0.973478,0,0,1.024,1123.806224,-0.61515)">
                    <path d="M793.281,670.44C793.826,668.429 799.827,646.295 800.316,645.37C801.087,643.915 807.709,646.668 808.311,646.918C818.359,651.095 820.042,651.208 818.989,654.653C806.054,696.981 800.706,695.515 795.886,694.277C787.928,692.233 792.544,673.01 793.281,670.44Z" style="fill:rgb(243,239,229);"/>
                </g>
                <g transform="matrix(0.973478,0,0,1.024,1123.806224,-0.61515)">
                    <path d="M796.652,584.389C796.364,584.024 792.655,579.334 790.874,583.691C784.602,599.035 799.66,601.551 798.096,606.423C791.977,625.49 792.742,625.697 792.189,627.346C790.292,633.008 782.822,615.119 785.171,591.454C786.163,581.458 793.004,568.486 796.914,564.957C811.466,551.822 815.402,575.255 811.11,584.333C804.183,598.985 798.968,587.339 796.652,584.389Z" style="fill:rgb(242,239,229);"/>
                </g>
                <g transform="matrix(0.973478,0,0,1.024,1123.806224,-0.61515)">
                    <path d="M142.633,586.481C145.26,618.63 135.574,621.311 132.446,611.517C131.44,608.367 128.532,603.111 131.49,599.492C133.486,597.051 141.061,591.112 138.455,582.516C135.592,573.075 126.371,588.411 124.497,588.418C121.545,588.429 111.473,574.96 117.959,562.771C125.943,547.767 141.358,570.876 142.633,586.481Z" style="fill:rgb(242,239,229);"/>
                </g>
                <g transform="matrix(0.973478,0,0,1.024,1123.806224,-0.61515)">
                    <path d="M831.054,542.355C839.455,517.398 845.866,492.44 847.163,491.142C848.578,489.726 860.112,492.129 858.668,496.548C842.835,544.991 843.653,545.224 842.253,549.426C841.025,553.115 840.11,553.203 830.495,552.529C826.752,552.266 829.774,545.956 831.054,542.355Z" style="fill:rgb(243,239,229);"/>
                </g>
                <g transform="matrix(0.973478,0,0,1.024,1123.806224,-0.61515)">
                    <path d="M522.686,373.732C547.318,359.136 570.747,386.763 567.23,396.422C563.829,405.764 556.071,389.489 534.493,386.56C529.014,385.816 509.101,388.61 522.686,373.732Z" style="fill:rgb(129,45,34);"/>
                </g>
                <g transform="matrix(0.973478,0,0,1.024,1123.806224,-0.61515)">
                    <path d="M380.221,375.046C381.283,374.515 390.586,368.074 403.436,369.927C410.479,370.942 413.854,374.726 414.674,376.409C420.353,388.053 402.784,385.932 398.476,386.318C379.345,388.034 374.16,403.725 368.658,398.333C360.722,390.556 378.593,376.341 380.221,375.046Z" style="fill:rgb(129,45,34);"/>
                </g>
                <g transform="matrix(0.973478,0,0,1.024,1123.806224,-0.61515)">
                    <path d="M857.572,389.522C843.442,436.984 843.113,437.212 841.356,438.109C838.858,439.383 835.311,437.588 835.912,433.546C836.215,431.506 858.293,358.004 860.359,356.333C860.996,355.817 868.565,352.428 864.782,365.582C861.31,377.654 861.238,377.531 857.572,389.522Z" style="fill:rgb(242,239,229);"/>
                </g>
                <g transform="matrix(0.973478,0,0,1.024,1123.806224,-0.61515)">
                    <path d="M889.043,398.381C888.321,400.778 888.388,400.692 880.081,428.36C876.224,441.206 874.723,448.559 869.441,446.647C866.744,445.67 865.921,444.148 876.44,411.482C891.053,366.098 891.212,363.479 895.383,364.922C900.616,366.732 896.808,370.324 889.043,398.381Z" style="fill:rgb(242,239,229);"/>
                </g>
                <g transform="matrix(0.973478,0,0,1.024,1123.806224,-0.61515)">
                    <path d="M280.967,190.238C295.34,224.231 324.332,235.759 335.43,240.653C341.474,243.318 341.667,244.902 340.517,255.508C332.176,254.623 303.347,238.081 287.527,210.486C277.165,192.412 280.528,190.463 280.967,190.238Z" style="fill:rgb(196,190,171);"/>
                </g>
                <g transform="matrix(0.973478,0,0,1.024,1123.806224,-0.61515)">
                    <path d="M921.207,406.415C920.144,410.289 909.381,449.507 906.32,454.384C905.422,455.814 897.152,459.949 900.754,447.571C902.414,441.867 920.586,379.429 922.712,376.635C923.156,376.052 931.034,371.757 927.431,384.481C925.992,389.563 926.094,389.526 924.596,394.525C922.81,400.484 922.87,400.385 921.207,406.415Z" style="fill:rgb(242,239,229);"/>
                </g>
                <g transform="matrix(0.973478,0,0,1.024,1123.806224,-0.61515)">
                    <path d="M450.47,468.55C434.744,457.516 447.375,444.42 447.892,443.927C456.623,435.624 471.178,436.811 470.493,443.499C470.083,447.498 468.522,446.326 464.535,446.852C456.408,447.925 453.653,454.438 455.974,458.238C460.02,464.864 472.16,462.265 473.473,462.123C485.325,460.838 472.62,480.335 450.47,468.55Z" style="fill:rgb(129,45,34);"/>
                </g>
                <g transform="matrix(0.973478,0,0,1.024,1123.806224,-0.61515)">
                    <path d="M110.275,676.849C108.282,674.771 105.413,672.325 103.985,653.452C103.61,648.491 104.915,648.614 109.64,646.936C120.766,642.984 123.204,639.029 123.247,643.526C123.391,658.508 125.904,669.857 123.922,673.701C120.148,681.024 111.307,677.285 110.275,676.849Z" style="fill:rgb(242,239,229);"/>
                </g>
                <g transform="matrix(0.973478,0,0,1.024,1123.806224,-0.61515)">
                    <path d="M95.835,545.465C94.561,529.843 92.935,524.933 98.476,524.213C112.455,522.399 113.351,524.876 113.862,530.475C114.856,541.372 116.288,549.363 110.504,549.596C97.041,550.138 96.561,548.757 95.835,545.465Z" style="fill:rgb(242,239,229);"/>
                </g>
            </g>
        </g>
    </g>
</svg>
