<?xml version="1.0" encoding="UTF-8" standalone="no"?>
<!DOCTYPE svg PUBLIC "-//W3C//DTD SVG 1.1//EN" "http://www.w3.org/Graphics/SVG/1.1/DTD/svg11.dtd">
<svg width="100%" height="100%" viewBox="0 0 867 790" version="1.1" xmlns="http://www.w3.org/2000/svg" xmlns:xlink="http://www.w3.org/1999/xlink" xml:space="preserve" xmlns:serif="http://www.serif.com/" style="fill-rule:evenodd;clip-rule:evenodd;stroke-linejoin:round;stroke-miterlimit:2;">
    <g transform="matrix(1,0,0,1,-2088.652065,-2416.906754)">
        <g transform="matrix(1.027245,0,0,0.976562,906.903393,2311.778023)">
            <g transform="matrix(0.965979,0,0,1.016113,1042.898571,36.651812)">
                <g id="Fondo" transform="matrix(1.0625,0,0,1.0625,-17.481692,-37.654527)">
                    <path d="M595.404,352.559C595.458,352.513 597.669,352.735 599.473,354.858C624.345,384.126 653.36,441.079 659.272,455.603C668.346,477.895 664.871,480.781 663.198,481.434C638.969,490.898 658.315,435.404 595.404,352.559Z" style="fill:rgb(196,190,171);"/>
                    <path d="M309.565,265.32C319.022,272.017 334.513,275.745 335.646,276.071C338.338,276.848 338.55,277.879 339.74,288.416C336.874,287.937 326.448,286.301 310.636,268.469C309.592,267.291 309.565,265.32 309.565,265.32Z" style="fill:rgb(196,190,171);"/>
                    <path d="M151.596,570.257C152.69,571.033 152.599,570.977 152.69,571.033C181.224,588.83 199.026,580.134 210.254,575.013C251.497,556.204 235.351,535.02 241.837,528.824C249.268,521.724 250.38,522.369 253.893,512.736C254.869,510.061 256.941,510.74 256.598,513.506C254.349,531.686 255.861,568.298 254.55,572.815C253.093,574.547 240.882,587.002 229.32,592.124C217.535,597.345 207.454,597.501 205.5,597.532C174.224,598.019 148.331,572.651 151.596,570.257Z" style="fill:rgb(196,190,171);"/>
                    <path d="M756.972,736.482C756.972,736.482 758.649,736.911 760.347,738.193C797.428,766.182 750.426,796.49 725.83,815.914C722.5,818.544 727.568,822.383 722.185,826.06C679.611,855.141 322.192,859.165 241.388,831.832C215.588,823.105 230.829,814.914 231.551,814.626C252.506,806.257 252.946,807.853 275.384,805.107C276.586,804.96 278.132,803.138 276.456,802.555C264.348,798.35 264.332,798.565 252.5,793.5C248.309,791.706 247.138,797.726 241.469,802.462C214.443,825.038 187.279,801.239 189.513,795.52C189.655,795.156 190.385,795.296 190.527,794.932C191.951,795.13 199.453,796.171 208.418,793.25C222.989,788.503 230.766,778.415 231.586,777.607C235.063,774.181 249.964,788.804 282.497,789.623C343.169,791.15 360.998,762.603 480.511,756.731C575.199,752.079 616.011,767.378 639.786,793.365C653.021,806.8 655.967,812.626 664.085,815.362C667.709,816.584 676.868,821.095 707.152,799.001C757.578,762.214 758.365,751.793 756.972,736.482Z" style="fill:rgb(196,190,171);"/>
                    <path d="M569.583,149.465C587.509,180.739 584.815,221.905 540.693,246.825C538.64,247.985 538.924,250.124 538.966,250.442C542.554,277.491 542.597,277.39 545.951,304.46C546.855,311.756 549.607,310.06 561.794,319.007C561.915,319.095 561.917,319.073 563.444,319.905C569.245,325.37 580.64,332.604 595.404,352.559C658.315,435.404 639.13,490.656 663.359,481.192C665.032,480.539 669.225,476.492 670.377,475.36C686.217,459.801 705.263,450.254 703.404,449.699C698.942,448.368 666.09,439.585 654.983,428.066C649.247,422.115 643.143,412.976 641.922,408.63C639.585,400.31 632.65,378.816 663.072,352.088C687.126,330.955 726.462,319.349 727.229,317.369C729.206,312.269 713.512,302.388 733.964,272.815C736.64,268.946 738.591,269.193 737.053,264.705C735.774,260.975 706.541,249.167 715.354,221.453C720.984,203.75 743.034,203.576 748.909,220.515C748.909,220.515 750.306,228.376 752.528,229.551C756.194,233.224 771.637,235.711 774.074,258.59C774.875,266.118 786.166,249.286 790.47,241.485C791.886,228.168 763.852,234.286 752.851,200.394C743.055,170.212 776.436,128.986 796.183,154.722C799.01,158.405 801.064,162.582 799.497,167.499C798.721,169.934 785.947,187.312 796.696,194.202C798.591,195.416 808.963,200.798 809.26,200.975C812.258,202.765 814.159,204.965 813.79,201.557C812.562,190.209 819.754,181.5 819.754,181.5C831.769,164.809 852.889,174.793 853.96,191.531C854.031,192.635 854.713,201.534 869.509,209.478C879.791,214.999 882.295,226.84 883.12,228.521C894.235,269.289 861.583,276.701 868.892,286.206C875.007,294.158 874.884,295.083 875.09,305.521C875.162,309.133 882.743,311.273 885.672,309.791C888.047,311.897 888.261,311.419 894.422,313.76C928.377,326.657 943.448,354.774 943.319,369.497C943.109,393.371 921.65,408.558 918.273,411.196C866.123,451.937 804.805,453.901 799.499,454.493C790.758,455.469 766.683,475.62 762.422,482.448C757.899,489.693 768.076,497.913 764.056,519.42C755.347,566.01 730.486,571.151 728.763,571.946C726.077,573.186 719.956,592.202 705.528,596.583C691.807,600.749 683.119,596.089 678.522,594.423C677.054,593.89 666.502,594.194 666.248,599.485C664.847,628.647 662.799,628.47 662.755,639.486C662.748,641.47 663.377,641.222 679.307,657.962C680.61,660.485 680.575,660.394 682.14,662.726C698.589,687.231 703.958,710.016 705.707,711.052C707.061,711.854 707.135,711.269 713.47,709.462C716.319,709.722 750.487,707.177 756.972,736.482C758.365,751.793 757.578,762.214 707.152,799.001C676.868,821.095 666.202,817.501 662.578,816.28C654.46,813.544 642.029,795.817 639.786,793.365C616.011,767.378 575.199,752.079 480.511,756.731C360.998,762.603 343.169,791.15 282.497,789.623C249.964,788.804 235.063,774.181 231.586,777.607C230.766,778.415 222.989,788.503 208.418,793.25C199.453,796.171 191.951,795.13 190.527,794.932C169.803,790.599 163.129,773.008 166.978,755.59C170.186,741.079 193.488,682.796 203.577,677.634C222.379,668.015 246.015,696.851 253.664,656.531C255.353,647.63 252.629,530.764 256.598,513.506C257.223,510.79 254.869,510.061 253.893,512.736C250.38,522.369 249.268,521.724 241.837,528.824C235.351,535.02 251.497,556.204 210.254,575.013C199.026,580.134 181.224,588.83 152.69,571.033C152.599,570.977 152.69,571.033 151.596,570.257C100.23,538.285 127.125,493.869 137.96,480.916C142.827,475.097 135.904,461.253 150.666,444.641C161.152,432.84 169.354,437.219 176.428,429.44C230.083,370.434 290.142,394.963 294.434,389.446C296.081,387.327 312.386,357.676 339.149,337.078C347.79,330.428 345.432,328.763 344.455,322.507C342.031,306.992 342.262,307.025 339.89,291.451C339.853,291.207 338.338,276.848 335.646,276.071C334.513,275.745 319.022,272.017 309.565,265.32C250.225,226.646 279.765,141.982 342.514,139.784C352.158,139.446 353.198,140.532 357.011,135.117C379.853,102.685 434.719,84.896 482.276,121.813C487.869,126.154 489.336,117.3 517.495,117.592C533.089,117.754 556.22,128.188 567.259,145.648C567.45,145.95 567.431,145.931 569.583,149.465ZM832.443,241.499C831.018,265.336 824.696,265.719 815.634,278.593C811.383,284.632 813.74,288.119 820.761,300.346C822.39,303.183 833.139,308.336 829.275,300.595C826.07,294.173 821.382,270.214 834.963,256.995C839.304,252.769 851.551,243.528 840.358,235.706C836.592,233.073 837.285,232.352 833.303,229.893C830.413,228.108 832.027,231.242 832.443,241.499ZM774.528,299.486C770.612,290.724 772.855,281.714 769.238,288.237C766.624,292.95 763.129,296.985 762.309,299.425C758.14,311.839 776.933,309.492 778.434,309.304C781.332,308.942 777.998,305.3 774.528,299.486Z" style="fill:rgb(242,239,229);"/>
                    <path d="M657.484,383.491C660.688,379.234 660.646,379.244 660.945,378.894C672.447,365.437 677.462,353.439 709.671,339.919C777.172,311.587 890.674,313.214 911.401,342.571C915.091,347.797 915.542,347.278 920.124,351.88C921.867,353.63 941.611,371.955 912.217,396.151C856.236,442.23 792.93,438.07 788.37,441.313C765.547,457.545 755.921,459.609 742.693,486.589C741.098,489.842 744.85,491.22 747.214,495.656C755.512,511.228 743.148,556.997 718.505,558.571C714.31,558.839 713.23,570.855 707.175,577.218C693.872,591.199 679.514,573.688 676.387,575.214C667.214,579.689 667.563,580.847 653.513,582.58C647.737,583.292 653.237,594 648.284,630.47C646.817,641.267 643.945,642.645 651.588,650.414C690.881,690.353 690.41,727.143 693.937,732.231C695.667,734.727 711.175,720.258 728.607,726.167C765.492,738.672 714.522,774.545 705.875,780.992C672.129,806.152 669.272,803.707 666.58,801.403C651.815,788.768 642.485,751.914 557.449,742.962C505.486,737.493 434.588,744.87 413.56,747.935C337.563,759.014 289.304,799.139 231.518,755.473C228.014,752.825 228.653,756.285 226.015,760.159C208.075,786.501 173.221,789.078 182.536,754.51C186.572,739.534 207.869,696.698 208.926,694.734C212.271,688.521 215.491,690.514 221.597,692.09C274.23,705.68 270.72,646.94 269.104,609.517C265.861,534.417 273.646,512.639 274.508,497.5C274.797,492.427 256.942,490.941 244.445,495.344C238.025,497.605 241.827,500.83 240.479,506.495C238.241,515.901 225.907,520.143 225.518,520.519C223.03,522.923 231.067,547 212.325,556.136C205.926,559.256 203.92,554.966 199.408,560.421C185.349,577.42 137.848,554.492 136.11,525.527C134.601,500.389 156.806,486.089 155.949,482.449C155.429,480.243 152.031,465.803 161.736,454.708C168.773,446.664 175.878,448.453 178.495,448.426C186.168,448.346 212.93,388.857 298.496,407.522C302.606,408.418 301.9,406.439 303.989,402.79C333.28,351.621 360.535,343.155 361.524,338.504C362.084,335.869 353.374,275.918 352.585,270.487C351.727,264.578 353.471,261.154 345.489,260.909C295.274,259.363 276.194,202.035 307.92,169.927C328.892,148.701 358.945,155.372 359.501,155.35C363.304,155.195 371.526,131.374 398.686,120.99C442.768,104.137 472.848,133.044 477.493,137.507C482.309,142.136 483.154,140.801 487.572,138.646C533.339,116.323 572.816,157.505 563.491,196.498C555.805,228.641 524.08,237.573 523.64,237.761C522.036,238.443 522.83,244.837 522.906,245.45C527.324,281.029 527.798,280.892 531.935,316.44C532.403,320.46 536.212,321.161 539.277,322.912C608.226,362.318 631.333,462.981 635.878,479.399C641.437,499.479 660.449,498.49 668.539,495.612C683.995,490.114 686.619,469 707.488,474.545C710.259,475.281 711.748,471.434 715.696,462.59C723.822,444.389 725.487,437.989 719.466,436.65C688.775,429.824 636.875,419.998 657.484,383.491Z" style="fill:rgb(129,45,34);"/>
                    <path d="M319.539,416.434C314.179,413.332 312.969,412.874 314.751,409.634C342.012,360.054 379.58,329.991 466.5,324.501C525.118,320.799 541.991,334.838 567.646,363.375C606.591,406.694 622.866,482.685 626.82,490.332C640.903,517.571 669.733,507.485 673.452,506.183C678.946,504.261 670.293,514.513 681.999,533.168C686.789,540.8 682.908,541.179 679.655,549.565C676.254,558.331 677.871,566.142 652.529,570.673C650.853,570.973 648.963,571.077 648.095,568.671C648.021,568.465 641.026,543.632 635.941,551.736C633.155,556.178 643.672,581.689 635.118,637.442C633.04,650.989 635.488,651.121 645.141,660.859C684.045,700.102 683.692,753.797 686.502,754.495C689.088,755.138 696.691,740.745 713.498,736.49C717.627,735.445 738.605,735.256 728.425,746.432C714.578,761.633 675.247,789.572 671.413,788.896C666.087,787.958 649.891,743.855 574.452,732.844C526.291,725.815 432.057,727.952 373.634,743.993C296.638,765.134 271.622,774.599 231.864,741.074C227.263,737.195 224.849,733.637 223.432,739.481C216.956,766.189 187.934,777.696 192.468,760.491C193.691,755.85 195.989,747.13 216.8,705.654C220.284,698.711 229.8,711.397 251.31,704.001C290.458,690.541 281.694,624.234 281.049,589.507C280.029,534.626 286.246,501.203 286.747,500.752C290.543,497.324 310.877,522.135 310.062,509.543C309.408,499.437 274.045,471.851 241.488,484.465C237.352,486.068 236.46,488.024 233.034,483.881C213.15,459.836 192.256,454.632 192.619,451.523C192.653,451.229 219.652,417.1 264.493,416.115C309.36,415.13 330.9,438.846 329.937,427.46C329.637,423.912 320.513,417.156 319.539,416.434Z" style="fill:rgb(242,239,229);"/>
                    <path d="M488.697,152.588C506.615,133.226 555.96,145.276 553.195,188.479C551.502,214.937 523.379,228.706 520.526,225.48C520.235,225.15 517.881,213.023 520.582,210.596C521.117,210.114 532.043,204.39 533.182,198.455C534.929,189.35 525.264,203.861 505.512,204.898C484.182,206.017 473.9,195.639 475.787,203.449C477.737,211.52 502.921,214.682 505.448,214.999C509.724,215.536 508.783,217.486 513.742,256.472C514.002,258.512 515.438,263.727 512.5,263.494C501.045,262.584 500.698,261.495 500.395,260.546C498.554,254.778 495.891,228.367 493.528,229.009C489.385,230.134 494.744,260.135 490.461,261.361C489.67,261.587 476.456,261.669 475.579,261.257C471.508,259.345 469.119,222.76 464.928,226.86C463.142,228.606 467.192,260.172 464.476,261.459C463.169,262.079 463.144,261.872 446.489,263.364C441.91,263.774 443.687,260.854 436.436,228.516C436.341,228.091 434.861,221.493 432.67,224.597C432.01,225.531 433.42,245.668 433.548,247.497C434.43,260.083 435.949,264.681 432.449,265.216C423.96,266.516 424.043,266.492 415.581,267.979C414.439,268.18 412.401,268.587 411.705,265.454C408.484,250.949 408.797,250.957 405.514,236.493C405.405,236.012 402.554,232.904 402.652,238.507C403.082,262.936 405.835,269.634 402.546,270.617C387.817,275.018 386.349,274.918 385.452,271.513C379.3,248.163 378.011,241.104 375.684,244.59C374.752,245.985 379.082,276.141 378.213,277.311C377.465,278.318 365.826,283.708 364.877,281.332C364.515,280.425 358.159,237.534 358.411,236.479C360.039,229.647 372.284,238.101 391.598,214.6C393.282,212.55 415.971,218.594 426.101,211.085C427.457,210.08 427.287,207.701 425.467,207.676C407.74,207.433 405.992,209.34 381.352,198.846C376.044,196.585 375.214,200.708 378.756,204.239C380.842,206.319 386.462,209.082 374.185,218.03C357.24,230.38 332.837,222.046 331.583,222.709C322.98,227.258 346.555,232.359 347.828,236.415C348.169,237.503 349.212,248.073 349.093,248.423C347.16,254.087 297.488,245.197 304.698,200.54C310.59,164.052 358.776,160.871 359.214,169.51C359.289,170.988 358.313,179.722 362.506,180.129C367.782,180.642 364.634,167.804 380.983,147.928C390.136,136.801 432.533,105.341 478.331,154.657C480.525,157.019 488.101,166.767 490.853,163.823C492.692,161.856 488.13,157.638 488.697,152.588Z" style="fill:rgb(242,239,229);"/>
                    <path d="M414.526,319.617C375.094,329.299 372.396,337.445 371.603,331.478C371.241,328.754 371.043,328.802 366.837,297.458C366.352,293.846 369.024,292.313 385.577,286.736C438.819,268.799 513.586,271.127 516.278,276.609C516.715,277.5 521.639,313.53 521.149,314.304C519.884,316.303 478.073,304.639 414.526,319.617Z" style="fill:rgb(242,239,229);"/>
                    <path d="M818.51,382.561C781.398,388.792 781.09,382.471 763.51,384.593C732.531,388.333 732.315,387.222 711.402,380.808C711.372,380.798 697.102,378 701.532,374.535C716.61,362.742 728.525,358.809 749.538,350.6C754.524,348.652 798.852,339.53 814.432,344.736C818.854,346.213 859.568,336.561 879.199,351.851C884.707,356.142 880.869,359.336 859.253,372.101C844.442,380.846 833.563,381.003 818.51,382.561Z" style="fill:rgb(232,211,165);"/>
                    <path d="M528.389,464.443C501.461,512.075 436.756,495.262 426.776,452.434C425.235,445.821 420.153,453.653 413.477,452.662C412.621,452.535 404.4,449.452 412.739,444.99C422.717,439.652 422.721,439.478 428.932,430.835C432.749,425.523 436.533,427.979 435.668,434.519C435.423,436.371 435.94,438.073 458.506,439.406C483.83,440.902 494.083,436.789 526.353,427.203C529.065,426.397 522.108,413.51 530.425,415.81C538.203,417.961 558.43,432.892 548.56,434.772C543.557,435.724 538.689,427.874 536.322,436.456C533.752,445.771 535.212,449.661 528.389,464.443Z" style="fill:rgb(129,45,34);"/>
                    <path d="M848.48,398.436C758.117,423.847 687.476,403.138 679.931,391.223C672.842,380.026 687.724,380.599 693.306,383.822C709.565,393.21 718.811,387.91 724.782,393.219C731.103,398.839 732.544,391.71 782.475,393.973C807.204,395.094 806.891,391.301 831.496,389.443C849.396,388.091 849.263,386.875 864.786,377.984C880.606,368.923 881.705,370.479 889.927,361.927C890.71,361.113 896.97,354.603 903.404,357.702C906.982,359.425 902.899,369.857 895.132,376.065C878.229,389.577 858.511,395.247 848.48,398.436Z" style="fill:rgb(242,239,229);"/>
                    <path d="M569.583,149.465C569.583,149.465 586.558,162.329 592.419,178.532C613.719,237.418 557.791,264.884 557.462,265.474C555.578,268.857 565.136,318.449 564.517,319.545C564.332,319.873 563.629,319.577 563.444,319.905C561.917,319.073 561.915,319.095 561.794,319.007C549.607,310.06 546.855,311.756 545.951,304.46C542.597,277.39 542.554,277.491 538.966,250.442C538.924,250.124 538.64,247.985 540.693,246.825C584.815,221.905 587.509,180.739 569.583,149.465Z" style="fill:rgb(196,190,171);"/>
                    <path d="M159.373,496.398C159.81,495.874 164.384,490.382 164.894,489.904C168.347,486.674 200.618,501.8 211.364,514.605C217.232,521.597 216.47,547.461 205.497,547.071C197.373,546.781 199.206,537.447 199.394,536.488C199.995,533.433 197.308,533.918 195.783,534.973C187.869,540.446 189.06,543.875 192.122,549.704C195.409,555.962 182.209,558.138 169.75,551.037C136.902,532.313 146.821,513.188 159.373,496.398Z" style="fill:rgb(242,239,229);"/>
                    <path d="M912.345,369.445C913.185,366.328 913.783,360.74 916.217,362.827C917.366,363.812 918.743,368.582 918.479,372.499C917.668,384.557 887.178,403.979 858.291,416.008C784.703,446.651 672.248,423.399 662.727,404.386C658.935,396.814 666.288,387.217 666.731,386.846C671.05,383.229 665.133,394.104 680.626,403.282C738.813,437.752 893.183,414.787 912.345,369.445Z" style="fill:rgb(242,239,229);"/>
                    <path d="M800.418,227.571C792.828,220.798 792.526,221.345 783.695,216.171C750.903,196.962 773.866,161.287 781.48,161.762C788.342,162.189 780.009,170.739 777.75,177.58C768.981,204.142 799.288,206.09 811.42,223.556C827.808,247.151 804.827,266.371 801.931,269.858C787.358,287.404 806.426,299.211 806.35,303.497C806.154,314.519 790.413,301.61 787.619,290.464C779.341,257.436 820.708,256.832 800.418,227.571Z" style="fill:rgb(129,45,34);"/>
                    <path d="M192.509,464.483C195.906,466.407 220.818,480.52 229.233,496.621C234.043,505.824 223.037,512.159 218.76,508.218C179.941,472.442 164.115,485.659 165.238,473.483C167.299,451.122 182.024,459.699 192.509,464.483Z" style="fill:rgb(242,239,229);"/>
                    <path d="M863.225,223.722C883.718,253.129 855.289,267.116 852.411,278.476C848.359,294.47 867.02,298.679 859.171,305.089C853.385,309.814 828.47,285.324 849.601,262.593C865.602,245.38 863.266,234.56 843.15,220.978C840.996,219.524 820.711,205.829 830.986,190.853C833.13,187.728 838.329,186.173 837.779,191.528C835.756,211.25 846.606,206.128 863.225,223.722Z" style="fill:rgb(129,45,34);"/>
                    <path d="M735.753,526.591C732.634,534.514 725.202,561.19 699.906,539.057C694.416,534.254 696.746,527.844 703.549,529.248C711.858,530.963 712.288,532.544 714.406,530.406C719.199,525.567 698.305,521.252 705.643,515.689C717.691,506.556 723.351,516.838 725.115,510.427C726.421,505.681 717.087,506.575 717.236,498.493C717.325,493.675 717.087,490.111 722.442,490.976C748.668,495.214 736.96,522.777 735.753,526.591Z" style="fill:rgb(242,239,229);"/>
                    <path d="M877.564,335.257C879.54,335.885 903.978,343.654 900.439,347.447C900.233,347.669 890.017,351.241 887.625,349.336C883.689,346.202 885.012,343.827 867.393,337.824C846.224,330.612 845.811,332.395 823.508,333.639C815.929,334.062 816.027,334.617 808.499,334.615C794.722,334.611 788.661,331.381 743.537,343.632C709.168,352.964 690.096,372.441 687.429,373.208C686.827,373.381 674.543,376.912 679.96,370.849C696.134,352.748 743.777,332.85 797.511,330.671C834.206,329.182 845.007,327.081 877.564,335.257Z" style="fill:rgb(242,239,229);"/>
                    <path d="M752.39,288.412C737.644,308.403 759.785,312.343 753.353,318.324C747.735,323.549 729.843,302.713 742.937,285.826C744.507,283.802 758.979,270.468 748.146,255.775C744.523,250.862 722.394,241.095 729.311,226.403C731.169,222.456 735.865,221.821 735.906,225.467C736.114,244.151 749.213,236.91 758.036,252.769C760.817,257.768 762.086,264.411 761.769,269.517C761.164,279.305 754.588,285.695 752.39,288.412Z" style="fill:rgb(129,45,34);"/>
                    <path d="M517.326,449.197C476.552,469.766 430.22,457.48 434.943,446.619C436.719,442.537 447.897,451.189 483.49,447.409C508.042,444.802 524.787,432.558 525.848,437.404C526.016,438.171 525.738,440.189 525.214,441.392C523.039,446.389 520.117,447.331 517.326,449.197Z" style="fill:rgb(242,239,229);"/>
                    <path d="M721.496,481.567C719.219,481.118 717.843,481.775 718.525,479.505C718.854,478.408 718.882,478.432 724.508,466.504C736.106,441.912 732.325,440.551 733.763,438.699C735.012,437.089 735.447,438.069 743.484,438.714C760.762,440.102 767.954,440.093 768.659,440.145C768.9,440.162 772.348,440.769 768.228,443.13C745.643,456.072 740.701,468.363 733.525,481.515C731.98,484.345 729.734,482.264 721.496,481.567Z" style="fill:rgb(242,239,229);"/>
                    <path d="M417.281,385.343C430.743,369.387 445.553,398.289 436.404,412.44C425.436,429.403 406.107,404.414 417.281,385.343Z" style="fill:rgb(129,45,34);"/>
                    <path d="M527.793,378.314C540.982,402.154 517.813,420.114 508.895,399.331C502.215,383.764 514.715,360.587 527.793,378.314Z" style="fill:rgb(129,45,34);"/>
                    <path d="M797.488,369.437C791.95,370.198 777.811,373.878 772.803,364.37C767.172,353.682 794.919,345.937 807.143,354.906C809.579,356.694 809.663,360.023 809.109,361.388C806.718,367.284 800.651,368.493 797.488,369.437Z" style="fill:rgb(139,36,28);"/>
                    <path d="M499.535,479.585C496.604,480.615 477.096,487.465 460.709,480.074C450.373,475.413 478.494,465.633 494.442,467.971C509.628,470.198 509.119,472.383 508.839,473.588C508.403,475.458 500.338,479.212 499.535,479.585Z" style="fill:rgb(242,239,229);"/>
                    <path d="M734.463,365.247C735.657,365.118 744.304,364.186 749.476,365.597C769.48,371.052 747.608,388.581 728.365,381.864C727.029,381.397 707.296,372.483 734.463,365.247Z" style="fill:rgb(143,38,28);"/>
                    <path d="M688.476,495.486C690.749,492.102 690.718,492.112 690.931,491.831C708.435,468.761 715.556,502.667 703.377,506.091C694.33,508.635 693.198,492.167 690.328,500.414C687.649,508.114 693.796,515.347 694.016,516.58C694.128,517.205 688.13,530.546 686.493,526.505C680.187,510.946 687.301,497.677 688.476,495.486Z" style="fill:rgb(242,239,229);"/>
                    <path d="M839.506,366.327C837.495,366.142 835.473,366.078 833.462,365.893C823.136,364.942 822.056,354.301 833.599,350.829C854.88,344.428 867.812,355.387 858.23,362.112C850.8,367.327 841.039,366.28 839.506,366.327Z" style="fill:rgb(136,38,31);"/>
                    <path d="M415.422,367.38C411.003,370.941 411.633,371.52 407.148,375.036C400.05,380.601 395.581,363.683 414.459,354.412C432.495,345.554 439.871,362.225 431.454,363.245C426.534,363.841 424.509,362.6 415.422,367.38Z" style="fill:rgb(129,45,34);"/>
                    <path d="M531.595,351.413C538.627,359.283 534.795,363.973 529.721,361.117C518.656,354.887 517.605,354.424 504.465,357.248C494.945,359.294 498.925,338.989 520.408,344.863C525.726,346.317 530.812,350.733 531.595,351.413Z" style="fill:rgb(129,45,34);"/>
                    <path d="M688.153,554.378C690.419,548.606 690.205,543.892 694.772,548.187C700.321,553.404 708.127,553.697 706.245,558.409C699.937,574.204 693.882,572.316 692.408,571.857C681.743,568.533 684.485,564.896 688.153,554.378Z" style="fill:rgb(242,239,229);"/>
                    <path d="M480.39,415.235C481.001,414.911 486.377,412.06 484.378,407.56C483.042,404.553 475.273,403.973 474.427,403.91C471.899,403.721 471.297,400.828 473.441,399.423C486.495,390.864 501.472,411.993 488.297,420.195C474.997,428.474 463.022,416.599 470.543,415.81C475.499,415.29 475.492,416.287 480.39,415.235Z" style="fill:rgb(129,45,34);"/>
                    <path d="M816.745,376.547C812.845,385.323 792.819,379.249 800.704,372.714C803.516,370.383 816.075,366.81 816.745,376.547Z" style="fill:rgb(135,36,26);"/>
                    <path d="M750.374,360.882C740.893,356.959 754.292,349.141 760.186,354.794C760.852,355.433 765.458,363.245 750.374,360.882Z" style="fill:rgb(125,37,29);"/>
                    <path d="M830.392,370.215C831.142,370.022 838.775,368.064 839.823,372.397C841.575,379.643 819.527,377.303 830.392,370.215Z" style="fill:rgb(132,39,31);"/>
                    <path d="M779.371,380.904C771.757,377.829 779.173,373.555 785.482,376.531C786.254,376.895 789.641,382.747 779.371,380.904Z" style="fill:rgb(129,46,32);"/>
                    <path d="M780.145,233.759C778.676,232.576 778.489,232.63 778.565,232.487C779.211,231.264 779.049,232.876 780.145,233.759Z" style="fill:rgb(225,219,201);"/>
                </g>
            </g>
        </g>
    </g>
</svg>
