<?xml version="1.0" encoding="UTF-8" standalone="no"?>
<!DOCTYPE svg PUBLIC "-//W3C//DTD SVG 1.1//EN" "http://www.w3.org/Graphics/SVG/1.1/DTD/svg11.dtd">
<svg width="100%" height="100%" viewBox="0 0 777 891" version="1.1" xmlns="http://www.w3.org/2000/svg" xmlns:xlink="http://www.w3.org/1999/xlink" xml:space="preserve" xmlns:serif="http://www.serif.com/" style="fill-rule:evenodd;clip-rule:evenodd;stroke-linejoin:round;stroke-miterlimit:2;">
    <g transform="matrix(1,0,0,1,-3259.859239,-2369.752339)">
        <g transform="matrix(1.027245,0,0,0.976562,1990.881987,2315.136237)">
            <g transform="matrix(0.973478,0,0,1.024,1126.994806,3.913568)">
                <g>
                    <g id="Fondo" transform="matrix(1,0,0,1,-43.532263,-18.94047)">
                        <path d="M909.496,236.499C913.274,235.088 926.594,244.904 929.318,254.55C935.514,276.496 927.026,521.642 911.338,544.394C899.77,561.171 883.05,550.06 815.52,545.049C804.062,544.199 800.436,544.754 802.948,550.236C803.802,552.1 819.748,573.609 808.286,616.444C800.202,646.655 786.15,643.11 784.774,651.535C784.608,652.548 784.158,685.872 746.493,685.627C739.746,685.583 728.938,680.193 727.51,679.481C725.263,678.36 725.304,679.934 698.612,691.727C692.628,694.371 701.796,697.151 700.061,773.49C699.53,796.859 702.292,814.756 658.509,832.524C649.309,836.258 651.919,838.808 649.567,848.517C638.472,894.322 625.299,898.446 635.529,901.402C638.114,902.149 729.069,917.954 669.474,938.418C567.049,973.588 223.455,963.969 185.813,929.157C169.671,914.228 227.002,902.869 238.798,902.323C239.333,905.328 239.506,935.197 290.499,937.516C304.464,938.151 349.789,936.387 360.145,919.281C369.937,903.107 357.869,895.515 383.54,869.54C395.521,857.418 398.33,864.312 445.495,864.738C477.252,865.026 483.664,859.305 487.177,865.677C492.468,875.276 492.472,878.908 493.127,882.447C492.334,882.755 411.809,877.815 405.639,884.624C400.767,890.001 396.261,897.388 397.53,897.346C408.575,896.983 408.546,896.85 409.504,896.843C470.037,896.395 486.693,897.235 493.396,897.573C495.035,902.699 493.462,905.057 496.251,913.58C497.886,918.578 503.089,934.482 557.505,937.424C572.625,938.241 623.704,939.916 627.434,907.493C629.378,890.596 616.575,879.378 615.707,878.33C612.36,874.286 621.05,867.807 629.523,835.506C633.413,820.679 630.327,818.155 638.75,813.956C677.966,794.41 679.394,788.144 680.378,765.495C682.237,722.708 677.997,676.999 678.123,675.469C678.314,673.159 679.409,673.781 703.473,661.442C707.644,659.304 711.693,662.229 714.576,663.269C726.896,667.711 746.2,664.542 754.228,657.17C763.667,648.502 763.887,638.213 764.6,632.521C765.782,623.08 784.584,629.893 791.174,581.459C796.701,540.837 780.638,528.99 780.509,527.498C780.212,524.082 782.026,525.517 785.502,525.668C851.58,528.548 877.978,542.039 890.098,526.152C904.535,507.226 915.711,312.871 909.496,236.499Z" style="fill:rgb(196,190,171);"/>
                        <path d="M629.314,144.582C638.081,156.883 643.513,177.212 641.388,195.488C634.705,252.981 578.693,264.301 576.933,266.721C576.173,267.765 571.929,332.077 571.708,340.505C571.39,352.594 592.009,350.339 623.396,464.531C626.948,477.456 643.924,479.825 643.061,516.482C642.854,525.273 657.35,537.909 665.526,538.54C672.146,538.461 674.804,536.204 688.113,516.248C691.528,511.128 691.742,510.806 693.551,439.502C697.704,275.818 691.388,275.79 693.882,254.54C696.749,230.11 715.177,217.851 734.515,216.787C746.017,216.155 746.027,217.09 878.496,215.279C901.433,214.965 905.043,218.066 909.496,236.499C915.711,312.871 904.535,507.226 890.098,526.152C877.978,542.039 851.58,528.548 785.502,525.668C782.026,525.517 780.212,524.082 780.509,527.498C780.638,528.99 796.701,540.837 791.174,581.459C784.584,629.893 765.782,623.08 764.6,632.521C763.887,638.213 763.667,648.502 754.228,657.17C746.2,664.542 726.896,667.711 714.576,663.269C711.693,662.229 707.644,659.304 703.473,661.442C679.409,673.781 678.314,673.159 678.123,675.469C677.997,676.999 682.237,722.708 680.378,765.495C679.394,788.144 677.966,794.41 638.75,813.956C630.327,818.155 633.413,820.679 629.523,835.506C621.05,867.807 612.36,874.286 615.707,878.33C616.575,879.378 629.378,890.596 627.434,907.493C623.704,939.916 572.625,938.241 557.505,937.424C503.089,934.482 497.886,918.578 496.251,913.58C493.462,905.057 494.024,905.538 493.396,897.573C493.334,896.79 493.807,885.805 493.127,882.447C492.472,878.908 492.468,875.276 487.177,865.677C483.664,859.305 477.252,865.026 445.495,864.738C398.33,864.312 395.521,857.418 383.54,869.54C357.869,895.515 369.937,903.107 360.145,919.281C349.789,936.387 304.464,938.151 290.499,937.516C239.506,935.197 239.333,905.328 238.798,902.323C238.628,900.578 239.661,888.383 246.621,879.595C250.327,874.915 251.226,874.52 248.625,867.453C247.496,864.388 238.408,839.698 236.429,828.493C234.948,820.289 234.898,820.132 234.676,819.427C233.618,816.073 208.958,811.795 179.553,795.085C140.744,777.909 156.683,755.119 166.797,722.591C176.791,690.45 180.304,685.033 176.055,678.82C121.203,598.617 223.433,519.67 226.435,514.454C231.296,506.008 217.672,501.995 235.019,475.23C238.569,469.753 234.157,464.078 248.746,450.789C255.103,444.998 254.272,444.38 257.265,436.41C289.742,349.915 320.878,329.502 332.387,317.406C334.759,314.914 335.741,268.594 337.171,255.425C337.163,254.742 337.156,254.058 337.149,253.375C337.225,249.332 336.121,249.474 323.399,241.699C246.26,194.554 296.16,67.368 388.497,97.508C395.409,99.764 395.295,97.417 400.821,92.884C421.712,75.747 447.346,69.46 465.497,69.744C521.603,70.621 539.085,100.349 545.801,106.146C550.613,110.299 597.856,95.931 629.314,144.582Z" style="fill:rgb(242,239,229);"/>
                        <path d="M261.415,462.343C264.952,460.966 265.26,460.783 265.57,460.6C267.929,459.203 281.322,411.074 305.654,374.599C334.537,331.303 349.085,330.026 350.088,325.419C351.279,319.942 350.115,319.866 354.535,255.503C355.646,239.327 357.466,237.067 351.53,235.383C295.43,219.469 302.043,169.195 302.319,166.481C305.243,137.735 336.703,89.13 395.459,118.583C398.978,120.347 403.149,113.858 404.954,111.936C435.661,79.224 486.331,80.2 516.158,100.977C535.305,114.315 536.23,126.935 542.516,125.571C617.346,109.33 649.096,195.512 602.172,234.091C581.351,251.209 562.527,247.834 560.923,250.685C560.82,250.866 553.31,345.416 553.739,347.451C554.074,349.043 581.149,377.944 604.091,459.615C607.893,473.148 605.912,474.273 615.249,484.716C619.484,489.453 623.853,498.905 624.787,503.446C627.076,514.577 623.559,517.33 622.825,518.661C622.336,519.547 621.76,520.592 627.884,530.253C649.848,564.896 673.01,556.542 683.419,553.21C690.37,550.985 687.307,547.437 693.848,536.715C701.14,524.761 707.092,528.336 707.347,520.494C712.373,366.188 711.061,304.293 710.663,285.496C710.372,271.792 705.407,239.521 730.472,234.361C735.582,233.31 886.879,231.006 889.384,232.688C896.413,237.406 896.059,379.351 885.07,463.447C878.561,513.255 877.097,514.041 873.294,516.08C869.567,518.08 794.025,506.61 759.499,506.52C753.662,506.505 754.458,508.682 754.354,514.5C754.126,527.258 752.602,528.891 758.417,531.663C769.13,536.768 776.494,551.484 775.184,569.478C771.963,613.696 751.998,614.784 749.367,616.3C745.379,618.597 753.002,646.809 729.498,647.428C712.428,647.878 704.025,638.599 703.493,638.544C696.858,637.851 698.583,650.169 661.439,658.257C657.281,659.163 659.402,666.035 659.798,669.47C665.525,719.17 664.085,764.074 662.741,773.538C660.96,786.082 621.46,801.229 619.366,802.225C613.024,805.241 621.231,829.481 592.971,875.779C589.118,882.091 599.542,881.893 606.026,891.821C627.497,924.699 558.439,924.798 525.598,915.152C509.319,910.371 511.555,906.206 511.414,891.501C511.139,862.875 494.223,842.933 484.49,844.42C412.483,855.418 402.856,837.347 383.595,847.674C349.559,865.924 346.331,907.594 345.907,908.662C341.394,920.032 266.402,928.587 257.591,907.456C250.908,891.426 269.81,881.105 271.123,880.052C275.698,876.385 257.169,859.564 250.915,808.463C250.228,802.842 248.992,803.205 243.439,801.725C206.808,791.958 173.133,774.25 171.3,767.559C170.098,763.173 191.153,704.488 197.259,680.44C198.313,676.287 186.822,668.608 180.966,653.318C155.898,587.862 245.802,521.139 248.114,519.082C252.03,515.598 229.923,503.133 251.239,484.188C255.538,480.368 247.206,471.725 261.415,462.343Z" style="fill:rgb(129,45,34);"/>
                        <path d="M234.277,549.272C247.966,535.974 248.117,536.18 257.445,529.421C261.687,526.347 262.188,526.663 266.711,529.113C305.286,550.013 366.931,568.157 428.507,571.36C467.793,573.404 474.909,569.382 470.578,573.542C466.459,577.498 452.958,590.466 445.963,640.557C442.916,662.378 488.891,641.632 489.425,641.354C525.343,622.628 523.352,592.503 523.859,586.538C524.128,583.383 533.38,583.09 533.619,583.177C535.531,583.877 534.822,584.549 536.636,589.451C551.48,629.579 603.237,627.832 603.303,627.877C605.762,629.532 616.772,698.774 607.839,777.537C606.158,792.35 606.968,794.14 600.361,796.006C496.121,825.445 334.42,815.353 252.389,791.878C200.909,777.145 186.15,764.555 185.968,764.248C184.95,762.534 195.327,734.18 208.384,690.452C209.811,685.673 211.373,691.102 230.387,698.793C238.204,701.955 232.794,706.336 237.914,715.28C259.229,752.517 311.457,725.972 317.595,688.518C323.992,649.474 277.152,625.63 273.857,623.094C270.254,620.322 276.965,607.633 281.286,597.408C283.779,591.506 279.623,589.774 276.45,591.41C270.411,594.525 261.989,615.082 261.076,617.311C259.862,620.275 257.113,618.725 255.618,620.596C250.443,627.075 262.735,625.909 287.919,648.025C337.303,691.391 268.093,741.588 249.852,712.282C239.846,696.205 260.398,708.227 263.289,705.295C271.533,696.937 225.814,691.278 205.646,668.362C165.965,623.273 209.907,574.201 234.277,549.272Z" style="fill:rgb(242,239,229);"/>
                        <path d="M281.616,469.344C279.9,467.696 279.557,467.942 279.293,466.542C278.643,463.087 292.193,430.317 295.221,423.375C311.745,385.492 336.351,352.985 352.717,341.803C374.427,326.969 501.363,330.304 539.301,354.831C565.537,371.791 595.63,478.281 595.849,479.445C596.499,482.889 585.397,502.461 551.74,520.953C539.568,527.641 539.097,526.878 534.565,526.065C532.501,525.694 524.528,524.264 508.624,529.849C507.135,530.373 500.277,533.274 499.517,533.563C490.216,537.093 358.889,524.611 281.616,469.344Z" style="fill:rgb(242,239,229);"/>
                        <path d="M328.668,137.658C330.325,136.102 341.641,125.47 353.565,123.971C367.644,122.201 378.689,125.761 387.61,130.293C397.332,135.232 385.664,143.626 388.888,147.129C392.452,151.002 399.932,138.795 401.059,137.188C437.151,85.771 485.893,102.286 489.504,103.489C537.435,119.452 533.951,164.276 542.264,154.295C543.664,152.615 543.065,143.454 543.003,142.512C542.679,137.552 554.261,136.657 556.502,136.645C621.55,136.287 632.512,226.14 564.528,235.908C561.232,236.381 561.829,233.061 562.909,219.527C563.329,214.249 565.629,215.956 574.391,212.236C575.126,211.924 584.823,207.806 579.424,203.614C577.04,201.762 546.183,216.003 522.724,194.254C514.716,186.83 527.816,186.152 526.218,180.558C523.909,172.478 514.815,187.202 485.432,192.027C469.95,194.569 469.844,193.283 468.506,193.522C465.065,194.137 466.566,198.942 481.49,200.594C494.077,201.988 494.032,200.831 506.52,198.634C510.835,197.875 515.36,212.45 547.537,218.302C551.147,218.959 550.467,222.46 549.424,235.494C546.098,277.059 546.755,277.628 545.367,278.225C544.045,278.794 530.72,273.603 530.529,273.454C526.513,270.303 534.446,228.98 528.435,230.315C526.058,230.843 520.918,267.885 519.393,269.393C518.357,270.417 498.141,267.78 498.065,263.547C497.365,224.411 498.943,221.389 495.462,222.424C493.379,223.044 488.649,260.803 488.547,261.512C488.272,263.419 487.332,264.735 464.484,260.578C461.344,260.006 462.218,258.57 461.942,232.497C461.313,173.086 452.828,256.928 451.405,258.427C449.755,260.167 425.587,258.656 424.856,258.055C422.797,256.363 424.993,224.94 423.824,219.372C423.757,219.055 421.478,215.562 420.368,221.473C413.767,256.634 415.497,258.858 411.469,259.154C394.957,260.37 394.914,260.774 393.643,260.123C390.164,258.34 392.392,222.248 389.434,221.976C386.424,221.7 383.863,254.281 382.852,259.576C382.626,260.763 382.246,262.752 368.498,264.268C365.23,264.629 366.674,254.662 367.089,249.463C369.285,221.959 369.799,210.112 371.524,208.528C371.723,208.345 410.674,199.224 408.116,190.58C406.74,185.933 397.062,191.252 394.374,192.054C355.355,203.698 343.726,182.065 340.904,188.684C337.983,195.535 358.536,202.042 358.601,207.504C358.787,222.939 355.561,222.3 354.41,221.947C307.237,207.465 308.067,161.606 328.668,137.658Z" style="fill:rgb(242,239,229);"/>
                        <path d="M722.849,257.594C727.814,244.1 736.422,245.242 755.497,245.105C835.62,244.53 835.621,242.445 842.472,243.667C843.963,243.933 846.744,244.649 849.62,294.493C855.234,391.786 834.954,496.054 833.018,499.219C831.696,501.381 809.555,497.318 772.478,494.848C746.232,493.099 746.476,498.589 740.485,497.591C721.936,494.499 721.778,494.513 720.662,493.336C719.793,492.419 720.053,485.201 720.079,484.492C727.378,281.731 718.413,281.341 722.849,257.594Z" style="fill:rgb(242,239,229);"/>
                        <g transform="matrix(0.881359,0,0,0.881359,-2641.253479,-2753.166189)">
                            <circle cx="3663.647" cy="3947.809" r="12.753" style="fill:rgb(129,46,36);"/>
                        </g>
                        <g transform="matrix(0.881359,0,0,0.881359,-2643.407615,-2812.856724)">
                            <circle cx="3663.647" cy="3947.809" r="12.753" style="fill:rgb(129,46,36);"/>
                        </g>
                        <path d="M288.624,879.443C288.316,878.868 278.762,862.368 272.833,843.396C266.42,822.875 265.194,808.618 265.92,807.98C267.109,806.931 312.79,818.387 371.502,823.479C468.789,831.917 538.158,820.525 552.448,818.178C595.21,811.155 603.071,806.048 602.171,811.458C594.094,860.011 577.837,874.559 573.885,881.716C570.89,887.141 592.819,890.846 595.189,900.554C597.199,908.783 546.169,907.749 526.642,901.13C518.467,898.36 536.544,878.16 503.938,839.129C501.032,835.65 503.16,835.091 507.311,833.134C516.952,828.591 505.493,827.771 494.531,829.668C448.317,837.665 424.382,834.202 397.485,831.961C387.318,831.113 368.998,838.47 354.943,854.872C336.797,876.048 335.304,895.822 334.575,899.523C333.307,905.958 256.478,912.812 272.724,895.696C282.847,885.029 292.214,889.576 288.624,879.443Z" style="fill:rgb(242,239,229);"/>
                        <path d="M362.906,318.525C364.338,295.6 364.204,295.668 364.801,288.522C365.102,284.923 363.977,279.063 369.507,277.526C434.282,259.528 538.836,285.598 544.259,292.678C545.114,293.795 541.932,337.977 540.476,338.46C537.611,339.411 470.375,306.581 365.53,323.759C361.905,324.353 363.378,322.209 362.906,318.525Z" style="fill:rgb(242,239,229);"/>
                        <path d="M629.314,144.582C630.3,143.313 633.822,145.954 636.446,148.56C640.452,152.537 666.426,178.328 661.547,214.505C653.722,272.529 597.087,279.88 594.872,282.573C593.911,283.74 593.504,341.54 593.664,346.417C593.805,350.682 633.686,386.879 634.34,461.46C634.349,462.495 667.39,474.379 656.746,515.521C654.173,525.467 665.026,521.541 665.526,538.54C657.93,540.665 642.854,525.273 643.061,516.482C643.924,479.825 626.948,477.456 623.396,464.531C592.009,350.339 571.39,352.594 571.708,340.505C571.929,332.077 576.173,267.765 576.933,266.721C578.693,264.301 634.705,252.981 641.388,195.488C643.513,177.212 638.081,156.883 629.314,144.582Z" style="fill:rgb(196,190,171);"/>
                        <path d="M599.473,540.455C605.745,536.311 605.493,536.051 611.707,531.916C613.642,530.628 614.827,531.863 623.213,558.591C655.329,660.957 650.355,766.935 650.313,767.49C650.248,768.36 653.523,772.346 621.471,788.434C615.319,791.521 620.06,784.989 621.872,746.52C625.867,661.756 613.176,628.652 616.489,623.492C620.88,616.651 614.22,616.599 605.64,579.468C597.7,545.11 594.979,543.715 599.473,540.455Z" style="fill:rgb(242,239,229);"/>
                        <path d="M255.727,507.342C255.389,506.73 253.101,502.578 254.853,498.646C258.826,489.725 261.979,493.21 264.807,495.042C291.867,512.575 309.617,517.412 310.446,517.163C319.192,514.546 282.643,499.249 265.97,484.015C260.819,479.309 265.438,469.95 272.193,475.871C305.962,505.472 378.451,528.736 421.584,537.085C487.513,549.845 492.972,540.821 492.336,546.496C491.795,551.324 491.992,551.362 494.213,555.622C494.854,556.851 494.931,559.669 477.49,560.126C343.62,563.64 264.345,517.662 255.727,507.342Z" style="fill:rgb(242,239,229);"/>
                        <path d="M876.509,242.805C876.809,242.859 880.304,242.117 880.529,245.498C880.892,250.955 881.33,262.983 881.385,264.504C886.391,401.842 867.22,502.218 866.389,503.418C864.659,505.914 843.707,501.77 843.47,501.536C842.526,500.603 843.479,495.989 843.576,495.517C844.544,490.828 850.652,461.223 853.683,436.525C866.028,335.907 858.659,278.327 855.284,246.521C854.818,242.128 858.222,243.047 876.509,242.805Z" style="fill:rgb(242,239,229);"/>
                        <path d="M428.556,489.455C421.546,479.77 422.367,479.379 419.256,471.61C418.111,468.751 415.31,471.951 412.471,472.219C400.635,473.338 413.657,453.707 425.516,452.729C433.618,452.06 428.37,460.755 429.397,462.572C431.043,465.489 492.146,478.984 533.375,458.261C539.356,455.255 535.65,453.487 535.233,450.545C533.259,436.604 571.211,461.078 548.5,461.37C543.663,461.433 545.182,463.779 540.208,475.376C518.231,526.621 454.524,520.641 428.556,489.455Z" style="fill:rgb(129,45,34);"/>
                        <path d="M692.63,588.437C699.624,600.688 703.248,599.461 702.642,607.511C701.405,623.943 701.152,625.18 687.239,634.1C675.807,641.429 657.947,648.057 656.162,643.649C651.391,631.866 656.188,622.447 637.781,563.478C636.44,559.181 641.219,564.761 653.587,568.201C666.31,571.74 678.298,568.553 680.369,568.003C685.062,566.755 685.68,565.358 686.688,567.373C688.844,571.683 685.334,572.722 692.63,588.437Z" style="fill:rgb(242,239,229);"/>
                        <path d="M504.248,614.337C501.79,617.564 488.741,634.695 459.499,638.207C457.057,638.5 457.726,635.807 457.787,635.562C460.281,625.526 468.63,577.306 496.402,567.221C509.212,562.569 500.481,574.628 500.069,575.197C498.579,577.255 478.543,604.926 488.5,604.783C495.219,604.686 506.785,569.527 511.692,579.391C512.767,581.553 513.29,588.367 511.205,597.429C509.14,606.404 508.892,606.322 504.248,614.337Z" style="fill:rgb(242,239,229);"/>
                        <path d="M757.409,545.571C760.998,551.395 766.819,561.596 758.284,591.437C751.648,614.637 719.852,598.632 719.737,592.499C719.498,579.862 742.294,588.917 740.178,582.559C738.93,578.808 718.913,577.427 723.832,570.728C735.406,554.961 745.873,566.27 746.613,559.518C747.271,553.515 723.838,557.492 731.453,541.479C732.283,539.733 746.693,533.684 757.409,545.571Z" style="fill:rgb(242,239,229);"/>
                        <path d="M557.562,601.434C550.867,594.305 542.099,581.349 545.99,574.826C550.927,566.547 560.288,585.875 571.435,589.712C582.987,593.69 556.478,566.899 554.813,565.215C550.294,560.648 558.08,556.737 561.421,558.659C588.602,574.296 595.694,595.833 597.799,601.384C601.269,610.536 604.54,616.78 600.501,616.543C570.815,614.801 561.364,604.669 557.562,601.434Z" style="fill:rgb(242,239,229);"/>
                        <path d="M433.62,475.73C438.315,476.524 449.432,479.444 462.516,480.261C513.141,483.422 524.932,471.589 528.453,471.758C529.285,471.798 530.043,472.75 524.148,481.244C502.349,512.654 453.91,508.346 433.748,478.377C432.224,476.112 433.556,476.061 433.62,475.73Z" style="fill:rgb(243,239,229);"/>
                        <path d="M601.444,494.46C601.9,493.89 602.243,493.234 602.699,492.663C606.499,487.916 614.144,504.794 614.156,508.492C614.217,526.178 565.273,544.243 560.348,546.061C554.079,548.375 555.453,544.121 549.683,536.372C544.771,529.775 571.065,532.739 601.444,494.46Z" style="fill:rgb(242,239,229);"/>
                        <path d="M540.499,542.501C542.921,546.701 544.897,548.77 543.006,558.411C542.621,560.37 539.987,573.8 522.495,572.619C512.157,571.921 519.985,561.654 505.782,548.204C503.671,546.205 504.644,538.556 517.523,541.388C522.856,542.561 521.178,537.471 526.532,536.759C536.058,535.494 540.207,542.141 540.499,542.501Z" style="fill:rgb(242,239,229);"/>
                        <path d="M435.482,436.472C407.437,448.726 409.246,383.958 433.548,396.41C443.421,401.469 447.941,426.416 435.482,436.472Z" style="fill:rgb(129,45,34);"/>
                        <path d="M536.263,395.786C554.954,415.285 536.283,447.247 520.849,431.175C508.167,417.969 517.48,383.297 536.263,395.786Z" style="fill:rgb(129,45,34);"/>
                        <path d="M701.778,545.626C702.163,544.939 705.143,537.718 711.452,536.233C714.955,535.409 718.113,538.767 718.702,540.411C722.207,550.207 724.136,556.107 718.074,562.065C710.654,569.358 705.739,547.954 702.533,556.517C699.358,564.998 707.935,572.969 709.027,573.984C713.292,577.948 710.975,578.912 707.495,591.497C706.34,595.672 703.037,587.814 702.844,587.354C692.936,563.784 699.935,550.338 701.778,545.626Z" style="fill:rgb(242,239,229);"/>
                        <path d="M733.805,632.728C730.105,636.446 712.459,636.954 712.679,626.504C712.806,620.445 712.841,620.519 712.958,614.501C713.064,609.071 710.794,602.054 716.545,606.442C727.349,614.687 736.641,612.925 736.582,617.497C736.447,628.038 734.413,631.649 733.805,632.728Z" style="fill:rgb(242,239,229);"/>
                        <path d="M179.553,795.085C208.958,811.795 233.618,816.073 234.676,819.427C234.898,820.132 234.948,820.289 236.429,828.493C235.973,828.534 235.85,829.354 235.394,829.395C234.267,829.497 234.573,828.829 233.495,828.529C228.624,827.176 210.192,820.249 193.595,811.322C183.39,805.834 179.355,795.616 179.553,795.085Z" style="fill:rgb(196,190,171);"/>
                        <path d="M406.749,372.708C423.15,355.898 442.523,362.374 442.064,371.494C441.727,378.195 433.065,376.313 431.497,376.324C414.856,376.438 410.529,388.364 405.61,386.219C399.281,383.458 406.13,373.599 406.749,372.708Z" style="fill:rgb(129,45,34);"/>
                        <path d="M504.178,429.643C512.796,455.083 472.071,455.568 476.343,443.438C477.983,438.78 494.571,444.996 495.204,435.499C495.81,426.418 476.833,431.294 480.232,424.359C481.34,422.097 495.133,415.181 504.178,429.643Z" style="fill:rgb(129,45,34);"/>
                        <path d="M549.578,375.467C551.176,381.729 548.878,387.842 541.183,380.848C533.292,373.675 518.545,375.635 516.553,375.9C504.746,377.47 510.48,357.263 532.542,362.348C542.979,364.753 548.676,374.003 549.578,375.467Z" style="fill:rgb(129,45,34);"/>
                        <path d="M741.867,523.527C740.733,529.98 737.221,527.207 726.521,526.283C724.631,526.119 719.509,526.784 719.538,522.499C719.636,507.963 719.467,504.726 722.519,505.147C741.863,507.815 742.026,508.911 742.267,510.531C742.712,513.522 742.324,513.503 741.867,523.527Z" style="fill:rgb(242,239,229);"/>
                        <path d="M588.433,559.518C589.162,562.656 590.754,563.469 588.472,564.197C588.302,564.251 575.395,555.121 575.469,553.498C575.517,552.441 585.506,546.782 586.289,550.567C587.234,555.134 587.361,555.041 588.433,559.518Z" style="fill:rgb(233,222,208);"/>
                        <path d="M302.479,243.63C300.959,242.394 300.079,242.019 301.613,240.718C302.888,239.637 304.209,241.988 303.881,242.543C303.581,243.053 302.78,243.121 302.479,243.63Z" style="fill:rgb(234,226,210);"/>
                        <path d="M336.798,253.745L337.149,253.375C337.156,254.058 337.163,254.742 337.171,255.425C337.047,254.865 336.923,254.305 336.798,253.745Z" style="fill:rgb(234,229,213);"/>
                    </g>
                    <g transform="matrix(1.081505,0,0,1.081505,-104.885498,-35.106764)">
                        <path d="M753.952,253.38C763.693,253.38 771.602,261.289 771.602,271.03C771.602,280.771 763.693,288.68 753.952,288.68C744.21,288.68 736.301,280.771 736.301,271.03C736.301,261.289 744.21,253.38 753.952,253.38ZM753.952,262.205C758.822,262.205 762.777,266.159 762.777,271.03C762.777,275.901 758.822,279.855 753.952,279.855C749.081,279.855 745.126,275.901 745.126,271.03C745.126,266.159 749.081,262.205 753.952,262.205Z" style="fill:rgb(129,45,34);"/>
                    </g>
                </g>
            </g>
        </g>
    </g>
</svg>
