<?xml version="1.0" encoding="UTF-8" standalone="no"?>
<!DOCTYPE svg PUBLIC "-//W3C//DTD SVG 1.1//EN" "http://www.w3.org/Graphics/SVG/1.1/DTD/svg11.dtd">
<svg width="100%" height="100%" viewBox="0 0 559 868" version="1.1" xmlns="http://www.w3.org/2000/svg" xmlns:xlink="http://www.w3.org/1999/xlink" xml:space="preserve" xmlns:serif="http://www.serif.com/" style="fill-rule:evenodd;clip-rule:evenodd;stroke-linejoin:round;stroke-miterlimit:2;">
    <g transform="matrix(1,0,0,1,-2235.47491,-1255.583566)">
        <g transform="matrix(1.027245,0,0,0.976562,899.398797,1189.173562)">
            <g transform="matrix(1.392209,0,0,1.464463,859.566204,-237.570984)">
                <g id="Fondo">
                    <path d="M645.583,252.716C710.983,259.53 732.631,346.742 668.716,378.971C661.662,382.527 650.572,384.552 645.516,384.762C640.712,384.961 638.909,382.923 637.805,387.579C635.098,399 634.26,399.47 637.176,403.727C665.044,444.414 668.091,501.771 670.916,508.328C709.849,598.696 688.262,655.639 683.731,667.592C669.284,705.703 641.027,722.274 640.3,726.463C639.035,733.74 631.271,829.871 567.64,813.048C560.322,811.113 551.796,804.354 550.566,803.379C536.596,792.301 529.873,775.288 527.044,770.633C524.778,765.287 523.841,761.081 520.513,761.046C507.308,760.909 506.592,759.85 505.896,761.715C504.979,764.171 494.489,806.222 457.493,807.275C442.288,807.707 433.054,800.173 429.486,797.529C399.791,775.004 391.425,718.122 388.559,714.444C385.363,710.341 353.057,688.484 347.456,632.493C347.023,627.078 346.12,627.308 341.688,624.091C330.982,614.619 306.638,594.062 321.49,543.497C333.955,501.058 380.823,471.575 381.037,471.192C382.586,468.428 397.412,393.459 461.355,357.239C465.928,354.648 466.405,355.106 467.08,353.313C467.421,352.409 470.115,345.255 470.76,341.803C472.69,337.851 469.705,338.399 464.728,334.116C462.284,332.013 462.401,332.001 459.765,330.088C455.532,326.047 428.038,299.8 443.931,258.68C453.657,233.515 484.928,213.961 516.51,220.454C520.878,221.353 522.033,223.668 529.344,219.231C546.102,209.059 604.449,191.709 641.124,249.729C642.703,252.227 642.724,252.411 645.583,252.716Z" style="fill:rgb(242,239,229);"/>
                    <path d="M329.885,563.543C330.232,561.353 332.463,526.281 372.834,492.907C387.132,481.088 390.968,484.01 393.736,473.563C395.458,467.063 406.098,426.913 431.408,398.422C463.367,362.447 475.168,368.891 477.752,361.594C478.54,359.37 486.716,336.283 486.83,333.528C486.953,330.571 485.418,331.555 479.732,329.026C442.013,312.251 442.815,251.474 483.63,235.821C510.351,225.573 523.192,239.053 528.257,235.171C532.275,232.093 556.998,213.146 590.578,224.278C629.761,237.267 630.845,265.174 636.494,265.044C695.707,263.687 712.733,335.08 671.766,362.9C653.367,375.395 637.752,371.813 630.516,371.075C628.164,370.835 628.536,372.164 622.386,396.472C620.365,404.461 622.54,404.328 626.183,409.713C651.798,447.574 656.749,503.389 656.894,504.453C658.161,513.72 684.828,566.216 680.654,622.511C675.564,691.152 631.805,714.171 628.821,717.748C627.687,719.108 623.535,788.973 593.347,800.134C561.635,811.858 543.332,774.656 541.995,772.234C531.914,753.959 534.146,747.659 527.516,747.907C501.082,748.894 501.018,746.275 497.441,747.326C494.737,748.12 490.983,786.98 464.526,793.601C419.839,804.784 403.247,718.938 401.483,711.505C400.579,707.695 380.331,693.397 370.216,669.623C353.303,629.873 364.477,623.576 356.772,619.037C329.238,602.816 328.909,580.59 329.885,563.543Z" style="fill:rgb(129,45,34);"/>
                    <path d="M501.494,370.098C503.496,370.099 554.868,366.632 604.217,401.889C615.81,410.171 636.803,441.985 644.672,499.477C647.813,522.425 651.458,521.354 658.23,543.582C695.922,667.298 628.62,701.076 618.798,710.814C616.037,713.552 613.132,788.773 583.541,790.847C555.946,792.782 543.192,746.358 539.642,737.431C538.375,734.244 528.04,737.942 509.494,736.598C414.441,729.707 381.668,677.391 374.71,649.443C369.002,626.517 370.599,625.143 372.514,625.4C392.425,628.071 407.056,634.163 460.462,613.402C463.065,612.39 463.988,614.872 471.564,621.429C477.21,626.316 512.853,657.165 559.517,652.699C605.721,648.277 623.218,618.63 631.445,616.283C633.001,615.839 647.805,611.616 649.078,606.377C649.998,602.587 638.136,606.709 637.464,606.873C633.292,607.897 641.497,599.074 644.603,585.518C646.443,577.489 641.873,580.213 641.517,580.52C639.221,582.501 616.468,633.084 562.524,640.673C499.382,649.556 456.997,591.368 439.952,571.119C438.283,569.136 427.889,556.789 413.577,552.3C410.348,551.287 411.927,549.852 414.753,547.887C440.346,530.093 462.457,544.544 516.553,565.359C523.345,567.972 522.271,569.43 529.54,577.462C535.544,584.095 547.818,586.64 555.172,581.099C559.488,577.847 560.063,580.708 565.488,580.307C578.308,579.359 580.26,566.657 580.342,566.425C580.857,564.963 590.131,562.895 591.661,553.527C593.458,542.521 582.887,535.892 584.63,533.598C588.493,528.511 589.241,529.369 606.081,519.015C606.318,518.87 608.247,516.748 603.496,516.698C588.118,516.535 578.774,530.39 574.47,528.57C545.742,516.423 518.667,539.33 505.317,548.23C500.167,551.664 469.23,532.262 444.468,530.957C408.715,529.072 403.84,550.193 398.598,547.298C396.157,545.949 401.215,524.47 401.672,522.526C402.44,519.265 400.051,520.297 399.66,520.711C391.273,529.601 389.215,543.813 388.723,545.6C388.153,547.676 379.079,546.367 372.585,549.68C365.201,553.447 372.123,554.313 372.492,554.302C377.689,554.146 413.158,553.083 432.948,578.145C450.786,600.737 451.306,600.306 452.598,602.446C453.469,603.888 453.262,605.75 433.38,611.051C337.308,636.666 320.68,568.031 362.652,518.631C383.955,493.559 401.654,489.822 403.143,483.416C404.66,476.889 413.979,436.785 438.434,407.445C472.713,366.315 499.125,370.269 501.494,370.098Z" style="fill:rgb(242,239,229);"/>
                    <path d="M503.498,243.135C504.884,243.191 515.93,243.642 520.52,246.475C522.389,247.629 519.004,253.357 518.854,256.496C518.575,262.353 526.241,252.327 526.772,251.737C529.764,248.412 548.404,227.7 579.546,233.246C627.203,241.733 627.606,289.67 627.977,290.08C631.037,293.464 632.699,279.53 632.817,278.535C633.464,273.116 665.845,275.077 678.099,299.706C695.26,334.195 663.977,367.177 633.394,359.929C630.35,359.207 632.983,351.493 633.232,350.416C633.762,348.121 639.736,347.387 642.477,346.44C650.762,343.58 656.686,335.447 649.439,337.304C647.797,337.724 646.184,338.251 644.541,338.668C628.95,342.623 611.974,335.773 603.774,326.26C598.523,320.166 606.906,319.923 611.103,313.234C618.725,301.087 604.03,315.906 584.442,318.078C538.058,323.223 523.518,284.394 522.386,283.716C521.087,282.939 517.611,284.491 524.468,302.513C526.077,306.741 508.018,309.982 493.688,302.188C489.565,299.945 479.503,290.096 481.756,296.442C485.73,307.634 492.037,310.174 493.52,311.483C494.749,312.568 492.244,322.085 489.57,321.218C454.264,309.759 450.711,246.9 503.498,243.135Z" style="fill:rgb(242,239,229);"/>
                    <path d="M487.427,513.92C439.939,502.805 440.8,458.092 439.046,448.623C438.227,444.2 430.547,459.322 430.173,451.514C429.202,431.238 459.798,434.475 451.531,439.543C447.995,441.711 447.866,441.391 447.574,441.596C444.709,443.61 458.576,452.337 473.577,456.19C515.748,467.021 555.335,449.483 556.695,448.994C563.945,446.385 554.923,445.445 553.534,443.477C548.875,436.875 579.724,439.855 579.07,459.514C578.659,471.852 572.164,457.156 571.406,456.631C568.859,454.867 569.873,457.513 568.728,461.567C568.401,462.725 560.711,488.03 541.856,501.987C518.537,519.25 496.971,515.285 487.427,513.92Z" style="fill:rgb(129,45,34);"/>
                    <path d="M493.031,350.361C498.371,334.413 498.201,334.45 503.152,318.385C504.302,314.652 505.625,316.273 509.498,316.524C522.007,317.336 530.008,310.5 533.132,312.975C558.758,333.28 576.73,328.743 590.523,326.995C592.495,326.745 595.192,331.597 598.812,335.172C610,346.223 621.195,347.665 621.78,348.12C623.382,349.367 620.909,356.427 620.871,356.587C612.416,391.384 613.085,394.046 610.437,392.632C605.566,390.032 606.694,388.247 584.534,377.435C534.092,352.825 491.552,360.09 490.808,359.219C490.346,358.679 492.807,351.056 493.031,350.361Z" style="fill:rgb(242,239,229);"/>
                    <path d="M489.433,505.916C488.05,505.603 477.309,504.135 466.89,496.021C460.098,490.73 463.032,488.523 464.186,485.381C466.3,479.628 469.895,484.142 477.5,484.85C488.247,485.851 475.774,482.044 466.699,476.194C461.8,473.035 459.598,461.047 459.809,460.673C460.659,459.16 461.122,460.286 466.618,462.161C470.041,463.329 487.965,469.444 511.507,467.594C542.851,465.131 554.653,457.789 560.527,455.725C563.403,454.715 558.418,468.631 555.558,470.574C542.974,479.122 527.157,482.989 524.542,483.628C512.947,486.463 529.178,488.821 546.533,482.636C555.13,479.573 539.319,494.916 531.352,499.239C511.491,510.014 496.754,506.722 489.433,505.916Z" style="fill:rgb(242,239,229);"/>
                    <path d="M418.145,730.605C417.927,729.877 415.414,721.501 415.414,721.501C414.617,717.96 417.048,721.588 429.479,727.544C459.91,742.126 479.162,744.15 483.607,745.196C488.325,746.306 479.081,764.839 478.3,766.404C469.072,784.905 441.508,803.922 418.145,730.605Z" style="fill:rgb(242,239,229);"/>
                    <path d="M553.491,539.074C544.838,540.131 557.095,543.942 562.481,549.518C581.232,568.93 563.547,572.391 559.848,569.11C559.473,568.778 554.105,550.273 538.57,547.15C532.014,545.833 533.419,549.012 533.704,549.329C533.842,549.482 548.793,557.561 550.633,568.486C552.027,576.76 540.471,576.728 534.943,570.09C530.233,564.434 527.999,559.349 518.489,555.525C516.924,554.896 512.183,554.681 517.101,551.004C525.04,545.067 547.971,531.336 562.548,534.276C586.248,539.056 584.426,557.256 577.422,555.782C575.075,555.288 571.077,540.369 553.491,539.074Z" style="fill:rgb(242,239,229);"/>
                    <path d="M490.505,449.841C469.687,447.535 478.944,431.993 472.329,427.808C464.709,422.988 448.834,423.005 454.727,418.845C459.548,415.443 469.52,419.429 470.11,417.373C471.101,413.914 470.137,413.83 471.216,410.415C475.301,397.484 488.588,398.091 488.816,413.497C488.867,416.91 487.06,418.328 490.412,418.953C491.469,419.15 502.825,421.267 501.524,426.51C500.915,428.962 482.345,421.031 483.18,434.525C483.942,446.835 502.315,440.745 500.153,445.355C498.445,448.997 492.943,450.111 490.505,449.841Z" style="fill:rgb(129,45,34);"/>
                    <path d="M548.437,430.145C535.981,432.8 536.344,433.755 526.601,437.779C521.502,439.885 526.913,431.742 527.2,431.309C528.006,430.097 522.723,413.183 532.817,405.951C537.912,402.3 545.616,405.936 545.838,416.491C545.942,421.416 545.396,421.629 546.456,422.561C546.964,423.008 559.243,421.959 564.233,426.762C567.6,430.003 562.828,428.869 548.437,430.145Z" style="fill:rgb(129,45,34);"/>
                    <path d="M537.485,379.959C561.157,382.722 561.058,407.85 552.037,398.969C538.88,386.018 532.035,395.842 529.454,388.517C526.802,380.993 535.916,379.776 537.485,379.959Z" style="fill:rgb(129,45,34);"/>
                    <path d="M496.487,525.825C510.024,525.431 521.103,520.319 513.41,527.403C498.942,540.726 469.647,527.809 469.908,519.483C470.024,515.757 477.474,520.846 480.614,522.26C488.671,525.888 495.894,525.763 496.487,525.825Z" style="fill:rgb(129,45,34);"/>
                    <path d="M465.672,393.413C464.19,378.192 497.968,373.168 492.514,386.506C490.527,391.364 483.402,386.107 473.6,391.674C471.633,392.791 468.547,395.845 465.672,393.413Z" style="fill:rgb(129,45,34);"/>
                </g>
            </g>
        </g>
    </g>
</svg>
