<?xml version="1.0" encoding="UTF-8" standalone="no"?>
<!DOCTYPE svg PUBLIC "-//W3C//DTD SVG 1.1//EN" "http://www.w3.org/Graphics/SVG/1.1/DTD/svg11.dtd">
<svg width="100%" height="100%" viewBox="0 0 603 810" version="1.1" xmlns="http://www.w3.org/2000/svg" xmlns:xlink="http://www.w3.org/1999/xlink" xml:space="preserve" xmlns:serif="http://www.serif.com/" style="fill-rule:evenodd;clip-rule:evenodd;stroke-linejoin:round;stroke-miterlimit:2;">
    <g transform="matrix(1,0,0,1,-3313.821971,-1283.482579)">
        <g transform="matrix(1.027245,0,0,0.976562,2000.073407,1188.437197)">
            <g transform="matrix(0.902524,0,0,0.949364,1169.386774,-19.643743)">
                <g id="Fondo" transform="matrix(1.09375,0,0,1.09375,-23.639276,38.709172)">
                    <path d="M593.412,144.534C617.247,185.481 593.055,222.032 577.113,235.013C559.429,249.412 543.831,249.089 543.367,253.486C541.889,267.485 540.506,314.211 540.35,319.495C540.259,322.569 541.607,321.996 554.384,335.675C556.337,337.707 556.166,337.779 558.198,339.783C559.929,341.701 559.924,341.683 560.068,341.855C601.276,390.991 609.977,451.149 611.586,458.478C612.396,462.167 614.651,461.999 626.579,471.316C657.502,493.229 657.848,506.915 663.371,505.159C665.387,504.518 674.037,503.916 679.506,504.449C704.19,506.854 708.238,523.452 709.312,526.524C709.799,528.21 712.68,538.185 709.364,548.455C703.171,567.637 691.904,566.088 693.06,575.566C693.599,579.978 697.02,608.009 683.084,630.229C663.488,661.475 639.179,659.632 635.759,661.909C633.932,663.124 627.094,719.911 577.176,760.099C569.584,766.211 574.002,768.818 561.999,794.761C557.835,803.762 567.947,802.609 572.012,817.643C578.669,842.272 558.04,863.955 502.46,856.851C452.047,850.407 455.689,836.233 451.38,813.499C449.359,802.839 448.904,797.823 444.458,798.189C404.386,801.488 394.734,797.218 391.42,798.261C388.532,799.171 384.373,829.011 382.856,834.608C381.72,838.796 378.054,852.321 333.453,857.016C261.32,864.609 265.732,825.662 265.642,824.446C268.594,800.872 280.069,803.085 277.022,796.716C271.813,785.827 271.263,786.076 261.583,758.462C257.936,754.892 257.531,755.502 253.809,752.124C246.242,745.255 243.921,742.662 242.309,741.995C237.209,739.885 236.89,746.817 211.5,742.5C205.043,741.402 183.255,759.033 153.528,747.377C126.46,736.668 132.175,710.845 135.308,704.414C142.499,689.656 155.962,682.502 159.284,680.248C161.086,679.025 158.362,674.606 155.875,665.398C123.945,547.193 216.188,476.274 223.296,470.273C226.959,467.18 231.533,410.103 265.182,359.293C297.445,310.574 324.246,306.609 324.477,299.498C326.084,250.017 326.196,250.085 325.849,245.801C328.339,238.375 323.479,239.897 308.303,229.92C265.178,206.113 265.418,126.588 319.68,104.932C343.328,95.494 367.25,103.468 372.499,104.511C376.712,105.348 393.4,80.488 432.509,77.615C489.701,73.413 511.666,107.559 515.625,110.302C517.978,111.931 567.489,100.095 593.412,144.534Z" style="fill:rgb(242,239,229);"/>
                    <path d="M306.539,843.048C300.434,842.073 278.757,841.194 280.112,824.455C280.812,815.812 293.589,806.283 295.16,805.111C298.967,802.272 285.746,790.935 276.12,754.591C274.088,746.92 268.911,748.11 255.529,733.473C250.105,727.54 251.06,723.376 244.319,726.048C220.249,735.586 213.591,723.916 205.671,727.869C168.191,746.578 146.451,732.353 146.519,718.5C146.613,699.035 176.909,687.292 177.595,686.596C179.499,684.662 171.073,671.018 166.867,649.432C146.236,543.538 234.737,479.148 237.11,476.2C239.247,473.546 249.789,380.55 307.069,332.029C332.658,310.353 338.599,314.858 339.001,306.484C339.293,300.406 342.34,237.007 341.839,230.471C341.516,226.26 323.158,226.923 307.601,211.4C274.771,178.643 295.147,120.534 337.564,114.902C358.407,112.136 372.601,120.967 375.58,122.286C379.931,124.213 395.701,90.963 442.499,91.267C488.645,91.568 506.595,122.659 508.629,125.397C510.864,128.405 511.535,126.36 517.59,124.883C570.066,112.074 612.502,175.705 574.243,218.279C554.297,240.476 530.862,235.662 530.148,240.435C530.145,240.453 525.73,319.354 525.531,325.5C525.371,330.469 532.558,333.477 540.056,341.899C579.641,386.361 588.234,415.833 598.774,466.447C600.196,473.274 613.622,478.819 625.619,489.361C646.905,508.067 647.255,511.573 653.87,520.089C655.414,522.077 685.093,510.243 694.548,528.474C703.86,546.429 678.287,562.86 677.664,563.63C675.974,565.722 684.78,590.18 675.198,613.375C659.336,651.774 624.738,647.054 623.781,647.833C622.272,649.062 617.226,712.509 565.788,749.899C556.626,756.559 563.253,763.563 541.939,801.733C540.202,804.842 545.264,805.892 549.316,809.705C571.828,830.894 553.382,850.149 498.507,841.457C464.357,836.048 468.309,827.714 467.16,819.546C464.612,801.442 458.747,783.489 457.31,782.871C450.091,779.769 443.527,790.725 382.5,782.501C379.159,782.05 378.475,788.548 376.907,794.611C368.432,827.377 371.945,829.377 366.295,833.198C349.577,844.505 311.382,843.212 306.539,843.048Z" style="fill:rgb(129,45,34);"/>
                    <path d="M288.356,373.407C289.416,371.846 304.766,345.923 335.8,326.979C357.249,313.885 476.057,306.527 515.236,336.839C575.092,383.149 586.459,472.981 586.568,473.482C588.956,484.419 615.035,491.835 637.924,521.152C640.131,523.978 642.635,525.708 637.302,528.026C604.711,542.192 604.608,541.945 600.525,542.64C589.846,544.459 593.553,537.545 586.266,528.683C577.977,518.603 572.692,514.938 561.505,517.522C550.142,520.147 546.404,521.011 423.589,564.751C256.427,624.286 254.175,622.018 249.757,629.696C246.447,635.448 246.729,628.306 246.649,627.483C241.887,578.68 253.395,559.953 252.197,552.534C250.414,541.485 236.668,562.559 234.53,602.502C232.608,638.387 244.403,671.258 247.761,676.316C249.095,678.325 253.442,678.057 255.688,692.47C259.135,714.581 226.089,723.088 212.816,715.008C195.769,704.631 147.763,622.469 200.026,537.219C216.898,509.697 237.84,493.843 247.39,485.384C256.029,477.732 250.759,434.579 288.356,373.407Z" style="fill:rgb(242,239,229);"/>
                    <path d="M287.778,747.413C285.11,739.265 283.281,740.479 273.953,732.019C269.685,728.148 262.632,719.479 261.705,718.34C259.004,715.019 262.631,712.397 263.507,712.435C264.563,712.48 272.764,727.159 280.451,730.603C288.147,734.052 288.66,730.757 552.407,639.229C577.98,630.355 578.541,629.219 582.809,632.031C599.827,643.241 603.974,642.576 609.322,644.815C610.258,645.207 611.409,645.69 608.299,657.453C589.432,728.812 553.366,737.788 550.404,747.469C532.554,805.812 525.185,803.23 525.35,808.505C525.413,810.558 542.967,814.216 545.763,824.441C548.729,835.286 480.198,829.272 479.307,821.532C477.252,803.673 477.675,803.583 470.997,781.374C469.465,776.278 493.541,771.755 490.235,764.631C489.197,762.394 481.258,764.32 480.501,764.504C393.022,785.727 353.958,757.561 348.668,763.626C344.485,768.421 364.847,777.376 365.402,777.669C371.343,780.809 363.317,782.714 359.192,820.477C358.756,824.462 354.873,825.086 342.501,827.505C324.389,831.047 288.934,832.681 292.788,823.618C296.887,813.978 313.609,810.713 313.538,808.498C313.32,801.679 302.035,802.143 287.778,747.413Z" style="fill:rgb(242,239,229);"/>
                    <path d="M515.435,544.324C521.378,542.239 549.723,532.405 555.483,530.449C560.971,528.586 564.323,525.77 563.776,531.524C562.762,542.187 566.636,553.891 566.771,554.437C567.634,557.955 554.815,566.357 552.833,580.557C549.07,607.514 569.248,618.19 568.667,621.566C568.429,622.947 567.868,622.354 563.593,623.775C521.121,637.887 291.105,718.969 288.498,719.486C275.853,721.993 261.629,677.693 258.942,664.412C252.759,633.856 260.971,634.222 266.646,631.86C267.44,631.529 486.827,554.155 515.435,544.324Z" style="fill:rgb(242,239,229);"/>
                    <path d="M334.375,128.035C337.207,127.436 355.999,123.466 370.065,133.997C373.596,136.641 366.216,151.086 373.36,147.253C376.551,145.541 403.791,91.743 460.424,105.807C499.035,115.394 505.789,150.397 508.698,152.104C514.909,155.747 512.087,139.628 514.447,138.407C532.699,128.963 575.168,143.208 577.001,177.535C579.229,219.259 532.861,230.183 531.344,225.559C531.165,225.015 531.996,211.362 532.173,210.424C532.894,206.601 553.093,201.577 547.913,197.051C545.774,195.182 538.965,197.94 538.384,198.097C534.962,199.022 514.151,204.646 494.798,190.108C488.128,185.098 493.235,183.862 497.113,179.188C498.916,177.016 498.247,171.336 489.366,176.229C465.562,189.343 459.3,187.831 445.45,189.352C442.896,189.633 444.107,192.9 451.497,194.513C469.311,198.4 478.994,190.804 482.222,193.808C499.361,209.751 519.502,208.876 520.609,212.465C521.044,213.874 518.009,259.261 517.789,261.542C517.448,265.075 515.866,263.533 512.496,262.514C508.473,261.296 502.287,261.13 502.382,256.5C502.439,253.78 503.027,225.28 502.529,222.49C500.827,212.951 495.8,245.962 493.52,255.507C492.976,257.787 489.597,256.577 480.463,254.689C475.375,253.637 474.27,253.709 473.972,248.487C472.188,217.171 473.064,217.149 472.584,214.468C472.536,214.202 470.546,211.852 469.944,216.575C469.596,219.301 466.042,247.182 464.489,250.494C463.285,253.063 441.098,249.161 440.519,248.487C439.539,247.345 439.96,209.702 438.541,206.469C436.945,202.831 435.882,210.166 435.826,210.554C430.733,245.686 432.646,248.669 428.499,248.678C408.325,248.721 408.21,249.069 406.751,248.119C405.044,247.008 404.88,210.655 403.357,209.673C401.22,208.295 402.01,210.547 400.532,220.505C396.556,247.289 397.093,248.429 394.546,248.805C394.092,248.872 378.754,249.948 378.443,249.899C377.047,249.68 375.758,249.201 373.874,215.415C373.484,208.428 371.301,215.245 371.283,215.451C371.032,218.278 368.494,246.912 366.745,250.631C366.015,252.184 353.062,255.531 352.518,253.494C352.041,251.71 354.35,210.259 354.559,206.502C354.8,202.178 356.226,202.883 360.435,202.135C375.047,199.541 391.148,189.397 388.156,185.784C387.218,184.652 380.947,186.875 380.35,187.087C342.13,200.638 332.826,183.576 327.399,185.286C321.486,187.148 337.632,197.296 338.789,198.024C346.386,202.798 343.788,204.667 342.791,213.56C342.494,216.21 339.248,215.418 331.508,212.477C295.461,198.781 289.58,143.271 334.375,128.035Z" style="fill:rgb(242,239,229);"/>
                    <path d="M709.312,526.524C709.484,526.208 714.127,528.287 715.46,529.542C727.345,540.732 728.152,554.324 726.14,562.418C721.718,580.21 708.216,584.7 708.858,589.443C709.288,592.626 711.955,612.353 706.601,629.53C691.801,677.011 652.685,676.809 651.447,677.411C649.714,678.254 646.592,715.297 617.09,752.179C599.197,774.549 593.027,770.572 589.034,782.344C579.363,810.849 583.506,825.286 584.512,825.423C589.513,826.107 660.444,835.805 642.447,850.437C599.181,885.616 243.217,882.984 201.559,851.418C185.953,839.592 219.994,832.17 224.392,831.029C227.627,830.189 251.273,824.054 265.642,824.446C265.732,825.662 261.32,864.609 333.453,857.016C378.054,852.321 381.72,838.796 382.856,834.608C384.373,829.011 388.532,799.171 391.42,798.261C394.734,797.218 404.386,801.488 444.458,798.189C448.904,797.823 449.359,802.839 451.38,813.499C455.689,836.233 452.047,850.407 502.46,856.851C558.04,863.955 578.669,842.272 572.012,817.643C567.947,802.609 557.835,803.762 561.999,794.761C574.002,768.818 569.584,766.211 577.176,760.099C627.094,719.911 633.932,663.124 635.759,661.909C639.179,659.632 663.488,661.475 683.084,630.229C697.02,608.009 693.599,579.978 693.06,575.566C691.904,566.088 703.171,567.637 709.364,548.455C712.68,538.185 709.799,528.21 709.312,526.524Z" style="fill:rgb(196,190,171);"/>
                    <path d="M354.445,266.326C420.627,248.638 512.008,271.625 516.126,275.894C517.698,277.523 514.209,317.132 514.111,317.293C512.263,320.332 453.504,293.252 360.559,307.903C353.639,308.994 349.848,312.433 350.193,305.479C351.897,271.11 349.009,269.16 354.445,266.326Z" style="fill:rgb(242,239,229);"/>
                    <path d="M459.301,481.299C421.263,515.593 365.848,493.432 357.363,449.527C355.751,441.185 349.36,451.358 342.48,446.524C336.035,441.995 353.953,438.384 358.033,431.227C361.839,424.551 360.824,423.588 364.619,421.777C367.244,420.524 370.289,423.398 369.753,426.533C369.225,429.62 367.332,431.656 373.558,433.268C419.798,445.244 464.345,433.476 464.928,430.606C464.987,430.315 462.952,422.153 468.461,422.791C474.635,423.507 470.408,432.696 485.57,439.337C491.455,441.914 492.097,441.162 493.293,443.582C494.111,445.238 492.36,450.088 483.588,448.1C478.732,447 476.969,444.191 476.054,448.391C473.132,461.801 470.6,468.988 459.301,481.299Z" style="fill:rgb(129,45,34);"/>
                    <path d="M565.079,595.64C557.661,567.548 585.618,557.638 594.499,557.328C619.324,556.46 628.64,590.407 630.566,591.382C637.494,594.888 631.798,578.289 635.493,577.474C649.803,574.32 649.751,574.422 663.613,569.93C668.46,568.36 667.576,586.984 667.505,588.5C664.208,657.978 582.274,637.739 565.079,595.64Z" style="fill:rgb(242,239,229);"/>
                    <path d="M593.412,144.534C593.412,144.534 596.407,145.189 600.524,149.477C629.117,179.253 619.744,218.907 607.111,237.2C589.976,262.011 565.918,266.748 560.492,268.48C557.738,269.36 557.513,333.392 554.384,335.675C541.607,321.996 540.259,322.569 540.35,319.495C540.506,314.211 541.889,267.485 543.367,253.486C543.831,249.089 559.429,249.412 577.113,235.013C593.055,222.032 617.247,185.481 593.412,144.534Z" style="fill:rgb(196,190,171);"/>
                    <path d="M153.528,747.377C183.255,759.033 205.043,741.402 211.5,742.5C236.89,746.817 237.209,739.885 242.309,741.995C243.921,742.662 246.242,745.255 253.809,752.124C257.531,755.502 257.936,754.892 261.583,758.462C258.755,759.774 241.681,761.746 231.456,759.762C222.793,758.08 222.9,759.76 214.482,762.445C166.163,777.858 153.375,747.864 153.528,747.377Z" style="fill:rgb(196,190,171);"/>
                    <path d="M683.38,542.433C680.64,546.141 669.634,561.031 630.49,565.31C626.879,565.705 626.525,557.759 615.701,551.211C612.809,549.461 616.072,548.912 631.341,542.127C635.518,540.27 670.801,523.399 682.58,531.395C686.789,534.251 683.72,541.616 683.38,542.433Z" style="fill:rgb(242,239,229);"/>
                    <path d="M394.457,447.78C454.37,454.827 467.401,434.851 464.417,444.48C463.641,446.982 464.538,459.528 428.502,462.518C424.445,462.854 374.427,465.279 367.783,447.388C367.635,446.991 365.551,441.378 369.523,442.379C379.378,444.865 379.199,445.358 394.457,447.78Z" style="fill:rgb(242,239,229);"/>
                    <path d="M558.198,339.783C560.109,337.712 597.312,380.167 618.046,435.656C624.603,453.205 626.637,471.168 626.579,471.316C614.651,461.999 612.396,462.167 611.586,458.478C609.977,451.149 601.276,390.991 560.068,341.855C559.924,341.683 559.929,341.701 558.198,339.783Z" style="fill:rgb(196,190,171);"/>
                    <path d="M459.205,404.653C451.721,389.314 461.168,368.578 473.442,372.702C497.161,380.672 478.138,434.653 459.205,404.653Z" style="fill:rgb(129,45,34);"/>
                    <path d="M352.256,400.569C346.174,371.145 366.614,365.535 374.122,376.761C388.781,398.682 362.678,429.723 352.256,400.569Z" style="fill:rgb(129,45,34);"/>
                    <path d="M159.474,713.483C161.383,711 164.332,706.491 174.648,700.775C184.161,695.504 184.84,698.399 186.192,700.678C196.238,717.608 197.846,716.794 197.86,718.498C197.897,722.792 148.478,733.856 159.474,713.483Z" style="fill:rgb(242,239,229);"/>
                    <path d="M442.355,481.182C436.916,483.239 419.743,492.125 395.656,483.08C392.821,482.015 384.338,479.65 391.628,475.726C411.858,464.838 451.493,475.721 444.33,480.287C443.72,480.675 442.965,480.794 442.355,481.182Z" style="fill:rgb(242,239,229);"/>
                    <path d="M347.336,362.289C332.094,373.037 338.12,343.657 362.466,342.095C379.969,340.972 381.729,354.766 372.491,354.727C359.502,354.672 357.818,354.378 347.336,362.289Z" style="fill:rgb(129,45,34);"/>
                    <path d="M489.462,363.551C480.042,356.649 476.012,353.303 461.481,354.143C454.048,354.572 456.011,343.188 468.542,341.957C493.519,339.502 504.626,373.583 489.462,363.551Z" style="fill:rgb(129,45,34);"/>
                    <path d="M410.425,395.146C411.173,395.042 417.997,394.099 419.569,397.462C422.327,403.368 409.69,399.473 408.229,406.447C406.29,415.694 420.326,413.931 421.531,413.779C427.555,413.023 426.19,420.306 416.475,421.269C395.816,423.317 392.018,400.516 410.425,395.146Z" style="fill:rgb(129,45,34);"/>
                    <path d="M578.237,534.727C578.849,535.604 585.957,545.782 583.293,547.101C575.905,550.76 575.365,549.314 575.132,548.69C574.796,547.794 571.238,527.261 576.403,532.608C577.052,533.28 577.588,534.055 578.237,534.727Z" style="fill:rgb(237,231,217);"/>
                </g>
            </g>
        </g>
    </g>
</svg>
