<?xml version="1.0" encoding="UTF-8" standalone="no"?>
<!DOCTYPE svg PUBLIC "-//W3C//DTD SVG 1.1//EN" "http://www.w3.org/Graphics/SVG/1.1/DTD/svg11.dtd">
<svg width="100%" height="100%" viewBox="0 0 603 458" version="1.1" xmlns="http://www.w3.org/2000/svg" xmlns:xlink="http://www.w3.org/1999/xlink" xml:space="preserve" xmlns:serif="http://www.serif.com/" style="fill-rule:evenodd;clip-rule:evenodd;stroke-linejoin:round;stroke-miterlimit:2;">
    <g transform="matrix(1,0,0,1,-15770.434663,-8805.144846)">
        <g transform="matrix(1.95055,0,0,2.756375,-7265.768949,-6854.068498)">
            <g transform="matrix(2.300726,0,0,1.62811,10031.6804,4869.119067)">
                <g transform="matrix(1,0,0,1,54.644226,1.259065)">
                    <path d="M736.497,538.776C734.478,538.704 731.169,538.935 726.17,534.876C722.874,532.2 722.673,531.865 722.468,531.522C719.41,526.413 718.893,523.228 718.767,522.455C717.309,513.472 720.212,509.507 721.254,507.389C721.887,506.1 723.259,502.142 730.621,498.757C735.002,496.743 735.24,497.734 766.5,497.549C771.86,497.518 803.795,497.329 833.499,497.623C844.397,497.731 848.268,504.404 850.984,509.268C852.518,512.018 853.14,519.42 851.718,525.562C851.517,526.43 849.441,531.089 847.167,533.124C845.032,535.035 844.027,535.691 843.732,535.884C838.825,539.09 836.583,538.744 835.51,538.768C833.12,538.821 752.631,538.793 736.497,538.776Z" style="fill:rgb(250,151,43);"/>
                </g>
                <g transform="matrix(1,0,0,1,54.644226,1.259065)">
                    <path d="M751.5,558.105C758.222,558.108 832.954,558.136 835.521,558.222C839.411,558.352 840.849,559.145 844.494,561.508C847.685,563.576 852.944,570.216 852.51,579.501C852.146,587.306 851.279,587.143 849.575,590.536C847.859,593.955 841.737,598.797 837.47,599.175C834.239,599.461 748.796,599.195 739.499,599.328C734.679,599.397 730.036,599.831 723.723,593.287C722.471,591.989 722.291,592.125 721.556,590.471C720.556,588.218 719.038,587.635 718.394,579.508C717.923,573.561 720.644,569.078 721.123,568.289C721.276,568.036 722.136,565.786 723.887,563.925C724.308,563.478 727.822,559.578 732.517,558.576C734.002,558.259 734.659,558.118 751.5,558.105Z" style="fill:rgb(250,151,43);"/>
                </g>
            </g>
        </g>
    </g>
</svg>
