<?xml version="1.0" encoding="UTF-8" standalone="no"?>
<!DOCTYPE svg PUBLIC "-//W3C//DTD SVG 1.1//EN" "http://www.w3.org/Graphics/SVG/1.1/DTD/svg11.dtd">
<svg width="100%" height="100%" viewBox="0 0 446 644" version="1.1" xmlns="http://www.w3.org/2000/svg" xmlns:xlink="http://www.w3.org/1999/xlink" xml:space="preserve" xmlns:serif="http://www.serif.com/" style="fill-rule:evenodd;clip-rule:evenodd;stroke-linejoin:round;stroke-miterlimit:2;">
    <g transform="matrix(1,0,0,1,-14523.52069,-8711.832824)">
        <g transform="matrix(1.95055,0,0,2.756375,-7265.768949,-6854.068498)">
            <g transform="matrix(2.300726,0,0,1.62811,9433.51617,5375.934371)">
                <path d="M845.508,254.51C840.667,258.725 840.774,258.82 835.857,262.943C835.728,263.05 834.922,263.779 834.841,263.853C833.835,264.761 826.466,271.423 822.18,275.108C818.023,278.681 811.59,284.73 810.534,285.538C808.705,286.937 805.482,290.235 803.207,292.128C802.185,292.977 791.913,301.928 789.873,303.893C788.42,305.292 784.633,310.573 774.531,310.089C768.775,309.814 764.512,306.661 763.774,306.115C751.198,296.814 754.525,281.16 760.399,275.392C760.962,274.84 781.79,256.522 786.368,252.349C786.862,251.899 790.452,248.867 792.253,247.224C798.525,241.505 798.586,241.6 799.129,241.103C802.29,238.205 800.086,237.32 797.717,235.249C794.782,232.682 794.68,232.818 791.824,230.158C785.674,224.43 773.627,214.011 768.59,209.402C760.273,201.793 757.101,200.322 755.483,192.503C754.713,188.779 755.311,183.536 755.967,181.653C757.535,177.152 759.274,175.146 759.688,174.668C763.445,170.335 768.74,165.738 778.466,166.788C785.411,167.537 789.461,172.751 791.553,174.441C791.904,174.725 791.756,174.883 795.695,178.276C799.724,181.746 799.655,181.8 803.712,185.262C804.359,185.814 804.252,185.915 811.58,192.407C811.697,192.51 820.238,199.866 828.931,208.028C829.469,208.533 829.553,208.432 835.922,214.033C848.062,224.71 850.242,225.192 852.734,231.4C853.838,234.15 856.095,239.025 851.715,247.611C850.342,250.302 846.068,254.023 845.508,254.51Z" style="fill:rgb(17,179,232);"/>
            </g>
        </g>
    </g>
</svg>
