<?xml version="1.0" encoding="UTF-8" standalone="no"?>
<!DOCTYPE svg PUBLIC "-//W3C//DTD SVG 1.1//EN" "http://www.w3.org/Graphics/SVG/1.1/DTD/svg11.dtd">
<svg width="100%" height="100%" viewBox="0 0 459 675" version="1.1" xmlns="http://www.w3.org/2000/svg" xmlns:xlink="http://www.w3.org/1999/xlink" xml:space="preserve" xmlns:serif="http://www.serif.com/" style="fill-rule:evenodd;clip-rule:evenodd;stroke-linejoin:round;stroke-miterlimit:2;">
    <g transform="matrix(1,0,0,1,-15080.968177,-8681.349259)">
        <g transform="matrix(1.95055,0,0,2.756375,-7265.768949,-6854.068498)">
            <g transform="matrix(2.300726,0,0,1.62811,10104.796209,4863.589419)">
                <path d="M675.487,475.537C679.955,477.408 681.737,478.344 685.737,483.309C685.847,483.445 689.093,488.392 689.502,493.5C690.009,499.835 687.91,503.002 687.33,504.414C686.089,507.431 684.704,509.027 677.591,515.593C674.723,518.241 674.627,518.112 671.733,520.736C669.85,522.443 668.8,523.633 664.367,527.336C663.407,528.139 663.637,528.366 652.841,537.917C652.208,538.477 652.314,538.586 645.126,545.128C641.266,548.64 641.219,548.982 641.155,549.447C640.958,550.881 641.944,551.318 645.23,554.745C647.232,556.834 650.045,559.109 651.472,560.529C652.004,561.06 655.463,563.684 658.415,566.589C659.424,567.582 659.64,567.312 671.548,578.452C673.371,580.158 673.635,579.837 675.361,581.651C679.341,585.835 681.546,586.373 685.133,590.811C690.977,598.041 689.699,605.829 689.233,608.451C688.712,611.382 686.28,615.739 685.059,617.068C679.415,623.213 674.016,624.907 668.493,624.803C664.513,624.728 662.634,624.304 658.425,621.608C656.286,620.238 653.878,617.508 652.475,616.531C650.833,615.386 650.707,614.702 649.432,613.589C648.919,613.141 648.876,613.196 642.936,608.087C641.825,607.131 639.984,605.462 639.73,605.231C638.43,604.053 636.977,603.024 632.822,599.164C626.269,593.077 626.383,592.973 624.446,591.557C623.76,591.055 623.955,590.833 616.47,584.536C615.992,584.133 616.104,584.013 610.691,579.268C604.841,574.139 604.98,574.015 599.167,568.875C598.349,568.152 597.756,568.031 595.873,566.151C593.401,563.684 592.741,563.964 590.042,559.792C589.218,558.52 588.086,555.627 587.841,554.44C587.591,553.226 587.378,548.777 587.848,546.563C588.464,543.658 590.881,538.995 593.661,536.712C594.058,536.387 594.016,536.343 598.565,532.574C601.298,530.31 604.525,526.748 607.923,523.957C613.997,518.967 614.698,517.419 618.897,513.918C623.185,510.345 625.796,507.338 628.769,504.86C629.251,504.459 629.228,504.439 634.581,499.592C637.227,497.197 637.307,497.316 638.358,496.347C639.649,495.157 639.443,494.986 640.763,493.794C657.664,478.524 657.299,477.947 661.342,476.122C663.111,475.324 667.768,473.33 675.487,475.537Z" style="fill:rgb(250,150,43);"/>
            </g>
        </g>
    </g>
</svg>
