<?xml version="1.0" encoding="UTF-8" standalone="no"?>
<!DOCTYPE svg PUBLIC "-//W3C//DTD SVG 1.1//EN" "http://www.w3.org/Graphics/SVG/1.1/DTD/svg11.dtd">
<svg width="100%" height="100%" viewBox="0 0 599 659" version="1.1" xmlns="http://www.w3.org/2000/svg" xmlns:xlink="http://www.w3.org/1999/xlink" xml:space="preserve" xmlns:serif="http://www.serif.com/" style="fill-rule:evenodd;clip-rule:evenodd;stroke-linecap:round;stroke-linejoin:round;stroke-miterlimit:1.5;">
    <g transform="matrix(1,0,0,1,-268.599218,-270.766191)">
        <g transform="matrix(1,0,0,1,-1260.161396,0)">
            <g transform="matrix(1,0,0,1,0,-20.621562)">
                <g transform="matrix(1.173828,0,0,1.173828,1231.245826,0.117216)">
                    <path d="M457.22,353.51C456.526,354.484 456.792,354.883 454.549,355.645C451.79,356.582 451.793,356.579 451.554,356.661C449.823,357.256 449.791,356.879 449.136,356.794C449.03,356.514 448.805,356.735 448.702,356.461C448.675,356.389 448.672,356.382 448.645,355.492C448.332,345.223 447.2,338.972 446.689,335.47C444.621,321.298 437.94,306.92 437.244,305.634C434.075,299.78 434.301,299.672 432.733,297.358C426.84,288.66 421.64,281.612 411.714,274.199C409.671,272.674 408.319,271.124 407.234,272.184C406.051,273.339 407.182,278.712 401.835,284.795C397.794,289.393 395.962,289.907 393.72,290.981C382.119,296.542 371.909,290.903 368.589,288.379C356.266,279.009 357.363,262.355 367.673,253.708C374.692,247.822 383.455,247.825 386.523,248.353C395.888,249.966 399.753,254.112 401.311,255.683C404.983,259.384 404.548,260.636 406.498,261.504C409.191,262.701 409.243,262.559 411.75,264.1C421.561,270.13 426.776,276.153 428.751,278.266C432.872,282.674 432.656,282.834 436.357,287.605C439.344,291.456 440.711,294.335 442.204,296.674C447.81,305.457 457.208,330.227 457.22,353.51Z" style="fill:rgb(53,51,47);"/>
                </g>
                <g transform="matrix(1.173828,0,0,1.173828,1231.245826,0.117216)">
                    <path d="M560.694,353.476C560.049,343.367 563.531,326.203 567.794,313.598C570.9,304.411 577.933,290.985 585.25,282.295C591.632,274.715 593.668,273.393 594.569,272.577C603.506,264.482 608.492,262.861 610.223,262.002C611.469,261.383 611.512,260.224 614.08,257.167C618.411,252.009 621.804,250.733 624.577,249.719C633.458,246.469 643.742,248.726 650.108,254.916C655.914,260.562 657.846,269.111 656.661,274.531C654.285,285.398 646.749,289.288 645.736,289.9C631.646,298.416 616.329,289.926 612.292,281.604C608.799,274.402 610.344,272.904 608.478,272.868C607.377,272.847 607.489,273.202 604.421,275.39C597.531,280.301 589.111,290.418 585.11,297.282C578.208,309.125 577.043,313.696 576.369,315.449C569.468,333.398 569.037,353.741 569.102,356.457C568.299,356.379 568.309,356.551 567.5,356.473C567.425,356.466 567.333,356.457 566.594,356.213C561.303,354.468 561.412,354.208 560.694,353.476Z" style="fill:rgb(53,51,47);"/>
                </g>
                <g transform="matrix(1.339335,-0.422995,0.428011,1.355215,801.457599,-161.762159)">
                    <ellipse cx="387.201" cy="747.685" rx="81.881" ry="44.48" style="fill:rgb(236,240,239);"/>
                </g>
                <g transform="matrix(1.339335,0.422995,0.428011,-1.355215,1177.174053,1537.217117)">
                    <ellipse cx="387.201" cy="747.685" rx="81.881" ry="44.48" style="fill:rgb(236,240,239);"/>
                </g>
                <g transform="matrix(1.296939,0,0,1.074813,1037.016662,-101.560369)">
                    <ellipse cx="609.827" cy="782.621" rx="118.861" ry="167.693" style="fill:rgb(52,50,47);"/>
                </g>
                <g transform="matrix(1,0,0,1,1228.757764,-30.464714)">
                    <path d="M724.771,874.54C724.771,874.54 731.745,863.789 737.742,850.311C742.045,840.64 746.358,823.762 746.358,823.762C593.366,883.739 452.129,824.337 452.129,824.337C452.129,824.337 456.529,840.418 460.688,850.316C465.289,861.266 473.537,874.529 473.537,874.529C473.537,874.529 587.16,921.622 724.771,874.54Z" style="fill:rgb(251,194,38);"/>
                </g>
                <g transform="matrix(1,0,0,1,1228.757764,-30.464714)">
                    <path d="M753.052,759.312C753.052,759.312 753.016,753.289 751.007,738.544C749.602,728.229 747.368,720.337 747.368,720.337C589.575,788.444 450.954,720.512 450.954,720.512C450.954,720.512 448.947,728.029 447.154,739.428C445.875,747.559 445.302,759.013 445.302,759.013C445.302,759.013 588.065,834.134 753.052,759.312Z" style="fill:rgb(251,194,38);"/>
                </g>
                <g transform="matrix(-1.542833,-0,0,-0.936387,2763.684104,1820.493148)">
                    <path d="M606.52,929.784C606.52,929.784 620.62,953.002 620.62,962.952C620.62,975.774 614.302,986.183 606.52,986.183C598.738,986.183 592.421,975.774 592.421,962.952C592.421,953.002 606.52,929.784 606.52,929.784Z" style="fill:rgb(52,50,47);"/>
                </g>
                <g transform="matrix(1.119048,0,0,1.119469,1155.428992,-113.663204)">
                    <ellipse cx="600.953" cy="567.525" rx="155.679" ry="128.877" style="fill:rgb(251,194,38);"/>
                </g>
                <g transform="matrix(1.208008,0,0,0.923077,1080.858298,13.80169)">
                    <ellipse cx="707.704" cy="581.294" rx="31.621" ry="36.924" style="fill:rgb(251,38,99);fill-opacity:0.5;"/>
                </g>
                <g transform="matrix(1.130542,0,0,1.08,1133.231925,-77.491831)">
                    <ellipse cx="709.936" cy="581.363" rx="19.422" ry="15.547" style="fill:rgb(185,26,69);fill-opacity:0.31;"/>
                </g>
                <g transform="matrix(1.208008,0,0,0.923077,865.165777,13.80169)">
                    <ellipse cx="707.704" cy="581.294" rx="31.621" ry="36.924" style="fill:rgb(251,38,99);fill-opacity:0.5;"/>
                </g>
                <g transform="matrix(1.130542,0,0,1.08,917.539404,-77.491831)">
                    <ellipse cx="709.936" cy="581.363" rx="19.422" ry="15.547" style="fill:rgb(210,54,72);fill-opacity:0.31;"/>
                </g>
                <g transform="matrix(1.863742,0,0,1.026483,777.732417,-45.713415)">
                    <ellipse cx="521.188" cy="539.671" rx="9.268" ry="21.676" style="fill:rgb(52,50,47);"/>
                </g>
                <g transform="matrix(1.232143,0,0,1.097561,1109.572086,-82.664213)">
                    <ellipse cx="514.011" cy="529.02" rx="4.115" ry="6.025" style="fill:white;"/>
                </g>
                <g transform="matrix(1.863742,0,0,1.026483,935.39606,-45.713415)">
                    <ellipse cx="521.188" cy="539.671" rx="9.268" ry="21.676" style="fill:rgb(52,50,47);"/>
                </g>
                <g transform="matrix(1.232143,0,0,1.097561,1267.235729,-82.664213)">
                    <ellipse cx="514.011" cy="529.02" rx="4.115" ry="6.025" style="fill:white;"/>
                </g>
                <g transform="matrix(1,0,0,1,1230.073492,-30.464714)">
                    <path d="M552.577,612.684C552.577,612.684 567.057,638.133 597.36,638.133C632.067,638.133 643.125,613.258 643.125,613.258" style="fill:none;stroke:rgb(224,92,43);stroke-width:8.7px;"/>
                </g>
            </g>
        </g>
    </g>
</svg>
