<?xml version="1.0" encoding="UTF-8" standalone="no"?>
<!DOCTYPE svg PUBLIC "-//W3C//DTD SVG 1.1//EN" "http://www.w3.org/Graphics/SVG/1.1/DTD/svg11.dtd">
<svg width="100%" height="100%" viewBox="0 0 348 354" version="1.1" xmlns="http://www.w3.org/2000/svg" xmlns:xlink="http://www.w3.org/1999/xlink" xml:space="preserve" xmlns:serif="http://www.serif.com/" style="fill-rule:evenodd;clip-rule:evenodd;stroke-linejoin:round;stroke-miterlimit:2;">
    <g transform="matrix(1,0,0,1,-10048.317891,-4663.554675)">
        <g transform="matrix(1,0,0,1,-0.228456,-0.941977)">
            <g id="Fondo" transform="matrix(0.702745,0,0,0.702745,9862.533938,4482.648766)">
                <path d="M506.497,761.76C496.355,761.454 437.29,759.675 384.795,726.035C239.887,633.177 238.992,457.607 313.97,358.853C404.757,239.276 541.99,247.149 610.661,279.134C786.327,360.955 799.234,577.004 685.913,688.927C610.93,762.986 530.133,761.769 506.497,761.76Z" style="fill:rgb(36,32,33);"/>
                <path d="M465.888,609.595C469.639,593.508 470.594,587.197 487.3,533.435C488.408,529.871 491.919,529.831 495.587,528.828C546.863,514.82 597.404,489.614 600.482,489.761C603.13,489.887 649.717,529.67 653.211,532.834C678.062,555.336 679.007,554.974 679.099,557.532C680.846,606.039 658.175,655.611 654.555,663.527C654.008,664.723 651.79,667.767 624.258,684.068C594.022,701.969 551.888,713.77 542.456,715.116C540.346,715.417 539.499,715.538 519.852,701.019C491.639,680.169 465.699,650.349 460.931,644.175C458.972,641.639 459.45,637.336 465.888,609.595Z" style="fill:rgb(254,254,254);"/>
                <path d="M492.382,320.053C494.053,319.603 503.335,317.107 513.475,315.295C516.773,314.705 561.897,334.557 597.606,366.383C605.578,373.489 608.026,372.758 608.287,383.505C609.747,443.648 599.299,484.923 599.09,485.154C597.781,486.602 559.133,502.433 552.342,505.074C547.323,507.026 498.631,525.964 488.493,526.372C485.28,526.502 423.654,479.233 418.123,474.991C398.351,459.826 392.472,455.29 392.382,452.506C390.842,405.146 408.317,353.708 411.688,351.81C445.77,332.621 485.684,321.859 492.382,320.053Z" style="fill:rgb(254,254,254);"/>
                <path d="M296.549,501.452C286.768,490.541 286.458,490.832 278.838,478.291C272.153,467.287 281.375,415.722 307.929,375.78C321.605,355.208 333.664,337.661 360.687,322.836C363.952,321.045 366.828,323.154 389.775,339.107C405.994,350.384 406.414,351.455 405.338,354.444C404.233,357.513 397.249,376.907 393.911,393.583C387.161,427.306 388.139,452.524 388.097,453.46C387.982,455.988 382.439,458.356 373.229,465.131C329.735,497.122 322.344,511.146 316.181,516.096C313.182,518.504 299.301,504.046 296.549,501.452Z" style="fill:rgb(254,254,254);"/>
                <path d="M428.481,644.796C454.126,646.093 455.163,644.017 457.469,646.53C461.96,651.423 476.395,669.964 503.579,693.41C514.875,703.153 515.249,702.55 537.163,717.933C539.725,719.731 536.802,724.012 523.186,749.327C522.428,750.736 519.366,760.802 475.451,754.822C406.701,745.459 342.413,694.615 340.916,681.447C337.958,655.431 354.553,632.701 354.585,632.682C357.809,630.828 369.234,640.118 428.481,644.796Z" style="fill:rgb(254,254,254);"/>
                <path d="M517.892,292.484C517.308,281.89 517.194,281.973 516.233,271.518C515.293,261.276 547.7,265.519 550.451,265.879C616.734,274.558 667.938,320.256 676.308,327.725C682.563,333.307 690.042,350.622 687.735,369.531C686.854,376.751 683.748,373.986 676.542,373.14C625.679,367.168 614.039,376.115 609.877,372.12C569.157,333.041 532.442,318.601 520.675,313.117C516.166,311.015 518.665,309.401 517.892,292.484Z" style="fill:rgb(254,254,254);"/>
                <path d="M681.53,585.503C683.495,567.382 682.92,566.383 683.255,557.482C683.387,553.975 694.512,546.107 705.931,530.833C727.655,501.775 730.73,487.997 732.504,486.505C734.227,485.054 754.139,500.24 754.41,500.565C756.461,503.027 759.454,587.08 707.066,657.188C693.426,675.443 682.646,680.744 682.569,680.768C678.755,681.937 657.482,667.616 658.676,664.544C665.886,645.999 672.927,640.335 681.53,585.503Z" style="fill:rgb(254,254,254);"/>
                <path d="M314.277,523.541C322.128,578.273 332.458,599.53 350.059,627.758C352.626,631.875 336.844,647.981 336.447,674.501C336.445,674.658 337.961,682.923 334.157,677.893C328.194,670.012 305.455,650.871 284.269,596.583C271.486,563.828 262.308,499.741 274.577,482.573C277.612,478.326 278.056,492.853 306.178,515.905C311.063,519.909 312.676,518.577 314.277,523.541Z" style="fill:rgb(254,254,254);"/>
                <path d="M709.186,407.656C708.023,405.36 700.208,389.934 693.128,379.771C687.92,372.296 695.948,364.946 689.845,345.431C689.765,345.177 687.821,338.959 690.609,342.197C694.632,346.868 694.463,346.862 698.45,351.541C731.369,390.174 752.069,445.33 754.598,492.51C754.735,495.062 753.322,494.336 751.253,492.889C735.365,481.772 735.11,482.174 733.766,481.158C730.933,479.014 730.505,451.707 709.186,407.656Z" style="fill:rgb(254,254,254);"/>
            </g>
        </g>
    </g>
</svg>
