<?xml version="1.0" encoding="UTF-8" standalone="no"?>
<!DOCTYPE svg PUBLIC "-//W3C//DTD SVG 1.1//EN" "http://www.w3.org/Graphics/SVG/1.1/DTD/svg11.dtd">
<svg width="100%" height="100%" viewBox="0 0 589 482" version="1.1" xmlns="http://www.w3.org/2000/svg" xmlns:xlink="http://www.w3.org/1999/xlink" xml:space="preserve" xmlns:serif="http://www.serif.com/" style="fill-rule:evenodd;clip-rule:evenodd;stroke-linejoin:round;stroke-miterlimit:2;">
    <g transform="matrix(1,0,0,1,-8801.492274,-4082.274306)">
        <g transform="matrix(1,0,0,1,-0.228456,-0.941977)">
            <g transform="matrix(1.243751,0,0,1.243751,8322.844481,3513.05049)">
                <g transform="matrix(1,0,0,1,14.317532,49.734546)">
                    <g id="Fondo" transform="matrix(1.171875,0,0,1.171875,0,0)">
                        <path d="M413.129,526.485C413.403,522.424 413.57,522.459 414.145,518.437C415.383,509.769 420.904,497.269 425.334,491.38C430.532,484.47 433.559,478.571 450.562,462.564C458.202,455.372 464.735,450.606 465.746,449.812C471.549,445.255 473.236,444.409 475.615,442.673C481.217,438.584 482.919,437.94 484.639,436.703C489.206,433.418 507.709,422.576 524.484,417.445C526.424,416.851 537.791,413.375 549.496,413.227C565.454,413.025 577.261,418.784 577.341,418.824C584.624,422.457 585.583,422.838 588.707,425.221C592.366,428.013 592.309,428.078 592.633,428.312C594.379,429.576 594.971,428.386 595.058,428.212C595.32,427.686 595.44,427.101 595.635,426.547C597.793,420.398 597.971,420.488 600.65,414.564C604.267,406.568 604.739,406.829 606.452,403.473C608.822,398.831 617.707,386.229 619.911,382.79C620.133,382.444 628.855,370.887 630.71,368.672C640.496,356.983 644.223,352.694 648.323,350.191C652.793,347.463 657.222,349.254 658.636,350.299C667.947,357.183 661.756,369.697 664.745,373.321C669.408,378.973 679.993,373.472 688.253,377.966C701.877,385.379 698.438,397.196 695.231,401.359C693.042,404.201 696.569,403.82 697.442,403.917C702.346,404.462 705.267,408.156 706.3,411.567C709.406,421.817 699.575,425.743 706.852,432.107C708.072,433.174 715.62,437.572 717.462,440.526C718.059,441.484 721.751,446.843 718.555,453.529C717.054,456.67 710.792,460.245 703.557,462.675C698.086,464.513 694.414,466.344 687.439,468.299C683.232,469.479 661.854,476.681 635.499,475.536C626.25,475.135 625.274,474.253 624.234,475.292C623.395,476.129 624.638,478.841 625.145,482.557C626.616,493.346 627.504,508.237 616.127,527.275C608.737,539.64 600.909,547.586 597.418,551.427C595.658,553.364 590.001,558.813 588.823,559.869C584.613,563.645 584.807,563.842 580.415,567.394C571.24,574.814 571.163,574.691 570.368,575.336C567.745,577.464 564.6,579.355 563.349,580.293C557.99,584.308 557.873,584.103 553.697,586.821C546.441,591.541 546.204,591.105 543.664,592.759C539.337,595.576 539.178,595.259 535.73,596.958C525.767,601.867 525.685,601.669 517.54,604.612C492.152,613.784 473.149,608.39 471.388,607.987C463.066,606.086 454.007,600.764 451.695,599.154C449.185,597.406 448.931,599.515 448.268,601.419C445.089,610.546 445.381,610.639 441.578,619.536C438.76,626.129 438.513,625.992 435.208,632.353C428.386,645.482 418.811,659.413 418.662,659.615C416.059,663.151 416.363,663.355 413.691,666.65C410.11,671.065 405.188,680.291 397.533,679.216C388.243,677.911 388.058,668.04 387.825,666.448C386.169,655.11 375.993,658.496 370.468,659.077C360.612,660.112 352.929,653.866 351.788,647.437C350.691,641.251 353.924,636.886 351.619,636.209C350.691,635.936 344.584,637.753 340.345,634.736C333.682,629.993 335.528,622.198 335.867,617.529C336.658,606.654 330.494,607.642 324.36,603.744C322.279,602.422 316.428,599.285 316.339,591.502C316.233,582.313 325.05,578.281 328.697,575.8C331.852,573.653 343.794,567.33 344.694,566.915C352.92,563.125 352.882,563.062 353.61,562.764C365.908,557.738 371.939,556.223 373.58,555.81C390.557,551.544 400.159,551.851 402.492,551.925C415.054,552.326 415.239,552.715 415.981,551.999C416.951,551.064 416.241,549.927 415.664,547.461C413.19,536.892 413.072,535.272 413.129,526.485Z" style="fill:rgb(80,36,19);"/>
                        <path d="M504.707,432.697C504.695,432.974 504.73,434.111 504.602,436.508C503.977,448.191 517.663,475.914 523.382,482.602C529.553,489.818 530.003,491.103 543.641,502.328C546.11,504.36 546.226,504.182 548.826,506.056C554.009,509.79 554.805,509.99 556.681,511.202C558.645,512.471 568.047,517.963 574.514,520.466C575.223,520.741 581.667,523.235 583.409,523.821C592.247,526.795 608.324,528.08 608.269,528.177C607.846,528.93 591.54,551.512 575.663,564.392C544.743,589.477 533.163,591.408 532.717,591.537C532.931,584.518 527.823,557.113 524.261,549.613C519.852,540.327 517.898,537.654 517.203,536.704C516.187,535.314 513.866,531.315 510.157,526.785C507.715,523.801 501.39,515.263 488.812,506.064C488.638,505.937 488.711,505.84 480.311,500.832C474.973,497.649 462.958,492.993 456.438,491.841C444.497,489.732 439.452,490.258 434.616,489.71C434.714,489.477 437.406,485.083 442.543,479.247C447.705,473.384 451.234,470.303 453.722,467.949C459.667,462.324 469.131,454.399 478.704,447.999C491.719,439.297 504.486,432.77 504.707,432.697Z" style="fill:rgb(227,69,73);"/>
                        <path d="M378.514,651.844C366.563,652.787 363.58,653.963 359.42,649.575C353.672,643.511 362.625,635.002 357.291,630.761C353.041,627.381 343.185,634.249 341.49,625.502C340.43,620.028 346.473,608.398 334.419,601.642C330.84,599.636 328.947,598.807 328.456,598.592C320.935,595.298 320.29,588.46 326.505,584.507C328.622,583.16 330.719,581.183 337.532,577.557C339.127,576.709 343.506,573.896 348.615,571.785C352.306,570.26 355.064,568.464 362.597,565.79C368.38,563.737 374.815,560.756 390.545,558.905C401.928,557.566 405.179,558.156 415.466,558.885C421.456,559.308 421.312,560.275 422.89,563.3C422.934,563.385 425.799,568.237 426.581,569.447C428.028,571.682 441.551,589.405 442.844,591.289C444.489,593.687 443.422,595.878 442.252,600.427C441.914,601.742 439.342,610.688 436.136,617.322C435.714,618.194 432.263,626.385 429.272,631.372C427.571,634.209 426.944,636.373 418.917,648.764C415.187,654.523 415.203,654.513 411.634,659.596C410.275,661.531 410.385,661.593 408.755,663.685C408.37,664.179 405.943,667.292 403.836,669.774C400.738,673.423 395.903,675.556 394.231,666.551C393.711,663.752 393.043,653.842 382.578,652.057C380.757,651.746 380.175,651.84 378.514,651.844Z" style="fill:rgb(239,187,143);"/>
                        <path d="M540.504,420.481C540.693,420.923 541.895,427.193 544.396,433.539C545.614,436.631 547.203,440.393 551.887,446.189C557.619,453.283 566.362,460.61 566.888,461.008C576.275,468.112 588.097,477.027 606.583,480.225C607.759,480.428 618.646,482.443 618.646,482.443C620.034,487.23 621.023,499.897 617.36,510.453C613.328,522.075 609.102,527.838 608.269,528.177C607.882,528.335 607.501,528.304 607.434,528.298C606.425,528.216 592.247,526.795 583.409,523.821C581.667,523.235 575.223,520.741 574.514,520.466C568.047,517.963 558.645,512.471 556.681,511.202C554.805,509.99 554.009,509.79 548.826,506.056C546.226,504.182 546.11,504.36 543.641,502.328C530.003,491.103 529.553,489.818 523.382,482.602C517.663,475.914 503.977,448.191 504.602,436.508C504.73,434.111 504.695,432.974 504.707,432.697C504.707,432.697 513.262,427.747 521.633,424.855C527.591,422.797 533.705,420.944 540.504,420.481Z" style="fill:rgb(248,235,217);"/>
                        <path d="M434.616,489.71C439.452,490.258 444.497,489.732 456.438,491.841C462.958,492.993 474.973,497.649 480.311,500.832C488.711,505.84 488.638,505.937 488.812,506.064C501.39,515.263 507.715,523.801 510.157,526.785C513.866,531.315 516.187,535.314 517.203,536.704C517.898,537.654 519.852,540.327 524.261,549.613C527.823,557.113 532.931,584.518 532.717,591.537C532.211,592.02 529.005,594.117 523.368,596.15C511.54,600.418 497.62,602.789 497.371,602.782C497.248,602.339 496.933,602.559 496.809,602.112C496.792,602.053 496.933,602.083 496.974,601.36C496.995,600.987 496.466,595.282 496.163,593.553C494.201,582.363 490.152,573.883 485.056,564.75C484.361,563.504 479.438,556.531 475.464,552.536C469.746,546.785 461.842,541.371 457.554,539.388C440.727,531.606 432.987,532.677 427.496,532.567C420.789,532.433 420.808,532.93 420.231,532.858C419.97,532.826 419.511,520.299 422.283,511.051C426.239,497.853 434.022,490.073 434.616,489.71Z" style="fill:rgb(248,235,217);"/>
                        <path d="M620.531,466.482C619.413,464.383 614.199,451.455 601.264,435.758C598.859,432.838 599.667,432.274 601.314,428.424C601.694,427.536 602.422,424.938 605.864,417.666C606.289,416.771 609.108,410.381 614.31,401.384C614.769,400.59 625.575,384.151 628.651,380.626C630.971,377.967 641.761,363.4 649.221,357.171C653.95,353.222 658.366,355.529 657.584,364.506C657.304,367.717 655.784,376.453 662.618,380.282C670.569,384.736 680.421,379.299 687.881,385.011C696.695,391.759 688.344,399.5 687.329,402.433C686.156,405.82 687.461,410.409 693.498,410.309C694.686,410.29 699.111,409.367 700.466,413.511C702.623,420.11 692.624,427.665 702.222,436.784C705.796,440.179 713.179,442.485 713.8,447.455C714.301,451.457 710.344,452.851 705.416,455.299C704.924,455.544 695.396,459.217 694.523,459.554C693.107,460.1 689.824,461.366 676.39,465.149C664.262,468.564 644.825,470.814 629.458,468.924C624.471,468.31 621.598,468.483 620.531,466.482Z" style="fill:rgb(239,187,143);"/>
                        <path d="M434.616,571.074C422.311,552.626 419.97,532.826 420.231,532.858C420.808,532.93 420.789,532.433 427.496,532.567C432.987,532.677 440.727,531.606 457.554,539.388C461.842,541.371 469.746,546.785 475.464,552.536C479.438,556.531 484.361,563.504 485.056,564.75C490.152,573.883 494.201,582.363 496.163,593.553C496.466,595.282 497.248,602.339 497.371,602.782C495.489,603.502 457.826,605.869 434.616,571.074Z" style="fill:rgb(227,69,73);"/>
                        <path d="M540.504,420.481C540.821,420.418 560.91,418.8 573.319,423.887C573.583,423.996 573.542,424.076 576.526,425.445C583.791,428.78 589.916,434.369 593.878,438.176C597.458,441.617 605.386,451.73 606.484,453.511C606.709,453.877 608.472,456.192 610.384,459.567C613.684,465.394 615.051,468.82 616.802,474.409C617.276,475.925 618.362,481.14 618.719,482.703C619.241,484.988 579.954,481.173 556.443,454.523C551.513,448.935 545.614,436.631 544.396,433.539C541.895,427.193 540.693,420.923 540.504,420.481Z" style="fill:rgb(227,69,73);"/>
                    </g>
                </g>
                <path d="M497.038,726.755C498.896,727.017 500.191,728.739 499.928,730.597C499.666,732.455 497.944,733.751 496.086,733.488C474.739,730.471 451.906,741.069 432.973,749.236C431.25,749.979 429.248,749.184 428.505,747.461C427.761,745.738 428.557,743.736 430.28,742.992C450.276,734.366 474.491,723.568 497.038,726.755Z" style="fill:rgb(80,36,19);"/>
                <path d="M495.087,729.268C496.867,728.672 498.795,729.633 499.391,731.413C499.986,733.192 499.025,735.12 497.246,735.716C476.018,742.822 446.225,775.014 442.41,779.106C441.131,780.479 438.978,780.555 437.605,779.275C436.232,777.996 436.157,775.842 437.436,774.47C441.432,770.183 472.847,736.712 495.087,729.268Z" style="fill:rgb(80,36,19);"/>
                <path d="M502.109,738.781C503.871,738.136 505.826,739.043 506.471,740.805C507.116,742.567 506.209,744.521 504.447,745.166C498.428,747.37 492.572,755.078 487.357,763.581C478.981,777.237 472.646,793.273 471.546,796.054C470.856,797.799 468.879,798.656 467.134,797.965C465.389,797.275 464.533,795.298 465.223,793.553C466.551,790.194 475.284,768.165 486.115,753.149C491.135,746.191 496.697,740.762 502.109,738.781Z" style="fill:rgb(80,36,19);"/>
                <path d="M746.23,566.742C745.809,568.57 743.982,569.713 742.154,569.292C740.325,568.871 739.182,567.045 739.603,565.216C745.6,539.166 766.568,519.465 769.929,516.321C771.3,515.039 773.453,515.111 774.735,516.481C776.017,517.852 775.945,520.005 774.574,521.287C771.445,524.214 751.813,542.488 746.23,566.742Z" style="fill:rgb(80,36,19);"/>
                <path d="M748.437,570.83C747.308,572.329 745.174,572.629 743.675,571.5C742.177,570.371 741.876,568.237 743.006,566.738C759.232,545.199 765.979,535.298 800.538,520.662C802.265,519.93 804.262,520.739 804.994,522.467C805.726,524.194 804.917,526.191 803.189,526.923C770.284,540.86 763.887,550.321 748.437,570.83Z" style="fill:rgb(80,36,19);"/>
                <path d="M756.497,578.588C755.051,579.784 752.906,579.581 751.71,578.135C750.514,576.689 750.717,574.544 752.163,573.348C776.817,552.959 795.489,552.674 815.915,549.334C817.767,549.031 819.516,550.289 819.819,552.141C820.122,553.992 818.864,555.742 817.012,556.045C797.65,559.211 779.867,559.26 756.497,578.588Z" style="fill:rgb(80,36,19);"/>
                <g transform="matrix(0.987048,-0.160428,0.160428,0.987048,-88.014488,148.685759)">
                    <path d="M758.247,508.917C761.866,502.275 766.771,497.078 770.723,492.795" style="fill:rgb(253,239,215);"/>
                    <path d="M761.232,510.544C760.334,512.192 758.268,512.801 756.62,511.903C754.972,511.005 754.363,508.938 755.261,507.29C759.029,500.376 764.11,494.948 768.225,490.489C769.497,489.11 771.65,489.024 773.029,490.296C774.408,491.569 774.494,493.722 773.222,495.101C769.431,499.208 764.703,504.174 761.232,510.544Z" style="fill:rgb(253,238,211);"/>
                </g>
                <g transform="matrix(0.983223,0.182407,-0.182407,0.983223,182.764917,-80.971209)">
                    <path d="M407.552,741.81C417.243,733.726 430.511,730.003 432.669,729.397" style="fill:rgb(253,239,215);"/>
                    <path d="M409.73,744.421C408.289,745.623 406.143,745.429 404.941,743.988C403.739,742.547 403.933,740.401 405.374,739.199C415.557,730.705 429.483,726.76 431.75,726.124C433.557,725.617 435.435,726.672 435.942,728.479C436.449,730.286 435.394,732.164 433.587,732.671C431.539,733.246 418.929,736.747 409.73,744.421Z" style="fill:rgb(253,239,215);"/>
                </g>
            </g>
        </g>
    </g>
</svg>
