<?xml version="1.0" encoding="UTF-8" standalone="no"?>
<!DOCTYPE svg PUBLIC "-//W3C//DTD SVG 1.1//EN" "http://www.w3.org/Graphics/SVG/1.1/DTD/svg11.dtd">
<svg width="100%" height="100%" viewBox="0 0 616 818" version="1.1" xmlns="http://www.w3.org/2000/svg" xmlns:xlink="http://www.w3.org/1999/xlink" xml:space="preserve" xmlns:serif="http://www.serif.com/" style="fill-rule:evenodd;clip-rule:evenodd;stroke-linejoin:round;stroke-miterlimit:2;">
    <g transform="matrix(1,0,0,1,-12137.115071,-7654.341866)">
        <g transform="matrix(1.276754,0,0,2.756375,-2113.766445,-6854.068498)">
            <g transform="matrix(1.041558,0,0,0.48245,10702.365175,5086.771909)">
                <g transform="matrix(1,0,0,1,102.901094,7.531037)">
                    <g transform="matrix(1.171875,0,0,1.171875,0.285293,-17.506577)">
                        <path d="M444.654,580.933C444.588,581.874 443.827,582.616 442.885,582.66C435.988,582.698 409.512,582.809 402.611,582.838C401.681,582.842 400.907,582.124 400.843,581.196C400.536,577.028 399.608,565.68 397.952,555.629C397.516,552.983 394.599,550.775 393.759,548.463C392.488,544.969 393.368,541.685 394.147,539.843C395.76,536.029 399.434,536.266 396.583,533.423C392.431,529.282 393.93,523.62 396.157,520.278C402.55,510.683 408.13,512.157 409.072,509.418C409.241,508.925 409.103,508.914 408.556,506.489C407.787,503.076 408.509,493.011 418.604,489.864C427.246,487.17 439.473,493.587 436.711,507.549C436.068,510.798 437.608,510.29 440.634,512.281C440.731,512.345 450.948,517.96 451.193,526.508C451.37,532.699 447.207,533.848 446.889,534.695C446.054,536.917 450.169,535.605 451.364,542.022C451.542,542.975 451.618,546.289 450.682,548.3C449.532,550.771 447.551,552.985 447.18,555.629C445.873,564.929 444.966,576.607 444.654,580.933Z" style="fill:rgb(36,39,49);"/>
                    </g>
                    <g transform="matrix(1.171875,0,0,1.171875,0.36706,-17.880661)">
                        <path d="M431.244,502.532C431.252,505.718 430.976,505.677 429.785,508.611C427.636,513.905 434.235,514.949 437.727,517.122C437.792,517.163 445.114,521.09 445.328,526.507C445.554,532.222 439.917,531.405 428.5,531.408C404.876,531.412 402.513,531.927 400.717,529.345C398.844,526.654 400.794,523.639 401.06,523.228C406.742,514.445 416.269,516.273 416.318,510.499C416.341,507.688 412.279,505.238 415.3,499.386C416.333,497.384 419.006,495.384 421.462,495.155C424.513,494.87 427.76,496.104 429.453,498.536C431.167,500.997 430.852,501.145 431.244,502.532Z" style="fill:rgb(134,185,206);"/>
                    </g>
                    <g transform="matrix(1.151894,0,0,1.200283,8.696315,-35.159759)">
                        <path d="M442.764,559.533C440.791,577.293 441.069,578.565 440.336,579.355C439.641,580.103 439.458,580.048 412.5,579.997C406.411,579.986 404.592,580.512 404.289,577.525C403.731,572.03 403.884,572.037 403.295,566.523C402.346,557.64 402.496,557.423 402.938,556.78C403.554,555.886 403.837,556.132 424.498,556.075C430.496,556.058 430.482,556.129 436.489,555.98C436.81,555.972 436.805,556.039 440.5,555.949C443.513,555.876 442.785,558.68 442.764,559.533Z" style="fill:rgb(246,199,141);"/>
                    </g>
                    <g transform="matrix(1.171875,0,0,1.171875,0.36706,-17.880661)">
                        <path d="M436.336,545.587C436.738,546.12 437.487,548.292 440.491,548.183C443.074,548.089 443.621,545.727 442.334,543.611C441.683,542.539 438.69,539.001 439.912,537.911C441.194,536.766 443.315,540.198 443.501,540.5C444.044,541.38 446.477,544.271 445.539,547.511C444.246,551.973 439.154,550.484 432.5,550.513C430.178,550.523 403.537,550.639 403.477,550.63C401.775,550.389 395.915,548.052 400.727,540.635C402.122,538.484 402.548,537.583 403.493,537.605C403.793,537.612 405.715,537.754 403.249,541.349C402.972,541.753 399.907,546.22 402.534,547.431C407.745,549.833 409.382,538.732 409.478,538.491C410.146,536.802 411.218,537.265 423.499,537.197C432.541,537.147 434.224,536.961 434.736,538.401C434.869,538.776 434.911,540.677 435.252,542.551C435.476,543.785 435.59,543.738 436.336,545.587Z" style="fill:rgb(244,233,236);"/>
                    </g>
                </g>
                <g transform="matrix(1,0,0,1,104.084137,49.9341)">
                    <g transform="matrix(1.171875,0,0,1.171875,3.038071,-56.779818)">
                        <path d="M466.89,579.097C464.969,579.168 462.085,576.864 461.375,575.574C456.512,566.742 468.576,556.035 477.616,551.739C480.928,550.165 481.872,549.899 480.741,546.424C477.882,537.645 482.585,530.305 486.198,527.143C496.299,518.302 512.463,523.615 515.572,536.483C517.671,545.17 513.171,548.295 515.678,550.252C516.185,550.648 526.336,554.737 532.279,562.663C535.879,567.465 535.533,570.749 535.455,571.496C534.814,577.581 531.398,579.093 528.852,579.038" style="fill:rgb(36,39,49);"/>
                    </g>
                    <g transform="matrix(1.171875,0,0,1.171875,2.822655,-57.507536)">
                        <path d="M497.523,528.929C498.397,528.984 499.768,528.628 503.55,530.402C503.913,530.572 506.202,531.646 507.469,533.524C511.428,539.393 509.977,543.306 508.457,547.484C506.021,554.184 511.534,555.007 518.514,558.476C522.588,560.5 528.463,566.265 529.478,569.507C531.028,574.454 524.163,573.785 521.501,573.781C474.563,573.72 474.563,573.913 470.485,573.747C462.571,573.425 467.275,565.3 475.592,559.641C481.149,555.86 488.634,555.3 488.289,549.517C488.149,547.186 482.262,539.136 490.101,532.052C493.001,529.432 496.552,529.098 497.523,528.929Z" style="fill:rgb(134,185,206);"/>
                    </g>
                </g>
                <g transform="matrix(1.514286,0,0,1.058041,234.974531,-36.727735)">
                    <path d="M414.991,489.934L414.991,669.876C414.991,672.028 413.771,673.775 412.267,673.775C410.764,673.775 409.543,672.028 409.543,669.876L409.543,489.934C409.543,487.782 410.764,486.035 412.267,486.035C413.771,486.035 414.991,487.782 414.991,489.934Z" style="fill:rgb(36,39,49);"/>
                </g>
                <g transform="matrix(1.514286,0,0,1.058041,-86.083607,-36.727735)">
                    <path d="M414.991,489.934L414.991,669.876C414.991,672.028 413.771,673.775 412.267,673.775C410.764,673.775 409.543,672.028 409.543,669.876L409.543,489.934C409.543,487.782 410.764,486.035 412.267,486.035C413.771,486.035 414.991,487.782 414.991,489.934Z" style="fill:rgb(36,39,49);"/>
                </g>
                <g transform="matrix(1.171875,0,0,1.171875,106.886107,-8.907157)">
                    <path d="M660.495,580.049C664.555,580.182 672.946,579.355 675.759,581.031C681.936,584.71 681.073,592.562 677.912,595.884C674.106,599.883 670.727,597.418 670.22,600.45C670.055,601.434 670.196,692.518 670.114,718.5C670.103,722.202 670.205,768.932 670.069,769.407C669.067,772.913 665.768,772.382 658.501,772.36C655.94,772.352 627.356,772.266 626.484,772.415C624.627,772.732 624.71,774.515 624.71,774.519C624.686,775.023 624.64,789.93 624.785,790.449C625.545,793.172 627.22,791.551 634.102,796.963C638.722,800.597 645.213,811.977 642.086,823.387C638.45,836.649 626.723,842.494 617.515,842.861C597.571,843.657 584.361,824.426 591.529,806.513C592.758,803.442 596.596,797.162 602.367,794.249C606.321,792.254 607.873,792.795 607.933,789.512C607.967,787.627 607.931,777.897 608.021,775.499C608.03,775.274 608.102,773.353 607.312,772.774C606.456,772.146 606.328,772.464 585.5,772.376C577.446,772.342 501.78,772.426 494.5,772.434C491.472,772.438 488.983,771.965 488.603,774.517C488.557,774.83 488.57,774.808 488.158,778.453C485.995,793.65 481.433,800.733 478.44,806.468C476.358,810.46 465.945,826.077 448.393,835.286C407.712,856.631 363.516,839.254 343.95,806.225C339.434,798.602 335.96,788.151 334.878,781.436C330.606,754.931 339.515,739.212 340.196,736.432C340.592,734.819 340.358,671.095 340.441,634.5C340.467,623.148 340.427,622.882 339.53,622.45C338.592,621.999 336.459,622.124 324.5,622.141C290.996,622.187 289.117,622.423 287.573,621.38C285.289,619.837 285.048,618.289 285.274,610.489C285.435,604.941 288.305,605.407 296.5,605.386C316.014,605.337 316,605.542 335.499,605.357C337.155,605.342 338.934,605.529 339.726,604.705C340.12,604.295 340.348,603.801 340.31,601.503C340.244,597.473 337.584,599.399 334.736,597.179C327.787,591.764 330.894,581.164 338.461,580.169L660.495,580.049ZM618.859,820.316C616.196,821.252 613.476,820.545 611.97,819.147C610.386,817.675 610.334,815.157 610.084,813.976C609.871,812.966 609.132,812.995 608.84,813.001C604.982,813.081 605.8,824.856 616.145,824.691C625.31,824.544 626.194,817.787 625.919,814.375C625.828,813.251 624.138,812.428 623.076,813.648C622.06,814.814 623.099,818.825 618.859,820.316Z" style="fill:rgb(36,39,49);"/>
                </g>
                <g transform="matrix(1.171875,0,0,1.171875,106.886107,-8.907157)">
                    <path d="M640.541,412.494C640.425,411.38 640.498,411.165 639.428,410.856" style="fill:rgb(36,39,49);"/>
                </g>
                <g transform="matrix(1.171875,0,0,1.171875,106.886107,-8.907157)">
                    <path d="M406.5,598.664C457.166,598.664 507.833,598.664 558.499,598.664C657.983,598.824 661.268,598.423 662.457,598.674C664.083,599.016 663.915,599.658 663.898,609.503C663.653,751.208 663.925,751.193 663.814,763.514C663.799,765.196 663.995,765.562 662.419,766.092C662.283,766.138 659.733,766.136 659.499,766.136C615.5,766.156 571.5,766.176 527.5,766.196C494.363,766.134 494.382,766.376 491.508,766.196C491.284,766.181 489.498,766.07 489.211,764.576C488.181,759.223 489.435,748.923 479.051,729.753C477.821,727.482 473.806,721.629 471.746,719.278C469.937,717.214 466.863,713.783 466.517,713.482C462.395,709.905 447.392,694.047 419.539,691.102C409.654,690.057 398.11,691.752 395.487,692.445C391.09,693.606 382.018,695.446 371.571,701.62C359.647,708.668 352.482,717.547 351.575,718.562C350.102,720.212 350.216,720.286 349.026,722.141C348.467,723.013 348.548,723.264 347.511,723.261C346.259,723.256 346.529,722.739 346.583,721.49C346.737,717.974 346.762,717.41 346.733,677.501C346.729,671.982 346.683,608.68 346.692,608.515C346.784,606.735 348.292,606.56 348.505,606.536C348.891,606.491 402.778,606.827 407.498,606.857C498.59,607.425 498.58,607.57 506.5,607.568C528.995,607.563 647.856,608.728 653.503,608.582C656.591,608.502 657.841,606.562 656.62,604.415C655.539,602.515 652.231,603.121 631.496,602.832C620.777,602.682 620.791,602.971 497.503,602.079C352.426,601.031 352.408,601.687 348.547,601.257C346.102,600.984 347.008,599.148 347.662,598.84C348.673,598.364 401.793,598.64 406.5,598.664Z" style="fill:rgb(246,99,121);"/>
                </g>
                <g transform="matrix(1.171875,0,0,1.171875,106.886107,-8.907157)">
                    <path d="M482.141,766.505C482.14,766.958 482.627,776.383 479.416,787.474C477.364,794.563 473.627,801.387 472.281,803.371C470.561,805.904 469.993,807.278 467.397,810.417C466.528,811.467 465.815,812.733 461.256,817.241C457.81,820.649 457.964,820.826 450.754,825.888C447.919,827.877 447.862,827.768 443.733,829.957C437.015,833.52 423.201,838.258 406.511,837.352C405.54,837.299 402.318,837.124 394.486,835.565C379.098,832.501 365.729,822.705 357.709,813.316C352.734,807.492 352.92,807.366 349.009,800.773C348.332,799.633 345.481,794.825 342.663,785.461C342.546,785.07 342.615,785.059 341.635,780.471C340.297,774.211 339.982,762.952 341.526,755.505C341.759,754.382 342.9,747.237 347.294,737.402C347.586,736.75 348.28,735.196 351.87,729.732C353.114,727.839 357.961,721.546 359.722,719.696C366.708,712.359 370.625,710.316 375.34,707.236C378.28,705.315 390.046,699.45 403.462,698.165C404.9,698.027 412.074,697.341 421.518,698.328C426.034,698.8 435.867,701.284 440.377,703.762C441.318,704.279 443.179,704.74 448.714,708.178C454.984,712.073 456.887,714.061 459.549,716.438C467.881,723.879 476.445,735.943 479.875,749.416C481.301,755.014 481.94,756.753 482.141,766.505Z" style="fill:rgb(64,95,112);"/>
                </g>
                <g transform="matrix(1.171875,0,0,1.171875,106.886107,-8.907157)">
                    <path d="M471.802,773.533C471.555,775.557 469.919,788.982 463.898,797.771C463.193,798.8 458.631,807.035 451.659,812.703C448.366,815.38 445.279,817.433 444.704,817.816C443.77,818.437 443.004,818.754 441.663,819.74C441.039,820.199 429.989,827.766 412.529,827.967C403.86,828.067 401.185,827.883 390.523,824.434C376.884,820.024 367.429,809.482 366.505,808.495C363.157,804.924 360.777,801.372 360.265,800.647C359.933,800.176 359.955,800.166 356.239,793.621C350.584,783.659 344.994,755.061 361.803,732.708C367.452,725.196 370.005,723.006 376.816,717.968C391.806,706.878 421.939,700.315 447.702,719.204C452.309,722.582 452.224,722.671 456.234,726.753C457.054,727.588 457.006,727.626 460.706,732.353C465.841,738.913 469.961,749.602 470.804,755.442C471.2,758.183 472.913,763.609 471.802,773.533Z" style="fill:rgb(36,39,49);"/>
                </g>
                <g transform="matrix(1.171875,0,0,1.171875,106.886107,-8.907157)">
                    <path d="M668.499,592.385C579.499,592.387 490.499,592.389 401.5,592.392C345.373,592.384 345.386,592.455 340.509,592.302C339.775,592.279 337.238,592.487 337.17,589.515C337.082,585.625 341.117,586.241 345.497,586.198C350.911,586.143 635.359,586.241 642.496,586.181C644.818,586.161 669.3,585.955 671.524,586.349C675.247,587.008 674.004,591.592 672.355,592.079C671.679,592.279 668.808,592.375 668.499,592.385Z" style="fill:rgb(134,185,206);"/>
                </g>
                <g transform="matrix(1,0,0,1,104.084137,49.9341)">
                    <g transform="matrix(1.171875,0,0,1.171875,99.929304,-56.779818)">
                        <path d="M466.89,579.097C464.969,579.168 462.085,576.864 461.375,575.574C456.512,566.742 468.576,556.035 477.616,551.739C480.928,550.165 481.872,549.899 480.741,546.424C477.882,537.645 482.585,530.305 486.198,527.143C496.299,518.302 512.463,523.615 515.572,536.483C517.671,545.17 513.171,548.295 515.678,550.252C516.185,550.648 526.336,554.737 532.279,562.663C535.879,567.465 535.533,570.749 535.455,571.496C534.814,577.581 531.398,579.093 528.852,579.038" style="fill:rgb(36,39,49);"/>
                    </g>
                    <g transform="matrix(1.171875,0,0,1.171875,99.713888,-57.507536)">
                        <path d="M497.523,528.929C498.397,528.984 499.768,528.628 503.55,530.402C503.913,530.572 506.202,531.646 507.469,533.524C511.428,539.393 509.977,543.306 508.457,547.484C506.021,554.184 511.534,555.007 518.514,558.476C522.588,560.5 528.463,566.265 529.478,569.507C531.028,574.454 524.163,573.785 521.501,573.781C474.563,573.72 474.563,573.913 470.485,573.747C462.571,573.425 467.275,565.3 475.592,559.641C481.149,555.86 488.634,555.3 488.289,549.517C488.149,547.186 482.262,539.136 490.101,532.052C493.001,529.432 496.552,529.098 497.523,528.929Z" style="fill:rgb(246,99,121);"/>
                    </g>
                </g>
                <g transform="matrix(1.171875,0,0,1.171875,106.886107,-8.907157)">
                    <path d="M464.308,757.533C464.528,759.038 465.433,763.863 463.263,764.415C462.59,764.587 426.952,765.921 425.639,765.242C424.889,764.854 424.407,763.152 423.051,760.708C421.613,758.116 423.741,757.682 442.528,737.526C448.409,731.216 449.249,729.239 451.846,732.189C455.192,735.99 455.293,735.906 457.857,740.29C462.354,747.981 463.144,751.642 464.308,757.533Z" style="fill:rgb(246,99,121);"/>
                </g>
                <g transform="matrix(1.171875,0,0,1.171875,106.886107,-8.907157)">
                    <path d="M436.599,795.399C437.288,796.081 439.459,798.083 442.658,801.342C446.917,805.681 447.796,806.367 447.318,807.436C446.954,808.248 441.397,813.188 434.426,816.342C426.207,820.062 416.333,821.753 415.234,820.915C414.114,820.06 414.389,819.785 414.373,810.506C414.369,808.265 414.325,783.081 414.389,782.49C414.534,781.141 414.797,780.588 417.503,779.508C420.563,778.286 420.505,779.97 424.933,784.023C430.347,788.979 434.64,793.469 436.599,795.399Z" style="fill:white;"/>
                </g>
                <g transform="matrix(1.171875,0,0,1.171875,106.886107,-8.907157)">
                    <path d="M360.136,785.632C359.93,785.006 358.296,780.671 357.765,776.462C357.38,773.398 356.845,770.506 357.68,769.688C358.446,768.937 358.648,769.218 388.5,769.364C396.609,769.404 397.601,768.953 398.475,771.509C399.193,773.611 399.708,774.687 398.751,775.707C397.036,777.536 394.073,780.216 389.564,784.565C384.065,789.869 383.082,791.127 379.9,793.967C374.951,798.384 372.229,801.809 371.373,802.216C370.194,802.778 369.085,801.313 368.957,801.145C364.048,794.66 362.006,790.56 360.136,785.632Z" style="fill:white;"/>
                </g>
                <g transform="matrix(1.171875,0,0,1.171875,106.886107,-8.907157)">
                    <path d="M365.808,738.698C367.544,736.347 368.125,735.627 368.335,735.367C369.729,733.639 371.634,730.736 372.52,730.56C373.599,730.346 373.937,730.83 375.487,732.512C377.788,735.008 386.995,744.77 389.145,746.863C393.177,750.786 393.044,750.894 395.965,754.062C399.446,757.839 400.9,758.214 399.711,761.588C398.983,763.652 398.206,763.72 396.501,763.676C388.295,763.463 388.314,763.53 361.498,763.277C358.513,763.249 357.293,763.484 357.648,760.515C358.84,750.536 361.977,744.589 365.808,738.698Z" style="fill:rgb(246,99,121);"/>
                </g>
                <g transform="matrix(1.171875,0,0,1.171875,106.886107,-8.907157)">
                    <path d="M408.57,795.5C408.371,819.663 408.882,820.571 407.35,821.07C405.543,821.66 392.597,819.127 385.362,814.734C380.377,811.707 380.336,811.79 377.836,810.048C375.045,808.102 375.629,806.904 375.769,806.616C375.975,806.194 379.863,802.042 382.574,799.582C386.407,796.104 386.235,795.959 395.718,786.728C402.833,779.802 403.123,779.234 404.517,779.332C404.763,779.349 407.585,780.257 408.118,780.865C408.867,781.72 408.59,781.881 408.57,795.5Z" style="fill:white;"/>
                </g>
                <g transform="matrix(1.171875,0,0,1.171875,106.886107,-8.907157)">
                    <path d="M464.889,774.553C464.626,776.243 464.262,780.764 461.671,787.565C458.726,795.295 453.318,801.672 452.616,801.837C451.089,802.195 449.974,800.549 448.171,798.855C445.941,796.761 434.358,785.037 433.164,783.829C425.651,776.225 423.661,775.479 423.829,773.557C424.029,771.278 426.247,770.946 426.548,770.901C427.761,770.719 440.301,770.85 441.497,770.863C451.371,770.966 451.349,771.186 462.504,771.353C465.78,771.402 464.886,772.95 464.889,774.553Z" style="fill:white;"/>
                </g>
                <g transform="matrix(1.171875,0,0,1.171875,106.886107,-8.907157)">
                    <path d="M426.591,716.197C436.02,719.273 439.974,722.169 442.765,724.129C443.896,724.923 444.106,724.728 444.414,725.549C445.055,727.257 443.347,728.494 442.939,728.939C440.062,732.082 439.793,731.792 436.99,734.979C431.84,740.833 418.862,755.966 415.519,754.461C413.836,753.704 414.22,753.125 414.233,736.497C414.251,715.379 414.116,715.255 414.655,714.628C415.867,713.217 422.271,715.033 426.591,716.197Z" style="fill:rgb(246,99,121);"/>
                </g>
                <g transform="matrix(1.171875,0,0,1.171875,106.886107,-8.907157)">
                    <path d="M384.306,721.176C388.4,718.97 388.917,718.509 395.447,716.34C403.412,713.696 407.284,714.104 407.651,714.239C408.791,714.658 408.479,718.335 408.478,718.5C408.403,749.798 408.743,749.791 408.452,752.495C408.168,755.126 405.845,755.176 404.58,754.38C404.222,754.155 382.473,731.813 382.326,731.646C379.744,728.725 378.146,727.788 377.794,726.457C377.481,725.277 379.283,724.337 384.306,721.176Z" style="fill:rgb(246,99,121);"/>
                </g>
                <g transform="matrix(1.171875,0,0,1.171875,106.886107,-8.907157)">
                    <path d="M634.325,807.596C634.677,808.409 636.741,813.173 636.357,818.485C635.668,828.01 627.028,835.255 619.447,836.122C608.684,837.353 603.434,832.808 599.316,827.637C595.571,822.934 592.219,808.895 604.579,800.625C606.473,799.359 607.202,799.351 607.898,800.184C608.342,800.715 608.623,803.762 607.206,805.198C606.949,805.459 600.795,809.103 601.344,817.511C601.806,824.587 607.733,829.882 612.434,830.785C626.54,833.494 634.873,819.449 628.954,809.24C626.638,805.246 625.19,806.103 624.705,803.462C624.646,803.139 623.863,798.876 626.437,799.738C628.327,800.371 630.62,802.77 630.93,803.095C632.887,805.141 632.856,805.161 634.325,807.596Z" style="fill:rgb(64,95,112);"/>
                </g>
                <g transform="matrix(1.171875,0,0,1.171875,106.886107,-8.907157)">
                    <path d="M336.514,615.898C325.393,615.897 312.04,615.851 307.498,615.869C303.499,615.884 303.521,615.885 299.507,615.913C292.562,615.962 291.508,616.033 291.019,614.728C290.543,613.455 290.728,611.655 292.472,611.352C293.198,611.226 301.628,611.482 321.499,611.376C322.859,611.369 337.141,611.292 338.489,611.552C340.091,611.861 340.131,613.303 340.137,613.508C340.216,616.333 337.033,615.873 336.514,615.898Z" style="fill:rgb(134,185,206);"/>
                </g>
                <g transform="matrix(1.171875,0,0,1.171875,106.886107,-8.907157)">
                    <path d="M618.863,776.5C618.898,786.689 618.894,810.344 618.837,811.513C618.807,812.115 618.936,815.204 616.498,815.318C616.265,815.329 614.57,815.408 614.141,813.601C613.723,811.843 614.003,780.387 614.028,777.499C614.045,775.64 613.302,772.183 616.508,772.316C617.606,772.361 618.079,772.781 618.185,772.874C618.961,773.561 618.627,773.731 618.863,776.5Z" style="fill:rgb(64,95,112);"/>
                </g>
                <g transform="matrix(1,0,0,1,104.586866,-10.191727)">
                    <circle cx="484.39" cy="900.841" r="8.269" style="fill:rgb(64,95,112);"/>
                </g>
                <g transform="matrix(1,0,0,1,116.362969,23.475247)">
                    <path d="M578.074,482.107C546.841,481.552 543.869,454.17 543.869,454.17C536.218,483.686 501.404,481.906 501.404,481.906C470.225,478.559 466.174,453.898 466.174,453.898C456.367,491.024 418.29,480.733 418.29,480.733C382.097,467.19 391.184,444.036 391.184,444.036C391.184,444.036 418.665,360.942 423.78,345.474C424.266,344.005 425.64,343.014 427.188,343.017C456.398,343.079 723.097,343.641 754.224,343.706C755.942,343.71 757.415,344.933 757.735,346.621C760.799,362.792 775.601,440.909 775.601,440.909C778.853,473.68 739.21,479.866 739.21,479.866C702.037,485.433 694.104,451.507 694.104,451.507C689.441,483.598 654.652,482.107 654.652,482.107C622.725,481.59 620.807,454.975 620.807,454.975C614.879,487.168 578.074,482.042 578.074,482.042" style="fill:rgb(36,39,49);"/>
                </g>
                <g transform="matrix(0.985918,0,0,0.985918,122.700061,30.382268)">
                    <path d="M462.916,449.773C453.084,482.722 419.797,473.104 419.797,473.104C387.996,463.301 396.727,439.112 396.727,439.112L427.159,347.416L486.495,347.416L462.916,449.773Z" style="fill:rgb(246,99,121);"/>
                </g>
                <g transform="matrix(0.985918,0,0,0.985918,254.899104,30.427845)">
                    <path d="M485.538,446.541C482.506,476.935 446.972,474.041 446.972,474.041C414.598,470.646 416.044,448.599 416.044,448.599L427.159,347.416L486.495,347.416L485.538,446.541Z" style="fill:rgb(246,99,121);"/>
                </g>
                <g transform="matrix(0.985918,0,0,0.985918,392.82621,30.427845)">
                    <path d="M500.131,441.158C500.924,471.546 462.885,471.917 462.885,471.917C430.51,470.817 429.149,445.11 429.149,445.11L422.799,347.416L483.162,347.416L500.131,441.158Z" style="fill:rgb(246,99,121);"/>
                </g>
                <g transform="matrix(0.985918,0,0,0.985918,326.080036,30.427845)">
                    <path d="M484.627,447.444C483.603,478.197 449.632,475.623 449.632,475.623C424.102,473.841 423.157,450.841 423.157,450.841L421.928,347.416L481.361,347.416L484.627,447.444Z" style="fill:rgb(250,235,235);"/>
                </g>
                <g transform="matrix(0.985918,0,0,0.985918,189.528902,30.565764)">
                    <path d="M474.35,446.677C468.028,479.448 432.323,473.975 432.323,473.975C400.156,466.272 405.732,441.149 405.732,441.149L428.53,347.416L486.495,347.416L474.35,446.677Z" style="fill:rgb(250,235,235);"/>
                </g>
            </g>
        </g>
    </g>
</svg>
