<?xml version="1.0" encoding="UTF-8" standalone="no"?>
<!DOCTYPE svg PUBLIC "-//W3C//DTD SVG 1.1//EN" "http://www.w3.org/Graphics/SVG/1.1/DTD/svg11.dtd">
<svg width="100%" height="100%" viewBox="0 0 1359 318" version="1.1" xmlns="http://www.w3.org/2000/svg" xmlns:xlink="http://www.w3.org/1999/xlink" xml:space="preserve" xmlns:serif="http://www.serif.com/" style="fill-rule:evenodd;clip-rule:evenodd;stroke-linejoin:round;stroke-miterlimit:2;">
    <g transform="matrix(1,0,0,1,-7818.199341,-6022.271383)">
        <g transform="matrix(1.276754,0,0,1.897866,-2116.350918,-3543.870901)">
            <g transform="matrix(0.772353,0,0,0.526907,7708.193635,4415.295226)">
                <g transform="matrix(1.01366,0,0,1,-75.899085,1861.943304)">
                    <rect x="168.001" y="-647.125" width="1359.406" height="261.31" style="fill:rgb(63,62,70);"/>
                </g>
                <g transform="matrix(1.014092,0,0,1,-76.558981,1566.434027)">
                    <rect x="168.58" y="-379.932" width="1358.827" height="21.317" style="fill:rgb(63,62,70);"/>
                </g>
                <g transform="matrix(1.014092,0,0,1,-76.558981,1863.060935)">
                    <rect x="168.58" y="-379.932" width="1358.827" height="21.317" style="fill:rgb(63,62,70);"/>
                </g>
                <g transform="matrix(1.138617,0,0,0.5,34.401897,1156.044958)">
                    <path d="M235.232,378.857C235.232,383.999 233.373,388.173 231.084,388.173L123.562,388.173C121.273,388.173 119.414,383.999 119.414,378.857C119.414,373.716 121.273,369.541 123.562,369.541L231.084,369.541C233.373,369.541 235.232,373.716 235.232,378.857Z" style="fill:white;"/>
                </g>
                <g transform="matrix(0.456866,0,0,0.5,294.082408,1156.044958)">
                    <path d="M235.232,378.857C235.232,383.999 230.599,388.173 224.893,388.173L129.753,388.173C124.047,388.173 119.414,383.999 119.414,378.857C119.414,373.716 124.047,369.541 129.753,369.541L224.893,369.541C230.599,369.541 235.232,373.716 235.232,378.857Z" style="fill:white;"/>
                </g>
                <g transform="matrix(0.456866,0,0,0.5,569.835074,1156.044958)">
                    <path d="M235.232,378.857C235.232,383.999 230.599,388.173 224.893,388.173L129.753,388.173C124.047,388.173 119.414,383.999 119.414,378.857C119.414,373.716 124.047,369.541 129.753,369.541L224.893,369.541C230.599,369.541 235.232,373.716 235.232,378.857Z" style="fill:white;"/>
                </g>
                <g transform="matrix(0.456866,0,0,0.5,848.14104,1156.044958)">
                    <path d="M235.232,378.857C235.232,383.999 230.599,388.173 224.893,388.173L129.753,388.173C124.047,388.173 119.414,383.999 119.414,378.857C119.414,373.716 124.047,369.541 129.753,369.541L224.893,369.541C230.599,369.541 235.232,373.716 235.232,378.857Z" style="fill:white;"/>
                </g>
                <g transform="matrix(0.456866,0,0,0.5,1128.361949,1156.044958)">
                    <path d="M235.232,378.857C235.232,383.999 230.599,388.173 224.893,388.173L129.753,388.173C124.047,388.173 119.414,383.999 119.414,378.857C119.414,373.716 124.047,369.541 129.753,369.541L224.893,369.541C230.599,369.541 235.232,373.716 235.232,378.857Z" style="fill:white;"/>
                </g>
                <g transform="matrix(1.138617,0,0,0.5,310.908452,1156.044958)">
                    <path d="M235.232,378.857C235.232,383.999 233.373,388.173 231.084,388.173L123.562,388.173C121.273,388.173 119.414,383.999 119.414,378.857C119.414,373.716 121.273,369.541 123.562,369.541L231.084,369.541C233.373,369.541 235.232,373.716 235.232,378.857Z" style="fill:white;"/>
                </g>
                <g transform="matrix(1.138617,0,0,0.5,581.481411,1156.044958)">
                    <path d="M235.232,378.857C235.232,383.999 233.373,388.173 231.084,388.173L123.562,388.173C121.273,388.173 119.414,383.999 119.414,378.857C119.414,373.716 121.273,369.541 123.562,369.541L231.084,369.541C233.373,369.541 235.232,373.716 235.232,378.857Z" style="fill:white;"/>
                </g>
                <g transform="matrix(1.138617,0,0,0.5,867.075759,1156.044958)">
                    <path d="M235.232,378.857C235.232,383.999 233.373,388.173 231.084,388.173L123.562,388.173C121.273,388.173 119.414,383.999 119.414,378.857C119.414,373.716 121.273,369.541 123.562,369.541L231.084,369.541C233.373,369.541 235.232,373.716 235.232,378.857Z" style="fill:white;"/>
                </g>
                <g transform="matrix(1.138617,0,0,0.5,1143.582314,1156.044958)">
                    <path d="M235.232,378.857C235.232,383.999 233.373,388.173 231.084,388.173L123.562,388.173C121.273,388.173 119.414,383.999 119.414,378.857C119.414,373.716 121.273,369.541 123.562,369.541L231.084,369.541C233.373,369.541 235.232,373.716 235.232,378.857Z" style="fill:white;"/>
                </g>
            </g>
        </g>
    </g>
</svg>
