<?xml version="1.0" encoding="UTF-8" standalone="no"?>
<!DOCTYPE svg PUBLIC "-//W3C//DTD SVG 1.1//EN" "http://www.w3.org/Graphics/SVG/1.1/DTD/svg11.dtd">
<svg width="100%" height="100%" viewBox="0 0 925 423" version="1.1" xmlns="http://www.w3.org/2000/svg" xmlns:xlink="http://www.w3.org/1999/xlink" xml:space="preserve" xmlns:serif="http://www.serif.com/" style="fill-rule:evenodd;clip-rule:evenodd;stroke-linejoin:round;stroke-miterlimit:2;">
    <g transform="matrix(1,0,0,1,-13427.091711,-7773.887616)">
        <g transform="matrix(1.95055,0,0,2.756375,-7265.768949,-6854.068498)">
            <g transform="matrix(0.512676,0,0,0.362795,10537.853264,5165.898624)">
                <g transform="matrix(1.171875,0,0,1.171875,0,0)">
                    <path d="M303.482,692.084C299.953,692.065 277.052,691.939 260.772,681.078C230.127,660.632 232.094,639.204 226.493,638.846C211.815,637.909 179.124,641.239 168.407,636.715C163.493,634.641 125.521,647.538 118.715,619.453C115.545,606.371 122.957,592.661 132.467,589.42C132.886,589.277 137.308,587.77 137.168,586.512C129.59,518.171 151.333,524.229 156.541,522.632C158.264,522.104 173.786,502.345 228.469,485.396C311.099,459.784 319.182,472.435 336.008,447.181C392.189,362.858 463.501,321.937 572.468,333.787C670.481,344.445 715.003,429.973 747.785,453.097C785.214,479.499 822.862,472.643 852.978,527.174C854.824,530.517 872.899,513.9 883.723,544.425C890.647,563.949 882.903,578.384 885.465,578.61C888.026,578.836 900.583,576.559 905.63,592.462C905.735,592.795 911.48,620.909 893.554,626.661C890.721,627.57 871.605,629.393 862.554,626.344C858.814,625.084 859.153,631.352 813.501,631.624C804.88,631.676 799.26,631.225 798.676,633.557C780.379,706.628 679.267,716.203 653.739,636.405C652.9,633.783 651.461,635.112 420.503,636.832C373.051,637.186 372.342,636.886 371.627,638.567C369.483,643.61 357.413,688.159 303.482,692.084Z" style="fill:rgb(5,2,2);"/>
                </g>
                <g transform="matrix(1.171875,0,0,1.171875,0,0)">
                    <path d="M190.496,628.106C188.178,628.114 176.614,628.925 177.631,626.535C178.038,625.579 183.278,619.33 181.139,607.585C176.655,582.967 150.142,589.135 148.781,587.281C145.57,582.904 166.143,588.432 170.185,556.462C172.871,535.215 163.648,530.264 167.868,526.893C219.797,485.411 307.406,482.605 329.259,469.098C346.109,458.682 353.348,433.577 386.758,401.779C387.211,401.348 446.769,330.621 567.457,343.945C638.553,351.795 675.528,393.503 700.109,418.848C723.439,442.903 724.713,458.527 777.606,480.224C824.176,499.327 843.332,514.679 851.992,562.426C855.276,580.532 860.945,580.389 857.955,583.876C846.969,596.688 857.29,616.738 852.675,617.902C835.033,622.353 801.412,621.265 800.594,620.415C797.455,617.156 801.601,604.917 792.002,584.717C788.224,576.766 767.155,545.24 727.499,544.523C682.813,543.715 653.047,580.497 651.831,614.521C651.537,622.727 652.297,623.298 650.712,623.904C649.386,624.411 458.394,625.604 437.489,626.073C432.478,626.186 376.642,627.438 374.831,626.084C372.433,624.291 382.412,581.822 336.235,553.961C297.583,530.641 228.425,551.644 226.041,617.497C225.707,626.706 226.578,627.584 224.617,627.969C223.794,628.131 223.804,628.05 190.496,628.106Z" style="fill:rgb(255,222,33);"/>
                </g>
                <g transform="matrix(1.171875,0,0,1.171875,0,0)">
                    <path d="M392.5,477.876C386.104,477.868 373.592,480.043 365.696,468.37C351.658,447.618 401.267,401.436 407.586,396.599C414.689,391.161 452.909,358.289 508.506,357.987C521.322,357.918 534.646,365.672 534.794,383.497C535.395,455.925 534.705,457.467 532.092,463.296C530.1,467.741 521.497,476.023 511.512,476.63C510.92,476.666 449.235,477.677 392.5,477.876Z" style="fill:rgb(5,2,2);"/>
                </g>
                <g transform="matrix(1.171875,0,0,1.171875,0,0)">
                    <path d="M573.532,361.058C642.562,372.017 692.742,437.698 693.75,450.481C693.937,452.852 695.287,469.962 677.45,475.34C671.992,476.985 574.52,478.006 567.455,475.633C545.919,468.397 549.217,451.976 549.214,423.497C549.209,379.709 546.581,367.789 564.618,361.842C568.625,360.521 572.48,361.014 573.532,361.058Z" style="fill:rgb(5,2,2);"/>
                </g>
                <g transform="matrix(1.171875,0,0,1.171875,0,0)">
                    <path d="M524.109,378.605C524.625,383.62 526.281,453.202 523.073,458.258C515.525,470.156 511.308,465.731 430.494,467.07C379.165,467.92 378.476,467.739 375.584,464.425C370.73,458.863 373.603,450.598 389.081,430.186C402.595,412.366 438.146,378.298 486.459,370.254C520.359,364.61 521.602,373.255 524.109,378.605Z" style="fill:rgb(180,234,228);"/>
                </g>
                <g transform="matrix(1.171875,0,0,1.171875,0,0)">
                    <path d="M664.496,466.229C571.964,466.563 571.549,467.12 566.665,464.224C557.592,458.844 559.609,456.263 559.409,395.5C559.389,389.525 555.65,366.932 577.411,371.939C640.39,386.43 684.119,443.67 683.828,453.5C683.803,454.355 683.637,459.951 679.241,463.16C673.487,467.362 665.054,466.219 664.496,466.229Z" style="fill:rgb(180,234,228);"/>
                </g>
                <g transform="matrix(1.171875,0,0,1.171875,0,0)">
                    <path d="M612.499,605.196C613.098,605.271 618.242,605.912 618.719,609.462C619.777,617.328 608.944,615.866 608.502,615.867C549.108,616.011 413.333,617.678 411.498,617.667C403.91,617.618 405.122,610.653 405.709,609.6C408.058,605.39 409.836,607.853 612.499,605.196Z" style="fill:rgb(5,2,2);"/>
                </g>
                <g transform="matrix(1.171875,0,0,1.171875,0,0)">
                    <path d="M490.894,488.526C495.75,488.452 521.52,486.61 523.6,500.475C523.896,502.444 524.144,515.985 508.5,516.561C475.836,517.763 472.898,515.379 470.531,513.458C468.464,511.781 461.267,505.968 466.308,497.426C472.256,487.347 486.069,488.599 490.894,488.526Z" style="fill:rgb(5,2,2);"/>
                </g>
                <g transform="matrix(1.171875,0,0,1.171875,0,0)">
                    <path d="M537.047,536.5C537.089,491.67 535.866,487.13 542.238,487.202C548.019,487.268 547.027,490.539 547.284,564.5C547.349,582.996 548.033,595.35 542.153,594.703C536.628,594.096 537.178,590.864 537.047,536.5Z" style="fill:rgb(5,2,2);"/>
                </g>
                <g transform="matrix(1.171875,0,0,1.171875,0,0)">
                    <path d="M138.557,598.849C149.195,597.139 170.392,596.092 170.874,611.485C171.44,629.528 156.069,626.848 141.499,626.834C125.762,626.819 123.625,601.955 138.557,598.849Z" style="fill:rgb(192,193,195);"/>
                </g>
                <g transform="matrix(1.171875,0,0,1.171875,0,0)">
                    <path d="M877.5,617.121C871.409,617.086 863.602,619.601 863.484,606.5C863.464,604.178 861.312,589.642 870.495,589.414C886.918,589.005 895.582,587.683 895.652,598.498C895.668,600.98 895.979,610.87 894.283,613.373C890.892,618.378 884.271,617.101 877.5,617.121Z" style="fill:rgb(192,193,195);"/>
                </g>
                <g transform="matrix(1.171875,0,0,1.171875,0,0)">
                    <path d="M463.791,390.015C466.817,388.78 481.26,382.732 485.003,388.87C492.484,401.14 474.349,405.614 466.267,409.883C432.407,427.768 432.509,408.088 437.848,403.882C445.118,398.156 456.153,393.129 463.791,390.015Z" style="fill:rgb(250,253,254);"/>
                </g>
                <g transform="matrix(1.16742,0.102081,-0.102081,1.16742,54.185104,-77.241231)">
                    <path d="M600.437,424.839C596.622,422.695 590.959,419.647 592.624,414.524C596.217,403.467 609.753,412.656 621.491,418.863C633.719,425.328 624.294,436.082 616.721,432.562C613.68,431.149 604.921,427.359 600.437,424.839Z" style="fill:rgb(250,254,253);"/>
                </g>
                <g transform="matrix(1.171875,0,0,1.171875,0,0)">
                    <path d="M860.918,551.414C859.993,547.103 857.69,539.84 859.89,537.949C871.944,527.587 881.484,569.822 872.369,573.033C864.296,575.876 862.637,559.999 860.918,551.414Z" style="fill:rgb(246,184,65);"/>
                </g>
                <g transform="matrix(1.171875,0,0,1.171875,0,0)">
                    <path d="M161.283,556.866C160.428,570.366 155.285,573.938 148.448,574.087C146.72,574.125 145.442,573.524 146.95,552.529C147.064,550.948 148.746,527.527 157.344,535.663C162.624,540.66 161.71,550.12 161.283,556.866Z" style="fill:rgb(246,184,65);"/>
                </g>
                <g transform="matrix(1.171875,0,0,1.171875,0,0)">
                    <path d="M480.489,499.178C506.914,499.164 514.704,498.18 513.184,503.426C512.454,505.948 511.711,506.946 480.503,506.372C474.225,506.257 473.121,499.999 480.489,499.178Z" style="fill:rgb(192,193,195);"/>
                </g>
                <g transform="matrix(1.032523,0,0,1.032523,-37.7889,-35.399893)">
                    <circle cx="766.207" cy="516.639" r="6.96" style="fill:rgb(247,254,253);"/>
                </g>
                <g transform="matrix(0.923596,0,0,0.914957,193.006658,-65.828422)">
                    <circle cx="712.033" cy="864.095" r="81.129" style="fill:rgb(40,44,48);"/>
                </g>
                <g transform="matrix(1.08391,0,0,1.08391,-91.77863,-235.330449)">
                    <circle cx="869.46" cy="885.785" r="42.964" style="fill:rgb(1,1,2);"/>
                </g>
                <g transform="matrix(1.098806,0,0,1.098806,396.314617,-58.959216)">
                    <circle cx="413.477" cy="713.38" r="17.15" style="fill:rgb(192,193,195);"/>
                </g>
                <g transform="matrix(0.933259,0,0,0.933259,441.27073,30.853724)">
                    <path d="M438.643,706.04C459.347,706.04 476.156,722.849 476.156,743.553C476.156,764.257 459.347,781.066 438.643,781.066C417.939,781.066 401.13,764.257 401.13,743.553C401.13,722.849 417.939,706.04 438.643,706.04ZM438.643,711.404C456.386,711.404 470.792,725.809 470.792,743.553C470.792,761.296 456.386,775.702 438.643,775.702C420.899,775.702 406.494,761.296 406.494,743.553C406.494,725.809 420.899,711.404 438.643,711.404Z" style="fill:rgb(192,193,195);"/>
                </g>
                <g transform="matrix(0.923596,0,0,0.914957,-306.481194,-65.828422)">
                    <circle cx="712.033" cy="864.095" r="81.129" style="fill:rgb(40,44,48);"/>
                </g>
                <g transform="matrix(1.08391,0,0,1.08391,-591.266481,-235.330449)">
                    <circle cx="869.46" cy="885.785" r="42.964" style="fill:rgb(1,1,2);"/>
                </g>
                <g transform="matrix(1.098806,0,0,1.098806,-103.173234,-58.959216)">
                    <circle cx="413.477" cy="713.38" r="17.15" style="fill:rgb(192,193,195);"/>
                </g>
                <g transform="matrix(0.933259,0,0,0.933259,-58.217122,30.853724)">
                    <path d="M438.643,706.04C459.347,706.04 476.156,722.849 476.156,743.553C476.156,764.257 459.347,781.066 438.643,781.066C417.939,781.066 401.13,764.257 401.13,743.553C401.13,722.849 417.939,706.04 438.643,706.04ZM438.643,711.404C456.386,711.404 470.792,725.809 470.792,743.553C470.792,761.296 456.386,775.702 438.643,775.702C420.899,775.702 406.494,761.296 406.494,743.553C406.494,725.809 420.899,711.404 438.643,711.404Z" style="fill:rgb(192,193,195);"/>
                </g>
            </g>
        </g>
    </g>
</svg>
