<?xml version="1.0" encoding="UTF-8" standalone="no"?>
<!DOCTYPE svg PUBLIC "-//W3C//DTD SVG 1.1//EN" "http://www.w3.org/Graphics/SVG/1.1/DTD/svg11.dtd">
<svg width="100%" height="100%" viewBox="0 0 316 375" version="1.1" xmlns="http://www.w3.org/2000/svg" xmlns:xlink="http://www.w3.org/1999/xlink" xml:space="preserve" xmlns:serif="http://www.serif.com/" style="fill-rule:evenodd;clip-rule:evenodd;stroke-linecap:round;stroke-linejoin:round;stroke-miterlimit:1.5;">
    <g transform="matrix(1,0,0,1,-10609.573328,-4761.52989)">
        <g transform="matrix(1,0,0,1,-0.228456,-0.941977)">
            <g transform="matrix(1.572378,0,0,1.572378,9823.939629,3984.970715)">
                <path d="M583.694,654.208C560.369,662.134 544.864,655.863 544.864,655.863C503.704,638.833 500.594,600 500.594,600C500.594,600 490.673,530.304 560.7,501.126C560.7,501.126 621.681,478.776 663.406,518.049C663.406,518.049 708.178,552.238 698.608,612.228C698.608,612.228 695.111,672.915 643.321,716.455C602.567,750.718 615.826,719.515 615.826,719.515C631.15,685.797 629.068,657.253 629.068,657.253C628.423,650.411 628.918,645.304 624.115,640.594C613.296,629.982 604.735,640.583 604.735,640.583C593.274,651.25 583.694,654.208 583.694,654.208" style="stroke:black;stroke-width:0.64px;"/>
                <path d="M551.433,523.563C527.858,539.279 520.324,566.154 519.092,570.548" style="fill:none;stroke:white;stroke-width:3.12px;"/>
                <g transform="matrix(0.904994,-0.425425,0.425425,0.904994,-186.467153,300.929024)">
                    <path d="M517.912,606.726C521.803,615.769 524.944,618.96 530.511,624.115" style="fill:none;stroke:white;stroke-width:3.12px;"/>
                </g>
            </g>
        </g>
    </g>
</svg>
