<?xml version="1.0" encoding="UTF-8" standalone="no"?>
<!DOCTYPE svg PUBLIC "-//W3C//DTD SVG 1.1//EN" "http://www.w3.org/Graphics/SVG/1.1/DTD/svg11.dtd">
<svg width="100%" height="100%" viewBox="0 0 369 372" version="1.1" xmlns="http://www.w3.org/2000/svg" xmlns:xlink="http://www.w3.org/1999/xlink" xml:space="preserve" xmlns:serif="http://www.serif.com/" style="fill-rule:evenodd;clip-rule:evenodd;stroke-linejoin:round;stroke-miterlimit:2;">
    <g transform="matrix(1,0,0,1,-10048.727725,-4150.336702)">
        <g transform="matrix(1,0,0,1,-0.228456,-0.941977)">
            <g id="Fondo" transform="matrix(0.628737,0,0,0.628737,9909.958307,4017.578356)">
                <path d="M621.712,245.115C624.955,247.397 624.737,247.625 627.603,250.387C630.051,252.747 631.769,254.224 633.465,256.528C633.734,256.893 637.649,260.884 642.901,269.24C646.516,274.994 646.55,274.947 650.261,280.644C650.437,280.914 651.345,283.187 654.828,286.145C656.782,287.805 657.265,286.673 660.659,288.137C666.626,290.711 666.845,290.218 669.34,291.771C670.543,292.521 672.955,293.112 674.379,293.789C675.475,294.31 676.56,294.487 679.331,295.853C679.345,295.86 682.038,297.403 684.502,298.496C685.67,299.013 689.275,300.925 689.686,301.143C695.24,304.087 695.058,304.37 700.551,307.418C700.82,307.567 706.781,311.451 707.321,311.803C709.42,313.171 709.278,313.368 711.5,314.5C711.735,314.62 723.488,323.399 724.086,323.972C727.205,326.956 734.502,332.796 737.237,335.759C737.543,336.09 737.647,335.983 741.22,339.743C741.969,340.531 741.956,340.525 742.737,341.27C742.737,341.27 745.412,348.16 745.881,349.672C747.682,355.485 749.194,358.414 750.15,361.032C750.684,362.495 750.685,362.311 752.653,367.07C755.655,374.332 756.702,375.685 760.544,385.375C760.768,385.941 760.614,386.171 763.243,392.671C763.921,394.347 766.11,400.345 766.35,400.985C767.149,403.119 771.403,413.743 775.468,427.618C777.516,434.61 777.053,434.639 779.092,441.646C779.187,441.974 781.473,452.199 782.458,458.828C783.28,464.358 783.58,464.321 784.255,469.876C784.774,474.141 785.113,473.887 785.716,482.733C785.936,485.968 788.332,496.017 786.788,531.231C786.725,532.677 784.574,555.17 783.505,561.665C782.435,568.163 782.381,567.607 781.297,574.104C780.875,576.634 780.422,577.149 780.028,579.685C779.626,582.265 776.575,593.862 775.31,596.978C774.57,598.801 771.687,608.326 766.267,617.495C765.491,618.808 765.845,619.884 756.935,632.012C756.773,632.233 746.714,644.261 743.283,648.043C739.004,652.761 739.604,653.459 735.224,658.099C734.473,658.894 727.71,665.142 727.094,665.809C724.083,669.067 724.037,668.358 719.334,673.38C717.884,674.928 717.385,675.386 715.937,676.952C715.171,677.781 714.981,677.153 705.772,686.327C705.369,686.728 705.279,686.781 700.443,691.183C699.896,691.681 696.509,694.623 693.375,697.343C688.6,701.488 688.711,701.449 686.442,703.306C686.042,703.634 683.64,705.784 682.038,706.888C678.82,709.105 678.948,709.39 675.752,711.646C671.247,714.825 671.129,714.729 669.354,716.22C668.422,717.004 668.736,717.139 657.126,724.994C645.941,732.562 639.157,735.653 637.552,736.464C635.446,737.528 629.862,740.894 627.72,741.802C625.04,742.938 619.588,745.719 618.885,746.073C617.279,746.882 603.148,752.926 601.539,753.457C589.65,757.38 589.834,757.837 577.771,761.204C573.084,762.512 562.065,765.205 558.557,765.707C555.062,766.206 550.175,767.302 549.455,767.465C545.598,768.337 523.829,771.177 502.488,771.506C482.478,771.813 482.466,772.404 462.466,772.311C456.426,772.282 444.842,771.583 439.613,770.585C439.186,770.503 431.754,769.057 425.992,765.87C418.577,761.768 420.386,758.778 411.394,750.662C406.427,746.179 402.434,746.425 395.478,744.863C393.228,744.358 393.312,744.74 382.632,742.833C367.391,740.111 362.343,737.905 356.536,736.669C355.795,736.512 355.023,736.309 347.356,733.795C345.765,733.273 337.452,729.904 336.586,729.551C335.817,729.237 325.513,724.685 324.29,724.037C314.862,719.035 314.716,719.158 310.128,716.157C309.494,715.743 309.457,715.884 302.145,711.148C300.078,709.808 296.222,707.401 289.562,702.345C288.997,701.917 288.01,700.959 287.405,700.622C287.17,700.491 281.213,695.97 279.112,695.821C276.758,693.191 277.008,693.021 274.793,690.268C272.538,687.464 272.921,687.222 270.786,684.305C270.634,684.098 266.568,678.17 264.873,675.274C261.392,669.327 261.433,669.32 261.054,668.858C259.03,666.391 259.839,665.955 257.81,662.342C257.558,661.893 255.079,656.806 254.012,654.758C253.763,654.281 253.811,654.265 251.2,648.649C250.792,647.772 250.922,647.733 246.755,637.403C246.089,635.751 245.601,632.374 243.855,628.357C242.722,625.749 235.259,598.319 234.712,589.493C234.657,588.592 234.575,588.574 235.483,585.518C245.05,590.617 254.096,596.357 268.183,587.036C274.103,583.119 278.388,576.339 279.074,575.254C283.148,568.808 285.926,553.897 279.349,543.593C276.659,539.379 273.36,534.304 263.771,528.063C246.262,516.668 230.108,523.169 227.394,524.262C225.613,524.978 225.651,525.023 223.865,525.672C223.65,525.231 222.785,524.063 222.664,522.475C222.057,514.477 221.83,514.509 221.461,506.502C221.178,500.347 221.01,500.36 221.099,490.494C221.185,480.954 221.347,480.975 222.016,471.469C222.723,461.428 223.26,461.501 224.26,451.474C224.456,449.498 226.356,439.629 228.356,432.463C229.638,427.872 229.433,427.821 231.151,423.365C232.464,419.962 231.783,419.74 233.33,416.428C233.686,415.665 237.432,406.073 238.753,403.635C239.629,402.017 242.74,394.228 252.239,380.345C257.099,373.242 258.656,371.819 259.087,371.181C259.98,369.857 259.885,369.804 260.836,368.808C263.164,366.372 265.271,362.603 267.068,360.15C267.935,358.967 269.239,356.749 269.416,356.447C270.316,354.916 272.072,353.849 272.328,353.389C272.507,353.067 272.644,351.664 274.645,349.636C276.491,347.766 282.382,340.428 285.842,336.827C287.316,335.294 287.033,335.055 288.648,333.676C291.954,330.855 291.506,330.386 294.772,327.812C296.898,326.135 296.83,325.474 298.804,323.871C302.467,320.897 306.969,316.345 307.648,315.659C309.127,314.164 309.706,314.112 310.834,312.833C312.255,311.221 312.579,311.556 313.894,309.874C315.152,308.265 318.299,305.9 321.442,302.445C324.777,298.779 325.01,299.034 328.383,295.38C328.948,294.767 335.472,289.043 341.266,282.273C343.586,279.562 356.72,266.665 358.903,264.97C361.736,262.771 361.659,262.698 364.37,260.364C366.124,258.854 366.39,259.226 368.37,257.357C372.013,253.919 379.975,248.915 382.157,247.062C383.791,245.674 384.101,246.208 385.86,244.98C390.975,241.408 391.301,241.964 396.575,238.625C396.599,238.609 407.851,232.866 408.543,232.589C409.952,232.025 412.552,231.145 414.359,230.184C416.608,228.987 419.947,228.356 422.736,226.961C425.358,225.65 447.763,218.965 451.48,218.406C456.544,217.644 456.53,217.666 461.519,216.605C463.212,216.245 484.252,212.704 502.5,212.685C512.008,212.675 514.968,212.502 519.536,213.015C523.83,213.497 523.861,212.943 532.535,214.098C543.565,215.566 543.632,215.034 554.537,217.293C562.997,219.046 563.144,218.338 571.426,220.775C573.401,221.356 579.839,223.086 580.572,223.283C581.217,223.456 589.746,226.41 590.417,226.694C590.674,226.803 596.834,229.523 599.259,230.971C601.406,232.254 601.656,231.717 603.761,233.053C607.169,235.218 607.282,234.99 610.677,237.189C611.609,237.792 612.007,237.815 613.771,239.136C617.757,242.121 618.02,241.767 621.712,245.115Z" style="fill:rgb(247,206,149);"/>
                <path d="M742.737,341.27C747.857,346.583 759.006,360.25 760.518,362.486C760.648,362.678 764.736,368.298 765.103,368.803C769.465,374.799 772.814,380.496 773.431,381.546C773.697,381.999 775.577,385.048 775.765,385.352C776.24,386.122 784.742,401.696 785.786,404.367C785.97,404.838 785.816,404.891 787.897,410.329C788.423,411.703 788.354,411.703 794.185,427.605C795.209,430.397 794.802,430.519 797.281,437.577C800.246,446.017 804.745,468.112 805.382,475.512C807.943,505.306 808.118,511.538 805.469,540.496C804.854,547.219 803.643,551.176 802.029,560.433C800.177,571.047 796.695,581.572 796.1,583.372C794.553,588.048 794.992,588.18 792.592,594.534C791.47,597.502 791.835,597.626 790.495,600.498C790.2,601.129 782.052,622.145 778.774,627.654C777.622,629.591 778.01,629.763 776.934,631.735C774.254,636.647 774.363,636.689 771.669,641.592C768.85,646.724 769.061,646.826 765.87,651.741C765.391,652.479 764.847,653.927 763.244,656.326C762.912,656.821 756.444,667.861 752.216,673.286C750.917,674.954 751.205,675.132 749.843,676.776C747.623,679.456 748.023,679.742 744.699,683.673C744.111,684.369 744.252,684.474 737.73,692.688C737.619,692.829 736.423,694.594 735.091,696.112C734.973,696.246 723.68,709.23 722.441,710.44C721.671,711.191 721.888,711.395 713.102,720.114C712.102,721.106 712.099,721.085 711.104,722.095C709.881,723.336 709.96,723.389 708.062,725.019C702.723,729.606 700.799,732.197 693.218,738.159C689.278,741.258 689.353,741.32 685.405,744.38C683.106,746.163 683.214,746.288 680.783,747.902C679.077,749.035 679.291,749.319 676.295,751.188C675.843,751.47 675.916,751.569 670.811,754.969C669.402,755.908 669.604,756.154 668.186,757.057C667.888,757.247 667.888,757.243 664.438,759.403C647.259,770.155 646.991,769.651 642.772,771.969C641.834,772.485 641.963,772.666 640.434,773.38C634.96,775.935 635.051,776.082 629.471,778.433C628.878,778.684 626.386,780.24 621.391,782.243C598.053,791.602 593.018,792.645 574.476,797.391C573.729,797.583 550.686,802.471 536.529,802.935C529.101,803.178 523.572,803.93 505.484,802.754C498.42,802.295 490.746,800.878 489.475,800.643C480.398,798.966 480.317,799.354 473.551,797.336C470.478,796.42 470.458,796.518 463.526,794.424C462.871,794.226 462.903,794.176 455.406,791.757C454.047,791.318 442.637,787.005 437.222,783.938C435.879,783.177 430.338,780.922 427.676,779.191C425.461,777.75 425.226,778.187 423.271,776.843C422.03,775.99 413.064,771.249 407.627,767.306C401.552,762.901 397.719,762.498 389.534,761.272C388.502,761.117 374.918,758.259 372.471,757.601C370.996,757.205 358.4,753.495 350.582,750.301C348.959,749.637 341.113,746.431 330.621,741.245C329.214,740.51 327.563,739.549 322.709,737.163C320.582,736.118 318.931,734.584 312.314,729.757C310.696,728.577 304.167,722.88 303.631,722.361C303.114,721.86 303.135,721.862 302.61,721.377C296.38,715.611 296.59,715.416 290.618,709.383C288.805,707.552 287.682,705.743 284.133,701.843C282.093,699.6 280.718,697.486 279.112,695.821C280.936,694.93 289.093,701.821 289.657,702.25C296.317,707.306 300.211,709.476 302.278,710.816C309.59,715.552 309.693,715.377 310.327,715.792C314.916,718.792 315.028,718.57 324.456,723.571C325.679,724.22 335.883,728.805 336.652,729.119C337.518,729.472 345.931,732.908 347.522,733.43C355.189,735.944 355.828,736.08 356.569,736.237C362.376,737.473 367.291,739.613 382.532,742.335C393.212,744.242 393.262,743.926 395.512,744.431C402.467,745.993 406.693,745.813 411.659,750.296C420.652,758.413 418.943,761.668 426.357,765.77C432.119,768.958 439.153,769.971 439.58,770.053C444.808,771.051 456.459,771.717 462.499,771.746C482.499,771.839 482.478,771.441 502.488,771.133C523.829,770.805 545.577,768.082 549.434,767.21C550.154,767.047 554.998,765.951 558.493,765.452C562.002,764.95 572.935,762.236 577.622,760.928C589.685,757.561 589.523,757.103 601.411,753.181C603.02,752.65 617.075,746.678 618.681,745.869C619.384,745.515 624.87,742.75 627.55,741.615C629.692,740.707 635.293,737.392 637.399,736.328C639.004,735.517 645.443,732.263 656.628,724.695C668.237,716.84 668.258,716.868 669.191,716.084C670.965,714.593 670.883,714.513 675.388,711.334C678.584,709.079 678.301,708.742 681.519,706.524C683.121,705.421 685.367,703.166 685.767,702.839C688.036,700.982 688.132,701.125 692.907,696.98C696.042,694.259 699.273,691.318 699.82,690.819C704.656,686.417 704.746,686.521 705.149,686.12C714.358,676.945 714.441,677.051 715.207,676.222C716.655,674.656 716.749,674.766 718.198,673.217C722.901,668.196 723.11,668.418 726.12,665.16C726.736,664.493 733.079,657.627 733.83,656.831C738.21,652.191 738.117,652.128 742.396,647.41C745.827,643.627 755.885,631.346 756.048,631.124C764.958,618.996 764.477,618.681 765.253,617.369C770.673,608.2 773.429,599.181 774.17,597.358C775.435,594.242 778.739,582.011 779.14,579.432C779.535,576.896 779.988,577.014 780.41,574.484C781.493,567.988 781.674,568.036 782.744,561.538C783.814,555.043 786.091,532.93 786.154,531.484C787.698,496.271 785.352,485.773 785.132,482.539C784.529,473.692 784.125,473.751 783.606,469.487C782.931,463.931 782.761,463.968 781.939,458.439C780.954,451.809 778.539,441.844 778.443,441.517C776.404,434.51 776.802,434.415 774.754,427.423C770.689,413.548 766.565,402.535 765.766,400.401C765.526,399.761 763.402,394.088 762.724,392.411C760.095,385.911 760.054,385.941 759.83,385.375C755.988,375.685 755.071,373.942 752.069,366.681C750.101,361.921 749.84,362.041 749.306,360.578C748.351,357.959 747.163,355.355 745.361,349.542C744.893,348.03 742.737,341.27 742.737,341.27Z" style="fill:rgb(227,161,106);"/>
                <path d="M430.352,639.425C425.528,649.206 421.109,653.114 415.569,657.588C408.947,662.937 389.262,672.929 367.704,664.021C367.114,663.777 359.981,659.958 358.777,659.111C343.967,648.693 340.317,634.997 339.642,632.461C333.789,610.499 343.998,595.085 345.995,591.819C346.332,591.267 349.173,587.856 349.462,587.467C349.967,586.786 357.656,577.472 370.413,573.226C389.614,566.836 410.246,572.018 424.203,588.748C428.11,593.431 432.289,601.053 433.504,607.499C435.067,615.794 436.529,625.753 430.352,639.425Z" style="fill:rgb(96,49,33);"/>
                <path d="M366.5,447.834C355.528,447.165 350.21,440.911 349.129,439.86C349.036,439.77 346.789,438.341 342.73,430.386C341.151,427.292 336.662,414.554 339.306,400.464C341.157,390.601 343.268,387.294 347.5,380.5C349.478,377.323 356.885,370.626 357.856,369.963C359.057,369.142 385.312,348.875 414.648,367.248C418.339,369.559 418.495,369.325 423.457,373.552C426.163,375.857 430.127,378.424 436.868,387.235C440.855,392.445 445.713,404.65 433.433,412.391C427.66,416.03 420.921,415.126 411.637,420.743C407.979,422.956 407.905,422.833 403.394,426.364C402.801,426.828 399.891,428.727 396.573,431.587C392.776,434.86 392.691,434.734 388.614,437.673C379.446,444.283 377.556,445.037 376.485,445.465C371.593,447.417 370.136,447.647 366.5,447.834Z" style="fill:rgb(96,49,33);"/>
                <path d="M539.499,377.068C529.212,376.888 515.73,375.468 506.316,366.686C505.705,366.116 502.419,363.051 501.275,357.548C499.837,350.627 502.618,349.881 501.799,337.476C501.369,330.955 500.137,322.333 509.081,313.067C520.465,301.273 553.277,290.466 571.305,303.783C574.921,306.454 581.004,310.77 581.244,320.51C581.439,328.409 582.133,328.342 585.718,335.386C585.859,335.663 597.416,352.571 578.71,366.783C576.242,368.658 574.6,369.556 568.39,372.249C563.244,374.48 552.645,376.62 542.521,376.945C541.001,376.994 541.021,377.006 539.499,377.068Z" style="fill:rgb(96,49,33);"/>
                <path d="M558.696,558.139C555.717,556.539 555.72,556.58 552.728,555.033C541.572,549.266 541.604,548.358 530.504,548.307C516.874,548.244 512.412,539.057 513.55,530.506C514.325,524.685 515.455,522.405 516.644,519.563C519.195,513.466 525,505.487 528.739,501.741C540.522,489.936 548.647,489.327 553.53,488.955C560.116,488.452 570.521,491.75 574.638,494.253C576.258,495.239 586.852,499.748 597.354,511.628C602.116,517.013 606.83,525.951 608.549,532.486C610.15,538.573 611.176,543.53 609.829,550.581C608.147,559.392 600.069,565.791 594.526,567.572C584.166,570.901 573.247,566.021 558.696,558.139Z" style="fill:rgb(96,49,33);"/>
                <path d="M518.651,721.388C505.322,704.039 517.394,687.914 519.305,685.358C523.514,679.731 526.831,677.222 529.231,675.175C545.607,661.203 555.756,661.245 556.463,661.179C566.332,660.247 572.924,663.895 578.231,666.965C584.088,670.353 596.64,683.381 597.455,697.502C598.059,707.963 594.331,707.338 591.366,709.272C585.639,713.008 584.76,714.533 580.36,718.342C564.38,732.173 557.936,737.071 547.496,737.419C542.034,737.601 536.174,735.481 533.31,733.831C525.195,729.154 522.473,726.008 518.651,721.388Z" style="fill:rgb(96,49,33);"/>
                <path d="M634.262,471.706C633.377,470.643 632.347,469.58 629.8,465.331C623.38,454.619 627.277,446.606 630.328,438.429C632.929,431.459 638.467,424.421 640.395,422.402C645.85,416.692 649.02,415.263 652.625,413.817C663.187,409.58 675.133,413.848 679.699,416.06C685.106,418.679 684.875,419.033 687.815,421.066C688.52,421.553 693.124,424.737 695.571,428.447C696.741,430.221 699.343,433.617 700.21,437.566C702.625,448.577 698.615,456.339 696.64,460.57C694.908,464.281 689.371,470.995 687.489,472.489C681.462,477.271 681.666,477.61 674.739,480.975C673.871,481.396 668.653,483.931 663.384,485.02C661.466,485.417 655.952,487.167 647.614,482.302C641.292,478.613 639.117,476.976 634.262,471.706Z" style="fill:rgb(96,49,33);"/>
                <path d="M223.865,525.672C225.651,525.023 225.613,524.978 227.394,524.262C230.108,523.169 246.262,516.668 263.771,528.063C273.36,534.304 276.659,539.379 279.349,543.593C285.926,553.897 283.148,568.808 279.074,575.254C278.388,576.339 274.103,583.119 268.183,587.036C254.096,596.357 245.05,590.617 235.483,585.518C235.128,585.213 233.986,585.203 233.453,581.505C233.228,579.951 232.963,575.029 232.933,574.465C232.202,560.881 225.356,545.015 223.411,528.511C223.172,526.481 223.811,525.862 223.865,525.672Z" style="fill:rgb(96,49,33);"/>
                <path d="M675.518,663.048C670.359,662.234 666.167,661.496 660.26,655.736C645.705,641.544 655.192,617.842 655.793,616.636C666.646,594.876 691.248,595.408 700.202,613.638C702.627,618.574 703.206,627.109 702.612,632.512C700.88,648.264 695.057,653.343 692.593,655.605C691.963,656.183 689.181,658.467 686.619,659.708C678.629,663.58 675.552,663.046 675.518,663.048Z" style="fill:rgb(96,49,33);"/>
                <path d="M483.366,273.386C479.626,277.35 475.204,280.126 464.411,285.314C459.562,287.645 453.658,290.505 449.295,285.677C445.764,281.771 445.865,276.03 445.893,274.517C446.04,266.793 451.776,259.108 462.431,257.161C463.771,256.916 471.824,255.444 479.233,259.935C479.386,260.028 484.998,263.682 485.516,267.497C485.917,270.457 483.535,273.163 483.366,273.386Z" style="fill:rgb(96,49,33);"/>
            </g>
        </g>
    </g>
</svg>
