<?xml version="1.0" encoding="UTF-8" standalone="no"?>
<!DOCTYPE svg PUBLIC "-//W3C//DTD SVG 1.1//EN" "http://www.w3.org/Graphics/SVG/1.1/DTD/svg11.dtd">
<svg width="100%" height="100%" viewBox="0 0 294 557" version="1.1" xmlns="http://www.w3.org/2000/svg" xmlns:xlink="http://www.w3.org/1999/xlink" xml:space="preserve" xmlns:serif="http://www.serif.com/" style="fill-rule:evenodd;clip-rule:evenodd;stroke-linejoin:round;stroke-miterlimit:2;">
    <g transform="matrix(1,0,0,1,-10541.959191,-4130.092429)">
        <g transform="matrix(1,0,0,1,-0.228456,-0.941977)">
            <g transform="matrix(1,0,0,1,0.228456,0.941977)">
                <path d="M10685.357,4475.879C10686.249,4473.86 10688.612,4472.943 10690.632,4473.834C10692.652,4474.725 10693.568,4477.089 10692.677,4479.108C10689.603,4486.076 10691.874,4493.369 10693.625,4501.227C10695.739,4510.716 10697.44,4520.869 10692.738,4531.959C10687.108,4545.238 10684.724,4552.69 10685.638,4558.771C10686.529,4564.699 10690.621,4569.074 10696.985,4576.409C10712.587,4594.393 10706.573,4610.412 10700.997,4627.896C10696.191,4642.966 10692.081,4659.288 10708.86,4679.709C10710.261,4681.415 10710.014,4683.938 10708.309,4685.339C10706.603,4686.741 10704.08,4686.494 10702.679,4684.788C10683.453,4661.389 10687.869,4642.733 10693.375,4625.465C10698.113,4610.609 10704.199,4596.933 10690.942,4581.652C10683.235,4572.768 10678.806,4567.139 10677.727,4559.96C10676.671,4552.933 10678.867,4544.18 10685.373,4528.836C10690.198,4517.457 10686.67,4507.23 10684.659,4497.758C10683.033,4490.1 10682.279,4482.857 10685.357,4475.879Z"/>
            </g>
            <g transform="matrix(1.171875,0,0,1.171875,10087.588882,3965.06749)">
                <path d="M518.495,466.349C516.585,466.45 511.15,466.665 509.046,466.547C504.587,466.298 498.599,467.036 498.736,463.519C498.842,460.798 502.992,461.012 505.829,454.637C508.678,448.233 507.657,447.146 504.517,446.428C498.649,445.085 493.802,443.882 480.389,436.698C479.249,436.088 474.519,432.821 472.598,431.366C468.917,428.577 468.821,428.743 465.194,425.903C465.055,425.795 463.893,424.884 463.496,424.505C461.679,422.769 461.494,423.026 459.586,421.399C455.774,418.149 450.09,413.215 440.322,402.665C437.187,399.28 437.366,399.149 434.236,395.735C431.459,392.706 425.121,384.392 424.956,384.167C396.028,344.732 389.988,313.148 388.207,289.523C387.48,279.888 388.238,265.367 389.538,258.506C390.235,254.827 390.267,252.726 392.32,244.459C393.725,238.798 393.414,238.724 395.39,233.459C396.501,230.499 396.407,230.489 397.559,227.524C399.754,221.882 399.694,221.879 402.303,216.407C405.586,209.522 405.603,209.55 408.641,204.594C412.196,198.796 414.381,194.143 425.159,182.193C431.816,174.812 432.031,175.052 439.444,168.438C444.285,164.119 453.399,158.552 454.668,157.777C459.848,154.613 467.316,151.022 470.617,149.805C478.133,147.033 494.321,140.368 520.478,141.833C533.983,142.589 544.42,146.06 546.424,146.726C554.841,149.525 554.99,149.246 560.636,152.195C562.826,153.339 564.472,153.694 570.603,157.328C574.352,159.55 580.162,163.673 580.316,163.776C585.328,167.109 585.07,167.411 589.716,171.25C597.084,177.337 607.987,190.142 611.048,194.814C611.46,195.444 613.837,199.073 616.234,202.664C618.285,205.738 624.695,216.777 628.208,226.616C628.584,227.668 637.646,249.531 638.107,276.507C638.445,296.339 636.099,310.031 630.583,328.529C629.744,331.343 624.98,343.444 623.095,347.3C615.529,362.778 614.789,363.079 613.566,365.536C612.62,367.436 605.077,379.138 602.312,382.352C601.93,382.796 596.953,389.893 592.246,395.296C581.866,407.208 579.347,409.82 567.563,420.573C564.859,423.04 553.82,431.543 550.546,433.567C548.089,435.086 548.099,435.435 544.396,437.299C544.213,437.391 540.897,439.339 539.317,440.115C521.974,448.623 518.05,444.737 518.267,449.509C518.294,450.105 519.056,456.59 523.882,460.023C524.408,460.398 527.93,461.945 526.677,464.604C526.078,465.876 523.736,466.106 523.452,466.134C523.057,466.173 523.06,466.107 518.495,466.349Z" style="fill:rgb(252,58,55);"/>
            </g>
            <g transform="matrix(1.171875,0,0,1.171875,10087.588882,3965.06749)">
                <path d="M413.331,230.495C413.421,229.607 413.936,224.535 415.809,219.616C420.088,208.378 425.037,202.079 426.611,199.571C427.939,197.455 428.082,197.573 429.567,195.56C432.411,191.704 436.131,188.112 436.56,187.557C438.983,184.421 440.943,183.33 445.591,179.617C448.458,177.328 457.243,172.485 463.271,175.9C467.276,178.168 468.246,181.874 468.416,182.523C470.582,190.789 464.406,198.049 464.222,198.327C460.96,203.238 459.113,204.9 457.163,207.219C451.014,214.535 449.566,216.894 448.829,217.78C446.372,220.732 446.519,220.824 444.158,224.271C439.682,230.803 439.606,230.739 435.432,237.453C429.841,246.447 422.193,246.06 418.301,242.741C413.39,238.555 413.367,233.381 413.331,230.495Z" style="fill:rgb(252,189,188);"/>
            </g>
            <g transform="matrix(1.171875,0,0,1.171875,10087.588882,3965.06749)">
                <path d="M435.48,354.749C435.153,354.665 434.808,354.664 434.481,354.579C429.816,353.379 426.226,344.254 425.228,342.655C422.515,338.309 416.917,323.288 415.389,317.529C413.699,311.161 407.203,291.205 409.186,261.479C409.767,252.761 417.049,253.431 419.385,254.703C423.012,256.678 423.153,259.969 423.177,260.525C423.607,270.577 420.725,289.371 428.089,317.603C430.211,325.741 431.179,327.354 432.187,330.593C435.12,340.018 437.283,343.268 439.153,347.641C441.482,353.087 437.314,354.607 436.533,354.727C436.186,354.78 435.827,354.696 435.48,354.749Z" style="fill:rgb(252,189,188);"/>
            </g>
        </g>
    </g>
</svg>
