<?xml version="1.0" encoding="UTF-8" standalone="no"?>
<!DOCTYPE svg PUBLIC "-//W3C//DTD SVG 1.1//EN" "http://www.w3.org/Graphics/SVG/1.1/DTD/svg11.dtd">
<svg width="100%" height="100%" viewBox="0 0 265 609" version="1.1" xmlns="http://www.w3.org/2000/svg" xmlns:xlink="http://www.w3.org/1999/xlink" xml:space="preserve" xmlns:serif="http://www.serif.com/" style="fill-rule:evenodd;clip-rule:evenodd;stroke-linecap:round;stroke-linejoin:round;stroke-miterlimit:1.5;">
    <g transform="matrix(1,0,0,1,-11930.009055,-7296.804994)">
        <g transform="matrix(1.276754,0,0,2.41528,-2103.698076,-5699.427947)">
            <g transform="matrix(0.534618,0,0,0.282607,10820.820101,5337.341215)">
                <g id="Fondo" transform="matrix(1.171875,0,0,1.171875,-86.816785,0.181009)">
                    <path d="M371.889,559.432C370.218,546.54 368.231,521.843 367.542,520.475C366.499,518.401 364.349,520.938 356.638,516.276C349.291,511.836 343.036,500.608 349.64,489.582C353.692,482.815 357.608,483.383 356.735,480.411C356.544,479.762 351.478,473.582 348.461,461.51C342.63,438.174 354.928,415.538 365.283,404.305C371.617,397.435 373.493,396.2 374.357,395.351C376.499,393.246 375.52,392.731 373.659,390.382C369.854,385.582 364.577,375.523 364.239,364.506C363.285,333.391 393.158,312.466 396.197,310.106C400.845,306.498 401.013,306.744 401.371,306.381C403.093,304.637 400.56,304.2 400.874,293.518C401.049,287.582 404.082,279.373 405.111,277.32C409.24,269.077 412.141,265.733 414.281,263.313C420.569,256.204 425.223,252.584 427.586,250.606C431.849,247.036 442.151,240.275 443.449,239.423C460.9,227.969 461.024,228.122 470.319,220.286C474.962,216.372 481.615,209.387 484.926,204.813C487.39,201.409 490.31,197.756 494.761,187.618C495.741,185.385 500.418,174.731 499.453,157.502C498.559,141.539 495.861,138.448 499.11,134.223C503.794,128.135 509.172,132.361 517.289,136.858C519.319,137.983 527.453,143.297 529.799,145.102C530.434,145.591 536.395,150.178 537.694,151.266C545.316,157.647 545.176,157.776 552.197,164.804C556.996,169.607 563.114,177.624 564.927,180.195C568.715,185.569 569.253,185.351 572.507,188.492C584.824,200.381 590.505,207.317 592.452,209.539C595.757,213.311 595.656,213.374 598.25,216.688C601.964,221.43 601.755,221.574 603.268,223.658C607.488,229.472 609.497,233.451 610.266,234.64C612.704,238.41 618.503,250.91 620.258,257.57C622.931,267.713 626.117,276.786 623.854,296.543C623.057,303.503 620.862,304.991 623.792,307.094C628.138,310.214 628.066,310.309 628.454,310.564C632.899,313.484 639.324,319.916 640.205,320.798C643.454,324.05 645.182,326.333 645.403,326.585C648.84,330.518 648.839,331.066 648.938,331.217C652.151,336.131 652.413,335.981 654.819,341.352C655.154,342.099 665.147,360.532 656.259,380.398C650.937,392.293 647.418,392.548 649.211,394.7C649.368,394.888 660.247,404.477 666.142,413.724C672.745,424.08 675.647,435.638 676.021,437.6C679.457,455.665 673.64,467.98 672.631,470.555C669.018,479.777 665.183,480.326 668.761,483.171C679.65,491.83 679.136,503.673 672.606,511.584C666.209,519.334 658.754,519.224 657.558,519.651C655.932,520.231 656.331,520.832 654.555,537.506C652.317,558.521 652.262,558.767 651.86,560.582C650.142,568.342 646.212,572.593 645.431,573.437C634.773,584.964 625.544,583.955 619.489,584.08C617.011,584.132 616.569,585.462 615.736,588.57C610.299,608.85 610.222,608.809 609.76,610.573C606.28,623.855 598.154,652.238 595.851,661.587C594.483,667.138 594.188,667.038 592.748,672.568C590.461,681.355 587.586,691.735 587.125,693.398C573.362,743.092 573.561,743.142 572.357,747.461C567.735,764.036 567.769,764.023 567.357,765.46C567.078,766.432 563.993,777.194 563.882,777.608C558.411,797.878 558.224,797.81 557.775,799.578C557.431,800.93 555.6,808.127 553.18,816.407C548.694,831.753 549.184,831.873 547.375,837.46C545.13,844.39 543.773,850.919 541.495,858.498C538.684,867.85 538.128,871.649 536.655,875.563C535.413,878.86 531.044,885.691 525.52,888.534C521.045,890.838 520.995,891.112 516.415,892.065C506.32,894.165 496.804,888.205 493.408,884.583C487.097,877.851 485.948,870.712 485.637,869.464C484.325,864.212 482.02,856.795 481.911,856.388C476.017,834.388 475.83,834.457 475.344,832.538C471.649,817.953 471.223,818.083 467.378,803.535C467.317,803.305 457.816,768.962 456.696,764.448C455.142,758.191 453.324,752.995 451.909,747.393C449.746,738.825 435.019,686.198 434.588,684.477C431.245,671.122 425.385,651.755 422.288,639.552C421.196,635.25 407.881,586.688 407.776,586.398C406.65,583.268 405.452,584.414 398.467,583.928C389.789,583.324 382.698,577.766 381.444,576.56C375.314,570.666 373.292,565.814 371.889,559.432Z" style="fill:rgb(32,32,29);"/>
                    <g transform="matrix(0.960815,0,0,0.960815,-60.485256,-73.429758)">
                        <path d="M548.139,686.757C547.758,686.315 547.669,685.691 547.912,685.161C548.155,684.63 548.685,684.29 549.269,684.29C552.194,684.29 556.468,684.29 559.394,684.29C559.977,684.29 560.507,684.63 560.75,685.161C560.993,685.691 560.904,686.315 560.523,686.757C558.909,688.626 556.756,691.12 555.46,692.621C555.177,692.949 554.765,693.138 554.331,693.138C553.897,693.138 553.485,692.949 553.202,692.621C551.906,691.12 549.753,688.626 548.139,686.757Z" style="fill:rgb(248,199,92);stroke:rgb(252,200,88);stroke-width:1.3px;"/>
                    </g>
                    <g transform="matrix(0.960815,0,0,0.960815,20.910162,-73.429758)">
                        <path d="M548.139,686.757C547.758,686.315 547.669,685.691 547.912,685.161C548.155,684.63 548.685,684.29 549.269,684.29C552.194,684.29 556.468,684.29 559.394,684.29C559.977,684.29 560.507,684.63 560.75,685.161C560.993,685.691 560.904,686.315 560.523,686.757C558.909,688.626 556.756,691.12 555.46,692.621C555.177,692.949 554.765,693.138 554.331,693.138C553.897,693.138 553.485,692.949 553.202,692.621C551.906,691.12 549.753,688.626 548.139,686.757Z" style="fill:rgb(248,199,92);stroke:rgb(252,200,88);stroke-width:1.3px;"/>
                    </g>
                    <path d="M584.278,219.853C585.952,221.964 585.477,222.286 588.662,226.378C589.194,227.063 589.188,227.062 594.761,235.343C594.857,235.487 600.102,244.31 600.27,244.625C601.676,247.259 606.016,257.083 607.235,261.58C608.345,265.674 615.717,288.05 605.645,310.572C605.355,311.221 601.669,318.442 599.023,322.128C595.235,327.404 590.567,329.343 592.116,334.616C592.618,336.327 596.824,342.704 603.564,336.571C609.715,330.975 614.243,323.075 614.987,321.778C616.915,318.416 617.986,320.215 621.835,323.031C625.885,325.995 625.595,326.326 628.897,329.063C631.912,331.562 631.676,331.787 634.383,334.611C637.304,337.657 640.904,343.373 641.077,343.717C648.726,358.945 646.842,370.033 641.61,379.56C638.343,385.508 631.569,391.647 630.558,392.564C625.417,397.224 617.401,402.546 612.314,405.146C605.042,408.862 605.069,408.909 600.587,410.719C596.366,412.424 591.539,415.288 571.488,420.447C563.36,422.538 538.318,426.794 519.487,427.096C497.35,427.451 483.04,426.217 458.444,421.768C454.071,420.977 436.361,416.349 428.372,412.787C423.673,410.691 405.643,404.708 389.415,388.585C385.446,384.642 381.834,378.698 380.893,376.331C375.64,363.121 376.872,351.621 387.932,336.84C388.01,336.737 392.914,331.135 394.606,329.616C399.543,325.181 403.729,322.18 404.561,321.584C407.335,319.595 407.987,318.166 410.126,320.81C412.6,323.868 412.682,323.769 415.484,326.517C418.221,329.2 424.131,333.294 429.714,336.058C431.133,336.76 435.746,339.561 449.583,343.187C460.178,345.963 470.739,346.179 472.518,345.549C473.921,345.052 479.466,341.331 475.554,335.459C473.389,332.21 468.873,333.628 459.459,331.705C444.929,328.737 438.226,325.575 431.428,321.623C424.785,317.761 419.389,311.937 417.428,307.534C416.416,305.262 411.137,295.72 417.98,281.761C418.267,281.176 422.302,274.678 423.889,272.83C428.236,267.769 434.213,262.916 435.179,262.131C445.764,253.535 455.583,248.054 462.351,243.276C463.987,242.121 466.872,240.327 469.397,238.365C478.472,231.312 494.247,220.094 505.32,197.414C506.502,194.992 508.939,191.029 511.795,178.571C513.195,172.463 513.233,166.549 513.24,165.497C513.296,156.81 512.89,154.417 512.729,153.467C512.495,152.085 511.785,151.837 512.882,150.962C513.747,150.272 513.854,150.816 516.374,152.682C516.591,152.843 520.815,155.591 523.404,157.629C525.582,159.343 530.902,163.062 539.538,171.46C548.409,180.086 555.502,190.702 556.103,191.739C559.239,197.143 560.676,198.916 562.621,203.445C563.838,206.282 565.253,207.979 568.334,217.55C568.744,218.822 569.546,221.995 570.403,224.531C571.039,226.413 572.922,234.128 573.55,240.494C573.835,243.388 573.391,250.088 579.527,251.329C581.614,251.751 587.833,250.463 587.039,242.541C586.788,240.04 585.095,228.469 584.623,226.475C584.022,223.94 582.685,221.064 582.829,220.569C582.865,220.445 582.926,220.521 584.278,219.853Z" style="fill:rgb(133,207,210);"/>
                    <path d="M464.432,436.94C537.433,449.057 590.221,429.181 590.379,429.129C598.871,426.355 599.384,425.988 610.446,421.377C612.176,420.656 623.468,414.831 627.295,412.184C630.16,410.202 632.728,408.772 635.441,406.429C638.196,404.048 638.896,403.939 641.556,406.438C643.108,407.895 647.61,411.765 652.576,418.44C657.137,424.573 668.568,441.94 660.521,464.508C658.783,469.385 652.59,478.722 650.578,479.643C649.302,480.227 649.227,480.156 600.5,480.156C377.018,480.156 375.193,480.203 374.607,480.031C372.389,479.381 370.221,475.862 368.177,472.711C367.251,471.283 364.467,467.383 362.468,460.509C360.668,454.32 360.827,448.558 360.856,447.511C360.961,443.702 361.501,424.181 383.661,405.695C386.752,403.117 386.895,405.88 395.584,411.368C401.456,415.077 401.417,415.111 407.578,418.351C409.31,419.262 409.181,419.508 415.582,422.306C416.14,422.55 416.167,422.47 422.596,425.272C426.331,426.901 440.887,431.828 449.442,433.733C455.788,435.146 460.504,436.284 464.432,436.94Z" style="fill:rgb(243,153,164);"/>
                    <path d="M633.5,519.04C639.958,519.042 642.109,518.675 642.323,520.521C642.356,520.808 641.398,531.842 640.928,535.548C639.309,548.289 638.748,558.664 637.352,561.429C635.418,565.263 632.958,566.764 632.791,566.892C627.65,570.831 625.692,570.163 611.5,570.149C432.081,569.967 432.104,570.231 416.505,570.148C399.882,570.061 396.8,570.856 392.36,567.708C386.495,563.55 385.854,560.189 385.407,555.508C383.787,538.52 383.168,536.068 382.861,532.459C381.915,521.34 381.417,520.332 382.43,519.411C383.209,518.702 387.174,519.023 388.504,519.03C394.904,519.066 394.896,518.961 468.5,518.97C481.7,518.972 631.174,518.99 633.5,519.04Z" style="fill:rgb(252,200,88);"/>
                    <path d="M366.526,493.824C369.163,493.771 369.146,493.831 399.5,493.837C621.234,493.885 621.219,493.715 640.499,493.819C658.33,493.916 658.546,493.416 660.376,494.68C665.271,498.059 662.589,504.634 657.464,505.067C655.504,505.233 441.628,505.106 398.5,505.141C365.722,505.168 365.494,505.408 363.744,504.134C359.078,500.735 361.748,495.603 364.432,494.37C365.583,493.842 366.445,493.845 366.526,493.824Z" style="fill:rgb(246,199,91);stroke:rgb(252,200,88);stroke-width:1.25px;stroke-linecap:butt;stroke-miterlimit:2;"/>
                    <path d="M459.74,657.265C456.276,653.771 446.508,643.811 445.359,642.64C440.763,637.954 439.323,636.873 439.915,635.692C440.39,634.743 457.478,618.076 460.692,614.684C465.077,610.055 465.152,610.16 468.12,607.122C471.011,604.162 471.607,602.612 473.899,605.081C474.322,605.536 480.206,611.282 483.911,615.103C486.138,617.4 501.843,633.203 502.81,634.208C504.614,636.083 505.992,637.096 505.77,638.562C505.547,640.032 499.789,644.977 498.486,646.486C495.929,649.447 495.683,649.187 493.058,652.098C491.886,653.398 491.687,653.619 477.649,667.648C474.958,670.337 474.362,672.028 471.691,669.311C460.736,658.171 460.683,658.241 459.74,657.265Z" style="fill:rgb(251,199,89);stroke:rgb(252,200,88);stroke-width:1.25px;stroke-linecap:butt;stroke-miterlimit:2;"/>
                    <path d="M575.613,646.606C568.332,654.162 564.197,657.824 553.786,668.766C551.586,671.077 550.845,670.692 548.64,668.365C541.959,661.313 531.801,651.162 530.32,649.682C527.651,647.015 520.147,639.73 519.673,638.445C519.481,637.924 519.178,637.101 523.845,632.893C526.235,630.738 526.213,630.745 528.436,628.438C537.765,618.759 537.945,618.953 547.282,609.287C550.082,606.388 552.528,604.05 552.732,603.939C552.917,603.838 554.046,603.855 554.229,603.961C554.856,604.326 570.951,620.708 578.62,628.377C584.842,634.599 585.175,634.878 585.268,635.548C585.442,636.8 584.324,637.514 577.573,644.57C577.085,645.08 577.093,645.063 576.588,645.582C576.51,645.663 576.516,645.658 575.613,646.606Z" style="fill:rgb(251,199,90);stroke:rgb(252,200,88);stroke-width:1.25px;stroke-linecap:butt;stroke-miterlimit:2;"/>
                    <path d="M499.677,657.671C508.828,648.532 511.272,645.693 511.515,645.52C513.055,644.419 513.357,645.125 516.174,647.854C521.326,652.847 530.518,662.67 534.086,665.929C535.71,667.413 537.851,669.895 538.468,670.532C538.528,670.594 543.915,675.724 544.319,676.579C544.713,677.413 544.224,678.163 544.149,678.278C543.583,679.146 519.534,703.051 514.407,708.41C511.658,711.283 510.974,709.441 507.332,705.664C492.271,690.043 492.103,690.235 488.531,686.471C482.263,679.866 482.12,680.01 481.601,679.413C479.991,677.558 480.48,676.942 482.175,675.203C485.898,671.384 485.979,671.499 489.725,667.721C490.521,666.918 498.919,658.447 499.677,657.671Z" style="fill:rgb(251,199,89);stroke:rgb(252,200,88);stroke-width:1.25px;stroke-linecap:butt;stroke-miterlimit:2;"/>
                    <path d="M487.528,587.53C491.018,584.181 491.163,584.272 492.461,584.132C494.93,583.864 494.927,584.091 523.5,584.083C534.061,584.08 534.89,583.677 537.005,585.996C539.395,588.618 539.405,588.581 541.882,591.128C546.237,595.605 548.267,596.292 545.244,599.26C530.849,613.396 531.033,613.569 529.777,614.792C519.284,625.01 515.685,629.459 513.7,630.908C512.118,632.064 510.058,629.03 509.021,627.978C500.345,619.171 500.273,619.246 499.519,618.481C494.496,613.378 494.408,613.475 493.983,613.021C481.108,599.25 480.669,599.666 479.679,598.36C477.772,595.843 479.535,595.588 486.517,588.517C487.025,588.002 487.022,588.024 487.528,587.53Z" style="fill:rgb(251,199,88);stroke:rgb(252,200,88);stroke-width:1.25px;stroke-linecap:butt;stroke-miterlimit:2;"/>
                    <path d="M459.14,721.613C458.926,720.886 458.028,717.845 456.655,712.461C455.246,706.935 455.078,706.988 454.764,705.44C454.127,702.298 455.58,702.677 459.938,697.903C462.649,694.932 469.516,688.186 470.362,687.354C472.126,685.621 473.4,683.684 475.199,684.914C475.335,685.007 475.323,685.014 488.527,698.474C498.101,708.232 498.121,708.199 498.934,709.066C499.488,709.657 504.914,714.986 505.251,715.62C505.803,716.658 505.339,717.46 502.461,720.463C499.523,723.527 499.446,723.424 496.45,726.449C490.497,732.46 490.435,732.384 489.919,732.907C473.945,749.145 473.906,749.104 472.532,750.531C470.016,753.142 468.471,754.991 467.541,751.487C466.904,749.092 465.691,745.05 465.523,744.492C462.105,733.108 462.448,733.034 459.14,721.613Z" style="fill:rgb(250,199,90);stroke:rgb(252,200,88);stroke-width:1.25px;stroke-linecap:butt;stroke-miterlimit:2;"/>
                    <path d="M559.271,691.714C568.469,701.731 570.384,701.397 569.653,704.537C569.542,705.012 567.4,712.709 567.202,713.419C564.112,724.521 564.588,724.903 561.693,727.701C559.48,729.838 548.713,740.525 547.67,741.659C545.86,743.629 545.199,743.983 543.149,741.856C541.5,740.145 541.386,740.261 522.257,720.735C519.229,717.643 517.729,716.969 520.407,714.4C521.672,713.186 521.615,713.151 535.854,698.854C540.333,694.331 544.811,689.809 549.29,685.286C551.78,682.775 552.356,685.057 556.745,689.247C558.034,690.478 558.047,690.441 559.271,691.714Z" style="fill:rgb(251,199,91);stroke:rgb(252,200,88);stroke-width:1.25px;stroke-linecap:butt;stroke-miterlimit:2;"/>
                    <path d="M516.767,727.236C528.184,738.771 528.024,738.9 530.602,741.39C531.216,741.983 533.198,743.898 537.932,749.135C540.151,751.589 538.235,751.959 531.722,758.712C528.248,762.314 515.946,774.683 513.883,776.856C511.476,779.392 510.81,778.134 508.373,775.62C497.507,764.409 497.432,764.487 496.488,763.511C494.677,761.64 494.655,761.688 492.518,759.483C490.3,757.193 490.37,757.144 488.101,754.916C484.859,751.734 484.224,750.924 486.603,748.607C490.666,744.652 490.547,744.553 494.617,740.624C496.203,739.093 496.96,738.082 500.584,734.589C503.724,731.563 504.245,730.457 505.924,728.957C508.07,727.038 508.071,727.061 509.922,724.872C512.459,721.869 513.942,724.297 516.767,727.236Z" style="fill:rgb(250,199,90);stroke:rgb(252,200,88);stroke-width:1.25px;stroke-linecap:butt;stroke-miterlimit:2;"/>
                    <path d="M530.183,847.406C530.13,847.574 529.517,849.507 529.517,849.507C529.208,850.53 529.397,850.804 528.361,851.069C527.406,851.314 527.47,850.956 526.8,850.216C522.262,845.204 504.4,827.667 502.983,826.075C502.158,825.148 502.221,825.094 495.547,818.452C495.041,817.949 495.047,817.967 494.528,817.47C492.841,815.856 490.063,812.785 489.817,812.334C488.763,810.402 490.327,810.345 500.207,800.212C501.032,799.366 510.25,789.911 510.603,789.711C511.686,789.096 512.328,789.017 518.63,795.372C519.904,796.657 519.863,796.693 534.427,811.572C537.838,815.056 537.908,815.274 538.041,815.692C538.819,818.139 534.576,829.53 532.253,839.437C531.859,841.119 530.406,846.6 530.183,847.406Z" style="fill:rgb(250,199,89);stroke:rgb(252,200,88);stroke-width:1.25px;stroke-linecap:butt;stroke-miterlimit:2;"/>
                    <path d="M425.282,597.564C425.02,596.688 422.62,588.673 422.166,586.568C422.13,586.4 421.833,585.022 422.454,584.444C422.953,583.981 423.306,584.106 443.501,584.112C452.432,584.115 452.848,583.578 455.124,585.88C464.661,595.529 464.812,595.464 465.207,596.571C465.742,598.069 461.831,601.361 460.56,602.564C457.989,604.997 458.062,605.052 455.596,607.594C449.518,613.859 448.782,614.552 448.166,615.133C447.412,615.843 438.725,624.53 436.691,626.694C435.744,627.701 435.566,628.156 434.538,628.11C433.384,628.059 433.803,627.48 432.619,623.465C428.804,610.535 429.039,610.49 425.282,597.564Z" style="fill:rgb(250,199,89);stroke:rgb(252,200,88);stroke-width:1.25px;stroke-linecap:butt;stroke-miterlimit:2;"/>
                    <path d="M599.198,596.416C598.671,598.419 591.44,624.612 591.174,625.377C590.272,627.971 589.226,626.664 587.274,624.729C576.669,614.221 568.907,605.823 563.451,600.55C560.586,597.783 559.368,596.99 562.222,594.226C571.518,585.219 571.627,584.556 573.444,584.199C574.604,583.971 597.431,584.064 599.517,584.073C603.386,584.089 601.937,586.24 601.347,588.456C600.162,592.905 600.201,592.9 599.198,596.416Z" style="fill:rgb(250,199,90);stroke:rgb(252,200,88);stroke-width:1.25px;stroke-linecap:butt;stroke-miterlimit:2;"/>
                    <path d="M487.317,818.888C488.436,820.006 491.429,823.91 495.861,828.136C499.607,831.708 504.278,836.914 508.751,841.247C511.953,844.348 511.884,844.385 517.152,849.849C525.524,858.534 526.779,858.823 526.268,861.457C525.474,865.562 524.417,868.785 524.212,869.409C520.737,880.007 507.333,881.345 501.272,872.654C499.321,869.858 500.159,869.503 493.221,845.577C493.069,845.052 488.951,829.846 488.581,828.478C486.564,821.028 486.325,821.113 486.151,820.466C486.073,820.176 485.874,819.883 485.94,819.59C485.967,819.47 486.031,819.544 487.317,818.888Z" style="fill:rgb(249,199,91);stroke:rgb(252,200,88);stroke-width:1.25px;stroke-linecap:butt;stroke-miterlimit:2;"/>
                    <path d="M476.757,785.425C476.62,784.959 475.355,780.762 474.786,778.423C473.585,773.484 471.239,766.059 471.235,765.509C471.226,764.393 471.237,764.173 476.299,759.298C478.665,757.02 479.072,755.279 481.368,757.63C482.158,758.439 489.445,765.902 491.192,767.781C498.524,775.665 499.888,776.568 501.584,778.427C506.021,783.292 506.337,783.389 505.964,784.629C505.659,785.643 505.451,785.511 503.977,786.991C498.243,792.752 498.164,792.651 492.503,798.503C491.757,799.274 491.715,799.212 490.958,799.955C488.431,802.435 488.627,802.606 486.093,805.077C485.583,805.574 485.603,805.571 485.111,806.068C484.973,806.207 483.69,807.504 482.674,806.375C482.148,805.79 478.588,791.649 476.757,785.425Z" style="fill:rgb(248,198,91);stroke:rgb(252,200,88);stroke-width:1.25px;stroke-linecap:butt;stroke-miterlimit:2;"/>
                    <path d="M547.687,784.554C546.305,788.066 545.746,787.728 537.886,795.869C533.862,800.038 533.104,800.352 531.379,798.632C530.257,797.514 517.824,785.115 517.547,784.47C516.724,782.554 517.624,782.613 519.026,781.055C521.164,778.68 521.274,778.806 523.518,776.518C531.257,768.627 531.405,768.796 532.032,768.069C534.357,765.374 534.505,765.535 537.023,763.036C537.426,762.636 537.332,762.55 541.926,757.902C543.796,756.01 544.418,755.508 546.389,757.605C552.349,763.946 552.872,763.832 552.79,765.516C552.787,765.597 550.033,775.363 547.687,784.554Z" style="fill:rgb(248,199,92);stroke:rgb(252,200,88);stroke-width:1.25px;stroke-linecap:butt;stroke-miterlimit:2;"/>
                    <path d="M627.385,372.357C617.672,379.862 600.761,386.332 587.531,387.755C582.227,388.325 578.672,389.55 575.68,386.333C572.711,383.141 574.293,377.111 579.445,376.22C584.317,375.377 590.042,375.35 602.35,371.056C619.782,364.975 619.728,361.637 623.455,360.38C626.746,359.27 631.287,361.702 631.143,366.478C631.092,368.163 630.391,369.742 627.385,372.357Z" style="fill:rgb(32,32,29);"/>
                    <path d="M437.047,460.531C437.005,460.869 437.235,462.794 435.679,464.641C433.823,466.845 433.161,467.645 422.503,467.317C409.076,466.904 401.274,464.699 393.577,462.275C392.724,462.007 387.664,460.413 383.417,457.621C378.376,454.307 381.401,443.961 390.397,447.742C392.068,448.445 395.89,450.825 410.5,453.499C412.784,453.917 421.632,454.786 424.487,454.827C430.635,454.917 433.61,454.059 436.094,457.748C436.689,458.632 436.537,458.69 437.047,460.531Z" style="fill:rgb(32,32,29);"/>
                    <path d="M439.241,650.459C438.91,649.205 439.475,648.329 440.576,649.303C441.066,649.737 465.954,675.308 466.601,676.427C467.77,678.452 466.567,678.706 464.767,680.731C464.051,681.535 463.325,682.352 455.331,690.324C452.782,692.866 452.217,692.945 451.525,692.47C450.961,692.083 450.023,687.329 448.526,682.492C447.912,680.508 446.027,674.42 441.324,657.549C440.326,653.97 440.185,654.034 439.241,650.459Z" style="fill:rgb(246,198,93);stroke:rgb(252,200,88);stroke-width:1.25px;stroke-linecap:butt;stroke-miterlimit:2;"/>
                    <path d="M559.253,675.248C560.26,674.254 568.463,666.168 571.717,662.703C576.481,657.63 577.281,656.734 582.359,651.322C582.473,651.2 583.534,649.847 584.329,650.634C585.016,651.315 583.631,655.105 583.271,656.151C583.231,656.266 580.259,665.368 579.713,667.562C576.843,679.097 576.324,678.932 573.426,690.473C572.805,692.945 570.972,691.263 570.814,691.117C570.782,691.088 559.981,680.18 558.925,679.077C557.319,677.4 557.683,676.945 559.253,675.248Z" style="fill:rgb(245,197,97);stroke:rgb(252,200,88);stroke-width:1.25px;stroke-linecap:butt;stroke-miterlimit:2;"/>
                    <g transform="matrix(0.611988,-0.022915,0.022915,0.611988,131.474377,243.360978)">
                        <path d="M635.688,946.707C635.501,947.325 634.986,947.789 634.351,947.911C633.716,948.033 633.066,947.794 632.662,947.289C631.284,945.568 629.512,943.355 628.315,941.859C627.558,940.914 627.663,939.545 628.554,938.727C631.168,936.325 636.401,931.519 639.451,928.717C639.741,928.451 640.173,928.411 640.506,928.621C640.84,928.831 640.992,929.237 640.877,929.614C639.531,934.048 637.052,942.216 635.688,946.707Z" style="fill:rgb(248,199,92);stroke:rgb(252,200,88);stroke-width:2.04px;"/>
                    </g>
                    <g transform="matrix(0.836003,-0.053093,0.053093,0.836003,-23.924349,-3.843416)">
                        <path d="M635.428,947.553C635.292,948.006 634.915,948.345 634.451,948.435C633.987,948.525 633.511,948.35 633.216,947.981C631.66,946.038 629.283,943.068 627.955,941.41C627.401,940.718 627.479,939.716 628.133,939.118C630.724,936.747 636.987,931.015 640.029,928.231C640.241,928.037 640.557,928.009 640.8,928.162C641.043,928.315 641.154,928.612 641.071,928.887C639.74,933.29 636.782,943.076 635.428,947.553Z" style="fill:rgb(248,199,92);stroke:rgb(252,200,88);stroke-width:1.49px;"/>
                    </g>
                </g>
            </g>
        </g>
    </g>
</svg>
