<?xml version="1.0" encoding="UTF-8" standalone="no"?>
<!DOCTYPE svg PUBLIC "-//W3C//DTD SVG 1.1//EN" "http://www.w3.org/Graphics/SVG/1.1/DTD/svg11.dtd">
<svg width="100%" height="100%" viewBox="0 0 345 478" version="1.1" xmlns="http://www.w3.org/2000/svg" xmlns:xlink="http://www.w3.org/1999/xlink" xml:space="preserve" xmlns:serif="http://www.serif.com/" style="fill-rule:evenodd;clip-rule:evenodd;stroke-linejoin:round;stroke-miterlimit:2;">
    <g transform="matrix(1,0,0,1,-11409.212658,-4061.653049)">
        <g transform="matrix(1,0,0,1,-0.228456,-0.941977)">
            <g id="Fondo" transform="matrix(0.867272,0,0,0.867272,11137.16258,3862.956345)">
                <path d="M313.948,380.502C314.08,376.716 314.105,359.419 314.173,354.493C314.49,331.273 314.323,313.45 314.357,308.499C314.444,296.043 321.878,289.966 324.541,288.571C330.972,285.202 336.774,283.597 345.577,281.887C369.506,277.238 369.467,277.153 371.554,276.794C387.044,274.129 386.947,273.728 402.439,271.129C404.758,270.74 494.273,254.127 496.545,253.744C516.738,250.334 516.616,249.761 532.438,247.129C544.519,245.119 554.385,243.249 554.457,243.237C571.499,240.468 595.179,236.148 598.527,235.663C607.219,234.404 607.182,234.286 619.442,232.149C632.671,229.843 636.53,228.469 638.362,234.54C641.312,244.309 637.146,252.58 637.14,253.48C637.126,255.46 640.872,257.795 643.496,257.854C646.551,257.923 647.111,256.885 652.568,261.418C656.721,264.866 657.018,264.442 661.212,267.865C664.35,270.427 665.696,267.383 669.628,270.331C673.165,272.982 675.571,274.211 677.395,275.636C680.431,278.009 683.197,276.076 690.562,274.953C698.318,273.769 698.037,281.144 698.163,281.614C699.141,285.279 706.535,279.002 710.039,284.75C712.228,288.342 709.893,308.528 710.252,343.503C710.725,389.512 710.791,389.499 710.533,435.5C710.331,477.169 710.129,518.837 709.927,560.505C709.309,664.99 711.982,698.622 710.881,703.58C709.485,709.862 704.073,710.323 699.471,711.369C671.833,717.653 671.855,717.741 669.443,718.249C656.598,720.953 654.09,721.933 648.422,723.127C636.052,725.732 627.902,727.804 626.414,728.135C597.869,734.481 597.915,734.671 595.428,735.201C588.024,736.782 523.357,751.704 508.403,755.048C493.771,758.319 493.816,758.424 492.543,758.697C472.221,763.059 472.306,763.326 470.539,763.695C457.95,766.325 458.026,766.586 445.454,769.297C433.944,771.779 433.962,771.75 422.474,774.385C420.96,774.732 412.193,776.743 403.476,778.365C398.027,779.379 393.233,781.445 382.486,779.587C367.961,777.075 362.79,773.886 361.586,773.314C343.607,764.766 332.003,751.905 325.816,745.217C323.308,742.505 317.732,734.893 317.501,734.499C313.315,727.362 314.462,726.511 314.326,701.501C313.846,613.398 314.055,386.522 313.948,380.502Z" style="fill:rgb(39,61,70);"/>
                <path d="M597.421,314.154C600.993,313.425 600.969,313.386 604.534,312.7C628.147,308.16 632.592,306.811 638.54,305.721C648.595,303.879 648.539,303.713 658.508,301.543C675.986,297.738 675.991,297.869 677.499,297.496C678.854,297.16 687.96,294.905 694.551,293.778C700.519,292.757 700.545,292.307 701.415,292.707C701.479,292.736 702.165,293.521 702.182,293.583C702.28,293.939 702.25,299.871 702.226,301.497C702.05,313.463 702.081,313.457 702.039,314.496C701.743,321.927 698.392,501.284 700.128,645.509C700.767,698.512 700.922,698.613 700.414,699.448C699.534,700.896 693.556,701.342 685.499,703.497C675.436,706.189 669.681,707.117 666.581,707.857C644.712,713.079 565.63,731.446 564.56,731.73C555.102,734.244 539.799,737.472 538.559,737.768C515.277,743.328 515.167,742.82 508.518,744.562C499.284,746.981 489.332,748.757 486.493,749.47C484.178,750.052 480.685,750.93 457.398,756.054C426.211,762.917 426.237,763.019 423.517,763.58C398.811,768.677 398.54,769.051 397.788,768.243C397.291,767.71 397.265,765.72 397.262,765.496C396.757,727.143 397.343,716.207 397.828,649.501C398.289,586.015 398.145,586.018 398.205,580.498C398.455,557.778 397.73,438.91 397.719,437.492C397.083,356.45 396.806,355.788 397.747,354.721C398.861,353.457 410.23,352.262 421.533,349.652C434.686,346.616 442.456,345.684 448.448,344.269C456.122,342.456 476.111,339.012 481.549,337.679C488.532,335.968 505.135,332.982 508.443,332.233C521.223,329.34 529.653,328.089 533.444,327.237C542.56,325.189 561.404,321.515 561.498,321.492C570.069,319.444 591.529,315.503 597.421,314.154Z" style="fill:rgb(91,165,168);"/>
                <path d="M590.61,523.908C580.731,526.561 576.147,526.873 566.542,529.644C563.925,530.398 541.578,535.461 535.627,536.999C533.938,537.436 524.51,539.469 523.542,539.677C521.854,540.041 521.923,540.318 502.566,544.787C490.693,547.527 487.779,548.564 482.518,549.589C473.943,551.26 450.34,557.645 446.504,557.378C440.43,556.954 440.58,550.336 440.468,547.501C439.185,514.939 439.095,469.302 439.082,462.501C439.044,443.489 439.18,443.508 439.369,424.498C439.467,414.756 440.975,413.718 452.473,411.372C469.589,407.88 469.501,407.547 486.569,403.842C488.199,403.488 489.994,403.3 501.505,400.52C506.154,399.397 515.329,397.541 519.514,396.56C520.063,396.431 520.069,396.479 526.393,395.019C527.114,394.852 531.819,393.635 538.486,392.427C540.419,392.077 558.288,387.906 566.455,386.273C568.47,385.871 568.432,385.703 591.568,380.857C599.072,379.285 599.074,379.358 606.482,377.42C606.709,377.361 617.613,375.062 618.581,374.858C622.033,374.13 622.061,374.339 625.495,373.477C635.021,371.083 637.503,370.798 651.558,367.815C652.745,367.563 656.522,366.644 659.108,369.808C660.524,371.541 660.386,371.784 660.855,396.489C660.884,398.003 661.543,493.019 660.836,501.526C660.195,509.23 654.323,508.649 645.608,510.943C635.571,513.586 624.803,515.58 613.527,518.604C611.71,519.091 611.675,518.933 590.61,523.908Z" style="fill:rgb(39,61,70);"/>
                <path d="M607.4,512.065C581.353,518.205 566.618,521.385 554.501,524.506C545.068,526.937 544.98,526.506 532.54,529.652C529.577,530.402 499.338,537.597 496.45,538.284C483.464,541.374 483.529,541.592 470.491,544.458C461.888,546.349 450.4,549.921 448.643,549.164C447.494,548.668 447.866,548.231 447.34,533.504C446.904,521.302 447.161,492.834 446.692,443.499C446.683,442.579 446.659,422.965 446.704,422.519C446.958,420.033 448.916,420.372 453.413,419.167C457.968,417.946 474.34,414.808 483.504,412.516C488.783,411.195 498.013,409.621 511.463,406.341C511.826,406.252 511.825,406.257 549.411,398.11C559.501,395.923 567.207,393.987 576.438,392.205C580.043,391.509 595.046,387.876 608.444,385.234C610.385,384.852 610.319,384.634 632.586,379.895C638.388,378.66 650.752,375.603 651.5,375.629C651.615,375.633 652.457,375.662 652.757,376.332C653.383,377.732 653.065,377.824 653.729,449.499C653.951,473.506 653.731,473.486 653.72,497.502C653.718,501.208 653.063,501.438 649.437,502.208C642.424,503.696 642.436,503.694 635.477,505.407C617.752,509.769 617.674,509.363 607.4,512.065Z" style="fill:rgb(242,232,215);"/>
                <path d="M331.173,696.776C328.975,694.153 328.972,693.962 326.072,689.827C324.084,686.992 323.69,686.983 323.933,683.519C324.56,674.573 323.874,598.97 324.082,587.492C324.521,563.248 324.199,473.564 324.089,471.505C323.686,464.003 324.061,435.176 323.512,427.501C323.374,425.564 324.389,424.874 325.578,426.404C327.884,429.37 327.543,429.649 333.862,436.15C338.387,440.804 347.787,447.972 347.846,448.012C359.524,456.036 364.361,457.343 367.387,458.757C377.155,463.322 383.627,462.583 385.602,463.255C387.208,463.801 386.88,465.185 386.884,475.5C386.893,495.741 386.985,719.64 386.546,728.503C386.537,728.681 386.466,730.119 385.487,730.459C384.939,730.649 382.791,730.23 382.56,730.185C382.238,730.122 379.151,729.52 378.532,729.356C371.334,727.445 371.43,727.189 364.539,724.407C358.256,721.871 351.488,716.647 350.829,716.103C341.173,708.14 337.969,704.366 337.823,704.214C333.97,700.221 332.035,697.738 331.173,696.776Z" style="fill:rgb(91,165,168);"/>
                <path d="M412.57,290.912C412.726,290.886 414.519,290.593 414.519,290.593C419.272,289.567 427.389,288.295 431.521,287.626C440.003,286.252 449.335,284.325 453.53,283.672C461.077,282.497 486.676,277.535 492.537,276.728C500.254,275.664 520.14,271.652 524.573,270.926C540.074,268.387 540.017,268.167 555.481,265.391C583.193,260.417 583.163,260.324 585.574,259.908C610.48,255.601 610.401,255.202 612.57,254.847C615.115,254.43 621.885,253.229 622.498,253.235C624.953,253.259 624.538,254.39 634.347,259.764C635.891,260.61 635.897,262.517 634.556,262.696C633.419,262.848 632.269,263.002 620.469,265.341C605.938,268.222 605.992,268.407 591.473,271.376C589.157,271.849 570.606,276.143 570.402,276.209C570.134,276.296 567.586,277.122 568.785,279.334C570.271,282.076 576.351,279.272 594.556,275.783C605.805,273.626 605.723,273.327 613.555,271.746C631.573,268.108 641.129,265.872 645.704,265.382C647.044,265.239 647.956,265.245 648.529,265.41C648.977,265.539 649.339,265.643 653.309,268.736C654.222,269.447 654.224,271.221 653.456,271.383C651.437,271.807 651.434,271.705 649.43,272.182C639.382,274.571 621.077,277.786 612.538,279.668C602.926,281.787 592.174,283.611 590.388,284.133C587.15,285.079 587.235,288.687 590.477,288.888C592.098,288.989 593.015,289.045 610.467,285.344C625.095,282.241 636.689,280.221 638.57,279.803C649.966,277.274 649.977,277.435 661.461,275.292C665.969,274.451 666.018,274.984 669.456,276.557C669.598,276.622 670.968,277.248 670.293,278.32C669.998,278.79 667.657,279.083 667.421,279.113C665.478,279.356 660.625,280.59 657.436,281.225C636.181,285.454 636.284,285.848 634.429,286.166C631.255,286.71 605.308,292.683 602.452,293.289C592.943,295.308 592.946,295.213 583.493,297.469C576.897,299.043 548.477,305.114 546.499,305.497C537.06,307.324 528.26,309.513 525.421,310.078C500.629,315.015 500.684,315.235 498.522,315.625C482.968,318.433 483.002,318.504 467.536,321.675C459.066,323.411 459.018,323.086 450.551,324.771C448.628,325.153 434.459,327.973 426.444,329.152C419.13,330.228 418.856,330.453 416.546,330.78C401.893,332.859 381.96,338.835 368.323,331.849C367.587,331.472 361.606,328.407 359.318,326.771C357.558,325.512 349.507,320.107 343.089,313.933C338.923,309.925 335.241,308.014 338.547,305.569C339.215,305.076 339.745,304.684 348.59,302.951C369.675,298.819 369.678,298.912 371.508,298.541C374.782,297.876 383.268,296.154 412.57,290.912Z" style="fill:rgb(242,232,215);"/>
                <path d="M325.077,408.515C325.043,407.398 324.914,382.568 324.629,371.496C324.476,365.549 327.161,366.421 327.888,367.069C332.14,370.86 331.981,371.011 336.288,374.749C348.824,385.628 353.984,387.194 358.348,389.746C364.04,393.074 374.26,396.19 381.492,397.542C384.904,398.18 386.766,397.137 386.78,401.497C386.856,425.015 386.606,424.998 386.667,448.5C386.681,453.723 387.513,456.278 383.491,455.56C376.09,454.237 370.163,451.281 369.323,450.904C355.872,444.87 351.863,440.865 349.543,439.438C346.909,437.818 346.284,436.718 344.531,435.461C339.337,431.736 332.478,423.889 329.971,420.174C324.438,411.976 325.167,409.714 325.077,408.515Z" style="fill:rgb(226,170,90);"/>
                <path d="M399.424,279.126C426.288,274.333 426.283,274.433 428.607,273.963C440.622,271.531 440.67,271.839 461.595,267.98C484.498,263.755 484.535,264 486.516,263.587C491.051,262.642 491.062,262.814 495.577,261.886C501.211,260.727 522.46,257.288 528.592,255.936C533.825,254.782 562.856,249.878 569.528,248.641C586.052,245.579 586.083,245.879 587.516,245.603C603.993,242.424 604.004,242.57 620.566,239.837C628.838,238.472 631.354,237.654 632.144,238.775C632.539,239.335 632.582,242.2 632.587,242.501C632.648,246.593 632.255,247.049 631.455,247.086C630.454,247.133 630.517,246.897 629.877,246.142C627.546,243.39 626.301,244.279 611.407,247.007C585.669,251.72 585.71,251.921 583.465,252.286C560.816,255.977 558.154,257.12 549.472,258.324C548.139,258.509 501.559,266.946 500.44,267.121C494.423,268.062 494.467,268.235 488.461,269.275C475.512,271.518 468.783,272.391 462.542,273.712C454.672,275.378 443.834,276.909 440.518,277.595C429.108,279.955 408.301,283.285 405.561,283.828C387.863,287.34 375.538,289.03 367.541,290.699C344.984,295.405 337.685,294.551 333.312,298.268C329.229,301.737 330.824,303.657 329.509,304.514C329.224,304.7 328.802,304.653 328.489,304.518C328.299,304.436 326.702,301.469 326.656,299.489C326.461,291.048 356.329,287.239 368.554,284.75C387.746,280.843 387.887,281.654 399.424,279.126Z" style="fill:rgb(91,165,168);"/>
                <path d="M617.407,477.102C618.048,476.942 623.847,475.499 625.448,475.22C631.556,474.158 631.421,479.399 629.361,481.347C627.205,483.386 612.297,485.596 601.469,488.381C591.858,490.854 586.719,491.644 579.466,493.356C552.947,499.618 552.878,499.268 550.575,499.823C523.878,506.253 523.812,505.91 521.506,506.523C513.382,508.68 513.291,508.251 498.542,511.682C497.027,512.035 481.422,515.665 479.527,515.783C475.328,516.043 475.385,512.327 475.562,511.516C476.297,508.143 481.212,507.981 484.437,507.214C511.142,500.864 511.222,501.216 513.519,500.57C520.429,498.626 531.352,496.612 539.528,494.609C550.491,491.923 550.545,492.217 561.534,489.653C586.333,483.866 586.367,484.093 588.515,483.559C601.22,480.401 611.274,478.56 617.407,477.102Z" style="fill:rgb(39,61,70);"/>
                <path d="M620.587,296.813C621.545,296.573 630.126,294.426 632.597,293.94C634.122,293.641 641.79,292.133 651.583,289.848C660.62,287.738 670.369,286.117 677.48,284.416C679.942,283.828 689.504,282.002 690.589,282.146C691.981,282.332 691.953,283.358 691.949,283.512C691.909,284.975 688.492,285.431 688.483,285.434C687.53,285.696 683.903,286.696 676.428,288.155C663.495,290.68 663.558,290.958 662.433,291.174C649.498,293.656 649.541,293.853 648.416,294.064C636.925,296.222 637.02,296.581 625.559,298.789C624.359,299.021 616.028,300.626 610.603,301.888C602.376,303.803 582.712,307.682 581.585,307.913C580.14,308.209 580.203,308.392 563.562,311.84C543.23,316.053 543.273,316.17 541.506,316.528C530.541,318.753 530.533,318.675 529.582,318.873C519.314,321.012 519.345,321.103 518.452,321.278C515.588,321.84 505.144,324.102 504.448,324.228C497.093,325.559 485.233,328.296 483.512,328.577C476.577,329.709 430.094,339.293 428.512,339.569C411.644,342.51 411.73,342.873 403.473,344.332C396.507,345.562 391.252,346.061 386.795,345.985C377.489,345.826 373.691,340.786 373.949,340.601C374.432,340.255 379.966,341.934 380.479,342.089C385.847,343.718 396.359,341.766 404.531,340.734C408.581,340.223 421.625,337.801 422.524,337.587C428.114,336.257 450.972,332.255 453.555,331.738C459.925,330.464 459.949,330.621 460.5,330.5C461.297,330.326 467.323,329.004 470.497,328.483C485.523,326.02 490.974,324.376 498.574,322.923C500.332,322.586 512.146,320.326 520.493,318.466C536.362,314.929 536.441,315.4 551.579,311.875C560.551,309.786 565.022,309.286 569.413,308.213C578.289,306.044 588.508,303.996 620.587,296.813Z" style="fill:rgb(91,165,168);"/>
                <path d="M367.408,750.732C375.105,753.312 375.083,753.47 383.207,755.292C386.278,755.981 385.798,756.273 385.753,765.507C385.74,768.238 386.035,770.127 381.566,769.174C369.648,766.63 362.685,762.646 359.099,760.82C355.761,759.12 347.075,754.326 343.529,751.679C330.489,741.946 329.771,739.499 325.448,734.158C322.056,729.967 323.884,718.394 324.447,718.591C324.627,718.653 324.826,719.225 326.133,720.84C332.018,728.114 338.63,734.289 353.371,743.719C358.731,747.148 364.913,749.659 367.408,750.732Z" style="fill:rgb(226,170,90);"/>
                <g transform="matrix(1,0,0,1,0,-19.236132)">
                    <path d="M367.408,750.732C375.105,753.312 375.083,753.47 383.207,755.292C386.278,755.981 385.798,756.273 385.753,765.507C385.74,768.238 386.035,770.127 381.566,769.174C369.648,766.63 362.685,762.646 359.099,760.82C355.761,759.12 347.075,754.326 343.529,751.679C330.489,741.946 329.771,739.499 325.448,734.158C322.056,729.967 323.884,718.394 324.447,718.591C324.627,718.653 324.826,719.225 326.133,720.84C332.018,728.114 338.63,734.289 353.371,743.719C358.731,747.148 364.913,749.659 367.408,750.732Z" style="fill:rgb(226,170,90);"/>
                </g>
                <path d="M323.323,335.506C322.947,329.237 324.157,328.361 324.463,328.559C325.188,329.029 326.794,331.354 328.471,333.369C333.373,339.26 335.724,340.745 337.573,342.417C342.15,346.557 342.354,346.272 348.357,350.713C355.41,355.933 367.406,361.451 370.489,362.532C381.915,366.541 385.503,366.131 386.315,367.6C386.66,368.225 386.829,368.531 386.681,376.508C386.614,380.116 385.099,380.046 374.54,376.583C372.743,375.994 364.015,373.276 352.216,365.555C343.954,360.148 333.267,351.629 328.435,345.836C323.873,340.366 323.519,338.779 323.323,335.506Z" style="fill:rgb(226,170,90);"/>
                <g transform="matrix(1,0,0,1,-0.365368,15.403764)">
                    <path d="M323.323,335.506C322.947,329.237 324.157,328.361 324.463,328.559C325.188,329.029 326.794,331.354 328.471,333.369C333.373,339.26 335.724,340.745 337.573,342.417C342.15,346.557 342.354,346.272 348.357,350.713C355.41,355.933 367.406,361.451 370.489,362.532C381.915,366.541 385.503,366.131 386.315,367.6C386.66,368.225 386.829,368.531 386.681,376.508C386.614,380.116 385.009,379.683 374.45,376.221C372.652,375.632 364.015,372.823 352.216,365.102C343.954,359.695 333.267,351.629 328.435,345.836C323.873,340.366 323.519,338.779 323.323,335.506Z" style="fill:rgb(91,165,168);"/>
                </g>
                <g transform="matrix(1,0,0,1,0.197719,-16.333297)">
                    <path d="M323.323,335.506C322.947,329.237 324.157,328.361 324.463,328.559C325.188,329.029 326.794,331.354 328.471,333.369C333.373,339.26 335.724,340.745 337.573,342.417C342.15,346.557 342.354,346.272 348.357,350.713C355.41,355.933 367.406,361.451 370.489,362.532C381.915,366.541 385.503,366.131 386.315,367.6C386.66,368.225 386.829,368.531 386.681,376.508C386.614,380.116 385.009,380.046 374.45,376.583C372.652,375.994 364.468,373.82 352.669,366.099C344.407,360.692 333.267,351.629 328.435,345.836C323.873,340.366 323.519,338.779 323.323,335.506Z" style="fill:rgb(226,170,90);"/>
                </g>
                <path d="M472.172,448.504C472.189,448.156 471.917,442.349 476.399,438.388C481.065,434.266 486.554,434.272 487.501,434.273C496.699,434.284 494.613,440.454 492.493,441.488C490.636,442.394 490.563,441.74 488.528,441.332C484.493,440.523 479.635,442.6 479.223,446.472C478.226,455.841 495.215,448.164 497.831,458.407C499.646,465.517 495.741,475.144 482.499,475.464C469.918,475.769 473.267,467.787 476.509,467.838C476.736,467.841 476.717,467.856 479.52,468.402C489.757,470.396 493.726,462.68 489.353,459.756C488.393,459.114 485.79,458.775 485.471,458.733C477.082,457.638 472.976,456.896 472.172,448.504Z" style="fill:rgb(39,61,70);"/>
                <path d="M549.517,435.83C549.843,435.837 550.169,435.823 550.495,435.83C557.659,435.999 559.167,443.128 558.952,445.523C558.658,448.796 556.513,448.862 551.404,450.155C547.331,451.186 547.267,450.852 545.421,451.166C540.896,451.936 545.343,457.444 551.39,454.296C552.056,453.95 552.687,453.54 553.364,453.216C556.293,451.815 557.42,454.619 557.416,455.5C557.404,458.576 550.285,462.383 544.493,461.559C533.489,459.993 533.628,442.429 544.422,437.339C547.857,435.72 549.485,435.835 549.517,435.83Z" style="fill:rgb(39,61,70);"/>
                <path d="M610.87,430.623C611.498,429.155 611.342,429.092 613.488,425.492C615.128,422.741 619.591,419.973 623.504,419.896C632.353,419.723 633.207,429.268 632.188,431.332C630.895,433.951 618.61,434.578 617.698,435.674C616.46,437.164 619.812,441.939 626.648,437.747C626.948,437.563 629.421,436.046 631.041,437.924C634.834,442.322 619.29,449.621 613.002,442.992C608.364,438.1 610.458,432.338 610.87,430.623Z" style="fill:rgb(39,61,70);"/>
                <path d="M578.445,429.968C580.489,430.599 580.723,430.242 582.173,431.811C583.244,432.97 584.475,433.875 584.656,448.5C584.669,449.514 585.006,453.261 581.587,453.932C577.653,454.705 578.164,449.548 578.137,448.508C577.973,442.247 578.635,437.554 575.539,437.182C574.15,437.016 571.38,438.159 570.469,439.475C568.196,442.754 569.324,447.083 569.158,452.489C568.974,458.499 563.263,457.765 562.783,454.451C562.683,453.761 562.08,437.701 562.533,435.506C562.868,433.882 564.683,431.442 567.768,433.004C570.001,434.134 570.743,432.641 571.804,431.969C575.815,429.43 576.809,429.995 578.445,429.968Z" style="fill:rgb(39,61,70);"/>
                <path d="M478.416,303.113C481.711,302.291 482.107,302.212 482.431,302.147C482.829,302.067 487.639,301.105 486.866,304.605C486.411,306.666 481.725,307.062 476.472,308.39C474.966,308.77 467.044,310.773 457.491,312.449C451.578,313.487 444.353,315.363 437.47,316.288C427.097,317.68 417.983,319.983 418.631,315.525C418.881,313.803 422.642,313.409 423.466,313.278C436.823,311.164 436.937,311.824 478.416,303.113Z" style="fill:rgb(39,61,70);"/>
                <path d="M426.579,301.871C427.695,301.617 433.145,300.379 440.594,298.978C450.157,297.181 450.06,296.83 459.599,294.959C459.956,294.889 463.585,294.177 463.905,296.417C464.315,299.288 459.745,299.833 458.422,300.107C410.549,310.002 410.614,310.312 406.42,311.001C406.021,311.067 401.48,311.814 402.089,308.398C402.355,306.903 404.892,306.46 407.591,305.902C417.102,303.932 417.08,303.922 426.579,301.871Z" style="fill:rgb(39,61,70);"/>
                <path d="M504.398,466.611C504.299,466.505 500.941,464.022 501.367,457.49C502.088,446.45 512.508,443.078 517.537,444.35C523.312,445.811 519.732,450.839 517.458,451.155C517.081,451.208 513.556,449.95 511.686,450.911C506.8,453.422 506.352,461.542 511.485,462.569C516.192,463.511 517.62,457.877 520.785,461.229C523.384,463.982 519.471,466.437 518.761,466.917C514.477,469.811 510.174,469.086 509.42,468.959C506.16,468.41 505.144,467.212 504.398,466.611Z" style="fill:rgb(39,61,70);"/>
                <path d="M587.966,440.473C587.998,439.843 587.501,433.708 592.185,429.182C592.871,428.521 597.354,424.19 603.504,425.481C608.866,426.608 606.871,430.61 605.497,431.497C604.109,432.392 604.018,432.231 602.401,431.931C593.79,430.333 592.255,442.035 597.494,443.521C600.591,444.4 603.442,441.93 603.68,441.791C606.131,440.362 608.808,443.103 607.74,445.616C607.143,447.022 600.491,452.445 593.541,449.41C588.555,447.232 588.1,441.235 587.966,440.473Z" style="fill:rgb(39,61,70);"/>
                <path d="M490.456,291.011C490.142,290.978 489.823,291.085 489.509,291.052C486.993,290.79 485.389,287.811 489.546,286.659C489.862,286.571 501.707,283.68 505.581,282.873C507.409,282.492 507.417,282.632 528.462,278.308C537.905,276.367 538.446,276.612 539.237,276.971C540.319,277.461 541.146,279.918 538.697,280.936C535.824,282.13 532.638,281.859 518.485,285.438C516.269,285.999 516.056,286.053 490.456,291.011Z" style="fill:rgb(39,61,70);"/>
                <path d="M529.408,465.169C529.1,465.18 528.8,465.292 528.492,465.303C528.227,465.313 526.224,465.386 525.764,463.419C525.357,461.676 525.813,461.587 525.56,452.499C525.335,444.394 525.298,442.111 527.687,440.977C527.952,440.851 531.382,439.908 531.869,443.455C532.023,444.584 531.768,452.953 531.981,457.485C532,457.893 532.172,461.555 531.879,462.595C531.366,464.415 531.013,464.201 529.408,465.169Z" style="fill:rgb(39,61,70);"/>
                <path d="M540.544,296.78C538.823,296.801 538.673,297.32 537.573,296.408C537.302,296.184 535.502,293.471 539.486,292.44C540.2,292.255 540.216,292.382 548.474,290.384C555.936,288.58 556.93,288.951 557.622,289.209C558.442,289.516 560.196,291.294 557.814,292.981C556.65,293.806 551.049,294.684 540.544,296.78Z" style="fill:rgb(39,61,70);"/>
                <path d="M514.446,297.244C508.327,298.584 505.535,299.542 504.105,297.767C503.377,296.863 503.368,295.129 505.459,294.391C505.673,294.315 515.695,291.888 517.548,292.302C519.486,292.735 520.081,295.658 516.572,296.703C515.871,296.912 515.146,297.035 514.446,297.244Z" style="fill:rgb(39,61,70);"/>
                <path d="M528.525,434.821C528.171,434.755 527.8,434.837 527.446,434.771C523.154,433.976 525.669,426.194 530.48,428.535C532.725,429.628 532.202,433.789 529.543,434.627C529.213,434.731 528.854,434.717 528.525,434.821Z" style="fill:rgb(39,61,70);"/>
                <path d="M622.499,425.814C622.8,425.89 623.126,425.822 623.427,425.898C626.109,426.577 626.488,428.893 624.431,429.249C621.932,429.682 621.943,429.638 619.461,430.244C617.499,430.723 616.681,429.755 618.041,428.258C620.408,425.652 620.771,426.192 622.499,425.814Z" style="fill:rgb(242,232,215);"/>
                <path d="M548.526,441.929C548.875,441.979 549.232,441.953 549.581,442.003C552.589,442.435 552.891,444.841 550.424,445.155C547.883,445.478 547.901,445.474 545.446,446.126C545.32,446.159 544.281,446.435 543.823,446.053C542.99,445.358 543.947,444.379 544.047,444.276C546.157,442.115 547.107,442.315 548.526,441.929Z" style="fill:rgb(242,232,215);"/>
            </g>
        </g>
    </g>
</svg>
