<?xml version="1.0" encoding="UTF-8" standalone="no"?>
<!DOCTYPE svg PUBLIC "-//W3C//DTD SVG 1.1//EN" "http://www.w3.org/Graphics/SVG/1.1/DTD/svg11.dtd">
<svg width="100%" height="100%" viewBox="0 0 351 498" version="1.1" xmlns="http://www.w3.org/2000/svg" xmlns:xlink="http://www.w3.org/1999/xlink" xml:space="preserve" xmlns:serif="http://www.serif.com/" style="fill-rule:evenodd;clip-rule:evenodd;stroke-linejoin:round;stroke-miterlimit:2;">
    <g transform="matrix(1,0,0,1,-10971.946795,-4061.653049)">
        <g transform="matrix(1,0,0,1,-0.228456,-0.941977)">
            <g id="Fondo" transform="matrix(0.846195,0,0,0.846195,10720.591866,3885.815632)">
                <path d="M297.467,686.496C297.49,559.831 297.512,433.165 297.535,306.5C297.545,283.362 293.378,264.758 320.585,257.842C331.528,255.06 457.59,236.398 469.519,234.632C598.51,215.536 598.333,214.453 609.567,212.918C636.348,209.26 638.271,207.097 642.099,210.934C647.415,216.264 639.212,223.278 648.68,228.165C650.904,229.313 664.16,236.157 676.397,242.69C680.684,244.98 680.876,243.801 685.59,242.985C706.819,239.312 711.668,238.024 711.879,247.497C711.943,250.352 711.881,563.98 711.875,591.5C711.85,720.765 712.051,720.906 710.533,724.518C707.315,727.086 706.485,727.748 660.54,736.71C635.726,741.55 608.899,747.184 604.415,748.126C533.283,763.065 394.457,791.13 375.424,795.15C347.292,801.091 313.879,791.554 300.906,770.267C297.164,764.127 297.383,763.683 297.467,686.496Z" style="fill:rgb(37,36,42);"/>
                <path d="M494.579,284.959C547.223,275.828 599.867,266.698 652.511,257.568C661.509,256.011 660.016,260.257 666.96,268.116C685.382,288.967 701.889,299.289 702.151,299.691C702.988,300.98 702.368,524.613 702.585,655.499C702.594,661.119 695.873,661.071 674.05,688.116C653.774,713.243 648.391,726.641 646.506,729.504C645.181,731.516 589.049,741.788 460.523,768.611C455.648,769.629 404.072,780.392 399.506,780.928C397.048,781.216 397.671,776.946 397.67,776.5C397.585,738.595 396.612,304.982 397.908,302.692C399.12,300.552 464.084,290.77 494.579,284.959Z" style="fill:rgb(254,200,106);"/>
                <path d="M637.444,471.238C621.867,473.978 478.686,499.157 442.526,504.297C441.911,504.251 437.373,503.906 435.941,500.291C434.386,496.364 435.216,496.19 435.285,447.5C435.382,378.961 434.67,378.493 436.855,375.76C440.015,371.805 441.021,372.884 557.556,354.832C564.756,353.717 639.378,342.158 647.571,340.998C648.469,340.871 656.779,339.695 656.875,347.485C656.913,350.547 656.87,458.758 656.859,459.503C656.697,469.806 651.337,468.817 637.444,471.238Z" style="fill:rgb(37,36,42);"/>
                <path d="M575.422,361.046C590.924,358.572 646.044,350.225 646.525,350.266C648.316,350.416 648.201,351.368 648.137,380.5C647.964,458.872 648.848,459.987 646.606,460.777C643.054,462.029 537.884,479.456 528.42,481.024C470.598,490.605 445.616,495.836 444.66,494.393C443.818,493.124 444.316,392.368 444.36,383.496C444.381,379.19 447.007,380.963 505.531,371.699C519.749,369.448 572.2,361.552 575.422,361.046Z" style="fill:rgb(226,227,228);"/>
                <path d="M319.335,683.841C314.656,680.354 306.282,675.353 306.299,669.496C306.36,647.497 306.878,460.587 306.35,394.502C306.274,385.04 310.524,395.368 321.705,400.069C354.777,414.015 365.134,401.979 366.007,407.538C366.366,409.827 365.965,480.183 365.929,486.499C365.85,500.259 365.894,500.215 365.928,658.5C365.935,691.217 366.444,692.639 363.441,693.091C340.522,696.545 322.427,685.695 319.335,683.841" style="fill:rgb(213,148,67);"/>
                <path d="M378.594,784.954C376.02,785.184 374.813,786.11 374.768,783.491C374.122,745.897 375.879,745.94 374.801,313.496C374.789,308.789 372.948,305.931 379.563,304.87C386.964,303.683 391.153,302.509 391.21,304.538C391.225,305.059 392.026,780.949 390.425,782.407C389.852,782.929 389.75,782.758 378.594,784.954Z" style="fill:rgb(254,200,106);"/>
                <path d="M427.519,278.892C374.542,288.222 374.4,288.135 373.926,288.826C372.384,291.076 378.216,290.057 378.596,289.991C485.538,271.311 650.478,240.646 652.59,241.197C653.203,241.357 662.008,245.798 662.033,245.855C662.891,247.864 658.225,247.522 656.554,247.842C631.787,252.582 418.62,289.5 397.425,293.099C396.841,293.199 343.04,306.268 326.74,286.314C322.208,280.766 330.124,283.296 414.538,268.715C441.784,264.008 527.563,250.919 527.563,250.919C549.02,247.923 620.491,236.23 628.565,234.909C638.57,233.272 640.985,234.816 649.239,239.04C649.239,239.04 642.768,240.001 599.543,247.779C585.779,250.256 446.424,275.332 427.519,278.892" style="fill:rgb(226,227,228);"/>
                <path d="M321.246,777.96C320.764,777.642 306.345,769.916 306.232,756.498C306.195,752.093 305.774,702.015 306.404,701.424C309.411,698.601 307.93,705.781 328.579,713.269C351.843,720.27 352.611,717.144 364.59,717.052C366.509,717.038 365.938,720.149 365.933,752.5C365.928,785.737 366.406,787.298 363.498,787.451C338.497,788.765 324.182,779.799 321.246,777.96" style="fill:rgb(213,148,67);"/>
                <path d="M338.427,264.079C412.555,252.979 412.328,251.929 486.419,241.01C532.805,234.173 632.634,217.582 634.159,218.861C634.315,218.992 636.596,224.375 632.44,225.095C600.165,230.69 455.261,252.569 326.591,273.975C322.986,274.669 318.727,274.801 316.592,281.522C313.914,289.954 327.414,305.806 357.484,306.805C363.977,307.021 363.92,306.689 364.453,306.85C366.616,307.505 365.605,308.345 365.93,313.525C365.928,367.128 366.146,367.844 364.473,368.431C361.494,369.477 345.895,370.454 334.633,367.053C327.911,365.023 323.189,362.501 322.245,361.997C302.713,351.162 306.362,343.513 306.366,340.5C306.431,288.532 305.573,280.216 307.959,276.794C314.307,267.694 323.864,266.001 338.427,264.079" style="fill:rgb(213,148,67);"/>
                <path d="M663.383,711.415C680.912,685.463 696.112,671.444 699.411,668.401C704.263,663.926 702.626,670.353 702.606,672.501C702.197,716.701 703.92,718.443 700.438,719.218C696.699,720.05 655.4,729.238 653.598,729.136C651.256,729.004 660.58,715.839 663.383,711.415Z" style="fill:rgb(254,200,106);"/>
                <path d="M320.331,391.848C319.928,391.573 306.268,383.417 306.266,377.499C306.26,361.66 305.845,357.625 308.199,359.883C309.145,360.791 315.124,366.525 321.568,369.355C344.436,378.41 345.468,376.62 364.487,375.64C367.047,375.508 365.945,397.825 365.415,398.43C363.767,400.312 341.007,401.078 328.454,395.608C323.211,393.324 323.306,393.37 320.331,391.848" style="fill:rgb(213,148,67);"/>
                <path d="M691.573,250.907C699.825,249.408 699.767,249.387 700.485,249.288C703.583,248.862 702.536,257.464 702.531,260.5C702.477,289.952 703.418,293.519 700.548,291.423C681.253,277.332 668.233,261.254 665.816,258.269C662.951,254.731 667.048,255.074 691.573,250.907Z" style="fill:rgb(254,200,106);"/>
                <path d="M489.345,441.499C489.366,432.493 490.757,419.64 486.245,429.366C477.712,447.754 473.396,428.289 470.482,428.329C468.795,428.352 470.142,441.636 469.699,446.523C469.386,449.979 465.499,451.412 463.792,450.094C460.643,447.662 462.225,414.952 462.985,413.801C468.23,405.866 476.226,424.72 478.592,426.368C479.182,426.778 480.096,427.157 484.177,419.33C485.137,417.489 486.012,415.604 486.999,413.778C487.384,413.066 492.377,403.828 496.238,409.646C496.603,410.197 498.196,442.751 495.335,445.313C490.341,449.787 489.413,442.063 489.345,441.499Z" style="fill:rgb(37,36,42);"/>
                <path d="M610.425,413.06C606.852,413.605 600.161,413.784 600.084,416.453C600.03,418.338 601.736,431.573 595.536,431.009C592.855,430.765 591.051,429.793 592.43,397.498C592.666,391.965 599.822,388.85 600.072,398.505C600.198,403.345 597.815,407.417 604.469,406.301C610.21,405.337 615.34,405.471 615.391,402.493C615.397,402.138 613.602,387.388 620.593,389.192C623.847,390.032 623.136,392.986 623.166,417.5C623.183,431.54 617.113,427.154 616.489,426.51C614.763,424.727 615.605,424.354 615.423,414.504C615.36,411.138 613.725,412.622 610.425,413.06Z" style="fill:rgb(37,36,42);"/>
                <path d="M518.208,436.372C517.997,436.856 516.062,444.867 511.354,442.761C507.066,440.843 513.295,430.573 521.515,407.506C524.009,400.506 528.953,402.724 530.307,405.598C544.02,434.705 544.687,435.028 543.287,437.392C541.88,439.767 538.276,440.836 535.983,436.253C534.589,433.468 535.549,431.917 532.497,432.253C517.34,433.925 518.252,436.311 518.208,436.372Z" style="fill:rgb(37,36,42);"/>
                <path d="M321.065,692.293C347.327,705.51 364.486,699.893 364.486,699.893C366.242,700.039 367.934,709.657 363.461,710.232C331.282,714.37 306.358,695.664 306.298,688.503C306.295,688.085 306.256,683.382 307.505,683.418C308.463,683.446 316.566,690.029 321.065,692.293Z" style="fill:rgb(213,148,67);"/>
                <path d="M573.575,395.978C574.083,395.944 579.03,395.61 579.404,398.513C580.085,403.802 571.811,403.632 570.361,404.105C565.731,405.614 572.12,431.869 566.304,435.1C559.842,438.69 561.194,426.177 561.22,408.503C561.229,401.851 552.224,409.579 550.257,404.605C548.067,399.066 552.599,399.402 573.575,395.978Z" style="fill:rgb(37,36,42);"/>
                <path d="M529.153,420.668C529.816,421.975 532.013,425.425 529.617,425.836C527.621,426.178 521.283,427.655 522.434,424.484C523.372,421.901 526.192,413.14 527.515,416.488C527.647,416.822 527.637,416.798 529.153,420.668Z" style="fill:rgb(226,227,228);"/>
            </g>
        </g>
    </g>
</svg>
