<?xml version="1.0" encoding="UTF-8" standalone="no"?>
<!DOCTYPE svg PUBLIC "-//W3C//DTD SVG 1.1//EN" "http://www.w3.org/Graphics/SVG/1.1/DTD/svg11.dtd">
<svg width="100%" height="100%" viewBox="0 0 1274 221" version="1.1" xmlns="http://www.w3.org/2000/svg" xmlns:xlink="http://www.w3.org/1999/xlink" xml:space="preserve" xmlns:serif="http://www.serif.com/" style="fill-rule:evenodd;clip-rule:evenodd;stroke-linejoin:round;stroke-miterlimit:2;">
    <g transform="matrix(1,0,0,1,-9295.825984,-6054.03661)">
        <g transform="matrix(1.276754,0,0,1.897866,-2116.350918,-3543.870901)">
            <g transform="matrix(1.688967,0,0,1.688967,-6311.398714,-3581.104994)">
                <g transform="matrix(0.780818,0,0,0.526907,8859.349311,4832.797278)">
                    <rect x="217.384" y="534.737" width="756.123" height="130.268" style="fill:rgb(21,21,21);"/>
                </g>
                <g transform="matrix(0.783236,0,0,0.530043,8857.657104,4831.681288)">
                    <rect x="227.09" y="617.714" width="38.79" height="38.57" style="fill:rgb(251,251,251);"/>
                </g>
                <g transform="matrix(0.783236,0,0,0.530043,8888.038958,4811.237278)">
                    <rect x="227.09" y="617.714" width="38.79" height="38.57" style="fill:rgb(251,251,251);"/>
                </g>
                <g transform="matrix(0.783236,0,0,0.530043,8857.657104,4790.793269)">
                    <rect x="227.09" y="617.714" width="38.79" height="38.57" style="fill:rgb(251,251,251);"/>
                </g>
                <g transform="matrix(0.783236,0,0,0.530043,8918.420812,4831.681288)">
                    <rect x="227.09" y="617.714" width="38.79" height="38.57" style="fill:rgb(251,251,251);"/>
                </g>
                <g transform="matrix(0.783236,0,0,0.530043,8918.420812,4790.793269)">
                    <rect x="227.09" y="617.714" width="38.79" height="38.57" style="fill:rgb(251,251,251);"/>
                </g>
                <g transform="matrix(0.783236,0,0,0.530043,8948.802665,4811.237278)">
                    <rect x="227.09" y="617.714" width="38.79" height="38.57" style="fill:rgb(251,251,251);"/>
                </g>
                <g transform="matrix(0.783236,0,0,0.530043,8979.184519,4831.681288)">
                    <rect x="227.09" y="617.714" width="38.79" height="38.57" style="fill:rgb(251,251,251);"/>
                </g>
                <g transform="matrix(0.783236,0,0,0.530043,8979.184519,4790.793269)">
                    <rect x="227.09" y="617.714" width="38.79" height="38.57" style="fill:rgb(251,251,251);"/>
                </g>
                <g transform="matrix(0.783236,0,0,0.530043,9009.566373,4811.237278)">
                    <rect x="227.09" y="617.714" width="38.79" height="38.57" style="fill:rgb(251,251,251);"/>
                </g>
                <g transform="matrix(0.783236,0,0,0.530043,9039.948227,4831.681288)">
                    <rect x="227.09" y="617.714" width="38.79" height="38.57" style="fill:rgb(251,251,251);"/>
                </g>
                <g transform="matrix(0.783236,0,0,0.530043,9039.948227,4790.793269)">
                    <rect x="227.09" y="617.714" width="38.79" height="38.57" style="fill:rgb(251,251,251);"/>
                </g>
                <g transform="matrix(0.783236,0,0,0.530043,9070.330081,4811.237278)">
                    <rect x="227.09" y="617.714" width="38.79" height="38.57" style="fill:rgb(251,251,251);"/>
                </g>
                <g transform="matrix(0.783236,0,0,0.530043,9100.711935,4831.681288)">
                    <rect x="227.09" y="617.714" width="38.79" height="38.57" style="fill:rgb(251,251,251);"/>
                </g>
                <g transform="matrix(0.783236,0,0,0.530043,9100.711935,4790.793269)">
                    <rect x="227.09" y="617.714" width="38.79" height="38.57" style="fill:rgb(251,251,251);"/>
                </g>
                <g transform="matrix(0.783236,0,0,0.530043,9131.093789,4811.237278)">
                    <rect x="227.09" y="617.714" width="38.79" height="38.57" style="fill:rgb(251,251,251);"/>
                </g>
                <g transform="matrix(0.783236,0,0,0.530043,9161.475642,4831.681288)">
                    <rect x="227.09" y="617.714" width="38.79" height="38.57" style="fill:rgb(251,251,251);"/>
                </g>
                <g transform="matrix(0.783236,0,0,0.530043,9161.475642,4790.793269)">
                    <rect x="227.09" y="617.714" width="38.79" height="38.57" style="fill:rgb(251,251,251);"/>
                </g>
                <g transform="matrix(0.783236,0,0,0.530043,9191.857496,4811.237278)">
                    <rect x="227.09" y="617.714" width="38.79" height="38.57" style="fill:rgb(251,251,251);"/>
                </g>
                <g transform="matrix(0.783236,0,0,0.530043,9222.23935,4831.681288)">
                    <rect x="227.09" y="617.714" width="38.79" height="38.57" style="fill:rgb(251,251,251);"/>
                </g>
                <g transform="matrix(0.783236,0,0,0.530043,9222.23935,4790.793269)">
                    <rect x="227.09" y="617.714" width="38.79" height="38.57" style="fill:rgb(251,251,251);"/>
                </g>
                <g transform="matrix(0.783236,0,0,0.530043,9252.621204,4811.237278)">
                    <rect x="227.09" y="617.714" width="38.79" height="38.57" style="fill:rgb(251,251,251);"/>
                </g>
                <g transform="matrix(0.783236,0,0,0.530043,9283.003058,4831.681288)">
                    <rect x="227.09" y="617.714" width="38.79" height="38.57" style="fill:rgb(251,251,251);"/>
                </g>
                <g transform="matrix(0.783236,0,0,0.530043,9283.003058,4790.793269)">
                    <rect x="227.09" y="617.714" width="38.79" height="38.57" style="fill:rgb(251,251,251);"/>
                </g>
                <g transform="matrix(0.783236,0,0,0.530043,9313.384912,4811.237278)">
                    <rect x="227.09" y="617.714" width="38.79" height="38.57" style="fill:rgb(251,251,251);"/>
                </g>
                <g transform="matrix(0.783236,0,0,0.530043,9343.766765,4831.681288)">
                    <rect x="227.09" y="617.714" width="38.79" height="38.57" style="fill:rgb(251,251,251);"/>
                </g>
                <g transform="matrix(0.783236,0,0,0.530043,9343.766765,4790.793269)">
                    <rect x="227.09" y="617.714" width="38.79" height="38.57" style="fill:rgb(251,251,251);"/>
                </g>
                <g transform="matrix(0.783236,0,0,0.530043,9374.148619,4811.237278)">
                    <rect x="227.09" y="617.714" width="38.79" height="38.57" style="fill:rgb(251,251,251);"/>
                </g>
                <g transform="matrix(0.783236,0,0,0.530043,9404.530473,4831.681288)">
                    <rect x="227.09" y="617.714" width="38.79" height="38.57" style="fill:rgb(251,251,251);"/>
                </g>
                <g transform="matrix(0.783236,0,0,0.530043,9404.530473,4790.793269)">
                    <rect x="227.09" y="617.714" width="38.79" height="38.57" style="fill:rgb(251,251,251);"/>
                </g>
            </g>
        </g>
    </g>
</svg>
