<?xml version="1.0" encoding="UTF-8" standalone="no"?>
<!DOCTYPE svg PUBLIC "-//W3C//DTD SVG 1.1//EN" "http://www.w3.org/Graphics/SVG/1.1/DTD/svg11.dtd">
<svg width="100%" height="100%" viewBox="0 0 417 453" version="1.1" xmlns="http://www.w3.org/2000/svg" xmlns:xlink="http://www.w3.org/1999/xlink" xml:space="preserve" xmlns:serif="http://www.serif.com/" style="fill-rule:evenodd;clip-rule:evenodd;stroke-linejoin:round;stroke-miterlimit:2;">
    <g transform="matrix(1,0,0,1,-8907.983025,-4658.646148)">
        <g transform="matrix(1,0,0,1,-0.228456,-0.941977)">
            <g transform="matrix(0.562987,0,0,0.562987,8776.676841,4542.423577)">
                <g id="Fondo" transform="matrix(1.171875,0,0,1.171875,0,0)">
                    <path d="M220.883,806.633C258.162,716.188 258.812,716.559 261.736,708.581C264.118,702.08 264.602,702.437 269.227,697.261C285.08,679.521 373.326,580.767 468.819,476.796C474.601,470.5 692.771,229.251 693.667,228.789C700.73,225.148 700.041,224.354 705.459,218.462C737.727,183.374 737.625,179.16 752.522,177.717C756.064,177.374 767.596,176.257 792.162,197.91C837.076,237.502 831.324,252.003 830.12,257.41C826.527,273.548 785.68,308.228 784.356,314.476C783.286,319.528 772.232,328.629 648.858,464.823C357.896,786.017 357.812,786.071 356.562,786.618C339.576,794.05 207.919,861.696 207.701,861.813C200.456,865.691 198.867,859.143 199.495,857.497C202.242,850.294 219.597,809.516 220.883,806.633Z" style="fill:rgb(85,57,37);"/>
                    <path d="M413.366,662.381C409.413,666.895 385.907,693.735 362.928,717.898C341.351,740.587 341.878,742.114 337.495,742.203C321.85,742.518 304.536,748.908 305.941,722.544C306.543,711.243 308.832,711.904 324.01,695.076C352.002,664.042 352.463,664.529 676.358,309.376C679.784,305.619 679.596,305.611 682.973,301.931C685.19,299.516 685.572,301.929 697.907,313.023C715.141,328.523 714.57,329.896 713.438,331.457C710.904,334.951 536.664,526.307 495.236,572.256C488.714,579.49 445.665,627.236 413.366,662.381Z" style="fill:rgb(251,200,4);"/>
                    <path d="M552.599,516.589C553.012,516.12 556.412,512.261 557.805,510.766C579.141,487.885 714.451,337.741 717.845,334.902C719.468,333.544 720.787,333.238 738.19,351.788C740.241,353.974 733.597,359.848 650.768,450.741C381.799,745.897 383.694,747.595 359.456,772.456C356.989,774.986 341.826,771.464 342.072,765.478C342.63,751.892 340.308,750.571 349.477,740.478C536.485,534.599 536.146,534.314 552.599,516.589Z" style="fill:rgb(251,200,4);"/>
                    <path d="M302.662,709.832C283.901,716.895 268.979,708.795 273.733,703.69C281.68,695.155 424.236,537.586 425.367,536.366C442.574,517.792 442.012,517.322 637.804,301.756C659.198,278.2 660.226,275.884 662.229,277.827C680.268,295.331 681.273,295.498 680.206,297.332C679.86,297.926 484.954,511.528 479.946,516.902C462.755,535.352 308.45,705.85 302.662,709.832Z" style="fill:rgb(251,200,4);"/>
                    <path d="M752.482,185.141C756.189,185.308 769.462,185.907 792.678,208.305C813.927,228.806 828.396,245.698 822.071,259.303C819.539,264.748 784.485,302.401 781.097,306.041C777.648,309.745 767.217,283.07 704.845,233.138C703.803,232.304 703.784,231.534 714.631,219.62C743.309,188.121 742.973,186.428 752.482,185.141Z" style="fill:rgb(236,111,105);"/>
                    <path d="M337.172,751.497C337.246,764.095 333.059,772.326 345.497,776.51C347.499,777.184 349.587,777.574 351.621,778.143C358.108,779.96 348.65,783.251 329.731,792.975C318.493,798.751 269.205,823.797 268.552,823.86C266.382,824.067 255.283,805.093 235.703,794.091C231.384,791.665 234.569,790.174 248.028,757.281C266.652,711.768 266.544,707.654 269.42,710.589C276.91,718.232 278.446,720.577 299.507,716.56C303.132,715.869 296.483,734.756 306.715,744.264C316.308,753.18 336.773,744.158 337.172,749.518C337.221,750.176 337.123,750.839 337.172,751.497Z" style="fill:rgb(241,168,109);"/>
                    <path d="M726.731,308.267C709.16,290.857 709.114,290.931 707.625,289.381C680.503,261.141 678.285,263.396 676.646,260.426C675.641,258.604 687.739,246.324 688.428,246.212C693.237,245.432 765.483,316.87 766.355,323.522C766.878,327.515 757.32,335.447 756.321,336.276C753.812,338.358 753.452,336.06 726.731,308.267Z" style="fill:rgb(251,251,250);"/>
                    <path d="M682.727,273.254C688.331,278.614 751.224,338.761 750.55,342.512C750.24,344.235 744.595,350.127 742.662,348.318C736.327,342.389 664.903,275.544 665.137,272.466C665.235,271.186 671.599,263.627 673.242,264.897C673.323,264.959 681.968,272.585 682.727,273.254Z" style="fill:rgb(251,251,249);stroke:rgb(251,251,250);stroke-width:1.52px;"/>
                    <path d="M773.534,308.474C775.174,310.83 779.133,311.919 772.447,318.446C769.54,321.285 769.706,317.948 764.318,311.656C731.201,272.989 693.238,242.926 693.14,241.535C693.029,239.973 697.497,234.761 699.275,235.944C704.235,239.241 743.871,271.94 773.534,308.474Z" style="fill:rgb(251,249,247);stroke:rgb(251,251,250);stroke-width:1.52px;"/>
                </g>
                <g transform="matrix(1.395992,0.489041,-0.489041,1.395992,886.502522,-1173.732949)">
                    <path d="M312.099,895.73C304.053,912.872 304.598,913.055 296.94,930.398" style="fill:rgb(252,249,226);"/>
                    <path d="M307.805,893.714C308.917,891.345 311.744,890.324 314.114,891.436C316.484,892.548 317.505,895.376 316.393,897.745C308.37,914.838 308.915,915.021 301.279,932.314C300.222,934.709 297.419,935.794 295.024,934.737C292.629,933.68 291.543,930.877 292.601,928.482C300.281,911.089 299.736,910.906 307.805,893.714Z" style="fill:rgb(251,247,243);"/>
                </g>
                <g transform="matrix(0.998871,0.047499,-0.047499,0.998871,33.913111,-26.101982)">
                    <path d="M312.099,895.73C304.053,912.872 304.598,913.055 296.94,930.398" style="fill:rgb(252,249,226);"/>
                    <path d="M307.757,893.692C308.882,891.296 311.741,890.264 314.137,891.388C316.533,892.513 317.565,895.372 316.44,897.768C308.417,914.86 308.963,915.043 301.327,932.335C300.258,934.757 297.424,935.854 295.003,934.785C292.581,933.716 291.484,930.882 292.553,928.461C300.233,911.067 299.688,910.884 307.757,893.692Z" style="fill:rgb(251,247,243);"/>
                </g>
                <g transform="matrix(0.833062,0.019658,-0.019658,0.833062,25.54187,198.837392)">
                    <path d="M312.099,895.73C304.053,912.872 304.598,913.055 296.94,930.398" style="fill:rgb(252,249,226);"/>
                    <path d="M306.889,893.284C308.239,890.409 311.669,889.17 314.544,890.52C317.42,891.87 318.658,895.3 317.309,898.175C309.291,915.257 309.836,915.44 302.205,932.723C300.922,935.628 297.521,936.946 294.615,935.663C291.709,934.38 290.392,930.979 291.675,928.073C299.36,910.669 298.814,910.487 306.889,893.284Z" style="fill:rgb(163,135,122);"/>
                </g>
            </g>
        </g>
    </g>
</svg>
