<?xml version="1.0" encoding="UTF-8" standalone="no"?>
<!DOCTYPE svg PUBLIC "-//W3C//DTD SVG 1.1//EN" "http://www.w3.org/Graphics/SVG/1.1/DTD/svg11.dtd">
<svg width="100%" height="100%" viewBox="0 0 373 430" version="1.1" xmlns="http://www.w3.org/2000/svg" xmlns:xlink="http://www.w3.org/1999/xlink" xml:space="preserve" xmlns:serif="http://www.serif.com/" style="fill-rule:evenodd;clip-rule:evenodd;stroke-linejoin:round;stroke-miterlimit:2;">
    <g transform="matrix(1,0,0,1,-7828.000356,-4081.944365)">
        <g transform="matrix(1,0,0,1,-0.228456,-0.941977)">
            <g id="Fondo" transform="matrix(1.171875,0,0,1.171875,7415.782761,3692.327061)">
                <g transform="matrix(0.997998,0.063252,-0.063252,0.997998,28.551798,-29.769498)">
                    <path d="M500.901,418.413C500.946,414.324 478.878,379.873 477.945,378.253C476.27,375.344 499.353,363.089 503.566,361.794C507.69,360.527 518.09,414.089 518.821,416.884" style="fill:rgb(133,54,51);"/>
                </g>
                <path d="M615.72,408.11C631.65,418.135 651.5,431.443 664.156,470.611C690.011,550.624 623.379,718.622 546.412,697.857C517.941,690.176 517.276,684.306 489.396,694.19C449.083,708.481 429.772,688.572 416.25,676.728C354.517,609.452 322.154,471.156 389.166,422.135C438.058,386.37 468.951,408.578 478.665,411.54C533.36,428.22 576.62,384.838 615.72,408.11" style="fill:rgb(254,58,57);"/>
                <g transform="matrix(0.800023,0,0,0.800023,102.327276,73.20247)">
                    <path d="M523.964,400.967C525.073,344.479 563.122,324.052 589.517,325.124C600.426,325.567 601.589,326.694 600.827,330.558C587.243,399.365 523.964,400.967 523.964,400.967Z" style="fill:rgb(42,177,87);"/>
                </g>
                <g transform="matrix(0.548643,0.446611,-0.625074,0.767877,474.34271,-174.587325)">
                    <circle cx="501.256" cy="529.777" r="27.181" style="fill:white;"/>
                </g>
            </g>
        </g>
    </g>
</svg>
