<?xml version="1.0" encoding="UTF-8" standalone="no"?>
<!DOCTYPE svg PUBLIC "-//W3C//DTD SVG 1.1//EN" "http://www.w3.org/Graphics/SVG/1.1/DTD/svg11.dtd">
<svg width="100%" height="100%" viewBox="0 0 686 474" version="1.1" xmlns="http://www.w3.org/2000/svg" xmlns:xlink="http://www.w3.org/1999/xlink" xml:space="preserve" xmlns:serif="http://www.serif.com/" style="fill-rule:evenodd;clip-rule:evenodd;stroke-linejoin:round;stroke-miterlimit:2;">
    <g transform="matrix(1,0,0,1,-1254.303601,-268.746303)">
        <g transform="matrix(1,0,0,1,-0.306125,0)">
            <g transform="matrix(1,0,0,1,0,-22.611878)">
                <g transform="matrix(1.171875,0,0,1.171875,997.584049,-67.391331)">
                    <path d="M496.576,461.793C494.249,468.769 487.934,494.698 487.927,494.812C487.499,501.701 485.158,529.114 485.16,531.511C485.061,531.596 485.536,574.419 486.854,594.441C484.951,598.311 486.057,598.607 482.961,605.722C479.297,614.146 479.232,613.978 478.925,614.703C460.042,659.204 423.873,686.528 407.408,695.332C309.554,747.657 259.251,652.348 308.283,586.327C326.262,562.119 330.18,561.468 342.381,552.424C342.402,551.991 343.226,551.887 343.247,551.454C343.247,551.454 341.626,550.699 341.485,550.633C333.911,552.506 318.073,556.303 294.426,551.954C291.943,551.497 276.148,548.592 264.811,541.054C223.705,513.717 233.319,477.196 235.694,457.525C241.991,405.37 216.335,388.618 219.621,353.512C226.288,282.273 333.962,312.508 419.834,385.095C476.649,433.12 483.689,450.985 496.576,461.793Z" style="fill:rgb(245,119,54);"/>
                </g>
                <g transform="matrix(1.171875,0,0,1.171875,997.584049,-67.391331)">
                    <path d="M537.062,596.241C539.459,558.731 528.574,462.842 527.448,461.585C535.22,456.838 585.109,384.754 676.454,336.413C706.104,320.722 768.046,297.549 792.713,326.34C824.482,363.422 782.471,401.703 787.333,450.521C789.243,469.692 805.98,523.158 744.346,548.135C716.774,559.309 688.224,551.992 683.504,550.782C670.698,547.5 698.985,557.419 721.029,594.782C768.79,675.732 685.87,757.158 591.847,678.088C562.045,653.025 547.625,620.497 545.071,614.737C544.609,613.696 544.397,613.865 542.887,610.327C541.102,606.147 537.879,597.361 537.062,596.241Z" style="fill:rgb(245,119,54);"/>
                </g>
                <g transform="matrix(1.171875,0,0,1.171875,997.584049,-67.391331)">
                    <path d="M354.881,382.466C354.832,384.678 354.483,400.218 348.209,409.302C336.222,426.658 309.49,425.757 295.726,419.053C242.818,393.283 253.862,325.337 317.373,347.901C322.987,349.895 336.261,356.243 343.285,361.787C355.031,371.056 354.688,380.952 354.881,382.466Z" style="fill:rgb(251,246,225);"/>
                </g>
                <g transform="matrix(1.171875,0,0,1.171875,997.584049,-67.391331)">
                    <path d="M669.07,383.479C669.262,381.727 670.461,370.735 678.606,363.619C704.402,341.083 757.069,331.903 761.717,368.462C766.888,409.14 704.065,442.531 677.583,411.434C667.74,399.876 669.116,384.732 669.07,383.479Z" style="fill:rgb(251,246,225);"/>
                </g>
                <g transform="matrix(1.171875,0,0,1.171875,997.584049,-67.391331)">
                    <path d="M311.497,409.593C275.841,403.689 276.291,358.881 304.513,361.269C343.443,364.562 340.117,413.769 311.497,409.593Z" style="fill:rgb(245,119,54);"/>
                </g>
                <g transform="matrix(1.171875,0,0,1.171875,997.584049,-67.391331)">
                    <path d="M713.501,409.525C680.099,414.121 680.847,369.498 712.459,362.316C751.864,353.363 746.072,404.316 713.501,409.525Z" style="fill:rgb(245,119,54);"/>
                </g>
                <g transform="matrix(1.171875,0,0,1.171875,997.653155,-64.376246)">
                    <path d="M537.361,507.486C542.126,510.184 576.587,513.987 622.597,537.298C627.643,539.855 654.227,556.201 666.012,564.597C675.716,571.509 687.999,581.417 693.307,587.67C728.605,629.252 678.959,699.998 637.754,654.278C624.684,639.776 597.238,593.667 579.126,569.779C546.293,526.475 543.55,524.986 539.206,522.628C537.331,515.196 538.061,515.184 537.361,507.486Z" style="fill:rgb(252,196,118);"/>
                </g>
                <g transform="matrix(1.171875,0,0,1.171875,997.653155,-64.376246)">
                    <path d="M486.584,508.486C486.042,515.679 486.806,515.66 484.893,522.684C477.072,526.01 435.677,581.327 419.971,605.822C417.423,609.794 417.567,609.727 414.613,613.566C413.006,612.982 405.002,607.313 398.631,605.514C398.254,603.014 394.781,579.976 373.846,585.924C365.792,577.538 345.455,577.621 342.378,576.286C368.693,547.583 444.196,514.368 486.584,508.486Z" style="fill:rgb(252,196,118);"/>
                </g>
                <g transform="matrix(1.171875,0,0,1.171875,997.653155,-64.376246)">
                    <path d="M343.708,444.094C383.969,446.139 459.899,482.311 489.794,485.456C489.256,489.514 489.209,489.43 488.46,493.482C454.827,498.271 454.975,499.148 378.577,513.473C350.211,518.791 341.9,517.397 339.179,516.974C343.41,516.02 348.759,506.851 346.749,499.965C357.905,491.843 356.733,472.03 347.488,461.52C348.737,456.843 347.217,448.666 343.708,444.094Z" style="fill:rgb(252,196,118);"/>
                </g>
                <g transform="matrix(1.171875,0,0,1.171875,997.653155,-64.376246)">
                    <path d="M680.35,444.229C681.058,447.213 677.405,459.673 676.615,461.701C668.885,470.104 663.754,490.219 678.682,501.115C680.053,504.373 682.972,513.994 683.24,516.93C661.644,518.123 564.633,494.36 536.054,493.828C534.677,489.652 535.017,489.709 534.367,485.49C566.67,481.435 647.749,443.855 680.35,444.229Z" style="fill:rgb(252,196,118);"/>
                </g>
                <g transform="matrix(1.171875,0,0,1.171875,997.653155,-64.376246)">
                    <path d="M342.378,576.286C343.391,576.654 370.306,576.7 373.846,585.924C333.553,602.387 340.007,651.699 375.339,642.007C377.919,641.299 398.568,630.776 398.631,605.514C404.099,603.896 413.006,612.982 414.613,613.566C405.306,625.854 371.055,701.086 330.657,654.36C326.453,649.496 309.546,624.45 324.726,596.624C329.718,587.474 340.763,577.712 342.378,576.286Z" style="fill:rgb(251,246,225);"/>
                </g>
                <g transform="matrix(1.171875,0,0,1.171875,997.653155,-64.376246)">
                    <path d="M532.835,475.493C534.355,474.041 636.473,353.325 652.251,409.561C657.989,430.013 633.401,439.585 630.573,440.686C629.724,441.016 567.678,461.83 539.62,476.739C537.571,477.828 537.531,477.471 535.538,478.61C534.661,479.112 535.143,479.545 534.191,479.964C533.658,480.199 533.873,479.343 533.33,479.582C533.165,478.219 533,476.856 532.835,475.493Z" style="fill:rgb(252,196,118);"/>
                </g>
                <g transform="matrix(1.171875,0,0,1.171875,997.653155,-64.376246)">
                    <path d="M491.612,475.498C491.41,477.131 491.209,478.763 491.007,480.396C488.378,476.917 487.627,478.114 483.614,476.251C415.742,444.752 413.722,449.838 388.414,438.681C373.649,432.172 369.482,418.495 371.851,409.587C386.616,354.091 484.856,469.045 491.612,475.498Z" style="fill:rgb(252,196,118);"/>
                </g>
                <g transform="matrix(1.171875,0,0,1.171875,997.653155,-64.376246)">
                    <path d="M538.912,533.526C542.373,532.913 613.808,646.389 640.362,676.606C643.204,679.84 637.968,680.416 633.391,678.894C606.572,669.977 587.922,657.511 551.938,582.269C544.597,566.919 545.421,566.219 539.593,555.491C539.156,544.509 539.175,544.616 538.912,533.526Z" style="fill:rgb(252,196,118);"/>
                </g>
                <g transform="matrix(1.171875,0,0,1.171875,997.653155,-64.376246)">
                    <path d="M485.16,531.511C484.647,542.999 484.855,542.932 484.401,554.487L483.15,555.5C476.238,570.996 477.162,571.259 469.796,586.651C441.973,644.789 422.146,670.226 389.446,679.216C385.267,680.365 381.178,679.519 383.669,676.611C418.22,636.27 475.674,539.673 485.16,531.511Z" style="fill:rgb(252,196,118);"/>
                </g>
                <g transform="matrix(1.171875,0,0,1.171875,997.653155,-64.376246)">
                    <path d="M343.708,444.094C348.588,447.185 350.377,458.055 347.488,461.52C327.229,445.175 278.888,465.128 295.959,490.2C304.063,502.101 332.563,510.713 346.749,499.965C349.894,504.22 347.167,515.747 340.674,516.814C326.725,520.497 259.715,518.1 269.857,473.582C276.887,442.725 331.878,440.37 343.708,444.094Z" style="fill:rgb(251,246,225);"/>
                </g>
                <g transform="matrix(1.171875,0,0,1.171875,997.653155,-64.376246)">
                    <path d="M680.35,444.229C698.051,439.542 746.206,445.268 753.512,471.496C766.638,518.616 693.789,522.097 683.24,516.93C682.147,513.788 678.299,501.949 678.682,501.115C700.751,512.046 723.953,496.503 728.173,490.26C744.247,466.489 700.087,444.448 676.615,461.701C676.322,461.272 679.974,446.388 680.35,444.229Z" style="fill:rgb(251,246,225);"/>
                </g>
                <g transform="matrix(1.171875,0,0,1.171875,997.653155,-64.376246)">
                    <path d="M347.488,461.52C356.733,472.03 357.905,491.843 346.749,499.965C332.563,510.713 304.063,502.101 295.959,490.2C278.888,465.128 327.229,445.175 347.488,461.52Z" style="fill:rgb(245,119,54);"/>
                </g>
                <g transform="matrix(1.171875,0,0,1.171875,997.653155,-64.376246)">
                    <path d="M676.615,461.701C700.087,444.448 744.247,466.489 728.173,490.26C723.953,496.503 700.751,512.046 678.682,501.115C663.754,490.219 668.885,470.104 676.615,461.701Z" style="fill:rgb(245,119,54);"/>
                </g>
                <g transform="matrix(1.171875,0,0,1.171875,997.769864,-64.198262)">
                    <path d="M617.472,626.314C617.472,626.314 613.623,610.282 627.873,601.298C634.802,596.931 644.59,594.241 648.387,580.084C650.598,571.845 657.896,568.457 666.074,564.566C675.778,571.478 687.999,581.417 693.307,587.67C728.605,629.252 678.959,699.998 637.754,654.278C630.936,646.713 617.472,626.314 617.472,626.314Z" style="fill:rgb(251,246,225);"/>
                </g>
                <g transform="matrix(1.171875,0,0,1.171875,1003.726592,-69.671416)">
                    <path d="M649.29,585.757C665.633,590.544 693.434,619.659 668.371,640.333C648.6,656.642 608.152,613.169 632.771,589.782C640.649,582.299 647.133,585.239 649.29,585.757Z" style="fill:rgb(245,119,54);"/>
                </g>
                <g transform="matrix(1.171875,0,0,1.171875,997.653155,-64.376246)">
                    <path d="M373.846,585.924C394.781,579.976 398.254,603.014 398.631,605.514C398.568,630.776 377.919,641.299 375.339,642.007C340.007,651.699 333.553,602.387 373.846,585.924Z" style="fill:rgb(245,119,54);"/>
                </g>
                <g transform="matrix(1.171875,0,0,1.171875,997.584049,-67.391331)">
                    <path d="M496.576,461.793C501.716,456.951 490.35,457.776 490.134,443.449C489.927,429.765 503.01,430.572 502.335,427.535C496.187,399.891 439.981,298.487 417.834,320.847C413.815,324.905 412.722,338.105 425.604,334.965C436.432,332.325 431.178,352.585 414.679,345.108C388.478,333.236 413.734,277.891 456.477,324.521C495.427,367.015 508.795,425.941 510.605,427.339C517.204,432.436 514.12,406.448 545.006,355.212C593.161,275.328 623.793,312.578 619.798,331.568C615.226,353.305 585.913,347.466 593.707,336.636C596.958,332.119 609.872,340.733 608.857,326.451C608.277,318.291 596.92,313.933 584.853,323.912C549.229,353.372 517.977,426.661 521.813,427.804C533.153,431.184 534.619,443.416 533.932,446.828C532.034,456.242 524.939,455.534 525.469,458.846C525.631,459.859 526.496,460.502 527.448,461.585C528.574,462.842 531.899,470.61 532.835,475.493C540.998,518.063 539.99,535.051 540.695,555.176C541.171,568.777 537.062,596.241 537.062,596.241C537.062,596.241 530.169,676.105 504.614,656.348C491.282,646.041 488.736,604.613 486.854,594.441C480.988,562.738 483.848,511.654 487.043,492.695C488.855,481.942 494.249,468.769 496.576,461.793Z" style="fill:rgb(118,87,35);"/>
                </g>
            </g>
        </g>
    </g>
</svg>
