<?xml version="1.0" encoding="UTF-8" standalone="no"?>
<!DOCTYPE svg PUBLIC "-//W3C//DTD SVG 1.1//EN" "http://www.w3.org/Graphics/SVG/1.1/DTD/svg11.dtd">
<svg width="100%" height="100%" viewBox="0 0 398 400" version="1.1" xmlns="http://www.w3.org/2000/svg" xmlns:xlink="http://www.w3.org/1999/xlink" xml:space="preserve" xmlns:serif="http://www.serif.com/" style="fill-rule:evenodd;clip-rule:evenodd;stroke-linejoin:round;stroke-miterlimit:2;">
    <g transform="matrix(1,0,0,1,-8333.026338,-4144.175406)">
        <g transform="matrix(1,0,0,1,-0.228456,-0.941977)">
            <g id="Fondo" transform="matrix(1.563892,0,0,1.563892,7731.380231,3544.101054)">
                <path d="M384.906,517.49C384.894,516.612 384.795,509.82 384.919,506.511C385.165,499.935 386.41,490.926 386.869,488.569C389.257,476.306 390.09,475.496 391.301,471.435C394.246,461.562 401.654,446.625 408.876,436.759C416.017,427.004 422.096,421.433 423.259,420.267C438.889,404.595 458.143,395.601 464.406,393.247C470.004,391.144 497.396,379.159 538.43,386.86C549.479,388.934 561.814,394.016 563.362,394.799C574.625,400.49 574.863,400.094 586.193,407.933C590.297,410.773 596.246,416.021 596.62,416.365C597.421,417.103 606.728,425.5 613.762,435.315C615.398,437.597 615.45,437.539 617.111,439.785C617.684,440.559 623.154,449.495 623.652,450.418C631.15,464.304 635.522,478.861 637.032,487.577C639.903,504.148 638.979,516.987 638.93,518.523C638.594,529.154 635.986,541.106 635.594,542.525C631.323,557.977 627.401,565.446 625.855,568.667C616.164,588.861 601.306,602.551 598.422,605.421C595.529,608.298 586.485,616.012 578.594,620.65C569.278,626.125 569.185,625.907 562.706,628.957C560.063,630.201 546.955,636.373 527.532,638.755C489.042,643.477 461.666,629.693 452.719,625.1C451.72,624.587 442.415,618.858 442.316,618.79C426.378,607.959 421.31,601.399 418.015,597.95C411.203,590.819 409.748,587.939 408.182,585.726C405.072,581.331 404.943,581.435 401.135,574.711C394.449,562.901 391.171,552.357 389.897,548.369C385.784,535.495 385.089,520.252 384.906,517.49Z" style="fill:rgb(85,83,79);"/>
                <path d="M628.105,532.434C624.652,552.465 617.608,565.938 610.114,577.244C607.217,581.615 606.262,583.175 600.709,589.668C596.613,594.458 589.12,601.617 587.169,603.081C582.592,606.518 579.684,609.514 571.717,613.869C570.876,614.33 568.393,616.037 565.471,617.442C565.083,617.629 561.646,619.281 560.636,619.793C560.157,620.035 560.093,619.879 554.465,622.424C549.886,624.494 537.514,627.885 528.459,629.232C513.978,631.387 498.738,630.246 490.529,628.373C477.683,625.444 477.571,625.751 465.407,620.719C464.388,620.298 460.728,619.279 450.345,612.76C447.297,610.846 441.255,606.748 439.647,605.334C436.472,602.541 429.233,597.21 421.402,587.576C416.445,581.477 416.566,581.398 413.291,576.639C407.175,567.751 403.043,557.331 402.343,555.565C397.76,544.004 397.725,541.499 395.374,530.526C393.658,522.522 393.399,502.645 395.279,493.451C396.126,489.306 398.127,476.389 404.947,461.721C405.283,460.997 410.796,450.336 412.728,447.656C417.376,441.208 419.639,436.456 432.863,423.884C433.019,423.736 440.035,417.603 443.432,415.399C443.724,415.21 449.172,411.332 452.483,409.472C462.702,403.735 462.853,404.05 465.288,403.027C465.893,402.774 471.121,399.863 483.572,396.813C487.457,395.862 508.902,390.609 533.551,395.25C535.399,395.598 546.517,398.396 548.341,398.959C549.209,399.228 560.439,402.899 568.361,407.75C569.607,408.513 573.997,410.62 578.277,413.809C582.279,416.792 582.471,416.523 586.229,419.824C586.255,419.846 595.005,426.751 604.078,437.835C607.249,441.709 611.886,448.498 613.477,451.514C613.591,451.729 622.379,465.436 626.546,483.49C626.933,485.169 627.471,488.527 628.563,493.488C629.532,497.89 630.532,510.773 629.464,522.497C629.007,527.502 628.916,527.472 628.105,532.434Z" style="fill:rgb(248,192,18);"/>
                <path d="M419.227,559.633C403.55,530.248 408.105,500.485 409.404,492.486C412.383,474.138 422.515,457.559 423.309,456.386C425.796,452.71 430.805,443.683 444.654,431.676C445.426,431.007 448.054,428.728 454.782,423.891C456.557,422.615 466.052,417.48 466.405,417.313C482.63,409.644 495.114,408.42 502.498,407.475C507.365,406.852 518.31,407.188 520.507,407.42C539.306,409.402 545.45,412.384 551.411,414.732C558.628,417.574 559.518,418.449 565.384,421.704C572.234,425.504 580.631,432.733 582.505,434.494C601.82,452.643 607.357,469.073 610.589,477.465C616.343,492.406 618.721,519.8 611.724,542.573C611.102,544.597 607.444,556.501 600.818,566.689C594.97,575.681 594.077,577.141 586.228,585.234C580.294,591.353 580.095,591.117 573.437,596.423C567.449,601.195 567.221,600.837 560.633,604.739C556.104,607.421 549.813,609.57 549.569,609.671C537.529,614.655 526.653,615.733 518.5,616.494C508.84,617.395 493.497,615.243 489.544,614.292C479.968,611.99 480.037,611.795 470.314,607.98C457.706,603.035 444.801,591.931 444.423,591.585C443.474,590.718 439.238,587.011 436.235,583.743C425.012,571.528 421.36,563.592 419.227,559.633Z" style="fill:rgb(85,83,79);"/>
                <path d="M605.897,497.441C606.646,503.181 607.549,508.742 606.772,519.517C605.842,532.433 600.644,551.829 588.873,567.76C587.413,569.736 584.924,573.838 575.64,582.651C572.065,586.045 563.652,592.634 556.419,596.346C545.456,601.972 541.526,602.869 531.488,605.449C525.861,606.896 500.605,611.314 474.476,599.55C462.619,594.212 456.335,589.396 448.882,583.075C447.588,581.978 444.21,578.602 443.813,578.204C441.062,575.455 434.55,567.097 433.959,566.194C430.322,560.645 419.989,546.016 417.498,521.5C417.305,519.595 416.182,508.548 417.918,497.565C418.015,496.954 419.895,486.714 422.812,478.618C423.726,476.081 427.788,466.899 430.153,463.282C434.699,456.329 438.318,449.153 453.458,436.449C455.443,434.784 463.385,429.428 465.446,428.402C469.75,426.259 474.447,422.899 490.578,418.806C499.054,416.655 517.992,414.099 537.419,419.787C550.144,423.513 550.418,424.546 558.524,428.454C561.222,429.755 564.875,432.748 567.528,434.461C569.659,435.838 582.279,445.548 589.892,457.229C590.492,458.15 593.805,462.211 598.147,471.66C600.759,477.344 602.232,480.803 604.941,492.399C605.53,494.916 605.545,494.895 605.897,497.441Z" style="fill:rgb(245,235,212);"/>
                <path d="M465.064,538.507C465.195,537.527 464.84,536.842 466.401,534.432C466.579,534.157 467.502,532.732 469.651,531.954C471.295,531.359 489.742,531.615 490.461,531.752C497.3,533.049 496.342,540.031 498.586,544.452C500.838,548.889 506.317,551.893 511.529,552.133C526.273,552.813 529.571,542.715 526.904,536.32C524.505,530.569 512.015,527.475 508.555,526.329C503.744,524.737 488.261,521.217 479.19,512.848C474.02,508.079 474.116,507.402 472.238,504.663C471.033,502.904 464.926,493.991 467.325,478.474C469.071,467.181 475.817,460.262 477.031,459.017C481.934,453.988 483.109,452.904 489.285,450.035C497.033,446.435 497.45,447.678 500.482,446.458C502.589,445.61 501.825,441.752 502.156,438.461C503.039,429.699 513.522,427.807 518.659,431.242C526.671,436.599 522.155,444.376 524.707,446.202C525.471,446.749 532.319,448.009 537.404,450.677C553.469,459.103 556.963,471.607 558.769,479.439C558.973,480.324 560.683,487.743 553.497,489.488C551.512,489.97 536.427,489.694 534.499,489.508C527.664,488.847 527.278,482.421 526.735,480.432C524.988,474.032 516.872,469.161 507.379,472.144C500.149,474.415 494.782,483.201 503.253,489.829C504.756,491.004 507.198,492.915 525.623,498.073C531.963,499.848 540.15,503.989 541.348,504.749C544.358,506.659 553.22,512.333 557.48,522.509C564.4,539.039 557.433,554.993 552.747,560.7C548.92,565.361 548.969,565.422 544.233,569.147C539.044,573.227 530.72,575.978 526.582,576.877C523.004,577.655 523.883,578.854 523.808,582.512C523.789,583.414 523.659,589.799 518.464,592.433C513.587,594.907 510.416,593.889 507.439,592.626C499.603,589.3 502.847,579.486 501.276,577.69C500.024,576.26 487.651,576.249 476.371,564.621C466.129,554.063 465.219,540.778 465.064,538.507Z" style="fill:rgb(85,83,78);"/>
                <path d="M476.094,482.468C476.21,481.448 476.861,475.746 480.117,470.276C488.139,456.797 502.421,455.655 506.457,455.125C508.695,454.83 509.643,454.78 510.176,453.414C510.263,453.191 510.324,450.734 510.33,450.5C510.513,443.127 509.823,439.93 512.52,439.76C515.76,439.556 514.794,445.474 515.088,451.515C515.276,455.389 516.735,454.614 520.538,455.293C528.834,456.774 533.031,457.786 539.27,462.771C545.539,467.78 548.733,476.941 548.73,478.501C548.728,480.255 546.717,480.317 546.486,480.324C537.51,480.604 537.006,480.14 536.412,479.592C535.345,478.608 534.412,473.787 531.68,470.363C523.739,460.406 511.363,462.038 510.473,462.063C495.894,462.464 485.595,476.184 491.46,490.518C495.367,500.066 513.481,504.136 513.602,504.173C527.681,508.454 538.408,510.721 546.377,521.587C553.027,530.655 554.169,550.668 538.619,561.666C527.606,569.454 517.5,567.277 515.531,569.524C514.5,570.701 515.049,579.147 514.822,581.531C514.792,581.849 514.475,585.179 511.722,584.04C509.046,582.932 511.352,571.063 509.751,569.286C509.045,568.502 508.092,568.506 506.513,568.346C483.489,566.009 478.548,551.554 477.116,548.683C474.361,543.158 474.892,541.846 475.122,541.277C475.465,540.429 476.225,540.323 483.501,540.425C487.979,540.488 487.783,541.542 488.773,544.404C491.109,551.156 492.825,553.337 496.586,556.389C505.709,563.794 520.852,562.733 528.774,556.881C540.382,548.306 543.243,527.753 519.382,519.855C507.608,515.958 501.371,514.994 491.664,510.171C486.161,507.437 481.747,501.951 481.464,501.527C475.436,492.487 476.062,486.935 476.094,482.468Z" style="fill:rgb(248,192,18);"/>
            </g>
        </g>
    </g>
</svg>
