<?xml version="1.0" encoding="UTF-8" standalone="no"?>
<!DOCTYPE svg PUBLIC "-//W3C//DTD SVG 1.1//EN" "http://www.w3.org/Graphics/SVG/1.1/DTD/svg11.dtd">
<svg width="100%" height="100%" viewBox="0 0 331 995" version="1.1" xmlns="http://www.w3.org/2000/svg" xmlns:xlink="http://www.w3.org/1999/xlink" xml:space="preserve" xmlns:serif="http://www.serif.com/" style="fill-rule:evenodd;clip-rule:evenodd;stroke-linejoin:round;stroke-miterlimit:2;">
    <g transform="matrix(1,0,0,1,-9005.562861,-6533.76832)">
        <g transform="matrix(1.276754,0,0,1.897866,-2116.350918,-3543.870901)">
            <g id="Fondo" transform="matrix(1.234693,0,0,0.830616,8211.297857,5138.295389)">
                <path d="M426.426,234.906C429.102,235.574 433.57,237.101 432.006,234.734C420.82,217.804 429.061,202.104 439.243,207.942C454.649,216.777 454.981,221.492 504.461,227.921C533.609,231.707 547.662,245.407 549.226,244.119C549.286,244.07 549.727,232.714 560.318,236.974C572.274,241.783 571.837,256.028 575.505,256.209C589.003,256.875 605.426,257.28 610.663,293.479C615.838,329.251 613.94,348.713 613.474,353.497C613.076,357.576 609.786,391.303 602.575,403.547C599.591,408.613 592.832,407.365 589.816,403.239C587.252,399.732 584.176,410.309 574.423,406.736C568.962,404.736 567.722,399.708 565.679,400.92C558.047,405.447 559.058,407.621 539.466,413.38C530.637,415.975 533.335,418.81 533.445,423.502C533.552,428.051 533.36,428.737 537.562,430.347C555.455,437.199 569.504,473.3 576.36,514.427C577.093,518.824 576.167,520.655 573.048,522.243C572.587,522.478 568.845,524.351 568.707,525.528C568.684,525.724 576.675,585.911 578.887,599.43C583.007,624.613 588.171,638.081 578.617,645.663C578.085,646.085 578.419,646.325 572.676,651.719C569.421,654.777 577.153,691.57 570.5,694.5C568.084,695.565 561.89,694.52 561.841,697.523C561.744,703.521 562.068,703.481 561.492,772.5C561.101,819.328 570.664,831.81 557.555,833.801C541.656,836.217 531.632,836.552 446.496,837.245C423.974,837.428 419.587,837.709 420.98,831.586C427.452,803.146 474.867,805.888 475.232,798.479C475.957,783.786 471.418,699.987 470.34,698.596C467.964,695.53 459.332,700.724 458.908,691.487C457.133,652.817 459.221,646.059 455.49,647.475C452.559,648.587 450.267,654.161 444.508,651.483C440.212,649.487 437.073,654.553 430.715,645.362C427.088,640.118 429.562,637.98 426.47,630.514C422.499,620.923 428.959,620.618 436.587,586.52C442.975,557.97 442.762,558 449.675,529.543C449.822,528.935 451.375,522.546 450.324,521.745C449.042,520.767 443.421,520.128 445.165,515.383C471.259,444.413 484.258,436.79 490.757,432.98C494.559,430.751 493.487,429.251 493.346,423.506C493.171,416.323 483.463,423.777 448.633,411.145C410.706,397.39 408.738,366.893 420.676,349.618C426.719,340.873 424.158,339.992 425.98,329.577C427.801,319.163 430.232,316.677 426.48,317.113C426.476,317.114 408.606,322.76 405.21,305.558C402.413,291.392 414.521,279.753 413.196,277.745C404.329,264.315 427.488,260.833 424.124,257.882C422.807,256.727 409.958,245.455 417.901,236.884C419.866,234.764 425.726,234.891 426.426,234.906ZM524.101,735.516C523.984,732.715 523.155,712.829 522.128,700.535C521.852,697.231 517.507,697.851 511.454,698.03C509.118,698.1 509.47,700.56 509.485,715.5C509.558,786.195 507.556,796.344 509.468,802.511C509.873,803.818 510.516,804.664 526.413,800.204C530.198,799.142 527.123,792.495 524.101,735.516Z" style="fill:rgb(59,37,17);"/>
                <path d="M532.647,411.806C527.037,415.149 531.754,426.8 529.714,430.652C528.351,433.223 497.752,437.729 497.574,432.499C497.297,424.377 498.994,417.032 493.501,416.484C476.343,414.774 439.862,411.489 422.882,388.212C410.813,371.666 423.496,352.809 425.193,350.287C430.434,342.494 429.117,327.927 433.924,310.635C436.289,302.129 439.778,297.203 456.708,286.869C465.492,281.508 456.176,293.632 466.88,314.307C473.03,326.187 490.657,329.211 488.146,310.421C487.496,305.553 489.798,311.319 498.64,318.32C510.915,328.04 517.571,322.863 517.724,317.525C517.731,317.29 517.848,313.22 519.644,315.298C521.686,317.663 538.372,331.251 545.371,325.332C547.621,323.43 547.801,325.068 549.104,327.699C556.886,343.412 556.314,343.652 557.348,348.538C558.977,356.232 566.071,340.508 577.514,342.425C594.46,345.262 591.047,375.9 567.511,373.418C563.357,372.98 559.362,371.57 562.199,374.688C564.844,377.594 571.529,375.699 570.586,379.517C564.419,404.458 550.902,404.337 532.647,411.806Z" style="fill:rgb(242,191,153);"/>
                <g transform="matrix(-0.914598,-0.404365,-0.404365,0.914598,1047.865349,216.409079)">
                    <path d="M444.155,317.513C441.542,319.035 436.13,320.028 441.563,314.581C447.591,308.537 457.36,315.147 450.453,316.203C446.902,316.746 445.207,316.9 444.155,317.513Z" style="fill:rgb(59,37,17);"/>
                </g>
                <path d="M484.807,311.507C483.658,320.028 481.055,323.045 474.522,317.476C472.033,315.355 457.853,297.971 467.919,274.664C472.122,264.933 473.966,263.356 471.501,263.511C468.033,263.73 463.59,279.543 460.334,281.111C428.935,296.227 431.602,310.881 427.587,312.69C410.38,320.44 399.697,301.497 417.952,279.832C419.457,278.046 419.732,277.363 417.6,276.338C410.609,272.979 420.328,262.666 430.49,262.292C430.856,262.279 439.416,261.965 434.338,259.826C415.134,251.736 415.707,237.291 426.453,238.894C430.869,239.552 442.213,243.897 437.489,238.509C433.385,233.827 426.05,210.039 435.49,210.621C441.063,210.965 447.478,223.524 483.482,228.636C485.643,228.943 532.345,232.997 550.363,250.638C550.689,250.957 555.021,257.699 555.705,254.579C556.185,252.392 547.95,234.283 560.328,240.833C570.437,246.182 568.782,260.184 572.473,260.67C576.323,261.177 601.852,251.945 607.286,295.529C609.905,316.536 614.49,356.307 602.201,395.397C599.673,403.439 596.337,406.379 591.66,399.414C590.356,397.471 589.878,383.288 587.575,393.528C583.171,413.103 567.129,398.075 568.408,394.489C570.382,388.952 570.895,389.21 572.708,383.571C574.145,379.101 573.007,377.991 577.372,376.224C605.155,364.979 588.434,326.262 564.77,341.911C561.974,343.761 561.121,346.473 559.896,343.305C551.949,322.735 548.578,324.328 541.298,303.591C540.082,300.126 538.503,302.504 538.572,303.505C539.152,311.961 551.496,331 531.379,319.718C522.686,314.842 512.027,302.405 511.503,302.388C506.902,302.239 522.449,324.005 507.604,319.18C503.72,317.918 489.557,308.499 484.758,295.391C484.664,295.136 482.966,290.499 481.86,293.625C481.376,294.991 483.364,294.799 484.807,311.507Z" style="fill:rgb(207,90,49);"/>
                <path d="M558.43,655.155C558.752,655.213 568.182,656.1 568.209,656.563C570.16,689.756 569.228,691.032 566.458,691.297C561.029,691.817 504.378,696.247 502.851,692.326C500.767,686.977 502.307,637.368 494.398,630.612C483.42,621.236 473.86,622.904 479.634,626.289C490.325,632.558 493.499,631.091 494.985,643.462C496.608,656.971 499.067,691.167 498.222,692.265C497.422,693.306 464.775,696.392 463.392,691.548C462.434,688.194 459.993,603.251 461.729,601.775C463.668,600.125 475.707,605.407 541.461,599.062C547.125,598.516 546.627,600.809 546.233,606.469C546.013,609.628 529.065,638.372 542.481,637.348C545.662,637.106 548.656,633.511 548.863,636.39C549.595,646.559 547.644,653.212 558.43,655.155Z" style="fill:rgb(86,148,178);"/>
                <path d="M571.916,580.448C574.898,599.562 575.286,599.398 578.745,618.455C582.481,639.045 578.692,641.692 577.87,639.397C577.847,639.332 578.82,632.721 577.488,631.516C573.61,628.011 576.965,644.67 572.35,647.12C569.646,648.555 572.746,629.387 568.71,632.746C567.634,633.642 567.281,657.622 562.478,651.52C561.606,650.413 564.055,625.847 559.731,632.729C559.159,633.639 559.478,655.686 554.881,651.075C552.448,648.634 552.977,621.775 547.94,627.991C544.353,632.417 544.755,633.58 542.581,633.097C536.625,631.773 549.996,612.1 549.851,605.494C549.337,582.084 539.209,537.274 537.886,531.419C537.471,529.586 538.2,528.961 539.555,528.722C562.831,524.621 563.169,523.987 564.564,525.445C565.338,526.253 571.381,576.041 571.916,580.448Z" style="fill:rgb(242,191,153);"/>
                <path d="M531.742,785.479C530.358,763.334 529.58,761.84 526.993,717.463C525.976,700.021 524.716,698.074 528.533,697.858C556.827,696.25 557.444,695.952 557.846,697.386C558.936,701.279 557.626,778.452 557.506,785.5C557.461,788.151 553.132,788.201 545.499,788.22C533.48,788.249 532.705,788.338 531.742,785.479Z" style="fill:rgb(242,191,153);"/>
                <path d="M474.899,701.486C475.067,699.342 474.331,698.446 476.463,698.281C500.106,696.452 502.311,696.994 504.489,697.528C506.887,698.117 505.279,699.473 504.733,786.51C504.72,788.703 503.697,789.053 485.492,788.704C479.469,788.588 479.355,787.285 479.293,783.501C479.218,778.998 477.253,726.298 474.899,701.486Z" style="fill:rgb(242,191,153);"/>
                <path d="M440.335,631.866C437.19,633.615 439.784,640.676 440.526,645.5C441.624,652.648 431.08,642.272 431.003,634.462C430.975,631.586 435.548,634.129 439.327,628.392C446.949,616.823 448.192,617.658 448.45,616.486C450.38,607.691 434.275,628.098 433.478,628.458C425.706,631.966 432.145,615.561 432.554,614.521C443.199,587.402 452.196,526.814 454.76,524.849C457.417,522.813 456.057,530.126 455.972,530.588C446.486,581.629 448.707,587.967 448.551,593.296C448.392,598.739 454.535,599.444 455.802,599.565C458.862,599.858 458,606.328 457.986,606.883C457.268,636.112 459.396,636.264 456.102,641.22C450.933,648.997 450.449,624.546 447.451,630.461C444.868,635.557 453.199,645.886 448.581,647.68C442.929,649.877 441.728,634.955 441.08,632.692C440.978,632.335 440.437,632.223 440.335,631.866Z" style="fill:rgb(242,191,153);"/>
                <path d="M508.167,816.781C508.433,817.139 513.124,823.445 513.468,818.495C513.794,813.795 502.871,809.324 508.403,809.037C512.436,808.828 521.725,821.46 521.485,815.5C521.445,814.506 518.766,810.799 517.463,809.537C517.263,809.344 513.521,805.721 518.522,806.233C520.83,806.469 529.672,817.963 530.09,812.496C530.371,808.822 518.981,804.307 528.482,804.155C539.93,803.973 541.899,804.171 554.478,805.171C559.933,805.604 559.334,806.638 559.754,810.462C560.682,818.908 562.903,822.312 554.474,823.107C548.896,823.633 528.919,825.515 484.517,826.378C478.276,826.499 497.77,809.209 503.311,812.842C506.359,814.84 506.253,814.896 508.167,816.781Z" style="fill:rgb(177,78,67);"/>
                <path d="M452.584,810.82C458.752,809.9 457.981,815.976 461.577,817.089C466.806,818.707 458.587,809.115 460.533,808.558C466.431,806.871 467.131,811.545 469.466,811.819C474.593,812.418 468.24,805.883 470.542,805.581C478.021,804.599 477.898,804.762 485.452,804.77C492.896,804.777 494.602,804.499 503.491,804.658C513.734,804.842 487.924,810.351 479.833,822.762C475.409,829.549 473.678,826.501 465.505,826.253C436.724,825.377 424.588,828.262 427.891,824.774C433.353,819.006 434.972,817.707 444.558,813.717C447.186,812.624 446.727,814.392 451.809,822.227C452.757,823.688 455.279,823.697 455.126,821.478C454.659,814.676 446.209,813.073 452.584,810.82Z" style="fill:rgb(177,78,67);"/>
                <path d="M535.524,831.89C531.152,832.113 482.144,834.615 480.8,832.291C478.518,828.345 488.836,831.091 545.479,827.162C549.409,826.889 563.78,824.519 559.268,829.255C557.944,830.644 551.658,830.91 535.524,831.89Z" style="fill:rgb(177,78,67);"/>
                <g transform="matrix(1,0,0,1,0.476502,-0.879992)">
                    <path d="M484.499,792.843C503.494,793.353 504.697,792.237 504.865,794.407C505.251,799.367 506.502,801.202 501.543,801.814C495.134,802.605 479.367,801.963 479.09,798.569C479.056,798.153 478.76,794.522 479.325,793.362C479.71,792.572 479.919,792.936 484.499,792.843Z" style="fill:rgb(250,248,241);"/>
                </g>
                <g transform="matrix(1,0,0,1,52.984548,-0.879992)">
                    <path d="M484.499,792.843C503.494,793.353 504.697,792.237 504.865,794.407C505.251,799.367 506.502,801.202 501.543,801.814C495.134,802.605 479.367,801.963 479.09,798.569C479.056,798.153 478.76,794.522 479.325,793.362C479.71,792.572 479.919,792.936 484.499,792.843Z" style="fill:rgb(250,248,241);"/>
                </g>
                <path d="M491.584,379.552C494.245,374.329 494.139,373.472 494.892,371.735C495.63,370.032 498.682,370.964 497.195,375.409C487.422,404.619 456.713,392.616 455.714,382.478C455.317,378.45 459.465,383.094 459.681,383.336C469.852,394.721 483.239,392.243 491.584,379.552Z" style="fill:rgb(59,37,17);"/>
                <path d="M439.505,833.41C433.159,833.292 425.066,833.792 425.35,831.477C425.662,828.937 475.92,829.462 476.523,830.489C478.027,833.05 475.378,833.331 439.505,833.41Z" style="fill:rgb(177,78,67);"/>
                <path d="M466.517,363.195C449.496,359.706 464.981,344.295 469.557,349.447C472.903,353.215 465.698,349.908 463.35,354.414C460.422,360.033 468.276,360.22 469.532,360.442C471.144,360.726 471.99,363.623 466.517,363.195Z" style="fill:rgb(59,37,17);"/>
                <path d="M569.844,358.718C567.617,362.46 568.158,364.364 565.715,363.117C561.118,360.769 576.782,344.75 580.027,350.795C581.078,352.752 579.792,352.616 577.592,352.992C573.185,353.744 570.169,358.321 569.844,358.718Z" style="fill:rgb(59,37,17);"/>
                <path d="M444.155,317.513C441.542,319.035 436.13,320.028 441.563,314.581C447.591,308.537 457.36,315.147 450.453,316.203C446.902,316.746 445.207,316.9 444.155,317.513Z" style="fill:rgb(59,37,17);"/>
                <path d="M493.496,436.601C496.895,436.208 498.735,439.347 512,438.026C521.467,437.083 523.813,436.443 531.766,433.49C541.213,429.983 552.403,445.565 560.255,464.698C569.582,487.424 574.687,514.861 573.414,517.085C571.002,521.294 565.027,521.879 551.007,524.013C536.749,526.183 530.454,527.555 528.35,526.14C526.868,525.143 525.857,510.429 525.516,494.665C525.25,482.328 525.809,472.972 524.454,473.014C523.535,473.042 522.881,481.919 522.866,493.714C522.849,508.077 523.163,521.336 525.856,528.293C526.846,530.851 533.344,529.065 533.859,530.62C538.073,543.337 547.533,594.433 543.703,594.943C511.277,599.257 468.067,599.562 461.122,596.706C460.672,596.521 452.734,595.418 452.271,592.416C451.576,587.916 452.29,575.385 454.94,555.639C456.56,543.569 462.016,514.689 467.902,488.345C472.17,469.24 475.922,457.864 478.598,451.975C483.03,442.221 486.396,437.421 493.496,436.601Z" style="fill:rgb(177,78,67);"/>
                <g transform="matrix(0.96291,0,0,0.96291,17.417855,18.643775)">
                    <path d="M448.13,515.344C448.13,515.344 447.472,518.331 451.752,519.497C457.344,521.021 458.359,518.127 458.359,518.127C458.359,518.127 463.177,496.647 465.43,487.152C467.896,476.761 473.675,456.192 473.675,456.192C473.675,456.192 466.505,467.424 457.665,489.276C453.956,498.444 448.13,515.344 448.13,515.344Z" style="fill:rgb(181,76,65);"/>
                </g>
                <g transform="matrix(1.217905,0,0,1.122075,-110.052956,-41.386296)">
                    <ellipse cx="456.349" cy="339.702" rx="4.36" ry="7.4" style="fill:rgb(59,37,17);"/>
                </g>
                <g transform="matrix(1.217905,0,0,1.122075,-52.870651,-41.386296)">
                    <ellipse cx="456.349" cy="339.702" rx="4.36" ry="7.4" style="fill:rgb(59,37,17);"/>
                </g>
            </g>
        </g>
    </g>
</svg>
