<?xml version="1.0" encoding="UTF-8" standalone="no"?>
<!DOCTYPE svg PUBLIC "-//W3C//DTD SVG 1.1//EN" "http://www.w3.org/Graphics/SVG/1.1/DTD/svg11.dtd">
<svg width="100%" height="100%" viewBox="0 0 417 496" version="1.1" xmlns="http://www.w3.org/2000/svg" xmlns:xlink="http://www.w3.org/1999/xlink" xml:space="preserve" xmlns:serif="http://www.serif.com/" style="fill-rule:evenodd;clip-rule:evenodd;stroke-linejoin:round;stroke-miterlimit:2;">
    <g transform="matrix(1,0,0,1,-10929.396895,-4629.878266)">
        <g transform="matrix(1,0,0,1,-0.228456,-0.941977)">
            <g id="Fondo" transform="matrix(1.171875,0,0,1.171875,10538.008828,4274.316346)">
                <path d="M354.952,352.547C361.853,303.704 413.307,291.292 441.581,319.42C444.701,322.524 445.302,320.962 449.279,319.009C519.732,284.415 578.088,321.339 579.509,321.374C581.781,321.431 590.201,310.023 604.462,306.346C639.498,297.313 668.106,324.74 669.138,355.518C670.283,389.672 641.504,404.027 641.344,404.417C639.968,407.782 653.449,449.378 619.908,488.851C611.078,499.242 603.961,502.597 604.331,504.576C604.488,505.42 649.636,525.372 680.178,566.736C700.443,594.183 685.435,620.723 668.296,630.167C665.467,631.726 665.279,632.38 666.862,635.319C688.421,675.365 645.932,727.377 607.499,727.321C575.788,727.274 564.547,701.451 564.545,701.448C562.018,699.206 538.416,709.093 495.469,705.883C463.27,703.476 461.113,697.599 458.246,703.379C448.868,722.284 420.287,735.464 392.584,721.337C389.106,719.563 369.178,709.401 358.333,686.583C342.101,652.427 358.44,635.816 358.529,632.501C358.582,630.536 346.566,627.719 338.996,613.236C323.95,584.451 348.251,560.769 356.119,552.141C387.265,517.988 419.028,506.517 419.421,504.467C419.761,502.692 415.38,500.736 410.806,496.189C381.369,466.925 378.328,437.315 382.641,406.518C383.195,402.566 381.189,403.46 377.31,400.785C351.652,383.09 354.809,356.19 354.952,352.547Z" style="fill:rgb(50,33,17);"/>
                <path d="M488.409,314.068C541.157,304.681 576.506,329.374 580.415,330.71C583.914,331.906 586.957,323.442 596.751,317.941C628.614,300.047 663.23,326.629 661.551,359.503C660.019,389.516 634.243,398.753 633.034,400.154C632.158,401.17 633.191,406.039 633.297,406.539C641.03,442.994 627.872,481.826 589.383,504.295C528.513,539.828 433.104,525.383 400.903,472.256C380.562,438.697 392.033,402.511 391.269,400.596C390.699,399.166 371.54,392.013 364.96,373.334C352.821,338.878 384.256,304.038 417.414,313.791C438.067,319.866 438.556,332.67 443.534,330.576C454.273,326.059 457.557,320.239 488.409,314.068Z" style="fill:rgb(192,144,87);"/>
                <g transform="matrix(1.044302,0,0,0.980135,-65.309583,-77.712558)">
                    <circle cx="552.774" cy="554.381" r="47.283" style="fill:rgb(234,202,163);"/>
                </g>
                <path d="M401.967,601.592C400.421,609.599 401.018,612.775 397.506,612.857C370.839,613.479 368.406,626.013 363.554,625.17C355.254,623.729 324.85,600.15 354.448,565.455C381.669,533.545 400.904,524.26 422.656,511.771C429.13,508.055 429.536,510.664 438.7,515.093C493.274,541.465 555.939,532.802 592.323,511.204C596.503,508.723 596.953,509.905 606.403,514.691C633.238,528.283 680.01,565.26 682.198,590.535C682.413,593.02 683.716,608.071 670.422,619.407C669.278,620.382 661.61,625.676 659.61,625.052C658.15,624.596 656.724,622.639 652.265,619.911C635.345,609.559 624.901,614.816 623.806,611.41C623.538,610.579 620.043,578.355 600.875,548.256C598.258,544.147 592.952,534.422 588.997,538.912C584.796,543.682 592.074,543.805 603.981,570.27C605.388,573.397 613.942,592.411 615.802,611.473C616.209,615.642 613.198,613.349 600.575,619.65C577.194,631.319 555.773,661.9 561.23,690.555C561.834,693.727 560.307,694.011 541.559,696.877C534.538,697.95 505.827,701.213 477.588,696.004C465.908,693.85 462.326,694.937 462.966,689.563C463.053,688.837 467.814,668.718 451.79,645.31C431.216,615.256 408.885,616.768 408.207,612.542C407.981,611.133 411.672,577.089 432.741,547.662C432.968,547.345 438.568,540.857 434.511,538.484C429.981,535.833 427.42,541.436 419.829,553.69C408.618,571.79 403.961,592.845 403.169,596.428C403.077,596.843 403.067,596.833 401.967,601.592Z" style="fill:rgb(192,144,87);"/>
                <g transform="matrix(0.527622,-0.478096,0.728216,0.803651,-423.281607,255.511994)">
                    <ellipse cx="473.684" cy="797.582" rx="60.97" ry="49.896" style="fill:rgb(192,144,87);"/>
                </g>
                <g transform="matrix(-0.527622,-0.478096,-0.728216,0.803651,1447.79253,255.511994)">
                    <ellipse cx="473.684" cy="797.582" rx="60.97" ry="49.896" style="fill:rgb(192,144,87);"/>
                </g>
                <g transform="matrix(1,0,0,1,0.052408,1.487254)">
                    <path d="M501.546,477.093C510.42,477.296 509.651,473.663 509.433,462.501C509.342,457.878 508.311,458.128 504.368,455.741C488.965,446.42 489.236,436.056 500.57,433.843C508.524,432.29 536.012,430.2 530.568,444.527C527.931,451.465 519.627,455.723 518.421,456.341C513.449,458.89 514.297,460.03 514.293,468.5C514.293,469.242 512.874,477.362 521.494,477.235C529.417,477.118 533.899,467.697 536.242,471.674C537.939,474.554 527.485,481.935 521.498,481.804C514.262,481.646 514.279,477.478 509.766,479.989C497.555,486.786 482.08,471.121 489.515,470.892C492.123,470.812 492.877,475.082 501.546,477.093Z" style="fill:rgb(50,33,17);"/>
                </g>
                <path d="M641.686,363.506C641.534,365.311 640.621,376.188 630.169,383.001C625.403,386.108 628.666,374.368 604.654,349.355C601.361,345.925 599.293,344.831 603.172,342.04C609.104,337.771 618.373,334.682 627.592,339.32C640.893,346.012 641.681,356.181 641.686,363.506Z" style="fill:rgb(234,202,163);"/>
                <path d="M412.617,338.048C417.981,339.726 424.24,343.551 422.141,346.234C419.843,349.173 407.629,358.701 396.942,381.715C396.112,383.502 395.144,384.618 390.394,380.617C377.664,369.894 378.438,342.455 402.472,337.354C406.053,336.594 411.823,337.872 412.617,338.048Z" style="fill:rgb(234,202,163);"/>
                <g transform="matrix(0.762101,0,0,0.762101,107.568169,49.338895)">
                    <circle cx="598.689" cy="488.975" r="16.059" style="fill:rgb(50,33,17);"/>
                </g>
                <g transform="matrix(0.762101,0,0,0.762101,3.816901,49.338895)">
                    <circle cx="598.689" cy="488.975" r="16.059" style="fill:rgb(50,33,17);"/>
                </g>
                <g transform="matrix(0.709702,-0.441097,0.546264,0.87891,-376.036599,187.344845)">
                    <ellipse cx="476.637" cy="804.501" rx="32.44" ry="34.658" style="fill:rgb(234,202,163);"/>
                </g>
                <g transform="matrix(-0.709702,-0.441097,-0.546264,0.87891,1394.794198,189.102299)">
                    <ellipse cx="476.637" cy="804.501" rx="32.44" ry="34.658" style="fill:rgb(234,202,163);"/>
                </g>
            </g>
        </g>
    </g>
</svg>
