<?xml version="1.0" encoding="UTF-8" standalone="no"?>
<!DOCTYPE svg PUBLIC "-//W3C//DTD SVG 1.1//EN" "http://www.w3.org/Graphics/SVG/1.1/DTD/svg11.dtd">
<svg width="100%" height="100%" viewBox="0 0 364 421" version="1.1" xmlns="http://www.w3.org/2000/svg" xmlns:xlink="http://www.w3.org/1999/xlink" xml:space="preserve" xmlns:serif="http://www.serif.com/" style="fill-rule:evenodd;clip-rule:evenodd;stroke-linejoin:round;stroke-miterlimit:2;">
    <g transform="matrix(1,0,0,1,-9470.373791,-4664.363892)">
        <g transform="matrix(1,0,0,1,-0.228456,-0.941977)">
            <g id="Fondo" transform="matrix(0.821053,0,0,0.821053,9233.29173,4454.807237)">
                <path d="M554.688,284.371C562.878,290.768 583.01,283.78 620.855,317.063C645.616,338.84 656.424,369.408 658.254,374.583C661.546,383.893 679.235,377.732 685.331,376.354C696.734,373.777 721.211,362.054 729.202,376.662C735.644,388.437 728.838,411.521 712.308,428.306C709.78,430.874 707.266,431.884 710.623,433.158C710.662,433.173 730.095,437.958 726.72,452.565C725.297,458.727 711.223,478.425 670.51,481.623C660.438,482.414 659.42,480.426 655.976,484.759C649.789,494.458 649.778,494.373 641.871,502.826C637.703,507.28 649.986,509.74 676.116,530.972C766.333,604.278 732.596,715.545 638.554,750.628C627.903,754.601 581.037,772.085 497.519,768.012C412.866,763.885 299.308,743.505 289.436,596.504C284.056,516.409 333.615,445.956 367.986,489.119C377.53,501.104 394.248,538.94 444.351,523.017C463.983,516.778 463.383,513.941 462.218,512.776C458.013,508.571 440.495,499.921 423.898,466.311C398.735,415.358 409.55,324.815 496.358,291.125C498.2,290.41 500.208,289.66 500.544,289.534C500.475,289.335 501.157,289.412 501.088,289.213C501.051,289.104 501.088,289.213 499.963,288.306C498.003,286.8 488.968,281.968 492.307,270.441C493.289,267.05 500.066,254.947 513.303,262.825C515.972,264.414 516.637,266.006 518.185,263.332C528.183,246.063 546.989,263.94 554.688,284.371Z" style="fill:rgb(76,27,12);"/>
                <path d="M721.103,626.511C721.107,653.35 716.759,673.124 695.121,702.21C684.151,716.956 652.493,746.379 588.513,755.59C531.139,763.851 384.396,771.483 329.89,694.213C255.179,588.3 324.53,440.829 363.893,496.221C372.072,507.73 394.288,550.846 453.337,528.014C461.304,524.934 472.848,520.651 470.576,511.476C468.246,502.066 441.872,499.39 424.217,445.597C402.789,380.307 452.028,288.63 541.485,291.99C623.592,295.073 653.966,376.937 651.247,380.393C648.614,383.738 643.296,378.142 633.821,395.681C610.534,438.79 582.247,466.038 624.591,478.157C637.076,481.73 650.39,479.803 647.28,484.369C635.172,502.148 628.672,501.723 633.403,509.568C635.442,512.949 661.804,526.629 681.284,545.731C715.837,579.613 719.034,603.36 721.103,626.511Z" style="fill:rgb(250,199,41);"/>
                <path d="M552.494,565.308C559.923,565.361 584.851,563.684 604.034,588.85C620.163,610.01 615.632,636.479 613.179,644.411C593.797,707.086 514.981,715.552 456.612,691.219C407.658,670.811 389.551,635.263 428.583,625.835C487.311,611.65 494.788,570.328 552.494,565.308Z" style="fill:rgb(11,5,5);"/>
                <path d="M489.563,693.152C488.314,692.854 467.312,688.607 452.248,680.985C450.268,679.982 436.492,673.012 428.785,666.169C397.333,638.247 430.365,633.399 431.406,633.123C479.851,620.279 497.268,590.757 526.678,578.941C593.738,552 626.724,619.205 597.352,660.402C573.519,693.828 537.726,701.346 489.563,693.152Z" style="fill:rgb(250,199,41);"/>
                <path d="M634.45,459.037C631.505,459.307 621.604,459.343 622.806,462.364C624.007,465.385 634.658,462.684 673.503,463.173C707.11,463.596 710.52,455.113 708.143,452.89C705.742,450.646 702.931,455.537 689.45,457.111C684.065,457.739 659.531,459.852 673.26,455.032C691.005,448.801 697.22,432.244 715.316,442.796C735.017,454.284 689.254,484.377 629.578,472.142C592.049,464.449 615.847,443.203 638.992,400.771C649.815,380.93 655.852,389.546 682.407,384.007C711.948,377.846 721.95,370.841 724.203,383.542C729.321,412.39 682.583,446.385 693.586,433.546C708.003,416.721 709.465,407.589 718.371,387.447C719.653,384.547 716.198,381.727 713.711,386.604C704.188,405.276 694.396,446.245 651.427,456.179C644.065,457.881 644.075,457.587 634.45,459.037Z" style="fill:rgb(241,129,34);"/>
                <path d="M545.319,284.179C527.235,284.484 527.188,283.593 512.536,286.684C509.25,287.377 509.851,285.586 504.746,282.116C493.491,274.465 501.165,262.824 512.146,270.95C523.255,279.172 524.026,273.417 524.127,272.457C524.136,272.366 523.695,266.995 526.646,264.704C532.433,260.21 545.617,278.431 545.319,284.179Z" style="fill:rgb(250,199,41);"/>
                <path d="M499.963,288.306C501.088,289.213 501.051,289.104 501.088,289.213C501.157,289.412 500.475,289.335 500.544,289.534L499.963,288.306Z" style="fill:rgb(135,105,54);"/>
                <g transform="matrix(0.67479,-0.221823,0.322918,0.982326,-33.770847,83.937578)">
                    <circle cx="660.267" cy="479.322" r="20.79" style="fill:rgb(76,27,12);"/>
                </g>
            </g>
        </g>
    </g>
</svg>
