<?xml version="1.0" encoding="UTF-8" standalone="no"?>
<!DOCTYPE svg PUBLIC "-//W3C//DTD SVG 1.1//EN" "http://www.w3.org/Graphics/SVG/1.1/DTD/svg11.dtd">
<svg width="100%" height="100%" viewBox="0 0 486 395" version="1.1" xmlns="http://www.w3.org/2000/svg" xmlns:xlink="http://www.w3.org/1999/xlink" xml:space="preserve" xmlns:serif="http://www.serif.com/" style="fill-rule:evenodd;clip-rule:evenodd;stroke-linejoin:round;stroke-miterlimit:2;">
    <g transform="matrix(1,0,0,1,-11386.64994,-4735.955484)">
        <g transform="matrix(1,0,0,1,-0.228456,-0.941977)">
            <g transform="matrix(1,0,0,1,11030.089645,4334.397453)">
                <g id="Fondo" transform="matrix(1.171875,0,0,1.171875,0,0)">
                    <g transform="matrix(5.183493,1.753732,-0.153017,0.452272,-1760.535047,-549.099359)">
                        <ellipse cx="427.662" cy="505.279" rx="1.168" ry="21.929" style="fill:rgb(252,252,251);"/>
                    </g>
                    <path d="M575.327,635.686C571.946,636.01 573.738,643.863 564.499,644.166C557.98,644.38 558.578,642.567 554.383,637.619C553.165,636.183 548.355,641.274 541.634,638.198C533.734,634.582 533.292,623.964 533.213,623.603C532.733,621.426 531.603,622.742 503.509,621.131C501.925,621.04 500.612,621.263 500.248,623.445C491.734,674.469 496.114,680.06 486.497,680.116C465.188,680.24 462.621,680.296 461.455,676.515C460.653,673.914 461.057,626.817 461.094,622.495C461.149,616.111 458.806,617.044 452.503,616.169C449.894,615.807 450.699,620.688 450.822,636.497C451.131,676.342 451.248,677.093 448.315,679.208C445.948,680.915 422.047,679.911 421.429,679.77C417.12,678.788 417.294,677.219 415.898,642.484C415.779,639.526 415.726,639.597 414.232,605.52C414.075,601.933 400.394,595.017 392.708,567.44C380.904,525.092 386.356,521.372 381.451,520.831C370.677,519.642 370.664,520.074 355.594,517.038C295.287,504.891 301.189,463.999 309.859,449.716C322.142,429.483 340.074,434.412 341.334,428.465C344.851,411.863 345.603,411.973 345.419,410.512C345.207,408.833 324.528,407.331 320.452,387.511C316.075,366.229 329.999,376.285 351.485,379.164C353.584,379.445 351.69,374.345 352.222,366.479C353.03,354.539 360.255,345.732 363.435,344.378C378.674,337.891 371.072,368.282 382.582,364.799C417.824,354.132 436.216,373.65 439.465,373.112C452.87,370.89 450.895,361.387 453.713,357.643C462.526,345.934 475.689,369.207 466.085,389.302C463.223,395.291 460.869,397.613 460.854,397.64C459.312,400.421 489.946,407.278 486.745,416.593C485.299,420.803 484.433,420.189 479.634,424.611C476.06,427.903 487.168,425.752 553.503,424.886C619.382,424.027 619.088,433.195 624.405,431.157C628.216,429.696 652.949,420.214 675.211,435.929C719.75,467.368 711.609,545.06 711.523,557.5C711.317,587.529 710.226,588.555 714.377,591.665C726.518,600.76 711.272,622.352 707.212,627.265C702.367,633.127 700.312,631.393 695.745,625.317C674.878,597.556 691.367,590.3 691.671,589.585C692.819,586.887 692.744,531.546 692.737,526.499C692.692,493.031 675.027,461.792 666.527,457.403C660.355,454.216 667.028,459.476 670.403,465.55C687.154,495.697 689.555,525.195 670.637,617.527C659.81,670.373 661.274,674.758 659.598,677.567C656.877,682.127 630.252,680.082 628.853,679.01C623.993,675.287 626.799,638.848 625.2,634.581C623.079,628.919 623.127,637.8 617.658,643.656C614.143,647.42 617.539,672.753 614.675,677.614C613.568,679.493 612.6,681.137 587.53,680.031C580.572,679.724 581.673,674.392 579.449,645.504C579.298,643.541 577.444,641.341 575.327,635.686Z" style="fill:rgb(58,35,26);"/>
                    <path d="M417.566,528.41C414.512,526.612 405.498,527.478 405.498,527.478C393.813,528.274 391.81,528.271 391.312,522.489C390.944,518.211 411.479,524.339 434.776,506.296C448.536,495.64 450.054,476.313 452.813,446.533C452.89,435.414 452.295,427.798 454.509,428.123C460.71,429.03 464.084,434.288 490.508,433.9C495.67,433.824 496.101,432.656 497.477,434.513C498.987,436.553 488.567,489.324 505.636,505.362C531.292,529.468 535.736,499.97 554.783,481.788C576.115,461.425 565.705,454.984 559.264,435.573C559.184,435.332 558.328,432.753 560.527,432.669C614.432,430.592 633.412,443.792 638.844,446.016C653.313,451.941 626.995,443.014 608.733,455.828C599.402,462.376 600.238,463.616 589.672,467.925C563.399,478.639 581.974,513.252 605.337,505.014C606.464,504.617 621.767,496.18 637.425,501.713C657.677,508.868 629.512,544.441 649.884,576.256C660.618,593.019 667.397,592.528 667.002,595.453C666.464,599.425 655.963,655.153 655.155,656.31C654.256,657.599 653.78,656.16 635.503,656.443C633.179,656.479 634.185,654.954 632.267,611.526C631.923,603.75 622.477,610.141 569.501,613.513C522.867,616.482 496.32,611.682 494.613,614.563C491.933,619.087 489.042,655.64 486.433,656.242C485.19,656.53 485.222,654.647 470.485,656.195C467.244,656.536 469.989,654.036 468.65,615.496C468.428,609.108 461.323,608.544 454.583,608.063C452.872,607.941 446.207,608.5 444.146,612.847C440.994,619.492 445.47,656.974 442.545,657.653C441.295,657.943 441.347,656.701 426.502,657.588C423.378,657.775 421.066,598.914 421.066,598.914C419.777,597.912 405.006,586.427 408.693,582.681C410.606,580.739 425.217,570.628 424.003,544.511C423.552,534.829 421.177,530.538 417.566,528.41Z" style="fill:rgb(252,252,251);"/>
                    <path d="M347.254,437.399C347.254,437.399 361.571,436.499 390.73,442.613C428.018,450.431 442.159,463.374 444.146,464.446C442.712,477.814 444.61,525.227 361.493,510.536C290.24,497.943 310.58,450.446 328.703,441.889C337.091,437.928 343.15,439.405 347.254,437.399Z" style="fill:rgb(249,186,167);"/>
                    <path d="M347.254,437.399C354.085,403.018 357.472,400.167 353.527,400.722C351.762,400.97 338.125,402.887 331.964,395.091C326.83,388.595 326.395,381.576 329.439,381.983C336.043,382.865 361.758,390.624 364.176,388.144C364.738,387.568 381.069,363.76 413.532,370.337C445.449,376.804 443.521,401.672 448.607,403.168C451.036,403.883 482.129,413.033 477.047,417.068C459.855,430.719 444.873,409.218 445.153,420.497C445.642,440.177 445.736,440.407 444.146,464.446C442.159,463.374 421.428,452.455 390.715,444.349C372.965,439.664 356.175,437.668 347.254,437.399Z" style="fill:rgb(252,252,251);"/>
                    <path d="M599.048,561.505C597.34,585.576 584.978,598.27 573.494,598.221C527.802,598.026 484.93,604.817 483.923,589.487C482.91,574.057 496.479,576.04 529.289,554.17C532.931,551.742 552.712,538.558 583.383,545.992C600.077,550.038 598.615,558.432 599.048,561.505Z" style="fill:rgb(56,35,26);"/>
                    <path d="M650.302,443.801C642.871,439.795 635.841,435.786 636.62,434.706C637.533,433.438 652.096,434.383 657.398,435.881C683.784,443.336 705.224,475.116 704.921,530.503C704.896,535.062 704.643,581.258 704.388,587.48C704.303,589.544 698.847,590.649 698.832,586.492C698.636,529.668 704.522,503.712 684.192,467.683C674.503,450.513 663.848,448.869 661.499,448.506C655.402,447.566 655.824,446.777 650.302,443.801Z" style="fill:rgb(252,252,251);"/>
                    <path d="M559.514,621.736C589.106,620.24 616.52,616.765 621.456,616.139C625.891,615.577 625.093,620.222 624.998,623.558C624.9,626.994 621.867,624.807 619.501,624.834C615.172,624.884 614.801,635.179 613.144,637.227C607.192,644.582 605.61,626.657 601.597,625.241C591.715,621.757 590.728,634.691 589.291,636.341C582.994,643.576 580.485,626.819 577.529,625.446C571.433,622.615 568.703,630.649 568.422,631.477C563.825,645.005 558.948,629.214 558.708,628.436C557.115,623.278 552.221,622.737 549.885,627.667C545.874,636.134 541.857,629.876 540.841,624.446C540.232,621.189 547.544,622.037 559.514,621.736Z" style="fill:rgb(236,151,146);"/>
                    <path d="M390.471,494.976C398.261,494.07 395.588,501.94 387.442,503.141C361.923,506.903 337.319,493.268 346.721,487.948C352.009,484.956 357.638,501.948 390.471,494.976Z" style="fill:rgb(58,35,26);"/>
                    <path d="M598.424,634.742C601.782,634.319 601.339,642.52 607.557,645.389C609.57,646.318 609.781,657.373 606.509,657.154C590.927,656.113 590.866,657.448 589.589,657.002C588.242,656.531 587.375,648.29 587.293,647.513C587.02,644.925 589.005,644.861 589.554,644.671C596.792,642.176 594.849,635.192 598.424,634.742Z" style="fill:rgb(252,252,251);"/>
                    <path d="M458.942,363.921C458.942,363.921 459.402,362.367 460.52,364.483C467.024,376.804 456.297,394.942 452.506,394.468C450.72,394.244 444.292,380.701 445.548,379.557C449.016,376.397 453.42,380 458.942,363.921Z" style="fill:rgb(235,166,94);"/>
                    <path d="M359.809,361.829C360.295,360.022 361.971,355.761 364.722,352.765C366.89,350.405 366.375,353.557 367.866,359.412C369.812,367.056 376.159,367.795 370.714,371.82C364.427,376.469 361.88,381.045 360.937,379.171C357.867,373.068 359.217,364.029 359.809,361.829Z" style="fill:rgb(235,166,94);"/>
                    <g transform="matrix(0.852872,0,0,0.852872,57.608529,61.87594)">
                        <path d="M418.465,409.491C416.19,407.978 411.21,403.358 415.272,400.174C420.926,395.74 430.328,415.828 418.465,409.491Z" style="fill:rgb(58,35,26);"/>
                    </g>
                    <g transform="matrix(-0.254247,0.814094,-0.814094,-0.254247,820.252325,162.896082)">
                        <path d="M418.465,409.491C416.19,407.978 411.21,403.358 415.272,400.174C420.926,395.74 430.328,415.828 418.465,409.491Z" style="fill:rgb(58,35,26);"/>
                    </g>
                    <g transform="matrix(5.183493,1.753732,-0.153017,0.452272,-1759.673794,-551.582959)">
                        <ellipse cx="427.662" cy="505.279" rx="1.168" ry="21.929" style="fill:rgb(58,35,26);"/>
                    </g>
                    <g transform="matrix(4.385856,-0.392783,0.03533,0.394501,-1550.414729,427.917984)">
                        <ellipse cx="427.662" cy="505.279" rx="1.168" ry="21.929" style="fill:rgb(62,34,23);"/>
                    </g>
                    <g transform="matrix(4.385856,-0.392783,0.03533,0.394501,-1550.414729,427.917984)">
                        <ellipse cx="427.662" cy="505.279" rx="1.168" ry="21.929" style="fill:rgb(58,35,26);"/>
                    </g>
                    <g transform="matrix(3.659991,2.448362,-0.220226,0.329211,-1041.478784,-741.203582)">
                        <ellipse cx="427.662" cy="505.279" rx="1.168" ry="21.929" style="fill:rgb(58,35,26);"/>
                    </g>
                    <g transform="matrix(5.183493,1.753732,-0.153017,0.452272,-1738.207534,-546.029914)">
                        <ellipse cx="427.662" cy="505.279" rx="1.168" ry="21.929" style="fill:rgb(58,35,26);"/>
                    </g>
                </g>
            </g>
        </g>
    </g>
</svg>
