<?xml version="1.0" encoding="UTF-8" standalone="no"?>
<!DOCTYPE svg PUBLIC "-//W3C//DTD SVG 1.1//EN" "http://www.w3.org/Graphics/SVG/1.1/DTD/svg11.dtd">
<svg width="100%" height="100%" viewBox="0 0 471 467" version="1.1" xmlns="http://www.w3.org/2000/svg" xmlns:xlink="http://www.w3.org/1999/xlink" xml:space="preserve" xmlns:serif="http://www.serif.com/" style="fill-rule:evenodd;clip-rule:evenodd;stroke-linejoin:round;stroke-miterlimit:2;">
    <g transform="matrix(1,0,0,1,-12774.883646,-2721.743739)">
        <g transform="matrix(1,0,0,1,6792.096569,219.332689)">
            <g transform="matrix(2.806869,0,0,2.806869,5675.059103,1603.955619)">
                <path d="M151.633,322.077C164.17,328.293 190.079,360.738 193.485,360.559C194.01,360.531 194.843,361.31 226.933,327.953C247.766,306.298 283.368,333.532 276.295,359.451C275.12,363.759 274.757,365.088 238.723,400.727C234.99,404.418 237.352,405.153 241.129,408.895C243.459,411.203 269.728,437.225 270.24,437.757C287.634,455.833 269.883,488.559 239.445,485.818C224.212,484.446 196.673,443.438 191.679,446.791C189.416,448.31 163.269,475.293 160.833,477.806C140.977,498.297 115.119,477.464 111.387,464.536C104.9,442.068 119.441,437.14 128.071,427.108C132.587,421.858 148.333,407.004 149.703,404.573C150.924,402.408 149.187,402.432 114.864,367.178C99.542,351.441 119.712,312.02 151.633,322.077Z" style="fill:rgb(90,188,176);"/>
            </g>
            <g transform="matrix(2.806869,0,0,2.806869,5675.059103,1603.955619)">
                <path d="M120.743,362.197C119.57,358.037 115.687,348.893 124.703,337.677C133.834,326.319 152.512,327.496 147.299,333.336C145.668,335.163 129.012,333.72 125.376,348.47C123.044,357.928 130.663,363.941 121.483,363.589L120.743,362.197Z" style="fill:rgb(148,216,211);"/>
            </g>
        </g>
    </g>
</svg>
