<?xml version="1.0" encoding="UTF-8" standalone="no"?>
<!DOCTYPE svg PUBLIC "-//W3C//DTD SVG 1.1//EN" "http://www.w3.org/Graphics/SVG/1.1/DTD/svg11.dtd">
<svg width="100%" height="100%" viewBox="0 0 460 461" version="1.1" xmlns="http://www.w3.org/2000/svg" xmlns:xlink="http://www.w3.org/1999/xlink" xml:space="preserve" xmlns:serif="http://www.serif.com/" style="fill-rule:evenodd;clip-rule:evenodd;stroke-linejoin:round;stroke-miterlimit:2;">
    <g transform="matrix(1,0,0,1,-13411.518471,-2745.290795)">
        <g transform="matrix(1,0,0,1,6792.096569,219.332689)">
            <g transform="matrix(2.806869,0,0,2.806869,5049.793503,1627.627523)">
                <path d="M600.559,321.263C612.812,327.097 617.749,335.894 639.683,357.306C641.356,358.938 642.145,357.787 671.658,327.66C689.301,309.651 716.697,327.123 721.034,343.61C726.656,364.978 715.723,367.36 687.007,398.03C681.248,404.181 687.555,405.773 698.117,416.896C717.364,437.166 717.546,436.969 719.097,438.838C729.691,451.6 717.419,478.602 697.404,483.089C679.978,486.996 673.604,478.038 670.264,474.737C653.85,458.517 642.719,446.315 641.401,445.824C638.552,444.761 610.888,477.881 604.346,481.223C576.165,495.621 546.3,455.534 565.076,436.097C577.646,423.084 577.847,423.437 590.479,410.478C596.34,404.465 601.294,403.634 595.281,397.712C592.825,395.295 576.126,378.85 564.962,367.117C556.822,358.563 559.58,344.941 563.889,337.731C576.943,315.89 597.423,320.55 600.559,321.263Z" style="fill:rgb(233,85,81);"/>
            </g>
            <g transform="matrix(2.806869,0,0,2.806869,5049.793503,1627.627523)">
                <path d="M572.649,364.041C570.721,361.452 570.189,361.691 569.742,358.459C565.92,330.769 594.461,325.541 597.102,330.646C599.846,335.948 587.604,333.01 580.847,339.816C569.003,351.745 581.905,364.707 572.649,364.041Z" style="fill:rgb(251,171,169);"/>
            </g>
        </g>
    </g>
</svg>
