<?xml version="1.0" encoding="UTF-8" standalone="no"?>
<!DOCTYPE svg PUBLIC "-//W3C//DTD SVG 1.1//EN" "http://www.w3.org/Graphics/SVG/1.1/DTD/svg11.dtd">
<svg width="100%" height="100%" viewBox="0 0 527 535" version="1.1" xmlns="http://www.w3.org/2000/svg" xmlns:xlink="http://www.w3.org/1999/xlink" xml:space="preserve" xmlns:serif="http://www.serif.com/" style="fill-rule:evenodd;clip-rule:evenodd;stroke-linejoin:round;stroke-miterlimit:2;">
    <g transform="matrix(1,0,0,1,-12746.768082,-2077.401398)">
        <g transform="matrix(1,0,0,1,6792.096569,219.332689)">
            <g transform="matrix(2.806869,0,0,2.806869,5675.059103,1603.955619)">
                <path d="M226.877,244.499C226.874,244.79 229.95,269.956 203.479,279.434C191.405,283.757 160.388,279.044 159.67,247.498C159.122,223.416 160.607,221.652 157.508,221.426C142.216,220.309 112.659,228.126 101.451,200.521C96.917,189.351 98.472,155.269 133.492,155.092C155.731,154.979 159.598,156.123 159.608,152.504C159.689,123.791 157.686,109.842 170.88,98.901C193.437,80.196 226.703,94.934 226.906,122.496C227.132,152.993 225.865,154.274 228.351,154.817C240.976,157.573 265.296,147.672 281.315,168.638C293.37,184.417 288.747,221.154 252.5,221.281C238.039,221.332 229.128,220.933 227.771,221.889C226.714,222.633 226.895,225.719 226.877,244.499Z" style="fill:rgb(89,186,218);"/>
            </g>
            <g transform="matrix(2.806869,0,0,2.806869,5675.059103,1603.955619)">
                <path d="M179.625,113.6C168.136,130.81 180.062,137.363 172.614,139.832C170.488,140.537 168.713,138.942 168.664,136.49C168.463,126.219 167.003,108.872 186.475,101.426C193.258,98.832 201.464,102.882 196.613,105.643C194.834,106.655 191.566,106.159 189.58,106.827C183.566,108.85 182.526,110.62 179.625,113.6Z" style="fill:rgb(171,226,246);"/>
            </g>
        </g>
    </g>
</svg>
