<?xml version="1.0" encoding="UTF-8" standalone="no"?>
<!DOCTYPE svg PUBLIC "-//W3C//DTD SVG 1.1//EN" "http://www.w3.org/Graphics/SVG/1.1/DTD/svg11.dtd">
<svg width="100%" height="100%" viewBox="0 0 482 492" version="1.1" xmlns="http://www.w3.org/2000/svg" xmlns:xlink="http://www.w3.org/1999/xlink" xml:space="preserve" xmlns:serif="http://www.serif.com/" style="fill-rule:evenodd;clip-rule:evenodd;stroke-linejoin:round;stroke-miterlimit:2;">
    <g transform="matrix(1,0,0,1,-14023.711266,-2096.506532)">
        <g transform="matrix(1,0,0,1,6792.096569,219.332689)">
            <g transform="matrix(2.806869,0,0,2.806869,5675.059103,1603.955619)">
                <path d="M726.066,240.477C722.809,266.205 690.938,284.695 671.965,263.06C666.581,256.921 657.34,248.886 648.282,238.697C641.282,230.822 639.385,232.182 638.647,232.711C634.416,235.744 606.306,269.088 597.472,271.392C568.57,278.928 548.043,245.903 556.455,228.477C559.264,222.658 596.281,186.985 596.558,185.507C597.1,182.617 574.796,162.334 566.71,153.315C562.372,148.477 544.881,136.835 563.456,110.466C568.646,103.098 591.665,89.88 605.313,102.724C611.789,108.818 638.778,137.525 640.461,137.635C644.266,137.885 672.669,101.579 683.452,98.328C707.345,91.125 743.056,125.129 717.05,150.036C700.946,165.459 701.629,166.005 685.804,181.781C681.647,185.925 686.758,187.954 693.946,196.075C698.097,200.764 721.752,222.44 724.203,228.627C726.517,234.466 726.011,238.41 726.066,240.477Z" style="fill:rgb(248,176,52);"/>
            </g>
            <g transform="matrix(2.806869,0,0,2.806869,5675.059103,1603.955619)">
                <path d="M571.367,133.517C572.007,136.279 574.168,142.466 569.537,142.099C561.614,141.47 563.131,107.859 589.468,106.247C597.258,105.77 594.374,111.378 592.526,111.639C592.369,111.661 576.849,111.404 571.828,126.585C571.322,128.116 571.363,132.961 571.367,133.517Z" style="fill:rgb(252,212,119);"/>
            </g>
        </g>
    </g>
</svg>
