<?xml version="1.0" encoding="UTF-8" standalone="no"?>
<!DOCTYPE svg PUBLIC "-//W3C//DTD SVG 1.1//EN" "http://www.w3.org/Graphics/SVG/1.1/DTD/svg11.dtd">
<svg width="100%" height="100%" viewBox="0 0 475 315" version="1.1" xmlns="http://www.w3.org/2000/svg" xmlns:xlink="http://www.w3.org/1999/xlink" xml:space="preserve" xmlns:serif="http://www.serif.com/" style="fill-rule:evenodd;clip-rule:evenodd;stroke-linejoin:round;stroke-miterlimit:2;">
    <g transform="matrix(1,0,0,1,-14682.662693,-2203.98081)">
        <g transform="matrix(1,0,0,1,6792.096569,219.332689)">
            <g transform="matrix(2.806869,0,0,2.806869,5763.643436,995.581772)">
                <path d="M870.49,463.913C863.372,463.846 821.823,463.456 781.527,462.166C757.068,461.384 749.556,425.582 775.65,415.921C783.701,412.94 856.039,416.532 899.5,416.962C928.936,417.254 929.409,441.127 924.164,451.309C915.471,468.182 897.926,464.235 870.49,463.913Z" style="fill:rgb(131,88,151);"/>
            </g>
            <g transform="matrix(2.806869,0,0,2.806869,5759.30168,820.504209)">
                <path d="M870.49,463.913C863.372,463.846 821.823,463.456 781.527,462.166C757.068,461.384 749.556,425.582 775.65,415.921C783.701,412.94 856.039,416.532 899.5,416.962C928.936,417.254 929.409,441.127 924.164,451.309C915.471,468.182 897.926,464.235 870.49,463.913Z" style="fill:rgb(131,88,151);"/>
            </g>
        </g>
    </g>
</svg>
